<svg width="41" height="27" viewBox="0 0 41 27" fill="none" xmlns="http://www.w3.org/2000/svg">
<path d="M40.6846 20.5401L34.4522 15.8925C34.3064 15.7789 34.1309 15.708 33.9459 15.6879C33.7609 15.6678 33.5739 15.6993 33.4063 15.7788C33.2387 15.8583 33.0974 15.9826 32.9985 16.1374C32.8996 16.2922 32.8472 16.4713 32.8473 16.654V19.6211H30.1725C28.394 19.6447 26.6361 19.2464 25.0481 18.4601C23.4601 17.6738 22.0889 16.5228 21.0512 15.1048L19.9278 13.5031L21.1047 11.8751C22.1254 10.4756 23.4699 9.33407 25.0277 8.54434C26.5856 7.7546 28.3122 7.33927 30.0655 7.33251H32.7403V10.2996C32.7496 10.4783 32.8077 10.6512 32.9085 10.8002C33.0093 10.9493 33.149 11.069 33.3131 11.1468C33.4772 11.2247 33.6595 11.2578 33.8411 11.2427C34.0227 11.2276 34.1968 11.1649 34.3452 11.0611L40.5509 6.38723C40.6728 6.29664 40.7716 6.17956 40.8397 6.04516C40.9078 5.91077 40.9432 5.76272 40.9432 5.61263C40.9432 5.46254 40.9078 5.3145 40.8397 5.1801C40.7716 5.04571 40.6728 4.92862 40.5509 4.83803L34.4522 0.190413C34.3044 0.0831243 34.1291 0.018354 33.946 0.00336053C33.7628 -0.0116329 33.579 0.0237429 33.4151 0.105524C33.2513 0.187304 33.1139 0.312259 33.0183 0.466384C32.9228 0.620509 32.8728 0.797716 32.8741 0.978145V3.94527H30.1992C27.8654 3.92467 25.5607 4.45546 23.4798 5.49285C21.3988 6.53024 19.6026 8.04379 18.2427 9.90577L17.7612 10.5097L17.2797 9.827C15.9121 7.98476 14.116 6.48988 12.041 5.46681C9.96589 4.44374 7.67187 3.92208 5.3499 3.94527H1.76561C1.29713 3.95875 0.852036 4.14923 0.523132 4.477C0.194227 4.80476 0.00689998 5.2445 0.000209014 5.70453C-0.00340144 5.93309 0.0397956 6.16004 0.127237 6.3719C0.214678 6.58376 0.344582 6.77622 0.509239 6.93785C0.673896 7.09949 0.869951 7.22701 1.08577 7.31285C1.30159 7.39868 1.53277 7.44109 1.76561 7.43754H5.3499C7.1152 7.42445 8.85787 7.82786 10.4312 8.61381C12.0046 9.39977 13.3626 10.5453 14.3909 11.9539L15.5678 13.5556L14.4176 15.1573C13.3671 16.5476 12.0002 17.6776 10.4258 18.4572C8.85142 19.2368 7.11322 19.6443 5.3499 19.6474H1.79236C1.32414 19.6474 0.875107 19.83 0.54403 20.155C0.212954 20.48 0.0269575 20.9208 0.0269575 21.3804C0.0269575 21.84 0.212954 22.2808 0.54403 22.6058C0.875107 22.9308 1.32414 23.1134 1.79236 23.1134H5.3499C7.67471 23.1256 9.96865 22.5907 12.0396 21.5537C14.1106 20.5167 15.8983 19.0076 17.253 17.1529L17.7344 16.4702L18.2159 17.1529C19.5727 18.9891 21.3547 20.4824 23.4149 21.5096C25.4752 22.5368 27.7547 23.0685 30.0655 23.0609H32.7403V26.028C32.7402 26.2107 32.7926 26.3898 32.8915 26.5446C32.9904 26.6994 33.1317 26.8237 33.2993 26.9032C33.4669 26.9827 33.6539 27.0142 33.8389 26.9941C34.0239 26.974 34.1994 26.9031 34.3452 26.7895L40.5509 22.1156C40.6774 22.0296 40.783 21.9171 40.86 21.7862C40.937 21.6554 40.9836 21.5094 40.9964 21.3589C41.0092 21.2083 40.9879 21.0568 40.9339 20.9152C40.88 20.7737 40.7949 20.6456 40.6846 20.5401Z" fill="#EBE4CF"/>
</svg>
