<svg width="18" height="16" viewBox="0 0 18 16" fill="none" xmlns="http://www.w3.org/2000/svg">
<path d="M13.5919 7.38343C10.4044 5.52102 6.85476 3.13916 2.97616 3.13916C1.16013 3.13916 0.40685 5.70519 1.1311 7.15369C2.73766 10.3668 7.85039 11.8913 10.7822 13.5404C12.9498 14.7597 17.1515 15.4004 17.3312 11.8981C17.5003 8.59899 15.0273 8.5 13.0283 7" stroke="white" stroke-linecap="round"/>
<path d="M11.7523 2.65558C10.6916 3.37577 9.81083 4.37427 8.919 5.28803C7.90978 6.32207 6.83449 7.27672 5.91434 8.39554C4.90418 9.6238 3.80411 11.0614 3.8647 12.7275C3.88332 13.2396 4.34616 13.3936 4.79279 13.3911C5.43129 13.3875 5.96604 13.1158 6.49225 12.774C8.11965 11.7168 9.38167 10.2272 10.905 9.03713C12.8722 7.50025 15.3885 5.5188 15.4107 2.76333C15.4144 2.3056 15.2882 1.62603 14.7471 1.51934C14.1206 1.3958 13.5063 1.67715 12.9717 1.97237C12.3382 2.32223 11.759 2.76602 11.0911 3.05228" stroke="white" stroke-linecap="round"/>
<path d="M11.4428 2.03846C10.7257 2.2536 10.5852 2.78367 10.6053 3.45876C10.6172 3.85706 11.0038 4.10253 11.3791 4.05626C12.0324 3.97572 12.4725 3.42833 12.2852 2.78779C12.1512 2.32962 11.6703 1.48264 11.1098 1.92581C10.7703 2.1942 10.4746 3.30324 11.0706 3.43917C11.3846 3.51079 11.9335 3.37397 11.9277 2.98369C11.921 2.53681 11.4574 2.749 11.4085 3.08654C11.3752 3.31668 11.4858 3.24539 11.5555 3.08654C11.6755 2.81279 11.4802 2.84612 11.2665 2.83187" stroke="white" stroke-linecap="round"/>
<path d="M1.99775 7.09973C1.13634 7.31008 0.12642 8.19787 0.991793 8.79235C1.43842 9.09916 2.18244 9.07053 2.58351 8.67481C2.9584 8.30491 2.95454 7.47356 2.48066 7.18104C1.94168 6.84834 0.985718 7.47845 1.06281 8.07975C1.15645 8.81019 2.26914 8.63035 2.37046 8.01118C2.41883 7.71557 2.20498 7.44062 1.89785 7.44062C1.52667 7.44062 1.23469 7.90249 1.17545 8.23157C1.112 8.58407 1.69679 8.38986 1.82438 8.30014C1.99062 8.18325 2.36401 7.56788 1.8856 7.60468C1.70312 7.61872 1.93403 7.80305 1.96641 7.81773C2.09778 7.87728 2.08439 7.72129 1.99825 7.67325C1.83077 7.57985 1.51586 7.57319 1.35421 7.68549C1.14978 7.82752 1.57839 7.88993 1.61379 7.90099" stroke="white" stroke-linecap="round"/>
</svg>
