<svg width="32" height="32" viewBox="0 0 32 32" fill="none" xmlns="http://www.w3.org/2000/svg">
<g clip-path="url(#clip0_678:6969)">
<path fill-rule="evenodd" clip-rule="evenodd" d="M16.7907 15.7198C16.8187 15.5805 16.888 15.4529 16.9894 15.3534C17.0909 15.254 17.2199 15.1873 17.3597 15.1621C17.4995 15.1369 17.6437 15.1543 17.7735 15.2121C17.9033 15.2699 18.0127 15.3653 18.0876 15.4861C18.1625 15.6068 18.1993 15.7473 18.1933 15.8892C18.1874 16.0312 18.1388 16.168 18.0541 16.2821C17.9693 16.3961 17.8523 16.482 17.7181 16.5287C17.5839 16.5753 17.4388 16.5806 17.3016 16.5437C17.1277 16.497 16.9781 16.3858 16.8832 16.2328C16.7883 16.0798 16.7553 15.8963 16.7907 15.7198Z" fill="#EF604B"/>
<path fill-rule="evenodd" clip-rule="evenodd" d="M20.1689 21.899C20.1689 22.0309 20.0535 22.1133 19.9711 22.0638C19.4476 21.7541 18.8959 21.4948 18.3234 21.2894C17.715 21.173 17.0972 21.1124 16.4778 21.1081C16.4502 21.106 16.4237 21.0962 16.4014 21.0798C16.379 21.0634 16.3617 21.041 16.3514 21.0153C16.3411 20.9896 16.3383 20.9615 16.3431 20.9342C16.348 20.9069 16.3604 20.8815 16.379 20.8609C16.6161 20.495 16.9684 20.2186 17.3803 20.0754C17.7921 19.9321 18.2399 19.9302 18.6529 20.07C19.0722 20.1644 19.4484 20.3952 19.7227 20.7261C19.997 21.057 20.1539 21.4695 20.1689 21.899Z" fill="#EF604B"/>
<path fill-rule="evenodd" clip-rule="evenodd" d="M22.3275 17.1699C22.2773 17.3478 22.1597 17.499 21.9996 17.5914C21.8395 17.6837 21.6497 17.7099 21.4706 17.6643C21.3814 17.6413 21.2976 17.6008 21.2242 17.5451C21.1509 17.4894 21.0893 17.4196 21.0433 17.3398C20.9972 17.26 20.9676 17.1718 20.9561 17.0804C20.9446 16.9889 20.9515 16.8961 20.9763 16.8074C21.0244 16.6282 21.1416 16.4755 21.3023 16.3828C21.463 16.2901 21.654 16.265 21.8331 16.3131C22.0123 16.3612 22.1651 16.4784 22.2578 16.6391C22.3505 16.7998 22.3755 16.9907 22.3275 17.1699Z" fill="#EF604B"/>
<path fill-rule="evenodd" clip-rule="evenodd" d="M15.9999 8.48889e-06C12.8347 -0.00325125 9.73963 0.932361 7.10628 2.68848C4.47292 4.4446 2.4196 6.94232 1.20607 9.86565C-0.00746151 12.789 -0.326667 16.0066 0.288835 19.1113C0.904336 22.2161 2.42689 25.0686 4.66387 27.3079C6.90085 29.5472 9.75175 31.0727 12.8559 31.6914C15.96 32.3101 19.178 31.9942 22.1025 30.7837C25.0271 29.5731 27.5269 27.5224 29.2858 24.8908C31.0446 22.2593 31.9834 19.1652 31.9834 16C31.9856 13.8996 31.5737 11.8194 30.7715 9.87832C29.9692 7.93721 28.7922 6.17325 27.3078 4.6873C25.8233 3.20135 24.0606 2.02253 22.1203 1.21826C20.18 0.413979 18.1003 7.37274e-06 15.9999 8.48889e-06ZM13.3799 17.8291C13.2999 18.1636 13.2612 18.5067 13.2646 18.8507C13.2646 19.0319 13.2646 19.1967 13.2646 19.378C12.1546 19.1716 11.1163 18.6837 10.2491 17.9609C9.31995 17.2853 8.6187 16.3427 8.23881 15.2585L6.90411 10.3151C6.88066 10.2782 6.86821 10.2353 6.86821 10.1916C6.86821 10.1478 6.88066 10.1049 6.90411 10.068C7.50043 9.49431 8.17775 9.0113 8.9144 8.63441C9.7415 8.18944 10.6219 7.85167 11.5344 7.62926C12.395 7.39598 13.2797 7.26327 14.1708 7.23379C14.9902 7.20684 15.8097 7.28436 16.6096 7.46448C16.6575 7.47466 16.7021 7.49654 16.7395 7.52817C16.7768 7.5598 16.8058 7.60019 16.8238 7.64573L17.9937 12.0618H17.5818C16.8442 12.0608 16.109 12.1437 15.3902 12.309C15.2445 12.3359 15.109 12.4024 14.9985 12.5012C14.8881 12.6 14.8069 12.7274 14.764 12.8692L14.2368 14.6488L11.3696 15.4068C11.3358 15.4214 11.3087 15.4481 11.2935 15.4816C11.2782 15.5151 11.276 15.553 11.2872 15.5881C11.3732 15.8139 11.5078 16.0181 11.6815 16.1861C11.8553 16.3541 12.0638 16.4818 12.2924 16.5603C12.7312 16.7362 13.2059 16.804 13.6765 16.758L13.3799 17.8291ZM25.0462 15.621L23.7115 20.5644C23.2502 21.8452 22.3746 22.9355 21.2234 23.6622C20.6817 24.0795 20.0594 24.3799 19.3957 24.5444C18.732 24.7089 18.0414 24.734 17.3675 24.6179C16.7526 24.3964 16.1896 24.051 15.7135 23.6032C15.2373 23.1554 14.8581 22.6146 14.5993 22.0144C14.1642 21.1894 13.8902 20.289 13.7919 19.3615C13.7919 19.1802 13.7919 18.999 13.7919 18.8342C13.7935 18.534 13.8322 18.2351 13.9072 17.9444L15.2419 13.001C15.2576 12.9524 15.2855 12.9087 15.323 12.874C15.3606 12.8394 15.4064 12.815 15.4561 12.8033C16.3309 12.6034 17.23 12.5312 18.1255 12.5891C18.9498 12.6266 19.7675 12.7536 20.5643 12.9681C21.4172 13.1971 22.241 13.5233 23.0195 13.9403C23.7551 14.327 24.4366 14.809 25.0462 15.3738C25.0697 15.4108 25.0821 15.4537 25.0821 15.4974C25.0821 15.5412 25.0697 15.5841 25.0462 15.621ZM14.6817 11.205C14.7906 11.2047 14.898 11.1794 14.9956 11.1309C15.0931 11.0824 15.1782 11.012 15.2442 10.9253C15.3101 10.8386 15.3552 10.7378 15.3758 10.6308C15.3965 10.5239 15.3922 10.4136 15.3633 10.3085C15.3344 10.2035 15.2817 10.1065 15.2093 10.0252C15.1368 9.94379 15.0466 9.88024 14.9455 9.83944C14.8445 9.79863 14.7355 9.78167 14.6268 9.78987C14.5182 9.79807 14.4129 9.83121 14.3191 9.88672C14.147 9.94281 14.0028 10.0627 13.9162 10.2217C13.8297 10.3808 13.8073 10.5669 13.8537 10.742C13.9001 10.917 14.0117 11.0676 14.1657 11.1629C14.3197 11.2582 14.5043 11.2909 14.6817 11.2544V11.205ZM10.1502 10.9578C9.97112 11.0115 9.81969 11.1324 9.72757 11.2951C9.63545 11.4578 9.60978 11.6499 9.65591 11.8311C9.72381 11.9773 9.83954 12.096 9.984 12.1676C10.1285 12.2392 10.293 12.2593 10.4505 12.2248C10.6079 12.1902 10.7489 12.103 10.8501 11.9775C10.9513 11.852 11.0067 11.6957 11.0071 11.5345C10.9939 11.4379 10.9604 11.3452 10.9088 11.2624C10.8572 11.1796 10.7888 11.1087 10.7079 11.0542C10.6269 10.9998 10.5354 10.963 10.4394 10.9464C10.3433 10.9298 10.2447 10.9337 10.1502 10.9578Z" fill="#EF604B"/>
</g>
<defs>
<clipPath id="clip0_678:6969">
<rect width="31.9835" height="32" fill="white"/>
</clipPath>
</defs>
</svg>
