<svg width="12" height="11" viewBox="0 0 12 11" fill="none" xmlns="http://www.w3.org/2000/svg">
<path fill-rule="evenodd" clip-rule="evenodd" d="M3.88178 7.05316C3.87975 6.84442 3.90326 6.6362 3.95178 6.43317L4.13178 5.78317C3.84621 5.81107 3.55812 5.76991 3.29178 5.66317C3.15306 5.61557 3.02651 5.53804 2.92109 5.43608C2.81568 5.33412 2.73398 5.21022 2.68178 5.07317C2.67499 5.05189 2.67634 5.02886 2.68558 5.00853C2.69482 4.9882 2.71129 4.97203 2.73178 4.96317L4.47178 4.50317L4.79178 3.42317C4.81782 3.33708 4.86705 3.25981 4.93407 3.19984C5.0011 3.13987 5.08334 3.09951 5.17178 3.08317C5.60799 2.98288 6.0542 2.93256 6.50178 2.93317H6.75178L6.04178 0.253166C6.03088 0.225525 6.0133 0.201014 5.99062 0.18182C5.96793 0.162626 5.94085 0.149347 5.91178 0.143166C5.42639 0.0338588 4.92906 -0.0131866 4.43178 0.00316584C3.89097 0.0210555 3.35405 0.101594 2.83178 0.243166C2.27803 0.378144 1.74373 0.583128 1.24178 0.853166C0.794728 1.08189 0.383677 1.37502 0.0217843 1.72317C0.0075556 1.74559 0 1.77161 0 1.79817C0 1.82473 0.0075556 1.85074 0.0217843 1.87317L0.831784 4.87317C1.06233 5.53112 1.4879 6.10319 2.05178 6.51316C2.57807 6.95182 3.2082 7.24795 3.88178 7.37317V7.05316ZM10.2218 8.09317L11.0318 5.09316C11.046 5.07074 11.0536 5.04473 11.0536 5.01817C11.0536 4.9916 11.046 4.96559 11.0318 4.94317C10.6618 4.60038 10.2482 4.30787 9.80178 4.07317C9.32934 3.82011 8.8294 3.62214 8.31178 3.48317C7.82826 3.35302 7.332 3.2759 6.83178 3.25317C6.28834 3.21806 5.74268 3.26185 5.21178 3.38317C5.18162 3.39028 5.1538 3.40507 5.13102 3.42609C5.10825 3.44712 5.09129 3.47366 5.08178 3.50317L4.27178 6.50317C4.22628 6.67959 4.20277 6.86097 4.20178 7.04317V7.36317C4.26147 7.92606 4.42776 8.47246 4.69178 8.97317C4.84886 9.33743 5.079 9.66559 5.36797 9.93735C5.65693 10.2091 5.99858 10.4187 6.37178 10.5532C6.78073 10.6236 7.19983 10.6084 7.60261 10.5086C8.00538 10.4087 8.38307 10.2264 8.71178 9.97317C9.41041 9.53211 9.94183 8.87049 10.2218 8.09317ZM4.9323 2.36821C4.8731 2.39764 4.8079 2.41303 4.74178 2.41317V2.44317C4.63415 2.46535 4.52212 2.44549 4.42867 2.38766C4.33523 2.32983 4.26747 2.23842 4.23932 2.13219C4.21116 2.02597 4.22474 1.913 4.27727 1.81647C4.3298 1.71995 4.41729 1.6472 4.52178 1.61317C4.57868 1.57948 4.64257 1.55936 4.7085 1.55439C4.77443 1.54941 4.84062 1.5597 4.90193 1.58447C4.96323 1.60923 5.018 1.6478 5.06198 1.69717C5.10595 1.74655 5.13795 1.8054 5.15548 1.86915C5.17301 1.9329 5.17561 1.99984 5.16306 2.06475C5.15052 2.12967 5.12317 2.19082 5.08315 2.24345C5.04313 2.29608 4.99151 2.33877 4.9323 2.36821ZM1.73527 2.46788C1.79118 2.36911 1.88308 2.29577 1.99178 2.26317C2.04913 2.24853 2.10892 2.24617 2.16724 2.25626C2.22556 2.26635 2.28108 2.28864 2.33018 2.32169C2.37928 2.35474 2.42084 2.39779 2.45214 2.44802C2.48343 2.49825 2.50376 2.55453 2.51178 2.61317C2.51153 2.711 2.47792 2.80583 2.41651 2.88199C2.35509 2.95815 2.26954 3.01108 2.17398 3.03206C2.07842 3.05304 1.97856 3.0408 1.89089 2.99737C1.80323 2.95393 1.73299 2.8819 1.69178 2.79317C1.66379 2.68318 1.67937 2.56664 1.73527 2.46788ZM6.14219 4.93078C6.08061 4.99113 6.0386 5.0686 6.02161 5.15314C6.00008 5.26027 6.02015 5.37157 6.07773 5.46445C6.13531 5.55732 6.22608 5.62478 6.33161 5.65314C6.41488 5.67551 6.50295 5.67233 6.58439 5.64402C6.66583 5.6157 6.73688 5.56356 6.78831 5.49436C6.83974 5.42516 6.86918 5.34209 6.87281 5.25595C6.87643 5.1698 6.85408 5.08456 6.80864 5.01128C6.76321 4.938 6.6968 4.88007 6.61803 4.84501C6.53925 4.80995 6.45176 4.79939 6.36691 4.81468C6.28206 4.82998 6.20376 4.87043 6.14219 4.93078ZM8.07169 8.90312C8.07169 8.98312 8.00169 9.03312 7.95169 9.00312C7.63399 8.81515 7.29915 8.65778 6.95169 8.53312C6.58247 8.46252 6.20759 8.42571 5.83169 8.42312C5.81492 8.42184 5.79884 8.41589 5.78528 8.40594C5.77172 8.39598 5.76122 8.38243 5.75497 8.36681C5.74872 8.35119 5.74698 8.33414 5.74993 8.31758C5.75289 8.30102 5.76042 8.28562 5.77169 8.27312C5.9156 8.05107 6.12942 7.88332 6.37935 7.7964C6.62927 7.70947 6.90104 7.70831 7.15169 7.79312C7.40616 7.85044 7.63446 7.99046 7.80092 8.19129C7.96737 8.39211 8.06259 8.64244 8.07169 8.90312ZM9.18295 6.28892C9.28009 6.23288 9.35149 6.1411 9.38193 6.03316C9.4111 5.92442 9.39589 5.80855 9.33962 5.71103C9.28336 5.61351 9.19067 5.54233 9.08193 5.51316C8.97319 5.48398 8.85732 5.4992 8.7598 5.55546C8.66228 5.61172 8.5911 5.70442 8.56193 5.81316C8.54686 5.86701 8.54269 5.92332 8.54967 5.9788C8.55666 6.03428 8.57465 6.0878 8.60259 6.13624C8.63053 6.18467 8.66786 6.22704 8.7124 6.26085C8.75693 6.29467 8.80777 6.31925 8.86193 6.33316C8.97061 6.36084 9.0858 6.34497 9.18295 6.28892Z" fill="#010101"/>
</svg>
