<svg width="80" height="156" viewBox="0 0 80 156" fill="none" xmlns="http://www.w3.org/2000/svg">
<path d="M68.2212 77.9271C68.5208 77.7773 68.9703 77.5276 69.6694 77.1282C68.8704 75.9797 68.0714 74.8313 67.2224 73.6329C67.7218 73.3333 68.1213 73.0337 68.6207 72.6841C68.2212 71.8852 68.5208 71.286 69.4197 71.2361C70.3686 71.1862 71.4173 71.1862 72.2663 71.4858C74.2139 72.1349 75.8619 73.0836 76.7108 75.2307C77.36 76.8286 78.5586 78.2267 79.3077 79.7746C79.6073 80.3239 79.6572 81.2726 79.4075 81.8219C78.7583 83.1201 77.6097 84.0189 76.1615 84.3185C74.7133 84.6181 73.8144 83.969 73.2151 82.5709C72.9155 81.8718 72.3661 81.2726 71.8668 80.6235C70.5683 81.4724 69.2699 82.3212 67.9715 83.1701C67.9216 83.22 67.8217 83.2699 67.8217 83.3199C67.5221 84.9677 65.924 84.8179 64.9252 85.467C64.4258 85.7666 63.8765 86.1161 63.2772 86.3159C61.9289 86.7653 60.6305 87.1647 59.2322 87.5642C58.0336 87.8638 57.734 86.8152 57.2846 86.0662C56.935 85.467 56.885 84.8678 57.6341 84.4184C58.4332 83.9191 59.2322 83.3698 59.9313 82.9204C59.8315 82.1215 59.7815 81.3725 59.6317 80.7234C59.5318 80.3239 59.382 79.9244 59.1323 79.6248C57.8339 78.3266 56.5355 77.0782 55.1372 75.8799C52.6402 73.6828 50.8924 71.0364 49.8436 67.8906C49.4441 66.792 48.5452 65.8433 47.7462 64.8447C47.2968 64.2954 47.097 63.3966 46.0483 63.5963C45.8485 63.6463 45.5489 63.2468 45.1494 62.9472C44.7998 65.2441 43.7011 67.4412 44.7998 69.7381C45.1993 70.537 45.7986 71.2361 46.3479 71.9851C47.6963 73.7827 49.1944 75.5303 50.4429 77.4278C51.7413 79.4251 52.4405 81.6721 52.4405 84.1188C52.4405 87.6141 52.4904 91.1594 52.3905 94.6547C52.1908 100.697 51.192 106.689 49.8936 112.581C49.0446 116.525 48.3455 120.47 47.5964 124.415C47.2968 125.963 46.8972 127.461 46.7474 129.009C46.5976 130.157 45.9983 130.706 44.9996 130.956C44.0008 131.206 43.7511 131.755 44.1506 132.704C44.3004 133.053 44.2505 133.503 44.2005 133.902C44.0507 135.25 43.6013 136.698 43.851 137.947C44.1007 139.095 45.0994 140.144 45.8485 141.142C46.5477 142.091 47.4965 142.89 48.1457 143.839C50.4429 147.034 49.2943 151.279 44.9496 151.828C42.203 152.177 39.6561 151.428 37.5087 149.781C35.611 148.283 33.963 146.485 32.2651 144.887C32.8144 146.186 33.4137 147.634 34.1628 149.032C34.7621 150.18 34.9119 151.279 34.812 152.527C34.7121 154.225 33.7133 155.024 32.2152 155.523C28.9192 156.622 26.2724 155.823 24.0751 153.126C22.7268 151.478 21.3285 149.881 20.08 148.183C19.5307 147.434 19.1311 146.435 19.0313 145.486C18.6817 142.64 18.4819 139.794 18.3321 136.948C18.2822 136.449 18.6817 135.899 18.7816 135.35C18.8815 134.851 18.7816 134.351 18.7816 133.902C16.4844 133.253 16.5343 133.203 16.2347 131.056C15.7353 127.561 15.136 124.065 14.5368 120.62C13.3382 113.38 10.9411 106.439 9.04347 99.3983C8.14456 96.0528 7.19572 92.7073 6.34675 89.3118C5.49779 85.8665 6.147 82.6208 7.64517 79.475C7.69511 79.3752 7.69511 79.2753 7.74505 79.2254C6.09706 77.6775 4.39913 76.2793 2.9509 74.6315C0.404013 71.7354 -0.145317 68.3899 1.00328 64.6949C1.60255 62.7974 2.00206 60.8001 2.55139 58.8527C2.55139 58.8028 2.60133 58.7528 2.60133 58.7528C1.75236 55.8567 3.89974 53.8594 4.79865 51.5125C5.69755 49.0658 7.09584 46.7689 9.0934 44.9713C11.6902 42.6245 14.8364 41.4261 18.1324 40.5273C19.7804 40.0779 21.4783 39.7284 23.0763 39.229C24.9241 38.6298 25.3236 37.9308 24.9241 36.0333C23.9253 36.3828 23.1263 36.1332 22.3772 35.3842C22.0276 35.0347 21.5282 34.8849 21.0788 34.6851C20.9789 34.6352 20.8291 34.6851 20.7292 34.6352C19.1311 33.7364 17.5331 32.7877 15.935 31.8389C15.4357 31.5393 15.0361 31.1898 14.5867 30.8403C14.3869 30.6905 14.0873 30.5407 13.9874 30.3409C13.3382 28.843 12.1896 27.7444 11.5904 26.1466C10.9411 24.4489 10.6915 22.6513 10.242 20.9535C9.94237 19.855 10.0422 18.6566 10.1921 17.5082C10.4418 15.7106 10.9411 13.913 11.2907 12.1154C11.3407 11.9656 11.2907 11.7659 11.3906 11.666C12.5392 10.2679 12.5891 8.27055 14.2871 7.17203C15.5355 6.32317 16.5343 5.07484 17.6829 4.07618C17.9326 3.82652 18.3321 3.72665 18.6817 3.57685C19.3309 3.27725 19.9302 2.97766 20.5794 2.62813C20.7292 2.52826 20.879 2.37846 21.0788 2.32853C22.5769 1.87913 24.0751 1.42973 25.5733 0.980336C25.773 0.930403 25.9728 0.930402 26.1226 0.830536C27.6208 -0.218058 29.4186 -0.0682581 30.9667 0.181407C32.7146 0.431072 34.6122 0.0815412 36.2103 1.27993C36.5599 1.5296 37.1591 1.42973 37.6585 1.57953C39.0568 2.07886 40.7048 2.32853 41.8035 3.22732C43.1518 4.37578 44.8997 5.07484 45.6987 7.02223C46.3979 8.76989 47.7462 10.2679 48.7949 11.8657C48.8948 12.0655 48.9947 12.2652 49.0446 12.4649C49.2943 13.6633 49.1445 14.9616 50.0933 15.9602C50.2931 16.16 50.1433 16.7092 50.1932 17.0588C50.2931 17.8078 50.393 18.5068 50.4929 19.2558C50.5428 19.6553 50.7425 20.1047 50.6427 20.4542C50.1433 21.9023 50.1433 23.3004 50.4429 24.7484C50.5428 25.2977 50.1932 25.8969 50.0933 26.4961C50.0933 26.546 50.0434 26.546 50.0434 26.596C50.0434 29.592 47.4965 31.04 45.9484 33.0873C45.5489 33.5866 44.7998 33.8862 44.1506 34.1858C42.9521 34.6851 41.7036 35.1345 40.4551 35.6338C40.4052 35.6838 40.3053 35.7337 40.2554 35.6838C38.2578 35.0846 37.3589 36.9321 35.9606 37.6312C35.7109 37.731 35.7109 38.3302 35.611 38.6798C40.555 39.4288 45.1494 40.5772 49.3443 43.1238C52.3905 45.0213 54.2383 47.8175 55.8863 50.8634C56.5854 52.1617 57.3844 53.3601 58.0836 54.6583C58.1835 54.908 58.2833 55.3574 58.1335 55.4573C57.4843 56.0065 57.784 56.5058 57.9338 57.155C58.2334 58.3534 58.2833 59.6516 58.533 60.85C58.6329 61.3993 58.8327 62.0484 59.2322 62.3979C61.3796 64.4452 62.678 67.0417 63.5769 69.838C64.2261 71.8353 64.8253 73.8326 65.5245 75.78C65.6743 76.1795 66.1238 76.4791 66.5233 76.7786C66.8728 77.1282 67.5221 77.4777 68.2212 77.9271ZM20.6293 87.9137C20.6793 87.9137 20.7292 87.9137 20.7791 87.9137C20.879 87.1647 21.0288 86.4157 21.0288 85.6667C20.9789 82.2214 19.6305 79.2753 17.4332 76.6788C16.6342 75.7301 15.8352 74.7314 15.0361 73.7327C13.3882 71.7354 11.7402 69.7381 10.0422 67.7408C9.49292 67.0917 8.79377 66.5424 8.14456 65.9432C8.1945 65.8433 8.29438 65.7435 8.34432 65.6436C8.89364 65.9432 9.44297 66.2428 10.1921 66.6423C10.9411 65.4938 11.7402 64.3453 12.4393 63.1469C12.7889 62.5977 12.4893 62.4479 11.84 62.348C10.5416 62.1483 9.24322 61.9485 8.04469 61.4492C6.29682 60.7502 4.69877 59.8014 2.90096 58.8527C2.35164 61.0997 1.8023 63.3966 1.30291 65.6436C0.603768 68.9392 1.30292 71.7854 3.65005 74.3319C6.24688 77.0783 9.19328 79.2753 12.2396 81.3725C14.5368 82.9204 15.985 84.8678 16.0849 87.7639C16.0849 88.413 16.3845 89.0622 16.4844 89.7113C16.6342 89.7113 16.784 89.6614 16.9338 89.6614L16.5343 84.1188C16.6342 84.1188 16.7341 84.0689 16.784 84.0689C17.0337 84.9677 17.3333 85.8665 17.4832 86.7653C17.583 87.6141 17.633 88.5129 17.4832 89.4117C17.4332 89.8112 16.8839 90.1108 16.5343 90.5102C16.2347 90.1607 15.8851 89.8611 15.7353 89.4616C15.5355 88.9623 15.5855 88.413 15.4856 87.9137C15.2359 86.7653 14.9862 85.6168 14.6866 84.4683C14.5867 84.4683 14.4868 84.5183 14.3869 84.5183C14.0374 87.2147 13.488 89.8112 11.7901 92.0082C11.1908 92.7572 11.7402 94.1553 12.739 94.7046C11.1908 95.1041 12.3894 95.4037 12.5392 95.8031C12.3894 96.3025 12.2895 96.8517 12.3894 97.3511C13.2883 101.495 14.3869 105.59 15.186 109.784C16.0849 114.478 16.784 119.222 17.4832 123.965C17.633 125.064 17.4832 126.212 17.4832 127.361C17.0337 125.513 16.9338 123.666 16.6342 121.868C15.9351 117.374 15.2359 112.88 14.3869 108.386C13.6878 104.791 12.739 101.196 11.89 97.6507C11.7402 96.9516 11.3906 96.3524 11.1409 95.7033C11.041 95.7033 10.8912 95.7532 10.7913 95.7532C11.041 95.6533 11.2907 95.5035 11.6403 95.3537C11.2907 95.0541 11.041 94.8544 10.7414 94.6047C10.8413 94.6047 10.9411 94.6047 11.041 94.6047C11.091 94.3051 11.1908 93.9556 11.1409 93.7059C10.4917 89.8611 10.5416 86.0163 10.7913 82.1714C10.7913 81.8219 10.6415 81.3226 10.3918 81.1228C9.69267 80.5236 8.94359 79.9744 8.14456 79.3752C6.54651 82.3711 5.94725 85.5169 6.64639 88.6627C7.79499 93.656 9.29316 98.5494 10.6415 103.493C11.6403 107.138 12.7389 110.783 13.6878 114.428C14.2871 116.725 14.6866 119.072 15.136 121.419C15.7353 124.764 16.3346 128.16 16.784 131.555C16.9338 132.554 17.1336 133.053 18.1324 133.303C22.4771 134.401 26.6719 133.802 30.8169 132.604C31.9155 132.304 32.8144 131.555 33.0142 130.407C33.3638 128.559 33.7633 126.712 33.8132 124.864C34.0629 117.923 34.2127 110.983 34.2627 103.992C34.3126 99.598 34.1628 95.2039 34.0629 90.8098C34.0629 90.5102 34.1129 90.2106 34.1129 89.8611C34.2127 89.8611 34.2627 89.8611 34.3625 89.8611C34.5623 91.1594 34.7121 92.4077 34.9618 93.9556C36.1104 93.0568 37.0093 92.3078 37.9582 91.5588C38.058 91.6587 38.108 91.7586 38.2079 91.8584C37.309 92.6074 36.41 93.3065 35.5611 94.1054C35.2615 94.405 35.0118 94.9043 34.9618 95.3038C34.9119 96.9017 34.9618 98.4995 34.9119 100.097C34.812 104.941 34.7121 109.834 34.6122 114.678C34.5623 116.925 34.4624 119.172 34.3625 121.419C34.1628 124.614 33.963 127.86 33.7133 131.206C34.3625 131.305 35.1616 131.405 36.0105 131.505C38.9569 131.855 41.7535 131.056 44.6001 130.507C45.2992 130.357 46.0982 130.107 46.248 129.158C46.5976 127.111 46.9971 125.064 47.3966 123.017C48.4454 117.524 49.544 111.981 50.5927 106.489C50.9423 104.491 51.3918 102.544 51.4916 100.497C51.7413 95.7532 51.8412 90.9596 52.041 86.1661C52.1908 82.2713 51.2419 78.776 48.7949 75.7301C47.2968 73.8825 45.7986 72.035 44.3004 70.1376C39.756 73.2334 34.6622 74.2321 29.3187 74.5317C29.2188 76.4791 29.1689 78.3765 28.9691 80.1741C28.8193 81.3725 28.6695 82.6707 28.0702 83.6694C26.6719 86.1161 24.3248 87.0149 21.5782 86.7153C20.9789 89.4616 19.6305 90.8098 17.4832 90.5102C19.3808 88.8125 17.8827 86.6155 18.2822 84.718H18.7816C18.9314 86.4157 19.0313 88.0635 19.1811 89.7612C19.5307 88.8125 19.7804 87.8139 19.8303 86.8152C19.8802 85.8165 19.7304 84.7679 19.6305 83.7193C19.7804 83.7193 19.9302 83.7193 20.08 83.6694C20.3297 85.1175 20.4795 86.5156 20.6293 87.9137ZM46.9971 60.5005C50.1433 58.2535 53.2894 56.0065 56.3857 53.7595C52.9898 43.8229 45.6987 40.7769 36.1604 39.3788C35.1616 41.9753 32.2152 43.7729 29.3686 43.4234C26.1226 43.0239 24.3747 41.2763 24.2249 39.3788C21.9777 39.978 19.6805 40.6271 17.3833 41.1764C10.1421 42.974 6.09706 47.9174 3.94968 54.7083C3.84981 55.1077 3.99962 55.8567 4.34919 56.1064C7.24566 58.1536 10.3918 59.6516 13.9874 60.2009C14.6366 58.9026 15.2359 57.6044 15.8851 56.356L16.1348 56.4559C15.985 57.0052 15.985 57.6543 15.6354 58.1037C14.2871 59.9013 14.4868 61.6989 15.3358 63.5963C15.3857 63.7461 15.3857 63.8959 15.4357 64.0457C15.6354 64.8946 15.6354 66.093 16.1847 66.4425C16.784 66.842 17.9326 66.5424 18.8315 66.4425C22.527 65.9432 26.2225 65.3939 29.918 64.8946C32.7146 64.5451 35.5111 64.0457 38.3077 64.6449C40.2054 65.0444 42.153 65.4439 44.1506 65.8433C44.4003 64.5451 44.65 63.1969 44.9496 61.8487C44.6999 61.7488 44.5002 61.6489 44.0008 61.3993C46.6476 60.3507 47.4965 58.2036 47.6463 55.8567C47.8461 53.4599 46.9472 51.3627 45.2493 49.6151C46.3979 49.9147 46.9971 50.8135 47.4466 51.7622C48.8948 54.7083 48.4953 57.6044 46.9971 60.5005ZM24.8242 26.1466C24.8242 26.1965 24.9241 25.8969 24.974 25.5973C25.823 22.3017 27.7706 19.9549 31.0166 18.8064C33.9131 17.8078 36.5099 18.2572 38.6074 20.604C41.1043 23.4502 41.354 26.9455 40.9046 30.4408C40.7048 31.9887 39.8558 33.4368 39.2066 35.1345C39.9557 34.8849 40.7048 34.6851 41.4539 34.4355C42.1031 34.1858 42.8022 33.9361 43.4015 33.6365C44.1007 33.2371 44.7998 32.7877 45.449 32.2883C46.248 31.6392 47.0471 30.8902 47.7462 30.1412C48.0958 29.7418 48.3954 29.2424 48.5952 28.7431C48.8449 28.094 48.7949 27.345 49.0946 26.7957C49.6938 25.6472 49.7937 24.5986 49.3942 23.3503C49.1944 22.7511 49.3942 21.9522 49.594 21.3031C49.9435 20.4043 50.0933 19.6053 49.544 18.7565C49.2943 18.407 49.3942 17.8078 49.3443 17.3584C49.2943 16.9589 49.4441 16.4596 49.2444 16.11C48.6951 15.0614 48.2456 14.0129 48.3455 12.7645C48.3455 12.415 47.896 12.1154 47.6963 11.7159C47.2968 10.9669 46.9971 10.168 46.5477 9.46895C45.6488 8.07082 44.7499 6.72263 43.801 5.37444C43.7511 5.27457 43.5014 5.27457 43.4015 5.17471C43.1019 4.97498 42.6524 4.82518 42.4527 4.57551C41.354 2.62812 39.0069 3.22732 37.5087 2.02893C36.8595 1.47967 35.8108 1.3798 34.9618 1.0802C34.6622 0.980335 34.3625 0.830537 34.1129 0.88047C33.164 1.13013 32.365 1.03027 31.566 0.481006C31.4161 0.38114 31.1165 0.431072 30.9168 0.431072C30.1677 0.431072 29.4186 0.381139 28.7194 0.431072C28.22 0.481005 27.6707 0.530938 27.1713 0.680737C26.5221 0.830536 25.9229 1.0802 25.3236 1.32987C23.7255 1.97899 22.0775 2.62813 20.4795 3.27725C19.9801 3.47699 19.5307 3.67672 19.0812 3.92638C18.6318 4.17605 18.1324 4.37578 17.7329 4.67538C17.2335 5.02491 16.784 5.47431 16.3346 5.87377C15.3358 6.77257 14.3869 7.67136 13.4381 8.57015C13.2883 8.71995 13.2383 9.06948 13.1385 9.26922C12.9387 9.76855 12.739 10.2179 12.5392 10.7173C11.9899 12.1653 11.3906 13.6134 10.8413 15.1114C10.7913 15.2612 10.8912 15.4609 10.8912 15.6606C10.8912 16.16 10.8912 16.7092 10.8413 17.2086C10.7913 17.8577 10.5416 18.5068 10.5916 19.106C10.6915 20.1047 11.2907 21.1533 11.1908 22.102C11.091 23.8497 12.1397 25.1479 12.3894 26.7458C12.4393 27.0454 12.5891 27.295 12.7889 27.5447C13.8376 28.793 14.4369 30.4408 16.1348 31.0899C16.2846 31.1399 16.3845 31.4894 16.5343 31.6392C16.784 31.8889 17.0836 32.2384 17.3833 32.3383C18.5319 32.538 19.5307 32.9375 20.2797 33.8862C20.3796 34.036 20.6793 34.036 20.879 34.1359C21.5782 34.4854 22.3272 34.7351 22.9265 35.1845C23.5258 35.6838 24.0751 35.8336 24.8741 35.2843C24.7243 34.2357 24.974 32.6878 24.3248 32.1885C22.9764 31.1399 22.7268 29.7917 22.3772 28.3936C22.2274 27.7944 22.4271 26.8456 22.8266 26.3463C23.1263 25.9968 24.0252 26.1965 24.8242 26.1466ZM28.22 36.4328C28.27 36.3329 28.27 36.233 28.3199 36.1332C28.6196 36.233 28.8693 36.3828 29.1689 36.4827C30.5672 37.1318 31.9155 37.6312 33.5635 37.2816C36.8595 36.6325 38.907 34.6851 39.9058 31.6392C40.7547 29.1426 40.555 26.596 39.756 23.9995C38.8571 21.0035 35.9107 18.5568 32.6646 19.0561C29.2188 19.5554 25.3735 23.2505 25.4235 26.8456C25.4235 27.1452 25.1238 27.4448 24.974 27.7444C24.7243 27.5447 24.5246 27.345 24.2749 27.1952C23.9752 26.9954 23.6756 26.8956 23.326 26.7458C23.2261 27.0454 22.9765 27.345 23.0264 27.5946C23.2761 28.6432 23.5757 29.6918 23.9253 30.6905C23.9752 30.8902 24.3747 30.9401 24.5745 31.0899C24.8242 31.2897 25.1738 31.5393 25.2237 31.789C25.4235 33.6365 25.5733 35.4341 25.7231 37.2816C25.7231 37.5313 25.6232 37.8808 25.4734 38.1305C24.5246 39.5786 25.3735 41.1265 26.4722 41.7756C28.4198 42.9241 30.4673 42.974 32.5647 42.1751C33.6135 41.7756 34.6622 41.3262 35.0118 40.2277C35.2615 39.5286 35.0617 38.7297 35.0617 37.8808C32.365 38.2803 30.0179 38.3302 28.22 36.4328ZM65.2249 79.0256C65.3247 78.9258 65.4246 78.8758 65.5245 78.776C65.9739 79.3252 66.723 79.8745 66.8728 80.5236C67.0227 81.1728 66.6232 82.0216 66.4234 83.1201C67.3223 82.2713 68.0214 81.6721 68.6207 81.023C68.7206 80.9231 68.7206 80.5236 68.6207 80.3738C67.8716 79.2254 67.572 77.6775 65.974 77.2281C65.5245 77.0783 64.9752 76.7287 64.8254 76.2793C64.326 74.9811 63.9264 73.5829 63.5269 72.2347C62.4283 68.5896 61.1299 65.0444 58.1835 62.348C57.9338 62.0983 57.734 61.7488 57.6841 61.3993C57.4843 59.9013 57.3844 58.3534 57.1847 56.4559C53.8388 58.9026 50.7426 61.1496 47.4965 63.4965C49.3443 65.2941 50.4929 67.4412 51.3918 69.788C52.4904 72.8339 55.0373 74.8313 57.3844 76.9285C58.8327 78.2267 60.9301 79.2254 60.4307 81.7719C60.3808 81.9717 60.6305 82.2214 60.7803 82.471C62.4283 81.5223 63.9764 80.5736 65.5744 79.6248C65.4746 79.475 65.3247 79.2254 65.2249 79.0256ZM18.9813 136.249C19.0812 138.196 19.1311 140.194 19.3808 142.141C19.5307 143.339 19.7304 144.588 20.2298 145.586C21.5282 148.233 23.6756 150.33 25.823 152.277C28.0203 154.275 30.6171 154.624 32.9643 153.426C34.0629 152.877 34.6622 151.628 34.2627 150.58C33.8132 149.331 33.3138 148.133 32.7645 146.935C31.566 144.338 30.2675 141.791 30.8169 138.795C30.9667 137.997 30.9667 137.148 31.0166 136.548H22.2773V141.442C21.9777 141.142 21.8778 141.092 21.8778 141.042C21.8279 140.443 21.8279 139.844 21.8279 139.195C21.8279 136.499 21.8279 136.499 19.281 136.099C19.1811 136.149 19.1811 136.149 18.9813 136.249ZM32.5647 133.902C32.5647 136.648 32.5148 139.145 32.6147 141.642C32.6646 142.341 32.9643 143.19 33.4636 143.639C35.3114 145.287 37.309 146.735 39.2066 148.283C41.2042 149.98 43.4015 150.33 45.9484 149.631C48.3455 148.932 49.2943 147.434 48.4454 145.137C48.2955 144.688 47.9959 144.288 47.6463 143.939C46.5976 142.74 45.499 141.542 44.4502 140.343C43.6013 139.395 43.1518 138.296 43.3016 137.048C43.4515 135.799 43.6013 134.551 43.7511 133.203C43.2517 133.503 42.8022 133.852 42.3528 133.952C40.6049 134.301 38.8071 134.651 37.0093 134.801C35.9606 134.901 35.4612 135.05 35.5611 136.199C35.661 137.248 35.5611 138.296 35.5611 139.345C35.4612 139.345 35.3114 139.345 35.2115 139.345C34.6622 137.847 35.3613 136.249 35.0617 134.701C34.3625 134.501 33.6634 134.252 32.5647 133.902ZM29.5684 73.9325C33.3138 73.533 37.0093 73.3333 40.4551 71.5856C39.1567 71.1362 38.2079 70.3373 38.3077 68.9392C38.4076 67.7907 38.8571 66.6922 39.1567 65.4938C36.6597 64.9445 33.8132 64.9445 30.9667 65.3939C27.8705 65.8433 24.7743 66.2428 21.728 66.6922C19.8303 66.9418 17.9326 67.1915 16.0349 67.4412C15.985 68.1402 15.8851 68.7394 15.8352 69.2388C17.0836 69.1389 18.2822 69.039 19.4807 68.9891C22.2773 68.8393 25.1238 68.6895 27.9204 68.5896C29.1689 68.5397 29.5185 69.089 29.5185 70.3872C29.5684 71.5357 29.5684 72.6841 29.5684 73.9325ZM78.8582 80.7733C78.5086 79.8745 78.2589 79.0256 77.8095 78.2766C76.9605 76.7287 76.2614 74.9311 75.0129 73.7327C73.9143 72.6842 72.2163 72.2847 70.7681 71.7853C70.3186 71.6356 69.7194 71.9352 69.17 72.035C69.17 72.1848 69.17 72.2847 69.1201 72.4345C70.6183 73.6329 73.0653 73.1835 74.114 75.2307C72.2163 74.1821 70.2687 73.4831 68.0214 73.7327C69.7194 74.8812 70.019 76.9784 71.5671 78.3266C72.9155 79.475 73.4648 81.5223 74.3637 83.1701C75.1128 82.6707 75.8119 82.1215 76.561 81.722C77.2602 81.2726 78.1091 81.0729 78.8582 80.7733ZM19.1811 73.2833C19.9302 73.0836 20.6293 72.6841 20.9289 72.8839C21.3784 73.1835 21.5282 73.9325 21.8778 74.5816C23.376 74.7813 28.2201 71.2361 28.3699 69.089C24.5745 69.2388 20.8291 69.3886 16.9338 69.5883C17.8327 70.9864 18.5319 72.2347 19.1811 73.2833ZM22.2274 77.9771C22.2274 79.9244 22.1774 81.6222 22.2773 83.3698C22.2773 83.7193 22.9265 84.3185 23.1263 84.2686C24.0751 84.0189 25.1738 83.8192 25.9229 83.22C27.7207 81.8219 27.421 79.7247 27.5708 77.6275C25.773 78.3765 24.125 79.0256 22.2274 77.9771ZM14.1372 61.3493C12.8388 63.5464 11.7402 65.3939 10.5916 67.2914C11.6902 68.5896 12.8388 69.9378 14.0873 71.3859C16.5843 68.0903 14.9862 64.8946 14.1372 61.3493ZM30.7669 133.303C26.9716 133.902 23.376 135.05 19.6805 133.952C19.3309 135.45 19.4807 135.7 20.879 135.799C23.4259 135.949 25.9229 136.149 28.4697 136.199C29.119 136.199 30.0678 136.049 30.3674 135.6C30.7669 135.05 30.6671 134.102 30.7669 133.303ZM26.8717 76.3792C28.1202 76.5789 28.3199 77.278 28.1701 78.2267C28.0702 78.9258 28.0203 79.5749 27.9704 80.274C27.6707 83.4197 25.6232 85.1175 22.4771 84.7679C21.728 84.6681 21.678 85.0176 21.678 85.467C21.678 85.7167 22.0276 86.1161 22.2274 86.1661C22.9265 86.216 23.5757 86.1161 24.2749 86.0163C26.0227 85.6667 28.0203 83.7693 28.1701 82.0716C28.4697 79.1754 28.6695 76.2793 28.8693 73.3832C28.9192 72.3346 28.8693 71.336 28.8693 70.1875C27.7207 71.4358 26.7718 72.4844 25.7231 73.5829C27.1214 74.0323 27.421 74.9811 26.8717 76.3792ZM57.784 55.3075C57.1847 54.2089 56.5854 54.2089 55.8863 54.7083C54.8375 55.5072 53.7888 56.2062 52.7401 56.9552C50.6427 58.5032 48.4953 60.0511 46.4478 61.6489C46.1981 61.8487 46.1981 62.3979 46.0483 62.7974C46.4478 62.7974 46.9472 62.9472 47.2468 62.7475C50.7426 60.3507 54.2383 57.854 57.784 55.3075ZM44.1506 69.7381C44.0507 68.9392 43.801 68.34 43.9508 67.8406C44.3004 66.6922 43.6512 66.4425 42.8022 66.2428C42.5026 66.1929 42.203 66.093 41.9533 65.9931C41.1543 65.6935 40.3552 65.6436 39.756 66.3427C39.0568 67.1416 38.5075 67.9904 38.907 69.1389C39.3564 70.3872 39.706 71.1362 41.2541 70.8366C42.3029 70.587 43.2517 70.0876 44.1506 69.7381ZM13.7377 60.8001C9.79255 60.0511 6.39669 58.2535 3.30047 55.9566C2.55139 57.155 2.55139 57.7042 3.50023 58.3534C6.09706 60.2009 8.89365 61.4991 12.0897 61.7987C12.7889 61.8986 13.538 61.7987 13.7377 60.8001ZM33.6634 131.655C33.6634 133.453 33.9131 133.902 35.4113 134.052C37.7584 134.301 40.1055 134.152 42.3029 133.203C43.1019 132.853 43.6013 132.404 43.5014 131.305C40.2554 132.005 37.0593 132.554 33.6634 131.655ZM11.3407 91.3092C11.4405 91.3591 11.5904 91.3591 11.6902 91.409C13.1385 89.1121 13.8376 86.5655 13.9375 83.8691C13.9375 83.6195 13.7377 83.2699 13.538 83.1201C12.8888 82.6208 12.1896 82.2214 11.3407 81.6222V91.3092ZM59.6816 86.7153C59.9813 85.6667 59.9813 84.7679 60.4307 84.2686C61.1798 83.4697 62.1786 82.8705 63.1774 82.3212C63.9265 81.9218 64.8253 81.6721 65.6244 81.3725C65.8741 81.2726 66.1737 81.2726 66.2736 81.0729C66.3735 80.8732 66.3235 80.4238 66.2236 80.3239C66.0239 80.224 65.6244 80.224 65.4246 80.3738C64.8253 80.6734 64.326 81.0729 63.7766 81.3725C61.7291 82.6208 59.6317 83.8691 57.5842 85.1175C58.4332 87.2147 58.8327 87.4144 59.6816 86.7153ZM33.2639 132.154C33.164 132.104 33.0142 132.005 32.9143 131.955C31.4161 132.853 30.8668 133.902 31.1664 135.2C31.3163 135.899 31.4161 136.598 31.4161 137.347C31.3662 139.544 30.6671 141.841 32.0654 143.889C32.0654 143.789 32.1153 143.639 32.1153 143.489C32.1153 140.543 32.1153 137.597 32.1652 134.601C32.1652 134.152 32.365 133.652 32.5148 133.253C32.7146 132.853 33.0142 132.504 33.2639 132.154ZM68.421 78.5762C69.22 79.5749 69.7693 80.5236 68.9703 81.722C69.1201 81.722 69.1701 81.722 69.22 81.6721C69.7693 81.2726 70.3686 80.9231 70.9179 80.5236C71.9167 79.8246 71.8668 79.0756 70.868 78.3266C70.019 77.7274 69.2699 77.8272 68.421 78.5762ZM21.5782 82.7706V77.4278C20.7791 77.5776 20.0301 77.7274 19.3808 77.8772C20.08 79.525 20.8291 81.1728 21.5782 82.7706ZM24.0751 77.8772C24.974 77.9271 25.8729 78.2267 25.773 76.8286C25.773 76.5789 26.1226 76.2793 26.3224 76.0297C26.9216 75.1309 26.7219 74.6315 25.9728 74.3819C25.823 74.9311 25.7231 75.4804 25.4734 75.9298C25.3735 76.0796 24.6744 76.1295 24.5745 75.9797C24.2749 75.5303 24.0751 74.9811 23.8254 74.3819C21.9777 75.6801 24.5745 76.6289 24.0751 77.8772ZM18.0824 72.7341C17.583 71.7854 17.1336 70.9365 16.6841 70.1376C16.5843 70.1875 16.4844 70.2374 16.3845 70.2374C16.3346 72.2847 15.9351 74.3819 17.8827 76.0297C18.0824 75.8799 18.2822 75.7301 18.5319 75.5303C16.784 74.5317 16.8839 73.4331 18.0824 72.7341ZM20.08 77.4777C20.3796 75.8799 20.6293 74.6315 20.879 73.3832C20.1799 73.6329 19.7304 73.9325 19.281 73.9325C18.8315 73.9325 18.432 73.6329 17.9825 73.4831C17.8827 73.5829 17.8327 73.6828 17.7329 73.7827C17.9326 74.0823 18.0325 74.5816 18.3321 74.6815C19.1811 75.031 19.5806 75.5803 19.5307 76.529C19.5307 76.7786 19.8303 77.0783 20.08 77.4777ZM78.7583 81.722C78.7084 81.6222 78.6585 81.5223 78.6085 81.4224C77.36 82.0716 76.1116 82.7207 74.6134 83.4697C76.1615 84.0189 77.7596 83.22 78.7583 81.722ZM65.125 82.1714C65.075 82.2214 64.5757 82.5709 64.6256 82.7706C64.8253 83.3199 65.125 83.9191 65.5744 84.2686C65.8241 84.4683 66.4234 84.2187 66.8229 84.1687C66.773 83.969 66.8229 83.6694 66.6731 83.5196C66.3235 83.1201 65.8241 82.7207 65.125 82.1714ZM63.7267 85.5669C63.1774 84.8678 62.678 84.2686 61.9289 83.4197C61.9289 84.1188 61.6792 84.718 61.9289 85.0675C62.3284 85.6667 62.9776 86.0163 63.7267 85.5669ZM63.6768 82.6707C63.5769 82.6707 63.4271 82.6707 63.3272 82.6208C63.3272 83.0702 63.0775 83.7193 63.2772 84.0189C63.6268 84.5183 64.2261 84.7679 64.7754 85.1674C64.8253 85.0675 64.8753 85.0176 64.9252 84.9177C64.5257 84.1687 64.1262 83.4197 63.6768 82.6707ZM14.9862 71.0364C14.1872 71.9352 14.2371 72.1848 15.8352 73.4331C15.6354 72.5843 16.3845 71.4858 14.9862 71.0364ZM60.8802 84.7679L60.6305 84.8179C60.6804 85.2673 60.5805 85.8665 60.8302 86.1661C61.1299 86.4657 61.7291 86.4657 62.4782 86.7153C61.7791 85.8165 61.3296 85.3172 60.8802 84.7679ZM22.4271 76.4291C22.527 76.4291 22.6269 76.4291 22.7268 76.4291C22.6269 76.0297 22.527 75.5803 22.4271 75.1808C21.8279 75.1309 21.3285 75.0809 20.6293 75.031C21.4283 75.6302 21.9277 76.0297 22.4271 76.4291Z" fill="#323208"/>
<path d="M22.7763 123.716C23.1259 124.665 23.4755 125.613 23.875 126.662C23.026 126.262 22.5266 125.114 22.7763 123.716Z" fill="#323208"/>
<path d="M28.9693 123.316C28.9193 124.365 28.8694 125.413 28.8194 126.462C28.6696 126.462 28.5198 126.462 28.4199 126.412C28.4699 125.363 28.5697 124.315 28.6197 123.266C28.7196 123.316 28.8194 123.316 28.9693 123.316Z" fill="#323208"/>
<path d="M19.7301 126.762C19.4305 125.863 19.1308 124.964 18.7812 124.015C18.8811 123.965 19.0309 123.915 19.1308 123.865C19.4804 124.764 19.78 125.663 20.1296 126.562C19.9798 126.662 19.8799 126.712 19.7301 126.762Z" fill="#323208"/>
<path d="M40.7043 121.269V123.915C40.6045 123.915 40.5046 123.915 40.4047 123.965C40.3548 123.066 40.3048 122.168 40.2549 121.269C40.4546 121.269 40.5545 121.269 40.7043 121.269Z" fill="#323208"/>
<path d="M27.8701 61.7987C32.7142 59.5517 33.8129 56.0564 31.5157 51.2129C33.1637 52.4113 33.663 56.2062 32.864 57.9039C32.065 59.7514 29.8177 62.1982 27.8701 61.7987Z" fill="#323208"/>
<path d="M16.0353 19.3057C15.9854 20.0047 15.9354 20.554 15.8355 21.2031C16.4848 20.7537 16.9342 20.5041 17.3837 20.2045C17.6334 20.6039 17.8331 21.0533 18.1327 21.5527C18.782 20.4042 19.581 20.8536 20.3301 21.7524C20.3301 21.8023 20.0804 22.2018 19.9805 22.1519C19.6309 22.052 19.3313 21.7524 19.0316 21.6026C18.6821 21.7524 18.1827 22.1519 17.8831 22.052C17.5335 21.9022 17.4336 21.303 17.134 20.8037C16.6346 20.8536 16.3349 22.4515 15.5359 21.2531C15.1863 20.6539 15.1364 19.9049 16.0353 19.3057Z" fill="#323208"/>
<path d="M17.4331 10.268C18.2821 9.96841 18.7815 9.96841 18.4819 11.017C18.4319 11.2667 18.5817 11.5663 18.4819 12.0656C18.1822 11.766 17.8826 11.4664 17.4331 10.9671C16.7839 11.1668 16.5342 10.7673 16.9338 10.0183C16.5342 9.66881 15.885 9.26935 15.9849 9.11955C16.1847 8.62022 16.6341 8.27069 16.9338 7.82129C17.0336 7.92116 17.1335 7.97109 17.1834 8.07095C16.9338 8.37055 16.734 8.67015 16.3844 9.11955C17.3333 9.01968 17.9825 9.16948 17.4331 10.268Z" fill="#323208"/>
<path d="M17.9331 17.7578C17.8832 18.0574 17.8333 18.4069 17.7833 18.5567C18.2328 18.6067 18.6323 18.7065 19.0817 18.7565C19.0817 18.8563 19.0318 19.0061 19.0318 19.1559C19.3314 19.0561 19.6311 19.0061 19.731 18.9562C20.1804 19.3557 20.53 19.6553 20.9794 20.0547C20.7297 20.1047 20.3302 20.2545 20.0306 20.1546C19.3814 19.9549 18.832 19.5055 18.1828 19.3057C17.0842 19.0061 17.0342 18.9063 17.9331 17.7578Z" fill="#323208"/>
<path d="M44.7499 22.7513C44.5502 23.1508 44.4004 23.7 44.1007 23.8498C43.851 23.9996 43.3517 23.6501 42.9521 23.5502C43.0021 23.4504 43.0021 23.3505 43.052 23.2506C43.3517 23.3006 43.6014 23.4004 43.9509 23.4504C44.3005 22.9011 43.6014 21.2034 45.1495 22.1022C45.6488 21.453 46.0484 20.8538 46.5477 20.1548C46.7475 21.3032 45.549 22.8012 44.7499 22.7513Z" fill="#323208"/>
<path d="M18.1329 8.76966C18.4825 8.42013 18.882 8.12053 19.2316 7.771C19.3314 7.87086 19.4313 8.02066 19.5811 8.12053C19.3314 8.27033 19.0817 8.37019 18.9819 8.42013C19.5811 9.31892 20.0805 10.1179 20.5799 10.8669C20.53 10.9667 20.48 11.0666 20.3802 11.1665C19.9307 10.8669 19.5811 10.4674 19.0817 10.3176C18.3327 10.0679 19.731 8.61986 17.7334 9.26899C17.8832 9.16912 17.9831 8.96939 18.1329 8.76966Z" fill="#323208"/>
<path d="M18.0827 29.6419C17.7331 29.8416 17.2337 30.1412 17.1339 30.0913C16.8342 29.7417 16.6345 29.3423 16.3848 28.9428C16.4846 28.8929 16.5845 28.8429 16.6844 28.7431C16.8342 28.9428 16.984 29.1925 17.1339 29.4421C17.3835 29.1925 17.6332 28.9428 17.8829 28.5933C18.1326 28.8929 18.3324 29.1425 18.4323 29.2923C18.8817 29.3423 19.1814 29.3423 19.5309 29.3922C19.2812 29.7417 19.0315 30.0913 18.682 30.4907C18.4323 30.0413 18.2325 29.7917 18.0827 29.6419Z" fill="#323208"/>
<path d="M32.4651 4.12641C32.3153 3.72694 32.1654 3.37741 32.0156 2.97795C32.3652 2.87808 32.7148 2.72828 33.0643 2.62842C33.1143 2.72828 33.1642 2.87808 33.1642 2.97795C32.9645 3.07782 32.7647 3.17768 32.515 3.32748C33.1642 3.62708 33.6137 3.87674 33.2142 4.72561C33.1143 4.97527 33.7635 5.72427 33.1143 6.27353C32.9145 5.52453 32.7148 4.87541 32.515 4.22628C32.4651 4.17634 32.4651 4.17634 32.4651 4.12641Z" fill="#323208"/>
<path d="M42.503 10.8174C43.1023 11.5164 43.0524 11.6662 41.9038 12.4152C43.0524 13.7634 41.1047 14.0131 40.9549 15.1616C40.8051 14.9119 40.6053 14.7122 40.6553 14.6622C41.2046 13.8134 41.704 12.9645 41.8039 11.9159C41.8538 11.5164 42.2533 11.1669 42.503 10.8174Z" fill="#323208"/>
<path d="M29.4684 11.9658C29.3685 12.2654 29.2686 12.565 29.2686 12.615C29.9678 13.6136 30.5171 14.4625 31.1163 15.3113C31.0165 15.3613 30.9665 15.4112 30.8667 15.5111C30.4671 14.9618 29.1687 15.0617 29.8179 13.8633C28.4696 13.1642 28.3697 12.7148 29.4684 11.9658Z" fill="#323208"/>
<path d="M32.4653 15.6106C32.2656 14.8616 30.6176 14.8116 31.5664 13.7131C31.2668 13.3636 30.9172 13.064 30.8173 12.7145C30.7674 12.5147 31.117 12.2151 31.2668 11.9155C31.3667 11.9655 31.4665 12.0154 31.5664 12.0653C31.5165 12.2651 31.4166 12.4648 31.4166 12.4648C31.8661 13.5134 32.3155 14.4621 32.765 15.4608L32.4653 15.6106Z" fill="#323208"/>
<path d="M47.6963 21.3032C47.7962 22.6514 46.3979 24.2992 44.7998 24.2493C45.449 23.7 45.8985 23.3505 46.4977 22.9011C46.5477 22.8012 46.6975 22.4517 46.8973 22.1521C47.1469 21.8026 47.4466 21.5529 47.6963 21.3032Z" fill="#323208"/>
<path d="M41.9531 15.2613C42.4525 13.9631 43.0018 12.7148 43.5012 11.4165C43.8508 12.9644 42.8021 14.0629 42.4026 15.3612C42.2528 15.3612 42.1029 15.3113 41.9531 15.2613Z" fill="#323208"/>
<path d="M31.8159 7.222C31.4163 6.27327 31.0168 5.37448 30.5674 4.37582C30.7172 4.17609 30.9669 3.92642 31.1666 3.67676C31.3664 4.42575 31.3664 5.17475 31.716 5.67408C32.1654 6.27327 32.5649 6.67274 31.8159 7.222Z" fill="#323208"/>
<path d="M20.0801 28.3936C19.331 28.3437 18.6319 28.3437 17.9327 28.1439C17.733 28.094 17.683 27.4948 17.5332 27.0454C18.532 27.4449 19.331 27.7445 20.18 28.0441C20.13 28.1439 20.13 28.2438 20.0801 28.3936Z" fill="#323208"/>
<path d="M32.7651 33.9361C32.016 33.6864 31.217 33.4368 30.4679 33.1372C30.3181 33.0872 30.2182 32.7877 30.0684 32.6379C30.2681 32.5879 30.5178 32.4381 30.6676 32.538C32.2657 33.237 33.8138 33.1871 35.4618 32.6379C35.7115 32.538 36.0111 32.6878 36.2608 32.7377C36.111 32.9374 35.9612 33.237 35.7614 33.287C34.8126 33.5366 33.8138 33.7364 32.7651 33.9361Z" fill="#323208"/>
<path d="M30.0181 24.8984C29.5187 24.9982 28.9694 25.0981 28.47 25.198C28.2702 25.2479 27.9706 25.2479 27.9206 25.148C27.8208 24.9982 27.8208 24.6986 27.8707 24.5488C28.2203 23.7 30.2678 23.4004 30.867 24.0994C30.9669 24.2492 31.0168 24.5988 30.917 24.6986C30.7172 24.8984 30.3676 24.9982 30.068 25.198C30.068 25.0482 30.068 24.9483 30.0181 24.8984Z" fill="#323208"/>
<path d="M38.1081 25.098C37.0095 25.2478 36.3603 25.3476 35.6611 25.3976C35.4614 25.3976 35.1617 25.4974 35.0619 25.3976C34.962 25.2478 34.912 24.9482 34.962 24.7984C35.4614 23.9994 36.2604 23.8496 37.0594 24.0494C37.4589 24.0993 37.7586 24.6985 38.1081 25.098Z" fill="#323208"/>
<path d="M33.5637 28.1938C34.0631 28.5434 34.6623 28.843 35.0619 29.2924C35.6112 29.9415 35.4614 30.6905 34.8122 31.1898C34.3627 31.5394 33.7634 31.6392 33.4139 30.7404C33.8134 30.6905 34.163 30.5906 34.5625 30.5407C35.1118 29.4422 32.515 29.2424 33.5637 28.1938Z" fill="#323208"/>
<path d="M27.6709 26.7459C28.3201 26.4463 28.9194 25.9969 29.5686 25.9469C30.1679 25.897 30.9169 26.1467 31.0168 27.0954C30.867 27.1453 30.6672 27.2452 30.6173 27.1953C29.9182 26.5461 29.219 26.3963 28.5698 27.2951C28.4699 27.395 28.1204 27.2452 27.8707 27.2452C27.7208 27.0455 27.7208 26.8957 27.6709 26.7459Z" fill="#323208"/>
<path d="M38.3077 27.6447C37.259 26.646 36.3601 26.3464 35.3613 27.6447C35.3613 26.4962 35.8108 26.0468 36.6597 26.0468C37.5586 25.9969 38.1579 26.2466 38.3077 27.6447Z" fill="#323208"/>
<path d="M42.5523 68.1405C42.1028 68.4401 41.8032 68.7397 41.5535 68.6898C41.3038 68.6898 41.1041 68.2903 40.9043 68.0906C41.2039 67.8409 41.4536 67.5413 41.7533 67.3915C41.8531 67.3416 42.1528 67.791 42.5523 68.1405Z" fill="#323208"/>
</svg>
