<svg width="32" height="32" viewBox="0 0 32 32" fill="none" xmlns="http://www.w3.org/2000/svg">
<path fill-rule="evenodd" clip-rule="evenodd" d="M16 0C12.8355 0 9.74207 0.938384 7.11088 2.69649C4.4797 4.45459 2.42894 6.95345 1.21793 9.87706C0.00693254 12.8007 -0.309921 16.0177 0.307443 19.1214C0.924806 22.2251 2.44866 25.0761 4.6863 27.3137C6.92394 29.5513 9.77487 31.0752 12.8786 31.6926C15.9823 32.3099 19.1993 31.9931 22.1229 30.7821C25.0466 29.5711 27.5454 27.5203 29.3035 24.8891C31.0616 22.2579 32 19.1645 32 16C32 11.7565 30.3143 7.68687 27.3137 4.68629C24.3131 1.68571 20.2435 0 16 0V0ZM10.722 20.5477L7.70125 21.5768C7.67406 21.5872 7.64503 21.5921 7.6159 21.5911C7.58678 21.59 7.55817 21.5831 7.53181 21.5707C7.50544 21.5582 7.48186 21.5406 7.46249 21.5189C7.44312 21.4971 7.42835 21.4716 7.41909 21.444C7.40265 21.3955 7.40265 21.343 7.41909 21.2946L8.41495 18.2573C7.50139 16.6917 7.23845 14.8302 7.68264 13.0729C8.12683 11.3156 9.2427 9.8026 10.7904 8.85918C12.3382 7.91575 14.1943 7.61715 15.9598 8.02755C17.7253 8.43795 19.2594 9.52458 20.2324 11.0539C20.4843 11.4673 20.6902 11.907 20.8465 12.3651C19.6527 12.0434 18.3895 12.0896 17.2224 12.4975C16.0552 12.9054 15.0384 13.6562 14.3049 14.6515C13.5714 15.6468 13.1554 16.8404 13.1114 18.076C13.0673 19.3116 13.3973 20.5318 14.0581 21.5768C12.877 21.5208 11.7293 21.1668 10.722 20.5477ZM24.5975 23.4025C24.5975 23.5021 24.5975 23.6017 24.4813 23.6183H24.3818L22.0415 22.8548C21.0261 23.483 19.8309 23.7566 18.6434 23.6327C17.4558 23.5087 16.3429 22.9942 15.4791 22.1698C14.6153 21.3454 14.0495 20.2577 13.8703 19.0772C13.691 17.8967 13.9086 16.6901 14.4888 15.6465C15.069 14.6029 15.979 13.7813 17.0763 13.3105C18.1736 12.8396 19.3961 12.7462 20.5522 13.0448C21.7083 13.3434 22.7327 14.0171 23.4648 14.9604C24.1968 15.9037 24.5952 17.0632 24.5975 18.2573C24.6088 19.2421 24.3382 20.2096 23.8174 21.0456L24.5975 23.4025ZM21.8091 17.5104C21.7089 17.5104 21.6096 17.5301 21.517 17.5685C21.4243 17.6069 21.3402 17.6631 21.2693 17.734C21.1984 17.8049 21.1421 17.8891 21.1038 17.9817C21.0654 18.0743 21.0457 18.1736 21.0457 18.2739C21.0424 18.4295 21.0857 18.5826 21.1702 18.7134C21.2546 18.8442 21.3763 18.9467 21.5195 19.0078C21.6627 19.0689 21.8209 19.0857 21.9737 19.0562C22.1266 19.0266 22.2671 18.952 22.3772 18.8419C22.4872 18.7318 22.5619 18.5913 22.5914 18.4384C22.621 18.2856 22.6042 18.1274 22.5431 17.9842C22.482 17.841 22.3795 17.7193 22.2487 17.6349C22.1179 17.5505 21.9648 17.5071 21.8091 17.5104ZM19.2365 17.5104C19.1356 17.5081 19.0353 17.5263 18.9417 17.5639C18.848 17.6014 18.763 17.6576 18.6916 17.7289C18.6203 17.8003 18.5641 17.8854 18.5265 17.979C18.489 18.0727 18.4708 18.173 18.473 18.2739C18.473 18.3741 18.4928 18.4734 18.5312 18.566C18.5695 18.6587 18.6258 18.7428 18.6967 18.8137C18.7676 18.8846 18.8517 18.9409 18.9443 18.9792C19.037 19.0176 19.1363 19.0373 19.2365 19.0373C19.4377 19.0331 19.6294 18.9513 19.7717 18.809C19.914 18.6668 19.9958 18.475 20 18.2739C20 18.0714 19.9196 17.8772 19.7764 17.734C19.6332 17.5908 19.439 17.5104 19.2365 17.5104ZM16.6639 17.5104C16.5623 17.5082 16.4612 17.5263 16.3666 17.5637C16.2721 17.601 16.1859 17.6569 16.1133 17.728C16.0406 17.7992 15.9829 17.8841 15.9435 17.9778C15.9041 18.0715 15.8838 18.1722 15.8838 18.2739C15.9111 18.4591 16.004 18.6284 16.1457 18.7507C16.2874 18.8731 16.4684 18.9405 16.6556 18.9405C16.8428 18.9405 17.0238 18.8731 17.1655 18.7507C17.3072 18.6284 17.4002 18.4591 17.4274 18.2739C17.4278 18.1678 17.4061 18.0627 17.3636 17.9655C17.3212 17.8683 17.2589 17.7809 17.1808 17.7091C17.1028 17.6373 17.0106 17.5825 16.9101 17.5483C16.8097 17.5141 16.7032 17.5011 16.5975 17.5104H16.6639Z" fill="#EF604B"/>
</svg>
