<svg width="11" height="10" viewBox="0 0 11 10" fill="none" xmlns="http://www.w3.org/2000/svg">
<path fill-rule="evenodd" clip-rule="evenodd" d="M1.99743 7.6517L0.177429 8.2717C0.161046 8.27802 0.143553 8.28094 0.126007 8.28031C0.108461 8.27968 0.0912249 8.2755 0.0753385 8.26802C0.0594521 8.26055 0.0452446 8.24993 0.0335733 8.23681C0.0219019 8.22369 0.0130082 8.20835 0.00742926 8.1917C-0.00247642 8.16252 -0.00247642 8.13089 0.00742926 8.1017L0.60743 6.2717C0.0570098 5.32846 -0.101409 4.20692 0.166217 3.14812C0.433843 2.08933 1.10615 1.17777 2.03867 0.609358C2.97118 0.0409433 4.08947 -0.138963 5.15321 0.108302C6.21695 0.355566 7.14123 1.01027 7.72743 1.9317C7.87919 2.18076 8.00327 2.44567 8.09743 2.7217C7.37816 2.52787 6.61713 2.55566 5.91391 2.80144C5.21069 3.04723 4.59804 3.49955 4.15611 4.09923C3.71418 4.69892 3.46355 5.41803 3.43703 6.16249C3.4105 6.90695 3.6093 7.64208 4.00743 8.2717C3.29584 8.23801 2.60436 8.02471 1.99743 7.6517ZM10.3574 9.3717C10.3574 9.4317 10.3574 9.4917 10.2874 9.5017H10.2274L8.81743 9.0417C8.20565 9.42022 7.48557 9.58506 6.77005 9.51037C6.05453 9.43569 5.38401 9.12571 4.86358 8.62902C4.34315 8.13233 4.00223 7.477 3.89425 6.76574C3.78627 6.05448 3.91734 5.32749 4.26691 4.69872C4.61648 4.06995 5.16479 3.57494 5.82591 3.29127C6.48703 3.00759 7.22358 2.95129 7.92014 3.13119C8.61669 3.31108 9.23387 3.71701 9.67494 4.28534C10.116 4.85368 10.3561 5.5523 10.3574 6.2717C10.3642 6.86507 10.2012 7.44801 9.88743 7.9517L10.3574 9.3717ZM8.67743 5.8217C8.61702 5.8217 8.5572 5.8336 8.5014 5.85672C8.44559 5.87984 8.39488 5.91372 8.35216 5.95643C8.30945 5.99915 8.27556 6.04986 8.25245 6.10567C8.22933 6.16148 8.21743 6.2213 8.21743 6.2817C8.21546 6.37548 8.24159 6.46771 8.29246 6.54651C8.34333 6.62532 8.41663 6.6871 8.5029 6.72391C8.58918 6.76071 8.6845 6.77086 8.77659 6.75304C8.86868 6.73523 8.95334 6.69027 9.01967 6.62394C9.08599 6.55761 9.13096 6.47296 9.14877 6.38086C9.16659 6.28877 9.15644 6.19345 9.11963 6.10718C9.08283 6.0209 9.02105 5.94761 8.94224 5.89673C8.86343 5.84586 8.77121 5.81973 8.67743 5.8217ZM7.12743 5.8217C7.06665 5.82034 7.00622 5.8313 6.94979 5.85393C6.89336 5.87657 6.84211 5.9104 6.79912 5.95339C6.75613 5.99638 6.72229 6.04764 6.69966 6.10407C6.67703 6.16049 6.66606 6.22092 6.66743 6.2817C6.66743 6.34211 6.67933 6.40193 6.70245 6.45774C6.72556 6.51355 6.75945 6.56426 6.80216 6.60697C6.84488 6.64969 6.89559 6.68357 6.9514 6.70669C7.0072 6.7298 7.06702 6.7417 7.12743 6.7417C7.24863 6.73915 7.36415 6.68987 7.44987 6.60415C7.53559 6.51843 7.58488 6.4029 7.58743 6.2817C7.58743 6.1597 7.53897 6.0427 7.4527 5.95643C7.36643 5.87017 7.24943 5.8217 7.12743 5.8217ZM5.57743 5.8217C5.51619 5.82037 5.45529 5.83129 5.39832 5.85381C5.34135 5.87633 5.28946 5.91 5.24568 5.95285C5.2019 5.9957 5.16712 6.04686 5.14338 6.10333C5.11964 6.1598 5.10742 6.22044 5.10743 6.2817C5.12384 6.39331 5.17984 6.49529 5.26521 6.56902C5.35058 6.64276 5.45962 6.68333 5.57243 6.68333C5.68523 6.68333 5.79428 6.64276 5.87965 6.56902C5.96502 6.49529 6.02102 6.39331 6.03743 6.2817C6.03767 6.21778 6.02459 6.1545 5.99901 6.09591C5.97343 6.03733 5.93592 5.98471 5.88888 5.94143C5.84183 5.89815 5.78628 5.86515 5.72577 5.84453C5.66526 5.82392 5.60111 5.81614 5.53743 5.8217H5.57743Z" fill="#010101"/>
</svg>
