<svg width="161" height="81" viewBox="0 0 161 81" fill="none" xmlns="http://www.w3.org/2000/svg">
<mask id="path-1-inside-1_676:10058" fill="white">
<path fill-rule="evenodd" clip-rule="evenodd" d="M80.4276 75C124.847 75 160.855 58.2107 160.855 37.5C160.855 16.7893 124.847 0 80.4276 0C36.0087 0 0 16.7893 0 37.5C0 47.8178 8.93695 57.1623 23.3985 63.9425L24.0088 76.434C24.1591 79.5095 27.5824 81.2691 30.1707 79.6012L42.3185 71.7732C42.7452 71.4983 43.0964 71.1643 43.3732 70.7917C54.4625 73.4805 67.0645 75 80.4276 75Z"/>
</mask>
<path d="M23.3985 63.9425L25.3961 63.8449L25.3373 62.6426L24.2475 62.1317L23.3985 63.9425ZM24.0088 76.434L22.0112 76.5316V76.5316L24.0088 76.434ZM30.1707 79.6012L31.2541 81.2823L30.1707 79.6012ZM42.3185 71.7732L43.4018 73.4544L42.3185 71.7732ZM43.3732 70.7917L43.8444 68.848L42.5575 68.536L41.7678 69.5989L43.3732 70.7917ZM158.855 37.5C158.855 46.6158 150.851 55.4907 136.453 62.2039C122.218 68.841 102.412 73 80.4276 73V77C102.862 77 123.27 72.7643 138.144 65.8292C152.855 58.97 162.855 49.0949 162.855 37.5H158.855ZM80.4276 2C102.412 2 122.218 6.159 136.453 12.7961C150.851 19.5093 158.855 28.3842 158.855 37.5H162.855C162.855 25.9051 152.855 16.03 138.144 9.17085C123.27 2.23566 102.862 -2 80.4276 -2V2ZM2 37.5C2 28.3842 10.0039 19.5093 24.4019 12.7961C38.6368 6.159 58.4428 2 80.4276 2V-2C57.9935 -2 37.5857 2.23566 22.7115 9.17085C8.00039 16.03 -2 25.9051 -2 37.5H2ZM24.2475 62.1317C9.94452 55.4258 2 46.5823 2 37.5H-2C-2 49.0532 7.92938 58.8988 22.5495 65.7534L24.2475 62.1317ZM26.0064 76.3364L25.3961 63.8449L21.4008 64.0401L22.0112 76.5316L26.0064 76.3364ZM29.0874 77.92C27.7932 78.7539 26.0816 77.8742 26.0064 76.3364L22.0112 76.5316C22.2366 81.1449 27.3715 83.7842 31.2541 81.2823L29.0874 77.92ZM41.2352 70.0921L29.0874 77.92L31.2541 81.2823L43.4018 73.4544L41.2352 70.0921ZM41.7678 69.5989C41.6341 69.7789 41.4596 69.9474 41.2352 70.0921L43.4018 73.4544C44.0307 73.0492 44.5587 72.5496 44.9785 71.9845L41.7678 69.5989ZM80.4276 73C67.2121 73 54.769 71.4968 43.8444 68.848L42.9019 72.7354C54.156 75.4641 66.9169 77 80.4276 77V73Z" fill="black" mask="url(#path-1-inside-1_676:10058)"/>
<path d="M70.6406 42.6895C70.6406 42.2611 70.6862 41.8372 70.7773 41.418C70.8776 40.9987 70.9277 40.5749 70.9277 40.1465V40.0098C70.9277 39.8913 70.9232 39.7135 70.9141 39.4766C70.9141 39.2305 70.9095 38.957 70.9004 38.6562C70.8913 38.3464 70.8822 38.0228 70.873 37.6855C70.8639 37.3392 70.8548 37.0156 70.8457 36.7148C70.8366 36.4049 70.8275 36.127 70.8184 35.8809C70.8184 35.6348 70.8184 35.4525 70.8184 35.334L70.873 34.2266C70.873 34.1992 70.8822 34.1582 70.9004 34.1035C70.9186 34.0488 70.9505 34.0124 70.9961 33.9941H71.9258C71.944 33.9941 71.985 33.9941 72.0488 33.9941C72.1217 33.985 72.1947 33.9759 72.2676 33.9668C72.3496 33.9577 72.4225 33.9531 72.4863 33.9531C72.5592 33.944 72.6048 33.9395 72.623 33.9395C72.6322 33.9395 72.6914 33.9395 72.8008 33.9395C72.9102 33.9395 73.0378 33.9395 73.1836 33.9395C73.3294 33.9303 73.4753 33.9258 73.6211 33.9258C73.7669 33.9258 73.8854 33.9258 73.9766 33.9258C74.0312 33.9258 74.1224 33.9258 74.25 33.9258C74.3776 33.9258 74.5098 33.9303 74.6465 33.9395C74.7923 33.9395 74.929 33.9395 75.0566 33.9395C75.1842 33.9395 75.2708 33.9395 75.3164 33.9395C75.5807 33.9668 75.8451 34.0078 76.1094 34.0625C76.3828 34.1081 76.6426 34.1855 76.8887 34.2949C76.9434 34.2949 76.9844 34.3086 77.0117 34.3359C77.3581 34.5547 77.6771 34.7826 77.9688 35.0195C78.2604 35.2474 78.5475 35.5117 78.8301 35.8125C79.0397 36.0312 79.1992 36.2773 79.3086 36.5508C79.418 36.8242 79.5091 37.1022 79.582 37.3848C79.6003 37.4395 79.623 37.5215 79.6504 37.6309C79.6868 37.7311 79.7188 37.8405 79.7461 37.959C79.7826 38.0684 79.8145 38.1686 79.8418 38.2598C79.8691 38.3509 79.8828 38.4102 79.8828 38.4375C79.9102 38.556 79.9238 38.6699 79.9238 38.7793C79.9238 38.8796 79.9512 38.9798 80.0059 39.0801V39.9551C80.0059 39.9733 80.015 40.0052 80.0332 40.0508C80.0514 40.0872 80.0605 40.1146 80.0605 40.1328V40.1738V40.1875C80.0605 40.1966 80.0514 40.2194 80.0332 40.2559L80.0059 40.3105C79.9967 40.3379 79.9831 40.3835 79.9648 40.4473C79.9466 40.502 79.9375 40.5384 79.9375 40.5566C79.9375 40.5658 79.9375 40.5931 79.9375 40.6387C79.9375 40.6842 79.9375 40.7344 79.9375 40.7891C79.9375 40.8346 79.9375 40.8802 79.9375 40.9258C79.9375 40.9714 79.9375 40.9987 79.9375 41.0078C79.9375 41.0169 79.9284 41.0397 79.9102 41.0762C79.8919 41.1035 79.8828 41.1217 79.8828 41.1309C79.8828 41.1491 79.8737 41.1992 79.8555 41.2812C79.8372 41.3633 79.8281 41.4134 79.8281 41.4316C79.8099 41.4863 79.7734 41.582 79.7188 41.7188C79.6732 41.8555 79.623 42.0013 79.5684 42.1562C79.5137 42.3112 79.459 42.457 79.4043 42.5938C79.3587 42.7305 79.3268 42.8262 79.3086 42.8809C79.181 43.0358 79.0625 43.2044 78.9531 43.3867C78.8529 43.5599 78.7298 43.724 78.584 43.8789C78.3926 44.1068 78.1784 44.2936 77.9414 44.4395C77.7044 44.5762 77.4538 44.722 77.1895 44.877C77.1712 44.8861 77.1484 44.8997 77.1211 44.918C77.0938 44.9271 77.0755 44.9316 77.0664 44.9316C77.0573 44.9408 77.0299 44.9453 76.9844 44.9453C76.9388 44.9362 76.9069 44.9316 76.8887 44.9316C76.597 44.9772 76.319 45.0228 76.0547 45.0684C75.7995 45.123 75.5124 45.1595 75.1934 45.1777C75.1478 45.1777 75.0384 45.1777 74.8652 45.1777C74.7012 45.1777 74.5189 45.1777 74.3184 45.1777C74.1178 45.1777 73.931 45.1777 73.7578 45.1777C73.5938 45.1777 73.4889 45.1777 73.4434 45.1777C73.416 45.1777 73.3431 45.1777 73.2246 45.1777C73.1061 45.1868 72.9831 45.196 72.8555 45.2051C72.7279 45.2142 72.6048 45.2188 72.4863 45.2188C72.3678 45.2279 72.2949 45.2324 72.2676 45.2324H71.0508C71.0326 45.2415 71.0007 45.2552 70.9551 45.2734C70.9186 45.2917 70.8913 45.2917 70.873 45.2734C70.8639 45.2734 70.8503 45.2598 70.832 45.2324C70.8229 45.2142 70.8184 45.196 70.8184 45.1777C70.8092 45.1595 70.7956 45.1048 70.7773 45.0137C70.7682 44.9225 70.7591 44.8587 70.75 44.8223C70.7044 44.4759 70.6725 44.1204 70.6543 43.7559C70.6452 43.3913 70.6406 43.0358 70.6406 42.6895ZM73.6211 42.4844C73.6302 42.5482 73.6393 42.6257 73.6484 42.7168C73.6667 42.7988 73.7168 42.8535 73.7988 42.8809C73.8171 42.8809 73.8581 42.8854 73.9219 42.8945C73.9857 42.8945 74.0267 42.8945 74.0449 42.8945C74.0632 42.8945 74.0996 42.8945 74.1543 42.8945C74.2181 42.8854 74.2546 42.8809 74.2637 42.8809C74.3184 42.8809 74.4095 42.8763 74.5371 42.8672C74.6647 42.8581 74.7969 42.849 74.9336 42.8398C75.0794 42.8216 75.2161 42.8079 75.3438 42.7988C75.4714 42.7897 75.5625 42.7806 75.6172 42.7715C77.1484 42.3613 77.9141 41.3587 77.9141 39.7637C77.9141 39.472 77.8594 39.1576 77.75 38.8203C77.6497 38.474 77.5221 38.1732 77.3672 37.918C77.3398 37.8906 77.2943 37.8451 77.2305 37.7812C77.1758 37.7174 77.112 37.6536 77.0391 37.5898C76.9753 37.5169 76.9115 37.4531 76.8477 37.3984C76.7839 37.3346 76.7383 37.2891 76.7109 37.2617C76.7018 37.2617 76.638 37.2298 76.5195 37.166C76.4102 37.1022 76.3236 37.0612 76.2598 37.043C76.1686 36.9974 76.0592 36.9564 75.9316 36.9199C75.8132 36.8743 75.7083 36.8379 75.6172 36.8105C75.5443 36.8105 75.4167 36.806 75.2344 36.7969C75.0612 36.7786 74.8743 36.765 74.6738 36.7559C74.4733 36.7376 74.2819 36.724 74.0996 36.7148C73.9264 36.6966 73.8079 36.6875 73.7441 36.6875H73.5664H73.3887C73.3887 36.7331 73.3841 36.8197 73.375 36.9473C73.3659 37.0749 73.3568 37.2116 73.3477 37.3574C73.3477 37.5033 73.3431 37.64 73.334 37.7676C73.3249 37.8952 73.3203 37.9863 73.3203 38.041V38.123V38.2051L73.6211 41.9512V42.4844ZM83.6141 40.0234C83.605 39.8958 83.5914 39.6999 83.5731 39.4355C83.564 39.1712 83.5503 38.875 83.5321 38.5469C83.523 38.2096 83.5093 37.8587 83.4911 37.4941C83.4729 37.1204 83.4546 36.765 83.4364 36.4277C83.4273 36.0905 83.4182 35.7897 83.4091 35.5254C83.3999 35.2611 83.3954 35.0651 83.3954 34.9375V34.377V33.8301C83.3954 33.7572 83.4182 33.6934 83.4637 33.6387C83.5184 33.5749 83.5731 33.5247 83.6278 33.4883H84.5712C84.5803 33.4883 84.6167 33.4837 84.6805 33.4746C84.7443 33.4655 84.8127 33.4609 84.8856 33.4609C84.9585 33.4518 85.0269 33.4427 85.0907 33.4336C85.1545 33.4245 85.1955 33.4199 85.2137 33.4199C85.2684 33.4382 85.3687 33.4564 85.5145 33.4746C85.6604 33.4837 85.8199 33.4883 85.993 33.4883C86.1662 33.4883 86.3257 33.4837 86.4716 33.4746C86.6174 33.4655 86.7177 33.4473 86.7723 33.4199H88.1942C88.2489 33.4199 88.3492 33.4245 88.495 33.4336C88.6408 33.4427 88.7958 33.4564 88.9598 33.4746C89.1239 33.4837 89.2743 33.4974 89.411 33.5156C89.5568 33.5247 89.6571 33.5339 89.7118 33.543C89.73 33.543 89.7528 33.5475 89.7802 33.5566C89.8075 33.5658 89.8257 33.5749 89.8348 33.584C89.8622 33.6296 89.8986 33.6979 89.9442 33.7891C89.9898 33.8802 90.0126 33.9303 90.0126 33.9395V35.5391C90.0126 35.5938 89.9624 35.653 89.8622 35.7168C89.771 35.7806 89.7027 35.8125 89.6571 35.8125L86.4442 35.9355C86.4169 35.9355 86.3804 35.9447 86.3348 35.9629C86.2893 35.972 86.2665 35.9811 86.2665 35.9902C86.2574 35.9993 86.2437 36.0404 86.2255 36.1133C86.2164 36.1862 86.2072 36.2454 86.1981 36.291C86.1981 36.3184 86.1936 36.3548 86.1845 36.4004C86.1753 36.446 86.1662 36.4961 86.1571 36.5508C86.1571 36.5964 86.1526 36.6419 86.1434 36.6875C86.1434 36.724 86.1434 36.7467 86.1434 36.7559V37.1387V37.3984L86.3759 37.4941H88.6591L89.6571 37.6855C89.73 37.7038 89.7893 37.7812 89.8348 37.918C89.8804 38.0456 89.9169 38.1914 89.9442 38.3555C89.9716 38.5104 89.9898 38.6654 89.9989 38.8203C90.008 38.9661 90.0126 39.0618 90.0126 39.1074C90.0126 39.3171 89.967 39.472 89.8759 39.5723C89.7847 39.6725 89.6662 39.7454 89.5204 39.791C89.3746 39.8275 89.2151 39.8457 89.0419 39.8457C88.8687 39.8457 88.7001 39.8503 88.536 39.8594C88.454 39.8594 88.3082 39.8639 88.0985 39.873C87.8889 39.8822 87.6656 39.8913 87.4286 39.9004C87.1916 39.9004 86.9683 39.9049 86.7587 39.9141C86.549 39.9141 86.4032 39.9141 86.3212 39.9141C86.3212 39.9414 86.3166 39.9961 86.3075 40.0781C86.2984 40.151 86.2893 40.2331 86.2802 40.3242C86.2802 40.4062 86.2756 40.4883 86.2665 40.5703C86.2665 40.6523 86.2665 40.707 86.2665 40.7344C86.2665 40.7526 86.2619 40.8301 86.2528 40.9668C86.2528 41.0944 86.2528 41.1947 86.2528 41.2676C86.2528 41.304 86.2528 41.3496 86.2528 41.4043C86.2528 41.459 86.2528 41.5137 86.2528 41.5684C86.2619 41.623 86.2665 41.6732 86.2665 41.7188C86.2665 41.7552 86.2665 41.7734 86.2665 41.7734C86.2665 41.819 86.271 41.901 86.2802 42.0195C86.2984 42.138 86.3121 42.2155 86.3212 42.252C86.3303 42.3066 86.344 42.3613 86.3622 42.416C86.3804 42.4707 86.426 42.498 86.4989 42.498H90.0673C90.0855 42.498 90.1356 42.5072 90.2177 42.5254C90.2997 42.5345 90.3498 42.5618 90.368 42.6074V43.168V43.7285C90.368 43.765 90.3635 43.8333 90.3544 43.9336C90.3544 44.0247 90.3498 44.125 90.3407 44.2344C90.3316 44.3346 90.3225 44.4349 90.3134 44.5352C90.3134 44.6263 90.3134 44.6901 90.3134 44.7266C90.2587 44.8268 90.1903 44.8861 90.1083 44.9043C90.0262 44.9225 89.9351 44.9362 89.8348 44.9453C89.7528 44.9544 89.6252 44.9681 89.452 44.9863C89.288 45.0046 89.1148 45.0228 88.9325 45.041C88.7502 45.0592 88.5816 45.0775 88.4266 45.0957C88.2808 45.1139 88.1851 45.123 88.1395 45.123H87.8661C87.6473 45.123 87.424 45.1139 87.1962 45.0957C86.9683 45.0775 86.7404 45.0684 86.5126 45.0684C86.4214 45.0684 86.3348 45.0775 86.2528 45.0957C86.1799 45.1139 86.1024 45.123 86.0204 45.123C85.7287 45.123 85.4371 45.1094 85.1454 45.082C84.8537 45.0638 84.5621 45.0365 84.2704 45C84.2613 45 84.2248 45 84.161 45C84.0972 45.0091 84.0608 45.0091 84.0516 45C84.0334 45 84.0015 44.9818 83.9559 44.9453C83.9104 44.9089 83.883 44.8906 83.8739 44.8906C83.8466 44.8724 83.7964 44.8496 83.7235 44.8223C83.6597 44.7949 83.6278 44.763 83.6278 44.7266L83.6141 40.3789V40.0234ZM85.788 31.5742C85.788 31.5104 85.7925 31.4557 85.8016 31.4102C85.8199 31.3646 85.8427 31.3099 85.87 31.2461C85.9065 31.1823 85.952 31.0957 86.0067 30.9863C86.0614 30.877 86.1298 30.7174 86.2118 30.5078C86.2574 30.3529 86.2847 30.2526 86.2938 30.207C86.3029 30.1615 86.3166 30.1022 86.3348 30.0293C86.3531 29.9382 86.3667 29.8789 86.3759 29.8516C86.3941 29.8151 86.4533 29.7969 86.5536 29.7969C86.9091 29.8151 87.1552 29.8516 87.2919 29.9062C87.4286 29.9518 87.497 30.043 87.497 30.1797C87.497 30.3073 87.4468 30.485 87.3466 30.7129C87.2463 30.9408 87.1369 31.2461 87.0184 31.6289C87.0002 31.7474 86.9501 31.8385 86.868 31.9023C86.8134 31.9297 86.7541 31.9388 86.6903 31.9297C86.6356 31.9115 86.5809 31.8932 86.5262 31.875C86.4716 31.8477 86.4123 31.8203 86.3485 31.793C86.2847 31.7656 86.2164 31.752 86.1434 31.752C86.1252 31.752 86.0751 31.7428 85.993 31.7246C85.911 31.7064 85.8609 31.6973 85.8427 31.6973C85.8335 31.6882 85.8199 31.6699 85.8016 31.6426C85.7834 31.6061 85.7789 31.5833 85.788 31.5742Z" fill="black"/>
</svg>
