<svg width="32" height="32" viewBox="0 0 32 32" fill="none" xmlns="http://www.w3.org/2000/svg">
<path fill-rule="evenodd" clip-rule="evenodd" d="M16.0165 8.48889e-06C12.8513 -0.00325124 9.75622 0.93236 7.12287 2.68848C4.48952 4.4446 2.4362 6.94231 1.22267 9.86564C0.00914005 12.789 -0.310065 16.0065 0.305436 19.1113C0.920937 22.2161 2.44349 25.0686 4.68047 27.3079C6.91745 29.5472 9.76835 31.0726 12.8725 31.6913C15.9766 32.31 19.1945 31.9942 22.1191 30.7836C25.0437 29.5731 27.5435 27.5224 29.3024 24.8908C31.0612 22.2593 32 19.1652 32 16C32.0022 13.8996 31.5903 11.8194 30.788 9.87831C29.9858 7.9372 28.8088 6.17325 27.3244 4.6873C25.8399 3.20134 24.0772 2.02253 22.1369 1.21826C20.1966 0.413979 18.1168 7.37274e-06 16.0165 8.48889e-06ZM19.9547 7.90938H21.2235L11.7817 17.3677H10.5458L19.9547 7.90938ZM10.3481 23.069L8.46962 23.5633L8.94748 21.6684H9.12874C9.20192 21.6842 9.26993 21.7182 9.32647 21.7672L9.49125 21.8991L9.65603 22.0638C9.7233 22.1118 9.77949 22.1736 9.82081 22.2451C9.86311 22.2972 9.90165 22.3523 9.93615 22.4099C9.97241 22.4741 10.0054 22.5401 10.035 22.6076C10.0282 22.6678 10.0282 22.7286 10.035 22.7889L10.3481 23.069ZM11.0566 22.8713C11.0602 22.8219 11.0602 22.7723 11.0566 22.723C11.059 22.6736 11.059 22.6241 11.0566 22.5747C11.0403 22.5066 11.0062 22.444 10.9578 22.3934C10.9578 22.3934 10.9578 22.2945 10.8589 22.2616C10.76 22.2286 10.8589 22.2616 10.8589 22.2616L10.76 22.1298C10.7237 22.0688 10.6727 22.0178 10.6117 21.9815L10.4634 21.8332C10.4634 21.8332 10.4634 21.8332 10.3481 21.7343C10.3026 21.6957 10.2529 21.6626 10.1998 21.6354C10.1418 21.5933 10.0813 21.5547 10.0185 21.5201H9.88672H9.75489L9.9032 18.1256H11.8146L13.9073 20.2678V22.1792L11.0566 22.8713ZM12.4737 17.7302L22.1133 8.10711L23.9094 9.88672L14.2863 19.5757L12.4737 17.7302ZM14.6982 21.4706V20.2678L24.1071 10.8424V12.0948L14.6982 21.4706Z" fill="#EF604B"/>
</svg>
