<svg width="331" height="728" viewBox="0 0 331 728" fill="none" xmlns="http://www.w3.org/2000/svg">
<path d="M30.9865 437.551C30.5513 431.466 29.8182 425.381 29.7265 419.297C29.2226 391.062 35.4537 363.634 41.9826 336.552C48.1909 310.806 57.1252 285.845 64.8912 260.491C65.3891 259.445 66.0206 258.469 66.7697 257.587L67.9152 258.186C67.3195 261.459 66.7468 264.755 66.1512 268.028L68.0297 268.766C70.7558 263.073 75.1772 257.587 75.8873 251.641C77.2848 239.863 77.0099 227.854 71.9013 216.491C67.3195 206.027 67.4799 205.912 58.4768 212.573C56.7271 213.684 55.0512 214.908 53.4598 216.238C40.1773 229.444 31.0204 246.268 27.115 264.64C21.5711 288.426 16.7832 312.42 11.7891 336.344C6.10779 363.519 1.8239 390.878 3.1755 418.789C3.63432 423.521 4.39957 428.218 5.46636 432.849L6.35979 432.688C6.01617 426.649 5.69544 420.587 5.35181 414.548L6.97832 414.41L9.52117 429.899L11.1935 429.738V416.162H13.0949C12.7964 419.415 12.8425 422.691 13.2324 425.935C14.332 431.051 13.2324 437.459 19.6697 440.133L20.6089 441.054C19.7613 441.861 18.845 443.359 18.089 443.359C14.6985 443.037 11.3539 442.276 6.63469 441.4C4.682 437.295 3.14696 433.001 2.05297 428.585C-0.885063 410.037 -0.668163 391.121 2.69441 372.646C7.84884 342.037 13.6447 311.544 19.7842 281.12C23.4954 262.819 28.6498 244.933 39.1191 229.03C48.2825 215.062 61.5466 205.981 76.2768 197.868C58.7975 189.594 46.9309 177.286 44.4338 158.086C43.1968 148.59 41.0205 138.103 43.7237 129.483C50.5963 107.61 74.467 84.1921 102.713 87.3728C105.178 87.9125 107.744 87.7367 110.113 86.8657C121.109 80.6656 133.021 80.7348 144.957 81.1727C156.499 81.441 167.84 84.2649 178.175 89.4437C188.509 94.6225 197.582 102.029 204.748 111.136C223.075 133.47 226.58 158.87 215.882 186.228C214.854 188.644 214.692 191.343 215.423 193.866C216.155 196.388 217.734 198.577 219.891 200.058C227.437 205.585 234.117 212.22 239.707 219.741C250.474 235.599 253.589 254.453 255.078 273.076C257.331 300.294 261.829 327.278 268.526 353.746C270.244 360.661 271.114 367.967 278.056 372.185C286.069 377.351 291.89 385.326 294.389 394.565C295.035 396.984 295.989 399.309 297.23 401.48C302.143 409.364 304.659 418.521 304.469 427.825C304.469 436.883 303.53 445.964 303.713 455.022C304.034 471.156 305.248 487.29 305.454 503.562C305.66 519.166 305.134 534.816 304.813 550.42C304.24 580.038 303.576 609.655 302.98 639.273C302.866 645.081 302.98 650.797 302.98 656.513C317.413 658.403 323.758 667.07 320.849 680.415C320.368 682.535 317.733 684.195 316.084 686.062C314.248 684.403 312.625 682.522 311.25 680.461C310.177 677.905 309.356 675.25 308.799 672.532C307.562 677.465 308.066 682.973 302.247 683.365C299.681 683.526 296.841 679.493 293.084 676.635C293.316 679.952 293.262 683.284 292.923 686.592C292.557 688.712 290.632 692.193 289.533 692.193C286.761 692.193 282.362 691.109 281.606 689.242C280.049 685.416 280.301 680.784 280.049 676.45C280.121 674.773 280.352 673.106 280.736 671.472L278.445 670.688C276.406 674.791 274.528 679.009 272.214 682.973C271.252 684.587 269.259 686.615 267.77 686.592C266.788 686.389 265.866 685.964 265.072 685.349C264.278 684.734 263.634 683.945 263.188 683.042C262.2 680.783 261.913 678.277 262.363 675.851C265.25 662.898 271.275 657.643 285.684 655.292V648.193C285.478 626.273 284.791 604.4 285.18 582.458C285.593 559.732 287.631 537.052 287.861 514.326C288.158 485.7 287.448 457.05 286.898 428.424C286.57 423.631 285.67 418.895 284.218 414.318C283.806 412.728 281.927 411.575 281.584 411.206C277.689 414.963 273.107 421.14 271.641 420.426C266.006 417.867 261.378 413.073 255.605 408.487C250.245 410.031 250.222 416.277 249.237 421.671C248.504 425.727 246.671 429.415 242.639 428.101C241.103 427.359 239.768 426.255 238.747 424.883C237.726 423.51 237.049 421.91 236.774 420.218C236.774 415.171 238.813 410.1 240.004 405.029C240.348 403.67 241.242 402.171 240.967 400.95C238.263 389.794 235.354 378.662 232.559 367.529C228.573 351.51 224.633 335.515 220.624 319.358C215.469 319.657 214.622 323.091 214.553 327.194C214.255 343.674 213.912 360.131 213.614 376.61C213.178 399.659 212.904 422.569 212.308 445.549C211.941 460.484 210.407 475.512 210.659 490.333C211.14 521.01 212.423 551.665 213.545 582.32C213.826 584.316 213.326 586.344 212.151 587.977C210.976 589.611 209.218 590.722 207.245 591.078C200.854 592.991 194.393 594.812 188.094 597.025C186.238 597.693 183.512 599.33 183.397 600.874C181.336 617.745 179.801 634.663 177.876 651.581C176.777 661.146 181.404 668.453 186.055 676.036C191.278 684.517 197.715 692.861 200.304 702.196C205 719.183 201.518 722.755 183.626 722.479C181.326 722.391 179.092 721.673 177.166 720.404C169.034 714.942 160.443 709.917 153.273 703.325C146.102 696.733 137.947 689.312 137.076 678.156C136.412 670.02 136.641 661.815 136.595 653.655C136.595 640.863 136.595 628.094 136.595 615.164L108.097 616.754C107.707 621.572 107.272 625.974 107.043 630.399C106.264 645.496 105.691 660.593 104.752 675.667C104.523 679.332 104.294 683.688 102.278 686.384C90.8237 701.919 78.6364 717.016 61.0426 726.374C55.8423 729.163 46.656 728.241 42.7157 724.553C40.5143 722.398 39.0572 719.591 38.5583 716.542C38.0594 713.493 38.545 710.363 39.9438 707.612C43.8611 700.029 49.1072 693.161 53.1849 685.647C56.186 680.092 60.0575 674.122 60.2866 668.153C60.8822 650.521 59.8742 632.796 59.5077 615.141C59.5077 611.2 58.4768 608.918 53.5515 608.226C40.2187 606.521 39.8063 605.76 39.6689 593.129C39.0274 556.39 38.5922 519.673 37.6758 482.957C37.2177 464.91 35.8431 446.886 34.9268 429.161C33.4607 432.042 32.109 434.67 30.7803 437.321L30.9865 437.551ZM267.518 669.743C265.822 672.532 262.615 677.534 269.648 679.862C270.455 677.749 271.517 675.744 272.81 673.892C275.19 671.378 277.772 669.065 280.53 666.977C283.21 664.857 286.097 662.99 288.891 661.031C288.296 663.336 287.746 665.641 287.105 667.761C285.43 672.784 284.083 677.912 283.073 683.111C282.844 684.725 285.799 686.799 287.311 688.643C288.638 686.939 289.732 685.063 290.564 683.065C291.526 679.516 290.747 674.929 292.74 672.394C295.145 669.305 299.796 665.963 303.232 666.24C307.814 666.586 313.518 668.798 313.587 675.782C313.587 676.75 314.778 677.741 315.488 678.801C319.864 673.569 316.084 662.229 309.463 661.031C306.027 660.409 302.27 661.907 298.628 661.976C295.361 661.858 292.102 661.558 288.868 661.077C279.522 656.283 273.13 660.547 267.518 669.697V669.743ZM209.971 227.762C209.963 230.486 209.442 233.185 208.436 235.714C205.756 244.011 202.572 252.148 200.281 260.537C199.342 263.995 200.625 268.005 200.121 271.67C199.388 277.202 197.99 282.618 196.845 288.242C212.216 300.826 209.994 324.935 195.905 338.695C194.875 339.686 193.867 340.724 192.767 341.646C191.095 343.005 189.308 344.273 187.59 345.587C186.284 343.282 183.695 340.977 183.901 338.949C184.978 327.839 180.488 318.021 177.922 307.695C177.029 304.099 178.793 299.904 178.632 296.032C178.429 292.292 177.799 288.587 176.754 284.992C175.54 280.382 173.02 276.118 172.493 271.532C170.935 257.702 173.478 244.035 175.929 230.436C176.028 229.039 176.028 227.637 175.929 226.241C172.004 230.301 167.867 234.148 163.536 237.765C149.79 248.045 134.694 248.759 118.749 243.896C112.314 242.146 106.327 239.029 101.19 234.755C96.0526 230.481 91.8852 225.149 88.9681 219.119C86.8835 214.901 83.8595 211.144 81.4541 207.064C77.8804 200.98 76.3455 200.634 70.7558 204.76C73.5507 213.38 77.1244 221.677 78.9113 230.344C82.3018 246.916 79.9651 262.174 65.9221 273.79C64.2923 275.643 63.171 277.891 62.6691 280.313C57.1252 297.3 50.5733 314.056 46.6331 331.412C41.6364 353.045 37.8127 374.935 35.1788 396.985C33.9188 407.196 36.5304 417.867 37.4696 428.332C38.7296 444.466 40.4936 460.6 41.0434 476.734C41.9368 502.848 41.9597 529.008 42.4637 555.099C42.7386 569.389 43.3571 583.657 43.6091 597.947C43.6091 601.473 44.5942 603.202 48.42 603.755C63.8833 606.06 79.3924 608.134 94.7182 611.246C123.354 617.031 149.218 607.604 175.196 597.831C184.703 594.259 194.508 591.401 204.267 588.612C208.368 587.39 210.727 585.731 210.521 580.891C209.971 566.739 209.925 552.564 209.467 538.389C209.009 524.214 207.566 509.486 207.887 495.057C208.528 466.892 210.384 438.75 211.185 410.584C211.575 396.755 210.429 382.926 210.475 369.097C210.475 353.815 211.071 338.511 211.689 323.23C211.758 322.116 212.056 321.028 212.564 320.036C213.073 319.044 213.782 318.169 214.645 317.468C225.755 310.783 226.74 300.066 224.816 289.325C223.144 280.106 219.272 271.094 216.134 262.082C212.588 251.88 211.759 240.922 213.728 230.298C215.263 221.493 217.119 212.711 218.722 203.907C218.837 203.331 218.012 202.57 217.004 200.795C213.316 210.291 209.399 218.427 210.132 227.924L209.971 227.762ZM136.893 198.744L171.118 190.746C164.246 197.107 157.121 199.067 149.493 200.104C148.242 200.196 146.986 200.196 145.736 200.104C136.962 199.919 128.371 200.219 120.147 204.137C106.86 210.499 94.2142 207.479 81.6374 200.726C90.6634 212.481 94.3058 228.062 108.463 235.875C122.621 243.689 138.542 246.731 152.883 239.747C165.529 233.617 177.006 224.558 179.045 207.272C180.488 195.033 186.353 183.324 190.499 171.408C191.383 169.417 192.433 167.505 193.637 165.692L187.933 162.258L194.096 160.668C192.87 158.428 191.975 156.021 191.438 153.522C191.438 152.716 195.47 150.411 196.02 150.872C197.607 152.504 198.915 154.389 199.892 156.45C202.893 153.269 204.175 143.312 201.266 139.025C198.792 135.36 195.631 134.092 191.759 137.227C191.312 137.615 190.837 137.97 190.339 138.287C187.314 136.609 184.129 135.242 180.832 134.208C164.314 131.004 147.5 128.953 131.212 124.827C125.428 123.541 119.966 121.081 115.161 117.597C110.355 114.113 106.306 109.68 103.263 104.567C87.754 121.347 69.7478 132.525 46.8851 134.53C43.0593 162.788 51.9937 182.472 76.0477 194.249C81.7304 197.083 87.5747 199.577 93.5499 201.717C108.234 206.926 121.201 202.293 133.388 194.042C134.075 193.581 134.785 193.189 136.526 192.106C136.664 194.411 136.733 195.655 136.893 198.583V198.744ZM103.675 98.2518C108.601 112.334 120.903 118.996 133.892 122.338C152.5 127.023 171.417 130.365 190.499 132.341C197.234 133.101 202.824 132.341 205.161 140.039C206.529 143.973 206.665 148.234 205.551 152.249C204.436 156.263 202.125 159.837 198.929 162.488C189.147 169.818 185.413 189.156 191.69 199.689C192.286 200.703 192.767 201.786 193.294 202.824L191.759 204.091L185.734 196.831C180.786 203.745 180.74 204.714 184.451 228.477L180.282 225.757C175.7 235.391 176.731 244.795 183.191 253.992L180.717 254.499L176.548 247.884C172.172 257.633 175.563 265.193 180.167 273.237L175.586 270.61C176.089 280.82 180.625 287.043 187.04 286.49C194.829 285.799 197.921 279.576 197.326 265.308L189.651 269.111L202.778 249.52L197.349 248.252C203.03 240.416 210.361 233.524 204.702 222.899L198.036 226.08C202.618 219.949 207.199 215.132 209.857 209.392C212.148 204.598 212.148 198.721 212.789 193.258C212.789 192.359 210.979 191.23 209.17 189.34C208.986 190.193 208.895 189.179 209.376 188.695C217.531 180.443 217.256 170.002 217.943 159.377C218.629 151.264 217.706 143.095 215.228 135.344C212.751 127.593 208.768 120.415 203.511 114.224C189.399 97.2607 171.439 86.1973 148.874 84.63C141.383 84.0999 133.8 84.4226 126.286 84.63C123.762 84.4711 121.238 84.963 118.955 86.059C112.587 90.0234 105.921 90.1386 98.7272 89.8159C80.0567 88.917 66.8155 99.312 55.7507 112.865C51.6042 117.912 48.8781 124.066 45.3502 129.713L47.0225 131.419C58.2879 130.342 69.187 126.819 78.9679 121.093C88.7487 115.366 97.1784 107.574 103.675 98.2518ZM257.117 399.267C260.76 404.799 264.15 410.515 267.793 416.047C268.365 416.923 269.671 417.314 270.633 417.914L272.26 416.853L260.393 395.326L262.111 394.104C268.984 398.714 271.046 407.127 275.65 413.972C279.361 404.315 268.274 399.705 268.319 391.707L270.404 390.44L283.256 408.302L285.066 407.173C281.858 401.027 278.659 394.834 275.467 388.596C283.714 392.168 286.051 399.728 289.212 407.496C294.573 402.31 291.801 396.294 289.991 392.307C287.191 385.854 282.894 380.171 277.46 375.735C269.557 369.765 267.289 361.905 265.341 353.17C261.905 337.843 257.896 322.654 254.643 307.303C253.716 301.284 253.203 295.208 253.108 289.118C251.757 269.596 249.672 250.235 242.868 231.703C238.961 220.858 231.795 211.505 222.365 204.944C221.769 205.705 221.082 206.212 220.876 206.88C215.749 222.063 214.698 238.338 217.829 254.061C219.937 263.718 224.954 272.684 227.886 282.203C231.133 292.283 230.436 303.23 225.939 312.812C224.611 316.712 224.507 320.928 225.641 324.889C229.352 340.747 233.75 356.443 237.599 372.254C239.271 379.169 240.165 386.245 241.539 393.205C242.015 394.793 242.628 396.336 243.372 397.815C249.489 390.509 251.665 390.785 257.117 399.106V399.267ZM63.9062 652.802C64.7309 666.77 62.1651 679.239 53.4369 690.28C51.9719 691.779 50.9968 693.693 50.6421 695.765C50.6421 699.269 50.917 703.371 52.7726 705.999C53.7806 707.405 59.1412 707.451 61.1571 705.999C68.6153 701.074 75.6156 695.481 82.0727 689.288C88.5319 682.75 94.3331 675.586 99.3916 667.899C101.682 664.35 102.347 659.256 102.69 654.785C103.538 643.468 103.95 632.128 104.111 620.788C103.934 619.737 103.506 618.745 102.864 617.898C102.221 617.051 101.383 616.373 100.422 615.925C88.6474 613.62 76.7579 611.868 64.8912 610.001C64.1581 609.886 63.3334 610.416 63.6542 610.324C63.6542 624.914 62.9898 638.996 63.8374 652.987L63.9062 652.802ZM139.436 614.473C139.436 631.045 139.436 647.686 139.436 664.327C139.303 665.802 139.666 667.279 140.467 668.522C150.432 679.101 158.404 691.824 171.806 698.762C180.373 703.21 186.49 702.011 188.368 695.028C188.996 691.433 188.631 687.734 187.315 684.333C186.015 681.018 184.24 677.911 182.046 675.114C174.99 665.064 173.547 653.978 175.334 642.085C176.364 635.286 176.983 628.394 177.762 621.548C178.541 614.703 179.32 607.858 180.236 599.906L139.367 614.357L139.436 614.473ZM287.196 411.875C288.426 415.258 289.241 418.78 289.624 422.362C290.22 440.801 290.495 459.401 290.61 477.909C290.77 503.263 290.907 528.616 290.61 553.97C290.449 564.618 288.319 575.244 288.319 585.869C288.158 602.003 288.96 618.137 289.304 634.271C289.441 640.909 289.304 647.547 289.762 654.162C289.899 655.914 292.167 657.504 293.45 659.164C295.466 657.597 299.086 656.122 299.2 654.416C299.773 645.381 299.315 636.277 299.498 627.172C299.75 614.864 300.346 602.556 300.598 590.295C300.804 580.153 300.598 570.012 300.827 559.87C301.147 537.352 301.858 514.81 301.858 492.292C301.858 469.105 301.399 445.895 300.621 422.731C300.437 416.969 298.33 411.206 297.047 405.698L287.242 411.829L287.196 411.875ZM165.597 698.485C158.129 693.138 152.219 685.578 145.736 678.871C144.389 677.066 142.895 675.377 141.268 673.823C138.794 685.347 146.011 692.147 152.539 698.208C160.608 705.381 169.32 711.785 178.564 717.339C182.211 719.149 186.299 719.861 190.339 719.39C197.211 718.998 200.808 711.277 197.944 703.625C196.707 700.329 195.012 697.194 193.111 693.115C188.162 708.05 177.693 707.243 165.62 698.6L165.597 698.485ZM43.4488 720.911C47.7327 726.143 54.2846 727.019 61.5924 722.732C74.3754 715.241 84.1574 704.431 93.3437 692.976C97.788 687.398 103.057 682.282 101.156 673.546C100.262 674.399 99.5519 675.021 98.8647 675.667C88.5329 685.9 78.2469 696.203 67.8235 706.321C66.0439 707.804 63.9988 708.931 61.7986 709.641C54.2158 712.522 50.0694 710.539 46.2895 702.495C40.6081 708.857 39.4169 716.094 43.4259 720.934L43.4488 720.911ZM193.088 291.215C195.218 297.346 196.982 302.371 198.677 307.349C199.687 309.884 200.095 312.62 199.868 315.341C199.642 318.062 198.787 320.692 197.372 323.022C199.181 312.535 195.883 303.385 190.82 294.626L182.756 295.226C180.007 300.688 180.465 306.197 182.229 312.12C184.863 321.34 186.811 330.928 189.102 340.47C206.443 326.134 209.559 300.412 193.156 291.146L193.088 291.215ZM250.611 399.475C247.992 400.38 245.824 402.272 244.563 404.753C242.838 409.1 241.69 413.656 241.15 418.305C240.944 419.734 242.891 421.463 243.876 423.053C244.962 421.892 245.866 420.571 246.556 419.135C248.091 413.511 248.847 407.611 256.728 404.476C254.002 402.171 251.757 399.106 250.611 399.475ZM302.728 669.144L295.145 673.546L303.69 677.764L304.652 675.713L302.751 669.282" fill="black"/>
<path d="M31.2221 435.225C29.765 431.401 28.0523 427.665 26.9276 423.776C26.2473 420.645 25.7948 417.481 25.5728 414.303C21.6362 419.474 23.8345 434.074 28.3335 436.876C31.5799 438.919 31.8355 437.398 30.8897 434.986L31.1198 435.225" fill="black"/>
<path d="M19.6971 439.879L20.8106 440.891L23.5265 441.751C21.5439 433.175 19.5341 424.549 17.1441 414.303C13.885 424.422 16.6552 432.012 19.86 439.879" fill="black"/>
<path d="M98.0308 316.273C103.017 324.78 121.037 326.729 129.4 320.324C118.657 323.237 108.752 320.517 98.0308 316.273Z" fill="black"/>
<path d="M87.4763 180.185C87.0082 179.835 86.6621 179.422 86.4627 178.973C86.2634 178.525 86.2155 178.053 86.3227 177.591C86.7406 177.192 87.2873 176.86 87.9233 176.617C88.5593 176.375 89.2686 176.23 90 176.191C93.9177 176.016 97.9075 176.191 101.849 176.191C108.05 175.952 114.251 175.523 121.558 175.109C116.943 182.715 94.0138 185.5 87.4763 180.265V180.185ZM115.958 177.385L90.7691 178.976C99.6861 182.158 107.93 180.567 115.958 177.385Z" fill="black"/>
<path d="M94.3913 139.818C93.6212 147.466 92.8512 155.137 91.9849 163.901L86.4022 158.066C85.6562 163.692 88.0144 164.877 93.0437 166.411C99.8056 168.457 105.412 166.272 111.428 165.644C112.711 165.388 113.925 164.878 114.994 164.146C116.062 163.413 116.962 162.475 117.637 161.39L105.003 162.599C104.618 162.762 102.043 164.924 100.407 164.343C99.2882 163.805 98.3117 163.026 97.5525 162.067C96.7933 161.108 96.2717 159.994 96.0276 158.81C95.7768 154.877 95.9219 150.93 96.4607 147.024C96.6292 144.7 96.8698 142.375 97.0623 140.051L94.3913 139.818Z" fill="black"/>
<path d="M145.085 135.377C142.816 131.394 138.475 131.726 134.544 132.361C133.395 132.647 132.342 133.11 131.455 133.72C130.568 134.329 129.868 135.072 129.4 135.897L145.046 135.377" fill="black"/>
<path d="M148.938 139.818C142.734 142.022 133.203 137.438 129.4 143.739C131.724 143.434 134.08 143.204 136.455 143.05C138.544 142.914 140.662 143.006 142.684 143.32C147.412 144.24 149.413 143.32 148.938 139.818Z" fill="black"/>
<path d="M86.2667 135.897C81.1432 130.806 69.8031 130.774 66.6606 135.21L86.2667 135.897Z" fill="black"/>
<path d="M58.8635 141.133L64.8089 147.661C69.1884 141.41 73.7496 144.201 78.4242 145.723C75.0657 135.736 65.1946 144.916 60.2704 139.818L58.8181 141.133" fill="black"/>
<path d="M196.061 331.625C194.318 323.901 192.575 316.169 190.832 308.43L188.218 308.785L193.446 331.958L196.061 331.625Z" fill="black"/>
<mask id="path-12-inside-1_1586_7101" fill="white">
<path fill-rule="evenodd" clip-rule="evenodd" d="M257 69.0061C297.869 69.0061 331 53.5586 331 34.5031C331 15.4475 297.869 0 257 0C216.131 0 183 15.4475 183 34.5031C183 44.4417 192.012 53.3988 206.435 59.6947L207.008 71.434C207.159 74.5095 210.582 76.2691 213.17 74.6011L225.318 66.7732C225.702 66.526 226.024 66.231 226.287 65.9032C235.642 67.8958 246.043 69.0061 257 69.0061Z"/>
</mask>
<path d="M206.435 59.6947L208.432 59.5971L208.372 58.3581L207.235 57.8618L206.435 59.6947ZM207.008 71.434L205.011 71.5316V71.5316L207.008 71.434ZM213.17 74.6011L214.254 76.2823L213.17 74.6011ZM225.318 66.7732L226.401 68.4544L225.318 66.7732ZM226.287 65.9032L226.703 63.9471L225.496 63.69L224.725 64.6534L226.287 65.9032ZM329 34.5031C329 42.7913 321.715 50.917 308.481 57.0878C295.409 63.1826 277.21 67.0061 257 67.0061V71.0061C277.659 71.0061 296.46 67.1059 310.171 60.7131C323.719 54.3962 333 45.2704 333 34.5031H329ZM257 2C277.21 2 295.409 5.82356 308.481 11.9184C321.715 18.0892 329 26.2148 329 34.5031H333C333 23.7358 323.719 14.6099 310.171 8.29306C296.46 1.90022 277.659 -2 257 -2V2ZM185 34.5031C185 26.2148 192.285 18.0892 205.519 11.9184C218.591 5.82356 236.79 2 257 2V-2C236.341 -2 217.54 1.90022 203.829 8.29306C190.281 14.6099 181 23.7358 181 34.5031H185ZM207.235 57.8618C192.945 51.6238 185 43.154 185 34.5031H181C181 45.7294 191.08 55.1738 205.635 61.5277L207.235 57.8618ZM209.006 71.3364L208.432 59.5971L204.437 59.7923L205.011 71.5316L209.006 71.3364ZM212.087 72.92C210.793 73.7539 209.081 72.8741 209.006 71.3364L205.011 71.5316C205.236 76.1449 210.371 78.7842 214.254 76.2823L212.087 72.92ZM224.235 65.092L212.087 72.92L214.254 76.2823L226.401 68.4544L224.235 65.092ZM224.725 64.6534C224.598 64.8124 224.437 64.9618 224.235 65.092L226.401 68.4544C226.966 68.0903 227.451 67.6496 227.848 67.153L224.725 64.6534ZM257 67.0061C246.175 67.0061 235.914 65.9089 226.703 63.9471L225.87 67.8593C235.37 69.8826 245.91 71.0061 257 71.0061V67.0061Z" fill="black" mask="url(#path-12-inside-1_1586_7101)"/>
<path d="M213.999 39.6895C213.999 39.2611 214.045 38.8372 214.136 38.418C214.236 37.9987 214.286 37.5749 214.286 37.1465V37.0098C214.286 36.8913 214.281 36.7135 214.272 36.4766C214.272 36.2305 214.268 35.957 214.259 35.6562C214.25 35.3464 214.24 35.0228 214.231 34.6855C214.222 34.3392 214.213 34.0156 214.204 33.7148C214.195 33.4049 214.186 33.127 214.177 32.8809C214.177 32.6348 214.177 32.4525 214.177 32.334L214.231 31.2266C214.231 31.1992 214.24 31.1582 214.259 31.1035C214.277 31.0488 214.309 31.0124 214.354 30.9941H215.284C215.302 30.9941 215.343 30.9941 215.407 30.9941C215.48 30.985 215.553 30.9759 215.626 30.9668C215.708 30.9577 215.781 30.9531 215.845 30.9531C215.918 30.944 215.963 30.9395 215.981 30.9395C215.99 30.9395 216.05 30.9395 216.159 30.9395C216.268 30.9395 216.396 30.9395 216.542 30.9395C216.688 30.9303 216.834 30.9258 216.979 30.9258C217.125 30.9258 217.244 30.9258 217.335 30.9258C217.39 30.9258 217.481 30.9258 217.608 30.9258C217.736 30.9258 217.868 30.9303 218.005 30.9395C218.151 30.9395 218.287 30.9395 218.415 30.9395C218.543 30.9395 218.629 30.9395 218.675 30.9395C218.939 30.9668 219.203 31.0078 219.468 31.0625C219.741 31.1081 220.001 31.1855 220.247 31.2949C220.302 31.2949 220.343 31.3086 220.37 31.3359C220.716 31.5547 221.035 31.7826 221.327 32.0195C221.619 32.2474 221.906 32.5117 222.188 32.8125C222.398 33.0312 222.558 33.2773 222.667 33.5508C222.776 33.8242 222.867 34.1022 222.94 34.3848C222.959 34.4395 222.981 34.5215 223.009 34.6309C223.045 34.7311 223.077 34.8405 223.104 34.959C223.141 35.0684 223.173 35.1686 223.2 35.2598C223.227 35.3509 223.241 35.4102 223.241 35.4375C223.268 35.556 223.282 35.6699 223.282 35.7793C223.282 35.8796 223.309 35.9798 223.364 36.0801V36.9551C223.364 36.9733 223.373 37.0052 223.392 37.0508C223.41 37.0872 223.419 37.1146 223.419 37.1328V37.1738V37.1875C223.419 37.1966 223.41 37.2194 223.392 37.2559L223.364 37.3105C223.355 37.3379 223.341 37.3835 223.323 37.4473C223.305 37.502 223.296 37.5384 223.296 37.5566C223.296 37.5658 223.296 37.5931 223.296 37.6387C223.296 37.6842 223.296 37.7344 223.296 37.7891C223.296 37.8346 223.296 37.8802 223.296 37.9258C223.296 37.9714 223.296 37.9987 223.296 38.0078C223.296 38.0169 223.287 38.0397 223.268 38.0762C223.25 38.1035 223.241 38.1217 223.241 38.1309C223.241 38.1491 223.232 38.1992 223.214 38.2812C223.196 38.3633 223.186 38.4134 223.186 38.4316C223.168 38.4863 223.132 38.582 223.077 38.7188C223.031 38.8555 222.981 39.0013 222.927 39.1562C222.872 39.3112 222.817 39.457 222.763 39.5938C222.717 39.7305 222.685 39.8262 222.667 39.8809C222.539 40.0358 222.421 40.2044 222.311 40.3867C222.211 40.5599 222.088 40.724 221.942 40.8789C221.751 41.1068 221.537 41.2936 221.3 41.4395C221.063 41.5762 220.812 41.722 220.548 41.877C220.53 41.8861 220.507 41.8997 220.479 41.918C220.452 41.9271 220.434 41.9316 220.425 41.9316C220.416 41.9408 220.388 41.9453 220.343 41.9453C220.297 41.9362 220.265 41.9316 220.247 41.9316C219.955 41.9772 219.677 42.0228 219.413 42.0684C219.158 42.123 218.871 42.1595 218.552 42.1777C218.506 42.1777 218.397 42.1777 218.224 42.1777C218.059 42.1777 217.877 42.1777 217.677 42.1777C217.476 42.1777 217.289 42.1777 217.116 42.1777C216.952 42.1777 216.847 42.1777 216.802 42.1777C216.774 42.1777 216.701 42.1777 216.583 42.1777C216.464 42.1868 216.341 42.196 216.214 42.2051C216.086 42.2142 215.963 42.2188 215.845 42.2188C215.726 42.2279 215.653 42.2324 215.626 42.2324H214.409C214.391 42.2415 214.359 42.2552 214.313 42.2734C214.277 42.2917 214.25 42.2917 214.231 42.2734C214.222 42.2734 214.209 42.2598 214.19 42.2324C214.181 42.2142 214.177 42.196 214.177 42.1777C214.168 42.1595 214.154 42.1048 214.136 42.0137C214.127 41.9225 214.117 41.8587 214.108 41.8223C214.063 41.4759 214.031 41.1204 214.013 40.7559C214.004 40.3913 213.999 40.0358 213.999 39.6895ZM216.979 39.4844C216.989 39.5482 216.998 39.6257 217.007 39.7168C217.025 39.7988 217.075 39.8535 217.157 39.8809C217.175 39.8809 217.216 39.8854 217.28 39.8945C217.344 39.8945 217.385 39.8945 217.403 39.8945C217.421 39.8945 217.458 39.8945 217.513 39.8945C217.576 39.8854 217.613 39.8809 217.622 39.8809C217.677 39.8809 217.768 39.8763 217.895 39.8672C218.023 39.8581 218.155 39.849 218.292 39.8398C218.438 39.8216 218.574 39.8079 218.702 39.7988C218.83 39.7897 218.921 39.7806 218.976 39.7715C220.507 39.3613 221.272 38.3587 221.272 36.7637C221.272 36.472 221.218 36.1576 221.108 35.8203C221.008 35.474 220.88 35.1732 220.726 34.918C220.698 34.8906 220.653 34.8451 220.589 34.7812C220.534 34.7174 220.47 34.6536 220.397 34.5898C220.334 34.5169 220.27 34.4531 220.206 34.3984C220.142 34.3346 220.097 34.2891 220.069 34.2617C220.06 34.2617 219.996 34.2298 219.878 34.166C219.768 34.1022 219.682 34.0612 219.618 34.043C219.527 33.9974 219.418 33.9564 219.29 33.9199C219.171 33.8743 219.067 33.8379 218.976 33.8105C218.903 33.8105 218.775 33.806 218.593 33.7969C218.42 33.7786 218.233 33.765 218.032 33.7559C217.832 33.7376 217.64 33.724 217.458 33.7148C217.285 33.6966 217.166 33.6875 217.102 33.6875H216.925H216.747C216.747 33.7331 216.742 33.8197 216.733 33.9473C216.724 34.0749 216.715 34.2116 216.706 34.3574C216.706 34.5033 216.701 34.64 216.692 34.7676C216.683 34.8952 216.679 34.9863 216.679 35.041V35.123V35.2051L216.979 38.9512V39.4844ZM226.699 35.6289C226.699 35.4193 226.704 35.2188 226.713 35.0273C226.722 34.8359 226.758 34.64 226.822 34.4395C226.941 34.0293 227.123 33.6419 227.369 33.2773C227.624 32.9036 227.893 32.5482 228.176 32.2109C228.303 32.0651 228.435 31.9421 228.572 31.8418C228.709 31.7415 228.868 31.6322 229.051 31.5137C229.443 31.2493 229.862 31.0306 230.308 30.8574C230.764 30.6751 231.238 30.584 231.73 30.584C232.241 30.584 232.733 30.625 233.207 30.707C233.681 30.7891 234.146 30.9622 234.601 31.2266C234.62 31.2357 234.665 31.2721 234.738 31.3359C234.82 31.3997 234.87 31.4408 234.888 31.459C235.18 31.6686 235.467 31.8691 235.75 32.0605C236.041 32.252 236.306 32.4798 236.543 32.7441C236.543 32.7533 236.561 32.7806 236.597 32.8262C236.634 32.8626 236.67 32.9082 236.707 32.9629C236.752 33.0176 236.798 33.0768 236.844 33.1406C236.889 33.1953 236.921 33.2363 236.939 33.2637C236.948 33.2819 236.967 33.3138 236.994 33.3594C237.03 33.4049 237.053 33.4323 237.062 33.4414C237.071 33.4505 237.099 33.4824 237.144 33.5371C237.199 33.5827 237.231 33.6146 237.24 33.6328C237.249 33.6419 237.249 33.6829 237.24 33.7559C237.24 33.8197 237.24 33.8561 237.24 33.8652C237.24 33.8835 237.258 33.9427 237.295 34.043C237.331 34.1341 237.354 34.1888 237.363 34.207C237.363 34.2161 237.368 34.2435 237.377 34.2891C237.386 34.3255 237.395 34.3665 237.404 34.4121C237.422 34.4577 237.436 34.5033 237.445 34.5488C237.463 34.5853 237.472 34.6081 237.472 34.6172C237.482 34.6354 237.5 34.6764 237.527 34.7402C237.564 34.804 237.582 34.8451 237.582 34.8633V35.1367C237.582 35.1549 237.582 35.1868 237.582 35.2324C237.591 35.2689 237.6 35.3099 237.609 35.3555C237.618 35.401 237.623 35.4466 237.623 35.4922C237.632 35.5286 237.637 35.5514 237.637 35.5605C237.637 35.5697 237.637 35.6107 237.637 35.6836C237.646 35.7474 237.65 35.8249 237.65 35.916C237.65 35.998 237.65 36.0846 237.65 36.1758C237.659 36.2578 237.664 36.3262 237.664 36.3809C237.664 36.7454 237.65 37.1419 237.623 37.5703C237.596 37.9987 237.509 38.377 237.363 38.7051C237.345 38.7324 237.322 38.7734 237.295 38.8281C237.267 38.8828 237.24 38.9421 237.213 39.0059C237.185 39.0697 237.153 39.1289 237.117 39.1836C237.09 39.2383 237.071 39.2793 237.062 39.3066C237.053 39.3249 237.03 39.3568 236.994 39.4023C236.967 39.4388 236.948 39.4661 236.939 39.4844C236.73 39.7396 236.502 39.9902 236.256 40.2363C236.019 40.4824 235.782 40.7194 235.545 40.9473C235.39 41.0931 235.207 41.2207 234.998 41.3301C234.788 41.4395 234.597 41.5443 234.424 41.6445C234.141 41.7995 233.808 41.8997 233.426 41.9453C233.052 41.9818 232.715 42 232.414 42C231.831 42 231.275 41.9316 230.746 41.7949C230.217 41.6582 229.711 41.4349 229.228 41.125C229.192 41.1068 229.142 41.0794 229.078 41.043C229.023 41.0065 228.969 40.9701 228.914 40.9336C228.859 40.888 228.809 40.8516 228.763 40.8242C228.727 40.7969 228.704 40.7786 228.695 40.7695C228.686 40.7695 228.636 40.7331 228.545 40.6602C228.463 40.5781 228.362 40.4824 228.244 40.373C228.125 40.2637 228.002 40.1543 227.875 40.0449C227.756 39.9355 227.656 39.8444 227.574 39.7715C227.583 39.7715 227.574 39.7578 227.547 39.7305L227.519 39.7031C227.51 39.6849 227.492 39.6302 227.465 39.5391C227.437 39.4388 227.419 39.3796 227.41 39.3613C227.301 39.097 227.191 38.8464 227.082 38.6094C226.972 38.3724 226.886 38.1126 226.822 37.8301C226.813 37.821 226.808 37.7845 226.808 37.7207C226.818 37.6569 226.822 37.6204 226.822 37.6113C226.786 37.2741 226.754 36.946 226.726 36.627C226.708 36.2988 226.699 35.9661 226.699 35.6289ZM229.228 37.2012C229.237 37.2194 229.256 37.2513 229.283 37.2969C229.31 37.3333 229.324 37.3607 229.324 37.3789C229.342 37.388 229.356 37.4199 229.365 37.4746C229.374 37.5202 229.383 37.5475 229.392 37.5566C229.401 37.5749 229.42 37.6204 229.447 37.6934C229.484 37.7663 229.52 37.8483 229.556 37.9395C229.593 38.0215 229.629 38.1035 229.666 38.1855C229.702 38.2676 229.73 38.3268 229.748 38.3633C229.875 38.6641 230.021 38.901 230.185 39.0742C230.349 39.2474 230.532 39.375 230.732 39.457C230.942 39.5391 231.17 39.5938 231.416 39.6211C231.671 39.6393 231.949 39.6484 232.25 39.6484C232.778 39.6484 233.257 39.5664 233.685 39.4023C234.123 39.2292 234.51 38.9238 234.847 38.4863C234.857 38.4681 234.875 38.4362 234.902 38.3906C234.929 38.3451 234.943 38.3177 234.943 38.3086C235.053 38.026 235.112 37.7435 235.121 37.4609C235.13 37.1693 235.135 36.873 235.135 36.5723C235.135 36.5449 235.135 36.4948 235.135 36.4219C235.135 36.349 235.13 36.2715 235.121 36.1895C235.121 36.1074 235.121 36.0299 235.121 35.957C235.121 35.875 235.121 35.8203 235.121 35.793C235.103 35.6836 235.071 35.5286 235.025 35.3281C234.98 35.1276 234.92 34.9225 234.847 34.7129C234.775 34.4941 234.693 34.2936 234.601 34.1113C234.51 33.929 234.415 33.806 234.314 33.7422C234.305 33.7422 234.273 33.7376 234.219 33.7285C234.164 33.7103 234.137 33.6966 234.137 33.6875C234.127 33.6784 234.109 33.651 234.082 33.6055C234.054 33.5508 234.032 33.5189 234.013 33.5098C234.004 33.4915 233.986 33.4688 233.959 33.4414C233.931 33.4049 233.909 33.3867 233.89 33.3867C233.635 33.2318 233.353 33.1178 233.043 33.0449C232.742 32.9629 232.441 32.9219 232.14 32.9219C231.73 32.9219 231.343 32.9811 230.978 33.0996C230.614 33.2181 230.29 33.3958 230.008 33.6328C229.734 33.8607 229.515 34.1432 229.351 34.4805C229.187 34.8177 229.105 35.2051 229.105 35.6426C229.105 35.8978 229.119 36.1576 229.146 36.4219C229.174 36.6771 229.201 36.9368 229.228 37.2012ZM241.217 42.2461C241.208 42.1276 241.199 41.9453 241.19 41.6992C241.181 41.444 241.167 41.1615 241.149 40.8516C241.14 40.5417 241.126 40.2181 241.108 39.8809C241.099 39.5345 241.09 39.2064 241.081 38.8965C241.072 38.5866 241.063 38.3086 241.053 38.0625C241.044 37.8073 241.04 37.6204 241.04 37.502C241.04 37.4746 241.04 37.3607 241.04 37.1602C241.04 36.9596 241.035 36.7318 241.026 36.4766C241.026 36.2214 241.026 35.9661 241.026 35.7109C241.026 35.4557 241.026 35.2552 241.026 35.1094C241.026 35.0182 241.026 34.8587 241.026 34.6309C241.026 34.403 241.026 34.1615 241.026 33.9062C241.035 33.651 241.04 33.4095 241.04 33.1816C241.04 32.9538 241.04 32.7943 241.04 32.7031C241.049 32.6667 241.058 32.5892 241.067 32.4707C241.085 32.3522 241.094 32.2747 241.094 32.2383C241.094 32.1836 241.094 32.0924 241.094 31.9648C241.104 31.8281 241.108 31.6868 241.108 31.541C241.108 31.3861 241.104 31.2448 241.094 31.1172C241.094 30.9805 241.094 30.8848 241.094 30.8301C241.186 30.7936 241.258 30.7754 241.313 30.7754C241.368 30.7663 241.436 30.7617 241.518 30.7617H241.737C241.801 30.7708 241.915 30.7799 242.079 30.7891C242.243 30.7891 242.411 30.7936 242.585 30.8027C242.767 30.8118 242.936 30.821 243.091 30.8301C243.255 30.8301 243.369 30.8301 243.432 30.8301C243.551 30.9303 243.66 31.0579 243.76 31.2129C243.87 31.3587 243.966 31.5182 244.048 31.6914C244.139 31.8555 244.225 32.0241 244.307 32.1973C244.389 32.3613 244.471 32.5072 244.553 32.6348C244.563 32.6621 244.594 32.7214 244.649 32.8125C244.704 32.8945 244.758 32.9857 244.813 33.0859C244.877 33.1771 244.932 33.2682 244.977 33.3594C245.032 33.4414 245.068 33.4915 245.087 33.5098C245.096 33.528 245.114 33.569 245.141 33.6328C245.178 33.6966 245.214 33.7695 245.251 33.8516C245.287 33.9245 245.319 33.9928 245.346 34.0566C245.383 34.1204 245.41 34.1569 245.428 34.166L245.716 34.4531C245.725 34.4714 245.743 34.5124 245.77 34.5762C245.798 34.64 245.82 34.6764 245.839 34.6855C245.848 34.7038 245.87 34.7402 245.907 34.7949C245.943 34.8405 245.984 34.8952 246.03 34.959C246.085 35.0137 246.13 35.0684 246.167 35.123C246.212 35.1686 246.24 35.196 246.249 35.2051C246.267 35.2233 246.285 35.2552 246.303 35.3008C246.331 35.3464 246.349 35.3737 246.358 35.3828C246.367 35.401 246.39 35.4466 246.426 35.5195C246.472 35.5924 246.518 35.6699 246.563 35.752C246.618 35.834 246.663 35.9115 246.7 35.9844C246.736 36.0482 246.764 36.0892 246.782 36.1074C246.791 36.1165 246.818 36.153 246.864 36.2168C246.91 36.2715 246.941 36.3079 246.96 36.3262C247.005 36.3809 247.042 36.4128 247.069 36.4219C247.105 36.431 247.142 36.4583 247.178 36.5039C247.197 36.5221 247.229 36.5723 247.274 36.6543C247.32 36.7363 247.347 36.7865 247.356 36.8047C247.365 36.8138 247.402 36.8503 247.466 36.9141C247.529 36.9779 247.57 37.0143 247.589 37.0234C247.598 37.0417 247.62 37.0736 247.657 37.1191C247.693 37.1647 247.73 37.2148 247.766 37.2695C247.812 37.3151 247.853 37.3652 247.889 37.4199C247.926 37.4655 247.949 37.4928 247.958 37.502C247.967 37.5111 247.98 37.5339 247.999 37.5703C248.026 37.5977 248.044 37.6159 248.053 37.625C248.072 37.5885 248.085 37.5111 248.094 37.3926C248.104 37.2741 248.113 37.1921 248.122 37.1465V36.9824C248.122 36.6361 248.104 36.2943 248.067 35.957C248.04 35.6107 248.003 35.2689 247.958 34.9316V31.0625C247.958 31.0352 247.962 30.9941 247.971 30.9395C247.99 30.8848 248.017 30.8483 248.053 30.8301C248.081 30.8301 248.122 30.8301 248.176 30.8301C248.231 30.8301 248.29 30.8301 248.354 30.8301C248.418 30.821 248.477 30.8164 248.532 30.8164C248.587 30.8164 248.628 30.8164 248.655 30.8164C248.691 30.8164 248.737 30.8164 248.792 30.8164C248.855 30.8164 248.915 30.821 248.969 30.8301C249.033 30.8301 249.088 30.8301 249.133 30.8301C249.188 30.8301 249.22 30.8301 249.229 30.8301C249.266 30.8301 249.325 30.8346 249.407 30.8438C249.498 30.8438 249.594 30.8483 249.694 30.8574C249.803 30.8574 249.899 30.862 249.981 30.8711C250.072 30.8802 250.136 30.8848 250.173 30.8848C250.236 30.9303 250.286 30.985 250.323 31.0488C250.359 31.1126 250.387 31.1855 250.405 31.2676C250.423 31.3405 250.432 31.418 250.432 31.5C250.441 31.5729 250.451 31.6413 250.46 31.7051C250.469 31.8418 250.478 32.0423 250.487 32.3066C250.505 32.571 250.519 32.8444 250.528 33.127C250.546 33.4095 250.56 33.6647 250.569 33.8926C250.578 34.1204 250.583 34.2663 250.583 34.3301C250.583 34.4395 250.583 34.6081 250.583 34.8359C250.592 35.0638 250.596 35.319 250.596 35.6016C250.596 35.8841 250.596 36.1849 250.596 36.5039C250.596 36.8229 250.596 37.1237 250.596 37.4062C250.596 37.6888 250.592 37.944 250.583 38.1719C250.583 38.3997 250.583 38.5684 250.583 38.6777C250.619 38.9329 250.637 39.1608 250.637 39.3613C250.646 39.5618 250.651 39.7943 250.651 40.0586C250.651 40.1042 250.646 40.168 250.637 40.25C250.637 40.3229 250.637 40.3958 250.637 40.4688C250.637 40.5417 250.633 40.61 250.624 40.6738C250.624 40.7285 250.624 40.7604 250.624 40.7695C250.624 40.8151 250.619 40.8971 250.61 41.0156C250.61 41.1341 250.605 41.2617 250.596 41.3984C250.596 41.526 250.592 41.6491 250.583 41.7676C250.583 41.877 250.583 41.9544 250.583 42C250.528 42.0091 250.423 42.0182 250.268 42.0273C250.122 42.0456 249.963 42.0592 249.79 42.0684C249.617 42.0866 249.452 42.1003 249.298 42.1094C249.152 42.1185 249.051 42.123 248.997 42.123H248.614H248.231C248.14 42.0957 248.063 42.041 247.999 41.959C247.935 41.877 247.88 41.7995 247.835 41.7266C247.534 41.2344 247.233 40.7467 246.932 40.2637C246.632 39.7715 246.308 39.3021 245.962 38.8555C245.934 38.8281 245.884 38.7689 245.811 38.6777C245.738 38.5866 245.688 38.5273 245.661 38.5C245.643 38.4818 245.606 38.4408 245.551 38.377C245.497 38.3132 245.438 38.2493 245.374 38.1855C245.31 38.1126 245.246 38.0443 245.182 37.9805C245.128 37.9167 245.096 37.8757 245.087 37.8574C245.068 37.8392 245.036 37.7936 244.991 37.7207C244.945 37.6478 244.895 37.5703 244.841 37.4883C244.795 37.3971 244.745 37.3151 244.69 37.2422C244.645 37.1602 244.617 37.1055 244.608 37.0781C244.599 37.0599 244.563 37.0052 244.499 36.9141C244.435 36.8138 244.394 36.7546 244.376 36.7363C244.357 36.709 244.316 36.6452 244.253 36.5449C244.198 36.4355 244.139 36.3262 244.075 36.2168C244.011 36.0983 243.947 35.9889 243.883 35.8887C243.829 35.7793 243.797 35.7109 243.788 35.6836C243.779 35.6745 243.756 35.6471 243.719 35.6016C243.692 35.5469 243.674 35.515 243.665 35.5059C243.665 35.515 243.656 35.5469 243.637 35.6016C243.619 35.6471 243.61 35.6745 243.61 35.6836V35.7383V35.8066C243.637 36.4355 243.656 37.0599 243.665 37.6797C243.674 38.2995 243.697 38.9238 243.733 39.5527C243.733 39.571 243.733 39.6165 243.733 39.6895C243.742 39.7533 243.751 39.8262 243.76 39.9082C243.77 39.9811 243.774 40.054 243.774 40.127C243.783 40.1908 243.788 40.2318 243.788 40.25V41.7676C243.833 41.8587 243.856 41.959 243.856 42.0684C243.856 42.0866 243.852 42.0957 243.842 42.0957C243.842 42.1048 243.842 42.1185 243.842 42.1367V42.1777C243.842 42.1868 243.824 42.196 243.788 42.2051C243.76 42.2233 243.742 42.237 243.733 42.2461C243.514 42.2917 243.305 42.3099 243.104 42.3008C242.913 42.3008 242.703 42.3008 242.475 42.3008H241.614C241.587 42.3008 241.518 42.2917 241.409 42.2734C241.309 42.2643 241.245 42.2552 241.217 42.2461ZM242.817 28.082C242.89 27.8177 243.027 27.5944 243.227 27.4121C243.428 27.2207 243.624 27.0384 243.815 26.8652C243.979 26.7103 244.143 26.6009 244.307 26.5371C244.471 26.4733 244.672 26.4414 244.909 26.4414H245.223C245.351 26.4688 245.488 26.5326 245.633 26.6328C245.779 26.724 245.916 26.8014 246.044 26.8652C246.08 26.8835 246.158 26.9199 246.276 26.9746C246.395 27.0293 246.472 27.0658 246.508 27.084C246.591 27.1296 246.668 27.1523 246.741 27.1523C246.85 27.1523 246.946 27.1159 247.028 27.043C247.119 26.9609 247.201 26.8743 247.274 26.7832C247.356 26.6829 247.429 26.5918 247.493 26.5098C247.557 26.4277 247.616 26.3867 247.671 26.3867H247.739C247.775 26.4141 247.835 26.4596 247.917 26.5234C247.999 26.5781 248.085 26.6419 248.176 26.7148C248.277 26.7786 248.368 26.8424 248.45 26.9062C248.532 26.9701 248.587 27.0156 248.614 27.043C248.669 27.0794 248.723 27.1159 248.778 27.1523C248.833 27.1888 248.86 27.2435 248.86 27.3164C248.86 27.3255 248.855 27.3392 248.846 27.3574C248.846 27.3665 248.846 27.3757 248.846 27.3848C248.737 27.5488 248.614 27.7266 248.477 27.918C248.35 28.1003 248.208 28.2689 248.053 28.4238C247.898 28.5788 247.725 28.7064 247.534 28.8066C247.352 28.9069 247.146 28.957 246.919 28.957C246.572 28.957 246.258 28.8613 245.975 28.6699C245.829 28.5788 245.711 28.4967 245.62 28.4238C245.538 28.3509 245.415 28.3145 245.251 28.3145C245.023 28.3145 244.827 28.3828 244.663 28.5195C244.508 28.6562 244.362 28.8021 244.225 28.957H244.048C243.938 28.957 243.82 28.9297 243.692 28.875C243.574 28.8112 243.46 28.7383 243.35 28.6562C243.241 28.5651 243.141 28.4694 243.049 28.3691C242.958 28.2689 242.881 28.1732 242.817 28.082ZM253.521 42C253.485 41.9909 253.466 41.9681 253.466 41.9316C253.466 41.8952 253.466 41.8633 253.466 41.8359C253.466 41.763 253.498 41.6855 253.562 41.6035C253.626 41.5124 253.671 41.4303 253.699 41.3574C253.708 41.3301 253.726 41.2799 253.753 41.207C253.781 41.125 253.808 41.0384 253.836 40.9473C253.872 40.847 253.904 40.7604 253.931 40.6875C253.959 40.6055 253.977 40.5508 253.986 40.5234C253.995 40.4961 254.009 40.4551 254.027 40.4004C254.054 40.3457 254.082 40.2865 254.109 40.2227C254.136 40.1589 254.159 40.1042 254.177 40.0586C254.205 40.0039 254.218 39.9674 254.218 39.9492C254.227 39.9401 254.246 39.9128 254.273 39.8672C254.3 39.8216 254.328 39.7715 254.355 39.7168C254.382 39.6621 254.405 39.6165 254.423 39.5801C254.451 39.5345 254.464 39.5026 254.464 39.4844C254.474 39.4479 254.51 39.3477 254.574 39.1836C254.638 39.0195 254.706 38.8464 254.779 38.6641C254.852 38.4727 254.92 38.2995 254.984 38.1445C255.048 37.9805 255.089 37.8757 255.107 37.8301C255.125 37.7936 255.162 37.7207 255.216 37.6113C255.28 37.4928 255.321 37.4154 255.339 37.3789L257.554 31.2949C257.563 31.2767 257.577 31.2448 257.595 31.1992C257.623 31.1445 257.645 31.0898 257.664 31.0352C257.691 30.9805 257.714 30.9303 257.732 30.8848C257.759 30.8301 257.778 30.7891 257.787 30.7617L257.855 30.6934H258.046H258.265C258.302 30.6934 258.393 30.6979 258.539 30.707C258.684 30.7161 258.844 30.7253 259.017 30.7344C259.19 30.7344 259.35 30.7389 259.496 30.748C259.641 30.7572 259.737 30.7617 259.783 30.7617C259.847 30.7617 259.906 30.7617 259.961 30.7617C260.015 30.7526 260.074 30.7708 260.138 30.8164C260.211 30.8711 260.275 30.9349 260.33 31.0078C260.384 31.0807 260.434 31.1536 260.48 31.2266C260.507 31.2721 260.544 31.3314 260.589 31.4043C260.635 31.4772 260.676 31.5501 260.712 31.623C260.758 31.696 260.799 31.7643 260.836 31.8281C260.872 31.8828 260.895 31.9147 260.904 31.9238C260.931 31.9876 260.977 32.0879 261.041 32.2246C261.104 32.3522 261.168 32.4889 261.232 32.6348C261.305 32.7806 261.369 32.9128 261.423 33.0312C261.478 33.1497 261.515 33.2272 261.533 33.2637C261.542 33.291 261.56 33.3503 261.587 33.4414C261.615 33.5234 261.647 33.6146 261.683 33.7148C261.72 33.8151 261.752 33.9108 261.779 34.002C261.806 34.084 261.824 34.1387 261.834 34.166C262.007 34.6491 262.216 35.1185 262.462 35.5742C262.709 36.0208 262.927 36.4811 263.119 36.9551C263.137 37.0098 263.178 37.1237 263.242 37.2969C263.306 37.4609 263.378 37.6569 263.461 37.8848C263.552 38.1126 263.643 38.3542 263.734 38.6094C263.825 38.8646 263.912 39.1061 263.994 39.334C264.085 39.5527 264.162 39.7441 264.226 39.9082C264.29 40.0723 264.331 40.1816 264.349 40.2363C264.358 40.2728 264.395 40.3594 264.459 40.4961C264.522 40.6237 264.563 40.7103 264.582 40.7559C264.6 40.8014 264.632 40.8698 264.677 40.9609C264.723 41.043 264.768 41.1341 264.814 41.2344C264.86 41.3346 264.905 41.4303 264.951 41.5215C264.996 41.6035 265.028 41.6628 265.046 41.6992V41.7539C265.046 41.7995 265.028 41.8405 264.992 41.877C264.955 41.9043 264.91 41.9271 264.855 41.9453C264.809 41.9635 264.759 41.9772 264.705 41.9863C264.65 41.9954 264.609 42 264.582 42C264.554 42 264.486 42 264.377 42C264.267 42 264.149 42 264.021 42C263.903 42 263.789 42 263.679 42C263.57 42 263.502 42 263.474 42C263.347 42 263.214 42.0182 263.078 42.0547C262.95 42.1003 262.813 42.123 262.668 42.123C262.595 42.123 262.535 42.1185 262.49 42.1094C262.444 42.1094 262.38 42.0911 262.298 42.0547C262.298 42.0547 262.289 42.0456 262.271 42.0273L262.244 42C262.162 41.8451 262.098 41.722 262.052 41.6309C262.016 41.5306 261.961 41.3984 261.888 41.2344C261.87 41.2161 261.838 41.1569 261.793 41.0566C261.747 40.9564 261.72 40.8971 261.711 40.8789C261.656 40.7057 261.624 40.5553 261.615 40.4277C261.606 40.3001 261.542 40.1589 261.423 40.0039C261.414 39.9948 261.396 39.9857 261.369 39.9766C261.341 39.9583 261.319 39.9492 261.3 39.9492C261.227 39.9492 261.104 39.9447 260.931 39.9355C260.767 39.9264 260.589 39.9219 260.398 39.9219C260.207 39.9128 260.024 39.9036 259.851 39.8945C259.678 39.8854 259.555 39.8809 259.482 39.8809C259.464 39.8809 259.423 39.8809 259.359 39.8809C259.304 39.8717 259.24 39.8626 259.168 39.8535C259.095 39.8444 259.026 39.8398 258.962 39.8398C258.899 39.8307 258.862 39.8262 258.853 39.8262H258.593C258.338 39.8262 258.083 39.8353 257.828 39.8535C257.582 39.8717 257.336 39.9036 257.089 39.9492C256.934 39.9766 256.821 40.0495 256.748 40.168C256.684 40.2773 256.62 40.3958 256.556 40.5234C256.547 40.5508 256.529 40.6009 256.502 40.6738C256.474 40.7467 256.442 40.8242 256.406 40.9062C256.378 40.9792 256.351 41.0475 256.324 41.1113C256.296 41.1751 256.278 41.2161 256.269 41.2344C256.26 41.2526 256.242 41.2982 256.214 41.3711C256.196 41.4349 256.173 41.5078 256.146 41.5898C256.119 41.6628 256.091 41.7357 256.064 41.8086C256.046 41.8724 256.037 41.9134 256.037 41.9316C255.964 42.1139 255.882 42.2096 255.791 42.2188C255.699 42.2279 255.567 42.2324 255.394 42.2324C255.075 42.2324 254.77 42.1914 254.478 42.1094C254.186 42.0365 253.867 42 253.521 42ZM259.086 34.4395C259.076 34.4486 259.063 34.4714 259.044 34.5078C259.035 34.5352 259.031 34.5534 259.031 34.5625C259.031 34.5807 259.022 34.6126 259.003 34.6582C258.985 34.7038 258.962 34.7539 258.935 34.8086C258.917 34.8542 258.899 34.9043 258.88 34.959C258.862 35.0046 258.853 35.0319 258.853 35.041C258.844 35.0501 258.826 35.082 258.798 35.1367C258.78 35.1823 258.757 35.237 258.73 35.3008C258.703 35.3555 258.675 35.4102 258.648 35.4648C258.63 35.5195 258.616 35.5514 258.607 35.5605C258.561 35.6699 258.507 35.8158 258.443 35.998C258.379 36.1803 258.315 36.3626 258.252 36.5449C258.188 36.7181 258.133 36.8685 258.087 36.9961C258.051 37.1237 258.033 37.1875 258.033 37.1875V37.3105H260.261C260.27 37.3105 260.289 37.2969 260.316 37.2695C260.343 37.2331 260.366 37.2057 260.384 37.1875V37.1328C260.384 37.0599 260.362 36.9733 260.316 36.873C260.27 36.7637 260.234 36.6771 260.207 36.6133C260.125 36.4583 260.024 36.2624 259.906 36.0254C259.787 35.7884 259.669 35.5605 259.55 35.3418C259.441 35.1139 259.345 34.918 259.263 34.7539C259.181 34.5898 259.14 34.5078 259.14 34.5078L259.086 34.4395ZM273.904 42C273.84 41.9453 273.799 41.8861 273.781 41.8223V40.7422C273.781 39.1927 273.794 37.6569 273.822 36.1348C273.849 34.6126 273.854 33.0723 273.835 31.5137L273.904 30.9395C273.904 30.9121 273.931 30.8848 273.986 30.8574C274.04 30.8301 274.072 30.8164 274.081 30.8164C274.109 30.8073 274.15 30.7982 274.204 30.7891C274.259 30.7708 274.296 30.7617 274.314 30.7617H276.228C276.255 30.7617 276.283 30.7799 276.31 30.8164C276.337 30.8529 276.36 30.8939 276.378 30.9395C276.406 30.985 276.428 31.0306 276.447 31.0762C276.465 31.1217 276.474 31.1536 276.474 31.1719C276.547 31.6367 276.583 32.1061 276.583 32.5801C276.592 33.054 276.597 33.528 276.597 34.002C276.597 34.084 276.592 34.1979 276.583 34.3438C276.583 34.4805 276.583 34.5534 276.583 34.5625C276.583 34.5807 276.579 34.6263 276.57 34.6992C276.57 34.7721 276.565 34.8542 276.556 34.9453C276.547 35.0273 276.538 35.1048 276.529 35.1777C276.529 35.2507 276.529 35.2962 276.529 35.3145V36.6133C276.529 36.6497 276.524 36.7272 276.515 36.8457C276.506 36.9642 276.492 37.0417 276.474 37.0781V39.4297C276.547 39.4297 276.674 39.4342 276.857 39.4434C277.039 39.4434 277.23 39.4479 277.431 39.457C277.641 39.457 277.837 39.4616 278.019 39.4707C278.201 39.4707 278.329 39.4753 278.402 39.4844C278.465 39.4935 278.543 39.498 278.634 39.498C278.725 39.498 278.816 39.5026 278.908 39.5117C279.008 39.5208 279.113 39.5299 279.222 39.5391L279.345 39.6484C279.354 39.7669 279.363 39.8809 279.372 39.9902C279.381 40.0905 279.386 40.1908 279.386 40.291C279.386 40.3822 279.391 40.4596 279.4 40.5234V40.6465V40.7695C279.391 40.8698 279.386 40.9883 279.386 41.125C279.386 41.2617 279.381 41.3939 279.372 41.5215C279.363 41.6764 279.354 41.8359 279.345 42L279.099 42.0547H277.978H276.296C276.205 42.0547 276.046 42.0501 275.818 42.041C275.59 42.041 275.348 42.0365 275.093 42.0273C274.847 42.0182 274.61 42.0091 274.382 42C274.154 42 273.995 42 273.904 42ZM282.612 30.6934C282.657 30.5931 282.716 30.5156 282.789 30.4609H282.994H283.186C283.195 30.4609 283.222 30.4655 283.268 30.4746C283.322 30.4746 283.373 30.4792 283.418 30.4883C283.473 30.4974 283.523 30.5065 283.569 30.5156C283.614 30.5156 283.646 30.5156 283.664 30.5156C283.719 30.5247 283.81 30.5339 283.938 30.543C284.074 30.543 284.216 30.543 284.362 30.543C284.507 30.543 284.644 30.543 284.772 30.543C284.908 30.5339 285.004 30.5247 285.059 30.5156C285.123 30.5612 285.168 30.6296 285.196 30.7207C285.223 30.8118 285.237 30.8893 285.237 30.9531C285.237 31.2448 285.227 31.5365 285.209 31.8281C285.191 32.1198 285.182 32.4115 285.182 32.7031C285.182 33.6055 285.232 34.485 285.332 35.3418C285.442 36.1986 285.587 37.069 285.77 37.9531C285.779 37.9987 285.793 38.0671 285.811 38.1582C285.838 38.2493 285.861 38.3451 285.879 38.4453C285.906 38.5456 285.929 38.6413 285.947 38.7324C285.975 38.8145 285.993 38.8691 286.002 38.8965C286.057 39.0514 286.153 39.2109 286.289 39.375C286.426 39.5299 286.585 39.6074 286.768 39.6074C286.895 39.6074 287 39.5801 287.082 39.5254C287.164 39.4707 287.255 39.3978 287.356 39.3066C287.574 39.1061 287.738 38.8783 287.848 38.623C287.966 38.3587 288.048 38.0853 288.094 37.8027C288.149 37.5202 288.176 37.2331 288.176 36.9414C288.176 36.6406 288.176 36.3535 288.176 36.0801C288.176 35.6699 288.171 35.2643 288.162 34.8633C288.162 34.4531 288.144 34.043 288.108 33.6328C288.108 33.5781 288.094 33.4414 288.067 33.2227C288.048 33.0039 288.026 32.7715 287.998 32.5254C287.971 32.2702 287.944 32.0332 287.916 31.8145C287.898 31.5866 287.884 31.4453 287.875 31.3906C287.875 31.3724 287.871 31.3086 287.862 31.1992C287.862 31.0807 287.862 30.9941 287.862 30.9395C287.862 30.903 287.862 30.8483 287.862 30.7754C287.871 30.7025 287.875 30.6569 287.875 30.6387L287.998 30.584H290.104C290.113 30.584 290.154 30.5977 290.227 30.625C290.309 30.6523 290.368 30.6751 290.404 30.6934C290.404 30.7025 290.414 30.7161 290.432 30.7344C290.45 30.7435 290.459 30.7526 290.459 30.7617C290.468 30.7982 290.477 30.8757 290.487 30.9941C290.496 31.1035 290.5 31.181 290.5 31.2266C290.509 31.2721 290.514 31.3678 290.514 31.5137C290.523 31.6595 290.532 31.819 290.541 31.9922C290.55 32.1562 290.555 32.3203 290.555 32.4844C290.564 32.6393 290.573 32.7487 290.582 32.8125V33.291C290.582 33.8743 290.564 34.4577 290.528 35.041C290.491 35.6243 290.45 36.2077 290.404 36.791C290.395 36.8457 290.382 36.9779 290.363 37.1875C290.345 37.3971 290.327 37.625 290.309 37.8711C290.291 38.1081 290.272 38.3359 290.254 38.5547C290.236 38.7643 290.227 38.8965 290.227 38.9512C290.163 39.5983 289.967 40.1452 289.639 40.5918C289.311 41.0293 288.86 41.3802 288.285 41.6445C287.994 41.7812 287.702 41.8861 287.41 41.959C287.128 42.0228 286.822 42.0547 286.494 42.0547C286.066 42.0547 285.669 41.9818 285.305 41.8359C284.94 41.6901 284.617 41.4896 284.334 41.2344C284.052 40.9701 283.81 40.6647 283.61 40.3184C283.418 39.972 283.277 39.5938 283.186 39.1836C283.186 39.1654 283.177 39.1107 283.158 39.0195C283.149 38.9284 283.14 38.8281 283.131 38.7188C283.122 38.6094 283.113 38.5091 283.104 38.418C283.095 38.3268 283.09 38.2721 283.09 38.2539C283.081 38.2448 283.072 38.2266 283.063 38.1992C283.063 38.1628 283.058 38.1263 283.049 38.0898C283.04 38.0443 283.031 38.0033 283.022 37.9668C283.022 37.9303 283.022 37.9076 283.022 37.8984C283.022 37.8711 283.017 37.8301 283.008 37.7754C283.008 37.7116 283.003 37.6523 282.994 37.5977C282.985 37.5339 282.976 37.4746 282.967 37.4199C282.967 37.3652 282.967 37.3288 282.967 37.3105C282.958 37.2467 282.949 37.0872 282.94 36.832C282.931 36.5677 282.917 36.2897 282.899 35.998C282.89 35.7064 282.876 35.4329 282.858 35.1777C282.849 34.9134 282.844 34.7493 282.844 34.6855C282.844 34.6673 282.839 34.6309 282.83 34.5762C282.83 34.5215 282.826 34.4622 282.817 34.3984C282.807 34.3255 282.798 34.2617 282.789 34.207C282.789 34.1432 282.789 34.1022 282.789 34.084C282.789 34.0293 282.78 33.9108 282.762 33.7285C282.753 33.5371 282.739 33.332 282.721 33.1133C282.712 32.8854 282.698 32.6667 282.68 32.457C282.671 32.2474 282.666 32.0924 282.666 31.9922C282.657 31.8372 282.643 31.6868 282.625 31.541C282.616 31.3861 282.612 31.2311 282.612 31.0762V30.6934ZM293.671 41.6719C293.671 41.6536 293.676 41.6309 293.685 41.6035C293.694 41.5671 293.698 41.5397 293.698 41.5215C293.835 41.0202 293.985 40.528 294.149 40.0449C294.323 39.5527 294.519 39.0742 294.737 38.6094C294.856 38.3633 294.974 38.1172 295.093 37.8711C295.22 37.625 295.339 37.3789 295.448 37.1328C295.457 37.1055 295.489 37.028 295.544 36.9004C295.599 36.7728 295.653 36.6406 295.708 36.5039C295.763 36.3581 295.813 36.2214 295.858 36.0938C295.913 35.9661 295.95 35.8887 295.968 35.8613C296.059 35.6335 296.168 35.4147 296.296 35.2051C296.424 34.9954 296.547 34.7858 296.665 34.5762C296.793 34.3665 296.911 34.1569 297.021 33.9473C297.139 33.7285 297.239 33.5007 297.321 33.2637C297.33 33.2454 297.326 33.209 297.308 33.1543C297.289 33.0996 297.28 33.0632 297.28 33.0449H293.972V30.5156C293.972 30.4336 294.017 30.388 294.108 30.3789C294.209 30.3607 294.291 30.3516 294.355 30.3516C294.5 30.3516 294.628 30.3607 294.737 30.3789C294.856 30.388 294.993 30.4062 295.148 30.4336H300.589C300.68 30.4336 300.78 30.4564 300.89 30.502C301.008 30.5384 301.067 30.6159 301.067 30.7344V30.8164C301.049 30.862 301.022 30.944 300.985 31.0625C300.949 31.181 300.908 31.3086 300.862 31.4453C300.817 31.5729 300.771 31.696 300.726 31.8145C300.689 31.9238 300.666 32.0013 300.657 32.0469C300.648 32.0742 300.625 32.1243 300.589 32.1973C300.562 32.2702 300.543 32.3158 300.534 32.334C300.507 32.3887 300.457 32.4889 300.384 32.6348C300.311 32.7806 300.233 32.9355 300.151 33.0996C300.069 33.2637 299.992 33.4186 299.919 33.5645C299.846 33.7103 299.796 33.8105 299.769 33.8652C299.769 33.8926 299.76 33.9427 299.741 34.0156C299.732 34.0885 299.723 34.1387 299.714 34.166C299.705 34.1842 299.673 34.2435 299.618 34.3438C299.573 34.4349 299.545 34.4896 299.536 34.5078C299.518 34.5443 299.482 34.6354 299.427 34.7812C299.372 34.918 299.313 35.0684 299.249 35.2324C299.185 35.3965 299.121 35.5514 299.058 35.6973C299.003 35.834 298.971 35.9206 298.962 35.957C298.944 35.9844 298.898 36.0755 298.825 36.2305C298.752 36.3763 298.666 36.5449 298.566 36.7363C298.474 36.9186 298.383 37.1055 298.292 37.2969C298.201 37.4792 298.128 37.625 298.073 37.7344C298.064 37.7526 298.046 37.7891 298.019 37.8438C297.991 37.8893 297.959 37.9395 297.923 37.9941C297.886 38.0488 297.855 38.1035 297.827 38.1582C297.8 38.2129 297.786 38.2448 297.786 38.2539C297.777 38.2721 297.759 38.3177 297.732 38.3906C297.704 38.4635 297.672 38.5456 297.636 38.6367C297.608 38.7188 297.577 38.7962 297.54 38.8691C297.513 38.9421 297.495 38.9876 297.485 39.0059C297.476 39.0332 297.449 39.1061 297.403 39.2246C297.358 39.334 297.33 39.4023 297.321 39.4297V39.4434C297.321 39.4525 297.321 39.4616 297.321 39.4707C297.33 39.4707 297.335 39.4753 297.335 39.4844H300.411C300.42 39.4844 300.461 39.4889 300.534 39.498C300.616 39.5072 300.676 39.5208 300.712 39.5391C300.748 39.5482 300.789 39.5618 300.835 39.5801C300.89 39.5892 300.926 39.612 300.944 39.6484C300.944 39.7031 300.944 39.7943 300.944 39.9219C300.954 40.0404 300.963 40.168 300.972 40.3047C300.981 40.4414 300.985 40.5736 300.985 40.7012C300.995 40.8197 301.004 40.9017 301.013 40.9473V41.3848V41.8223C301.013 41.8861 300.981 41.9316 300.917 41.959C300.862 41.9863 300.812 42 300.767 42C300.685 42 300.534 42 300.316 42C300.106 42.0091 299.883 42.0182 299.646 42.0273C299.418 42.0365 299.194 42.041 298.976 42.041C298.766 42.0501 298.62 42.0547 298.538 42.0547H296.487H294.45C294.386 42.0456 294.309 42.0365 294.218 42.0273C294.127 42.0182 294.04 42.0046 293.958 41.9863C293.876 41.959 293.808 41.9225 293.753 41.877C293.698 41.8223 293.671 41.7539 293.671 41.6719Z" fill="black"/>
</svg>
