<svg width="331" height="400" viewBox="0 0 331 400" fill="none" xmlns="http://www.w3.org/2000/svg">
<g clip-path="url(#clip0_703_8508)">
<path fill-rule="evenodd" clip-rule="evenodd" d="M191.848 241.005C162.149 232.744 142.749 244.477 130.653 278.479C119.755 308.889 85.3857 321.1 51.9739 313.558C19.6399 306.255 0.718573 282.31 4.05777e-05 247.829C-0.718492 212.869 16.167 189.164 48.6207 179.466C83.2301 169.17 86.4634 164.142 88.2598 125.231C90.5351 74.1086 111.013 32.4445 159.395 11.4927C204.542 -8.14217 248.972 -3.59264 287.293 30.1697C328.25 66.2068 340.824 118.048 321.184 165.578C299.748 217.419 255.798 243.878 191.848 241.005Z" fill="#A8C0D0"/>
<path d="M313.28 259.923C315.436 265.31 314.957 266.747 310.286 270.458C309.687 270.937 309.208 272.015 309.208 272.853C309.328 284.945 309.807 296.918 309.807 309.01C309.807 317.271 309.328 325.412 309.208 333.673C309.089 338.821 309.568 343.969 309.208 349.118C308.729 355.463 307.651 361.689 306.693 368.513C309.687 370.548 311.005 373.781 309.807 378.33C309.328 380.126 310.406 382.521 311.364 384.317C312.561 386.591 314.118 388.746 312.202 391.141C310.166 393.655 307.292 393.775 304.418 393.056C303.34 392.817 302.382 392.338 301.424 391.739C297.233 389.225 292.922 388.028 288.012 389.704C286.215 390.303 283.82 389.225 281.305 388.746C282.623 390.303 283.7 391.62 284.658 393.056C286.814 396.05 286.335 398.683 282.862 399.641C280.467 400.24 277.353 400.12 275.078 399.043C270.288 396.768 265.977 393.535 261.306 390.901C260.109 390.303 258.552 389.944 257.234 390.183C252.564 391.021 248.013 392.218 243.463 393.056C242.624 393.176 241.546 392.937 240.588 392.578C233.283 390.063 227.296 385.514 221.787 380.366C219.751 378.45 219.751 374.26 219.272 371.147C216.757 354.505 216.158 337.744 215.919 320.982C215.799 314.996 216.039 314.397 211.488 314.038C215.32 321.341 214.482 329.243 214.601 336.906C214.841 351.632 212.685 365.879 203.704 378.33C194.363 391.261 179.393 394.014 165.622 385.634C155.203 379.288 150.053 369.59 147.538 358.217C143.826 341.455 144.425 324.694 148.856 308.172C151.251 299.073 155.083 290.572 162.508 284.346C163.705 283.269 165.023 281.832 166.46 281.473C169.693 280.635 169.693 278.719 169.214 276.086C168.615 273.092 168.735 269.98 168.376 266.867C168.136 264.831 166.819 262.916 167.059 261C167.418 257.049 164.544 254.415 163.945 251.063C163.466 247.83 163.945 244.239 164.903 241.126C166.939 234.661 169.094 228.196 171.969 221.97C173.885 217.78 176.879 214.068 179.393 210.237C174.364 204.37 175.202 198.025 176.639 191.68C177.597 187.01 179.753 182.102 179.034 177.672C177.597 168.333 179.034 159.593 181.19 150.614C182.866 143.311 183.705 135.768 184.423 128.345C185.501 116.852 192.327 109.908 202.267 105.957C215.081 101.048 227.775 101.048 239.87 108.711C245.738 112.422 248.852 117.81 250.408 124.155C252.444 131.937 254.241 139.719 256.037 147.501C257.833 155.643 257.474 163.784 256.037 172.045C255.558 175.158 255.199 178.151 258.911 180.426C264.539 184.017 266.695 190.363 268.97 196.229C271.126 202.096 272.803 208.082 274.838 213.948C276.036 217.301 277.713 220.414 278.91 223.646C279.629 225.442 279.988 227.358 280.706 230.111C286.335 232.625 293.041 235.259 299.508 238.492C304.059 240.767 308.49 243.281 312.801 246.154C316.034 248.549 316.034 256.93 313.28 259.923C313.28 258.486 313.28 257.049 313.4 255.493C313.879 251.662 313.639 248.19 309.568 246.154C305.616 244.239 301.783 241.964 297.831 240.048C292.203 237.295 286.455 234.661 280.706 232.027C279.748 231.548 278.431 231.069 277.713 231.428C274.24 233.104 270.887 235.14 267.054 237.295C269.689 239.45 271.485 241.246 273.761 242.323C277.593 244.239 281.665 245.795 285.616 247.352C291.125 249.626 296.754 251.781 302.143 254.296C304.777 255.493 305.735 260.042 304.298 262.796C304.059 262.676 303.819 262.676 303.7 262.557C303.58 262.317 303.34 261.958 303.34 261.719C303.34 256.93 300.107 254.775 296.155 253.218C294.598 252.619 293.041 252.26 291.484 251.662C284.299 248.549 276.994 245.795 269.928 242.323C266.216 240.527 263.821 240.527 261.426 244.119C264.899 245.795 268.491 247.471 272.084 249.147C282.862 254.176 293.52 259.324 304.298 264.472C307.292 265.909 311.484 263.634 312.082 260.162L311.963 260.282C312.322 260.042 312.801 260.042 313.28 259.923ZM256.875 180.306C246.696 202.934 213.763 208.202 199.512 181.862C185.86 192.398 183.106 209.758 173.525 222.569C172.208 224.245 171.969 226.639 171.13 228.914C176.04 230.47 180.95 230.949 184.184 234.661C179.992 233.464 175.921 232.027 171.969 230.59C170.052 229.872 170.052 229.872 170.052 231.787C173.765 233.224 177.358 234.421 180.83 235.858C182.986 236.696 186.339 236.097 187.058 234.182C188.136 231.428 185.381 231.189 184.064 230.351C182.507 229.273 180.471 228.794 178.675 228.076C177.238 227.477 175.681 226.879 174.124 226.4C174.244 226.041 174.364 225.801 174.483 225.442C175.441 225.562 176.519 225.681 177.477 226.041C180.351 227.118 183.106 228.435 185.98 229.513C186.698 229.752 187.776 229.872 188.255 229.513C188.854 228.914 189.573 227.477 189.333 227.118C187.657 224.724 189.213 223.047 190.291 221.132C191.968 218.378 193.405 215.505 195.081 212.871C196.997 209.998 199.153 207.364 201.548 204.251C201.668 206.166 201.668 207.364 201.907 208.561C202.626 214.906 203.344 221.132 204.063 227.477C204.662 233.703 205.141 239.809 205.859 246.035C205.979 246.753 206.817 247.83 207.536 248.19C212.685 250.105 216.637 253.098 217.835 258.845C218.314 261.479 219.871 262.676 222.625 262.437C225.499 262.197 228.373 262.916 231.128 262.317C237.355 261 243.702 259.444 249.69 257.289C251.845 256.451 254.72 253.817 254.959 251.662C255.917 242.682 256.037 233.583 256.396 224.484C256.516 221.252 256.276 217.899 256.636 214.667C257.354 207.962 257.953 201.258 254.121 195.271C254.001 195.152 254.241 194.792 254.48 193.954C258.312 198.504 258.911 203.293 258.911 208.561C258.911 211.075 259.63 213.589 260.348 216.103C261.186 218.977 263.462 221.85 263.102 224.364C262.264 229.153 266.935 231.787 265.498 236.576C269.569 234.302 273.042 232.386 276.395 230.351C278.551 229.034 279.509 227.477 277.593 225.083C276.515 223.766 275.557 222.209 274.958 220.533C273.282 215.625 271.964 210.476 270.048 205.568C267.773 199.581 265.498 193.476 262.623 187.729C261.546 184.855 259.031 182.82 256.875 180.306ZM233.762 163.305C231.247 169.291 227.535 173.841 220.949 175.038C218.553 175.517 217.236 176.115 217.715 178.51C211.847 177.193 206.937 180.306 200.949 181.264C204.662 185.813 207.296 190.482 211.967 193.476C219.152 198.145 226.817 198.624 234.84 196.828C243.463 194.912 249.69 190.004 253.642 182.221C254.001 181.383 253.881 179.587 253.282 179.109C251.486 177.792 249.45 176.594 247.295 175.756C242.385 174.08 239.511 170.488 239.391 164.143C239.391 158.276 240.469 152.41 240.828 146.543C241.067 143.431 242.265 141.874 245.379 142.473C247.295 139.839 247.534 137.085 246.337 134.332C245.738 133.134 244.9 132.177 244.181 131.099C243.343 131.937 242.505 132.895 241.786 133.613C240.948 133.493 239.87 133.015 239.271 133.374C235.439 135.17 231.247 136.367 230.529 141.874C230.05 145.825 226.577 147.86 222.745 148.22C219.392 148.459 216.757 146.663 215.32 143.431C214.961 142.712 213.763 142.473 212.685 141.874C212.446 143.071 212.326 143.55 212.206 144.029C211.248 149.656 208.135 152.29 202.626 152.29C198.435 152.29 194.483 148.938 193.884 144.269C193.405 140.677 194.004 137.085 197.237 134.93C200.47 132.775 203.943 132.775 207.057 135.17C209.212 136.846 211.009 138.761 213.524 141.036C213.883 139.839 214.362 138.881 214.482 137.804C214.841 132.775 219.032 128.944 223.823 130.141C226.697 130.86 229.331 132.895 232.565 134.571C233.643 133.972 235.559 133.015 237.714 131.937C233.283 128.226 229.451 124.634 225.26 121.401C221.068 118.169 216.637 115.176 212.566 112.302C210.171 114.577 207.656 117.211 204.901 119.486C201.548 122.359 197.836 124.634 194.842 127.747C192.207 130.381 190.531 133.374 191.129 137.804C192.087 145.227 194.842 151.931 198.075 158.516C201.069 164.622 205.5 169.77 211.967 172.883C216.997 175.158 222.865 174.439 226.817 170.608C229.331 168.333 231.487 165.699 233.762 163.305ZM212.685 331.398C212.206 328.285 211.967 322.778 210.53 317.51C208.853 311.883 206.338 306.376 203.704 300.988C200.231 293.924 195.8 287.579 188.375 283.868C182.507 280.874 176.879 279.198 170.292 281.593C163.825 283.868 159.394 288.657 156.281 294.044C150.053 304.819 147.419 316.792 146.94 329.123C146.461 342.652 147.179 355.942 153.047 368.752C157.957 379.408 172.208 389.106 183.106 387.908C188.854 387.19 194.004 385.394 198.075 381.563C203.464 376.534 206.578 369.95 208.853 363.006C212.206 353.547 212.206 343.61 212.685 331.398ZM218.314 264.233C219.032 266.986 219.511 269.022 220.11 271.057C220.709 272.973 222.146 274.769 222.386 276.684C222.984 281.234 223.583 285.783 223.224 290.333C222.865 295.122 225.02 297.396 228.852 299.073C229.691 299.432 230.289 299.911 231.128 300.39C235.678 302.904 240.109 305.298 244.78 307.813C249.69 300.868 256.516 296.678 264.3 293.206C262.983 292.009 262.025 290.931 260.947 290.213C255.079 286.262 249.211 282.431 243.343 278.48C242.265 277.762 241.546 276.325 240.588 275.247C240.828 275.008 241.067 274.769 241.307 274.649C242.864 275.726 244.421 276.924 246.217 278.121C247.295 276.684 248.133 275.367 249.211 274.17C249.69 273.691 250.408 273.452 251.127 273.092C251.007 273.811 251.247 274.769 250.887 275.367C250.169 276.564 249.211 277.642 248.373 278.719C253.402 282.191 258.312 285.544 263.102 289.135C265.498 290.931 267.773 292.967 267.653 296.558C267.653 297.756 269.09 299.192 270.048 300.15C271.845 301.826 273.88 303.263 275.916 304.819C280.946 297.995 288.251 293.924 296.035 289.734C294.598 288.417 293.64 287.459 292.562 286.741C285.377 282.072 278.072 277.522 270.887 272.853C264.18 268.423 256.516 264.712 255.438 255.732C252.684 257.408 250.049 259.803 247.055 260.521C239.87 262.197 232.565 263.155 225.26 264.233C223.224 264.592 221.188 264.233 218.314 264.233ZM253.402 176.475C253.762 174.2 254.001 172.045 254.241 169.89C255.318 161.03 255.558 152.171 252.564 143.431C250.887 138.402 250.289 132.895 249.091 127.747C247.295 119.845 244.181 113.14 236.397 109.189C229.93 105.957 223.224 104.4 216.039 104.64C200.47 105.119 185.501 113.859 185.022 134.092C184.782 140.797 183.465 147.501 182.148 153.966C180.83 160.192 179.154 166.298 180.471 172.883C181.789 178.869 180.95 184.736 178.675 190.482C176.998 194.673 176.879 198.863 177.717 203.293C177.956 204.73 178.435 206.166 178.795 207.723C179.154 207.723 179.393 207.723 179.753 207.723C180.351 206.645 180.83 205.687 181.429 204.61C183.585 200.659 185.261 196.469 187.776 192.877C190.65 188.806 193.525 184.137 197.596 181.743C202.506 178.749 208.614 177.672 213.763 175.996C197.117 169.89 193.405 154.326 189.453 138.642C188.974 140.198 188.495 141.515 187.776 143.55C184.184 129.543 197.716 112.781 204.542 113.859C201.548 116.253 198.315 118.288 195.92 120.922C193.644 123.556 192.087 126.789 189.932 130.381C193.525 127.148 196.279 124.155 199.512 121.76C204.422 118.049 209.811 115.056 211.847 109.189C216.757 112.901 221.188 116.971 226.338 119.725C231.487 122.599 234.241 128.585 240.948 130.381C236.756 122.838 231.607 116.971 224.9 112.422C226.218 112.302 227.296 112.661 228.134 113.14C233.164 116.133 236.876 120.444 240.109 125.472C240.828 126.549 241.546 128.345 242.505 128.465C248.013 129.303 248.013 133.613 248.612 137.444C249.331 141.515 247.894 144.628 242.505 144.508C242.145 151.213 241.427 157.798 241.307 164.502C241.307 167.974 242.385 171.446 245.977 173.242C248.373 174.32 250.768 175.277 253.402 176.475ZM263.941 369.83C264.18 366.956 264.659 364.083 264.779 361.09C265.378 350.315 265.857 339.42 266.216 328.645C266.456 321.102 266.815 313.559 266.815 306.017C266.815 302.425 265.857 298.833 265.258 294.164C260.109 297.516 255.678 299.791 251.845 303.024C248.013 306.256 244.66 309.608 245.259 315.954C246.576 331.638 246.696 347.441 247.414 363.125C247.534 365.879 247.774 368.633 251.726 368.273C252.444 368.273 253.402 368.513 253.881 368.992C256.995 372.344 260.348 371.865 263.941 369.83ZM294.239 365.879C294.478 341.455 299.149 317.39 296.993 292.847C296.035 292.967 294.957 292.847 294.239 293.326C289.688 296.199 285.137 299.073 280.826 302.305C277.353 304.939 276.156 308.172 276.874 313.08C279.389 328.645 278.79 344.448 278.671 360.252C278.671 362.527 278.671 364.682 278.671 366.956C278.91 366.717 279.03 366.358 279.269 366.118C284.299 370.907 288.73 365.999 294.239 365.879ZM225.859 370.309C232.325 368.513 237.834 366.837 243.343 365.52C245.498 365.041 245.858 364.323 245.738 362.287C245.019 348.878 244.301 335.469 243.702 321.94C243.702 321.581 243.582 321.222 243.463 321.102C238.433 321.102 233.643 321.461 228.852 320.982C223.583 320.384 223.104 320.623 223.344 325.771C223.823 336.427 224.062 347.202 224.541 357.857C224.9 362.167 225.499 366.358 225.859 370.309ZM208.973 274.05C200.71 272.973 192.806 271.895 185.022 270.818C185.022 271.057 184.902 271.297 184.902 271.656C193.046 273.571 201.189 275.487 209.093 277.283C211.129 271.656 211.727 266.268 207.895 260.402C211.368 262.437 213.883 268.303 212.446 271.297C211.009 274.29 211.368 277.163 211.608 280.036C212.087 285.065 212.925 289.974 213.643 294.882C214.122 297.756 214.602 300.629 215.081 303.622C215.56 303.622 215.919 303.502 216.398 303.502C218.314 288.297 214.841 273.452 212.326 258.007C215.799 261.599 215.679 265.789 215.919 269.98C219.272 262.437 215.56 253.697 210.051 251.302C201.668 247.711 192.926 244.957 183.824 243.76C180.112 243.281 176.519 242.802 172.807 242.443C172.807 242.084 172.807 241.725 172.807 241.365C175.082 241.365 177.358 241.485 179.513 241.246C180.232 241.126 181.19 240.408 181.429 239.689C181.669 239.21 181.07 238.013 180.471 237.774C177.717 236.457 174.962 234.9 172.088 234.062C170.052 233.464 167.657 233.344 167.298 236.816C167.059 239.809 165.981 242.682 165.382 245.675C164.065 252.021 164.903 254.296 171.13 255.493C178.914 257.049 186.818 257.408 194.722 258.247C198.674 258.606 202.865 258.247 205.62 262.078C208.733 265.789 208.973 269.98 208.973 274.05ZM262.623 256.57C261.665 262.676 263.701 266.388 268.491 269.141C276.755 273.93 284.778 278.959 292.682 284.346C295.915 286.502 299.149 289.016 299.029 293.924C299.029 296.079 298.311 299.192 302.262 300.03V276.564C289.329 269.98 276.156 263.395 262.623 256.57ZM266.575 366.956C269.569 365.639 272.204 364.562 274.838 363.125C275.797 362.646 276.755 361.329 276.874 360.372C277.114 354.625 276.994 348.878 276.994 343.131C276.874 334.631 276.635 326.13 276.395 317.39C274.958 317.75 274.12 317.869 273.282 318.109C268.012 318.947 268.132 318.947 267.893 323.975C267.533 332.356 267.054 340.737 266.815 349.118C266.456 354.984 266.575 360.851 266.575 366.956ZM212.685 303.024C211.727 294.882 210.769 287.1 209.811 279.797C196.518 276.325 183.705 272.973 170.172 269.381C170.651 272.853 171.011 275.846 171.37 279.079C174.603 279.079 177.837 278.48 180.83 279.198C191.968 281.713 200.111 288.297 204.901 298.833C206.338 302.305 209.093 303.143 212.685 303.024ZM265.617 383C266.575 381.683 267.533 380.485 268.372 379.288L268.132 378.45C266.456 378.929 264.779 379.408 263.102 379.887C262.983 379.767 262.863 379.528 262.863 379.408C263.941 378.45 265.019 377.373 266.575 375.936C265.258 374.619 264.18 372.943 262.623 372.224C262.025 371.985 260.468 373.9 258.911 375.098C259.031 375.217 258.552 374.858 258.073 374.499C255.797 372.943 253.522 371.267 251.007 369.95C250.528 369.71 248.492 370.788 248.612 371.147C248.971 373.661 248.971 376.774 250.408 378.45C256.396 385.634 263.581 391.5 271.845 396.05C274.359 397.367 277.234 398.324 280.108 398.803C281.305 399.043 283.461 398.085 283.94 397.007C284.419 396.05 283.581 394.014 282.742 393.056C279.868 389.824 276.635 386.951 273.641 383.957C272.084 385.035 271.006 385.753 269.928 386.472C269.689 386.232 269.449 385.993 269.33 385.753C270.168 384.676 271.006 383.478 271.845 382.401C269.21 378.929 268.132 383.838 265.617 383ZM258.073 388.507C250.408 382.64 244.66 376.654 246.337 366.238C239.511 368.992 232.565 368.393 226.936 372.823C227.775 373.541 228.134 373.781 228.493 374.02C232.445 377.253 236.636 380.366 234.002 386.472C233.882 386.831 234.241 387.908 234.72 388.148C237.475 389.345 240.349 391.261 243.103 391.141C247.774 391.021 252.444 389.584 258.073 388.507ZM289.329 373.422C286.215 371.626 284.06 370.189 281.665 369.231C280.946 368.992 279.03 369.95 278.91 370.428C278.551 373.541 278.551 376.534 282.024 378.211C283.221 378.809 284.06 379.767 285.257 380.485C291.844 384.077 298.311 387.789 304.897 391.141C307.053 392.218 310.047 392.099 310.885 389.824C311.484 388.387 310.286 385.514 309.089 384.317C305.376 380.725 301.304 377.612 297.352 374.379C295.676 375.337 294.119 376.175 292.562 377.013C292.443 376.774 292.203 376.415 292.083 376.175C293.281 375.217 294.598 374.14 295.915 373.182C294.957 371.506 294.359 369.112 292.922 368.513C291.604 367.914 289.329 368.992 287.413 369.471C288.012 370.788 288.491 371.626 289.329 373.422ZM217.116 270.818C217.595 275.247 218.074 279.079 218.194 282.79C218.434 289.495 218.673 296.319 218.553 303.024C218.553 305.179 217.236 306.615 214.601 305.777C212.566 305.179 210.41 304.819 207.656 304.101C209.692 307.334 209.213 311.524 213.404 312.362C216.637 312.961 217.236 315.116 217.356 317.51C217.835 329.962 218.194 342.413 218.673 354.745C219.99 354.266 221.428 353.667 223.224 353.068C222.984 348.279 222.505 343.371 222.386 338.582C222.146 331.279 221.907 323.975 221.787 316.672C221.547 304.34 221.308 292.129 220.949 279.797C220.709 276.804 220.11 273.571 217.116 270.818ZM203.704 246.274C202.985 238.013 202.267 229.992 201.428 221.611C197.596 222.329 194.004 223.047 190.291 223.766C190.411 224.484 190.531 224.963 190.65 225.322C191.369 227.717 189.094 234.781 187.417 236.457C185.86 237.893 184.423 239.689 182.866 241.485C189.932 243.161 196.638 244.598 203.704 246.274ZM168.615 257.408C167.298 258.845 167.777 260.761 169.693 261.838C172.687 263.634 175.561 265.789 178.914 266.508C188.016 268.663 197.357 270.099 206.578 271.895C206.937 271.416 207.177 271.057 207.536 270.578C206.698 268.663 206.338 265.55 204.901 264.951C199.393 262.796 193.525 261.12 187.776 259.923C181.549 258.845 175.202 258.366 168.615 257.408ZM302.143 308.89C299.269 310.925 298.55 313.08 298.909 315.954C299.149 318.229 298.909 320.503 298.67 322.778C297.592 335.11 296.514 347.441 295.556 359.773C295.436 361.449 295.676 363.006 295.676 363.844H302.143V308.89ZM303.939 292.488C303.819 293.565 303.819 294.284 303.819 295.002C303.819 311.404 303.939 327.807 303.819 344.209C303.819 346.723 304.059 348.639 307.532 348.519V292.368H303.939V292.488ZM243.942 313.559C242.864 311.524 242.505 309.608 241.307 308.89C235.559 305.179 229.691 301.826 223.583 298.354C223.583 302.784 223.463 306.735 223.703 310.686C223.703 311.524 224.781 312.601 225.619 312.961C231.367 315.475 237.235 314.158 243.942 313.559ZM210.769 142.832C210.769 139.121 206.338 135.05 202.147 134.93C197.956 134.81 195.201 138.043 195.201 142.952C195.201 147.501 198.315 150.614 202.746 150.734C207.536 150.854 210.769 147.621 210.769 142.832ZM258.791 216.223C258.432 216.343 258.073 216.343 257.833 216.463C257.833 220.653 257.953 224.963 257.833 229.153C257.594 236.816 257.115 244.478 257.115 252.141C257.115 255.732 257.115 259.803 261.067 262.916C260.827 261.24 260.588 260.042 260.588 258.965C260.468 257.648 260.588 256.331 260.468 255.014C260.348 253.218 260.468 251.183 259.749 249.507C258.192 245.316 259.27 241.964 263.222 239.929C264.18 239.45 265.138 239.091 265.857 238.731C264.3 234.9 262.743 231.189 261.186 227.597C261.067 227.358 261.186 226.879 261.186 226.639C262.504 222.569 260.109 219.575 258.791 216.223ZM291.604 386.831C288.73 384.915 285.976 383.119 283.221 381.443C278.671 378.689 275.317 375.337 276.395 369.351C276.755 367.675 276.395 365.999 276.395 363.963C274.24 364.921 272.443 365.639 270.887 366.478C266.695 368.633 266.336 369.471 269.09 373.062C271.964 376.774 275.437 380.006 278.551 383.478C282.024 387.429 285.976 389.704 291.604 386.831ZM259.989 245.197C260.588 246.514 260.707 247.83 261.426 248.19C263.581 249.507 265.857 250.584 268.132 251.662C277.473 256.57 286.814 261.599 296.275 266.388C298.67 267.585 301.304 268.663 303.939 269.261C308.25 270.339 312.561 267.465 312.442 263.155C308.011 268.423 303.819 265.669 299.508 263.754C293.64 261 287.772 258.127 281.784 255.253C274.599 252.141 267.653 248.788 259.989 245.197ZM222.266 131.817C219.152 131.698 216.039 135.289 215.679 139.24C215.32 142.353 219.272 146.783 221.547 146.783C225.26 146.903 229.691 143.071 229.93 139.121C230.409 134.451 228.014 132.177 222.266 131.817ZM303.221 271.895C291.724 265.909 280.587 260.042 269.33 254.176C268.132 257.169 269.689 258.486 271.964 259.444C275.437 261 278.91 262.557 282.263 264.352C288.97 267.825 295.556 271.297 302.382 274.888C302.741 273.691 302.981 272.733 303.221 271.895ZM223.942 314.158C223.344 318.707 223.823 319.426 227.775 319.426C231.846 319.426 236.038 319.546 240.109 319.426C243.463 319.426 243.822 318.947 242.744 315.475C236.517 316.074 230.289 317.151 223.942 314.158ZM298.071 364.442C296.514 372.703 303.939 373.422 307.292 377.971C308.729 374.619 308.849 372.105 306.214 370.069C303.7 368.273 301.185 366.597 298.071 364.442ZM201.548 219.575C201.069 216.103 200.71 212.751 200.231 209.399C199.872 209.399 199.632 209.279 199.273 209.279C196.758 213.35 194.243 217.42 191.489 221.97C195.201 221.132 198.075 220.414 201.548 219.575ZM304.777 272.135V290.692C305.735 290.333 306.813 290.213 306.813 289.974C307.172 283.868 307.532 277.762 307.771 271.297C306.454 271.656 305.616 271.895 304.777 272.135ZM219.751 363.365C220.709 368.872 221.547 374.02 222.505 379.767C225.499 375.577 225.499 375.577 223.224 362.646C222.146 362.886 221.068 363.125 219.751 363.365ZM231.128 386.472C233.643 382.042 232.804 379.887 226.936 375.577C226.098 377.133 225.379 378.809 224.541 380.366C226.697 382.401 228.852 384.317 231.128 386.472ZM274.599 309.968C274.838 309.608 275.198 309.129 275.437 308.77C273.401 306.256 271.246 303.742 269.21 301.228C268.851 301.467 268.491 301.587 268.132 301.826C268.252 304.819 268.372 307.693 268.491 311.165C270.767 310.806 272.683 310.327 274.599 309.968ZM274.958 315.834V311.524C272.803 312.123 270.767 312.602 268.851 313.08C268.731 316.792 268.731 316.792 274.958 315.834ZM304.059 366.597C304.418 366.597 304.658 366.597 305.017 366.597C307.412 361.569 307.053 357.738 304.059 357.259V366.597ZM219.871 361.689C220.589 361.689 221.308 361.808 222.026 361.808C222.266 360.132 222.625 358.456 222.865 356.9L219.392 357.019C219.631 358.576 219.751 360.132 219.871 361.689ZM277.713 385.155C273.761 380.605 269.809 376.175 265.258 370.907C268.252 377.492 273.282 381.084 277.713 385.155ZM261.785 250.943C261.186 255.134 264.539 255.373 266.695 256.81C267.054 253.218 265.138 251.662 261.785 250.943ZM307.412 352.35C306.334 351.153 305.496 350.434 304.777 349.716C304.179 350.554 303.221 351.392 303.221 352.111C303.221 352.949 304.179 353.787 304.777 354.505C305.496 354.026 306.214 353.428 307.412 352.35Z" fill="black"/>
<path d="M256.876 180.305C259.031 182.819 261.546 184.854 262.744 187.368C265.498 193.115 267.893 199.221 270.168 205.207C271.965 210.116 273.282 215.264 275.078 220.173C275.677 221.729 276.635 223.286 277.713 224.723C279.629 227.117 278.671 228.793 276.515 229.99C273.162 232.026 269.689 233.822 265.618 236.216C267.055 231.547 262.264 228.793 263.223 224.004C263.702 221.49 261.306 218.617 260.468 215.743C259.75 213.349 259.151 210.715 259.031 208.201C259.031 203.052 258.432 198.144 254.6 193.594C254.361 194.432 254.121 194.791 254.241 194.911C258.193 201.017 257.474 207.602 256.756 214.306C256.396 217.539 256.636 220.891 256.516 224.124C256.157 233.223 256.037 242.322 255.079 251.301C254.84 253.456 252.085 256.09 249.81 256.928C243.822 259.083 237.475 260.64 231.248 261.957C228.493 262.555 225.619 261.837 222.745 262.077C219.991 262.316 218.434 261.119 217.955 258.485C216.877 252.738 212.806 249.745 207.656 247.829C206.937 247.59 206.099 246.512 205.979 245.674C205.261 239.568 204.782 233.343 204.183 227.117C203.465 220.772 202.746 214.546 202.028 208.201C201.908 207.003 201.788 205.686 201.668 203.89C199.273 207.003 197.118 209.637 195.201 212.511C193.405 215.145 191.968 218.018 190.411 220.772C189.333 222.687 187.777 224.363 189.453 226.758C189.693 227.237 188.974 228.673 188.375 229.152C187.896 229.511 186.819 229.392 186.1 229.152C183.226 228.075 180.472 226.758 177.597 225.68C176.639 225.321 175.562 225.321 174.604 225.082C174.484 225.441 174.364 225.68 174.244 226.039C175.801 226.638 177.238 227.237 178.795 227.716C180.591 228.434 182.627 228.913 184.184 229.99C185.501 230.828 188.256 231.068 187.178 233.822C186.459 235.737 183.106 236.456 180.951 235.498C177.478 234.061 173.885 232.744 170.173 231.427C170.173 229.512 170.173 229.512 172.089 230.23C176.16 231.667 180.232 233.103 184.304 234.3C180.951 230.589 176.16 230.11 171.25 228.554C172.089 226.279 172.328 223.884 173.646 222.208C183.226 209.398 185.98 192.038 199.632 181.502C213.764 208.201 246.696 202.813 256.876 180.305ZM187.537 227.356C185.142 224.004 178.555 221.61 176.16 222.807C180.112 224.483 183.825 225.92 187.537 227.356ZM272.803 228.075C272.683 227.716 272.563 227.476 272.324 227.117C270.408 228.075 268.492 228.913 265.977 230.23C269.57 231.307 271.126 229.511 272.803 228.075Z" fill="white"/>
<path d="M233.762 163.303C231.487 165.698 229.331 168.212 226.936 170.607C222.984 174.438 216.997 175.156 212.087 172.881C205.62 169.888 201.189 164.62 198.195 158.514C194.962 152.049 192.207 145.345 191.249 137.802C190.651 133.372 192.327 130.379 194.962 127.745C197.956 124.632 201.788 122.358 205.021 119.484C207.776 117.09 210.29 114.456 212.686 112.301C216.757 115.174 221.188 118.167 225.38 121.4C229.451 124.632 233.403 128.104 237.834 131.936C235.679 133.013 233.882 133.971 232.685 134.57C229.451 132.893 226.817 130.978 223.943 130.14C219.152 128.943 214.961 132.654 214.602 137.802C214.482 138.88 214.003 139.957 213.644 141.035C211.129 138.76 209.213 136.844 207.177 135.168C204.063 132.774 200.59 132.774 197.357 134.929C194.123 137.084 193.405 140.676 194.004 144.267C194.602 148.937 198.554 152.289 202.746 152.289C208.255 152.289 211.368 149.655 212.326 144.028C212.446 143.549 212.566 142.95 212.805 141.873C213.883 142.471 215.081 142.711 215.44 143.429C216.877 146.662 219.512 148.577 222.865 148.218C226.577 147.859 230.17 145.824 230.649 141.873C231.367 136.365 235.559 135.168 239.391 133.372C240.109 133.013 241.068 133.492 241.906 133.612C242.624 132.893 243.463 131.936 244.301 131.098C245.019 132.175 245.858 133.253 246.457 134.33C247.774 137.084 247.415 139.837 245.498 142.471C242.385 141.992 241.187 143.549 240.948 146.542C240.588 152.409 239.511 158.275 239.511 164.142C239.63 170.487 242.505 174.079 247.415 175.755C249.57 176.473 251.606 177.67 253.402 179.107C254.001 179.586 254.121 181.382 253.762 182.22C249.81 190.002 243.582 194.911 234.96 196.826C226.817 198.622 219.152 198.143 212.087 193.474C207.416 190.481 204.782 185.812 201.069 181.262C207.057 180.185 211.847 177.192 217.835 178.509C217.356 176.114 218.673 175.396 221.068 175.036C227.535 173.959 231.248 169.29 233.762 163.303ZM212.326 160.191L211.727 161.148C213.045 162.465 214.242 164.98 215.56 165.099C219.033 165.459 222.026 163.303 224.182 160.55C225.14 159.233 225.38 157.437 225.859 155.881C225.499 155.761 225.14 155.641 224.901 155.521C221.547 159.113 217.476 161.148 212.326 160.191ZM196.04 132.415C200.351 131.936 203.943 131.576 207.656 131.098C204.901 127.506 199.512 127.027 196.638 130.259C196.04 130.738 196.159 131.936 196.04 132.415ZM227.655 127.985C225.499 125.231 222.865 124.632 218.673 126.189C217.476 126.668 216.757 127.985 215.44 129.062C220.11 128.703 223.823 128.464 227.655 127.985Z" fill="white"/>
<path d="M212.686 331.398C212.207 343.61 212.207 353.547 208.973 363.005C206.698 369.949 203.464 376.534 198.195 381.562C194.124 385.393 188.974 387.309 183.226 387.908C172.328 389.225 158.077 379.407 153.167 368.752C147.299 355.941 146.461 342.652 147.06 329.123C147.539 316.791 150.173 304.819 156.401 294.044C159.514 288.656 163.945 283.867 170.412 281.592C176.998 279.198 182.627 280.994 188.495 283.867C195.92 287.578 200.351 293.924 203.824 300.988C206.458 306.375 208.973 311.763 210.65 317.51C211.967 322.777 212.207 328.285 212.686 331.398ZM183.346 331.158L182.387 331.038C182.387 330.2 182.028 329.123 182.387 328.524C187.297 321.221 192.447 314.038 197.237 306.734C197.836 305.777 197.836 303.622 197.117 302.903C192.327 297.276 186.22 293.325 178.915 291.769C174.005 290.691 173.286 291.17 173.885 295.839C175.202 306.136 176.639 316.432 177.837 326.848C177.957 327.686 177.478 328.644 177.358 329.482C176.879 328.644 176.04 327.926 175.801 326.968C174.484 320.862 173.286 314.756 172.208 308.53C171.49 304.34 171.011 300.269 170.292 296.079C170.172 295.121 169.574 294.163 169.214 293.205C168.376 293.684 167.418 293.924 166.819 294.642C161.43 300.03 158.077 306.495 155.922 313.678C155.083 316.193 155.802 317.749 157.718 319.186C162.508 322.897 167.298 326.728 171.969 330.679C172.568 331.158 172.568 332.595 173.047 334.391C166.34 329.123 160.472 324.573 154.005 319.665C151.491 330.679 153.287 340.856 154.844 351.511C156.281 350.793 157.359 350.434 158.436 349.835C162.508 347.56 166.46 345.166 170.532 342.891C171.13 342.532 172.208 342.891 173.047 342.891C167.658 347.441 162.388 351.152 157.119 355.103C156.52 355.582 156.041 357.019 156.401 357.617C157.957 360.97 159.514 364.322 161.79 367.195C163.945 370.188 166.819 372.703 169.454 375.217C169.933 375.696 172.208 375.337 172.208 374.977C172.687 372.703 172.807 370.428 173.166 368.153C174.244 361.329 175.322 354.504 176.4 347.68C176.519 347.082 177.358 346.603 177.957 346.124C178.316 346.722 178.915 347.441 178.795 348.039C177.837 357.976 176.879 367.914 175.921 377.851C187.537 379.527 195.561 377.372 201.908 366.118C195.68 358.695 189.333 351.392 182.986 343.969C183.226 343.729 183.585 343.49 183.825 343.131C190.291 349.237 196.758 355.343 203.584 361.808C208.973 353.068 205.62 344.088 207.177 334.87C199.632 335.708 192.447 336.426 185.262 337.144C185.262 336.905 185.142 336.665 185.142 336.426C192.207 334.87 199.393 333.433 206.698 331.877C205.021 323.735 204.422 315.714 200.71 307.932C194.842 315.953 189.094 323.496 183.346 331.158Z" fill="white"/>
<path d="M218.314 264.233C221.188 264.233 223.224 264.472 225.26 264.233C232.565 263.155 239.87 262.198 247.055 260.521C250.049 259.803 252.684 257.409 255.438 255.732C256.516 264.712 264.18 268.423 270.887 272.853C278.072 277.522 285.257 282.072 292.562 286.741C293.64 287.46 294.598 288.417 296.035 289.734C288.251 293.925 280.946 298.115 275.916 304.82C273.881 303.263 271.845 301.826 270.048 300.15C268.971 299.193 267.534 297.756 267.653 296.559C267.773 292.967 265.498 290.932 263.103 289.136C258.312 285.544 253.283 282.192 248.373 278.72C249.211 277.642 250.169 276.565 250.888 275.248C251.247 274.649 251.127 273.691 251.127 272.973C250.528 273.332 249.69 273.571 249.211 274.05C248.133 275.248 247.295 276.684 246.217 278.001C244.421 276.684 242.864 275.607 241.307 274.529C241.068 274.769 240.828 275.008 240.589 275.128C241.547 276.205 242.265 277.522 243.343 278.36C249.211 282.311 255.079 286.143 260.947 290.093C262.145 290.932 263.103 292.009 264.3 293.087C256.636 296.559 249.69 300.629 244.78 307.693C240.229 305.179 235.679 302.665 231.128 300.27C230.409 299.911 229.691 299.312 228.853 298.953C225.02 297.277 222.865 295.002 223.224 290.213C223.583 285.664 222.985 281.114 222.386 276.565C222.146 274.649 220.829 272.853 220.11 270.937C219.512 269.142 219.033 266.987 218.314 264.233Z" fill="white"/>
<path d="M253.403 176.475C250.768 175.277 248.253 174.32 245.978 173.122C242.385 171.326 241.307 167.854 241.307 164.382C241.427 157.678 242.026 150.973 242.505 144.388C247.774 144.388 249.211 141.276 248.612 137.325C247.894 133.493 247.894 129.183 242.505 128.345C241.547 128.226 240.828 126.43 240.11 125.352C236.996 120.443 233.284 116.133 228.134 113.021C227.176 112.542 226.218 112.182 224.901 112.302C231.487 116.971 236.637 122.718 240.948 130.261C234.242 128.585 231.487 122.479 226.338 119.605C221.188 116.732 216.757 112.661 211.847 109.07C209.812 115.056 204.423 118.049 199.513 121.641C196.279 124.035 193.525 126.909 189.932 130.261C192.088 126.669 193.645 123.437 195.92 120.803C198.315 118.169 201.548 116.133 204.542 113.739C197.716 112.661 184.184 129.423 187.777 143.431C188.495 141.395 188.854 140.078 189.453 138.522C193.405 154.206 197.117 169.77 213.764 175.876C208.734 177.552 202.506 178.63 197.597 181.623C193.525 184.137 190.651 188.686 187.777 192.757C185.262 196.349 183.465 200.539 181.43 204.49C180.831 205.568 180.352 206.525 179.753 207.603C179.394 207.603 179.154 207.603 178.795 207.603C178.436 206.166 177.957 204.73 177.717 203.173C176.879 198.863 176.999 194.553 178.675 190.363C180.951 184.736 181.669 178.749 180.471 172.763C179.034 166.178 180.831 160.072 182.148 153.847C183.585 147.262 184.902 140.557 185.022 133.972C185.621 113.739 200.471 104.999 216.039 104.52C223.344 104.281 229.93 105.837 236.397 109.07C244.181 113.021 247.415 119.725 249.091 127.627C250.289 132.895 250.888 138.282 252.564 143.311C255.438 152.051 255.319 160.791 254.241 169.77C254.001 172.045 253.762 174.2 253.403 176.475ZM190.291 155.044C189.932 154.924 189.693 154.924 189.333 154.804C189.094 155.762 188.854 156.72 188.615 157.798C187.896 162.587 187.537 167.615 186.22 172.284C184.902 176.953 184.064 181.503 184.663 186.292C184.783 186.891 185.501 187.369 185.98 187.968C186.34 187.369 186.938 186.651 186.819 186.172C185.501 181.383 187.058 176.953 188.615 172.524C190.651 166.777 191.369 161.03 190.291 155.044ZM247.894 147.741C247.774 147.621 247.654 147.621 247.535 147.501C247.295 148.22 246.816 148.818 246.696 149.656C246.217 152.53 245.738 155.403 245.499 158.396C245.259 160.671 245.379 162.946 245.618 165.22C245.858 166.537 246.696 167.735 247.295 169.052C247.535 167.735 247.894 166.418 247.894 165.101C248.014 159.354 247.894 153.487 247.894 147.741ZM234.122 113.021C238.313 118.049 241.786 122.479 245.379 126.789C245.738 122.958 239.75 115.176 234.122 113.021ZM192.687 179.587C193.166 179.587 193.645 179.587 194.004 179.587C194.483 174.798 197.956 170.249 194.722 164.742C194.124 170.009 193.405 174.798 192.687 179.587Z" fill="white"/>
<path d="M263.941 369.83C260.348 371.865 256.995 372.344 253.882 368.992C253.403 368.513 252.444 368.154 251.726 368.274C247.774 368.513 247.535 365.759 247.415 363.126C246.696 347.442 246.576 331.638 245.259 315.954C244.78 309.609 248.014 306.256 251.846 303.024C255.558 299.791 260.109 297.516 265.258 294.164C265.857 298.833 266.815 302.425 266.815 306.017C266.815 313.559 266.576 321.102 266.216 328.645C265.857 339.42 265.258 350.315 264.779 361.09C264.66 364.083 264.18 366.957 263.941 369.83Z" fill="white"/>
<path d="M294.239 365.879C288.73 365.999 284.299 370.907 279.269 365.879C279.03 366.118 278.91 366.477 278.671 366.717C278.671 364.442 278.671 362.287 278.671 360.012C278.79 344.209 279.269 328.405 276.874 312.841C276.156 307.932 277.353 304.7 280.826 302.066C285.138 298.833 289.688 296.079 294.239 293.086C294.957 292.607 296.035 292.727 296.993 292.607C299.149 317.51 294.359 341.455 294.239 365.879Z" fill="white"/>
<path d="M208.973 274.05C208.973 269.979 208.734 265.789 205.979 262.197C203.105 258.366 199.034 258.845 195.082 258.366C187.178 257.528 179.154 257.169 171.49 255.612C165.263 254.415 164.424 252.14 165.742 245.795C166.34 242.802 167.298 239.928 167.658 236.935C168.017 233.463 170.412 233.583 172.448 234.181C175.322 235.019 178.076 236.456 180.831 237.893C181.429 238.132 181.909 239.33 181.789 239.808C181.549 240.527 180.591 241.245 179.873 241.365C177.597 241.604 175.322 241.485 173.166 241.485C173.166 241.844 173.166 242.203 173.166 242.562C176.879 243.041 180.471 243.52 184.184 243.879C193.285 245.076 202.027 247.83 210.41 251.422C216.039 253.816 219.631 262.556 216.278 270.099C215.919 265.908 216.159 261.598 212.686 258.126C215.201 273.451 218.673 288.297 216.757 303.622C216.278 303.622 215.919 303.741 215.44 303.741C214.961 300.868 214.362 297.995 214.003 295.001C213.284 290.093 212.446 285.064 211.847 280.156C211.608 277.282 211.249 274.289 212.686 271.416C214.123 268.423 211.608 262.436 208.135 260.521C211.967 266.268 211.368 271.775 209.333 277.402C201.429 275.606 193.285 273.69 185.142 271.775C185.142 271.535 185.262 271.296 185.262 270.937C192.806 271.895 200.59 272.972 208.973 274.05Z" fill="white"/>
<path d="M311.963 259.922C311.364 263.394 307.173 265.669 304.179 264.232C293.521 259.084 282.743 254.055 271.965 248.907C268.372 247.231 264.899 245.555 261.307 243.879C263.702 240.287 266.097 240.167 269.809 242.083C276.875 245.555 284.18 248.428 291.365 251.421C292.922 252.02 294.479 252.499 296.036 252.978C299.987 254.415 303.221 256.57 303.221 261.478C303.221 261.837 303.341 262.077 303.58 262.316C303.7 262.436 303.939 262.556 304.179 262.556C305.736 259.802 304.778 255.253 302.023 254.055C296.515 251.661 291.006 249.506 285.497 247.111C281.545 245.435 277.473 243.998 273.641 242.083C271.486 241.005 269.689 239.09 266.935 237.054C270.767 234.899 274.12 232.864 277.593 231.188C278.312 230.829 279.749 231.308 280.587 231.787C286.335 234.42 291.964 237.054 297.712 239.808C301.664 241.724 305.496 243.998 309.448 245.914C313.52 247.949 313.759 251.421 313.28 255.253C313.161 256.689 313.16 258.246 313.041 259.802L313.161 259.682C312.801 260.042 312.322 260.042 311.963 259.922C311.604 257.168 312.681 253.816 309.568 251.302C309.807 254.893 310.047 258.006 310.286 261.359C311.005 260.88 311.484 260.401 311.963 259.922ZM306.574 263.035C309.448 260.401 309.089 255.731 305.855 253.098C306.095 256.33 306.334 259.682 306.574 263.035Z" fill="white"/>
<path d="M262.623 256.57C276.156 263.395 289.329 269.979 302.262 276.445V299.911C298.311 299.073 298.909 295.96 299.029 293.805C299.149 288.896 295.915 286.502 292.682 284.227C284.778 278.959 276.755 273.811 268.491 269.022C263.701 266.388 261.665 262.676 262.623 256.57Z" fill="white"/>
<path d="M212.686 303.023C209.093 303.143 206.458 302.185 204.902 298.833C200.111 288.297 191.968 281.712 180.831 279.198C177.837 278.48 174.604 279.079 171.37 279.079C171.011 275.966 170.652 272.853 170.173 269.381C183.705 272.973 196.519 276.325 209.812 279.797C210.65 287.22 211.608 294.882 212.686 303.023Z" fill="white"/>
<path d="M265.617 382.998C268.132 383.956 269.21 379.047 271.725 382.4C270.887 383.477 270.048 384.675 269.21 385.752C269.45 385.992 269.689 386.231 269.809 386.47C270.887 385.752 271.965 385.034 273.521 383.956C276.515 386.949 279.749 389.823 282.623 393.055C283.461 394.013 284.299 396.048 283.82 397.006C283.341 397.964 281.186 398.922 279.988 398.802C277.114 398.323 274.24 397.365 271.725 396.048C263.462 391.619 256.277 385.632 250.289 378.449C248.852 376.653 248.852 373.66 248.492 371.146C248.492 370.787 250.409 369.709 250.888 369.948C253.402 371.265 255.678 372.942 257.953 374.498C258.432 374.857 258.911 375.216 258.791 375.097C260.348 373.899 261.905 371.984 262.504 372.223C264.061 372.822 265.019 374.498 266.456 375.935C264.899 377.371 263.821 378.449 262.743 379.407C262.863 379.526 262.983 379.766 262.983 379.886C264.659 379.407 266.336 378.928 268.013 378.449L268.252 379.287C267.534 380.484 266.576 381.681 265.617 382.998Z" fill="white"/>
<path d="M258.073 388.507C252.444 389.585 247.774 391.021 242.984 391.141C240.229 391.261 237.355 389.345 234.601 388.148C234.241 388.028 233.762 386.951 233.882 386.472C236.517 380.366 232.325 377.253 228.373 374.02C228.014 373.781 227.655 373.541 226.817 372.823C232.445 368.274 239.391 368.872 246.217 366.238C244.66 376.535 250.408 382.641 258.073 388.507Z" fill="white"/>
<path d="M289.329 373.42C288.491 371.744 288.012 370.786 287.293 369.23C289.329 368.871 291.485 367.674 292.802 368.272C294.239 368.991 294.838 371.385 295.796 372.942C294.479 374.019 293.281 374.977 292.083 375.935C292.203 376.174 292.443 376.533 292.563 376.773C294.119 375.935 295.676 375.097 297.353 374.139C301.305 377.371 305.376 380.484 309.089 384.076C310.406 385.393 311.484 388.147 310.885 389.583C309.927 391.978 306.933 391.978 304.897 390.9C298.191 387.548 291.724 383.836 285.257 380.245C284.18 379.646 283.222 378.569 282.024 377.97C278.551 376.294 278.551 373.181 278.91 370.188C279.03 369.589 280.946 368.631 281.665 368.991C283.94 370.188 286.096 371.625 289.329 373.42Z" fill="white"/>
<path d="M217.117 270.816C220.11 273.57 220.709 276.803 220.829 279.915C221.188 292.247 221.428 304.459 221.667 316.791C221.787 324.094 222.027 331.397 222.266 338.7C222.506 343.609 222.865 348.398 223.104 353.187C221.308 353.905 219.991 354.384 218.554 354.863C218.194 342.412 217.835 330.08 217.236 317.629C217.117 315.114 216.518 313.079 213.284 312.481C209.213 311.642 209.572 307.452 207.536 304.22C210.291 304.818 212.446 305.177 214.482 305.896C217.236 306.734 218.434 305.297 218.434 303.142C218.554 296.437 218.314 289.613 218.075 282.909C218.075 279.077 217.476 275.366 217.117 270.816Z" fill="white"/>
<path d="M203.704 246.273C196.638 244.716 189.932 243.16 182.747 241.484C184.423 239.688 185.74 237.892 187.297 236.455C189.094 234.779 191.369 227.715 190.531 225.321C190.411 224.962 190.411 224.483 190.171 223.764C193.884 223.046 197.476 222.328 201.309 221.609C202.147 229.99 202.985 238.012 203.704 246.273Z" fill="white"/>
<path d="M168.615 257.408C175.202 258.246 181.669 258.845 187.776 260.042C193.644 261.239 199.393 262.916 204.901 265.071C206.338 265.549 206.698 268.782 207.536 270.698C207.177 271.176 206.937 271.536 206.578 272.015C197.357 270.219 188.016 268.782 178.914 266.627C175.681 265.909 172.687 263.754 169.693 261.958C167.777 260.76 167.298 258.965 168.615 257.408Z" fill="white"/>
<path d="M303.939 292.486H307.652V348.637C304.179 348.757 303.82 346.841 303.939 344.327C303.939 327.925 303.939 311.523 303.939 295.12C303.7 294.282 303.82 293.564 303.939 292.486Z" fill="white"/>
<path d="M243.942 313.558C237.235 314.157 231.367 315.594 225.619 312.96C224.781 312.601 223.823 311.523 223.703 310.685C223.464 306.734 223.583 302.903 223.583 298.354C229.691 301.945 235.559 305.298 241.307 308.889C242.385 309.608 242.864 311.523 243.942 313.558Z" fill="white"/>
<path d="M210.77 142.831C210.77 147.62 207.536 150.852 202.746 150.733C198.435 150.733 195.321 147.5 195.201 142.951C195.201 138.042 197.836 134.809 202.147 134.929C206.339 135.168 210.77 139.239 210.77 142.831ZM197.956 143.669C200.59 140.676 203.345 139.479 207.297 142.352C206.698 138.64 204.902 138.281 202.746 138.281C199.513 138.281 198.076 139.838 197.956 143.669Z" fill="white"/>
<path d="M291.604 386.83C285.976 389.703 282.024 387.428 278.551 383.597C275.437 380.125 271.965 376.893 269.09 373.181C266.336 369.589 266.695 368.751 270.887 366.596C272.563 365.758 274.24 365.16 276.395 364.082C276.395 366.117 276.635 367.793 276.395 369.47C275.198 375.456 278.671 378.808 283.222 381.562C285.976 383.118 288.73 384.914 291.604 386.83Z" fill="white"/>
<path d="M259.989 245.195C267.653 248.787 274.719 252.139 281.665 255.372C287.533 258.126 293.401 260.999 299.389 263.872C303.7 265.908 307.891 268.542 312.322 263.274C312.442 267.584 308.131 270.457 303.82 269.38C301.185 268.781 298.55 267.704 296.155 266.506C286.695 261.717 277.354 256.689 268.013 251.78C265.737 250.583 263.462 249.625 261.306 248.308C260.708 247.829 260.588 246.512 259.989 245.195Z" fill="white"/>
<path d="M222.266 131.817C228.014 132.177 230.409 134.451 230.05 139.121C229.691 143.071 225.26 146.903 221.667 146.783C219.392 146.663 215.44 142.353 215.799 139.24C216.159 135.289 219.152 131.698 222.266 131.817ZM218.913 140.318C221.548 137.804 224.422 137.085 227.895 138.043C226.458 136.726 224.781 135.649 223.344 135.649C220.949 135.768 219.272 137.205 218.913 140.318Z" fill="white"/>
<path d="M303.221 271.896C302.981 272.734 302.742 273.691 302.383 274.769C295.557 271.177 288.97 267.705 282.264 264.233C278.911 262.557 275.438 260.881 271.965 259.325C269.689 258.247 268.013 257.05 269.33 254.057C280.587 260.043 291.724 265.909 303.221 271.896Z" fill="white"/>
<path d="M223.943 314.158C230.29 317.151 236.517 315.954 242.864 315.475C243.822 318.947 243.583 319.426 240.229 319.426C236.158 319.426 231.966 319.426 227.895 319.426C223.823 319.426 223.344 318.828 223.943 314.158Z" fill="white"/>
<path d="M298.071 364.441C301.065 366.596 303.7 368.273 306.215 370.068C308.849 371.984 308.729 374.618 307.292 377.97C304.059 373.54 296.634 372.702 298.071 364.441Z" fill="white"/>
<path d="M304.778 272.135C305.616 271.895 306.574 271.656 307.771 271.297C307.412 277.762 307.173 283.868 306.813 289.974C306.813 290.213 305.736 290.453 304.778 290.692V272.135Z" fill="white"/>
<path d="M219.751 363.365C221.069 363.125 222.146 362.886 223.224 362.646C225.5 375.577 225.5 375.577 222.506 379.767C221.428 374.02 220.59 368.872 219.751 363.365Z" fill="white"/>
<path d="M231.128 386.471C228.853 384.316 226.697 382.281 224.661 380.365C225.5 378.809 226.218 377.133 227.056 375.576C232.805 379.886 233.643 382.041 231.128 386.471Z" fill="white"/>
<path d="M274.599 309.968C272.683 310.327 270.767 310.806 268.492 311.285C268.372 307.932 268.252 304.939 268.133 301.946C268.492 301.707 268.851 301.587 269.21 301.348C271.246 303.862 273.402 306.376 275.438 308.89C275.078 309.13 274.839 309.609 274.599 309.968Z" fill="white"/>
<path d="M274.958 315.834C268.731 316.791 268.731 316.791 268.851 313.08C270.767 312.601 272.683 312.122 274.958 311.523V315.834Z" fill="white"/>
<path d="M304.059 366.597V357.139C307.053 357.737 307.412 361.449 305.017 366.477C304.658 366.597 304.418 366.597 304.059 366.597Z" fill="white"/>
<path d="M219.871 361.687C219.751 360.131 219.511 358.575 219.392 357.018L222.865 356.898C222.625 358.575 222.266 360.251 222.026 361.807C221.308 361.687 220.589 361.687 219.871 361.687Z" fill="white"/>
<path d="M261.785 250.943C265.139 251.662 267.055 253.218 266.695 256.81C264.54 255.253 261.187 255.134 261.785 250.943Z" fill="white"/>
<path d="M307.412 352.35C306.215 353.308 305.496 354.026 304.778 354.625C304.179 353.787 303.221 352.949 303.221 352.23C303.221 351.392 304.179 350.554 304.778 349.836C305.496 350.435 306.215 351.273 307.412 352.35Z" fill="white"/>
<path d="M187.537 227.357C183.825 225.92 180.112 224.363 176.16 222.807C178.555 221.61 185.142 224.004 187.537 227.357Z" fill="black"/>
<path d="M272.803 228.075C271.126 229.512 269.569 231.308 265.977 230.23C268.611 228.913 270.408 228.075 272.324 227.117C272.563 227.476 272.683 227.836 272.803 228.075Z" fill="black"/>
<path d="M212.326 160.191C217.595 161.149 221.547 159.114 225.02 155.402C225.38 155.522 225.619 155.642 225.978 155.762C225.38 157.318 225.26 159.114 224.302 160.431C222.146 163.184 219.272 165.22 215.679 164.98C214.242 164.861 213.045 162.466 211.847 161.029L212.326 160.191ZM214.961 162.346C217.116 164.98 219.991 164.023 222.745 159.712C220.23 160.55 217.595 161.508 214.961 162.346Z" fill="black"/>
<path d="M196.039 132.415C196.159 132.056 196.039 130.739 196.518 130.26C199.512 127.147 204.782 127.506 207.536 131.098C203.943 131.457 200.351 131.936 196.039 132.415Z" fill="black"/>
<path d="M227.655 127.985C223.703 128.345 220.111 128.704 215.56 129.183C216.757 127.985 217.596 126.669 218.793 126.309C222.865 124.633 225.619 125.232 227.655 127.985Z" fill="black"/>
<path d="M183.345 331.159C189.094 323.497 194.842 315.834 200.949 307.693C204.662 315.355 205.38 323.497 206.937 331.638C199.632 333.194 192.567 334.631 185.381 336.187C185.381 336.427 185.501 336.666 185.501 336.906C192.686 336.187 199.872 335.349 207.416 334.631C205.74 343.85 209.213 352.949 203.824 361.569C196.998 355.104 190.531 348.998 184.064 342.892C183.824 343.131 183.465 343.371 183.226 343.73C189.573 351.153 195.8 358.576 202.147 365.879C195.92 377.133 187.776 379.408 176.16 377.612C177.118 367.675 178.076 357.738 179.034 347.801C179.034 347.202 178.435 346.484 178.196 345.885C177.717 346.364 176.759 346.843 176.639 347.442C175.442 354.266 174.364 361.09 173.406 367.914C173.046 370.189 172.927 372.584 172.448 374.739C172.328 375.098 170.172 375.457 169.693 374.978C166.939 372.464 164.185 369.95 162.029 366.957C159.873 364.083 158.317 360.611 156.64 357.379C156.4 356.78 156.879 355.224 157.358 354.864C162.628 351.033 167.897 347.202 173.286 342.653C172.448 342.653 171.37 342.293 170.771 342.653C166.699 344.927 162.747 347.322 158.676 349.597C157.718 350.195 156.52 350.554 155.083 351.273C153.407 340.617 151.73 330.441 154.245 319.426C160.592 324.335 166.46 328.884 173.286 334.152C172.807 332.356 172.807 331.039 172.208 330.441C167.538 326.49 162.747 322.658 157.957 318.947C156.041 317.391 155.323 315.954 156.161 313.44C158.436 306.256 161.789 299.791 167.059 294.403C167.657 293.805 168.615 293.446 169.454 292.967C169.813 293.925 170.292 294.882 170.532 295.84C171.25 300.031 171.729 304.101 172.448 308.292C173.525 314.397 174.723 320.623 176.04 326.729C176.28 327.687 176.998 328.405 177.597 329.243C177.837 328.405 178.196 327.447 178.076 326.609C176.759 316.313 175.322 306.017 174.124 295.601C173.525 290.931 174.244 290.453 179.154 291.53C186.579 293.206 192.567 297.037 197.357 302.664C198.075 303.503 198.075 305.538 197.477 306.496C192.567 313.799 187.537 320.982 182.627 328.286C182.268 328.884 182.627 329.962 182.627 330.8L183.345 331.159ZM181.669 344.568C181.31 346.603 180.831 348.28 180.591 349.956C180.232 352.829 179.872 355.703 179.633 358.576C179.034 363.844 178.435 369.112 177.956 374.499C177.837 375.337 178.555 376.774 179.154 376.894C185.86 378.809 196.758 373.781 199.632 367.436C199.872 366.837 199.872 365.64 199.393 365.161C193.644 358.336 187.896 351.752 181.669 344.568ZM180.471 328.884C185.86 321.102 191.01 313.799 196.159 306.376C196.638 305.777 196.399 304.101 195.92 303.503C190.411 297.636 183.705 293.925 175.202 292.608C176.879 304.7 178.675 316.433 180.471 328.884ZM168.735 294.882C167.538 296.558 166.46 297.636 165.741 298.833C162.987 303.503 160.233 308.292 157.718 313.081C157.119 314.158 156.999 316.313 157.718 316.912C163.107 321.581 168.735 325.891 175.082 330.919C172.927 318.588 170.891 306.975 168.735 294.882ZM155.203 322.06C154.484 331.638 154.604 340.378 156.4 349.716C160.951 346.843 165.023 344.329 169.214 341.814C173.406 339.42 173.645 336.187 169.693 333.314C168.735 332.596 167.777 331.758 166.819 331.039C163.107 328.166 159.514 325.412 155.203 322.06ZM205.74 336.786C199.273 337.385 193.405 337.983 187.657 338.582C187.178 338.582 186.818 338.821 186.459 338.941C184.902 339.659 184.184 340.497 185.86 342.054C189.812 345.646 193.644 349.477 197.477 353.188C199.512 355.104 201.548 356.9 203.824 359.055C206.817 351.512 205.5 344.329 205.74 336.786ZM176.04 343.73C169.693 348.28 163.945 352.23 158.197 356.301C160.712 363.245 164.185 369.351 170.771 373.901C172.567 363.963 174.244 354.386 176.04 343.73ZM200.949 310.686C195.321 317.869 190.171 324.694 184.902 331.518C184.423 332.117 184.543 333.194 184.782 333.913C184.902 334.152 185.98 334.392 186.579 334.272C192.686 333.075 198.914 331.638 205.5 330.321C203.943 323.856 202.506 317.51 200.949 310.686ZM172.807 336.666L173.406 336.906C173.406 337.504 173.166 338.103 173.406 338.582C173.885 339.659 174.723 340.617 175.322 341.695C176.28 340.857 177.238 340.019 178.196 339.18C178.435 338.941 178.435 338.342 178.555 337.983C179.274 336.187 179.872 334.272 177.837 332.835C177.118 332.356 175.442 331.877 175.322 332.117C174.364 333.553 173.645 335.11 172.807 336.666ZM179.633 331.279C181.549 336.187 180.352 340.138 176.28 343.85C179.633 343.73 182.028 343.251 182.986 340.258C184.184 336.666 183.226 333.673 179.633 331.279Z" fill="black"/>
<path d="M190.291 155.044C191.369 161.03 190.65 166.777 188.734 172.524C187.178 176.954 185.621 181.384 186.938 186.173C187.058 186.651 186.339 187.37 186.1 187.968C185.621 187.37 184.782 186.891 184.782 186.292C184.184 181.503 185.022 176.954 186.339 172.284C187.657 167.615 187.896 162.707 188.734 157.798C188.854 156.84 189.213 155.882 189.453 154.805C189.692 154.924 189.932 154.924 190.291 155.044Z" fill="black"/>
<path d="M247.894 147.74C247.894 153.487 247.894 159.234 247.894 164.98C247.894 166.297 247.534 167.614 247.295 168.931C246.696 167.614 245.738 166.417 245.618 165.1C245.259 162.825 245.259 160.551 245.499 158.276C245.738 155.402 246.217 152.529 246.696 149.536C246.816 148.818 247.295 148.099 247.534 147.381C247.654 147.62 247.774 147.74 247.894 147.74Z" fill="black"/>
<path d="M234.122 113.02C239.75 115.055 245.738 122.837 245.379 126.788C241.786 122.478 238.313 118.168 234.122 113.02Z" fill="black"/>
<path d="M192.686 179.586C193.405 174.797 194.004 170.008 194.842 164.74C197.956 170.248 194.603 174.797 194.123 179.586C193.644 179.586 193.165 179.586 192.686 179.586Z" fill="black"/>
<path d="M306.574 263.035C306.334 259.682 306.095 256.33 305.855 253.098C309.089 255.732 309.448 260.401 306.574 263.035Z" fill="black"/>
<path d="M311.963 259.923C311.484 260.402 310.885 260.881 310.286 261.36C310.047 258.007 309.807 254.894 309.568 251.303C312.682 253.937 311.723 257.169 311.963 259.923C311.843 260.043 311.963 259.923 311.963 259.923Z" fill="black"/>
<path d="M197.956 143.669C197.956 139.838 199.512 138.281 202.866 138.281C204.901 138.281 206.817 138.64 207.416 142.352C203.464 139.478 200.59 140.676 197.956 143.669Z" fill="black"/>
<path d="M218.913 140.318C219.272 137.325 220.949 135.768 223.344 135.648C224.901 135.648 226.457 136.726 227.895 138.043C224.422 136.965 221.547 137.803 218.913 140.318Z" fill="black"/>
<path d="M214.961 162.347C217.596 161.509 220.35 160.551 222.745 159.713C219.871 164.023 216.997 164.981 214.961 162.347Z" fill="white"/>
<path d="M172.807 336.666C173.645 335.11 174.244 333.553 175.322 332.116C175.442 331.877 177.118 332.356 177.837 332.835C179.873 334.272 179.274 336.067 178.555 337.983C178.436 338.342 178.436 338.941 178.196 339.18C177.358 340.018 176.28 340.856 175.322 341.695C174.723 340.617 174.005 339.659 173.406 338.582C173.166 338.103 173.406 337.504 173.406 336.905L172.807 336.666Z" fill="white"/>
<path d="M179.633 331.277C183.106 333.672 184.064 336.665 182.986 340.257C182.028 343.25 179.633 343.609 176.28 343.848C180.472 340.137 181.549 336.186 179.633 331.277Z" fill="white"/>
<path d="M214.722 150.854C213.883 150.854 213.285 151.452 213.285 152.29C213.285 153.128 213.883 153.727 214.722 153.727" stroke="black" stroke-width="0.5" stroke-miterlimit="10"/>
</g>
<defs>
<clipPath id="clip0_703_8508">
<rect width="330.166" height="400" fill="white"/>
</clipPath>
</defs>
</svg>
