<svg width="319" height="400" viewBox="0 0 319 400" fill="none" xmlns="http://www.w3.org/2000/svg">
<g clip-path="url(#clip0_703_8571)">
<path fill-rule="evenodd" clip-rule="evenodd" d="M185.064 232.515C156.415 224.545 137.701 235.865 126.033 268.669C115.521 298.007 82.3664 309.789 50.1361 302.512C18.9455 295.466 0.693241 272.365 0.000116646 239.099C-0.693007 205.371 15.5954 182.501 46.9015 173.145C80.287 163.211 83.406 158.36 85.1389 120.82C87.3337 71.4986 107.088 31.3022 153.758 11.0885C197.309 -7.85463 240.168 -3.46537 277.134 29.1076C316.642 63.8751 328.772 113.89 309.827 159.746C289.148 209.76 246.752 235.287 185.064 232.515Z" fill="#BDBE64"/>
<path d="M287.184 219.463C287.877 219.116 288.917 218.539 290.534 217.615C288.686 214.958 286.838 212.301 284.874 209.529C286.029 208.836 286.953 208.143 288.108 207.335C287.184 205.487 287.877 204.101 289.957 203.985C292.152 203.87 294.578 203.87 296.541 204.563C301.047 206.064 304.859 208.259 306.823 213.226C308.325 216.922 311.097 220.156 312.83 223.737C313.523 225.007 313.638 227.202 313.061 228.472C311.559 231.476 308.902 233.555 305.552 234.248C302.202 234.941 300.123 233.439 298.736 230.205C298.043 228.588 296.772 227.202 295.617 225.7C292.614 227.664 289.61 229.628 286.607 231.591C286.491 231.707 286.26 231.822 286.26 231.938C285.567 235.749 281.87 235.403 279.56 236.904C278.405 237.597 277.134 238.406 275.748 238.868C272.629 239.908 269.625 240.832 266.391 241.756C263.618 242.449 262.925 240.023 261.885 238.291C261.077 236.904 260.961 235.518 262.694 234.479C264.542 233.324 266.391 232.053 268.008 231.014C267.777 229.165 267.661 227.433 267.315 225.931C267.084 225.007 266.737 224.083 266.16 223.39C263.156 220.387 260.152 217.499 256.918 214.727C251.142 209.645 247.099 203.523 244.673 196.246C243.748 193.705 241.669 191.51 239.821 189.2C238.781 187.93 238.319 185.85 235.893 186.312C235.431 186.428 234.738 185.504 233.814 184.811C233.005 190.124 230.464 195.207 233.005 200.52C233.929 202.368 235.315 203.985 236.586 205.718C239.705 209.876 243.171 213.919 246.059 218.308C249.062 222.928 250.68 228.126 250.68 233.786C250.68 241.871 250.795 250.072 250.564 258.158C250.102 272.134 247.792 285.995 244.788 299.625C242.824 308.75 241.207 317.875 239.474 327C238.781 330.58 237.857 334.046 237.51 337.626C237.164 340.283 235.778 341.554 233.467 342.131C231.157 342.709 230.579 343.979 231.503 346.174C231.85 346.982 231.734 348.022 231.619 348.946C231.272 352.065 230.233 355.414 230.81 358.302C231.388 360.959 233.698 363.384 235.431 365.694C237.048 367.889 239.243 369.737 240.745 371.932C246.059 379.324 243.402 389.142 233.352 390.413C226.998 391.221 221.106 389.489 216.139 385.677C211.749 382.212 207.937 378.054 204.009 374.358C205.28 377.361 206.666 380.71 208.399 383.945C209.785 386.601 210.132 389.142 209.901 392.03C209.67 395.957 207.359 397.805 203.894 398.96C196.269 401.502 190.147 399.654 185.064 393.416C181.945 389.604 178.71 385.908 175.822 381.981C174.552 380.248 173.627 377.938 173.396 375.744C172.588 369.16 172.126 362.576 171.779 355.992C171.664 354.837 172.588 353.566 172.819 352.296C173.05 351.141 172.819 349.986 172.819 348.946C167.505 347.444 167.62 347.329 166.927 342.362C165.772 334.277 164.386 326.191 163 318.221C160.227 301.473 154.682 285.417 150.292 269.131C148.213 261.392 146.018 253.653 144.054 245.798C142.09 237.829 143.592 230.321 147.058 223.044C147.173 222.813 147.173 222.582 147.289 222.466C143.477 218.885 139.549 215.651 136.199 211.839C130.307 205.14 129.036 197.401 131.693 188.854C133.08 184.464 134.004 179.844 135.275 175.339C135.275 175.224 135.39 175.108 135.39 175.108C133.426 168.409 138.394 163.789 140.473 158.36C142.552 152.7 145.787 147.387 150.408 143.228C156.415 137.8 163.693 135.027 171.317 132.948C175.129 131.909 179.057 131.1 182.754 129.945C187.028 128.559 187.952 126.942 187.028 122.553C184.717 123.361 182.869 122.784 181.136 121.051C180.328 120.243 179.172 119.896 178.133 119.434C177.902 119.319 177.555 119.434 177.324 119.319C173.627 117.239 169.931 115.045 166.234 112.85C165.079 112.157 164.155 111.349 163.115 110.54C162.653 110.193 161.96 109.847 161.729 109.385C160.227 105.92 157.57 103.379 156.184 99.6824C154.682 95.7552 154.104 91.5969 153.065 87.6697C152.372 85.1285 152.603 82.3564 152.949 79.6997C153.527 75.5415 154.682 71.3832 155.491 67.225C155.606 66.8785 155.491 66.4164 155.722 66.1854C158.379 62.9512 158.494 58.331 162.422 55.7898C165.31 53.8262 167.62 50.9385 170.277 48.6284C170.855 48.0508 171.779 47.8198 172.588 47.4733C174.09 46.7803 175.476 46.0872 176.978 45.2787C177.324 45.0477 177.671 44.7012 178.133 44.5856C181.598 43.5461 185.064 42.5065 188.53 41.467C188.992 41.3515 189.454 41.3515 189.8 41.1204C193.266 38.6948 197.425 39.0413 201.006 39.6189C205.049 40.1964 209.439 39.3878 213.136 42.16C213.944 42.7375 215.33 42.5065 216.486 42.853C219.72 44.0081 223.532 44.5856 226.074 46.6648C229.193 49.3214 233.236 50.9385 235.084 55.4433C236.702 59.486 239.821 62.9512 242.247 66.6474C242.478 67.1095 242.709 67.5715 242.824 68.0335C243.402 70.8057 243.055 73.8089 245.25 76.119C245.712 76.581 245.366 77.8516 245.481 78.6601C245.712 80.3927 245.943 82.0098 246.174 83.7424C246.29 84.6665 246.752 85.7061 246.521 86.5146C245.366 89.8643 245.366 93.0985 246.059 96.4482C246.29 97.7188 245.481 99.1048 245.25 100.491C245.25 100.606 245.135 100.606 245.135 100.722C245.135 107.652 239.243 111.002 235.662 115.738C234.738 116.893 233.005 117.586 231.503 118.279C228.731 119.434 225.843 120.474 222.955 121.629C222.839 121.744 222.608 121.86 222.493 121.744C217.872 120.358 215.792 124.632 212.558 126.249C211.98 126.48 211.98 127.866 211.749 128.675C223.186 130.407 233.814 133.064 243.517 138.955C250.564 143.344 254.838 149.812 258.651 156.858C260.268 159.861 262.116 162.634 263.734 165.637C263.965 166.214 264.196 167.254 263.849 167.485C262.347 168.755 263.04 169.91 263.387 171.412C264.08 174.184 264.196 177.187 264.773 179.96C265.004 181.23 265.466 182.732 266.391 183.54C271.358 188.276 274.361 194.282 276.441 200.751C277.943 205.371 279.329 209.991 280.946 214.496C281.293 215.42 282.332 216.113 283.257 216.806C284.065 217.615 285.567 218.423 287.184 219.463ZM177.093 242.564C177.209 242.564 177.324 242.564 177.44 242.564C177.671 240.832 178.017 239.099 178.017 237.366C177.902 229.396 174.783 222.582 169.7 216.575C167.851 214.381 166.003 212.07 164.155 209.76C160.343 205.14 156.53 200.52 152.603 195.9C151.332 194.398 149.715 193.127 148.213 191.741C148.328 191.51 148.559 191.279 148.675 191.048C149.946 191.741 151.216 192.434 152.949 193.358C154.682 190.702 156.53 188.045 158.148 185.273C158.956 184.002 158.263 183.656 156.761 183.425C153.758 182.963 150.754 182.501 147.982 181.346C143.939 179.729 140.242 177.534 136.083 175.339C134.812 180.537 133.542 185.85 132.387 191.048C130.769 198.672 132.387 205.256 137.816 211.146C143.823 217.499 150.639 222.582 157.686 227.433C163 231.014 166.35 235.518 166.581 242.218C166.581 243.719 167.274 245.221 167.505 246.723C167.851 246.723 168.198 246.607 168.545 246.607L167.62 233.786C167.851 233.786 168.082 233.67 168.198 233.67C168.776 235.749 169.469 237.828 169.815 239.908C170.046 241.871 170.162 243.95 169.815 246.029C169.7 246.954 168.429 247.647 167.62 248.571C166.927 247.762 166.119 247.069 165.772 246.145C165.31 244.99 165.425 243.719 165.194 242.564C164.617 239.908 164.039 237.251 163.346 234.594C163.115 234.594 162.884 234.71 162.653 234.71C161.844 240.947 160.574 246.954 156.646 252.036C155.26 253.768 156.53 257.003 158.841 258.273C155.26 259.197 158.032 259.89 158.379 260.814C158.032 261.969 157.801 263.24 158.032 264.395C160.112 273.982 162.653 283.454 164.501 293.156C166.581 304.014 168.198 314.987 169.815 325.96C170.162 328.501 169.815 331.158 169.815 333.815C168.776 329.541 168.545 325.267 167.851 321.109C166.234 310.713 164.617 300.318 162.653 289.922C161.036 281.606 158.841 273.289 156.877 265.088C156.53 263.471 155.722 262.085 155.144 260.583C154.913 260.583 154.567 260.699 154.335 260.699C154.913 260.468 155.491 260.121 156.299 259.775C155.491 259.082 154.913 258.62 154.22 258.042C154.451 258.042 154.682 258.042 154.913 258.042C155.029 257.349 155.26 256.541 155.144 255.963C153.642 247.069 153.758 238.175 154.335 229.281C154.335 228.472 153.989 227.317 153.411 226.855C151.794 225.469 150.061 224.199 148.213 222.813C144.516 229.743 143.13 237.02 144.747 244.297C147.404 255.848 150.87 267.167 153.989 278.602C156.299 287.034 158.841 295.466 161.036 303.898C162.422 309.212 163.346 314.641 164.386 320.069C165.772 327.808 167.158 335.663 168.198 343.517C168.545 345.827 169.007 346.982 171.317 347.56C181.367 350.101 191.071 348.715 200.659 345.943C203.201 345.25 205.28 343.517 205.742 340.861C206.551 336.587 207.475 332.313 207.591 328.039C208.168 311.984 208.515 295.928 208.63 279.757C208.746 269.593 208.399 259.428 208.168 249.264C208.168 248.571 208.284 247.878 208.284 247.069C208.515 247.069 208.63 247.069 208.861 247.069C209.323 250.072 209.67 252.96 210.247 256.541C212.904 254.461 214.984 252.729 217.179 250.996C217.41 251.227 217.525 251.458 217.756 251.689C215.677 253.422 213.598 255.039 211.634 256.887C210.941 257.58 210.363 258.735 210.247 259.659C210.132 263.355 210.247 267.052 210.132 270.748C209.901 281.952 209.67 293.272 209.439 304.476C209.323 309.674 209.092 314.872 208.861 320.069C208.399 327.462 207.937 334.97 207.359 342.709C208.861 342.94 210.71 343.171 212.673 343.402C219.489 344.21 225.958 342.362 232.543 341.092C234.16 340.745 236.009 340.168 236.355 337.973C237.164 333.237 238.088 328.501 239.012 323.766C241.438 311.06 243.98 298.239 246.405 285.533C247.214 280.913 248.254 276.408 248.485 271.672C249.062 260.699 249.293 249.61 249.756 238.522C250.102 229.512 247.907 221.427 242.247 214.381C238.781 210.107 235.315 205.833 231.85 201.444C221.337 208.605 209.554 210.915 197.194 211.608C196.963 216.113 196.847 220.502 196.385 224.661C196.038 227.433 195.692 230.436 194.306 232.746C191.071 238.406 185.642 240.485 179.288 239.792C177.902 246.145 174.783 249.264 169.815 248.571C174.205 244.643 170.739 239.561 171.664 235.172H172.819C173.165 239.099 173.396 242.911 173.743 246.838C174.552 244.643 175.129 242.333 175.245 240.023C175.36 237.713 175.014 235.287 174.783 232.862C175.129 232.862 175.476 232.862 175.822 232.746C176.4 236.096 176.747 239.33 177.093 242.564ZM238.088 179.151C245.366 173.953 252.644 168.755 259.806 163.558C251.95 140.572 235.084 133.526 213.02 130.292C210.71 136.298 203.894 140.456 197.309 139.648C189.8 138.724 185.757 134.681 185.411 130.292C180.212 131.678 174.898 133.179 169.584 134.45C152.834 138.608 143.477 150.043 138.509 165.752C138.278 166.676 138.625 168.409 139.433 168.986C146.134 173.722 153.411 177.187 161.729 178.458C163.231 175.455 164.617 172.452 166.119 169.564L166.696 169.795C166.35 171.066 166.35 172.567 165.541 173.607C162.422 177.765 162.884 181.923 164.848 186.312C164.963 186.659 164.963 187.006 165.079 187.352C165.541 189.316 165.541 192.088 166.812 192.896C168.198 193.82 170.855 193.127 172.934 192.896C181.483 191.741 190.031 190.471 198.58 189.316C205.049 188.507 211.518 187.352 217.987 188.738C222.377 189.662 226.882 190.586 231.503 191.51C232.081 188.507 232.659 185.388 233.352 182.27C232.774 182.039 232.312 181.808 231.157 181.23C237.279 178.805 239.243 173.838 239.59 168.409C240.052 162.865 237.972 158.013 234.045 153.971C236.702 154.664 238.088 156.743 239.128 158.937C242.478 165.752 241.554 172.452 238.088 179.151ZM186.797 99.6824C186.797 99.7979 187.028 99.1048 187.143 98.4118C189.107 90.7884 193.613 85.3595 201.121 82.7029C207.822 80.3927 213.829 81.4323 218.681 86.8611C224.457 93.445 225.034 101.53 223.994 109.616C223.532 113.197 221.569 116.546 220.067 120.474C221.8 119.896 223.532 119.434 225.265 118.857C226.767 118.279 228.384 117.701 229.77 117.008C231.388 116.084 233.005 115.045 234.507 113.89C236.355 112.388 238.204 110.656 239.821 108.923C240.629 107.999 241.323 106.844 241.785 105.689C242.362 104.187 242.247 102.455 242.94 101.184C244.326 98.5273 244.557 96.1017 243.633 93.214C243.171 91.8279 243.633 89.9798 244.095 88.4782C244.904 86.3991 245.25 84.551 243.98 82.5874C243.402 81.7788 243.633 80.3927 243.517 79.3532C243.402 78.4291 243.748 77.2741 243.286 76.4655C242.016 74.0399 240.976 71.6142 241.207 68.7266C241.207 67.918 240.167 67.225 239.705 66.3009C238.781 64.5683 238.088 62.7202 237.048 61.1031C234.969 57.8689 232.89 54.7502 230.695 51.6316C230.579 51.4005 230.002 51.4005 229.77 51.1695C229.077 50.7075 228.038 50.361 227.576 49.7835C225.034 45.2787 219.605 46.6648 216.139 43.8926C214.637 42.622 212.211 42.391 210.247 41.698C209.554 41.467 208.861 41.1204 208.284 41.236C206.089 41.8135 204.24 41.5825 202.392 40.3119C202.046 40.0809 201.352 40.1964 200.89 40.1964C199.158 40.1964 197.425 40.0809 195.807 40.1964C194.652 40.3119 193.381 40.4274 192.226 40.7739C190.724 41.1204 189.338 41.698 187.952 42.2755C184.255 43.7771 180.443 45.2787 176.746 46.7803C175.591 47.2423 174.552 47.7043 173.512 48.2819C172.472 48.8594 171.317 49.3214 170.393 50.0145C169.238 50.823 168.198 51.8626 167.158 52.7866C164.848 54.8658 162.653 56.9449 160.458 59.024C160.112 59.3705 159.996 60.1791 159.765 60.6411C159.303 61.7962 158.841 62.8357 158.379 63.9908C157.108 67.3405 155.722 70.6902 154.451 74.1554C154.335 74.5019 154.567 74.9639 154.567 75.426C154.567 76.581 154.567 77.8516 154.451 79.0067C154.335 80.5083 153.758 82.0098 153.873 83.3959C154.104 85.7061 155.491 88.1317 155.26 90.3263C155.029 94.3691 157.455 97.3722 158.032 101.068C158.148 101.762 158.494 102.339 158.956 102.917C161.382 105.804 162.768 109.616 166.696 111.118C167.043 111.233 167.274 112.042 167.62 112.388C168.198 112.966 168.891 113.774 169.584 114.005C172.241 114.467 174.552 115.391 176.284 117.586C176.515 117.932 177.209 117.932 177.671 118.163C179.288 118.972 181.021 119.55 182.407 120.589C183.793 121.744 185.064 122.091 186.912 120.82C186.566 118.394 187.143 114.814 185.642 113.659C182.523 111.233 181.945 108.114 181.136 104.88C180.79 103.494 181.252 101.299 182.176 100.144C182.869 99.3359 184.948 99.7979 186.797 99.6824ZM194.652 123.477C194.768 123.246 194.768 123.015 194.883 122.784C195.576 123.015 196.154 123.361 196.847 123.592C200.082 125.094 203.201 126.249 207.013 125.44C214.637 123.939 219.374 119.434 221.684 112.388C223.648 106.613 223.186 100.722 221.337 94.7156C219.258 87.7852 212.442 82.1254 204.934 83.2804C196.963 84.4355 188.068 92.983 188.183 101.299C188.183 101.993 187.49 102.686 187.143 103.379C186.566 102.917 186.104 102.455 185.526 102.108C184.833 101.646 184.14 101.415 183.331 101.068C183.1 101.762 182.523 102.455 182.638 103.032C183.216 105.458 183.909 107.883 184.717 110.194C184.833 110.656 185.757 110.771 186.219 111.118C186.797 111.58 187.605 112.157 187.721 112.735C188.183 117.008 188.53 121.167 188.876 125.44C188.876 126.018 188.645 126.826 188.299 127.404C186.104 130.754 188.068 134.334 190.609 135.836C195.114 138.493 199.851 138.608 204.702 136.76C207.128 135.836 209.554 134.796 210.363 132.255C210.941 130.638 210.479 128.79 210.479 126.826C204.24 127.751 198.811 127.866 194.652 123.477ZM280.253 222.004C280.484 221.773 280.715 221.658 280.946 221.427C281.986 222.697 283.719 223.968 284.065 225.469C284.412 226.971 283.488 228.934 283.026 231.476C285.105 229.512 286.722 228.126 288.108 226.624C288.339 226.393 288.339 225.469 288.108 225.123C286.376 222.466 285.682 218.885 281.986 217.846C280.946 217.499 279.675 216.691 279.329 215.651C278.174 212.648 277.249 209.414 276.325 206.295C273.784 197.863 270.78 189.662 263.965 183.425C263.387 182.847 262.925 182.039 262.809 181.23C262.347 177.765 262.116 174.184 261.654 169.795C253.914 175.455 246.752 180.653 239.243 186.081C243.517 190.24 246.174 195.206 248.254 200.635C250.795 207.681 256.687 212.301 262.116 217.153C265.466 220.156 270.318 222.466 269.163 228.357C269.048 228.819 269.625 229.397 269.972 229.974C273.784 227.779 277.365 225.585 281.062 223.39C280.831 223.044 280.484 222.466 280.253 222.004ZM173.281 354.375C173.512 358.88 173.627 363.5 174.205 368.005C174.552 370.777 175.014 373.664 176.169 375.975C179.172 382.096 184.14 386.948 189.107 391.452C194.19 396.073 200.197 396.881 205.627 394.109C208.168 392.839 209.554 389.951 208.63 387.525C207.591 384.638 206.435 381.865 205.165 379.093C202.392 373.087 199.389 367.196 200.659 360.266C201.006 358.418 201.006 356.454 201.121 355.068H180.905V366.388C180.212 365.694 179.981 365.579 179.981 365.463C179.866 364.077 179.866 362.691 179.866 361.19C179.866 354.952 179.866 354.952 173.974 354.028C173.743 354.144 173.743 354.144 173.281 354.375ZM204.702 348.946C204.702 355.299 204.587 361.074 204.818 366.85C204.934 368.467 205.627 370.43 206.782 371.47C211.056 375.282 215.677 378.631 220.067 382.212C224.688 386.139 229.77 386.948 235.662 385.331C241.207 383.714 243.402 380.248 241.438 374.935C241.092 373.895 240.398 372.971 239.59 372.163C237.164 369.391 234.622 366.619 232.196 363.846C230.233 361.652 229.193 359.111 229.539 356.223C229.886 353.335 230.233 350.448 230.579 347.329C229.424 348.022 228.384 348.831 227.345 349.062C223.301 349.87 219.143 350.679 214.984 351.025C212.558 351.256 211.403 351.603 211.634 354.259C211.865 356.685 211.634 359.111 211.634 361.536C211.403 361.536 211.056 361.536 210.825 361.536C209.554 358.071 211.172 354.375 210.479 350.794C208.861 350.332 207.244 349.755 204.702 348.946ZM197.771 210.222C206.435 209.298 214.984 208.836 222.955 204.794C219.951 203.754 217.756 201.906 217.987 198.672C218.218 196.015 219.258 193.474 219.951 190.702C214.175 189.431 207.591 189.431 201.006 190.471C193.844 191.51 186.681 192.434 179.635 193.474C175.245 194.051 170.855 194.629 166.465 195.206C166.35 196.824 166.119 198.21 166.003 199.365C168.891 199.134 171.664 198.903 174.436 198.787C180.905 198.441 187.49 198.094 193.959 197.863C196.847 197.748 197.656 199.018 197.656 202.021C197.771 204.678 197.771 207.335 197.771 210.222ZM311.79 226.047C310.982 223.968 310.404 222.004 309.364 220.271C307.4 216.691 305.783 212.533 302.895 209.76C300.354 207.335 296.426 206.411 293.076 205.256C292.036 204.909 290.65 205.602 289.379 205.833C289.379 206.18 289.379 206.411 289.264 206.757C292.729 209.529 298.39 208.49 300.816 213.226C296.426 210.8 291.921 209.183 286.722 209.76C290.65 212.417 291.343 217.268 294.924 220.387C298.043 223.044 299.314 227.779 301.393 231.591C303.126 230.436 304.743 229.165 306.476 228.241C308.093 227.202 310.057 226.74 311.79 226.047ZM173.743 208.721C175.476 208.259 177.093 207.335 177.786 207.797C178.826 208.49 179.172 210.222 179.981 211.724C183.447 212.186 194.652 203.985 194.999 199.018C186.219 199.365 177.555 199.711 168.545 200.173C170.624 203.407 172.241 206.295 173.743 208.721ZM180.79 219.578C180.79 224.083 180.674 228.01 180.905 232.053C180.905 232.862 182.407 234.248 182.869 234.132C185.064 233.555 187.605 233.093 189.338 231.707C193.497 228.472 192.804 223.621 193.15 218.77C188.992 220.502 185.18 222.004 180.79 219.578ZM162.075 181.115C159.072 186.197 156.53 190.471 153.873 194.86C156.415 197.863 159.072 200.982 161.96 204.332C167.736 196.708 164.039 189.316 162.075 181.115ZM200.544 347.56C191.764 348.946 183.447 351.603 174.898 349.062C174.09 352.527 174.436 353.104 177.671 353.335C183.562 353.682 189.338 354.144 195.23 354.259C196.732 354.259 198.926 353.913 199.62 352.873C200.544 351.603 200.313 349.408 200.544 347.56ZM191.533 215.882C194.421 216.344 194.883 217.961 194.537 220.156C194.306 221.773 194.19 223.275 194.075 224.892C193.381 232.169 188.645 236.096 181.367 235.287C179.635 235.056 179.519 235.865 179.519 236.904C179.519 237.482 180.328 238.406 180.79 238.522C182.407 238.637 183.909 238.406 185.526 238.175C189.569 237.366 194.19 232.977 194.537 229.05C195.23 222.351 195.692 215.651 196.154 208.952C196.269 206.526 196.154 204.216 196.154 201.559C193.497 204.447 191.302 206.873 188.876 209.414C192.111 210.453 192.804 212.648 191.533 215.882ZM263.04 167.138C261.654 164.597 260.268 164.597 258.651 165.752C256.225 167.6 253.799 169.217 251.373 170.95C246.521 174.531 241.554 178.111 236.817 181.808C236.24 182.27 236.24 183.54 235.893 184.464C236.817 184.464 237.972 184.811 238.666 184.349C246.752 178.805 254.838 173.029 263.04 167.138ZM231.503 200.52C231.272 198.672 230.695 197.286 231.041 196.131C231.85 193.474 230.348 192.896 228.384 192.434C227.691 192.319 226.998 192.088 226.42 191.857C224.572 191.164 222.724 191.048 221.337 192.665C219.72 194.513 218.449 196.477 219.374 199.134C220.413 202.021 221.222 203.754 224.803 203.061C227.229 202.483 229.424 201.328 231.503 200.52ZM161.151 179.844C152.025 178.111 144.17 173.953 137.007 168.64C135.275 171.412 135.275 172.683 137.469 174.184C143.477 178.458 149.946 181.461 157.339 182.154C158.956 182.385 160.689 182.154 161.151 179.844ZM207.244 343.748C207.244 347.906 207.822 348.946 211.287 349.293C216.717 349.87 222.146 349.524 227.229 347.329C229.077 346.52 230.233 345.481 230.002 342.94C222.493 344.557 215.099 345.827 207.244 343.748ZM155.606 250.419C155.837 250.534 156.184 250.534 156.415 250.65C159.765 245.336 161.382 239.446 161.613 233.208C161.613 232.631 161.151 231.822 160.689 231.476C159.187 230.321 157.57 229.396 155.606 228.01V250.419ZM267.43 239.792C268.123 237.366 268.123 235.287 269.163 234.132C270.896 232.284 273.206 230.898 275.517 229.628C277.249 228.703 279.329 228.126 281.177 227.433C281.755 227.202 282.448 227.202 282.679 226.74C282.91 226.278 282.794 225.238 282.563 225.007C282.101 224.776 281.177 224.776 280.715 225.123C279.329 225.816 278.174 226.74 276.903 227.433C272.167 230.321 267.315 233.208 262.578 236.096C264.542 240.947 265.466 241.409 267.43 239.792ZM206.32 344.903C206.089 344.788 205.742 344.557 205.511 344.441C202.046 346.52 200.775 348.946 201.468 351.949C201.814 353.566 202.046 355.183 202.046 356.916C201.93 361.998 200.313 367.312 203.547 372.047C203.547 371.816 203.663 371.47 203.663 371.123C203.663 364.308 203.663 357.493 203.778 350.563C203.778 349.524 204.24 348.368 204.587 347.444C205.049 346.52 205.742 345.712 206.32 344.903ZM287.646 220.965C289.495 223.275 290.765 225.469 288.917 228.241C289.264 228.241 289.379 228.241 289.495 228.126C290.765 227.202 292.152 226.393 293.422 225.469C295.733 223.852 295.617 222.12 293.307 220.387C291.343 219.001 289.61 219.232 287.646 220.965ZM179.288 230.667V218.308C177.44 218.654 175.707 219.001 174.205 219.347C175.822 223.159 177.555 226.971 179.288 230.667ZM185.064 219.347C187.143 219.463 189.223 220.156 188.992 216.922C188.992 216.344 189.8 215.651 190.262 215.074C191.649 212.995 191.187 211.839 189.454 211.262C189.107 212.533 188.876 213.803 188.299 214.843C188.068 215.189 186.45 215.305 186.219 214.958C185.526 213.919 185.064 212.648 184.486 211.262C180.212 214.265 186.219 216.46 185.064 219.347ZM171.201 207.45C170.046 205.256 169.007 203.292 167.967 201.444C167.736 201.559 167.505 201.675 167.274 201.675C167.158 206.411 166.234 211.262 170.739 215.074C171.202 214.727 171.664 214.381 172.241 213.919C168.198 211.608 168.429 209.067 171.201 207.45ZM175.822 218.423C176.515 214.727 177.093 211.839 177.671 208.952C176.053 209.529 175.014 210.222 173.974 210.222C172.934 210.222 172.01 209.529 170.97 209.183C170.739 209.414 170.624 209.645 170.393 209.876C170.855 210.569 171.086 211.724 171.779 211.955C173.743 212.764 174.667 214.034 174.552 216.229C174.552 216.806 175.245 217.499 175.822 218.423ZM311.559 228.241C311.444 228.01 311.328 227.779 311.213 227.548C308.325 229.05 305.437 230.552 301.971 232.284C305.552 233.555 309.249 231.707 311.559 228.241ZM280.022 229.281C279.906 229.396 278.751 230.205 278.867 230.667C279.329 231.938 280.022 233.324 281.062 234.132C281.639 234.594 283.026 234.017 283.95 233.901C283.834 233.439 283.95 232.746 283.603 232.4C282.794 231.476 281.639 230.552 280.022 229.281ZM276.787 237.135C275.517 235.518 274.361 234.132 272.629 232.169C272.629 233.786 272.051 235.172 272.629 235.98C273.553 237.366 275.055 238.175 276.787 237.135ZM276.672 230.436C276.441 230.436 276.094 230.436 275.863 230.321C275.863 231.36 275.286 232.862 275.748 233.555C276.556 234.71 277.943 235.287 279.213 236.211C279.329 235.98 279.444 235.865 279.56 235.634C278.636 233.901 277.712 232.169 276.672 230.436ZM164.039 203.523C162.191 205.602 162.306 206.18 166.003 209.067C165.541 207.104 167.274 204.563 164.039 203.523ZM270.203 235.287L269.625 235.403C269.741 236.442 269.51 237.829 270.087 238.522C270.78 239.215 272.167 239.215 273.899 239.792C272.282 237.713 271.242 236.558 270.203 235.287ZM181.252 215.998C181.483 215.998 181.714 215.998 181.945 215.998C181.714 215.074 181.483 214.034 181.252 213.11C179.866 212.995 178.71 212.879 177.093 212.764C178.941 214.15 180.097 215.074 181.252 215.998Z" fill="black"/>
<path d="M177.093 242.565C176.747 239.331 176.4 236.096 175.938 232.747C175.592 232.747 175.245 232.747 174.898 232.862C175.014 235.288 175.476 237.598 175.361 240.024C175.245 242.334 174.667 244.644 173.859 246.839C173.512 242.911 173.281 239.1 172.935 235.172H171.779C170.855 239.562 174.321 244.644 169.931 248.571C174.783 249.264 178.018 246.03 179.404 239.793C185.873 240.486 191.187 238.407 194.421 232.747C195.808 230.437 196.154 227.433 196.501 224.661C196.963 220.387 197.078 216.114 197.31 211.609C209.555 211.031 221.453 208.606 231.966 201.444C235.431 205.834 239.012 209.992 242.363 214.381C248.023 221.427 250.218 229.628 249.871 238.522C249.409 249.611 249.294 260.584 248.601 271.673C248.37 276.293 247.33 280.913 246.521 285.533C244.095 298.355 241.554 311.06 239.128 323.766C238.204 328.502 237.28 333.238 236.471 337.973C236.124 340.168 234.276 340.746 232.659 341.092C226.074 342.363 219.605 344.095 212.789 343.402C210.941 343.171 208.977 342.825 207.475 342.709C207.937 334.855 208.515 327.462 208.977 320.07C209.324 314.872 209.439 309.674 209.555 304.476C209.786 293.272 210.017 281.953 210.248 270.748C210.363 267.052 210.132 263.356 210.363 259.66C210.363 258.736 211.056 257.581 211.75 256.888C213.713 255.04 215.793 253.422 217.872 251.69C217.641 251.459 217.526 251.228 217.295 250.997C215.1 252.729 213.02 254.462 210.363 256.541C209.901 252.96 209.439 249.957 208.977 247.07C208.746 247.07 208.631 247.07 208.399 247.07C208.399 247.763 208.284 248.456 208.284 249.264C208.399 259.429 208.862 269.593 208.746 279.758C208.631 295.813 208.168 311.869 207.706 328.04C207.591 332.314 206.667 336.587 205.858 340.861C205.396 343.633 203.317 345.25 200.775 345.943C191.187 348.831 181.368 350.217 171.433 347.56C169.122 346.983 168.545 345.828 168.314 343.518C167.274 335.663 165.888 327.924 164.502 320.07C163.577 314.641 162.538 309.212 161.152 303.899C158.957 295.467 156.415 287.035 154.105 278.603C150.986 267.168 147.405 255.848 144.863 244.297C143.246 237.02 144.632 229.859 148.329 222.813C150.177 224.199 152.025 225.354 153.527 226.856C154.105 227.433 154.567 228.473 154.451 229.282C153.874 238.176 153.758 247.07 155.26 255.964C155.375 256.657 155.144 257.35 155.029 258.043C154.798 258.043 154.567 258.043 154.336 258.043C154.913 258.505 155.607 259.082 156.415 259.775C155.607 260.122 155.029 260.468 154.451 260.699C154.682 260.699 155.029 260.584 155.26 260.584C155.838 262.085 156.646 263.587 156.993 265.089C158.957 273.405 161.152 281.606 162.769 289.923C164.733 300.203 166.35 310.714 167.967 321.109C168.66 325.268 168.891 329.541 169.931 333.815C169.931 331.159 170.278 328.502 169.931 325.961C168.314 314.988 166.697 304.014 164.617 293.157C162.769 283.57 160.343 273.983 158.148 264.396C157.917 263.241 158.148 261.97 158.495 260.815C158.148 259.891 155.26 259.198 158.957 258.274C156.646 257.003 155.375 253.884 156.762 252.036C160.805 246.954 161.96 240.948 162.769 234.71C163 234.71 163.231 234.595 163.462 234.595C164.04 237.251 164.733 239.908 165.31 242.565C165.541 243.72 165.541 245.106 165.888 246.146C166.234 247.07 167.159 247.763 167.736 248.687C168.545 247.878 169.816 247.07 169.931 246.146C170.278 244.182 170.162 242.103 169.931 240.024C169.585 237.945 168.891 235.865 168.314 233.786C168.083 233.786 167.852 233.902 167.736 233.902L168.66 246.723C168.314 246.723 167.967 246.839 167.621 246.839C167.274 245.337 166.697 243.835 166.697 242.334C166.581 235.75 163.115 231.13 157.801 227.549C150.639 222.698 143.823 217.5 137.932 211.262C132.387 205.487 130.77 198.788 132.502 191.164C133.658 185.851 135.044 180.538 136.199 175.34C140.358 177.419 144.054 179.614 148.098 181.346C150.87 182.501 153.989 182.963 156.877 183.425C158.264 183.656 158.957 184.003 158.264 185.273C156.646 188.046 154.798 190.702 153.065 193.359C151.332 192.435 150.062 191.742 148.791 191.049C148.675 191.28 148.56 191.511 148.329 191.626C149.83 193.012 151.448 194.283 152.719 195.785C156.646 200.289 160.458 205.025 164.271 209.645C166.119 211.955 167.967 214.266 169.816 216.46C174.898 222.467 178.018 229.282 178.133 237.251C178.133 238.984 177.786 240.717 177.555 242.449C177.44 242.68 177.324 242.565 177.093 242.565ZM182.061 325.383C181.599 328.617 182.638 331.274 184.602 332.198C183.678 329.772 182.869 327.578 182.061 325.383ZM196.385 324.459C196.039 324.459 195.808 324.459 195.461 324.459C195.346 326.885 195.115 329.31 194.999 331.736C195.346 331.736 195.692 331.736 195.923 331.852C196.154 329.31 196.27 326.885 196.385 324.459ZM175.014 332.429C175.361 332.314 175.592 332.198 175.938 331.967C175.13 329.888 174.436 327.809 173.628 325.73C173.397 325.845 173.05 325.961 172.819 326.076C173.512 328.271 174.321 330.35 175.014 332.429ZM223.533 319.723C223.186 319.723 222.84 319.723 222.609 319.723C222.724 321.802 222.84 323.882 222.955 325.961C223.186 325.961 223.417 325.961 223.648 325.845V319.723H223.533Z" fill="white"/>
<path d="M238.088 179.15C241.554 172.451 242.478 165.867 239.243 158.937C238.204 156.742 236.818 154.778 234.161 153.97C238.204 158.013 240.168 162.864 239.706 168.408C239.243 173.837 237.395 178.688 231.273 181.229C232.428 181.692 232.89 181.923 233.467 182.269C232.89 185.388 232.197 188.622 231.619 191.51C226.998 190.586 222.493 189.661 218.103 188.737C211.519 187.351 205.165 188.506 198.696 189.315C190.147 190.47 181.599 191.741 173.05 192.896C170.971 193.127 168.314 193.82 166.927 192.896C165.657 192.087 165.772 189.199 165.195 187.351C165.079 187.005 165.079 186.658 164.964 186.312C162.884 181.923 162.422 177.764 165.657 173.606C166.35 172.682 166.465 171.065 166.812 169.794L166.234 169.563C164.848 172.451 163.346 175.454 161.845 178.457C153.643 177.071 146.249 173.606 139.549 168.986C138.856 168.524 138.394 166.676 138.625 165.752C143.592 150.043 152.949 138.492 169.7 134.449C175.014 133.179 180.328 131.677 185.526 130.291C185.873 134.68 189.801 138.723 197.425 139.647C204.125 140.456 210.825 136.297 213.136 130.291C235.2 133.41 252.066 140.571 259.922 163.557C252.528 168.639 245.251 173.837 238.088 179.15ZM193.844 182.154C198.465 183.193 203.548 177.418 205.511 173.144C207.36 169.217 206.205 160.438 202.392 157.666C207.591 168.755 205.049 176.956 193.844 182.154Z" fill="white"/>
<path d="M186.797 99.6819C184.949 99.7974 182.869 99.3354 182.292 100.144C181.368 101.299 180.906 103.378 181.252 104.88C182.061 107.998 182.638 111.233 185.757 113.658C187.144 114.698 186.682 118.394 187.028 120.82C185.18 122.09 184.025 121.744 182.523 120.589C181.137 119.549 179.404 118.856 177.786 118.163C177.324 117.932 176.631 117.932 176.4 117.585C174.667 115.391 172.357 114.467 169.7 114.005C169.007 113.889 168.314 112.965 167.736 112.388C167.39 112.041 167.274 111.348 166.812 111.117C162.884 109.615 161.498 105.688 159.072 102.916C158.61 102.454 158.263 101.761 158.148 101.068C157.455 97.3717 155.029 94.3686 155.375 90.3258C155.491 88.0157 154.22 85.7055 153.989 83.3954C153.874 82.0093 154.451 80.5077 154.567 79.0062C154.682 77.8511 154.682 76.5805 154.682 75.4254C154.682 74.9634 154.451 74.5014 154.567 74.1549C155.838 70.8052 157.108 67.34 158.494 63.9903C158.957 62.8352 159.419 61.7956 159.881 60.6406C160.112 60.063 160.112 59.37 160.574 59.0235C162.769 56.9444 164.964 54.8652 167.274 52.7861C168.314 51.8621 169.353 50.8225 170.509 50.0139C171.433 49.3209 172.588 48.7434 173.628 48.2813C174.667 47.7038 175.823 47.2418 176.862 46.7798C180.559 45.2782 184.371 43.7766 188.068 42.275C189.454 41.6975 190.956 41.2354 192.342 40.7734C193.497 40.4269 194.652 40.1959 195.923 40.1959C197.656 40.0804 199.273 40.1959 201.006 40.1959C201.584 40.1959 202.161 40.0804 202.508 40.3114C204.356 41.582 206.32 41.813 208.399 41.2354C208.977 41.1199 209.67 41.4664 210.363 41.6975C212.327 42.3905 214.753 42.6215 216.255 43.8921C219.72 46.6642 225.15 45.2782 227.691 49.7829C228.038 50.476 229.078 50.8225 229.886 51.169C230.233 51.4 230.695 51.4 230.81 51.631C233.005 54.7497 235.2 57.8684 237.164 61.1026C238.204 62.7197 238.897 64.5678 239.821 66.3004C240.283 67.109 241.323 67.9175 241.323 68.726C241.092 71.6137 242.131 73.9239 243.402 76.465C243.864 77.2735 243.518 78.4286 243.633 79.3527C243.749 80.5077 243.518 81.7783 244.095 82.5869C245.366 84.666 245.019 86.3986 244.211 88.4777C243.633 89.9793 243.287 91.8274 243.749 93.2135C244.788 96.1012 244.557 98.5268 243.056 101.183C242.363 102.454 242.478 104.187 241.9 105.688C241.438 106.843 240.861 107.998 239.937 108.922C238.319 110.655 236.471 112.388 234.623 113.889C233.121 115.044 231.504 116.084 229.886 117.008C228.5 117.816 226.883 118.394 225.381 118.856C223.648 119.434 221.915 119.896 220.183 120.473C221.684 116.546 223.648 113.196 224.11 109.615C225.15 101.53 224.572 93.4445 218.796 86.8606C213.944 81.3163 207.822 80.3922 201.237 82.7024C193.728 85.359 189.223 90.7878 187.259 98.4113C187.028 99.1043 186.797 99.6819 186.797 99.6819ZM166.465 83.8574C164.386 85.2435 164.617 86.9761 165.541 88.3622C167.39 91.1344 168.083 87.4381 169.238 87.3226C169.816 88.4777 170.162 89.8638 170.971 90.2103C171.664 90.4413 172.819 89.5173 173.628 89.1707C174.321 89.6328 175.014 90.2103 175.823 90.4413C176.054 90.5568 176.516 89.5173 176.631 89.5173C174.783 87.5537 172.935 86.5141 171.548 89.0552C170.855 87.9002 170.393 86.9761 169.816 85.9366C168.776 86.6296 167.736 87.2071 166.234 88.2467C166.119 86.6296 166.234 85.4745 166.465 83.8574ZM169.7 62.9507C170.971 60.4096 169.469 60.063 167.274 60.2941C168.083 59.2545 168.66 58.5614 169.122 57.8684C168.891 57.6374 168.66 57.5219 168.545 57.2909C167.736 58.2149 166.812 59.139 166.35 60.2941C166.234 60.6406 167.736 61.5646 168.545 62.3732C167.621 64.1058 168.314 65.0298 169.7 64.5678C170.74 65.7229 171.433 66.4159 172.126 67.109C172.357 65.9539 171.895 65.2608 172.126 64.6833C172.819 62.2577 171.664 62.2577 169.7 62.9507ZM170.855 80.2767C168.776 82.9334 168.891 83.1644 171.548 83.9729C173.05 84.435 174.321 85.359 175.823 85.9366C176.516 86.1676 177.44 85.7055 178.017 85.7055C176.978 84.7815 176.169 84.0885 175.129 83.1644C174.898 83.2799 174.205 83.3954 173.512 83.6264C173.512 83.2799 173.628 83.0489 173.628 82.7024C172.588 82.5869 171.548 82.3559 170.624 82.2403C170.509 81.7783 170.74 80.9698 170.855 80.2767ZM232.89 91.8274C234.738 91.9429 237.626 88.4777 237.164 85.8211C236.009 87.4382 234.969 88.7087 233.929 90.3258C230.464 88.2467 231.966 92.1739 231.157 93.4445C230.348 93.2135 229.655 93.098 229.078 92.9825C228.962 93.2135 228.962 93.4445 228.847 93.6755C229.771 93.9065 230.81 94.7151 231.504 94.3686C232.081 94.022 232.312 92.7515 232.89 91.8274ZM171.317 59.4855C171.086 59.9475 170.74 60.2941 170.509 60.7561C175.129 59.37 171.895 62.7197 173.628 63.1817C174.667 63.5282 175.592 64.4523 176.631 65.1453C176.747 64.9143 176.862 64.6833 177.093 64.4523C175.938 62.6042 174.667 60.7561 173.397 58.7925C173.512 58.677 174.205 58.4459 174.783 58.0994C174.552 57.8684 174.321 57.5219 173.974 57.2909C173.05 57.9839 172.126 58.7925 171.317 59.4855ZM171.202 107.767C171.433 108.114 172.01 108.691 172.819 109.731C173.512 108.807 174.09 107.998 174.783 107.19C173.974 107.19 173.281 107.074 172.241 106.959C172.01 106.612 171.548 106.035 170.971 105.342C170.278 106.035 169.816 106.612 169.238 107.305C168.891 106.728 168.545 106.15 168.198 105.688C167.967 105.804 167.736 105.919 167.505 106.15C168.083 107.074 168.545 108.114 169.238 108.807C169.238 108.922 170.393 108.229 171.202 107.767ZM204.472 48.7434C204.472 48.8589 204.472 48.8589 204.472 48.9744C204.934 50.476 205.396 51.9776 205.858 53.7102C207.36 52.4396 205.858 50.707 206.089 50.1295C207.013 48.1658 205.973 47.5883 204.472 46.8953C205.165 46.5487 205.627 46.3177 205.973 46.0867C205.858 45.8557 205.742 45.5092 205.742 45.2782C204.934 45.5092 204.125 45.8557 203.317 46.0867C203.779 47.0108 204.125 47.9348 204.472 48.7434ZM227.691 64.2213C227.229 65.0298 226.19 65.8384 226.19 66.7624C225.959 69.1881 224.803 71.1517 223.533 73.1153C223.417 73.2308 223.879 73.8084 224.226 74.2704C224.572 71.7292 229.078 71.0362 226.421 67.9175C228.962 66.1849 229.078 65.8384 227.691 64.2213ZM197.54 66.7624C194.999 68.6105 195.23 69.5346 198.234 70.9207C196.847 73.8083 199.735 73.5773 200.66 74.7324C200.891 74.6169 201.006 74.5014 201.237 74.2704C199.966 72.3068 198.58 70.4587 196.963 68.033C197.078 68.264 197.309 67.571 197.54 66.7624ZM204.472 75.3099L205.165 74.9634C204.125 72.7688 203.085 70.4587 202.046 68.033C202.046 68.033 202.277 67.571 202.392 67.109C202.161 66.9934 201.93 66.8779 201.699 66.7624C201.353 67.34 200.429 68.1485 200.66 68.6105C200.891 69.4191 201.699 69.9966 202.392 70.9207C200.197 73.4618 204.01 73.5773 204.472 75.3099ZM239.706 88.4777C239.128 89.1708 238.435 89.7483 237.973 90.4413C237.511 91.1344 237.164 91.9429 237.049 92.1739C235.662 93.329 234.623 94.1375 233.121 95.2926C236.702 95.2926 239.937 91.4809 239.706 88.4777ZM226.421 74.5014C226.767 74.6169 227.114 74.6169 227.345 74.7324C228.385 71.7292 230.695 69.0726 229.886 65.6074C228.847 68.6105 227.576 71.6137 226.421 74.5014ZM202.97 55.9048C204.703 54.6342 203.779 53.7102 202.739 52.3241C201.93 51.169 201.93 49.4364 201.468 47.7038C200.891 48.2813 200.429 48.8589 200.082 49.3209C201.122 51.631 202.046 53.7102 202.97 55.9048ZM175.823 104.88C175.823 104.649 175.938 104.302 175.938 104.071C174.09 103.378 172.126 102.685 169.816 101.761C170.162 102.801 170.278 104.187 170.74 104.302C172.472 104.764 174.205 104.764 175.823 104.88Z" fill="white"/>
<path d="M194.652 123.476C198.811 127.866 204.125 127.75 210.363 126.826C210.363 128.79 210.825 130.753 210.248 132.255C209.439 134.796 206.898 135.951 204.587 136.76C199.735 138.608 195.114 138.492 190.494 135.836C187.952 134.334 185.988 130.753 188.183 127.404C188.53 126.826 188.761 126.133 188.761 125.44C188.414 121.166 188.068 116.893 187.606 112.734C187.49 112.157 186.681 111.579 186.104 111.117C185.642 110.771 184.833 110.655 184.602 110.193C183.793 107.883 183.1 105.457 182.523 103.032C182.407 102.454 182.985 101.761 183.216 101.068C183.909 101.415 184.718 101.761 185.411 102.108C185.988 102.454 186.566 102.916 187.028 103.378C187.375 102.685 188.068 101.992 188.068 101.299C188.068 92.9827 196.847 84.3196 204.818 83.2801C212.443 82.2405 219.143 87.7849 221.222 94.7153C223.07 100.722 223.417 106.612 221.569 112.388C219.258 119.434 214.522 123.938 206.898 125.44C202.97 126.133 199.966 125.094 196.732 123.592C196.154 123.245 195.461 123.014 194.768 122.783C194.883 123.014 194.768 123.245 194.652 123.476ZM205.165 117.701C207.591 117.124 209.901 116.777 212.096 116.2C212.558 116.084 212.905 115.391 213.251 114.929C212.674 114.813 211.98 114.467 211.403 114.698C207.706 115.969 204.01 116.084 200.313 114.467C199.966 114.351 199.389 114.582 198.927 114.698C199.273 115.044 199.389 115.738 199.851 115.853C201.584 116.546 203.432 117.124 205.165 117.701ZM198.811 96.7944C198.927 96.9099 198.927 97.1409 199.042 97.2564C199.735 96.9099 200.428 96.6789 201.006 96.1013C201.237 95.8703 201.121 95.0618 200.89 94.7153C199.504 93.0982 194.768 93.7912 193.959 95.7548C193.728 96.2169 193.844 96.7944 194.075 97.1409C194.19 97.3719 194.883 97.3719 195.345 97.2564C196.385 97.2564 197.656 97.0254 198.811 96.7944ZM217.525 97.2564C216.717 96.3324 216.024 95.0618 215.1 94.8308C213.367 94.3687 211.403 94.7153 210.248 96.5634C210.017 96.9099 210.132 97.7184 210.479 97.9495C210.71 98.1805 211.403 98.065 211.865 97.9495C213.367 97.7184 214.984 97.4874 217.525 97.2564ZM207.013 104.418C204.587 106.843 210.594 107.306 209.439 109.847C208.515 109.962 207.706 110.193 206.782 110.309C207.591 112.272 208.977 112.157 210.017 111.348C211.403 110.193 211.865 108.461 210.594 106.959C209.555 105.919 208.168 105.226 207.013 104.418ZM193.382 101.068C193.497 101.415 193.497 101.761 193.613 102.108C194.19 102.108 195.114 102.454 195.23 102.223C196.847 100.26 198.349 100.606 199.966 101.992C200.082 102.108 200.544 101.877 200.89 101.761C200.659 99.5666 198.927 98.989 197.54 99.1045C196.27 99.3355 194.768 100.375 193.382 101.068ZM217.988 103.147C217.641 100.029 216.255 99.3355 214.175 99.451C212.211 99.5666 211.287 100.491 211.172 103.147C213.482 100.144 215.562 100.837 217.988 103.147Z" fill="white"/>
<path d="M280.253 222.004C280.484 222.466 280.831 223.043 281.062 223.505C277.365 225.7 273.669 227.895 269.972 230.089C269.625 229.512 269.048 228.934 269.163 228.472C270.203 222.581 265.467 220.271 262.116 217.268C256.687 212.417 250.795 207.681 248.254 200.75C246.175 195.206 243.402 190.355 239.243 186.197C246.752 180.652 253.915 175.454 261.654 169.91C262.117 174.299 262.348 177.88 262.81 181.345C262.925 182.154 263.387 183.078 263.965 183.54C270.781 189.662 273.784 197.978 276.326 206.41C277.25 209.529 278.174 212.763 279.329 215.766C279.676 216.69 280.946 217.614 281.986 217.961C285.683 219.116 286.376 222.581 288.109 225.238C288.34 225.584 288.34 226.393 288.109 226.74C286.607 228.241 285.105 229.627 283.026 231.591C283.603 228.934 284.528 227.086 284.065 225.584C283.719 224.083 281.986 222.928 280.946 221.542C280.715 221.542 280.484 221.773 280.253 222.004Z" fill="white"/>
<path d="M173.281 354.376C173.743 354.26 173.743 354.145 173.859 354.145C179.75 355.069 179.75 355.069 179.75 361.306C179.75 362.692 179.866 364.078 179.866 365.58C179.866 365.695 180.097 365.811 180.79 366.504V355.184H201.006C200.89 356.57 200.89 358.534 200.544 360.382C199.273 367.312 202.277 373.203 205.049 379.21C206.32 381.982 207.475 384.754 208.515 387.642C209.439 390.067 208.053 392.955 205.511 394.225C200.082 397.113 194.075 396.305 188.992 391.569C184.024 386.949 179.173 382.213 176.053 376.091C174.898 373.665 174.321 370.778 174.09 368.121C173.743 363.385 173.628 358.765 173.281 354.376Z" fill="white"/>
<path d="M204.703 348.945C207.129 349.754 208.861 350.216 210.479 350.793C211.172 354.374 209.554 358.07 210.825 361.535C211.056 361.535 211.403 361.535 211.634 361.535C211.634 359.11 211.865 356.684 211.634 354.259C211.403 351.602 212.558 351.255 214.984 351.024C219.143 350.678 223.186 349.869 227.345 349.061C228.5 348.83 229.424 348.021 230.579 347.328C230.233 350.447 229.771 353.334 229.54 356.222C229.193 359.225 230.233 361.651 232.196 363.846C234.738 366.618 237.164 369.39 239.59 372.162C240.283 372.971 240.976 374.01 241.438 374.934C243.402 380.248 241.207 383.713 235.662 385.33C229.886 386.947 224.803 386.138 220.182 382.211C215.793 378.515 211.172 375.165 206.897 371.469C205.742 370.429 205.049 368.466 204.934 366.849C204.587 361.073 204.703 355.298 204.703 348.945Z" fill="white"/>
<path d="M197.771 210.221C197.771 207.334 197.771 204.677 197.771 202.02C197.771 199.017 196.963 197.747 194.075 197.862C187.606 197.978 181.021 198.44 174.552 198.786C171.779 198.902 169.007 199.133 166.119 199.364C166.234 198.209 166.35 196.823 166.581 195.206C170.971 194.628 175.36 194.05 179.75 193.473C186.913 192.549 194.075 191.625 201.122 190.47C207.706 189.43 214.175 189.43 220.067 190.701C219.374 193.473 218.334 196.014 218.103 198.671C217.757 201.905 220.067 203.753 223.07 204.793C215.1 208.835 206.436 209.297 197.771 210.221Z" fill="white"/>
<path d="M311.79 226.047C310.173 226.624 308.209 227.202 306.476 228.126C304.744 229.05 303.126 230.321 301.394 231.476C299.314 227.664 297.928 223.044 294.924 220.272C291.343 217.153 290.65 212.302 286.722 209.645C291.921 209.067 296.426 210.685 300.816 213.11C298.39 208.259 292.729 209.414 289.264 206.642C289.264 206.295 289.264 206.064 289.379 205.718C290.65 205.487 292.036 204.794 293.076 205.14C296.542 206.411 300.469 207.335 302.895 209.645C305.783 212.417 307.401 216.46 309.364 220.156C310.289 222.004 310.866 224.083 311.79 226.047Z" fill="white"/>
<path d="M173.743 208.72C172.357 206.294 170.624 203.407 168.545 200.173C177.44 199.826 186.219 199.48 194.999 199.018C194.652 203.984 183.447 212.185 179.981 211.723C179.172 210.222 178.826 208.489 177.786 207.796C177.093 207.219 175.476 208.258 173.743 208.72Z" fill="white"/>
<path d="M180.79 219.578C185.18 222.003 188.876 220.502 193.15 218.885C192.804 223.736 193.497 228.587 189.338 231.822C187.605 233.208 185.064 233.67 182.869 234.247C182.407 234.363 180.905 232.861 180.905 232.168C180.674 228.125 180.79 224.083 180.79 219.578Z" fill="white"/>
<path d="M200.544 347.561C200.313 349.524 200.544 351.603 199.62 352.874C198.927 353.913 196.732 354.375 195.23 354.26C189.339 354.144 183.562 353.682 177.671 353.336C174.321 353.105 173.974 352.527 174.898 349.062C183.447 351.488 191.764 348.947 200.544 347.561Z" fill="white"/>
<path d="M191.533 215.882C192.804 212.648 192.111 210.337 188.992 209.298C191.302 206.757 193.613 204.216 196.27 201.443C196.27 204.1 196.385 206.526 196.27 208.836C195.808 215.535 195.346 222.235 194.652 228.934C194.19 232.861 189.685 237.25 185.642 238.059C184.14 238.406 182.523 238.521 180.905 238.405C180.443 238.405 179.635 237.366 179.635 236.788C179.519 235.749 179.75 234.94 181.483 235.171C188.761 236.095 193.382 232.053 194.19 224.776C194.306 223.159 194.537 221.657 194.652 220.04C194.884 217.961 194.421 216.344 191.533 215.882Z" fill="white"/>
<path d="M263.041 167.138C254.839 173.029 246.752 178.805 238.55 184.464C237.973 184.926 236.702 184.58 235.778 184.58C236.124 183.656 236.124 182.385 236.702 181.923C241.554 178.227 246.406 174.646 251.257 171.066C253.683 169.333 256.109 167.6 258.535 165.868C260.268 164.597 261.539 164.597 263.041 167.138Z" fill="white"/>
<path d="M231.504 200.52C229.424 201.329 227.114 202.599 224.803 202.946C221.222 203.639 220.414 201.906 219.374 199.019C218.45 196.362 219.836 194.398 221.338 192.55C222.724 190.933 224.572 191.049 226.421 191.742C227.114 191.973 227.807 192.204 228.384 192.319C230.348 192.781 231.735 193.359 231.041 196.016C230.695 197.171 231.272 198.672 231.504 200.52ZM227.807 196.824C226.883 195.9 226.19 194.976 225.959 195.091C225.15 195.438 224.572 196.131 223.995 196.709C224.457 197.171 225.034 198.095 225.496 198.095C226.074 198.21 226.767 197.517 227.807 196.824Z" fill="white"/>
<path d="M161.152 179.844C160.574 182.155 158.957 182.386 157.224 182.27C149.831 181.462 143.361 178.458 137.354 174.3C135.159 172.799 135.159 171.528 136.892 168.756C144.286 173.954 152.025 178.112 161.152 179.844Z" fill="white"/>
<path d="M207.244 343.748C214.984 345.827 222.493 344.556 230.002 343.055C230.233 345.596 229.077 346.635 227.229 347.444C222.031 349.639 216.717 349.985 211.287 349.408C207.937 348.945 207.36 347.906 207.244 343.748Z" fill="white"/>
<path d="M155.606 250.418V227.895C157.57 229.281 159.188 230.205 160.689 231.36C161.151 231.706 161.729 232.515 161.614 233.092C161.382 239.33 159.765 245.221 156.415 250.534C156.184 250.534 155.953 250.418 155.606 250.418Z" fill="white"/>
<path d="M267.43 239.791C265.351 241.408 264.427 240.946 262.579 236.211C267.315 233.323 272.051 230.435 276.903 227.548C278.174 226.739 279.445 225.931 280.715 225.238C281.293 225.007 282.102 224.891 282.564 225.122C282.91 225.238 282.91 226.393 282.679 226.855C282.448 227.201 281.639 227.317 281.177 227.548C279.214 228.241 277.25 228.703 275.517 229.742C273.206 231.013 270.896 232.399 269.163 234.247C268.239 235.287 268.124 237.366 267.43 239.791Z" fill="white"/>
<path d="M287.646 220.964C289.61 219.231 291.228 219 293.307 220.502C295.617 222.234 295.733 223.851 293.423 225.584C292.152 226.508 290.766 227.316 289.495 228.241C289.379 228.356 289.148 228.24 288.917 228.356C290.766 225.468 289.495 223.274 287.646 220.964Z" fill="white"/>
<path d="M179.288 230.668C177.555 226.972 175.938 223.16 174.205 219.348C175.707 219.002 177.44 218.655 179.288 218.309V230.668Z" fill="white"/>
<path d="M185.064 219.347C186.219 216.46 180.212 214.265 184.371 211.262C184.949 212.648 185.295 213.918 186.104 214.958C186.335 215.304 187.952 215.189 188.183 214.842C188.761 213.803 188.992 212.532 189.338 211.262C191.187 211.839 191.533 212.994 190.147 215.073C189.685 215.766 188.876 216.344 188.876 216.922C189.223 220.156 187.144 219.463 185.064 219.347Z" fill="white"/>
<path d="M171.202 207.45C168.314 209.183 168.198 211.608 172.357 213.803C171.779 214.265 171.317 214.611 170.855 214.958C166.234 211.146 167.274 206.295 167.389 201.559C167.62 201.444 167.852 201.328 168.083 201.328C169.007 203.292 170.046 205.255 171.202 207.45Z" fill="white"/>
<path d="M175.823 218.423C175.245 217.383 174.552 216.806 174.552 216.113C174.667 213.918 173.743 212.648 171.779 211.839C171.202 211.608 170.855 210.453 170.393 209.76C170.624 209.529 170.74 209.298 170.971 209.067C172.01 209.413 172.935 210.107 173.974 210.107C175.014 210.107 175.938 209.413 177.671 208.836C177.093 211.839 176.516 214.727 175.823 218.423Z" fill="white"/>
<path d="M311.559 228.242C309.364 231.707 305.668 233.555 301.971 232.285C305.437 230.552 308.325 229.05 311.213 227.549C311.328 227.78 311.444 228.011 311.559 228.242Z" fill="white"/>
<path d="M280.022 229.281C281.639 230.667 282.795 231.476 283.719 232.4C284.065 232.747 283.95 233.324 284.065 233.902C283.026 234.017 281.639 234.595 281.177 234.133C280.138 233.324 279.445 231.938 278.983 230.667C278.752 230.205 280.022 229.281 280.022 229.281Z" fill="white"/>
<path d="M276.788 237.135C275.055 238.174 273.437 237.366 272.629 235.98C272.167 235.171 272.629 233.785 272.629 232.168C274.362 234.132 275.517 235.518 276.788 237.135Z" fill="white"/>
<path d="M276.672 230.436C277.596 232.168 278.636 233.901 279.56 235.634C279.445 235.865 279.329 235.98 279.213 236.211C278.058 235.403 276.556 234.71 275.748 233.555C275.286 232.861 275.748 231.475 275.863 230.32C276.094 230.436 276.441 230.436 276.672 230.436Z" fill="white"/>
<path d="M164.039 203.523C167.274 204.563 165.541 206.989 166.003 209.068C162.422 206.18 162.191 205.718 164.039 203.523Z" fill="white"/>
<path d="M270.203 235.287C271.243 236.558 272.282 237.828 273.9 239.792C272.167 239.214 270.781 239.214 270.087 238.521C269.51 237.828 269.741 236.442 269.625 235.403L270.203 235.287Z" fill="white"/>
<path d="M181.252 215.998C180.097 215.074 178.826 214.15 177.093 212.764C178.826 212.879 179.866 212.995 181.252 213.11C181.483 214.034 181.714 215.074 181.945 215.998C181.714 215.998 181.483 215.998 181.252 215.998Z" fill="white"/>
<path d="M182.061 325.383C182.869 327.577 183.678 329.772 184.602 332.198C182.638 331.274 181.483 328.617 182.061 325.383Z" fill="black"/>
<path d="M196.385 324.459C196.27 326.885 196.154 329.311 196.039 331.736C195.692 331.736 195.345 331.736 195.114 331.621C195.23 329.195 195.461 326.769 195.576 324.344C195.808 324.459 196.039 324.459 196.385 324.459Z" fill="black"/>
<path d="M175.014 332.428C174.321 330.349 173.627 328.27 172.819 326.075C173.05 325.96 173.396 325.844 173.627 325.729C174.436 327.808 175.129 329.887 175.938 331.966C175.591 332.197 175.36 332.312 175.014 332.428Z" fill="black"/>
<path d="M223.533 319.723V325.845C223.302 325.845 223.071 325.845 222.839 325.96C222.724 323.881 222.608 321.802 222.493 319.723C222.955 319.723 223.186 319.723 223.533 319.723Z" fill="black"/>
<path d="M193.844 182.153C205.049 176.956 207.591 168.87 202.277 157.666C206.089 160.438 207.244 169.217 205.396 173.144C203.547 177.418 198.349 183.078 193.844 182.153Z" fill="black"/>
<path d="M166.465 83.8574C166.35 85.4745 166.234 86.7451 166.003 88.2467C167.505 87.2071 168.545 86.6296 169.584 85.9366C170.162 86.8606 170.624 87.9002 171.317 89.0552C172.819 86.3986 174.667 87.4381 176.4 89.5173C176.4 89.6328 175.822 90.5568 175.591 90.4413C174.783 90.2103 174.09 89.5173 173.397 89.1707C172.588 89.5173 171.433 90.4413 170.74 90.2103C169.931 89.8638 169.7 88.4777 169.007 87.3226C167.852 87.4381 167.158 91.1344 165.31 88.3622C164.501 86.9761 164.386 85.2435 166.465 83.8574Z" fill="black"/>
<path d="M169.7 62.9508C171.664 62.2578 172.819 62.2578 172.126 64.6834C172.01 65.261 172.357 65.954 172.126 67.1091C171.433 66.416 170.74 65.723 169.7 64.5679C168.198 65.03 167.62 64.1059 168.545 62.3733C167.62 61.5648 166.119 60.6407 166.35 60.2942C166.812 59.1391 167.852 58.3306 168.545 57.291C168.776 57.522 169.007 57.6375 169.122 57.8685C168.545 58.5616 168.083 59.2546 167.274 60.2942C169.469 60.0632 170.971 60.4097 169.7 62.9508Z" fill="black"/>
<path d="M170.855 80.2773C170.739 80.9704 170.624 81.7789 170.508 82.1255C171.548 82.241 172.472 82.472 173.512 82.5875C173.512 82.8185 173.396 83.165 173.396 83.5115C174.09 83.2805 174.783 83.165 175.014 83.0495C176.053 83.9736 176.862 84.6666 177.902 85.5907C177.324 85.7062 176.4 86.0527 175.707 85.8217C174.205 85.3597 172.934 84.3201 171.433 83.8581C168.891 83.165 168.776 82.934 170.855 80.2773Z" fill="black"/>
<path d="M232.89 91.8286C232.428 92.7527 232.081 94.0232 231.388 94.3698C230.81 94.7163 229.655 93.9077 228.731 93.6767C228.847 93.4457 228.847 93.2147 228.962 92.9837C229.655 93.0992 230.233 93.3302 231.041 93.4457C231.85 92.1751 230.233 88.2479 233.814 90.327C234.969 88.8254 235.893 87.4394 237.048 85.8223C237.511 88.4789 234.738 91.9441 232.89 91.8286Z" fill="black"/>
<path d="M171.317 59.4859C172.126 58.6774 173.05 57.9843 173.859 57.1758C174.09 57.4068 174.321 57.7533 174.667 57.9843C174.09 58.3309 173.512 58.5619 173.281 58.6774C174.667 60.7565 175.823 62.6046 176.978 64.3372C176.862 64.5682 176.747 64.7993 176.516 65.0303C175.476 64.3372 174.667 63.4132 173.512 63.0666C171.779 62.4891 175.014 59.1394 170.393 60.641C170.74 60.41 170.971 59.948 171.317 59.4859Z" fill="black"/>
<path d="M171.202 107.767C170.393 108.229 169.238 108.923 169.007 108.807C168.314 107.998 167.852 107.074 167.274 106.15C167.505 106.035 167.736 105.919 167.967 105.688C168.314 106.15 168.66 106.728 169.007 107.305C169.584 106.728 170.162 106.15 170.74 105.342C171.317 106.035 171.779 106.612 172.01 106.959C173.05 107.074 173.743 107.074 174.552 107.19C173.974 107.998 173.397 108.807 172.588 109.731C172.01 108.691 171.548 108.114 171.202 107.767Z" fill="black"/>
<path d="M204.472 48.7445C204.125 47.8204 203.779 47.0119 203.432 46.0878C204.241 45.8568 205.049 45.5103 205.858 45.2793C205.973 45.5103 206.089 45.8568 206.089 46.0878C205.627 46.3189 205.165 46.5499 204.587 46.8964C206.089 47.5894 207.129 48.167 206.205 50.1306C205.973 50.7081 207.475 52.4407 205.973 53.7113C205.511 51.9787 205.049 50.4771 204.587 48.9755C204.472 48.86 204.472 48.86 204.472 48.7445Z" fill="black"/>
<path d="M227.691 64.2227C229.078 65.8397 228.962 66.1863 226.305 67.9189C228.962 71.0375 224.457 71.6151 224.11 74.2717C223.764 73.6942 223.301 73.2322 223.417 73.1167C224.688 71.1531 225.843 69.1894 226.074 66.7638C226.19 65.8397 227.114 65.0312 227.691 64.2227Z" fill="black"/>
<path d="M197.54 66.8789C197.309 67.5719 197.078 68.265 197.078 68.3805C198.696 70.6906 199.966 72.6543 201.353 74.6179C201.122 74.7334 201.006 74.8489 200.775 75.0799C199.851 73.8093 196.847 74.0403 198.349 71.2682C195.23 69.6511 194.999 68.6115 197.54 66.8789Z" fill="black"/>
<path d="M204.472 75.3111C204.01 73.5785 200.197 73.463 202.392 70.9219C201.699 70.1134 200.89 69.4203 200.659 68.6118C200.544 68.1498 201.353 67.4567 201.699 66.7637C201.93 66.8792 202.161 66.9947 202.392 67.1102C202.277 67.5722 202.046 68.0342 202.046 68.0342C203.085 70.4599 204.125 72.6545 205.165 74.9646L204.472 75.3111Z" fill="black"/>
<path d="M239.705 88.4785C239.937 91.5972 236.702 95.4089 233.005 95.2934C234.507 94.0228 235.547 93.2143 236.933 92.1747C237.049 91.9437 237.395 91.1352 237.857 90.4421C238.435 89.6336 239.128 89.056 239.705 88.4785Z" fill="black"/>
<path d="M226.421 74.5014C227.576 71.4983 228.847 68.6106 230.002 65.6074C230.81 69.1881 228.384 71.7293 227.46 74.7324C227.114 74.7324 226.767 74.6169 226.421 74.5014Z" fill="black"/>
<path d="M202.97 55.9061C202.046 53.7114 201.122 51.6323 200.082 49.3222C200.428 48.8601 201.006 48.2826 201.468 47.7051C201.93 49.4377 201.93 51.1703 202.739 52.3253C203.779 53.7114 204.703 54.6355 202.97 55.9061Z" fill="black"/>
<path d="M175.823 104.88C174.09 104.765 172.472 104.765 170.855 104.303C170.393 104.187 170.278 102.801 169.931 101.762C172.241 102.686 174.09 103.379 176.054 104.072C175.938 104.303 175.938 104.534 175.823 104.88Z" fill="black"/>
<path d="M205.165 117.701C203.432 117.123 201.584 116.545 199.851 115.852C199.504 115.737 199.273 115.044 198.927 114.697C199.389 114.582 199.966 114.235 200.313 114.466C204.01 116.083 207.591 115.968 211.403 114.697C211.98 114.466 212.674 114.813 213.251 114.928C212.905 115.39 212.558 116.083 212.096 116.199C209.901 116.776 207.591 117.239 205.165 117.701Z" fill="black"/>
<path d="M198.811 96.7948C197.656 97.0258 196.385 97.2569 195.23 97.4879C194.768 97.6034 194.075 97.6034 193.959 97.3724C193.728 97.0258 193.728 96.3328 193.844 95.9863C194.652 94.0227 199.389 93.3296 200.775 94.9467C201.006 95.2932 201.121 96.1018 200.89 96.3328C200.428 96.7948 199.62 97.0258 198.927 97.4879C198.927 97.1413 198.927 96.9103 198.811 96.7948Z" fill="black"/>
<path d="M217.525 97.2564C214.984 97.6029 213.482 97.8339 211.865 97.9494C211.403 97.9494 210.71 98.1805 210.479 97.9494C210.248 97.6029 210.132 96.9099 210.248 96.5633C211.403 94.7152 213.251 94.3687 215.1 94.8307C216.024 94.9462 216.717 96.3323 217.525 97.2564Z" fill="black"/>
<path d="M207.013 104.418C208.168 105.227 209.555 105.92 210.479 106.959C211.75 108.461 211.403 110.193 209.901 111.348C208.862 112.157 207.475 112.388 206.667 110.309C207.591 110.193 208.399 109.962 209.324 109.847C210.594 107.306 204.587 106.844 207.013 104.418Z" fill="black"/>
<path d="M193.382 101.069C194.883 100.376 196.27 99.3365 197.771 99.221C199.158 99.1055 200.89 99.683 201.121 101.878C200.775 101.993 200.313 102.224 200.197 102.109C198.58 100.607 196.963 100.261 195.461 102.34C195.23 102.571 194.421 102.224 193.844 102.224C193.497 101.762 193.497 101.416 193.382 101.069Z" fill="black"/>
<path d="M217.987 103.147C215.562 100.837 213.482 100.144 211.172 103.147C211.172 100.491 212.211 99.451 214.175 99.451C216.255 99.3355 217.641 99.913 217.987 103.147Z" fill="black"/>
<path d="M227.807 196.823C226.767 197.517 226.074 198.21 225.496 198.094C224.919 198.094 224.457 197.17 223.995 196.708C224.688 196.13 225.265 195.437 225.958 195.091C226.189 194.975 226.883 196.015 227.807 196.823Z" fill="black"/>
</g>
<defs>
<clipPath id="clip0_703_8571">
<rect width="318.491" height="400" fill="white"/>
</clipPath>
</defs>
</svg>
