<svg width="32" height="32" viewBox="0 0 32 32" fill="none" xmlns="http://www.w3.org/2000/svg">
<path fill-rule="evenodd" clip-rule="evenodd" d="M16.0081 8.49327e-06C12.8413 -0.00325292 9.74465 0.932841 7.10994 2.68987C4.47523 4.44689 2.42085 6.94589 1.2067 9.87073C-0.0074568 12.7956 -0.326826 16.0148 0.288992 19.1212C0.904811 22.2276 2.42815 25.0815 4.66628 27.3219C6.90442 29.5624 9.75678 31.0887 12.8625 31.7077C15.9683 32.3267 19.1878 32.0107 22.1139 30.7995C25.04 29.5884 27.5411 27.5366 29.3009 24.9037C31.0606 22.2708 31.9999 19.1751 31.9999 16.0083C31.9999 11.7655 30.3156 7.69619 27.317 4.69454C24.3185 1.69288 20.2509 0.004378 16.0081 8.49327e-06ZM7.76496 11.1118C7.76496 11.0331 7.79623 10.9576 7.85188 10.902C7.90753 10.8463 7.98301 10.8151 8.06172 10.8151H10.2049C10.9956 10.8085 11.7747 11.0052 12.4676 11.3863C13.1604 11.7674 13.7437 12.32 14.1617 12.9913C14.1617 12.9913 13.189 14.8377 12.8428 15.6126C12.2822 14.442 11.6722 13.2715 10.2049 13.2715H8.04523C7.96653 13.2715 7.89105 13.2403 7.83539 13.1846C7.77974 13.1289 7.74848 13.0535 7.74848 12.9748L7.76496 11.1118ZM24.9272 20.8882L20.2451 23.9712C20.2015 24.0122 20.1469 24.0399 20.088 24.0509C20.029 24.0619 19.9682 24.0558 19.9126 24.0332C19.857 24.0106 19.8091 23.9726 19.7746 23.9236C19.74 23.8746 19.7202 23.8167 19.7176 23.7568V21.8939C19.4048 21.9194 19.0906 21.9194 18.7778 21.8939C17.9942 21.9158 17.2184 21.7326 16.5273 21.3624C15.8361 20.9923 15.2537 20.4481 14.8376 19.7836C15.3436 18.9474 15.7793 18.0706 16.14 17.1623C16.7006 18.3163 17.3106 19.4869 18.7778 19.4869H19.7835V17.5909C19.7835 17.2942 20.0968 17.1953 20.3276 17.3766L24.9932 20.4431C25.0389 20.5138 25.0558 20.5993 25.0404 20.682C25.0251 20.7648 24.9787 20.8386 24.9108 20.8882H24.9272ZM24.9272 12.2659L20.2286 15.3488C20.1848 15.3699 20.1367 15.3806 20.088 15.3799C20.0394 15.3792 19.9915 15.3672 19.9483 15.3448C19.9051 15.3224 19.8677 15.2902 19.8391 15.2508C19.8105 15.2115 19.7915 15.166 19.7835 15.118V13.2715H18.9262C17.0797 13.2715 16.3543 15.3983 15.7444 16.8326C14.6727 19.322 13.4198 21.8939 10.2874 21.8939H8.04523C8.00563 21.8963 7.96598 21.8903 7.92888 21.8762C7.89179 21.8621 7.8581 21.8404 7.83005 21.8123C7.802 21.7843 7.78022 21.7506 7.76616 21.7135C7.7521 21.6764 7.74607 21.6367 7.74848 21.5971V19.7836C7.74623 19.7433 7.75225 19.7029 7.76615 19.665C7.78006 19.6271 7.80156 19.5924 7.82934 19.563C7.85713 19.5337 7.8906 19.5104 7.92773 19.4944C7.96485 19.4785 8.00483 19.4703 8.04523 19.4704H10.2049C12.0514 19.4704 12.7768 17.3601 13.3868 15.9093C14.4584 13.4199 15.7114 10.848 18.8438 10.848H19.7835V8.96858C19.783 8.90526 19.8017 8.84327 19.8371 8.79079C19.8725 8.7383 19.923 8.69779 19.9819 8.67458C20.0408 8.65137 20.1054 8.64656 20.1671 8.66078C20.2288 8.67501 20.2848 8.7076 20.3276 8.75426L24.9932 11.8207C25.0389 11.8914 25.0558 11.9769 25.0404 12.0597C25.0251 12.1424 24.9787 12.2162 24.9108 12.2659H24.9272Z" fill="#EF604B"/>
</svg>
