<svg width="349" height="775" viewBox="0 0 349 775" fill="none" xmlns="http://www.w3.org/2000/svg">
<path d="M298.751 431.225L305.252 427.758L294.417 412.328L300.55 408.211C298.751 404.657 300.095 402.035 304.126 401.861C308.361 401.486 312.629 401.852 316.738 402.945C325.298 405.74 332.601 410.031 336.394 419.35C339.254 426.393 344.434 432.352 347.879 439.33C348.545 440.73 348.922 442.25 348.989 443.798C349.056 445.347 348.811 446.893 348.269 448.345C346.918 451.167 344.924 453.632 342.447 455.544C339.971 457.456 337.081 458.761 334.01 459.354C327.617 460.676 323.629 457.837 321.007 451.748C319.321 448.663 317.324 445.758 315.048 443.079L297.906 454.326C297.646 454.522 297.321 454.803 297.278 455.085C295.956 462.258 288.956 461.803 284.427 464.599C282.16 466.095 279.732 467.33 277.189 468.283C271.337 470.276 265.443 472.118 259.462 473.7C254.109 475.131 252.765 470.385 250.793 467.199C249.19 464.62 249.06 461.868 252.397 459.896C255.734 457.924 259.418 455.345 262.582 453.265C262.106 449.689 261.867 446.547 261.217 443.469C260.943 441.712 260.194 440.064 259.05 438.702C253.307 433.024 247.499 427.411 241.431 422.123C230.623 412.736 222.558 400.597 218.092 386.995C216.402 382.054 212.262 377.893 208.925 373.624C207.018 371.197 206.043 367.339 201.449 368.054C200.473 368.206 199.281 366.407 197.591 365.129C196.052 375.271 191.22 384.914 196.052 395.013C197.986 398.566 200.266 401.919 202.857 405.025C208.86 413.022 215.405 420.672 220.931 428.993C226.771 437.697 229.846 447.963 229.751 458.444C229.751 473.939 229.924 489.477 229.447 504.971C228.646 531.692 224.138 557.935 218.612 584.027C214.906 601.364 211.807 618.701 208.405 636.167C207.105 642.907 205.371 649.582 204.569 656.365C203.984 661.457 201.189 663.733 196.811 664.925C192.433 666.117 191.263 668.457 192.975 672.705C193.433 674.431 193.5 676.237 193.17 677.992C192.607 683.952 190.483 690.215 191.653 695.784C192.737 700.855 197.093 705.363 200.452 709.805C203.811 714.248 207.603 717.412 210.637 721.594C220.844 735.637 215.665 754.317 196.573 756.701C190.789 757.471 184.91 757.066 179.287 755.51C173.664 753.953 168.413 751.277 163.849 747.643C155.419 741.141 148.16 733.101 140.64 725.972C143.175 731.628 145.624 738.151 148.94 744.219C151.396 748.975 152.405 754.346 151.844 759.67C151.454 767.19 146.968 770.722 140.445 772.868C125.947 777.679 114.245 774.298 104.536 762.336C98.6415 755.054 92.4003 748.033 86.9392 740.448C84.4698 736.909 82.8867 732.829 82.3233 728.551C80.8496 716.046 79.9828 703.477 79.2027 690.93C79.051 688.654 80.7413 686.336 81.1314 683.973C81.3061 681.81 81.3061 679.636 81.1314 677.472C71.1194 674.612 71.2494 674.352 69.8625 664.881C67.6954 649.495 64.9648 634.195 62.386 618.852C57.0549 587.061 46.6529 556.418 38.1578 525.299C34.1704 510.476 29.9446 495.718 26.1955 480.852C22.4464 465.985 25.307 451.249 31.96 437.401C32.112 437.017 32.221 436.618 32.285 436.21C25.1119 429.427 17.5271 423.207 11.1125 415.991C-0.156424 403.291 -2.47522 388.469 2.44409 372.259C5.04461 363.807 6.95165 355.16 9.18376 346.622C9.18376 346.449 9.40048 346.275 9.35713 346.145C5.6514 333.511 15.2083 324.626 19.0874 314.311C23.0093 303.335 29.5041 293.459 38.0278 285.51C49.4051 275.216 63.2962 269.907 77.7724 265.876C85.0105 263.861 92.4219 262.43 99.5734 260.155C107.808 257.511 109.369 254.39 107.613 246.09C105.666 246.855 103.526 246.98 101.504 246.446C99.4814 245.912 97.6817 244.748 96.3661 243.122C94.6348 241.803 92.7032 240.772 90.6449 240.066C90.2115 239.849 89.583 240.066 89.1713 239.806C82.1282 235.732 75.0635 231.701 68.1071 227.518C66.0554 226.131 64.0804 224.634 62.1909 223.033C61.2808 222.317 60.0239 221.776 59.5254 220.865C56.6649 214.364 51.5505 209.337 48.8633 202.38C45.9377 194.817 44.8542 187.037 42.8388 179.409C41.7971 174.412 41.7383 169.259 42.6654 164.239C43.814 156.221 45.8944 148.355 47.5847 140.401C47.7364 139.751 47.5847 138.928 48.0398 138.473C53.0241 132.361 53.2842 123.541 60.6957 118.622C66.2434 114.916 70.6209 109.455 75.6703 104.926C77.0193 104.026 78.4753 103.298 80.0045 102.759C82.7567 101.394 85.5089 100.05 88.2611 98.6414C88.9496 98.1539 89.6741 97.7192 90.4282 97.3411C96.9295 95.3041 103.669 93.332 110.3 91.3383C111.128 91.2145 111.931 90.9661 112.684 90.6015C119.186 86.0289 127.095 86.744 133.965 87.7409C141.593 88.8678 150.067 87.2425 157.001 92.5735C158.54 93.7654 161.336 93.2453 163.286 93.9605C169.506 96.1276 176.787 97.2545 181.511 101.307C187.449 106.356 195.272 109.412 198.675 117.972C201.774 125.687 207.69 132.275 212.306 139.383C212.837 140.218 213.211 141.144 213.411 142.113C214.603 147.358 213.779 153.122 218.07 157.565C218.959 158.497 218.33 160.837 218.525 162.484C218.937 165.735 219.435 168.985 219.869 172.214C220.107 173.991 220.974 176.028 220.432 177.545C218.384 183.678 218.091 190.261 219.587 196.551C220.042 198.913 218.59 201.665 218.005 204.244C218.005 204.396 217.767 204.547 217.767 204.699C217.767 217.983 206.476 224.203 199.672 233.261C197.938 235.558 194.601 236.859 191.762 238.094C186.431 240.413 180.926 242.32 175.53 244.4C175.205 244.508 174.837 244.79 174.577 244.725C165.908 242.016 161.921 250.316 155.679 253.264C154.639 253.762 154.596 256.362 154.119 257.923C175.985 261.26 196.226 266.244 214.559 277.427C228.017 285.727 236.23 298.101 243.36 311.493C246.416 317.149 249.861 322.589 252.982 328.202C253.524 329.199 253.762 331.366 253.22 331.799C250.273 334.161 251.573 336.502 252.245 339.341C253.502 344.693 253.871 350.176 254.997 355.659C255.349 358.197 256.408 360.585 258.053 362.55C267.567 371.674 273.223 382.964 277.124 395.252C279.919 403.92 282.563 412.783 285.64 421.43C286.247 423.185 288.371 424.572 289.974 425.764C292.64 427.671 295.522 429.297 298.643 431.247L298.751 431.225ZM88.9546 475.282H89.7131C90.2949 471.987 90.6641 468.657 90.8183 465.314C90.6883 450.144 84.6854 437.141 74.9768 425.721C71.3578 421.387 67.9554 417.052 64.3797 412.718C57.0766 403.92 49.8168 395.078 42.362 386.41C39.7028 383.625 36.896 380.984 33.9537 378.5C34.2354 378.11 34.4955 377.698 34.7772 377.286L42.9471 381.62C46.2411 376.571 49.7301 371.544 52.9158 366.299C54.3894 363.829 53.0458 363.114 50.3803 362.68C44.6515 362.001 39.0176 360.678 33.5853 358.736C25.9788 355.637 18.849 351.411 10.9391 347.38C8.59866 357.262 6.06315 367.296 3.85271 377.416C0.710418 391.914 3.85271 404.548 14.3198 415.601C25.7968 427.306 38.5213 437.72 52.2657 446.655C62.386 453.525 68.8006 462.15 69.1257 474.827C69.4639 477.714 70.0882 480.559 70.9894 483.322L73.0264 483.105C72.4485 474.986 71.8562 466.867 71.2494 458.747L72.4413 458.422C73.6931 462.339 74.7134 466.326 75.4969 470.363C76.0701 474.192 76.0701 478.085 75.4969 481.914C75.2152 483.669 72.7664 485.078 71.3144 486.66C69.9086 485.251 68.7052 483.653 67.7387 481.914C67.1787 479.649 66.7875 477.345 66.5685 475.022C65.4849 469.93 64.2714 464.88 63.1011 459.853L61.7359 460.091C60.1322 471.88 57.8784 483.366 50.2286 493.117C47.5847 496.476 49.9035 502.588 54.3894 504.906C47.5414 506.597 52.9158 508.092 53.6092 509.761C52.8621 511.97 52.6613 514.327 53.0241 516.63C57.0766 534.856 61.8225 552.973 65.3332 571.306C69.2774 592.024 72.2896 612.936 75.3669 633.805C75.7715 638.795 75.8077 643.807 75.4753 648.801C73.5249 640.653 73.0264 632.505 71.7695 624.487C68.6706 604.679 65.615 584.851 61.8009 565.152C58.7019 549.267 54.6061 533.555 50.792 517.801C49.8578 514.837 48.721 511.94 47.3897 509.132L45.8077 509.327L49.5784 507.507L45.6994 504.256H47.0646C47.4289 502.945 47.5969 501.586 47.563 500.226C45.1159 483.407 44.6142 466.362 46.0678 449.429C46.1125 447.709 45.4734 446.041 44.2907 444.791C41.2568 442.082 37.7894 439.807 34.2787 437.163C27.3007 450.447 24.5268 464.23 27.7775 478.035C32.7834 499.987 39.3931 521.593 45.4393 543.307C49.8818 559.387 54.7578 575.337 58.9403 591.482C61.5625 601.646 63.4479 612.026 65.2899 622.363C67.9121 637.186 70.4476 652.03 72.463 666.94C73.0481 671.274 74.0666 673.441 78.5092 674.59C97.558 679.531 116.087 676.757 134.442 671.404C136.824 670.886 139.004 669.686 140.716 667.951C142.428 666.215 143.599 664.02 144.086 661.631C145.83 653.591 146.989 645.436 147.553 637.229C148.564 606.615 149.287 575.987 149.72 545.344C149.915 526.014 149.2 506.683 148.918 487.331C148.918 485.988 149.07 484.622 149.157 483.257H150.262C151.042 488.892 151.844 494.504 152.797 501.396L165.995 490.885L167.078 492.294C163.134 495.545 159.06 498.665 155.333 502.154C153.883 503.562 152.971 505.433 152.754 507.442C152.451 514.485 152.754 521.528 152.581 528.571C152.19 549.996 151.735 571.422 151.215 592.847C150.955 602.772 150.608 612.676 150.045 622.58C149.243 636.709 148.225 650.752 147.249 665.726C150.023 666.117 153.751 666.723 157.261 667.113C170.264 668.544 182.638 665.141 195.142 662.779C198.306 662.194 201.644 660.981 202.467 656.841C204.114 647.826 205.804 638.79 207.538 629.796C212.241 605.481 217.052 581.21 221.646 556.895C223.559 548.216 224.898 539.42 225.655 530.565C226.825 509.587 227.194 488.545 227.974 467.524C228.602 450.469 224.376 435.018 213.628 421.473C207.126 413.26 200.43 405.133 193.734 396.877C173.796 410.573 151.194 415.015 127.767 416.186C127.291 424.854 127.204 433.024 126.272 441.129C125.665 446.352 124.885 451.964 122.328 456.45C116.065 467.286 105.901 471.121 93.6572 469.8C91.1 481.849 84.9888 487.873 75.6703 486.595C84.0136 479.096 77.3389 469.539 79.1593 461.153H81.3264L83.1468 483.387C84.7103 479.213 85.6522 474.832 85.9423 470.385C85.93 465.843 85.6478 461.305 85.0972 456.797L87.0475 456.645C87.7627 462.865 88.4561 469.063 89.2146 475.282H88.9546ZM205.024 354.293L246.394 324.539C231.333 280.764 199.368 267.263 157.24 261.26C154.805 267.042 150.58 271.89 145.185 275.093C139.79 278.295 133.511 279.683 127.269 279.052C112.879 277.362 105.273 269.582 104.688 261.303C94.7407 263.926 84.6854 266.721 74.5651 269.192C42.6221 277.015 24.9169 298.946 15.4033 328.895C15.1743 329.966 15.2063 331.077 15.4967 332.133C15.7872 333.189 16.3274 334.16 17.072 334.963C29.6662 344.116 44.1752 350.289 59.5037 353.015C62.321 347.25 65.0732 341.681 67.8037 336.09L68.9956 336.523C68.3238 338.95 68.3022 341.854 66.8285 343.718C60.7823 351.65 61.7575 359.668 65.615 367.968C65.8294 368.597 65.996 369.242 66.1134 369.897C67.0886 373.581 66.9586 378.977 69.3424 380.537C71.7262 382.097 77.0356 380.97 80.9797 380.537C97.2546 378.37 113.486 375.878 129.804 373.732C142.092 372.129 154.401 369.962 166.84 372.54C175.292 374.274 183.765 375.964 192.65 377.763C193.755 372.085 194.926 366.061 196.096 360.08L191.978 358.173C203.746 353.448 207.278 344.13 208.08 333.858C208.473 328.769 207.724 323.656 205.886 318.895C204.049 314.133 201.17 309.842 197.461 306.336C202.64 307.744 205.219 311.58 207.17 315.741C213.368 328.895 211.504 341.616 205.003 354.293H205.024ZM107.505 202.944C107.817 202.182 108.077 201.4 108.285 200.603C112.034 186.04 120.659 175.66 134.94 170.654C147.618 166.19 159.19 168.14 168.422 178.607C179.539 191.198 180.601 206.476 178.586 221.949C177.676 228.754 173.926 235.19 171.153 242.601C174.403 241.605 177.784 240.694 181.1 239.502C184.083 238.534 186.982 237.324 189.768 235.883C192.961 234.182 195.993 232.195 198.826 229.946C202.394 227.05 205.754 223.907 208.882 220.54C210.51 218.724 211.775 216.613 212.609 214.321C213.628 211.547 213.454 208.231 214.776 205.652C216.135 203.39 216.955 200.845 217.173 198.214C217.391 195.584 217.001 192.938 216.033 190.483C215.39 187.454 215.716 184.301 216.965 181.468C218.417 177.502 219.132 174.056 216.64 170.177C215.621 168.574 215.946 166.081 215.751 163.979C215.556 161.877 216.206 159.927 215.426 158.432C212.719 154.032 211.335 148.947 211.439 143.782C211.547 142.352 209.51 140.813 208.643 139.231C206.888 135.937 205.479 132.426 203.507 129.284C199.628 123.13 195.467 117.148 191.372 111.146C191.046 110.69 190.136 110.69 189.573 110.344C188.143 109.499 186.149 108.892 185.455 107.613C180.688 98.9448 170.156 101.784 163.633 96.3876C160.685 93.9605 156.156 93.462 152.32 92.0534C151.186 91.4318 149.908 91.118 148.615 91.1433C146.729 91.7364 144.731 91.8827 142.779 91.5705C140.827 91.2584 138.974 90.4963 137.368 89.3446C136.674 88.8461 135.417 89.1279 134.42 89.1279C131.17 89.1279 127.919 88.9762 124.69 89.1279C122.395 89.2726 120.122 89.6575 117.907 90.2764C115.117 91.0379 112.374 91.9642 109.694 93.0503C102.542 95.8242 95.4342 98.6631 88.3045 101.524C86.1374 102.369 84.122 103.279 82.0849 104.298C79.9972 105.246 77.9897 106.362 76.082 107.635C73.913 109.288 71.8435 111.069 69.8841 112.966C65.5499 116.888 61.2158 120.811 57.1416 124.863C56.3831 125.6 56.2748 127.03 55.8414 128.027C54.9529 130.194 53.9993 132.253 53.1542 134.377C50.6403 140.878 48.1482 147.228 45.7427 153.664C45.4826 154.357 46.0244 155.311 46.0244 156.134C46.0244 158.301 46.0244 160.664 45.7644 162.917C45.4826 165.713 44.3774 168.552 44.7025 171.261C45.2226 175.725 47.6714 180.167 47.368 184.502C46.8479 192.13 51.4855 198.024 52.7424 204.959C53.0004 206.24 53.5824 207.434 54.4327 208.426C59.1353 213.822 61.7792 221.191 69.2123 224.073C69.9925 224.376 70.2525 225.763 70.9677 226.457C72.1162 227.583 73.2865 229.187 74.6734 229.447C79.6812 230.05 84.2777 232.518 87.546 236.36C88.0661 237.054 89.3663 237.097 90.2548 237.552C93.4489 238.812 96.5059 240.395 99.3783 242.276C100.482 243.422 101.984 244.099 103.574 244.168C105.163 244.236 106.718 243.691 107.917 242.645C107.267 238.094 108.285 231.116 105.576 229.1C99.5517 224.571 98.4898 218.482 96.9078 212.457C96.5989 210.916 96.6108 209.328 96.9426 207.792C97.2744 206.256 97.9192 204.805 98.8365 203.529C100.028 202.098 104.016 202.944 107.505 202.705V202.944ZM122.545 248.214L123 246.806C124.213 247.326 125.448 247.824 126.64 248.366C132.795 251.248 138.646 253.35 146.144 251.92C160.75 249.103 169.722 240.586 174.165 227.172C177.827 216.076 177.025 204.916 173.536 193.495C169.506 180.297 156.698 169.657 142.243 171.629C127.074 173.796 110.214 190.114 110.257 206.064C110.257 207.408 108.957 208.751 108.263 210.095C107.25 209.211 106.187 208.386 105.078 207.625C103.74 206.877 102.366 206.197 100.96 205.587C100.462 206.844 99.335 208.253 99.595 209.358C100.708 213.976 102.061 218.533 103.648 223.011C103.908 223.813 105.598 224.029 106.421 224.745C107.245 225.46 109.13 226.738 109.26 227.909C110.17 235.97 110.821 244.075 111.427 252.158C111.465 253.457 111.102 254.736 110.387 255.821C106.226 262.127 109.845 268.975 114.721 271.879C118.728 274.259 123.24 275.661 127.891 275.97C132.541 276.279 137.199 275.486 141.485 273.656C146.036 271.966 150.695 269.842 152.32 264.988C153.339 261.975 152.494 258.335 152.494 254.585C140.748 256.297 130.52 256.493 122.588 248.084L122.545 248.214ZM285.575 435.624L286.941 434.498C289.108 437.011 292.207 439.265 292.878 442.126C293.55 444.986 291.838 448.627 290.711 453.59C294.655 449.906 297.668 447.218 300.463 444.336C300.698 443.9 300.822 443.412 300.822 442.917C300.822 442.421 300.698 441.933 300.463 441.497C297.061 436.491 295.782 429.73 288.718 427.606C286.526 426.973 284.673 425.501 283.56 423.51C281.263 417.724 279.594 411.678 277.795 405.697C272.941 389.595 267.307 373.949 254.347 362.203C253.189 361.073 252.429 359.598 252.18 357.999C251.357 351.303 250.793 344.585 250.013 336.177L207.191 367.621C214.977 375.484 220.901 384.992 224.528 395.447C229.469 408.774 240.586 417.659 250.967 426.956C257.316 432.634 266.505 437.055 264.403 448.324C264.251 449.19 265.313 450.296 265.898 451.444L287.071 438.897C286.529 437.9 286.03 436.925 285.51 435.95L285.575 435.624ZM81.8032 688.113C82.3233 696.629 82.54 705.449 83.5152 714.118C83.9082 719.388 85.1905 724.553 87.3076 729.396C93.0937 741.12 102.477 750.221 111.904 758.955C121.331 767.688 133.012 769.379 143.457 763.939C145.751 762.874 147.589 761.024 148.638 758.723C149.687 756.422 149.879 753.822 149.178 751.392C147.184 745.952 144.952 740.556 142.547 735.312C137.346 723.913 131.711 712.731 133.987 699.533C134.615 695.936 134.637 692.252 134.854 689.586H96.1927V711.149C94.8274 709.849 94.4157 709.653 94.4157 709.437C94.264 706.75 94.1123 704.062 94.1123 701.375C94.1123 689.5 94.1123 689.499 82.8217 687.679C82.6917 687.679 82.5183 687.788 81.7382 688.113H81.8032ZM141.593 677.906C141.593 689.933 141.333 700.942 141.767 711.929C141.92 715.174 143.245 718.253 145.494 720.597C153.642 727.77 162.484 734.142 170.806 741.12C179.691 748.553 189.334 750.178 200.408 747.036C211.049 744.002 215.123 737.414 211.374 727.229C210.551 725.243 209.377 723.422 207.907 721.854C203.291 716.523 198.545 711.279 193.799 706.078C191.903 704.183 190.455 701.887 189.563 699.36C188.67 696.832 188.355 694.137 188.641 691.472C189.248 685.967 189.985 680.484 190.7 674.633C188.781 676.014 186.681 677.122 184.459 677.927C176.693 679.642 168.835 680.909 160.924 681.72C156.395 682.088 154.162 682.825 154.661 687.918C155.073 692.447 154.661 697.084 154.661 701.657H153.101C150.608 695.156 153.664 688.134 152.451 681.308L141.507 677.819L141.593 677.906ZM128.352 413.433C144.844 411.765 161.227 410.876 176.397 403.14C170.741 401.081 166.45 397.614 166.992 391.416C167.447 386.41 169.397 381.534 170.784 376.246C158.908 373.882 146.697 373.736 134.767 375.813C121.201 377.98 107.592 379.648 93.9823 381.49C85.5956 382.617 77.2089 383.658 68.8873 384.741C68.5839 387.797 68.2805 390.549 68.0638 392.673C73.5032 392.283 78.8993 391.784 84.0786 391.524C96.4744 390.852 108.87 390.094 121.288 389.812C126.77 389.682 128.417 391.979 128.352 397.787C128.352 402.945 128.352 408.081 128.352 413.477V413.433ZM345.344 443.816C344.005 440.034 342.457 436.33 340.706 432.721C336.892 425.851 333.793 418.028 328.31 412.783C323.586 408.254 316.045 406.499 309.522 404.115C307.571 403.421 304.862 404.743 302.5 405.155L302.37 406.889C308.872 412.242 319.707 410.096 324.366 419.241C316.045 414.712 307.441 411.548 297.516 412.74C304.971 417.768 306.184 427.021 313.097 433.002C318.97 438.16 321.506 447.088 325.471 454.261C328.584 451.915 331.825 449.745 335.18 447.76C338.487 446.233 341.88 444.901 345.344 443.773V443.816ZM82.54 410.66C85.8123 409.793 89.0413 407.951 90.2982 408.839C92.2702 410.161 92.9637 413.433 94.4807 416.359C101.112 417.291 122.415 401.709 123.043 392.218L72.7447 394.385C76.5371 400.691 79.8311 406.152 82.54 410.703V410.66ZM96.0193 431.485C96.0193 439.98 95.8243 447.609 96.1927 455.215C96.1927 456.71 98.9882 459.549 99.9201 459.246C104.254 458.249 108.957 457.295 112.294 454.695C120.182 448.562 118.926 439.287 119.467 430.098C111.536 433.306 104.298 436.123 96.0193 431.485V431.485ZM60.3706 358.108L44.6591 384.351L60.0238 402.446C71.011 387.775 63.903 373.689 60.2839 358.064L60.3706 358.108ZM133.618 675.088C116.802 677.754 101.112 682.673 84.6854 677.927C83.0601 684.602 83.7102 685.685 90.0381 686.097C101.177 686.834 112.294 687.636 123.433 687.918C126.294 687.918 130.433 687.202 131.82 685.252C133.553 682.803 133.098 678.751 133.618 675.088V675.088ZM116.542 424.529C121.959 425.287 123.043 428.43 122.371 432.591C121.959 435.559 121.678 438.55 121.374 441.541C119.987 455.432 111.059 462.973 97.2546 461.283C93.9389 460.893 93.6355 462.453 93.7872 464.425C93.7872 465.53 95.3475 467.372 96.2794 467.416C99.2867 467.531 102.297 467.299 105.251 466.722C112.944 465.27 121.656 456.862 122.436 449.386C123.758 436.621 124.603 423.792 125.405 410.985C125.709 406.477 125.405 401.926 125.405 396.899L111.622 411.938C117.625 414.105 118.861 418.439 116.498 424.551L116.542 424.529ZM252.527 331.712C249.818 326.771 247.304 326.771 244.162 329.133C239.611 332.557 234.909 335.765 230.314 339.145C221.017 345.972 211.656 352.755 202.532 359.798C201.34 360.73 201.319 363.157 200.755 364.891C202.532 364.891 204.786 365.519 205.978 364.695C221.516 353.86 236.902 342.83 252.527 331.712ZM192.672 395.013C192.238 391.459 191.133 388.772 191.762 386.561C193.192 381.599 190.375 380.472 186.734 379.562C185.433 379.251 184.152 378.86 182.898 378.392C179.344 377.005 175.855 376.831 173.19 379.93C170.221 383.398 167.62 387.212 169.441 392.174C171.413 397.635 172.908 400.951 179.799 399.694C184.223 398.527 188.532 396.96 192.672 395.013V395.013ZM58.6586 355.724C41.3218 352.3 26.3688 344.52 12.5644 334.443C9.29213 339.774 9.29212 342.049 13.4746 345.018C24.8302 353.08 37.3127 358.844 51.2254 360.296C54.4111 360.643 57.7267 360.166 58.6586 355.724V355.724ZM146.513 667.98C146.513 675.868 147.683 677.819 154.163 678.534C164.419 679.959 174.869 678.712 184.502 674.915C186.252 674.444 187.76 673.33 188.724 671.795C189.689 670.26 190.038 668.418 189.703 666.637C175.443 669.541 161.249 671.903 146.361 667.98H146.513ZM47.9965 490.062L49.6001 490.43C55.8929 480.478 59.3197 468.983 59.5037 457.209C59.4389 456.554 59.2399 455.92 58.9193 455.346C58.5986 454.772 58.1632 454.27 57.64 453.871C54.8228 451.704 51.7889 449.797 47.9965 447.24V490.062ZM261.109 470.038C262.452 465.4 262.474 461.37 264.489 459.202C268.065 455.716 272.15 452.794 276.603 450.534C280.105 448.887 283.727 447.511 287.439 446.417C288.457 446.027 289.953 445.875 290.321 445.16C290.69 444.445 290.625 442.212 290.061 441.909C289.489 441.678 288.874 441.572 288.257 441.599C287.64 441.625 287.036 441.782 286.485 442.061C283.95 443.361 281.631 445.051 279.182 446.525C270.08 452.073 260.957 457.599 251.942 463.06C255.474 472.097 257.186 472.92 261.087 469.908L261.109 470.038ZM144.606 670.104L143.089 669.237C136.436 673.29 134.139 677.906 135.482 683.627C136.193 686.695 136.527 689.839 136.479 692.989C136.262 702.719 133.098 712.687 139.34 721.811C139.473 721.234 139.56 720.647 139.6 720.056C139.6 707.053 139.6 694.05 139.86 681.048C140.024 678.961 140.583 676.924 141.507 675.045C142.406 673.345 143.442 671.722 144.606 670.191V670.104ZM299.531 434.108C302.999 438.442 305.491 442.776 301.85 447.999C302.5 447.999 302.847 447.999 303.064 447.869C305.556 446.2 308.07 444.553 310.518 442.798C314.983 439.634 314.744 436.448 310.258 433.154C306.466 430.358 303.215 430.835 299.531 434.108ZM93.0721 452.701V429.145L83.3418 431.074L93.0721 452.593V452.701ZM104.081 430.922C108.003 431.052 111.947 432.482 111.536 426.414C111.536 425.266 113.074 424.031 113.876 422.795C116.455 418.895 115.697 416.576 112.229 415.536C111.768 417.865 111.041 420.134 110.062 422.297C109.465 422.671 108.787 422.894 108.084 422.947C107.382 423 106.677 422.881 106.031 422.6C104.725 420.372 103.644 418.02 102.802 415.579C94.9141 421.148 106.356 425.526 104.168 430.922H104.081ZM77.8591 408.189L71.6828 396.682L70.4259 397.18C70.2742 406.13 68.3672 415.471 77.1439 422.644L80.0478 420.476C72.1596 416.142 72.463 411.483 77.8807 408.276L77.8591 408.189ZM86.5491 429.318C87.9361 422.189 88.9979 416.684 90.0598 411.158C86.9175 412.35 84.9888 413.628 83.0818 413.628C81.1035 413.279 79.1985 412.597 77.4473 411.613L76.3421 412.913C77.1873 414.279 77.7074 416.402 78.9209 416.879C80.62 417.384 82.0845 418.476 83.053 419.961C84.0215 421.445 84.4311 423.226 84.2086 424.984C84.2086 426.154 85.4656 427.368 86.5491 429.318ZM345.105 447.912C344.867 447.478 344.65 447.045 344.434 446.612L326.815 455.648C333.836 458.141 340.836 454.608 345.105 447.912ZM285.12 449.884C285.12 450.036 282.758 451.683 282.953 452.484C283.745 454.99 285.197 457.236 287.157 458.986C288.219 459.853 290.82 458.791 292.727 458.596C292.553 457.664 292.727 456.429 292.142 455.822C290.256 453.958 288.111 452.333 285.055 449.797L285.12 449.884ZM278.901 464.772L271.034 455.193C271.034 458.292 270.037 460.958 271.034 462.518C271.371 463.221 271.856 463.844 272.455 464.343C273.053 464.843 273.753 465.207 274.505 465.413C275.257 465.619 276.045 465.66 276.814 465.534C277.584 465.409 278.318 465.119 278.966 464.685L278.901 464.772ZM278.814 452.008L277.167 451.878C277.059 454.045 276.105 456.624 277.037 457.946C278.934 459.944 281.126 461.64 283.538 462.973L284.275 461.933C282.433 458.617 280.613 455.302 278.771 452.008H278.814ZM64.163 400.908C60.5873 404.96 60.934 405.957 67.8687 411.375C67.0452 407.561 70.2959 402.836 64.163 400.908ZM266.223 461.37L265.118 461.521C265.378 463.558 264.944 466.224 266.093 467.481C267.242 468.738 270.015 468.889 273.374 469.908L266.223 461.37ZM96.9295 424.529H98.2514C97.8397 422.687 97.4279 420.823 97.0379 419.003L89.0846 418.288L96.9295 424.507" fill="black"/>
<path d="M98.3412 632.872C99.8798 637.054 101.44 641.258 103.109 645.874C99.4898 644.206 97.3877 639.2 98.3412 632.872Z" fill="black"/>
<path d="M125.703 631.203C125.464 635.818 125.204 640.456 124.966 645.072L123.081 644.942L123.926 631.094L125.703 631.203" fill="black"/>
<path d="M84.9817 646.479C83.6165 642.448 82.2295 638.439 80.8643 634.43L82.4246 633.867C83.8693 637.811 85.314 641.755 86.7588 645.699L84.9817 646.479Z" fill="black"/>
<path d="M177.451 622.21V633.934L176.15 634.043L175.587 622.275H177.451" fill="black"/>
<path d="M120.823 360.018C142.234 350.201 146.828 334.619 136.946 313.36C144.206 318.713 146.416 335.378 142.97 342.898C139.243 351.002 129.534 361.968 120.823 360.018Z" fill="black"/>
<path d="M68.6374 172.796C68.334 175.96 68.1173 178.235 67.8356 181.247L74.6836 176.913C75.7021 178.777 76.8507 180.641 77.9559 182.829C80.7514 177.823 84.2838 179.817 87.7511 183.653C87.7511 183.653 86.6026 185.56 86.2559 185.452C84.7908 184.78 83.4029 183.952 82.1167 182.981C80.5781 183.609 78.3243 185.386 77.0457 184.845C75.7671 184.303 74.8786 181.551 73.8167 179.405C71.6496 179.622 70.3494 186.643 66.7737 181.334C66.2565 180.682 65.8908 179.922 65.7033 179.111C65.5158 178.3 65.5111 177.457 65.6895 176.644C65.8679 175.831 66.225 175.068 66.7348 174.41C67.2447 173.751 67.8946 173.215 68.6374 172.839" fill="black"/>
<path d="M74.8674 133.073C78.5298 131.773 80.7836 131.795 79.3966 136.476C79.0716 137.537 79.895 138.924 79.3966 141.091L74.8241 136.302C72.0068 137.082 70.7716 135.392 72.5269 131.968C70.8149 130.429 68.0194 128.587 68.1928 128.002C69.3584 125.912 70.818 124 72.5269 122.324L73.7188 123.365C72.7003 124.708 71.5518 126.052 70.1431 128.002C74.4773 127.525 77.2945 128.176 74.8674 133.073Z" fill="black"/>
<path d="M77.0199 166.041C76.7598 167.428 76.4781 168.815 76.3481 169.508L82.1126 170.483C82.1126 171.047 81.9825 171.589 81.8959 172.152L84.9948 171.328L90.5209 176.161C89.3723 176.334 87.682 177.115 86.4034 176.681C83.6079 175.771 81.1374 173.864 78.3418 173.019C73.3792 171.524 73.1191 171.133 77.0199 166.041Z" fill="black"/>
<path d="M195.147 187.992C194.15 189.855 193.63 192.326 192.264 192.933C190.899 193.539 188.992 192.066 187.302 191.546C187.453 191.069 187.583 190.614 187.714 190.137L191.744 191.026C193.305 188.663 190.271 181.122 196.945 185.044L203.208 176.528C204.097 181.707 198.636 188.187 195.147 187.992" fill="black"/>
<path d="M77.8878 126.508L82.8287 122.174L84.3023 123.799L81.7018 125.121L88.7449 135.956L87.9647 137.278C86.2395 135.816 84.3308 134.585 82.2869 133.616C79.0146 132.554 85.1042 126.183 76.3491 128.913L77.8878 126.508Z" fill="black"/>
<path d="M77.8292 218.413C76.2255 219.193 74.0367 220.58 73.7334 220.363C72.4676 218.77 71.3846 217.04 70.5044 215.206L71.9347 214.404L73.9284 217.546L77.2874 213.862L79.7795 216.918L84.6555 217.264C83.5286 218.76 82.4884 220.233 81.0148 222.097C79.3678 220.212 78.3276 219.02 77.8292 218.413Z" fill="black"/>
<path d="M141.168 105.964L139 100.893L143.573 99.2456C143.768 99.7874 143.941 100.307 144.115 100.849L141.189 102.41C144.05 103.666 145.935 104.793 144.18 108.521C143.681 109.604 146.542 112.855 143.638 115.325C142.685 112.053 141.839 109.214 141.016 106.354V105.964" fill="black"/>
<path d="M185.314 135.522C187.914 138.578 187.763 139.271 182.757 142.673C187.719 148.59 179.203 149.738 178.553 154.657C177.946 153.596 177.101 152.642 177.274 152.36C179.948 148.839 181.699 144.704 182.367 140.333C182.54 138.621 184.317 137.061 185.314 135.522Z" fill="black"/>
<path d="M127.807 140.399L127.006 143.151L135.089 154.94L133.94 155.742C132.12 153.401 126.529 153.856 129.259 148.417C123.538 145.708 123.127 143.866 127.894 140.399" fill="black"/>
<path d="M141.101 156.483C140.3 153.21 133.061 153.059 137.071 148.031C135.749 146.406 134.188 145.214 133.82 143.697C133.582 142.786 135.142 141.53 135.987 140.251L137.201 140.944L136.529 142.721L142.38 155.811L141.101 156.396" fill="black"/>
<path d="M208.303 181.557C208.164 184.921 206.781 188.113 204.423 190.515C202.065 192.917 198.899 194.359 195.539 194.56L203.058 188.557C203.595 187.392 204.218 186.27 204.922 185.198C205.968 183.891 207.097 182.653 208.303 181.492" fill="black"/>
<path d="M182.914 155.112C185.189 149.456 187.443 143.8 189.718 138.122C191.192 144.884 186.663 149.825 184.777 155.459L182.914 155.004" fill="black"/>
<path d="M138.316 119.638L132.833 107.069L135.542 104.035C136.344 107.242 136.322 110.536 137.926 112.703C139.898 115.347 141.653 117.037 138.316 119.616" fill="black"/>
<path d="M86.5899 212.85C83.3867 212.791 80.1954 212.442 77.0547 211.81C76.1445 211.571 75.9062 208.862 75.2344 206.869L86.85 211.203L86.5899 212.85Z" fill="black"/>
<path d="M142.432 237.36C139.138 236.276 135.692 235.192 132.355 233.936C131.618 233.654 131.207 232.505 130.643 231.768C131.575 231.595 132.68 230.988 133.395 231.313C140.098 234.13 147.63 234.246 154.416 231.638C155.413 231.292 156.757 231.898 157.927 232.072C157.168 232.895 156.54 234.239 155.63 234.434C151.296 235.561 147.113 236.384 142.432 237.381" fill="black"/>
<path d="M130.308 197.508C128.032 197.941 125.757 198.44 123.46 198.787C122.636 198.787 121.292 198.917 121.011 198.461C120.79 198.041 120.661 197.578 120.631 197.104C120.601 196.63 120.671 196.154 120.837 195.709C122.441 191.96 131.348 190.552 134.035 193.542C134.555 194.127 134.772 195.709 134.36 196.186C133.249 197.068 132.025 197.797 130.719 198.353C130.589 198.05 130.438 197.768 130.308 197.486" fill="black"/>
<path d="M165.998 198.304C161.209 198.933 158.197 199.344 155.163 199.691C154.274 199.691 152.996 200.038 152.584 199.691C152.305 199.309 152.125 198.863 152.061 198.394C151.997 197.925 152.05 197.447 152.216 197.004C153.148 195.491 154.57 194.342 156.245 193.747C157.92 193.152 159.748 193.146 161.426 193.732C163.181 194.165 164.416 196.722 165.977 198.413" fill="black"/>
<path d="M145.891 212.156C148.286 213.48 150.512 215.088 152.523 216.945C153.069 217.532 153.48 218.231 153.727 218.994C153.973 219.756 154.05 220.564 153.951 221.359C153.852 222.155 153.579 222.919 153.153 223.598C152.726 224.277 152.156 224.854 151.483 225.288C149.467 226.935 146.932 227.195 145.371 223.359L150.464 222.449C152.761 217.682 141.362 216.707 145.891 212.156" fill="black"/>
<path d="M119.948 205.656C122.7 204.377 125.387 202.318 128.226 202.08C128.974 201.94 129.743 201.961 130.481 202.144C131.219 202.327 131.91 202.666 132.506 203.138C133.101 203.611 133.589 204.206 133.935 204.883C134.281 205.561 134.477 206.305 134.511 207.064C133.795 207.216 132.907 207.693 132.647 207.454C129.461 204.681 126.557 204.03 123.567 207.801C123.198 208.256 121.508 207.649 120.425 207.541C120.251 206.913 120.099 206.284 119.948 205.656" fill="black"/>
<path d="M166.956 209.595C162.319 205.26 158.288 203.938 153.954 209.595C153.954 204.545 155.839 202.638 159.588 202.465C163.337 202.292 166.219 203.527 166.891 209.573" fill="black"/>
<path d="M185.531 388.077C183.364 389.312 182.193 390.677 181.045 390.569C179.896 390.46 179.073 388.813 178.098 387.838C179.21 386.632 180.504 385.609 181.933 384.804C182.475 384.609 183.775 386.43 185.531 388.077Z" fill="black"/>
<mask id="path-28-inside-1_1586_7104" fill="white">
<path fill-rule="evenodd" clip-rule="evenodd" d="M255.428 75C299.847 75 335.855 58.2107 335.855 37.5C335.855 16.7893 299.847 0 255.428 0C211.009 0 175 16.7893 175 37.5C175 47.8294 183.957 57.1834 198.447 63.9655L199.008 75.434C199.158 78.5095 202.581 80.2691 205.17 78.6012L217.318 70.7732C217.406 70.7163 217.491 70.6568 217.573 70.595C228.855 73.4062 241.742 75 255.428 75Z"/>
</mask>
<path d="M198.447 63.9655L200.445 63.8679L200.386 62.6647L199.295 62.1541L198.447 63.9655ZM199.008 75.434L197.01 75.5316V75.5316L199.008 75.434ZM205.17 78.6012L206.253 80.2823L205.17 78.6012ZM217.318 70.7732L218.401 72.4544L218.401 72.4544L217.318 70.7732ZM217.573 70.595L218.056 68.6544L217.13 68.4235L216.368 68.9988L217.573 70.595ZM333.855 37.5C333.855 46.6158 325.851 55.4907 311.453 62.2039C297.218 68.841 277.412 73 255.428 73V77C277.862 77 298.27 72.7643 313.144 65.8292C327.855 58.97 337.855 49.0949 337.855 37.5H333.855ZM255.428 2C277.412 2 297.218 6.159 311.453 12.7961C325.851 19.5093 333.855 28.3842 333.855 37.5H337.855C337.855 25.9051 327.855 16.03 313.144 9.17085C298.27 2.23566 277.862 -2 255.428 -2V2ZM177 37.5C177 28.3842 185.004 19.5093 199.402 12.7961C213.637 6.159 233.443 2 255.428 2V-2C232.994 -2 212.586 2.23566 197.712 9.17085C183 16.03 173 25.9051 173 37.5H177ZM199.295 62.1541C184.963 55.4459 177 46.5927 177 37.5H173C173 49.0661 182.951 58.9209 197.6 65.7769L199.295 62.1541ZM201.005 75.3364L200.445 63.8679L196.45 64.0631L197.01 75.5316L201.005 75.3364ZM204.086 76.92C202.792 77.7539 201.081 76.8742 201.005 75.3364L197.01 75.5316C197.236 80.1449 202.371 82.7842 206.253 80.2823L204.086 76.92ZM216.234 69.0921L204.086 76.92L206.253 80.2823L218.401 72.4544L216.234 69.0921ZM216.368 68.9988C216.326 69.0307 216.281 69.0618 216.234 69.0921L218.401 72.4544C218.531 72.3708 218.656 72.283 218.778 72.1913L216.368 68.9988ZM255.428 73C241.893 73 229.169 71.4233 218.056 68.6544L217.089 72.5357C228.541 75.3891 241.591 77 255.428 77V73Z" fill="black" mask="url(#path-28-inside-1_1586_7104)"/>
<path d="M231.168 44.9453C231.159 44.9089 231.15 44.8496 231.141 44.7676C231.132 44.6764 231.118 44.5853 231.1 44.4941C231.09 44.3939 231.081 44.2982 231.072 44.207C231.063 44.1159 231.059 44.0521 231.059 44.0156C231.059 43.9792 231.054 43.888 231.045 43.7422C231.036 43.5872 231.027 43.4232 231.018 43.25C231.018 43.0768 231.013 42.9173 231.004 42.7715C230.995 42.6257 230.99 42.5345 230.99 42.498C230.99 42.3978 230.977 42.2793 230.949 42.1426C230.931 42.0059 230.908 41.8828 230.881 41.7734C230.863 41.6823 230.84 41.5137 230.812 41.2676C230.785 41.0215 230.753 40.7617 230.717 40.4883C230.689 40.2148 230.662 39.9596 230.635 39.7227C230.607 39.4766 230.589 39.3034 230.58 39.2031C230.571 39.1849 230.562 39.1348 230.553 39.0527C230.544 38.9616 230.53 38.8978 230.512 38.8613C230.512 38.8431 230.503 38.7975 230.484 38.7246C230.475 38.6882 230.466 38.6562 230.457 38.6289H230.416C230.352 38.8659 230.27 39.0983 230.17 39.3262C230.07 39.554 229.992 39.7865 229.938 40.0234C229.938 40.0508 229.924 40.1191 229.896 40.2285C229.878 40.3288 229.855 40.4382 229.828 40.5566C229.801 40.6751 229.773 40.7845 229.746 40.8848C229.728 40.985 229.714 41.0488 229.705 41.0762C229.696 41.1217 229.664 41.2311 229.609 41.4043C229.564 41.5684 229.509 41.7461 229.445 41.9375C229.382 42.1289 229.322 42.3066 229.268 42.4707C229.222 42.6348 229.195 42.735 229.186 42.7715C229.067 43.1634 228.967 43.5371 228.885 43.8926C228.803 44.248 228.661 44.599 228.461 44.9453C228.461 44.9453 228.452 44.9544 228.434 44.9727C228.424 44.9818 228.42 44.9909 228.42 45H226.424C226.406 45 226.374 44.9863 226.328 44.959C226.292 44.9316 226.264 44.9089 226.246 44.8906C225.973 44.2799 225.708 43.6693 225.453 43.0586C225.207 42.4479 224.965 41.8281 224.729 41.1992C224.719 41.181 224.701 41.1309 224.674 41.0488C224.646 40.9668 224.615 40.8802 224.578 40.7891C224.542 40.6979 224.51 40.6113 224.482 40.5293C224.455 40.4473 224.441 40.3971 224.441 40.3789C224.432 40.3698 224.414 40.3379 224.387 40.2832C224.368 40.2285 224.346 40.1738 224.318 40.1191C224.291 40.0645 224.264 40.0143 224.236 39.9688C224.218 39.9141 224.204 39.8776 224.195 39.8594C224.141 39.7044 224.09 39.5449 224.045 39.3809C223.999 39.2168 223.936 39.0664 223.854 38.9297L223.799 39.0391L223.635 40.4473V40.625L223.143 44.3027C223.124 44.3665 223.115 44.4349 223.115 44.5078C223.115 44.5807 223.111 44.6536 223.102 44.7266C223.102 44.7995 223.092 44.8678 223.074 44.9316C223.065 44.9954 223.033 45.041 222.979 45.0684C222.96 45.0684 222.906 45.082 222.814 45.1094C222.723 45.1458 222.66 45.1686 222.623 45.1777C222.587 45.1868 222.532 45.2005 222.459 45.2188C222.386 45.237 222.34 45.2461 222.322 45.2461H220.695L220.572 45.1777C220.563 45.1322 220.559 45.0911 220.559 45.0547V44.8906C220.559 44.5078 220.604 44.1296 220.695 43.7559C220.796 43.373 220.873 42.9902 220.928 42.6074C220.937 42.5527 220.955 42.4206 220.982 42.2109C221.01 41.9922 221.037 41.7552 221.064 41.5C221.101 41.2448 221.133 40.9987 221.16 40.7617C221.188 40.5156 221.21 40.3288 221.229 40.2012C221.229 40.1829 221.229 40.1419 221.229 40.0781C221.238 40.0052 221.242 39.9323 221.242 39.8594C221.251 39.7773 221.256 39.7044 221.256 39.6406C221.265 39.5677 221.27 39.5221 221.27 39.5039C221.288 39.349 221.32 39.194 221.365 39.0391C221.411 38.875 221.438 38.7155 221.447 38.5605V38.041C221.447 38.0228 221.465 37.9818 221.502 37.918C221.538 37.8542 221.561 37.8177 221.57 37.8086C221.616 37.6263 221.652 37.4212 221.68 37.1934C221.707 36.9655 221.73 36.7604 221.748 36.5781C221.748 36.5599 221.743 36.5052 221.734 36.4141C221.734 36.3138 221.739 36.2546 221.748 36.2363C221.748 36.2181 221.757 36.1953 221.775 36.168C221.794 36.1406 221.803 36.1224 221.803 36.1133C221.848 35.9401 221.871 35.7806 221.871 35.6348C221.88 35.4889 221.898 35.3158 221.926 35.1152C221.926 35.0788 221.93 35.0195 221.939 34.9375C221.949 34.8555 221.958 34.7689 221.967 34.6777C221.985 34.5775 221.999 34.4863 222.008 34.4043C222.026 34.3223 222.04 34.2676 222.049 34.2402C222.067 34.1673 222.113 34.1081 222.186 34.0625C222.268 34.0078 222.354 33.9622 222.445 33.9258C222.546 33.8893 222.641 33.8665 222.732 33.8574C222.833 33.8392 222.915 33.8301 222.979 33.8301H224.496L224.523 33.8574L224.551 33.8848C224.578 33.9212 224.615 33.985 224.66 34.0762C224.706 34.1673 224.729 34.222 224.729 34.2402C224.729 34.2585 224.733 34.2949 224.742 34.3496C224.76 34.3952 224.774 34.4453 224.783 34.5C224.801 34.5547 224.815 34.6094 224.824 34.6641C224.833 34.7188 224.842 34.7507 224.852 34.7598C224.87 34.8236 224.906 34.8828 224.961 34.9375C224.961 35.1016 224.984 35.2702 225.029 35.4434C225.075 35.6165 225.13 35.7943 225.193 35.9766C225.257 36.1497 225.321 36.3229 225.385 36.4961C225.449 36.6693 225.503 36.8333 225.549 36.9883C225.567 36.9974 225.585 37.0156 225.604 37.043C225.631 37.0703 225.654 37.0931 225.672 37.1113C225.681 37.1296 225.69 37.1797 225.699 37.2617C225.717 37.3346 225.727 37.3802 225.727 37.3984C225.745 37.444 225.772 37.526 225.809 37.6445C225.854 37.763 225.882 37.8359 225.891 37.8633C225.909 37.8724 225.932 37.8997 225.959 37.9453C225.986 37.9909 226.005 38.0228 226.014 38.041C226.032 38.0592 226.046 38.0911 226.055 38.1367C226.064 38.1732 226.068 38.196 226.068 38.2051C226.105 38.278 226.173 38.4102 226.273 38.6016C226.374 38.793 226.474 38.998 226.574 39.2168C226.684 39.4264 226.784 39.627 226.875 39.8184C226.966 40.0007 227.03 40.1283 227.066 40.2012C227.076 40.2194 227.094 40.2695 227.121 40.3516C227.158 40.4336 227.18 40.4837 227.189 40.502C227.189 40.5111 227.194 40.5339 227.203 40.5703C227.221 40.5977 227.235 40.6159 227.244 40.625C227.335 40.4974 227.385 40.3607 227.395 40.2148C227.413 40.069 227.445 39.9323 227.49 39.8047C227.49 39.7956 227.499 39.7773 227.518 39.75C227.536 39.7135 227.545 39.6908 227.545 39.6816C227.554 39.6725 227.563 39.6452 227.572 39.5996C227.581 39.554 227.586 39.5221 227.586 39.5039C227.695 39.1576 227.796 38.8021 227.887 38.4375C227.987 38.0638 228.087 37.6947 228.188 37.3301C228.188 37.3118 228.192 37.2572 228.201 37.166C228.219 37.0658 228.233 37.0065 228.242 36.9883C228.242 36.9792 228.251 36.9473 228.27 36.8926C228.288 36.8379 228.306 36.7832 228.324 36.7285C228.342 36.6647 228.361 36.61 228.379 36.5645C228.397 36.5098 228.411 36.4733 228.42 36.4551C228.42 36.4368 228.424 36.3913 228.434 36.3184C228.452 36.2363 228.461 36.1862 228.461 36.168C228.479 36.1497 228.511 36.0905 228.557 35.9902C228.611 35.89 228.639 35.8307 228.639 35.8125C228.648 35.7943 228.661 35.7533 228.68 35.6895C228.707 35.6165 228.734 35.5436 228.762 35.4707C228.789 35.3887 228.812 35.3158 228.83 35.252C228.857 35.179 228.876 35.1335 228.885 35.1152C228.885 35.097 228.898 35.056 228.926 34.9922C228.953 34.9193 228.985 34.8464 229.021 34.7734C229.058 34.6914 229.09 34.6185 229.117 34.5547C229.154 34.4818 229.176 34.4362 229.186 34.418C229.186 34.4089 229.195 34.3815 229.213 34.3359C229.231 34.2812 229.249 34.2311 229.268 34.1855C229.286 34.1309 229.304 34.0807 229.322 34.0352C229.34 33.9896 229.354 33.9577 229.363 33.9395C229.363 33.9303 229.377 33.9121 229.404 33.8848C229.432 33.8483 229.45 33.8301 229.459 33.8301C229.669 33.7845 229.878 33.7617 230.088 33.7617C230.307 33.7617 230.521 33.7617 230.73 33.7617H231.455C231.583 33.7799 231.683 33.8392 231.756 33.9395C231.829 34.0397 231.888 34.14 231.934 34.2402L232.166 34.9375C232.166 34.9557 232.171 34.9876 232.18 35.0332C232.198 35.0788 232.212 35.1289 232.221 35.1836C232.239 35.2292 232.253 35.2793 232.262 35.334C232.271 35.3796 232.28 35.4069 232.289 35.416C232.289 35.4251 232.303 35.4616 232.33 35.5254C232.367 35.5892 232.385 35.6257 232.385 35.6348C232.394 35.6621 232.394 35.735 232.385 35.8535C232.385 35.9629 232.385 36.0312 232.385 36.0586C232.43 36.5234 232.521 36.9837 232.658 37.4395C232.795 37.8861 232.904 38.3418 232.986 38.8066C232.986 38.8249 232.986 38.8613 232.986 38.916C232.995 38.9616 233.005 39.0117 233.014 39.0664C233.023 39.1211 233.027 39.1758 233.027 39.2305C233.036 39.2852 233.041 39.3171 233.041 39.3262C233.041 39.3626 233.046 39.4219 233.055 39.5039C233.073 39.5768 233.087 39.6543 233.096 39.7363C233.114 39.8092 233.128 39.8822 233.137 39.9551C233.146 40.0189 233.155 40.0599 233.164 40.0781C233.292 40.7982 233.401 41.5137 233.492 42.2246C233.583 42.9355 233.629 43.6556 233.629 44.3848V45.2461C233.574 45.2461 233.474 45.2507 233.328 45.2598C233.191 45.2689 233.046 45.278 232.891 45.2871C232.736 45.3053 232.59 45.319 232.453 45.3281C232.316 45.3372 232.221 45.3464 232.166 45.3555H232.07C231.988 45.3555 231.897 45.3509 231.797 45.3418C231.706 45.3418 231.615 45.3281 231.523 45.3008C231.441 45.2734 231.368 45.2324 231.305 45.1777C231.241 45.123 231.195 45.0456 231.168 44.9453ZM236.444 45C236.408 44.9909 236.39 44.9681 236.39 44.9316C236.39 44.8952 236.39 44.8633 236.39 44.8359C236.39 44.763 236.421 44.6855 236.485 44.6035C236.549 44.5124 236.595 44.4303 236.622 44.3574C236.631 44.3301 236.649 44.2799 236.677 44.207C236.704 44.125 236.731 44.0384 236.759 43.9473C236.795 43.847 236.827 43.7604 236.854 43.6875C236.882 43.6055 236.9 43.5508 236.909 43.5234C236.918 43.4961 236.932 43.4551 236.95 43.4004C236.977 43.3457 237.005 43.2865 237.032 43.2227C237.059 43.1589 237.082 43.1042 237.1 43.0586C237.128 43.0039 237.141 42.9674 237.141 42.9492C237.151 42.9401 237.169 42.9128 237.196 42.8672C237.224 42.8216 237.251 42.7715 237.278 42.7168C237.306 42.6621 237.328 42.6165 237.347 42.5801C237.374 42.5345 237.388 42.5026 237.388 42.4844C237.397 42.4479 237.433 42.3477 237.497 42.1836C237.561 42.0195 237.629 41.8464 237.702 41.6641C237.775 41.4727 237.843 41.2995 237.907 41.1445C237.971 40.9805 238.012 40.8757 238.03 40.8301C238.048 40.7936 238.085 40.7207 238.14 40.6113C238.203 40.4928 238.244 40.4154 238.263 40.3789L240.477 34.2949C240.487 34.2767 240.5 34.2448 240.518 34.1992C240.546 34.1445 240.569 34.0898 240.587 34.0352C240.614 33.9805 240.637 33.9303 240.655 33.8848C240.683 33.8301 240.701 33.7891 240.71 33.7617L240.778 33.6934H240.97H241.188C241.225 33.6934 241.316 33.6979 241.462 33.707C241.608 33.7161 241.767 33.7253 241.94 33.7344C242.113 33.7344 242.273 33.7389 242.419 33.748C242.565 33.7572 242.66 33.7617 242.706 33.7617C242.77 33.7617 242.829 33.7617 242.884 33.7617C242.938 33.7526 242.998 33.7708 243.061 33.8164C243.134 33.8711 243.198 33.9349 243.253 34.0078C243.308 34.0807 243.358 34.1536 243.403 34.2266C243.431 34.2721 243.467 34.3314 243.513 34.4043C243.558 34.4772 243.599 34.5501 243.636 34.623C243.681 34.696 243.722 34.7643 243.759 34.8281C243.795 34.8828 243.818 34.9147 243.827 34.9238C243.854 34.9876 243.9 35.0879 243.964 35.2246C244.028 35.3522 244.091 35.4889 244.155 35.6348C244.228 35.7806 244.292 35.9128 244.347 36.0312C244.401 36.1497 244.438 36.2272 244.456 36.2637C244.465 36.291 244.483 36.3503 244.511 36.4414C244.538 36.5234 244.57 36.6146 244.606 36.7148C244.643 36.8151 244.675 36.9108 244.702 37.002C244.729 37.084 244.748 37.1387 244.757 37.166C244.93 37.6491 245.14 38.1185 245.386 38.5742C245.632 39.0208 245.85 39.4811 246.042 39.9551C246.06 40.0098 246.101 40.1237 246.165 40.2969C246.229 40.4609 246.302 40.6569 246.384 40.8848C246.475 41.1126 246.566 41.3542 246.657 41.6094C246.748 41.8646 246.835 42.1061 246.917 42.334C247.008 42.5527 247.085 42.7441 247.149 42.9082C247.213 43.0723 247.254 43.1816 247.272 43.2363C247.281 43.2728 247.318 43.3594 247.382 43.4961C247.446 43.6237 247.487 43.7103 247.505 43.7559C247.523 43.8014 247.555 43.8698 247.6 43.9609C247.646 44.043 247.692 44.1341 247.737 44.2344C247.783 44.3346 247.828 44.4303 247.874 44.5215C247.919 44.6035 247.951 44.6628 247.97 44.6992V44.7539C247.97 44.7995 247.951 44.8405 247.915 44.877C247.878 44.9043 247.833 44.9271 247.778 44.9453C247.733 44.9635 247.683 44.9772 247.628 44.9863C247.573 44.9954 247.532 45 247.505 45C247.477 45 247.409 45 247.3 45C247.19 45 247.072 45 246.944 45C246.826 45 246.712 45 246.602 45C246.493 45 246.425 45 246.397 45C246.27 45 246.138 45.0182 246.001 45.0547C245.873 45.1003 245.737 45.123 245.591 45.123C245.518 45.123 245.459 45.1185 245.413 45.1094C245.367 45.1094 245.304 45.0911 245.222 45.0547C245.222 45.0547 245.212 45.0456 245.194 45.0273L245.167 45C245.085 44.8451 245.021 44.722 244.975 44.6309C244.939 44.5306 244.884 44.3984 244.811 44.2344C244.793 44.2161 244.761 44.1569 244.716 44.0566C244.67 43.9564 244.643 43.8971 244.634 43.8789C244.579 43.7057 244.547 43.5553 244.538 43.4277C244.529 43.3001 244.465 43.1589 244.347 43.0039C244.337 42.9948 244.319 42.9857 244.292 42.9766C244.265 42.9583 244.242 42.9492 244.224 42.9492C244.151 42.9492 244.028 42.9447 243.854 42.9355C243.69 42.9264 243.513 42.9219 243.321 42.9219C243.13 42.9128 242.947 42.9036 242.774 42.8945C242.601 42.8854 242.478 42.8809 242.405 42.8809C242.387 42.8809 242.346 42.8809 242.282 42.8809C242.227 42.8717 242.164 42.8626 242.091 42.8535C242.018 42.8444 241.949 42.8398 241.886 42.8398C241.822 42.8307 241.785 42.8262 241.776 42.8262H241.516C241.261 42.8262 241.006 42.8353 240.751 42.8535C240.505 42.8717 240.259 42.9036 240.013 42.9492C239.858 42.9766 239.744 43.0495 239.671 43.168C239.607 43.2773 239.543 43.3958 239.479 43.5234C239.47 43.5508 239.452 43.6009 239.425 43.6738C239.397 43.7467 239.365 43.8242 239.329 43.9062C239.302 43.9792 239.274 44.0475 239.247 44.1113C239.22 44.1751 239.201 44.2161 239.192 44.2344C239.183 44.2526 239.165 44.2982 239.138 44.3711C239.119 44.4349 239.097 44.5078 239.069 44.5898C239.042 44.6628 239.015 44.7357 238.987 44.8086C238.969 44.8724 238.96 44.9134 238.96 44.9316C238.887 45.1139 238.805 45.2096 238.714 45.2188C238.623 45.2279 238.49 45.2324 238.317 45.2324C237.998 45.2324 237.693 45.1914 237.401 45.1094C237.11 45.0365 236.791 45 236.444 45ZM242.009 37.4395C242 37.4486 241.986 37.4714 241.968 37.5078C241.959 37.5352 241.954 37.5534 241.954 37.5625C241.954 37.5807 241.945 37.6126 241.927 37.6582C241.908 37.7038 241.886 37.7539 241.858 37.8086C241.84 37.8542 241.822 37.9043 241.804 37.959C241.785 38.0046 241.776 38.0319 241.776 38.041C241.767 38.0501 241.749 38.082 241.722 38.1367C241.703 38.1823 241.681 38.237 241.653 38.3008C241.626 38.3555 241.599 38.4102 241.571 38.4648C241.553 38.5195 241.539 38.5514 241.53 38.5605C241.485 38.6699 241.43 38.8158 241.366 38.998C241.302 39.1803 241.238 39.3626 241.175 39.5449C241.111 39.7181 241.056 39.8685 241.011 39.9961C240.974 40.1237 240.956 40.1875 240.956 40.1875V40.3105H243.184C243.194 40.3105 243.212 40.2969 243.239 40.2695C243.266 40.2331 243.289 40.2057 243.308 40.1875V40.1328C243.308 40.0599 243.285 39.9733 243.239 39.873C243.194 39.7637 243.157 39.6771 243.13 39.6133C243.048 39.4583 242.947 39.2624 242.829 39.0254C242.71 38.7884 242.592 38.5605 242.474 38.3418C242.364 38.1139 242.268 37.918 242.186 37.7539C242.104 37.5898 242.063 37.5078 242.063 37.5078L242.009 37.4395ZM251.496 44.8223C251.496 44.7038 251.491 44.5169 251.482 44.2617C251.482 43.9974 251.478 43.7057 251.469 43.3867C251.459 43.0586 251.45 42.7168 251.441 42.3613C251.432 42.0059 251.423 41.6686 251.414 41.3496C251.414 41.0215 251.409 40.7298 251.4 40.4746C251.391 40.2194 251.382 40.0326 251.373 39.9141C251.373 39.8594 251.359 39.7227 251.332 39.5039C251.314 39.2852 251.295 39.0527 251.277 38.8066C251.259 38.5514 251.241 38.3145 251.222 38.0957C251.204 37.877 251.195 37.7402 251.195 37.6855C251.159 37.6582 251.136 37.5671 251.127 37.4121C251.118 37.2572 251.113 37.0794 251.113 36.8789C251.122 36.6784 251.131 36.4779 251.14 36.2773C251.159 36.0677 251.172 35.9082 251.181 35.7988C251.181 35.7259 251.181 35.6165 251.181 35.4707C251.181 35.3158 251.181 35.1608 251.181 35.0059C251.191 34.8509 251.195 34.7096 251.195 34.582C251.195 34.4544 251.195 34.3724 251.195 34.3359L251.25 33.8848L251.318 33.8164C251.355 33.8164 251.427 33.821 251.537 33.8301C251.646 33.8301 251.756 33.8301 251.865 33.8301C251.983 33.8301 252.093 33.8301 252.193 33.8301C252.302 33.821 252.38 33.8164 252.426 33.8164C252.462 33.8164 252.539 33.8118 252.658 33.8027C252.776 33.7936 252.854 33.7799 252.89 33.7617H254.039H255.174C255.192 33.7617 255.233 33.7663 255.297 33.7754C255.36 33.7754 255.429 33.7799 255.502 33.7891C255.584 33.7891 255.657 33.7936 255.72 33.8027C255.793 33.8118 255.844 33.8164 255.871 33.8164C256.263 33.862 256.609 33.9941 256.91 34.2129C257.22 34.4316 257.475 34.696 257.676 35.0059C257.876 35.3158 258.026 35.6576 258.127 36.0312C258.236 36.4049 258.291 36.7695 258.291 37.125C258.291 37.3893 258.25 37.6719 258.168 37.9727C258.095 38.2643 257.981 38.5469 257.826 38.8203C257.68 39.0938 257.502 39.3398 257.293 39.5586C257.083 39.7682 256.846 39.9232 256.582 40.0234V40.0508V40.0781C256.6 40.0964 256.618 40.1374 256.636 40.2012C256.664 40.265 256.682 40.306 256.691 40.3242C256.782 40.4518 256.878 40.5977 256.978 40.7617C257.079 40.9258 257.183 41.0716 257.293 41.1992C257.439 41.3815 257.571 41.6094 257.689 41.8828C257.808 42.1562 257.926 42.3978 258.045 42.6074C258.063 42.6257 258.099 42.6803 258.154 42.7715C258.218 42.8626 258.263 42.9219 258.291 42.9492C258.3 42.9674 258.327 42.9993 258.373 43.0449C258.418 43.0905 258.446 43.1178 258.455 43.127C258.455 43.1361 258.464 43.168 258.482 43.2227C258.5 43.2682 258.51 43.2956 258.51 43.3047C258.592 43.487 258.692 43.7012 258.81 43.9473C258.929 44.1934 258.988 44.4212 258.988 44.6309V44.6445L258.865 44.7676C258.792 44.7767 258.669 44.7904 258.496 44.8086C258.323 44.8177 258.14 44.8359 257.949 44.8633C257.758 44.8815 257.575 44.8997 257.402 44.918C257.229 44.9271 257.11 44.9362 257.047 44.9453C257.028 44.9453 256.978 44.9544 256.896 44.9727C256.814 44.9909 256.769 45 256.76 45H256.623C256.532 45 256.463 44.9681 256.418 44.9043C256.381 44.8405 256.34 44.7721 256.295 44.6992C256.267 44.6536 256.213 44.5671 256.131 44.4395C256.058 44.3027 256.012 44.2161 255.994 44.1797L254.709 41.6094C254.608 41.418 254.495 41.2311 254.367 41.0488C254.248 40.8574 254.107 40.6934 253.943 40.5566V40.6387C253.943 40.8301 253.957 41.0215 253.984 41.2129C254.011 41.3952 254.039 41.582 254.066 41.7734C254.075 41.901 254.084 42.0423 254.094 42.1973C254.103 42.3431 254.13 42.4798 254.176 42.6074V44.877C254.176 44.9681 254.13 45.0273 254.039 45.0547C253.957 45.0911 253.884 45.1139 253.82 45.123C253.61 45.1504 253.433 45.1641 253.287 45.1641C253.15 45.1732 252.977 45.1777 252.767 45.1777H252.48C252.462 45.1777 252.426 45.1732 252.371 45.1641C252.325 45.1549 252.271 45.1413 252.207 45.123C252.152 45.1139 252.093 45.1003 252.029 45.082C251.965 45.0729 251.92 45.0638 251.892 45.0547C251.856 45.0456 251.792 45.0273 251.701 45C251.619 44.9727 251.569 44.9544 251.551 44.9453C251.532 44.9362 251.519 44.918 251.51 44.8906C251.5 44.8542 251.496 44.8314 251.496 44.8223ZM253.888 36.168C253.888 36.1771 253.898 36.2044 253.916 36.25C253.934 36.2956 253.943 36.3229 253.943 36.332V36.6875C253.943 36.7695 253.948 36.8743 253.957 37.002C253.966 37.1296 253.97 37.2526 253.97 37.3711C253.98 37.4896 253.984 37.5944 253.984 37.6855C253.993 37.7676 253.998 37.8086 253.998 37.8086L254.066 37.918C254.103 37.9271 254.139 37.9316 254.176 37.9316H254.367C254.713 37.9316 255.01 37.8906 255.256 37.8086C255.502 37.7266 255.748 37.5534 255.994 37.2891C256.039 37.2344 256.062 37.1797 256.062 37.125C256.062 37.0703 256.062 37.0111 256.062 36.9473C256.062 36.929 256.058 36.9108 256.049 36.8926C256.049 36.8743 256.049 36.8561 256.049 36.8379V36.7559C256.039 36.6647 255.971 36.5736 255.844 36.4824C255.716 36.3822 255.57 36.3001 255.406 36.2363C255.242 36.1634 255.078 36.1042 254.914 36.0586C254.75 36.013 254.627 35.9902 254.545 35.9902C254.517 35.9902 254.467 35.9948 254.394 36.0039C254.321 36.0039 254.248 36.0085 254.176 36.0176C254.103 36.0267 254.034 36.0404 253.97 36.0586C253.916 36.0768 253.888 36.0996 253.888 36.127V36.168ZM262.378 44.7676C262.396 43.1178 262.391 41.4772 262.364 39.8457C262.337 38.2051 262.323 36.5508 262.323 34.8828V33.8848L262.378 33.8301H263.964C263.973 33.8301 264.009 33.8301 264.073 33.8301C264.137 33.821 264.205 33.8164 264.278 33.8164C264.36 33.8073 264.428 33.7982 264.483 33.7891C264.547 33.7799 264.588 33.7708 264.606 33.7617H264.743C264.898 33.7617 265.012 33.8346 265.085 33.9805C265.158 34.1172 265.194 34.2493 265.194 34.377V34.418C265.194 34.4271 265.189 34.4499 265.18 34.4863C265.171 34.5228 265.162 34.5638 265.153 34.6094C265.144 34.6549 265.135 34.7005 265.126 34.7461C265.126 34.7826 265.126 34.8053 265.126 34.8145V35.416V35.9902C265.126 36.054 265.13 36.1862 265.139 36.3867C265.148 36.5781 265.158 36.8105 265.167 37.084C265.185 37.3483 265.199 37.6309 265.208 37.9316C265.226 38.2233 265.24 38.5059 265.249 38.7793C265.267 39.0436 265.281 39.276 265.29 39.4766C265.299 39.668 265.303 39.7956 265.303 39.8594C265.303 39.8867 265.303 39.9915 265.303 40.1738C265.312 40.3561 265.317 40.5703 265.317 40.8164C265.317 41.0625 265.317 41.3086 265.317 41.5547C265.317 41.8008 265.317 41.9967 265.317 42.1426C265.317 42.2246 265.317 42.375 265.317 42.5938C265.317 42.8125 265.317 43.0449 265.317 43.291C265.317 43.528 265.312 43.7559 265.303 43.9746C265.303 44.1934 265.303 44.3438 265.303 44.4258C265.258 44.5716 265.185 44.6855 265.085 44.7676C264.993 44.8496 264.884 44.9134 264.756 44.959C264.638 44.9954 264.506 45.0182 264.36 45.0273C264.223 45.0456 264.091 45.0592 263.964 45.0684C263.936 45.0684 263.868 45.0684 263.758 45.0684C263.649 45.0775 263.526 45.082 263.389 45.082C263.262 45.0911 263.134 45.1003 263.006 45.1094C262.888 45.1185 262.797 45.123 262.733 45.123H262.61C262.574 45.123 262.537 45.123 262.501 45.123C262.473 45.123 262.455 45.1048 262.446 45.0684C262.437 45.041 262.423 44.9909 262.405 44.918C262.396 44.8451 262.387 44.7949 262.378 44.7676ZM268.638 42.416C268.638 42.4069 268.643 42.3932 268.652 42.375C268.67 42.3659 268.707 42.3294 268.761 42.2656C268.816 42.2018 268.857 42.1608 268.884 42.1426C268.912 42.1243 268.957 42.0879 269.021 42.0332C269.094 41.9694 269.171 41.9102 269.253 41.8555C269.335 41.7917 269.413 41.7324 269.486 41.6777C269.559 41.6139 269.613 41.5729 269.65 41.5547C269.659 41.5456 269.686 41.5273 269.732 41.5C269.787 41.4635 269.841 41.4271 269.896 41.3906C269.951 41.3542 270.005 41.3177 270.06 41.2812C270.115 41.2448 270.156 41.2174 270.183 41.1992C270.192 41.1901 270.21 41.181 270.238 41.1719C270.265 41.1536 270.288 41.1445 270.306 41.1445H270.32H270.347C270.612 41.3815 270.853 41.6322 271.072 41.8965C271.3 42.1517 271.546 42.3887 271.81 42.6074C271.938 42.7077 272.056 42.7806 272.166 42.8262C272.284 42.8717 272.425 42.8945 272.589 42.8945C272.681 42.8945 272.776 42.89 272.876 42.8809C272.977 42.8626 273.05 42.8125 273.095 42.7305V42.457C273.095 42.0924 273.009 41.7552 272.835 41.4453C272.662 41.1354 272.444 40.862 272.179 40.625C272.143 40.5977 272.074 40.5384 271.974 40.4473C271.883 40.3561 271.774 40.2559 271.646 40.1465C271.518 40.028 271.382 39.9049 271.236 39.7773C271.09 39.6406 270.953 39.513 270.826 39.3945C270.698 39.276 270.584 39.1758 270.484 39.0938C270.393 39.0117 270.334 38.957 270.306 38.9297C270.115 38.7474 269.928 38.5514 269.746 38.3418C269.572 38.123 269.417 37.8952 269.281 37.6582C269.144 37.4212 269.035 37.1751 268.953 36.9199C268.871 36.6556 268.83 36.3867 268.83 36.1133C268.83 35.776 268.898 35.4844 269.035 35.2383C269.171 34.9922 269.335 34.7324 269.527 34.459C269.545 34.4499 269.572 34.4271 269.609 34.3906C269.654 34.3451 269.686 34.3132 269.705 34.2949C270.042 34.0033 270.402 33.7663 270.785 33.584C271.167 33.3926 271.591 33.2969 272.056 33.2969C272.421 33.2969 272.744 33.3333 273.027 33.4062C273.319 33.4792 273.587 33.584 273.834 33.7207C274.08 33.8574 274.317 34.0306 274.544 34.2402C274.781 34.4408 275.023 34.6732 275.269 34.9375C275.369 35.0378 275.442 35.1289 275.488 35.2109C275.542 35.2839 275.57 35.3841 275.57 35.5117V35.6348C275.561 35.6439 275.524 35.6803 275.46 35.7441C275.406 35.8079 275.36 35.8535 275.324 35.8809C275.278 35.9173 275.201 35.9811 275.091 36.0723C274.991 36.1543 274.882 36.2454 274.763 36.3457C274.654 36.446 274.544 36.5417 274.435 36.6328C274.326 36.7148 274.253 36.7741 274.216 36.8105H274.066C274.011 36.8105 273.97 36.8151 273.943 36.8242C273.925 36.8242 273.902 36.8014 273.875 36.7559C273.865 36.7467 273.847 36.7148 273.82 36.6602C273.792 36.6055 273.761 36.5508 273.724 36.4961C273.688 36.4323 273.656 36.3776 273.628 36.332C273.601 36.2773 273.583 36.2454 273.574 36.2363C273.556 36.2272 273.524 36.1999 273.478 36.1543C273.432 36.0996 273.382 36.0449 273.328 35.9902C273.273 35.9355 273.218 35.8809 273.164 35.8262C273.118 35.7715 273.082 35.7305 273.054 35.7031C272.954 35.6211 272.831 35.571 272.685 35.5527C272.548 35.5254 272.421 35.5117 272.302 35.5117C272.138 35.5117 272.011 35.5254 271.919 35.5527C271.828 35.571 271.755 35.612 271.701 35.6758C271.646 35.7396 271.605 35.8216 271.578 35.9219C271.559 36.0221 271.541 36.1452 271.523 36.291V36.3184C271.523 36.3822 271.559 36.4688 271.632 36.5781C271.714 36.6875 271.774 36.765 271.81 36.8105L272.753 37.7539C272.763 37.763 272.794 37.7904 272.849 37.8359C272.904 37.8724 272.959 37.9134 273.013 37.959C273.068 38.0046 273.118 38.0501 273.164 38.0957C273.218 38.1322 273.255 38.1549 273.273 38.1641C273.61 38.4284 273.911 38.7109 274.175 39.0117C274.449 39.3125 274.713 39.6361 274.968 39.9824C275.078 40.2194 275.182 40.429 275.283 40.6113C275.383 40.7845 275.47 40.9577 275.542 41.1309C275.625 41.2949 275.688 41.4818 275.734 41.6914C275.779 41.8919 275.802 42.138 275.802 42.4297V42.9492C275.757 43.1315 275.693 43.3047 275.611 43.4688C275.529 43.6237 275.415 43.765 275.269 43.8926C275.233 43.9199 275.173 43.9701 275.091 44.043C275.009 44.1159 274.918 44.1888 274.818 44.2617C274.727 44.3346 274.64 44.403 274.558 44.4668C274.476 44.5306 274.421 44.5762 274.394 44.6035C274.367 44.6217 274.307 44.6628 274.216 44.7266C274.125 44.7812 274.07 44.8132 274.052 44.8223C273.998 44.8587 273.906 44.9089 273.779 44.9727C273.66 45.0273 273.592 45.0592 273.574 45.0684C273.546 45.0684 273.478 45.0775 273.369 45.0957C273.268 45.123 273.154 45.1504 273.027 45.1777C272.908 45.2051 272.79 45.2279 272.671 45.2461C272.553 45.2734 272.462 45.2917 272.398 45.3008H272.302C272.147 45.3008 271.988 45.2826 271.824 45.2461C271.66 45.2096 271.5 45.1686 271.345 45.123C270.944 45.0046 270.602 44.8268 270.32 44.5898C270.037 44.3438 269.755 44.0703 269.472 43.7695C269.436 43.7331 269.39 43.6875 269.335 43.6328C269.281 43.569 269.226 43.5098 269.171 43.4551C269.117 43.3913 269.067 43.3366 269.021 43.291C268.975 43.2363 268.953 43.2044 268.953 43.1953C268.934 43.1771 268.912 43.1224 268.884 43.0312C268.857 42.931 268.839 42.8717 268.83 42.8535C268.82 42.8353 268.793 42.7852 268.748 42.7031C268.702 42.6211 268.67 42.571 268.652 42.5527C268.643 42.5436 268.638 42.5299 268.638 42.5117V42.457V42.416ZM278.618 45C278.581 44.9909 278.563 44.9681 278.563 44.9316C278.563 44.8952 278.563 44.8633 278.563 44.8359C278.563 44.763 278.595 44.6855 278.659 44.6035C278.722 44.5124 278.768 44.4303 278.795 44.3574C278.804 44.3301 278.823 44.2799 278.85 44.207C278.877 44.125 278.905 44.0384 278.932 43.9473C278.968 43.847 279 43.7604 279.028 43.6875C279.055 43.6055 279.073 43.5508 279.082 43.5234C279.092 43.4961 279.105 43.4551 279.123 43.4004C279.151 43.3457 279.178 43.2865 279.205 43.2227C279.233 43.1589 279.256 43.1042 279.274 43.0586C279.301 43.0039 279.315 42.9674 279.315 42.9492C279.324 42.9401 279.342 42.9128 279.37 42.8672C279.397 42.8216 279.424 42.7715 279.452 42.7168C279.479 42.6621 279.502 42.6165 279.52 42.5801C279.547 42.5345 279.561 42.5026 279.561 42.4844C279.57 42.4479 279.607 42.3477 279.67 42.1836C279.734 42.0195 279.802 41.8464 279.875 41.6641C279.948 41.4727 280.017 41.2995 280.08 41.1445C280.144 40.9805 280.185 40.8757 280.204 40.8301C280.222 40.7936 280.258 40.7207 280.313 40.6113C280.377 40.4928 280.418 40.4154 280.436 40.3789L282.651 34.2949C282.66 34.2767 282.674 34.2448 282.692 34.1992C282.719 34.1445 282.742 34.0898 282.76 34.0352C282.787 33.9805 282.81 33.9303 282.829 33.8848C282.856 33.8301 282.874 33.7891 282.883 33.7617L282.952 33.6934H283.143H283.362C283.398 33.6934 283.489 33.6979 283.635 33.707C283.781 33.7161 283.94 33.7253 284.114 33.7344C284.287 33.7344 284.446 33.7389 284.592 33.748C284.738 33.7572 284.834 33.7617 284.879 33.7617C284.943 33.7617 285.002 33.7617 285.057 33.7617C285.112 33.7526 285.171 33.7708 285.235 33.8164C285.308 33.8711 285.371 33.9349 285.426 34.0078C285.481 34.0807 285.531 34.1536 285.577 34.2266C285.604 34.2721 285.64 34.3314 285.686 34.4043C285.732 34.4772 285.773 34.5501 285.809 34.623C285.855 34.696 285.896 34.7643 285.932 34.8281C285.968 34.8828 285.991 34.9147 286 34.9238C286.028 34.9876 286.073 35.0879 286.137 35.2246C286.201 35.3522 286.265 35.4889 286.329 35.6348C286.401 35.7806 286.465 35.9128 286.52 36.0312C286.575 36.1497 286.611 36.2272 286.629 36.2637C286.638 36.291 286.657 36.3503 286.684 36.4414C286.711 36.5234 286.743 36.6146 286.78 36.7148C286.816 36.8151 286.848 36.9108 286.875 37.002C286.903 37.084 286.921 37.1387 286.93 37.166C287.103 37.6491 287.313 38.1185 287.559 38.5742C287.805 39.0208 288.024 39.4811 288.215 39.9551C288.233 40.0098 288.274 40.1237 288.338 40.2969C288.402 40.4609 288.475 40.6569 288.557 40.8848C288.648 41.1126 288.739 41.3542 288.83 41.6094C288.922 41.8646 289.008 42.1061 289.09 42.334C289.181 42.5527 289.259 42.7441 289.323 42.9082C289.386 43.0723 289.427 43.1816 289.446 43.2363C289.455 43.2728 289.491 43.3594 289.555 43.4961C289.619 43.6237 289.66 43.7103 289.678 43.7559C289.696 43.8014 289.728 43.8698 289.774 43.9609C289.819 44.043 289.865 44.1341 289.911 44.2344C289.956 44.3346 290.002 44.4303 290.047 44.5215C290.093 44.6035 290.125 44.6628 290.143 44.6992V44.7539C290.143 44.7995 290.125 44.8405 290.088 44.877C290.052 44.9043 290.006 44.9271 289.952 44.9453C289.906 44.9635 289.856 44.9772 289.801 44.9863C289.746 44.9954 289.705 45 289.678 45C289.651 45 289.582 45 289.473 45C289.364 45 289.245 45 289.118 45C288.999 45 288.885 45 288.776 45C288.666 45 288.598 45 288.571 45C288.443 45 288.311 45.0182 288.174 45.0547C288.047 45.1003 287.91 45.123 287.764 45.123C287.691 45.123 287.632 45.1185 287.586 45.1094C287.541 45.1094 287.477 45.0911 287.395 45.0547C287.395 45.0547 287.386 45.0456 287.368 45.0273L287.34 45C287.258 44.8451 287.194 44.722 287.149 44.6309C287.112 44.5306 287.058 44.3984 286.985 44.2344C286.967 44.2161 286.935 44.1569 286.889 44.0566C286.843 43.9564 286.816 43.8971 286.807 43.8789C286.752 43.7057 286.72 43.5553 286.711 43.4277C286.702 43.3001 286.638 43.1589 286.52 43.0039C286.511 42.9948 286.493 42.9857 286.465 42.9766C286.438 42.9583 286.415 42.9492 286.397 42.9492C286.324 42.9492 286.201 42.9447 286.028 42.9355C285.864 42.9264 285.686 42.9219 285.495 42.9219C285.303 42.9128 285.121 42.9036 284.948 42.8945C284.774 42.8854 284.651 42.8809 284.579 42.8809C284.56 42.8809 284.519 42.8809 284.455 42.8809C284.401 42.8717 284.337 42.8626 284.264 42.8535C284.191 42.8444 284.123 42.8398 284.059 42.8398C283.995 42.8307 283.959 42.8262 283.95 42.8262H283.69C283.435 42.8262 283.179 42.8353 282.924 42.8535C282.678 42.8717 282.432 42.9036 282.186 42.9492C282.031 42.9766 281.917 43.0495 281.844 43.168C281.78 43.2773 281.717 43.3958 281.653 43.5234C281.644 43.5508 281.625 43.6009 281.598 43.6738C281.571 43.7467 281.539 43.8242 281.502 43.9062C281.475 43.9792 281.448 44.0475 281.42 44.1113C281.393 44.1751 281.375 44.2161 281.366 44.2344C281.357 44.2526 281.338 44.2982 281.311 44.3711C281.293 44.4349 281.27 44.5078 281.243 44.5898C281.215 44.6628 281.188 44.7357 281.161 44.8086C281.142 44.8724 281.133 44.9134 281.133 44.9316C281.06 45.1139 280.978 45.2096 280.887 45.2188C280.796 45.2279 280.664 45.2324 280.491 45.2324C280.172 45.2324 279.866 45.1914 279.575 45.1094C279.283 45.0365 278.964 45 278.618 45ZM284.182 37.4395C284.173 37.4486 284.159 37.4714 284.141 37.5078C284.132 37.5352 284.127 37.5534 284.127 37.5625C284.127 37.5807 284.118 37.6126 284.1 37.6582C284.082 37.7038 284.059 37.7539 284.032 37.8086C284.013 37.8542 283.995 37.9043 283.977 37.959C283.959 38.0046 283.95 38.0319 283.95 38.041C283.94 38.0501 283.922 38.082 283.895 38.1367C283.877 38.1823 283.854 38.237 283.827 38.3008C283.799 38.3555 283.772 38.4102 283.745 38.4648C283.726 38.5195 283.713 38.5514 283.704 38.5605C283.658 38.6699 283.603 38.8158 283.539 38.998C283.476 39.1803 283.412 39.3626 283.348 39.5449C283.284 39.7181 283.23 39.8685 283.184 39.9961C283.148 40.1237 283.129 40.1875 283.129 40.1875V40.3105H285.358C285.367 40.3105 285.385 40.2969 285.412 40.2695C285.44 40.2331 285.463 40.2057 285.481 40.1875V40.1328C285.481 40.0599 285.458 39.9733 285.412 39.873C285.367 39.7637 285.33 39.6771 285.303 39.6133C285.221 39.4583 285.121 39.2624 285.002 39.0254C284.884 38.7884 284.765 38.5605 284.647 38.3418C284.537 38.1139 284.442 37.918 284.36 37.7539C284.278 37.5898 284.237 37.5078 284.237 37.5078L284.182 37.4395Z" fill="black"/>
</svg>
