<svg width="323" height="400" viewBox="0 0 323 400" fill="none" xmlns="http://www.w3.org/2000/svg">
<g clip-path="url(#clip0_703_8421)">
<path fill-rule="evenodd" clip-rule="evenodd" d="M187.215 235.438C158.233 227.368 139.301 238.83 127.498 272.046C116.863 301.754 83.3234 313.684 50.7186 306.315C19.1656 299.181 0.701176 275.789 -2.79025e-06 242.105C-0.701182 207.953 15.7765 184.795 47.4464 175.321C81.2199 165.263 84.3752 160.35 86.1281 122.339C88.3485 72.3973 108.332 31.6955 155.545 11.2277C199.602 -7.95357 242.959 -3.50913 280.355 29.4733C320.322 64.678 332.593 115.321 313.427 161.754C292.509 212.397 249.62 238.245 187.215 235.438Z" fill="#CE6F5A"/>
<path d="M189.318 134.736L183.241 138.713L177.749 144.327L174.009 149.59L170.27 157.426L167.815 165.73L165.128 177.894L159.518 204.912L156.947 220L156.129 229.239L155.662 239.532L156.129 244.912L157.531 251.111L163.375 254.035H165.946L170.503 253.567L172.724 244.795L187.916 168.421L189.786 167.719L193.525 162.69L194.694 158.362L195.278 152.631L193.993 145.614L191.656 138.128L190.253 134.736H189.318Z" fill="white"/>
<path d="M170.854 252.632C170.62 249.592 170.27 246.434 170.153 243.393C169.919 229.007 173.074 215.089 176.463 201.404C179.619 188.305 184.176 175.673 188.15 162.808C188.267 162.223 188.734 161.872 189.085 161.287C189.318 161.404 189.435 161.521 189.669 161.638C189.318 163.276 189.085 165.03 188.734 166.668C189.085 166.784 189.318 166.901 189.669 167.018C191.071 164.094 193.292 161.287 193.642 158.363C194.344 152.399 194.227 146.317 191.656 140.586C189.202 135.323 189.435 135.206 184.761 138.597C183.943 139.182 183.008 139.767 182.19 140.469C175.178 147.252 170.971 155.673 168.751 165.03C165.946 177.077 163.492 189.241 160.921 201.404C157.999 215.206 155.896 229.124 156.48 243.276C156.597 245.615 157.298 248.071 157.649 250.41C157.765 250.41 157.999 250.293 158.116 250.293C157.999 247.252 157.765 244.211 157.649 241.054L158.467 240.937C158.934 243.51 159.285 246.2 159.752 248.773C159.986 248.773 160.336 248.773 160.57 248.656V241.755C160.921 241.755 161.271 241.755 161.505 241.755C161.505 243.393 161.271 245.147 161.622 246.668C162.206 249.241 161.622 252.515 164.894 253.919C165.011 254.036 165.245 254.27 165.361 254.387C164.894 254.738 164.427 255.556 164.076 255.556C162.323 255.439 160.687 254.972 158.233 254.621C157.532 252.866 156.246 250.527 155.896 248.071C154.259 238.597 154.61 229.124 156.246 219.65C158.817 204.094 161.856 188.656 165.011 173.217C166.881 163.977 169.569 154.855 174.827 146.785C179.502 139.65 186.28 135.089 193.759 130.995C184.878 126.785 178.801 120.586 177.515 110.761C176.931 105.966 175.762 100.586 177.165 96.2582C180.671 85.1471 192.824 73.2173 207.315 74.8547C208.601 74.9717 210.12 75.2056 211.055 74.6208C216.664 71.4629 222.741 71.4629 228.818 71.6968C241.323 72.1646 251.606 77.4278 259.319 86.9015C268.668 98.2465 270.421 111.112 265.046 125.03C264.111 127.252 264.461 129.942 267.032 132.048C270.772 134.972 274.512 138.13 277.199 141.989C282.692 150.059 284.328 159.65 285.029 169.007C286.081 182.925 288.535 196.492 291.924 209.942C292.742 213.451 293.21 217.194 296.832 219.299C301.156 221.989 303.727 225.849 305.13 230.644C305.48 231.814 305.948 233.1 306.532 234.153C309.22 238.246 310.155 242.808 310.272 247.486C310.272 252.048 309.804 256.726 309.921 261.287C310.038 269.475 310.739 277.662 310.856 285.966C310.973 293.919 310.739 301.872 310.505 309.708C310.155 324.796 309.921 339.767 309.571 354.855C309.571 357.779 309.571 360.703 309.571 363.627C316.933 364.562 320.205 369.007 318.686 375.79C318.452 376.843 317.05 377.662 316.232 378.714C315.414 377.779 314.362 376.96 313.778 375.907C313.076 374.738 312.96 373.217 312.492 371.931C311.908 374.387 312.142 377.194 309.103 377.428C307.818 377.545 306.298 375.439 304.429 374.036C304.429 375.673 304.662 377.428 304.312 379.065C304.078 380.118 303.143 381.872 302.559 381.872C301.156 381.872 298.936 381.287 298.469 380.352C297.651 378.363 297.767 376.024 297.651 373.919C297.651 373.1 297.884 372.282 298.001 371.346C297.651 371.229 297.3 371.112 296.832 370.995C295.781 373.1 294.846 375.206 293.677 377.194C293.21 378.013 292.158 379.065 291.457 379.065C290.639 379.065 289.47 378.129 289.12 377.311C288.652 376.258 288.418 374.855 288.652 373.685C290.171 367.135 293.21 364.445 300.572 363.276C300.572 362.223 300.572 361.053 300.572 359.884C300.455 348.773 300.105 337.662 300.338 326.551C300.572 314.972 301.624 303.51 301.741 291.931C301.858 277.428 301.507 262.808 301.273 248.305C301.273 245.849 300.572 243.51 299.871 241.17C299.637 240.352 298.702 239.767 298.469 239.65C296.482 241.521 294.145 244.679 293.443 244.328C290.522 243.042 288.185 240.586 285.263 238.246C282.575 239.065 282.575 242.223 281.991 244.913C281.64 247.018 280.705 248.89 278.602 248.188C277.199 247.72 275.68 245.615 275.563 244.211C275.563 241.638 276.615 239.065 277.199 236.492C277.316 235.79 277.784 235.089 277.667 234.387C276.265 228.773 274.745 223.042 273.343 217.428C271.356 209.358 269.253 201.17 267.266 192.983C264.578 193.1 264.228 194.855 264.111 196.96C263.994 205.264 263.76 213.685 263.643 221.989C263.41 233.685 263.293 245.264 262.942 256.96C262.708 264.562 262.007 272.165 262.124 279.65C262.358 295.206 263.059 310.761 263.643 326.317C263.76 328.773 262.708 330.059 260.488 330.761C257.216 331.697 253.944 332.632 250.672 333.802C249.737 334.153 248.334 334.972 248.217 335.79C247.166 344.328 246.348 352.983 245.413 361.521C244.828 366.317 247.166 370.059 249.62 373.919C252.308 378.246 255.58 382.457 256.865 387.135C259.319 395.79 257.45 397.545 248.334 397.428C247.166 397.428 245.997 396.96 245.062 396.375C240.972 393.568 236.531 390.995 232.908 387.72C229.169 384.211 225.079 380.586 224.611 374.972C224.26 370.878 224.377 366.667 224.377 362.574C224.377 356.141 224.377 349.591 224.377 343.042C219.235 343.276 214.444 343.627 209.886 343.86C209.653 346.317 209.419 348.539 209.302 350.761C208.951 358.363 208.601 366.083 208.133 373.685C208.017 375.556 207.9 377.779 206.848 379.065C201.005 386.901 194.811 394.621 185.813 399.416C183.125 400.82 178.45 400.352 176.463 398.48C174.36 396.492 173.425 392.866 175.061 389.942C177.048 386.083 179.736 382.574 181.839 378.831C183.358 376.024 185.345 372.983 185.462 369.942C185.813 360.936 185.228 352.048 185.111 343.042C185.111 341.053 184.644 339.884 182.073 339.533C175.295 338.714 175.061 338.246 174.944 331.814C174.594 313.217 174.36 294.504 173.893 275.907C173.659 266.784 172.958 257.545 172.49 248.656C171.789 250.176 171.088 251.463 170.387 252.749L170.854 252.632ZM291.574 370.527C290.756 371.931 289.12 374.504 292.625 375.673C293.21 374.621 293.443 373.451 294.261 372.632C295.43 371.346 296.832 370.176 298.235 369.124C299.637 368.071 301.04 367.135 302.442 366.083C302.091 367.252 301.858 368.305 301.507 369.475C300.806 372.048 299.871 374.621 299.403 377.311C299.287 378.129 300.806 379.182 301.507 380.118C302.091 379.182 302.909 378.363 303.143 377.311C303.611 375.556 303.26 373.217 304.195 371.931C305.363 370.41 307.818 368.656 309.571 368.773C311.908 369.007 314.829 370.059 314.829 373.568C314.829 374.036 315.414 374.504 315.764 375.089C317.985 372.399 316.115 366.667 312.726 366.083C310.973 365.732 309.103 366.551 307.233 366.551C305.597 366.551 303.961 366.317 302.208 366.083C297.651 363.627 294.378 365.849 291.574 370.527ZM262.124 146.2C262.241 147.486 261.774 148.89 261.306 150.176C259.904 154.387 258.268 158.48 257.099 162.808C256.632 164.562 257.216 166.551 256.982 168.422C256.632 171.229 255.93 174.036 255.346 176.843C263.176 183.276 262.007 195.439 254.879 202.457C254.411 202.925 253.827 203.51 253.243 203.977C252.425 204.679 251.49 205.264 250.555 205.966C249.854 204.796 248.568 203.627 248.685 202.574C249.269 196.96 246.932 191.931 245.646 186.668C245.179 184.796 246.114 182.691 245.997 180.703C245.88 178.831 245.53 176.96 245.062 175.089C244.478 172.749 243.192 170.644 242.842 168.305C242.024 161.287 243.309 154.387 244.595 147.486C244.712 147.018 244.595 146.434 244.595 145.381C242.257 147.603 240.504 149.592 238.284 151.229C231.272 156.492 223.559 156.843 215.379 154.387C208.484 152.282 203.342 148.305 200.187 141.872C199.135 139.767 197.616 137.779 196.33 135.79C194.46 132.749 193.759 132.515 190.838 134.621C192.24 138.948 194.11 143.159 195.045 147.603C196.798 156.024 195.629 163.744 188.384 169.592C187.565 170.293 187.098 171.697 186.747 172.866C183.943 181.521 180.554 189.942 178.567 198.831C175.996 209.825 174.126 220.937 172.724 232.165C172.14 237.311 173.425 242.808 173.893 248.071C174.477 256.258 175.412 264.445 175.762 272.632C176.23 285.849 176.23 299.182 176.463 312.399C176.58 319.65 176.931 326.901 177.048 334.153C177.048 335.907 177.515 336.843 179.502 337.077C187.449 338.246 195.278 339.299 203.108 340.937C217.716 343.86 230.922 339.065 244.127 334.153C249.035 332.282 253.944 330.878 258.969 329.475C261.072 328.89 262.241 328.071 262.124 325.498C261.89 318.363 261.774 311.112 261.54 303.977C261.306 296.609 260.605 289.358 260.722 281.989C261.072 267.72 262.007 253.451 262.358 239.065C262.592 232.048 262.007 225.03 262.007 218.013C262.007 210.293 262.358 202.457 262.592 194.738C262.592 193.685 263.293 192.282 264.111 191.814C269.72 188.422 270.305 183.042 269.253 177.545C268.435 172.866 266.448 168.305 264.812 163.744C262.942 158.48 262.592 153.1 263.643 147.603C264.461 143.159 265.396 138.714 266.214 134.153C266.214 133.802 265.864 133.451 265.279 132.632C263.76 137.194 261.774 141.404 262.124 146.2ZM224.845 131.463C230.571 130.176 236.064 128.89 242.257 127.369C238.752 130.644 235.129 131.58 231.272 132.165C230.688 132.282 229.987 132.165 229.402 132.165C224.962 132.048 220.521 132.165 216.314 134.27C209.536 137.545 203.108 135.907 196.681 132.516C201.238 138.48 203.108 146.434 210.354 150.41C217.716 154.387 225.663 155.907 233.025 152.399C239.453 149.241 245.296 144.679 246.348 135.907C247.049 129.708 250.087 123.744 252.191 117.662C252.541 116.726 253.243 115.79 253.827 114.738C253.126 114.27 252.308 113.802 250.905 112.983C252.658 112.516 253.71 112.282 254.061 112.165C253.593 110.995 252.775 109.825 252.658 108.539C252.658 108.188 254.762 107.018 254.995 107.252C255.93 107.954 256.398 109.124 256.982 110.059C258.501 108.422 259.203 103.393 257.683 101.17C256.398 99.2991 254.762 98.7143 252.775 100.235C252.308 100.586 251.84 100.937 252.074 100.82C250.087 99.8839 248.685 99.0652 247.283 98.7143C238.868 97.0769 230.221 96.0243 221.923 93.919C216.197 92.5155 210.938 89.2407 207.666 83.6266C199.719 92.1646 190.604 97.7787 178.918 98.8313C176.931 113.217 181.489 123.159 193.759 129.124C196.681 130.527 199.602 131.814 202.641 132.866C210.12 135.556 216.781 133.1 222.975 129.007C223.326 128.773 223.676 128.539 224.611 128.071C224.728 129.241 224.845 129.942 224.845 131.463ZM208.017 80.4687C210.588 87.6032 216.781 90.995 223.442 92.6325C232.908 95.0886 242.608 96.6091 252.308 97.6617C255.697 98.0126 258.618 97.6617 259.787 101.521C261.072 105.966 259.904 110.527 256.632 112.866C251.606 116.609 249.737 126.434 252.892 131.697C253.243 132.165 253.476 132.749 253.71 133.334C253.476 133.568 253.243 133.802 252.892 134.036C251.84 132.749 250.788 131.58 249.854 130.41C247.283 133.919 247.283 134.387 249.152 146.434C248.334 145.849 247.633 145.498 247.049 145.03C244.712 149.942 245.296 154.738 248.568 159.299C248.101 159.416 247.75 159.533 247.283 159.533C246.698 158.597 245.997 157.545 245.179 156.141C242.959 161.054 244.712 164.913 247.049 169.007C246.231 168.539 245.53 168.188 244.712 167.72C244.945 172.866 247.283 176.024 250.555 175.79C254.528 175.439 256.164 172.282 255.814 165.03C254.645 165.615 253.593 166.083 251.84 166.901C254.294 163.276 256.281 160.352 258.501 156.96C257.099 156.609 256.515 156.492 255.697 156.258C258.618 152.282 262.358 148.773 259.436 143.393C258.385 143.861 257.45 144.328 256.047 145.03C258.385 141.872 260.722 139.533 262.124 136.609C263.293 134.153 263.293 131.229 263.643 128.422C263.643 127.954 262.708 127.369 261.774 126.434C261.657 126.901 261.657 126.317 261.89 126.083C266.097 121.872 265.864 116.609 266.214 111.229C266.799 102.574 264.345 94.8547 258.852 88.4219C251.606 79.767 242.491 74.1529 231.039 73.4512C227.182 73.2173 223.326 73.3342 219.469 73.4512C218.184 73.4512 216.781 73.5682 215.729 74.1529C212.457 76.1412 209.068 76.2582 205.446 76.0243C195.863 75.5565 189.202 80.8196 183.475 87.7202C181.372 90.2933 179.969 93.4512 178.216 96.2582C178.45 96.4921 178.801 96.843 179.034 97.0769C191.071 95.9073 200.771 90.4103 208.017 80.4687ZM286.198 233.217C288.068 236.024 289.821 238.948 291.691 241.755C291.924 242.223 292.625 242.34 293.093 242.691C293.327 242.457 293.677 242.34 293.911 242.106C291.924 238.48 289.821 234.855 287.834 231.229C288.068 230.995 288.418 230.761 288.769 230.644C292.275 232.983 293.327 237.194 295.664 240.703C297.534 235.79 291.924 233.451 291.924 229.358C292.275 229.124 292.625 228.89 292.976 228.773C295.196 231.814 297.3 234.855 299.52 237.779C299.871 237.545 300.105 237.428 300.455 237.194C298.819 234.036 297.183 230.878 295.547 227.72C299.754 229.592 300.923 233.334 302.559 237.311C305.247 234.738 303.844 231.58 302.909 229.592C301.507 226.434 299.287 223.276 296.482 221.17C292.392 218.13 291.34 214.153 290.288 209.708C288.535 201.989 286.432 194.27 284.796 186.434C284.211 183.393 284.211 180.235 283.978 177.194C283.276 167.252 282.225 157.428 278.719 148.071C276.732 142.574 273.226 138.013 268.201 134.504C267.85 134.855 267.5 135.089 267.383 135.439C264.929 143.276 263.994 151.463 265.747 159.533C266.799 164.445 269.37 169.007 270.889 173.802C272.525 179.065 272.174 184.211 269.954 189.358C269.136 191.112 269.37 193.568 269.837 195.439C271.707 203.51 273.927 211.463 275.914 219.533C276.732 223.042 277.199 226.668 277.901 230.176C278.018 230.878 278.485 231.463 278.836 232.515C282.341 228.773 283.51 229.007 286.198 233.217ZM187.682 361.872C188.15 369.007 186.747 375.322 182.307 380.937C181.605 381.755 180.904 382.808 180.904 383.744C180.904 385.498 181.021 387.603 181.956 388.89C182.424 389.591 185.228 389.591 186.28 388.89C190.02 386.317 193.759 383.627 196.915 380.352C200.187 377.077 203.108 373.334 205.796 369.475C206.965 367.72 207.315 365.03 207.432 362.808C207.9 357.077 208.133 351.346 208.133 345.615C208.133 344.679 207.082 343.159 206.264 343.042C200.304 341.872 194.227 340.937 188.15 340.001C187.799 339.884 187.332 340.235 187.565 340.118C187.565 347.72 187.215 354.855 187.682 361.872ZM226.247 342.34C226.247 350.761 226.247 359.182 226.247 367.603C226.247 368.305 226.364 369.241 226.831 369.708C231.857 375.089 235.947 381.521 242.842 385.03C247.166 387.252 250.321 386.668 251.256 383.159C251.723 381.521 251.256 379.416 250.672 377.779C250.087 376.141 249.035 374.504 247.984 373.1C244.361 367.954 243.66 362.34 244.595 356.375C245.179 352.866 245.413 349.475 245.88 345.966C246.231 342.457 246.698 339.065 247.166 334.972C239.686 337.545 233.025 340.001 226.247 342.34ZM301.624 239.65C301.858 240.82 302.793 242.925 302.909 244.913C303.26 254.27 303.377 263.744 303.377 273.1C303.494 285.966 303.494 298.831 303.377 311.697C303.26 317.077 302.208 322.457 302.208 327.837C302.091 336.024 302.559 344.211 302.676 352.398C302.793 355.79 302.676 359.182 302.909 362.457C303.026 363.393 304.078 364.211 304.779 365.03C305.831 364.211 307.701 363.51 307.701 362.574C307.934 358.013 307.701 353.334 307.818 348.773C307.934 342.574 308.285 336.258 308.402 330.059C308.519 324.913 308.402 319.767 308.519 314.621C308.636 303.159 309.103 291.697 309.103 280.352C309.103 268.539 308.869 256.843 308.519 245.03C308.402 242.106 307.35 239.182 306.649 236.375C304.779 237.662 303.494 238.48 301.624 239.65ZM239.57 385.03C235.713 382.34 232.792 378.48 229.402 375.089C228.584 374.27 228.117 373.217 227.182 372.515C225.897 378.363 229.636 381.755 232.908 384.913C236.882 388.656 241.556 391.697 246.231 394.504C247.867 395.556 250.204 395.673 252.191 395.556C255.697 395.322 257.566 391.463 256.047 387.603C255.463 385.966 254.528 384.328 253.593 382.223C251.022 389.942 245.763 389.475 239.57 385.03ZM177.282 396.375C179.502 399.065 182.774 399.533 186.514 397.311C193.058 393.568 198.083 388.071 202.758 382.223C204.978 379.416 207.666 376.843 206.731 372.398C206.264 372.866 205.913 373.1 205.562 373.451C200.304 378.597 195.045 383.86 189.669 389.007C188.851 389.825 187.682 390.293 186.631 390.644C182.774 392.165 180.671 391.112 178.684 387.018C175.762 390.293 175.178 393.919 177.282 396.375ZM253.593 178.363C254.645 181.521 255.58 183.977 256.398 186.551C257.333 189.241 257.333 191.931 255.697 194.504C256.632 189.124 254.995 184.562 252.308 180.118C251.022 180.235 249.62 180.352 248.217 180.469C246.815 183.276 247.049 186.083 247.984 189.007C249.386 193.685 250.321 198.597 251.49 203.393C260.371 196.141 261.89 183.042 253.593 178.363ZM282.926 233.334C281.757 233.685 280.355 234.855 279.887 236.024C278.952 238.13 278.485 240.586 278.134 242.925C278.018 243.627 279.069 244.562 279.537 245.381C280.004 244.679 280.705 244.094 280.939 243.393C281.757 240.586 282.108 237.545 286.081 235.907C284.679 234.738 283.51 233.1 282.926 233.334ZM309.454 370.176C308.402 370.761 307.467 371.229 305.597 372.398C307.584 373.334 308.753 373.919 309.921 374.504C310.038 374.153 310.272 373.802 310.389 373.451C310.155 372.515 309.921 371.463 309.454 370.176Z" fill="black"/>
<path d="M170.854 252.632C170.153 250.527 169.452 248.539 168.867 246.433C168.517 244.913 168.517 243.275 168.283 241.287C166.53 244.094 167.465 251.93 169.569 253.451C171.088 254.503 171.205 253.685 170.737 252.398C170.737 252.515 170.854 252.632 170.854 252.632Z" fill="black"/>
<path d="M165.128 253.918C165.245 254.035 165.478 254.269 165.595 254.386C166.179 254.62 166.647 254.737 166.764 254.737C165.946 250.76 165.011 246.784 163.959 242.105C162.557 246.667 163.725 250.293 165.128 253.918Z" fill="black"/>
<path d="M266.565 134.036C265.747 138.48 264.812 142.925 263.994 147.486C263.059 152.983 263.41 158.363 265.163 163.626C266.799 168.188 268.785 172.749 269.603 177.427C270.538 182.925 270.071 188.305 264.462 191.696C263.643 192.164 262.942 193.568 262.942 194.62C262.592 202.34 262.358 210.176 262.358 217.895C262.358 224.913 262.942 231.93 262.709 238.948C262.358 253.217 261.306 267.486 261.072 281.872C260.956 289.24 261.657 296.492 261.891 303.86C262.124 310.995 262.124 318.246 262.475 325.381C262.592 327.837 261.423 328.656 259.32 329.357C254.294 330.761 249.386 332.281 244.478 334.036C231.272 338.948 218.067 343.743 203.459 340.819C195.629 339.299 187.682 338.129 179.853 336.96C177.866 336.726 177.398 335.79 177.398 334.036C177.282 326.784 176.931 319.533 176.814 312.281C176.58 299.065 176.58 285.732 176.113 272.515C175.879 264.328 174.944 256.141 174.243 247.954C173.776 242.691 172.49 237.194 173.191 232.047C174.594 220.936 176.464 209.708 179.035 198.714C181.138 189.942 184.41 181.404 187.215 172.749C187.566 171.579 188.033 170.176 188.851 169.474C195.98 163.626 197.265 155.79 195.512 147.486C194.577 143.041 192.824 138.831 191.305 134.503C194.11 132.398 194.928 132.632 196.798 135.673C198.083 137.778 199.602 139.65 200.654 141.755C203.926 148.188 208.952 152.281 215.846 154.27C224.027 156.726 231.74 156.375 238.752 151.112C240.972 149.474 242.725 147.369 245.062 145.264C245.062 146.316 245.179 146.901 245.062 147.369C243.777 154.27 242.491 161.17 243.309 168.188C243.543 170.527 244.829 172.749 245.53 174.971C245.997 176.843 246.465 178.714 246.465 180.585C246.581 182.574 245.647 184.679 246.114 186.55C247.4 191.813 249.737 196.726 249.152 202.457C249.036 203.509 250.321 204.679 251.022 205.849C251.957 205.147 252.775 204.562 253.71 203.86C254.294 203.392 254.762 202.925 255.346 202.34C262.592 195.322 263.643 183.158 255.814 176.726C256.398 173.919 257.099 171.112 257.45 168.305C257.683 166.433 257.099 164.445 257.567 162.691C258.735 158.48 260.371 154.27 261.774 150.059C262.241 148.772 262.709 147.369 262.592 146.082C262.124 141.287 264.228 137.194 266.098 132.281C266.098 133.334 266.565 133.685 266.565 134.036ZM220.872 193.451C215.379 195.205 210.237 193.568 204.744 190.995C207.315 196.141 216.548 197.31 220.872 193.451Z" fill="white"/>
<path d="M223.092 129.122C216.898 133.333 210.237 135.672 202.757 132.982C199.719 131.929 196.68 130.643 193.876 129.239C181.605 123.274 177.047 113.216 179.034 98.9469C190.72 97.8942 199.836 92.1632 207.782 83.7422C211.055 89.3562 216.313 92.5141 222.04 94.0346C230.337 96.1399 238.868 97.1925 247.399 98.8299C248.801 99.0638 250.204 99.9995 252.19 100.935C251.957 101.169 252.424 100.818 252.892 100.35C254.878 98.713 256.514 99.4147 257.8 101.286C259.319 103.508 258.618 108.538 257.099 110.175C256.514 109.239 256.047 108.07 255.112 107.368C254.761 107.134 252.775 108.304 252.775 108.654C252.892 109.941 253.593 111.111 254.177 112.28C253.827 112.397 252.775 112.631 251.022 113.099C252.424 113.918 253.125 114.385 253.943 114.853C253.359 115.906 252.658 116.725 252.307 117.777C250.204 123.859 247.282 129.707 246.464 136.023C245.412 144.795 239.569 149.356 233.142 152.514C225.779 156.023 217.833 154.619 210.47 150.526C203.225 146.549 201.355 138.596 196.797 132.631C203.225 136.023 209.652 137.543 216.43 134.385C220.637 132.397 224.961 132.28 229.519 132.28C230.103 132.28 230.805 132.397 231.389 132.28C235.245 131.812 238.985 130.76 242.374 127.485C236.18 128.888 230.571 130.175 224.961 131.578C224.844 130.058 224.844 129.356 224.728 128.304C223.793 128.654 223.442 128.888 223.092 129.122ZM207.081 120C205.211 120.116 203.225 119.883 201.355 120.116C200.771 120.116 199.836 120.584 199.602 121.169C199.368 121.637 199.719 122.573 200.186 123.04C203.342 126.9 214.561 124.795 216.781 119.298C213.041 119.532 210.003 119.766 207.081 120ZM201.939 113.801C200.888 112.631 200.07 111.812 199.251 110.877C198.901 113.684 200.07 114.269 202.524 115.087C205.796 116.14 208.484 114.97 211.405 114.736C212.574 114.619 213.626 113.684 214.444 112.631C212.691 112.748 210.938 112.982 208.367 113.216C208.133 113.333 206.964 114.385 206.146 114.152C205.211 113.801 204.16 112.397 204.043 111.345C203.809 109.473 204.16 107.368 204.277 105.38C204.393 104.21 204.51 103.04 204.51 101.871C204.043 101.871 203.692 101.754 203.225 101.754C202.757 105.497 202.407 109.356 201.939 113.801ZM223.559 97.6603C222.274 97.8942 221.105 99.1808 220.521 100.467C223.559 100.35 226.597 100.233 229.87 99.9995C228.467 96.8416 225.896 97.1925 223.559 97.6603ZM221.105 105.029C222.39 104.795 223.325 104.444 224.377 104.444C225.312 104.327 226.364 104.327 227.299 104.678C229.519 105.497 230.454 104.678 230.22 101.637C227.299 103.508 222.858 99.5317 221.105 105.029ZM188.851 100.233C192.006 100.35 195.278 100.584 198.901 100.701C196.213 96.9586 190.37 96.8416 188.851 100.233ZM188.383 106.081C190.604 102.923 192.941 104.327 195.395 105.146C193.642 100.116 188.617 104.795 186.046 102.105C185.812 102.339 185.578 102.573 185.345 102.807C186.397 103.742 187.331 104.795 188.383 106.081Z" fill="white"/>
<path d="M179.034 97.3094C191.071 95.9059 200.771 90.4088 207.899 80.4673C210.47 87.6018 216.664 90.9936 223.325 92.631C232.791 95.0872 242.491 96.6076 252.191 97.6603C255.58 98.0111 258.501 97.6603 259.67 101.52C260.955 105.964 259.787 110.526 256.515 112.865C251.489 116.608 249.62 126.432 252.775 131.695C253.126 132.163 253.359 132.748 253.593 133.333C253.359 133.567 253.126 133.801 252.775 134.035C251.723 132.748 250.671 131.578 249.736 130.409C247.165 133.918 247.166 134.385 249.035 146.432C248.217 145.847 247.516 145.497 246.932 145.029C244.595 149.941 245.179 154.736 248.451 159.298C247.984 159.415 247.633 159.415 247.165 159.532C246.581 158.596 245.88 157.543 245.062 156.14C242.842 161.052 244.595 164.912 246.932 169.005C246.114 168.537 245.413 168.187 244.595 167.719C244.828 172.865 247.166 176.023 250.438 175.789C254.411 175.438 256.047 172.28 255.697 165.029C254.528 165.614 253.476 166.081 251.723 166.9C254.177 163.274 256.164 160.35 258.384 156.959C256.982 156.608 256.398 156.491 255.58 156.374C258.501 152.397 262.241 148.888 259.319 143.508C258.267 143.976 257.333 144.444 255.93 145.146C258.267 141.988 260.605 139.649 262.007 136.725C263.176 134.268 263.176 131.344 263.526 128.537C263.526 128.07 262.591 127.485 261.657 126.549C261.54 127.017 261.54 126.432 261.773 126.198C265.98 121.988 265.747 116.725 266.097 111.344C266.682 102.69 264.228 94.9702 258.735 88.5375C251.489 79.8825 242.374 74.2684 230.922 73.5667C227.065 73.3328 223.209 73.4497 219.352 73.5667C218.067 73.5667 216.664 73.6837 215.612 74.2684C212.34 76.2568 208.951 76.3737 205.328 76.1398C195.746 75.672 189.085 80.9351 183.358 87.8357C181.255 90.4088 179.852 93.5667 178.099 96.3737C178.45 96.7246 178.801 96.9585 179.034 97.3094Z" fill="white"/>
<path d="M279.186 232.514C282.341 228.771 283.393 229.005 286.198 233.215C288.068 236.022 289.821 238.946 291.691 241.753C291.924 242.221 292.625 242.338 293.093 242.689C293.327 242.455 293.677 242.338 293.911 242.104C291.924 238.479 289.821 234.853 287.834 231.227C288.185 230.993 288.418 230.759 288.769 230.642C292.275 232.981 293.327 237.192 295.664 240.701C297.534 235.789 291.924 233.449 291.924 229.356C292.275 229.122 292.625 228.888 292.976 228.771C295.196 231.812 297.3 234.853 299.52 237.777C299.871 237.543 300.105 237.426 300.455 237.192C298.819 234.034 297.183 230.876 295.547 227.718C299.754 229.59 300.923 233.332 302.559 237.309C305.247 234.736 303.844 231.578 302.909 229.59C301.507 226.432 299.287 223.274 296.482 221.169C292.392 218.128 291.34 214.151 290.288 209.707C288.535 201.987 286.432 194.268 284.796 186.432C284.211 183.391 284.211 180.233 283.978 177.192C283.276 167.25 282.225 157.426 278.719 148.069C276.732 142.572 273.226 138.011 268.201 134.502C267.85 134.853 267.5 135.087 267.383 135.438C264.929 143.274 263.994 151.461 265.747 159.531C266.799 164.443 269.37 169.005 270.889 173.8C272.525 179.063 272.174 184.21 269.837 189.356C269.019 191.11 269.253 193.566 269.72 195.438C271.59 203.508 273.81 211.461 275.797 219.531C276.615 223.04 277.083 226.666 277.784 230.174C278.368 230.876 278.836 231.578 279.186 232.514Z" fill="white"/>
<path d="M187.565 340.234C187.565 347.602 187.215 354.737 187.682 361.871C188.15 369.006 186.747 375.322 182.307 380.936C181.605 381.754 180.904 382.807 180.904 383.743C180.904 385.497 181.021 387.602 181.956 388.889C182.424 389.591 185.228 389.591 186.28 388.889C190.02 386.316 193.759 383.626 196.915 380.351C200.187 377.076 203.108 373.333 205.796 369.474C206.965 367.719 207.315 365.029 207.432 362.807C207.9 357.076 208.133 351.345 208.133 345.614C208.133 344.678 207.082 343.158 206.264 343.041C200.304 341.871 194.227 340.936 188.15 340C187.799 340 187.449 340.351 187.565 340.234Z" fill="white"/>
<path d="M247.049 334.971C239.686 337.544 233.025 340 226.247 342.339C226.247 350.76 226.247 359.181 226.247 367.602C226.247 368.304 226.364 369.24 226.831 369.708C231.856 375.088 235.947 381.52 242.842 385.029C247.165 387.251 250.321 386.667 251.256 383.158C251.723 381.52 251.256 379.415 250.671 377.778C250.087 376.14 249.035 374.503 247.983 373.099C244.361 367.953 243.66 362.339 244.594 356.374C245.062 352.865 245.413 349.474 245.88 345.965C246.231 342.456 246.581 338.947 247.049 334.971Z" fill="white"/>
<path d="M306.649 236.49C304.896 237.66 303.494 238.479 301.624 239.648C301.858 240.818 302.792 242.923 302.909 244.911C303.26 254.268 303.377 263.742 303.377 273.098C303.494 285.964 303.494 298.829 303.377 311.695C303.26 317.075 302.208 322.455 302.208 327.835C302.091 336.022 302.559 344.21 302.676 352.397C302.792 355.789 302.676 359.18 302.909 362.455C303.026 363.391 304.078 364.21 304.779 365.028C305.831 364.21 307.701 363.508 307.701 362.572C307.934 358.011 307.701 353.332 307.818 348.771C307.934 342.572 308.285 336.256 308.402 330.058C308.519 324.911 308.402 319.765 308.519 314.619C308.636 303.157 309.103 291.695 309.103 280.35C309.103 268.537 308.869 256.841 308.519 245.028C308.285 242.221 307.233 239.297 306.649 236.49Z" fill="white"/>
<path d="M253.593 382.338C251.022 389.941 245.763 389.473 239.57 385.145C235.713 382.455 232.791 378.596 229.402 375.204C228.584 374.385 228.117 373.333 227.182 372.631C225.897 378.479 229.636 381.871 232.908 385.029C236.882 388.771 241.556 391.812 246.231 394.619C247.867 395.672 250.204 395.789 252.191 395.672C255.697 395.438 257.566 391.578 256.047 387.719C255.463 385.964 254.528 384.327 253.593 382.338Z" fill="white"/>
<path d="M178.684 387.018C175.762 390.293 175.178 393.919 177.282 396.375C179.502 399.065 182.774 399.533 186.514 397.311C193.058 393.568 198.083 388.071 202.758 382.223C204.978 379.416 207.666 376.843 206.731 372.398C206.264 372.866 205.913 373.1 205.562 373.451C200.304 378.597 195.045 383.86 189.669 389.007C188.851 389.825 187.682 390.293 186.631 390.644C182.774 392.165 180.671 391.112 178.684 387.018Z" fill="white"/>
<path d="M247.984 189.007C247.166 185.966 246.815 183.159 248.217 180.469C249.737 180.352 251.022 180.235 252.307 180.118C254.878 184.562 256.515 189.24 255.697 194.504C257.333 191.931 257.333 189.24 256.398 186.55C255.58 183.977 254.645 181.404 253.593 178.363C262.007 183.042 260.371 196.141 251.489 203.393C250.321 198.48 249.386 193.685 247.984 189.007ZM251.84 187.135C251.489 187.252 251.022 187.252 250.671 187.369C251.489 191.463 252.191 195.556 253.009 199.533C253.359 199.416 253.71 199.416 254.177 199.299C253.359 195.322 252.658 191.229 251.84 187.135Z" fill="white"/>
<path d="M302.442 366.082C302.091 367.251 301.857 368.421 301.507 369.473C300.806 372.046 299.871 374.62 299.403 377.31C299.286 378.128 300.806 379.181 301.507 380.117C302.091 379.181 302.909 378.362 303.143 377.31C303.61 375.555 303.26 373.216 304.195 371.929C305.363 370.409 307.817 368.655 309.57 368.772C311.908 369.006 314.829 370.058 314.829 373.567C314.829 374.035 315.414 374.503 315.764 375.087C317.985 372.397 316.115 366.666 312.726 366.082C310.973 365.731 309.103 366.549 307.233 366.549C305.714 366.549 304.078 366.315 302.442 366.082Z" fill="white"/>
<path d="M302.442 366.083C297.65 363.626 294.378 365.849 291.573 370.41C290.755 371.814 289.119 374.387 292.625 375.556C293.21 374.504 293.443 373.334 294.261 372.515C295.43 371.229 296.832 370.059 298.235 369.007C299.52 368.071 301.039 367.135 302.442 366.083Z" fill="white"/>
<path d="M285.964 235.906C284.562 234.736 283.393 233.216 282.809 233.333C281.64 233.683 280.238 234.853 279.77 236.023C278.835 238.128 278.368 240.584 278.017 242.923C277.901 243.625 278.952 244.561 279.42 245.379C279.887 244.678 280.588 244.093 280.822 243.391C281.64 240.467 281.991 237.426 285.964 235.906Z" fill="white"/>
<path d="M310.505 373.451C310.272 372.515 309.921 371.462 309.571 370.176C308.519 370.761 307.584 371.228 305.714 372.398C307.701 373.334 308.869 373.919 310.038 374.503C310.155 374.152 310.272 373.802 310.505 373.451Z" fill="white"/>
<path d="M204.744 190.994C207.315 196.14 216.664 197.31 220.871 193.45C215.379 195.205 210.237 193.567 204.744 190.994Z" fill="black"/>
<path d="M200.07 122.924C199.719 122.456 199.252 121.521 199.485 121.053C199.719 120.585 200.654 120.117 201.238 120C203.108 119.883 205.095 120 206.965 119.883C210.003 119.649 213.041 119.415 216.547 119.064C214.327 124.795 203.225 126.784 200.07 122.924ZM213.859 120.819C209.769 121.17 205.679 121.638 201.589 121.988C206.03 124.445 210.003 123.158 213.859 120.819Z" fill="black"/>
<path d="M203.225 101.637C202.875 105.496 202.524 109.356 202.056 113.8C201.005 112.631 200.187 111.812 199.369 110.876C199.018 113.683 200.187 114.268 202.641 115.087C205.913 116.14 208.601 114.97 211.522 114.736C212.691 114.619 213.743 113.683 214.561 112.631C212.808 112.748 211.055 112.982 208.484 113.216C208.25 113.333 207.082 114.385 206.264 114.151C205.329 113.8 204.277 112.397 204.16 111.344C203.926 109.473 204.277 107.368 204.394 105.379C204.511 104.21 204.628 103.04 204.628 101.871C204.043 101.754 203.576 101.754 203.225 101.637Z" fill="black"/>
<path d="M229.87 100.116C228.468 96.8415 225.897 97.1924 223.559 97.6602C222.274 97.8941 221.105 99.1807 220.521 100.467C223.559 100.35 226.598 100.233 229.87 100.116Z" fill="black"/>
<path d="M230.22 101.637C227.299 103.508 222.858 99.5315 221.105 105.029C222.39 104.795 223.325 104.444 224.377 104.444C225.312 104.327 226.364 104.327 227.299 104.678C229.519 105.496 230.454 104.678 230.22 101.637Z" fill="black"/>
<path d="M198.901 100.702C196.213 96.8425 190.487 96.8425 188.851 100.234C192.006 100.351 195.278 100.585 198.901 100.702Z" fill="black"/>
<path d="M185.345 102.69C186.28 103.743 187.332 104.795 188.383 105.965C190.604 102.807 192.941 104.21 195.395 105.029C193.642 100 188.617 104.678 186.046 101.988C185.812 102.339 185.579 102.456 185.345 102.69Z" fill="black"/>
<path d="M254.177 199.299C253.359 195.205 252.658 191.111 251.84 187.135C251.489 187.252 251.022 187.252 250.671 187.369C251.489 191.462 252.19 195.556 253.009 199.532C253.359 199.416 253.71 199.415 254.177 199.299Z" fill="black"/>
<path d="M201.706 121.988C206.03 124.444 210.003 123.158 213.977 120.818C209.769 121.286 205.679 121.637 201.706 121.988Z" fill="white"/>
</g>
<defs>
<clipPath id="clip0_703_8421">
<rect width="322.192" height="400" fill="white"/>
</clipPath>
</defs>
</svg>
