<svg width="90" height="156" viewBox="0 0 90 156" fill="none" xmlns="http://www.w3.org/2000/svg">
<path d="M88.5766 82.5323C89.7072 85.358 89.4559 86.1115 87.0064 88.0581C86.6923 88.3093 86.4411 88.8745 86.4411 89.314C86.5039 95.6561 86.7551 101.935 86.7551 108.278C86.7551 112.61 86.5039 116.88 86.4411 121.213C86.3783 123.913 86.6295 126.613 86.4411 129.313C86.1898 132.641 85.6245 135.907 85.1221 139.486C86.6923 140.553 87.3832 142.249 86.7551 144.635C86.5039 145.577 87.0692 146.833 87.5716 147.774C88.1997 148.968 89.0163 150.098 88.0113 151.354C86.9436 152.672 85.4361 152.735 83.9287 152.358C83.3634 152.233 82.8609 151.982 82.3585 151.668C80.1601 150.349 77.899 149.721 75.3238 150.6C74.3817 150.914 73.1255 150.349 71.8065 150.098C72.4974 150.914 73.0627 151.605 73.5651 152.358C74.6957 153.928 74.4445 155.31 72.623 155.812C71.3668 156.126 69.7338 156.063 68.5404 155.498C66.028 154.305 63.7669 152.61 61.3173 151.228C60.6892 150.914 59.8727 150.726 59.1818 150.851C56.7322 151.291 54.3455 151.919 51.9587 152.358C51.5191 152.421 50.9538 152.296 50.4513 152.107C46.6199 150.789 43.4795 148.402 40.5902 145.702C39.5225 144.698 39.5225 142.5 39.2712 140.867C37.9522 132.139 37.6382 123.348 37.5126 114.557C37.4498 111.417 37.5754 111.103 35.1886 110.915C37.1985 114.745 36.7589 118.89 36.8217 122.908C36.9473 130.632 35.8167 138.104 31.106 144.635C26.2069 151.417 18.3557 152.861 11.1326 148.465C5.66822 145.137 2.96742 140.051 1.64842 134.086C-0.29867 125.295 0.0153804 116.503 2.33933 107.838C3.59551 103.066 5.60541 98.6074 9.49959 95.3422C10.1277 94.777 10.8186 94.0235 11.5723 93.8351C13.2682 93.3956 13.2682 92.3909 13.0169 91.0094C12.7029 89.4396 12.7657 87.807 12.5773 86.1743C12.4516 85.1069 11.7607 84.1022 11.8863 83.0975C12.0748 81.0253 10.5673 79.6439 10.2533 77.8856C10.0021 76.1902 10.2533 74.3064 10.7558 72.6738C11.8235 69.283 12.9541 65.8921 14.4615 62.6269C15.4665 60.4291 17.0367 58.4825 18.3557 56.4732C15.7177 53.3963 16.1574 50.0682 16.9111 46.7402C17.4136 44.2913 18.5441 41.7167 18.1673 39.3934C17.4136 34.4955 18.1673 29.9116 19.2979 25.2021C20.1772 21.3717 20.6168 17.4158 20.9937 13.5226C21.559 7.49444 25.1391 3.85244 30.3523 1.78026C37.0729 -0.794262 43.7307 -0.79426 50.0744 3.22451C53.1521 5.1711 54.7851 7.99679 55.6017 11.3248C56.6694 15.4064 57.6116 19.4879 58.5537 23.5695C59.4958 27.8394 59.3074 32.1094 58.5537 36.4421C58.3025 38.0747 58.114 39.6446 60.0611 40.8376C63.0132 42.7214 64.1437 46.0495 65.3371 49.1263C66.4677 52.2032 67.347 55.3429 68.4148 58.4197C69.0429 60.178 69.9222 61.8106 70.5503 63.506C70.9271 64.4479 71.1156 65.4526 71.4924 66.8968C74.4445 68.2155 77.9618 69.5969 81.3535 71.2924C83.7403 72.4854 86.0642 73.8041 88.3254 75.3111C90.0212 76.567 90.0212 80.9625 88.5766 82.5323C88.5766 81.7788 88.5766 81.0253 88.6394 80.209C88.8906 78.1996 88.765 76.3786 86.6295 75.3111C84.5568 74.3064 82.5469 73.1134 80.4742 72.1087C77.5221 70.6644 74.5073 69.283 71.4924 67.9015C70.99 67.6503 70.2991 67.3992 69.9222 67.5876C68.1007 68.4667 66.3421 69.5341 64.3322 70.6644C65.714 71.7947 66.6561 72.7366 67.8495 73.3017C69.8594 74.3064 71.9949 75.1227 74.0676 75.9391C76.9568 77.1321 79.9089 78.2624 82.7353 79.5811C84.1171 80.209 84.6196 82.5951 83.8659 84.0394C83.7403 83.9766 83.6147 83.9766 83.5518 83.9138C83.489 83.7882 83.3634 83.5998 83.3634 83.4742C83.3634 80.9625 81.6676 79.8322 79.5948 79.0159C78.7783 78.702 77.9618 78.5136 77.1453 78.1996C73.3767 76.567 69.5453 75.1227 65.8396 73.3017C63.8925 72.3598 62.6363 72.3598 61.3801 74.2436C63.2016 75.1227 65.0859 76.0018 66.9702 76.881C72.623 79.5183 78.2131 82.2184 83.8659 84.9185C85.4361 85.672 87.6345 84.4789 87.9485 82.6579L87.8857 82.7207C88.0741 82.5951 88.3254 82.5951 88.5766 82.5323ZM58.9934 40.7749C53.6546 52.6428 36.382 55.4057 28.9077 41.5912C21.7474 47.117 20.3028 56.222 15.2781 62.9408C14.5871 63.82 14.4615 65.0758 14.0219 66.2689C16.597 67.0852 19.1722 67.3364 20.8681 69.283C18.6698 68.655 16.5342 67.9015 14.4615 67.148C13.4566 66.7712 13.4566 66.7712 13.4566 67.7759C15.4037 68.5295 17.288 69.1574 19.1094 69.9109C20.24 70.3505 21.9987 70.0365 22.3755 69.0318C22.9408 67.5876 21.4962 67.462 20.8053 67.0224C19.9888 66.4573 18.921 66.2061 17.9789 65.8293C17.2251 65.5154 16.4086 65.2014 15.5921 64.9502C15.6549 64.7619 15.7177 64.6363 15.7805 64.4479C16.283 64.5107 16.8483 64.5735 17.3508 64.7619C18.8582 65.327 20.3028 66.0177 21.8102 66.5829C22.1871 66.7084 22.7524 66.7712 23.0036 66.5829C23.3176 66.2689 23.6945 65.5154 23.5689 65.327C22.6896 64.0711 23.5061 63.192 24.0714 62.1873C24.9507 60.7431 25.7044 59.2361 26.5837 57.8546C27.5887 56.3476 28.7193 54.9661 29.9754 53.3335C30.0383 54.3382 30.0383 54.9661 30.1639 55.594C30.5407 58.9221 30.9176 62.1873 31.2944 65.5154C31.6085 68.7806 31.8597 71.9831 32.2366 75.2483C32.2994 75.6251 32.7391 76.1902 33.1159 76.3786C35.8167 77.3833 37.8894 78.9531 38.5175 81.9672C38.7688 83.3486 39.5853 83.9766 41.0299 83.851C42.5373 83.7254 44.0447 84.1022 45.4894 83.7882C48.7554 83.0975 52.0843 82.2812 55.2248 81.1509C56.3554 80.7113 57.8628 79.3299 57.9884 78.1996C58.4909 73.4901 58.5537 68.7178 58.7421 63.9455C58.8049 62.2501 58.6793 60.4919 58.8678 58.7965C59.2446 55.2801 59.5587 51.7637 57.5488 48.624C57.4859 48.5612 57.6116 48.3728 57.7372 47.9333C59.7471 50.3194 60.0611 52.8311 60.0611 55.594C60.0611 56.9127 60.438 58.2314 60.8148 59.55C61.2545 61.0571 62.4479 62.5641 62.2595 63.8827C61.8198 66.3945 64.2694 67.7759 63.5156 70.2877C65.6512 69.0946 67.4726 68.0899 69.2313 67.0224C70.3619 66.3317 70.8643 65.5154 69.8594 64.2595C69.2941 63.5688 68.7916 62.7525 68.4776 61.8734C67.5983 59.2988 66.9074 56.5987 65.9024 54.0242C64.709 50.8846 63.5156 47.6821 62.0082 44.668C61.4429 43.161 60.1239 42.0935 58.9934 40.7749ZM46.8712 31.8582C45.5522 34.9979 43.6051 37.384 40.1506 38.0119C38.8944 38.2631 38.2035 38.5771 38.4547 39.833C35.3771 39.1422 32.8019 40.7748 29.6614 41.2772C31.6085 43.6633 32.9903 46.1123 35.4399 47.6821C39.2084 50.131 43.2282 50.3822 47.4365 49.4403C51.9587 48.4356 55.2248 45.8611 57.2975 41.7795C57.486 41.34 57.4231 40.3981 57.1091 40.1469C56.167 39.4562 55.0992 38.8283 53.9686 38.3887C51.3934 37.5096 49.886 35.6258 49.8232 32.2978C49.8232 29.2209 50.3885 26.144 50.5769 23.0672C50.7025 21.4345 51.3306 20.6182 52.9637 20.9322C53.9686 19.5507 54.0942 18.1065 53.4661 16.6623C53.1521 16.0343 52.7124 15.532 52.3356 14.9668C51.8959 15.4064 51.4562 15.9087 51.0794 16.2855C50.6397 16.2227 50.0744 15.9715 49.7604 16.1599C47.7505 17.1018 45.5522 17.7297 45.1753 20.6182C44.9241 22.6904 43.1026 23.7579 41.0927 23.9463C39.334 24.0719 37.9522 23.13 37.1985 21.4345C37.0101 21.0578 36.382 20.9322 35.8167 20.6182C35.6911 21.2462 35.6283 21.4973 35.5655 21.7485C35.063 24.6998 33.43 26.0812 30.5407 26.0812C28.3424 26.0812 26.2697 24.323 25.9556 21.8741C25.7044 19.9903 26.0185 18.1065 27.7143 16.9762C29.4102 15.8459 31.2316 15.8459 32.8647 17.1018C33.9952 17.9809 34.9374 18.9856 36.2564 20.1787C36.4448 19.5507 36.6961 19.0484 36.7589 18.4833C36.9473 15.8459 39.1456 13.8366 41.658 14.4645C43.1654 14.8412 44.5472 15.9087 46.2431 16.7878C46.8084 16.4739 47.8133 15.9715 48.9439 15.4064C46.6199 13.4598 44.61 11.576 42.4117 9.88059C40.2134 8.18517 37.8894 6.61534 35.7539 5.1083C34.4977 6.30137 33.1787 7.68282 31.7341 8.8759C29.9754 10.3829 28.0284 11.576 26.4581 13.2086C25.0763 14.5901 24.197 16.1599 24.511 18.4833C25.0135 22.3764 26.4581 25.8929 28.154 29.3465C29.7242 32.5489 32.0482 35.249 35.4399 36.8817C38.0779 38.0747 41.1555 37.698 43.2282 35.6886C44.5472 34.4955 45.6778 33.1141 46.8712 31.8582ZM35.8167 120.02C35.5655 118.387 35.4399 115.499 34.6861 112.736C33.8068 109.785 32.4878 106.896 31.106 104.07C29.2845 100.366 26.9606 97.0376 23.0664 95.091C19.9888 93.5212 17.0367 92.642 13.5822 93.8979C10.1905 95.091 7.86655 97.6027 6.23351 100.428C2.96742 106.08 1.58561 112.359 1.33437 118.827C1.08314 125.922 1.46 132.893 4.53765 139.611C7.11284 145.2 14.5871 150.286 20.3028 149.658C23.3176 149.282 26.0185 148.34 28.154 146.33C30.9804 143.693 32.6134 140.239 33.8068 136.597C35.5655 131.637 35.5655 126.425 35.8167 120.02ZM38.7688 84.7929C39.1456 86.2371 39.3969 87.3046 39.7109 88.3721C40.0249 89.3768 40.7787 90.3187 40.9043 91.3234C41.2183 93.7095 41.5324 96.0957 41.3439 98.4818C41.1555 100.994 42.2861 102.187 44.296 103.066C44.7356 103.254 45.0497 103.505 45.4894 103.756C47.8761 105.075 50.2001 106.331 52.6496 107.65C55.2248 104.008 58.8049 101.81 62.8876 99.9889C62.1966 99.3609 61.6942 98.7958 61.1289 98.419C58.0512 96.3468 54.9736 94.3375 51.8959 92.2653C51.3306 91.8885 50.9538 91.135 50.4513 90.5699C50.5769 90.4443 50.7025 90.3187 50.8282 90.2559C51.6447 90.821 52.4612 91.449 53.4033 92.0769C53.9686 91.3234 54.4083 90.6327 54.9736 90.0047C55.2248 89.7536 55.6017 89.628 55.9785 89.4396C55.9157 89.8164 56.0413 90.3187 55.8529 90.6327C55.476 91.2606 54.9736 91.8257 54.5339 92.3909C57.1719 94.2119 59.7471 95.9701 62.2595 97.8539C63.5156 98.7958 64.709 99.8633 64.6462 101.747C64.6462 102.375 65.3999 103.129 65.9024 103.631C66.8445 104.51 67.9123 105.263 68.9801 106.08C71.618 102.501 75.4494 100.366 79.532 98.1678C78.7783 97.4771 78.2758 96.9748 77.7106 96.598C73.942 94.1491 70.1106 91.7629 66.3421 89.314C62.8247 86.9907 58.8049 85.0441 58.2397 80.3346C56.795 81.2137 55.4132 82.4696 53.843 82.8463C50.0744 83.7254 46.2431 84.2278 42.4117 84.7929C41.3439 84.9813 40.2762 84.7929 38.7688 84.7929ZM57.1719 38.7655C57.3603 37.5724 57.486 36.4421 57.6116 35.3118C58.1769 30.6651 58.3025 26.0184 56.7322 21.4345C55.8529 18.7972 55.5389 15.9087 54.9108 13.2086C53.9686 9.06427 52.3356 5.54785 48.253 3.47568C44.8613 1.78026 41.3439 0.963949 37.5754 1.08954C29.4102 1.34071 21.559 5.92461 21.3078 16.5367C21.1821 20.0531 20.4912 23.5695 19.8003 26.9603C19.1094 30.2256 18.2301 33.428 18.921 36.8817C19.6119 40.0213 19.1722 43.0982 17.9789 46.1123C17.0995 48.31 17.0367 50.5078 17.4764 52.8311C17.602 53.5847 17.8532 54.3382 18.0417 55.1545C18.2301 55.1545 18.3557 55.1545 18.5441 55.1545C18.8582 54.5894 19.1094 54.087 19.4235 53.5219C20.554 51.4497 21.4334 49.2519 22.7524 47.3681C24.2598 45.2332 25.7672 42.7842 27.9027 41.5284C30.4779 39.9585 33.6812 39.3934 36.382 38.5143C27.6515 35.3118 25.7044 27.1487 23.6317 18.9228C23.3805 19.7391 23.1292 20.4298 22.7524 21.4973C20.8681 14.1505 27.9655 5.35947 31.5457 5.92461C29.9754 7.18048 28.2796 8.24796 27.0234 9.62941C25.83 11.0109 25.0135 12.7063 23.8829 14.5901C25.7672 12.8947 27.2118 11.3248 28.9077 10.069C31.4829 8.12237 34.3093 6.55254 35.377 3.47568C37.9522 5.42227 40.2762 7.55724 42.977 9.00148C45.6778 10.5085 47.1224 13.6482 50.6397 14.5901C48.4414 10.6341 45.7406 7.55724 42.2233 5.17109C42.9142 5.1083 43.4795 5.29668 43.9191 5.54785C46.5571 7.11768 48.5042 9.37824 50.2001 12.0156C50.5769 12.5807 50.9538 13.5226 51.4562 13.5854C54.3455 14.0249 54.3455 16.2855 54.6595 18.2949C55.0364 20.4298 54.2827 22.0625 51.4562 21.9997C51.2678 25.5161 50.891 28.9697 50.8282 32.4861C50.8282 34.3071 51.3934 36.1282 53.2777 37.07C54.5339 37.6352 55.7901 38.1375 57.1719 38.7655ZM62.6991 140.177C62.8247 138.669 63.076 137.162 63.1388 135.593C63.4528 129.941 63.7041 124.227 63.8925 118.576C64.0181 114.62 64.2066 110.664 64.2066 106.708C64.2066 104.824 63.7041 102.94 63.39 100.491C60.6892 102.249 58.3653 103.442 56.3554 105.138C54.3455 106.833 52.5868 108.592 52.9009 111.92C53.5918 120.145 53.6546 128.434 54.0314 136.66C54.0942 138.104 54.2199 139.549 56.2926 139.36C56.6694 139.36 57.1719 139.486 57.4231 139.737C59.0562 141.495 60.8148 141.244 62.6991 140.177ZM78.5899 138.104C78.7155 125.295 81.1651 112.673 80.0345 99.8005C79.532 99.8633 78.9668 99.8005 78.5899 100.052C76.2031 101.559 73.8164 103.066 71.5552 104.761C69.7338 106.143 69.1057 107.838 69.4825 110.413C70.8015 118.576 70.4875 126.864 70.4247 135.153C70.4247 136.346 70.4247 137.476 70.4247 138.669C70.5503 138.544 70.6131 138.355 70.7387 138.23C73.3767 140.742 75.7007 138.167 78.5899 138.104ZM42.7257 140.428C46.1175 139.486 49.0067 138.607 51.8959 137.916C53.0265 137.665 53.2149 137.288 53.1521 136.221C52.7752 129.188 52.3984 122.155 52.0843 115.059C52.0843 114.871 52.0215 114.682 51.9587 114.62C49.3207 114.62 46.8084 114.808 44.296 114.557C41.5324 114.243 41.2811 114.369 41.4067 117.069C41.658 122.657 41.7836 128.309 42.0348 133.897C42.2233 136.158 42.5373 138.355 42.7257 140.428ZM33.8696 89.9419C29.5358 89.3768 25.3904 88.8117 21.3078 88.2465C21.3078 88.3721 21.2449 88.4977 21.2449 88.6861C25.516 89.6908 29.787 90.6955 33.9324 91.6374C35.0002 88.6861 35.3142 85.8604 33.3043 82.7835C35.1258 83.851 36.4448 86.9279 35.6911 88.4977C34.9374 90.0675 35.1258 91.5746 35.2514 93.0816C35.5027 95.7189 35.9423 98.2934 36.3192 100.868C36.5704 102.375 36.8217 103.882 37.0729 105.452C37.3241 105.452 37.5126 105.389 37.7638 105.389C38.7688 97.4143 36.9473 89.628 35.6283 81.5276C37.4498 83.4114 37.387 85.6092 37.5126 87.807C39.2712 83.851 37.3241 79.2671 34.4349 78.0112C30.0383 76.1274 25.4532 74.6832 20.6797 74.0553C18.7326 73.8041 16.8483 73.5529 14.9012 73.3645C14.9012 73.1761 14.9012 72.9878 14.9012 72.7994C16.0946 72.7994 17.288 72.8622 18.4185 72.7366C18.7954 72.6738 19.2979 72.297 19.4235 71.9203C19.5491 71.6691 19.235 71.0412 18.921 70.9156C17.4764 70.2249 16.0318 69.4086 14.5243 68.969C13.4566 68.655 12.2004 68.5922 12.012 70.4132C11.8863 71.9831 11.3211 73.4901 11.007 75.0599C10.3161 78.388 10.7558 79.5811 14.0219 80.209C18.1045 81.0253 22.2499 81.2137 26.3953 81.6532C28.468 81.8416 30.6663 81.6532 32.111 83.6626C33.744 85.6092 33.8696 87.807 33.8696 89.9419ZM62.0082 80.7741C61.5057 83.9766 62.5735 85.9232 65.0859 87.3674C69.4197 89.8792 73.628 92.5165 77.7734 95.3422C79.4692 96.4724 81.1651 97.7911 81.1023 100.366C81.1023 101.496 80.7254 103.129 82.7981 103.568V91.2606C76.0147 87.807 69.1057 84.3533 62.0082 80.7741ZM64.0809 138.669C65.6512 137.979 67.033 137.414 68.4148 136.66C68.9173 136.409 69.4197 135.718 69.4825 135.216C69.6082 132.202 69.5453 129.188 69.5453 126.174C69.4825 121.715 69.3569 117.257 69.2313 112.673C68.4776 112.861 68.0379 112.924 67.5983 113.05C64.8346 113.489 64.8975 113.489 64.7718 116.127C64.5834 120.522 64.3322 124.918 64.2066 129.313C64.0181 132.39 64.0809 135.467 64.0809 138.669ZM35.8167 105.138C35.3142 100.868 34.8118 96.7864 34.3093 92.956C27.3375 91.135 20.6169 89.3768 13.5194 87.493C13.7706 89.314 13.9591 90.8838 14.1475 92.5793C15.8433 92.5793 17.5392 92.2653 19.1094 92.642C24.9507 93.9607 29.2217 97.4143 31.7341 102.94C32.4878 104.761 33.9324 105.201 35.8167 105.138ZM63.5785 147.084C64.0809 146.393 64.5834 145.765 65.0231 145.137L64.8974 144.698C64.0181 144.949 63.1388 145.2 62.2595 145.451C62.1966 145.388 62.1338 145.263 62.1338 145.2C62.6991 144.698 63.2644 144.132 64.0809 143.379C63.39 142.688 62.8247 141.809 62.0082 141.432C61.6942 141.307 60.8777 142.311 60.0611 142.939C60.1239 143.002 59.8727 142.814 59.6215 142.625C58.4281 141.809 57.2347 140.93 55.9157 140.239C55.6645 140.114 54.5967 140.679 54.6595 140.867C54.848 142.186 54.848 143.819 55.6017 144.698C58.7421 148.465 62.5107 151.542 66.8445 153.928C68.1635 154.619 69.671 155.121 71.1784 155.372C71.8065 155.498 72.9371 154.996 73.1883 154.431C73.4395 153.928 72.9999 152.861 72.5602 152.358C71.0528 150.663 69.3569 149.156 67.7867 147.586C66.9702 148.151 66.4049 148.528 65.8396 148.905C65.714 148.779 65.5883 148.654 65.5255 148.528C65.9652 147.963 66.4049 147.335 66.8445 146.77C65.4627 144.949 64.8975 147.523 63.5785 147.084ZM59.6215 149.972C55.6017 146.895 52.5868 143.756 53.4661 138.293C49.886 139.737 46.2431 139.423 43.291 141.746C43.7307 142.123 43.9191 142.249 44.1076 142.374C46.1803 144.07 48.3786 145.702 46.9968 148.905C46.934 149.093 47.1224 149.658 47.3736 149.784C48.8183 150.412 50.3257 151.417 51.7703 151.354C54.2199 151.291 56.6694 150.537 59.6215 149.972ZM76.0147 142.06C74.3817 141.118 73.2511 140.365 71.9949 139.863C71.618 139.737 70.6131 140.239 70.5503 140.49C70.3619 142.123 70.3619 143.693 72.1833 144.572C72.8114 144.886 73.2511 145.388 73.8792 145.765C77.3337 147.649 80.7254 149.596 84.1799 151.354C85.3105 151.919 86.8807 151.856 87.3204 150.663C87.6345 149.909 87.0064 148.402 86.3783 147.774C84.4312 145.891 82.2956 144.258 80.2229 142.563C79.3436 143.065 78.5271 143.505 77.7106 143.944C77.6478 143.819 77.5221 143.63 77.4593 143.505C78.0874 143.002 78.7783 142.437 79.4692 141.935C78.9668 141.056 78.6527 139.8 77.899 139.486C77.2081 139.172 76.0147 139.737 75.0098 139.988C75.3238 140.679 75.5751 141.118 76.0147 142.06ZM38.1407 88.2465C38.3919 90.5699 38.6431 92.5793 38.7059 94.5258C38.8316 98.0423 38.9572 101.621 38.8944 105.138C38.8944 106.268 38.2035 107.022 36.8217 106.582C35.7539 106.268 34.6233 106.08 33.1787 105.703C34.2465 107.398 33.9952 109.596 36.1936 110.036C37.8894 110.35 38.2035 111.48 38.2663 112.736C38.5175 119.266 38.706 125.797 38.9572 132.265C39.6481 132.013 40.4018 131.699 41.3439 131.385C41.2183 128.874 40.9671 126.299 40.9043 123.787C40.7787 119.957 40.653 116.127 40.5902 112.296C40.4646 105.829 40.339 99.4237 40.1506 92.956C40.0249 91.3862 39.7109 89.6908 38.1407 88.2465ZM31.106 75.3739C30.7292 71.0412 30.3523 66.834 29.9126 62.4385C27.9027 62.8153 26.0185 63.192 24.0714 63.5688C24.1342 63.9455 24.197 64.1967 24.2598 64.3851C24.6366 65.641 23.4433 69.3458 22.5639 70.2249C21.7474 70.9784 20.9937 71.9203 20.1772 72.8622C23.8829 73.7413 27.4003 74.4948 31.106 75.3739ZM12.7029 81.2137C12.012 81.9672 12.2632 82.9719 13.2682 83.537C14.8384 84.4789 16.3458 85.6092 18.1045 85.986C22.878 87.1162 27.7771 87.8698 32.6134 88.8117C32.8019 88.5605 32.9275 88.3721 33.1159 88.1209C32.6763 87.1162 32.4878 85.4836 31.7341 85.1697C28.8449 84.0394 25.7672 83.1603 22.7524 82.5323C19.4863 81.9672 16.1574 81.716 12.7029 81.2137ZM82.7353 108.215C81.2279 109.282 80.851 110.413 81.0395 111.92C81.1651 113.113 81.0395 114.306 80.9138 115.499C80.3486 121.966 79.7833 128.434 79.2808 134.902C79.218 135.781 79.3436 136.597 79.3436 137.037H82.7353V108.215ZM83.6775 99.6121C83.6146 100.177 83.6146 100.554 83.6146 100.931C83.6146 109.533 83.6775 118.136 83.6146 126.739C83.6146 128.057 83.7403 129.062 85.5617 128.999V99.5493H83.6775V99.6121ZM52.21 110.664C51.6447 109.596 51.4562 108.592 50.8282 108.215C47.8133 106.268 44.7356 104.51 41.5324 102.689C41.5324 105.012 41.4696 107.084 41.5952 109.157C41.5952 109.596 42.1605 110.161 42.6001 110.35C45.615 111.668 48.6926 110.978 52.21 110.664ZM34.8118 21.1206C34.8118 19.174 32.4878 17.039 30.2895 16.9762C28.0912 16.9134 26.6465 18.6088 26.6465 21.1834C26.6465 23.5695 28.2796 25.2021 30.6035 25.2649C33.1159 25.3277 34.8118 23.6323 34.8118 21.1206ZM59.9983 59.6128C59.8099 59.6756 59.6215 59.6756 59.4958 59.7384C59.4958 61.9362 59.5587 64.1967 59.4958 66.3945C59.3702 70.4132 59.119 74.432 59.119 78.4508C59.119 80.3346 59.119 82.4696 61.1917 84.1022C61.0661 83.2231 60.9405 82.5951 60.9405 82.03C60.8777 81.3393 60.9405 80.6485 60.8777 79.9578C60.8148 79.0159 60.8777 77.9484 60.5008 77.0693C59.6843 74.8716 60.2496 73.1133 62.3223 72.0459C62.8247 71.7947 63.3272 71.6063 63.7041 71.4179C62.8876 69.4086 62.071 67.462 61.2545 65.5782C61.1917 65.4526 61.2545 65.2014 61.2545 65.0758C61.9454 62.9409 60.6892 61.371 59.9983 59.6128ZM77.2081 149.093C75.7007 148.088 74.2561 147.147 72.8114 146.267C70.4247 144.823 68.666 143.065 69.2313 139.925C69.4197 139.046 69.2313 138.167 69.2313 137.1C68.1007 137.602 67.1586 137.979 66.3421 138.418C64.1437 139.549 63.9553 139.988 65.3999 141.872C66.9073 143.819 68.7288 145.514 70.3619 147.335C72.1833 149.407 74.2561 150.6 77.2081 149.093ZM60.6264 74.8088C60.9405 75.4995 61.0033 76.1902 61.3801 76.3786C62.5107 77.0693 63.7041 77.6345 64.8974 78.1996C69.7966 80.7741 74.6957 83.4114 79.6577 85.9232C80.9138 86.5511 82.2957 87.1162 83.6775 87.4302C85.9386 87.9953 88.1997 86.4883 88.1369 84.2278C85.813 86.9907 83.6147 85.5464 81.3535 84.5417C78.2759 83.0975 75.1982 81.5904 72.0577 80.0834C68.2892 78.4508 64.6462 76.6926 60.6264 74.8088ZM40.8415 15.3436C39.2084 15.2808 37.5754 17.1646 37.387 19.2368C37.1985 20.8694 39.2712 23.1927 40.4646 23.1927C42.4117 23.2555 44.7356 21.2462 44.8613 19.174C45.1125 16.725 43.8563 15.532 40.8415 15.3436ZM83.3006 88.8117C77.2709 85.672 71.4296 82.5951 65.5255 79.5183C64.8974 81.0881 65.714 81.7788 66.9074 82.2812C68.7288 83.0975 70.5503 83.9138 72.309 84.8557C75.8263 86.6767 79.2808 88.4977 82.8609 90.3815C83.0494 89.7536 83.175 89.2512 83.3006 88.8117ZM41.7208 110.978C41.4067 113.364 41.658 113.741 43.7307 113.741C45.8662 113.741 48.0645 113.803 50.2001 113.741C51.9587 113.741 52.1471 113.489 51.5819 111.668C48.3158 111.982 45.0497 112.547 41.7208 110.978ZM80.5998 137.351C79.7833 141.684 83.6775 142.06 85.4361 144.446C86.1898 142.688 86.2526 141.37 84.8708 140.302C83.5518 139.36 82.2328 138.481 80.5998 137.351ZM29.9754 61.371C29.7242 59.55 29.5358 57.7918 29.2845 56.0336C29.0961 56.0336 28.9705 55.9708 28.7821 55.9708C27.4631 58.1058 26.1441 60.2407 24.6995 62.6269C26.6465 62.1873 28.154 61.8106 29.9754 61.371ZM84.1171 88.9372V98.6702C84.6196 98.4818 85.1849 98.419 85.1849 98.2934C85.3733 95.091 85.5617 91.8885 85.6874 88.4977C84.9965 88.6861 84.5568 88.8117 84.1171 88.9372ZM39.5225 136.786C40.0249 139.674 40.4646 142.374 40.9671 145.388C42.5373 143.191 42.5373 143.191 41.3439 136.409C40.7787 136.535 40.2134 136.66 39.5225 136.786ZM45.4894 148.905C46.8084 146.581 46.3687 145.451 43.291 143.191C42.8514 144.007 42.4745 144.886 42.0348 145.702C43.1654 146.77 44.296 147.774 45.4894 148.905ZM68.2892 108.78C68.4148 108.592 68.6032 108.34 68.7288 108.152C67.6611 106.833 66.5305 105.515 65.4627 104.196C65.2743 104.322 65.0859 104.384 64.8974 104.51C64.9603 106.08 65.0231 107.587 65.0859 109.408C66.2793 109.219 67.2842 108.968 68.2892 108.78ZM68.4776 111.857V109.596C67.347 109.91 66.2793 110.161 65.2743 110.413C65.2115 112.359 65.2115 112.359 68.4776 111.857ZM83.7403 138.481C83.9287 138.481 84.0543 138.481 84.2427 138.481C85.4989 135.844 85.3105 133.834 83.7403 133.583V138.481ZM39.5853 135.907C39.9621 135.907 40.339 135.969 40.7158 135.969C40.8415 135.09 41.0299 134.211 41.1555 133.395L39.334 133.458C39.4597 134.274 39.5225 135.09 39.5853 135.907ZM69.9222 148.214C67.8495 145.828 65.7768 143.505 63.39 140.742C64.9603 144.195 67.5983 146.079 69.9222 148.214ZM61.5686 77.8229C61.2545 80.0206 63.0132 80.1462 64.1437 80.8997C64.3322 79.0159 63.3272 78.1996 61.5686 77.8229ZM85.4989 131.009C84.9337 130.381 84.494 130.004 84.1171 129.627C83.8031 130.067 83.3006 130.506 83.3006 130.883C83.3006 131.323 83.8031 131.762 84.1171 132.139C84.494 131.888 84.8708 131.574 85.4989 131.009Z" fill="#0D354F"/>
<path d="M22.6271 65.4526C20.68 64.699 18.7329 63.8827 16.6602 63.0664C17.9163 62.4385 21.3709 63.6943 22.6271 65.4526Z" fill="#0D354F"/>
<path d="M67.3467 65.8295C66.4674 66.583 65.6509 67.5249 63.7666 66.9598C65.1484 66.269 66.0905 65.8295 67.0955 65.3271C67.2211 65.5155 67.2839 65.7039 67.3467 65.8295Z" fill="#0D354F"/>
<path d="M35.6282 30.2256C38.3918 30.7279 40.4645 29.6605 42.286 27.7139C42.4744 27.7767 42.6 27.8395 42.7885 27.9022C42.4744 28.7186 42.4116 29.6605 41.9091 30.3512C40.7786 31.7954 39.2711 32.8629 37.3869 32.7373C36.6331 32.6745 36.005 31.4187 35.377 30.6652L35.6282 30.2256ZM37.01 31.3559C38.1406 32.7373 39.648 32.235 41.0926 29.9744C39.7736 30.414 38.3918 30.9163 37.01 31.3559Z" fill="#0D354F"/>
<path d="M27.0859 15.6576C27.1487 15.4692 27.0859 14.7785 27.3372 14.5273C28.9074 12.8947 31.671 13.0831 33.1156 14.9669C31.2314 15.1553 29.3471 15.4064 27.0859 15.6576Z" fill="#0D354F"/>
<path d="M43.668 13.3344C41.5953 13.5228 39.711 13.7112 37.3242 13.9624C37.9523 13.3344 38.392 12.6437 39.0201 12.4553C41.1556 11.5762 42.6002 11.8902 43.668 13.3344Z" fill="#0D354F"/>
<path d="M20.4285 119.894C23.4433 115.876 26.4582 111.857 29.6614 107.587C31.6085 111.606 31.9854 115.876 32.8019 120.146C28.9705 120.962 25.2648 121.715 21.4962 122.532C21.4962 122.657 21.559 122.783 21.559 122.908C25.3276 122.532 29.0961 122.092 33.0531 121.715C32.1738 126.55 33.9953 131.323 31.1689 135.844C27.5887 132.453 24.197 129.251 20.8053 126.048C20.6797 126.174 20.4913 126.299 20.3656 126.488C23.6945 130.381 26.9606 134.274 30.2895 138.104C27.0234 144.007 22.7524 145.2 16.6599 144.258C17.1624 139.046 17.6648 133.834 18.1673 128.623C18.1673 128.309 17.8533 127.932 17.7277 127.618C17.4764 127.869 16.9739 128.12 16.9111 128.434C16.283 132.014 15.7178 135.593 15.2153 139.172C15.0268 140.365 14.964 141.621 14.7128 142.751C14.65 142.94 13.5194 143.128 13.2682 142.877C11.8236 141.558 10.379 140.239 9.24839 138.67C8.11782 137.163 7.30129 135.342 6.42196 133.646C6.29634 133.332 6.54758 132.516 6.79881 132.327C9.56243 130.318 12.326 128.309 15.1525 125.923C14.7128 125.923 14.1475 125.734 13.8335 125.923C11.698 127.116 9.62524 128.371 7.48972 129.565C6.98725 129.879 6.35915 130.067 5.60544 130.444C4.72611 124.855 3.84678 119.518 5.16577 113.741C8.49467 116.315 11.5723 118.701 15.1525 121.464C14.9012 120.522 14.9012 119.832 14.5872 119.518C12.1376 117.445 9.62524 115.436 7.11286 113.489C6.10791 112.673 5.73105 111.92 6.17072 110.601C7.3641 106.833 9.12276 103.443 11.8864 100.617C12.2004 100.303 12.7029 100.115 13.1426 99.8633C13.331 100.366 13.5822 100.868 13.7078 101.37C14.0847 103.568 14.3359 105.703 14.7128 107.901C15.2781 111.103 15.9062 114.369 16.5971 117.571C16.7227 118.073 17.0996 118.45 17.4136 118.89C17.5392 118.45 17.7276 117.948 17.6648 117.508C16.9739 112.108 16.2202 106.708 15.5921 101.245C15.2781 98.7958 15.6549 98.5447 18.2301 99.1098C22.1243 99.9889 25.2648 101.998 27.7772 104.95C28.154 105.389 28.154 106.457 27.84 106.959C25.2648 110.789 22.6268 114.557 20.0516 118.387C19.8632 118.701 20.0516 119.266 20.0516 119.706L20.4285 119.894ZM19.5491 126.927C19.3607 127.995 19.1095 128.874 18.9838 129.753C18.7954 131.26 18.607 132.767 18.4814 134.274C18.1673 137.037 17.8533 139.8 17.602 142.626C17.5392 143.065 17.9161 143.819 18.2301 143.881C21.7475 144.886 27.4631 142.249 28.9705 138.921C29.0961 138.607 29.0962 137.979 28.8449 137.728C25.8301 134.148 22.8152 130.695 19.5491 126.927ZM18.921 118.701C21.7474 114.62 24.4483 110.789 27.1491 106.896C27.4003 106.582 27.2747 105.703 27.0234 105.389C24.1342 102.312 20.6169 100.366 16.1574 99.675C17.0367 106.017 17.9789 112.171 18.921 118.701ZM12.7657 100.868C12.1376 101.747 11.5723 102.312 11.1955 102.94C9.75085 105.389 8.30624 107.901 6.98724 110.413C6.6732 110.978 6.61039 112.108 6.98724 112.422C9.81367 114.871 12.7657 117.131 16.0946 119.769C14.964 113.301 13.8963 107.21 12.7657 100.868ZM5.66825 115.122C5.2914 120.146 5.35421 124.729 6.29635 129.627C8.6831 128.12 10.8186 126.802 13.0169 125.483C15.2153 124.227 15.3409 122.532 13.2682 121.025C12.7657 120.648 12.2632 120.208 11.7608 119.832C9.81367 118.325 7.92939 116.88 5.66825 115.122ZM32.1738 122.846C28.7821 123.16 25.7044 123.474 22.6896 123.788C22.4384 123.788 22.2499 123.913 22.0615 123.976C21.245 124.353 20.8681 124.792 21.7474 125.609C23.8202 127.492 25.8301 129.502 27.84 131.448C28.9077 132.453 29.9755 133.395 31.1689 134.525C32.7391 130.569 32.0482 126.802 32.1738 122.846ZM16.5971 126.488C13.2682 128.874 10.2533 130.946 7.23849 133.081C8.55748 136.723 10.379 139.925 13.8335 142.312C14.7756 137.1 15.6549 132.076 16.5971 126.488ZM29.6614 109.157C26.7094 112.924 24.0086 116.504 21.245 120.083C20.9937 120.397 21.0566 120.962 21.1822 121.339C21.245 121.464 21.8103 121.59 22.1243 121.527C25.3276 120.899 28.5937 120.146 32.0482 119.455C31.2317 116.064 30.478 112.736 29.6614 109.157ZM14.9012 122.783L15.2153 122.908C15.2153 123.222 15.0897 123.536 15.2153 123.788C15.4665 124.353 15.9062 124.855 16.2202 125.42C16.7227 124.981 17.2252 124.541 17.7277 124.102C17.8533 123.976 17.8533 123.662 17.9161 123.474C18.2929 122.532 18.607 121.527 17.5392 120.773C17.1624 120.522 16.283 120.271 16.2202 120.397C15.7177 121.15 15.3409 121.967 14.9012 122.783ZM18.4814 119.957C19.4863 122.532 18.8582 124.604 16.7227 126.55C18.4814 126.488 19.7376 126.237 20.24 124.667C20.8681 122.783 20.3656 121.213 18.4814 119.957Z" fill="#0D354F"/>
<path d="M24.0716 27.5255C24.6368 30.6651 24.26 33.6792 23.255 36.6933C22.4385 39.0167 21.622 41.34 22.3129 43.8517C22.3757 44.1029 21.9989 44.4797 21.8732 44.7936C21.622 44.4797 21.1823 44.2285 21.1823 43.9145C20.8683 41.4028 21.308 39.0166 21.9989 36.5677C22.6898 34.1188 22.8154 31.5443 23.255 28.9697C23.3179 28.4674 23.5063 27.965 23.6319 27.3999C23.7575 27.4627 23.8831 27.4627 24.0716 27.5255Z" fill="#0D354F"/>
<path d="M54.2832 23.6952C54.2832 26.7093 54.2832 29.7234 54.2832 32.7374C54.2832 33.4282 54.0947 34.1189 53.9691 34.8096C53.6551 34.1189 53.1526 33.491 53.0898 32.8002C52.9014 31.6072 52.9014 30.4141 53.027 29.221C53.1526 27.714 53.4039 26.2069 53.6551 24.6371C53.7179 24.2604 53.9691 23.8836 54.0947 23.5068C54.1576 23.6324 54.2204 23.6952 54.2832 23.6952Z" fill="#0D354F"/>
<path d="M47.0596 5.48486C50.0116 6.55235 53.1521 10.6339 52.9636 12.7061C51.0794 10.4455 49.2579 8.18498 47.0596 5.48486Z" fill="#0D354F"/>
<path d="M25.3281 40.3982C25.705 37.8865 26.019 35.3747 26.4587 32.6118C28.0917 35.5003 26.3331 37.8865 26.0818 40.3982C25.8306 40.3982 25.5794 40.3982 25.3281 40.3982Z" fill="#0D354F"/>
<path d="M85.0595 84.1649C84.9339 82.4067 84.8082 80.6485 84.6826 78.9531C86.3785 80.3346 86.5669 82.7835 85.0595 84.1649Z" fill="#0D354F"/>
<path d="M87.8862 82.5321C87.6349 82.7833 87.3208 83.0345 87.0068 83.2857C86.8811 81.5274 86.7555 79.8948 86.6299 78.011C88.263 79.3924 87.7605 81.0879 87.8862 82.5321C87.8862 82.5321 87.8233 82.5949 87.8862 82.5321Z" fill="#0D354F"/>
<path d="M28.0908 21.5601C28.0908 19.5507 28.9073 18.7344 30.666 18.7344C31.7338 18.7344 32.7387 18.9228 33.0528 20.8693C30.9801 19.3623 29.4726 19.9902 28.0908 21.5601Z" fill="#0D354F"/>
<path d="M39.083 19.802C39.2714 18.2321 40.1508 17.4158 41.407 17.353C42.2235 17.353 43.04 17.9182 43.7937 18.6089C41.9722 18.0438 40.4648 18.4833 39.083 19.802Z" fill="#0D354F"/>
<path d="M36.8846 25.3276C36.4449 25.3276 36.1309 25.6416 36.1309 26.0812C36.1309 26.5207 36.4449 26.8347 36.8846 26.8347" stroke="#0D354F" stroke-width="0.5" stroke-miterlimit="10"/>
</svg>
