<svg width="376" height="710" viewBox="0 0 376 710" fill="none" xmlns="http://www.w3.org/2000/svg">
<path d="M351.802 416.42C356.274 427.621 355.276 430.769 345.485 438.367C344.817 439.001 344.281 439.761 343.908 440.603C343.536 441.445 343.334 442.353 343.314 443.273C343.661 468.499 344.508 493.703 344.595 518.929C344.595 536.122 343.596 553.338 343.292 570.553C343.097 581.407 344.074 592.153 343.292 602.856C342.272 616.076 339.927 629.167 337.995 643.495C344.182 647.836 347.005 654.501 344.508 663.966C343.531 667.678 345.724 672.802 347.764 676.579C350.391 681.377 353.647 685.762 349.544 690.95C345.441 696.139 339.341 696.508 333.263 694.901C331.06 694.32 328.954 693.42 327.011 692.231C318.197 686.847 309.318 684.437 298.789 687.889C295.012 689.148 290.105 686.804 284.743 685.957C287.392 689.3 289.715 692.079 291.864 694.988C296.488 701.218 295.468 706.819 288 708.795C282.591 710.157 276.884 709.699 271.761 707.492C261.732 702.651 252.658 695.921 242.932 690.364C240.311 688.95 237.304 688.417 234.357 688.844C224.675 690.559 215.145 693.012 205.484 694.901C203.446 695.073 201.397 694.745 199.514 693.946C184.318 688.758 171.618 679.119 160.265 668.416C156.096 664.487 155.923 655.738 154.989 649.052C149.649 614.318 148.477 579.214 147.999 544.068C147.804 531.542 148.368 530.283 138.816 529.588C146.805 544.936 145.177 561.413 145.437 577.348C145.937 608.196 141.421 638.132 122.686 664.183C103.148 691.232 71.7791 696.898 43.0799 679.379C21.2408 666.093 10.5166 645.752 5.1545 622.024C-2.53966 587.444 -1.60774 551.501 7.86811 517.366C12.9914 498.349 20.8934 480.613 36.4804 467.435C39.0855 465.265 41.7123 462.269 44.795 461.465C51.5898 459.664 51.5247 455.821 50.4393 450.155C49.2453 443.881 49.5058 437.325 48.6374 430.964C48.073 426.775 45.4462 422.585 45.837 418.612C46.6836 410.428 40.5183 404.827 39.3243 397.837C38.4374 390.818 39.0968 383.69 41.2564 376.953C45.3152 363.297 50.2534 349.918 56.0402 336.9C60.0563 328.043 66.417 320.271 71.4752 312.434C60.8595 300.147 62.7916 286.948 65.5921 273.358C67.763 263.611 72.1047 253.342 70.5851 244.051C67.459 224.513 70.5851 206.277 74.9269 187.608C78.2075 172.196 80.4485 156.581 81.635 140.869C83.8058 116.837 98.1554 102.183 118.996 94.0859C145.85 83.8176 172.4 83.8176 197.93 100.012C210.282 107.871 216.664 118.986 220.094 132.359C224.291 148.597 228.185 164.908 231.774 181.291C235.551 198.332 234.77 215.417 231.882 232.589C230.797 239.101 230.189 245.31 238.004 250.216C249.792 257.619 254.308 270.948 259.018 283.344C263.729 295.74 266.942 308.179 271.262 320.466C273.715 327.435 277.21 334.013 279.946 340.894C281.422 344.65 282.117 348.688 283.767 354.397C295.533 359.586 309.492 365.252 322.994 371.764C332.612 376.409 341.877 381.749 350.717 387.742C357.555 392.431 357.62 410.015 351.694 416.506C351.846 413.359 351.867 410.189 352.236 407.063C353.148 398.987 352.692 391.671 344.161 387.416C335.629 383.162 327.836 378.733 319.521 374.586C307.69 368.769 295.641 363.189 283.745 357.675C281.791 356.763 278.947 355.7 277.362 356.46C270.112 359.998 263.186 364.145 255.024 368.682C260.668 373.023 264.402 377.018 268.961 379.319C276.993 383.4 285.503 386.483 293.818 389.956C305.367 394.754 317.046 399.291 328.552 404.393C334.175 406.911 336.193 416.441 332.894 422.259C332.503 422.064 331.96 421.955 331.765 421.63C331.373 421.077 331.127 420.435 331.048 419.763C330.918 409.625 324.254 405.109 315.852 402.048C312.661 400.854 309.34 400.008 306.17 398.662C290.974 392.149 275.778 386.266 261.059 379.124C253.179 375.238 248.164 375.433 243.279 382.944L265.466 393.408C287.913 404.06 310.345 414.726 332.763 425.407C339.081 428.425 347.786 423.714 349.132 416.354L348.915 416.572L351.846 416.398L351.802 416.42ZM233.836 249.543C212.453 296.847 143.484 308.157 113.894 252.821C85.2169 274.856 79.5943 311.24 59.4267 338.094C56.7783 341.632 56.127 346.647 54.412 351.315C64.702 354.614 74.8618 355.656 81.852 363.45C73.1685 360.997 64.6369 358.044 56.1487 355.005C52.1977 353.594 52.2194 353.507 52.1977 357.48C59.9695 360.411 67.3939 363.037 74.7315 366.055C79.2036 367.922 86.1504 366.467 87.7569 362.451C89.9278 356.698 84.2183 356.242 81.4613 354.419C77.8276 352.448 74.0013 350.855 70.0424 349.665C66.9163 348.427 63.7685 347.233 60.6207 346.039C60.8161 345.388 61.0332 344.758 61.2503 344.107C63.3885 344.296 65.5038 344.689 67.5676 345.279C73.5158 347.602 79.3121 350.294 85.2603 352.595C86.6931 353.138 89.1028 353.377 89.9712 352.595C91.2737 351.401 92.7933 348.384 92.1421 347.494C88.7338 342.414 91.8815 338.919 94.3129 335.011C97.7647 329.323 100.826 323.332 104.429 317.839C108.424 311.913 113.004 306.377 117.997 299.799C118.28 303.772 118.366 306.312 118.649 308.939C120.147 322.094 121.775 335.25 123.164 348.427C124.553 361.605 125.53 374.304 127.007 387.221C127.234 388.16 127.667 389.037 128.276 389.788C128.884 390.539 129.652 391.145 130.523 391.563C141.378 395.514 149.671 401.744 152.037 413.771C153.144 419.372 156.227 421.717 162.066 421.282C167.906 420.848 174.18 422.194 179.868 420.978C193.053 418.358 206.043 414.84 218.748 410.45C223.372 408.778 229.212 403.069 229.603 398.662C231.622 379.797 231.882 360.715 232.685 341.719C232.989 334.859 232.534 327.978 233.228 321.183C234.661 307.137 236.094 293.222 227.91 280.478C227.714 280.153 228.17 279.393 228.604 277.7C236.55 287.143 237.787 297.368 237.896 308.222C238.167 313.567 239.145 318.852 240.805 323.94C242.498 329.844 247.317 335.988 246.492 341.307C244.691 351.228 254.546 356.959 251.594 366.793C260.147 361.952 267.355 358.109 274.388 353.768C278.882 351.097 280.901 347.733 276.972 342.653C274.659 339.838 272.839 336.652 271.588 333.231C267.984 322.854 265.227 312.173 261.406 301.883C256.739 289.249 251.833 276.636 245.971 264.522C243.388 259.139 238.243 255.014 233.706 249.652L233.836 249.543ZM185.208 214.179C180.041 226.662 172.183 236.344 158.441 238.797C153.361 239.709 150.648 240.968 151.624 246.157C139.294 243.508 129.047 249.825 116.608 252.04C124.315 261.57 129.872 271.209 139.554 277.526C154.555 287.252 170.62 288.38 187.553 284.495C196.05 282.782 204.033 279.117 210.871 273.79C217.709 268.463 223.215 261.619 226.954 253.798C227.801 252.105 227.432 248.262 226.195 247.286C222.4 244.364 218.184 242.037 213.69 240.382C203.509 236.757 197.365 229.245 197.235 216.046C197.105 203.759 199.406 191.494 200.187 179.141C200.621 172.629 203.205 169.481 209.609 170.588C211.507 168.21 212.692 165.343 213.027 162.319C213.361 159.295 212.831 156.238 211.498 153.503C210.181 151.101 208.686 148.8 207.026 146.621L202.119 151.897C200.361 151.658 198.168 150.659 196.779 151.332C188.768 155.175 179.976 157.671 178.522 169.22C177.501 177.405 170.207 181.79 162.327 182.441C155.272 183.049 149.888 179.228 146.805 172.39C146.154 170.957 143.592 170.371 141.356 169.09C140.879 171.478 140.618 172.585 140.423 173.692C138.382 185.394 131.956 191.06 120.32 191.06C115.763 190.902 111.411 189.123 108.048 186.043C104.685 182.963 102.532 178.783 101.976 174.257C100.934 166.702 102.324 159.234 109.097 154.719C112.074 152.488 115.72 151.333 119.439 151.444C123.157 151.554 126.729 152.923 129.568 155.327C133.91 158.735 137.948 162.795 143.18 167.527C144.101 165.327 144.785 163.034 145.22 160.689C146.024 150.073 154.751 142.193 164.758 144.754C170.815 146.318 176.242 150.42 183.037 153.959L193.696 148.336C184.448 140.456 176.329 133.14 167.646 126.389C158.962 119.637 149.649 113.363 141.182 107.242C136.211 111.974 130.871 117.423 125.118 122.438C118.193 128.386 110.334 133.292 103.952 139.805C98.5028 145.319 95.0076 151.636 96.1799 160.971C98.1771 176.558 103.93 190.647 110.638 204.237C116.934 216.958 126.16 227.921 139.663 234.217C144.728 236.646 150.408 237.492 155.962 236.643C161.515 235.795 166.684 233.293 170.793 229.463C175.808 224.665 180.345 219.346 185.1 214.266L185.208 214.179ZM141.269 566.081C140.314 559.568 139.815 547.932 136.689 537.121C132.9 525.23 128.107 513.683 122.361 502.604C115.088 487.798 105.884 474.578 90.3619 466.762C78.1398 460.619 66.265 456.993 52.5016 461.943C38.7382 466.893 29.7941 476.77 23.2814 487.994C10.2561 510.484 4.76374 535.753 3.74342 561.5C2.65798 589.722 4.30785 617.618 16.6168 644.385C26.8634 666.68 56.7131 687.129 79.5726 684.437C91.4908 683.048 102.454 679.075 110.877 671.13C122.035 660.623 128.635 646.751 133.519 632.249C140.227 612.299 140.292 591.523 141.291 565.972L141.269 566.081ZM153.122 425.385C154.642 431.116 155.554 435.415 156.965 439.539C158.376 443.664 161.155 447.333 161.676 451.436C163.222 460.868 163.79 470.435 163.369 479.983C162.544 489.904 167.125 494.702 175.092 498.197C176.72 498.913 178.174 500.02 179.737 500.889L208.285 516.476C218.596 501.822 232.968 493.204 249.054 485.91C246.826 483.639 244.447 481.521 241.933 479.571C229.69 471.321 217.272 463.332 205.028 454.996C202.84 453.03 200.914 450.79 199.297 448.332L200.904 447.007L211.215 454.367C213.386 451.414 215.232 448.57 217.424 446.009C218.611 445.026 219.944 444.235 221.375 443.664C221.5 445.289 221.323 446.923 220.854 448.484C219.265 450.974 217.517 453.359 215.622 455.626C226.043 462.963 236.419 469.997 246.492 477.335C251.616 481.112 256.218 485.258 256.001 492.878C256.001 495.396 258.91 498.371 261.146 500.455C264.88 503.971 269.113 506.967 273.303 510.245C283.81 496.069 299.028 487.408 315.331 478.616C313.072 476.38 310.672 474.292 308.146 472.363C293.101 462.638 277.753 453.194 262.904 443.339C248.772 434.004 232.707 426.232 230.536 407.367C224.762 410.797 219.313 415.899 213.017 417.396C198.06 420.935 182.733 422.91 167.429 425.19C162.617 425.55 157.787 425.586 152.97 425.298L153.122 425.385ZM226.412 241.446C227.041 236.605 227.649 232.089 228.192 227.552C230.493 208.904 230.905 190.647 224.783 172.216C221.245 161.622 219.986 150.269 217.554 139.262C213.907 122.785 207.329 108.587 190.961 100.403C177.766 93.6506 163.074 90.3566 148.26 90.8296C115.566 91.8065 84.3703 110.107 83.1329 152.483C82.7638 166.442 79.9851 180.466 77.0761 194.186C74.2756 207.341 70.7154 220.106 73.6461 233.826C76.1374 246.17 74.8513 258.977 69.9556 270.579C66.6539 279.189 66.0407 288.598 68.1971 297.563C68.8267 300.668 69.7602 303.685 70.5417 306.768H72.4521L75.9038 300.255C80.2456 292.028 84.0012 283.322 89.2982 275.724C95.2464 267.214 101.303 257.532 109.748 252.365C120.038 246.07 132.868 243.942 143.505 240.382C108.771 227.617 100.804 195.076 92.5545 162.23C91.4908 165.465 90.5573 168.265 89.1462 172.52C81.5264 143.17 109.835 108.11 124.163 110.368C117.867 115.404 111.137 119.529 106.166 125.151C101.195 130.774 98.1771 137.482 93.5314 144.928C101.108 138.068 106.904 131.903 113.547 126.931C123.772 119.247 135.256 112.951 139.359 100.512C149.627 108.175 158.897 116.707 169.599 122.655C180.302 128.603 186.272 141.324 200.209 144.906C192.077 129.932 180.609 117.029 166.69 107.198C169.088 106.995 171.49 107.533 173.572 108.739C184.144 114.883 191.938 123.892 198.451 134.269C199.905 136.57 201.425 140.304 203.335 140.586C214.776 142.323 214.841 151.441 216.23 159.495C217.62 167.549 214.645 174.517 203.53 174.387C202.662 188.324 201.36 202.305 201.121 216.307C201.012 223.666 203.292 230.874 210.846 234.608C215.818 237.104 220.984 239.188 226.498 241.641L226.412 241.446ZM248.381 646.469C248.989 640.499 249.901 634.399 250.205 628.277C251.333 605.613 252.339 582.941 253.222 560.263C253.83 544.459 254.503 528.633 254.373 512.807C254.373 505.296 252.484 497.806 251.138 487.95C240.392 494.897 230.97 499.738 223.09 506.425C215.21 513.111 208.154 520.166 209.262 533.517C211.997 566.319 212.323 599.339 213.734 632.271C213.994 637.959 214.624 643.69 222.786 643.125C224.423 643.047 226.027 643.607 227.258 644.688C233.771 651.635 240.978 650.789 248.381 646.447V646.469ZM311.88 638.393C312.27 587.269 322.17 536.969 317.632 485.389C315.662 485.36 313.704 485.698 311.858 486.387C302.393 492.422 292.863 498.392 283.853 505.079C276.516 510.549 273.976 517.322 275.582 527.547C280.727 560.219 279.577 593.325 279.403 626.323C279.403 630.99 279.403 635.658 279.403 640.325C279.815 639.696 280.228 639.088 280.619 638.458C291.169 648.943 300.352 638.458 311.88 638.458V638.393ZM168.926 647.706C182.343 643.972 193.87 640.347 205.636 637.742C210.13 636.743 210.998 635.31 210.759 631.055C209.153 602.834 207.829 574.808 206.418 546.673C206.344 546.045 206.205 545.427 206.005 544.828C195.476 544.828 185.317 545.674 175.396 544.589C164.433 543.417 163.477 543.786 163.977 554.575C164.997 577 165.518 599.426 166.56 621.873C166.951 630.556 168.167 639.24 168.97 647.749L168.926 647.706ZM133.324 445.944L83.0894 439.127L82.7638 440.82L133.519 452.587C137.861 440.842 139.098 429.467 131.088 417.31C138.447 421.499 143.549 433.895 140.596 440.234C137.644 446.573 138.425 452.543 138.946 458.643C139.967 469.064 141.769 479.419 143.288 489.796C144.2 495.874 145.307 501.931 146.327 508.009L149.084 507.64C153.144 475.706 145.785 444.685 140.401 412.447C147.695 419.85 147.413 428.859 148.042 437.542C155.098 421.673 147.391 403.394 135.712 398.466C118.247 390.702 99.7938 385.384 80.8751 382.662C73.2336 381.685 65.6789 380.752 57.9071 379.797C57.9071 379.08 57.9071 378.364 57.9071 377.626C62.618 377.626 67.3722 377.886 72.0613 377.474C72.9279 377.27 73.7364 376.87 74.425 376.306C75.1135 375.742 75.6639 375.027 76.0341 374.217C76.075 373.429 75.9153 372.643 75.5698 371.933C75.2243 371.223 74.7043 370.612 74.0585 370.158C68.4649 367.062 62.601 364.483 56.5395 362.451C52.1977 361.192 47.1612 360.91 46.4448 368.291C45.4656 374.567 44.1467 380.784 42.4938 386.917C39.7585 400.073 41.4735 404.849 54.4988 407.41C70.7371 410.602 87.4746 411.383 103.995 413.055C112.288 413.901 120.928 413.055 126.92 421.022C132.673 428.707 133.063 437.304 133.085 445.944H133.324ZM245.776 409.364C243.779 422.194 247.947 429.814 258.02 435.632C275.213 445.596 292.038 456.277 308.515 467.37C315.288 471.929 322.148 477.096 321.887 487.299C321.757 491.793 320.389 498.349 328.726 500.151V451.067L245.776 409.364ZM254.134 640.412C260.277 637.655 265.987 635.397 271.349 632.488C272.408 631.891 273.328 631.075 274.046 630.094C274.765 629.113 275.267 627.99 275.517 626.8C275.908 614.752 275.886 602.66 275.713 590.59C275.43 572.832 274.909 555.052 274.475 536.6C271.371 537.273 269.656 537.729 267.962 537.989C257.108 539.683 257.108 539.661 256.587 550.32C255.805 567.882 254.763 585.423 254.242 602.986C253.873 615.251 254.242 627.56 254.242 640.412H254.134ZM141.356 506.598C139.185 489.644 137.275 473.362 135.364 458.014L52.4365 436.305C53.3265 443.621 54.0864 449.938 54.9113 456.581C61.7279 456.581 68.5011 455.365 74.6664 456.798C85.7568 459.071 96.1307 463.999 104.899 471.16C113.667 478.321 120.568 487.502 125.009 497.915C128.266 505.057 133.693 507.054 141.356 506.707V506.598ZM252.245 674.017L257.976 666.267L257.52 664.444L246.905 667.439C246.709 667.07 246.514 666.68 246.34 666.311L254.069 659.081C251.203 656.216 248.989 652.721 245.841 651.397C244.495 650.832 241.239 654.805 238.048 657.388C237.478 656.922 236.884 656.487 236.267 656.086C231.405 652.808 226.629 649.291 221.505 646.469C220.485 645.926 216.36 648.357 216.447 648.987C217.25 654.219 217.164 660.666 220.246 664.313C232.758 679.287 247.991 691.758 265.14 701.066C270.536 703.871 276.337 705.812 282.334 706.819C283.867 706.923 285.401 706.644 286.799 706.007C288.198 705.371 289.416 704.396 290.344 703.172C291.299 701.218 289.671 696.877 287.826 694.836C281.769 688.15 275.105 682.028 268.831 675.862L260.994 681.159C260.538 680.66 260.104 680.161 259.648 679.683L264.967 672.65C259.67 665.681 257.499 675.949 252.245 674.017V674.017ZM236.354 685.566C220.159 673.127 208.111 660.579 211.476 638.871C197.126 644.515 182.625 643.212 170.837 652.677C172.704 654.11 173.442 654.653 174.137 655.217C182.451 661.969 191.091 668.503 185.686 681.377C185.612 682.02 185.706 682.671 185.957 683.268C186.207 683.865 186.608 684.387 187.118 684.785C192.893 687.194 198.863 691.297 204.659 691.037C214.58 690.733 224.393 687.716 236.159 685.458L236.354 685.566ZM301.568 653.936C296.361 650.717 290.984 647.782 285.46 645.144C284.07 644.58 279.902 646.577 279.75 647.771C278.904 654.284 279.077 660.579 286.263 664.14C288.673 665.355 290.605 667.526 292.971 668.85C306.648 676.427 320.259 684.047 334.218 691.254C338.56 693.425 344.877 693.295 346.787 688.367C347.96 685.349 345.615 679.379 342.902 676.731C335.26 669.198 326.598 662.685 318.392 655.825L308.428 661.361L307.321 659.494L315.223 653.112C313.204 649.682 311.923 644.667 308.971 643.277C306.018 641.888 301.524 644.341 297.356 645.166C298.919 648.401 299.853 650.311 301.698 653.85L301.568 653.936ZM150.582 439.149C151.451 448.505 152.536 456.364 152.753 464.244C153.318 478.377 153.709 492.466 153.578 506.685C153.578 511.244 150.865 514.327 145.199 512.503C140.987 511.135 136.515 510.441 130.697 509.117C135.039 515.759 134.062 524.682 142.615 526.353C149.367 527.678 150.756 532.041 150.951 537.208C151.993 563.259 152.753 589.309 153.6 615.208L163.022 611.691C162.392 601.662 161.589 591.48 161.198 581.299C160.612 565.972 160.286 550.646 159.961 535.319C159.375 509.616 159.027 483.891 158.202 458.166C157.985 451.653 156.835 444.88 150.474 439.17L150.582 439.149ZM122.469 387.655C120.885 370.462 119.343 353.594 117.715 336.01L94.2478 340.634C94.5952 342.262 94.682 343.13 94.9425 343.934C96.4838 348.84 91.773 363.775 88.0825 367.184C84.7393 370.288 81.8955 373.935 78.4872 377.713L122.469 387.655ZM48.9413 411.144C46.1626 414.27 47.2481 418.091 51.3076 420.544C57.4512 424.278 63.7034 428.728 70.4983 430.313C89.6455 434.785 109.118 437.911 128.461 441.58L130.523 438.932C128.765 434.894 127.962 428.338 125.074 427.209C113.415 422.724 101.406 419.209 89.1679 416.702C76.1426 414.075 62.835 412.99 48.9413 411.144ZM328.4 518.777C322.343 523.119 320.802 527.612 321.562 533.648C321.93 538.431 321.799 543.24 321.171 547.997C319 573.831 316.699 599.664 314.658 625.498C314.563 628.317 314.672 631.139 314.984 633.943H328.487L328.4 518.777ZM332.156 484.499C332.004 486.669 331.808 488.233 331.808 489.817C331.808 524.161 332.025 558.526 331.808 592.869C331.808 598.253 332.394 602.161 339.689 602.009V484.499H332.156ZM206.591 528.524C204.312 524.313 203.509 520.362 201.142 518.842C189.159 511.201 176.785 504.189 164.064 496.677C164.064 505.99 163.847 514.218 164.237 522.402C164.502 523.441 164.994 524.408 165.677 525.234C166.36 526.06 167.218 526.724 168.188 527.178C180.237 532.671 192.524 529.87 206.591 528.524V528.524ZM137.231 171.261C137.231 163.554 127.897 155.023 119.213 154.827C110.529 154.632 104.646 161.34 104.733 171.739C104.733 181.204 111.246 187.89 120.407 187.933C122.639 188.071 124.875 187.735 126.969 186.948C129.062 186.161 130.966 184.941 132.554 183.366C134.143 181.792 135.381 179.9 136.187 177.814C136.993 175.727 137.349 173.494 137.231 171.261V171.261ZM237.722 324.851L235.551 325.372C235.551 334.208 235.725 343.043 235.551 351.879C235.139 367.922 234.075 383.965 234.162 400.008C234.162 407.627 234.162 415.985 242.498 422.476C242.02 418.873 241.608 416.506 241.434 414.118C241.239 411.383 241.434 408.604 241.152 405.869C240.826 402.027 241.043 397.945 239.741 394.45C236.506 385.767 238.742 378.668 247.057 374.304C249.011 373.262 251.138 372.502 252.527 371.916C249.163 363.862 246.015 356.199 242.78 348.514C242.565 347.858 242.565 347.151 242.78 346.495C245.363 338.116 240.501 331.755 237.613 324.786L237.722 324.851ZM306.322 682.006C300.2 678.077 294.556 674.321 288.781 670.804C279.229 665.03 272.131 658.105 274.54 645.513C274.859 641.772 274.859 638.01 274.54 634.268C269.916 636.309 266.313 637.677 262.904 639.435C254.221 643.929 253.374 645.731 259.192 653.307C265.01 660.883 272.413 667.787 278.947 675.124C286.263 683.352 294.491 687.954 306.235 682.006H306.322ZM240.175 385.549C241.391 388.372 241.695 391.042 243.127 391.954C247.469 394.754 252.397 396.86 257.043 399.313C276.581 409.581 296.119 420.023 315.917 430.118C320.97 432.776 326.319 434.831 331.852 436.24C340.817 438.411 349.892 432.462 349.588 423.475C340.405 434.329 331.483 428.859 322.56 424.625C310.208 418.764 297.877 412.794 285.525 406.933C270.915 400.008 256.283 393.148 240.175 385.549V385.549ZM161.372 148.141C154.859 147.772 148.346 155.348 147.543 163.75C146.87 170.262 155.033 179.489 159.917 179.641C167.667 179.879 176.915 171.782 177.567 163.554C178.37 153.547 173.42 148.836 161.372 148.141V148.141ZM330.701 441.385L259.67 404.219C257.065 410.558 260.516 413.185 265.249 415.334C272.5 418.634 279.772 421.847 286.958 425.537C300.982 432.701 314.875 440.104 329.073 447.528C329.746 445.075 330.31 443.187 330.788 441.385H330.701ZM164.91 529.957C163.586 539.574 164.606 540.92 173.029 540.963C181.452 541.007 190.245 541.094 198.841 540.963C205.94 540.855 206.526 539.878 204.442 532.692C191.417 533.821 178.153 536.166 164.91 529.935V529.957ZM320.02 635.267C316.851 652.46 332.416 654.175 339.45 663.488C342.337 656.498 342.75 651.158 337.127 647.055C331.852 643.191 326.403 639.609 320.02 635.202V635.267ZM117.911 331.863C116.977 324.482 116.065 317.536 115.175 310.567L113.221 310.328L96.8529 336.856L117.911 331.863V331.863ZM333.936 441.906V480.743C335.955 480.005 338.278 479.636 338.278 479.115C339.102 466.307 339.71 453.455 340.448 440.039L334.088 441.906H333.936ZM156.075 632.944C157.985 644.406 159.787 655.282 161.806 667.374C168.015 658.691 168.015 658.691 163.282 631.49L156.075 632.944V632.944ZM180.063 681.311C185.295 671.977 183.515 667.591 171.38 658.43C169.751 661.817 168.102 665.16 166.473 668.547L180.085 681.311H180.063ZM270.828 521.165L272.521 518.712C268.18 513.487 263.838 508.263 259.496 503.038L257.325 504.297C257.607 510.506 257.868 516.693 258.193 523.835L270.915 521.187L270.828 521.165ZM271.696 533.582V524.486L258.953 527.678C258.606 535.536 258.606 535.536 271.61 533.474L271.696 533.582ZM332.525 639.696H334.565C339.558 629.123 338.907 621.178 332.525 620.027V639.696ZM156.379 629.362L160.72 629.557L162.544 619.202L155.25 619.506L156.292 629.362H156.379ZM277.319 678.468L251.268 648.748C257.347 662.468 267.941 669.958 277.319 678.468ZM244.039 397.424C242.693 406.108 249.792 406.629 254.416 409.798C255.024 402.222 250.986 398.944 244.039 397.424ZM339.363 609.911L333.914 604.375C332.742 606.068 330.658 607.762 330.614 609.477C330.571 611.192 332.785 612.863 333.827 614.557L339.363 609.911Z" fill="black"/>
<path d="M88.5751 348.276L64.6953 338.811C69.862 336.228 83.4301 341.264 88.5751 348.276Z" fill="black"/>
<path d="M267.182 349.667C263.578 352.619 260.365 356.483 252.919 354.269L266.248 347.756L267.182 349.645" fill="black"/>
<path d="M140.44 207.646C151.294 209.622 159.804 205.345 166.903 197.66L169.074 198.507C167.923 201.806 167.489 205.627 165.492 208.276C161.15 214.115 154.876 218.414 147.539 217.741C144.608 217.48 142.09 212.444 139.398 209.556C139.789 208.927 140.158 208.276 140.527 207.646H140.44ZM146.041 211.988C150.383 217.48 156.483 215.483 162.366 206.539L146.041 211.988" fill="black"/>
<path d="M106.516 149.27C106.69 148.38 106.516 145.884 107.58 144.668C113.832 138.155 124.947 139.024 130.765 146.535L106.516 149.27" fill="black"/>
<path d="M172.663 140.239L147.242 142.648C149.847 140.173 151.584 137.46 153.95 136.505C162.634 133.096 168.235 134.334 172.663 140.239Z" fill="black"/>
<path d="M79.8595 565.539L116.765 516.542C124.558 532.65 125.969 549.648 129.399 566.603L84.3749 576.133C84.3749 576.632 84.5269 577.132 84.6137 577.609L130.419 572.812C127.011 592.089 134.067 611.084 122.886 629.255L81.5093 590.179L79.7292 591.807L119.218 638.394C106.062 661.948 89.1726 666.616 64.9454 663.055C66.9644 642.258 69.0484 621.461 70.9371 600.642C70.9371 599.34 69.7648 597.907 69.1353 596.539C68.0281 597.603 66.1611 598.558 65.9658 599.796C63.5344 614.08 61.3201 628.408 59.1275 642.758C58.3894 647.534 58.1071 652.418 56.9566 657.129C56.064 657.606 55.0813 657.892 54.0718 657.966C53.0623 658.041 52.0484 657.904 51.0952 657.563C45.2042 652.488 39.8038 646.869 34.9655 640.782C30.628 634.417 26.8855 627.666 23.7854 620.615C23.587 619.663 23.6322 618.676 23.9169 617.746C24.2015 616.816 24.7163 615.974 25.4135 615.296C36.268 607.198 47.5349 599.383 58.7367 589.853C56.9783 589.853 54.8508 589.224 53.5049 589.853C44.9733 594.542 36.637 599.6 28.1706 604.441C25.9997 605.635 23.8288 606.482 20.7027 607.871C17.3161 585.533 13.6256 564.237 18.8574 541.225L58.6064 572.008C57.5644 568.253 57.673 565.496 56.4356 564.323C46.6955 556.103 36.7745 548.092 26.6727 540.292C22.548 537.122 21.2237 534.061 22.8953 528.677C27.1438 513.709 35.0177 500.019 45.8199 488.82C47.356 487.639 49.0424 486.668 50.8347 485.933C51.7479 487.841 52.4749 489.833 53.0055 491.881C54.46 500.564 55.5021 509.248 57.0651 517.932C59.3373 530.798 61.8121 543.649 64.4896 556.486C65.2627 558.41 66.3483 560.192 67.7025 561.762C68.3484 560.006 68.7147 558.16 68.7879 556.291C66.0743 534.582 63.0785 513.069 60.3866 491.425C59.1709 481.591 60.5603 480.679 70.872 482.959C85.8416 486.271 99.2703 494.502 109.015 506.339C109.695 507.559 110.067 508.926 110.097 510.323C110.128 511.719 109.815 513.102 109.188 514.35C99.0284 529.719 88.3259 544.742 77.9925 559.938C77.1676 561.154 77.9925 563.433 77.9925 565.214L80.0331 565.452L79.8595 565.539ZM76.4295 593.348C75.5828 597.69 74.7362 601.098 74.2586 604.615C73.4336 610.585 72.8041 616.577 72.0877 622.568C70.8937 633.64 69.5912 644.711 68.6794 655.805C68.5491 657.498 69.9602 660.559 71.241 660.928C85.3735 664.901 107.994 654.415 114.029 641.216C114.325 640.449 114.444 639.625 114.377 638.805C114.309 637.986 114.057 637.192 113.638 636.484C101.655 622.395 89.4982 608.458 76.4077 593.348H76.4295ZM73.9546 560.633C85.2433 544.46 96.1411 529.046 106.713 513.416C107.126 512.44 107.294 511.379 107.203 510.323C107.112 509.268 106.765 508.25 106.192 507.359C94.8248 494.944 79.4582 486.915 62.7746 484.674L73.8895 560.655L73.9546 560.633ZM49.315 489.645C47.0982 492.273 45.0255 495.02 43.1063 497.873C37.31 507.75 31.5137 517.606 26.2168 527.744C25.0662 529.915 24.8274 534.604 26.2168 535.776C37.5705 545.48 49.4019 554.663 62.5358 565.148C57.9769 539.098 53.8522 514.784 49.3367 489.645H49.315ZM20.8764 546.37C19.0347 565.674 19.8382 585.138 23.2644 604.224C32.9031 598.276 41.3262 592.849 49.9663 587.812C58.6064 582.776 59.2143 576.068 50.9649 569.924C48.9677 568.426 47.0573 566.755 45.0818 565.214L20.8764 546.37ZM126.816 577.175L88.8469 581.039C87.9386 581.154 87.0571 581.426 86.2419 581.843C83.0941 583.471 81.4659 585.055 85.0479 588.355C93.2973 595.932 101.221 603.855 109.318 611.584C113.508 615.556 117.828 619.421 122.669 623.871C128.943 608.045 126.165 593.175 126.816 577.197V577.175ZM64.6632 591.807L27.3239 618.227C32.6643 632.793 39.8283 645.558 53.7219 655.001C57.3256 634.052 60.7773 614.124 64.5764 591.785L64.6632 591.807ZM116.678 522.729C105.02 537.925 93.992 552.058 83.1809 566.407C82.4294 568.014 82.3206 569.847 82.877 571.531C83.029 572.095 85.3518 572.616 86.5241 572.377C99.4192 569.751 112.293 566.972 126.056 564.063C122.886 550.061 119.912 536.97 116.678 522.816V522.729ZM57.7381 577.088L58.9104 577.674C58.6793 578.791 58.6793 579.944 58.9104 581.061C60.1231 583.298 61.4491 585.472 62.8831 587.574C64.8803 585.859 66.9427 584.187 68.8096 582.342C69.3523 581.799 69.2655 580.648 69.5694 579.845C71.0456 575.981 72.4133 572.03 68.1149 569.121C66.5953 568.079 63.2304 566.95 62.8831 567.493C60.923 570.561 59.1749 573.76 57.6513 577.067L57.7381 577.088ZM72.0442 565.756C75.9736 576.025 73.6724 584.382 65.0106 591.981C72.0225 591.611 77.059 590.83 79.0345 584.491C81.4008 576.936 79.3384 570.836 72.0442 565.756Z" fill="black"/>
<path d="M94.246 196.703C96.3452 209.018 95.1775 221.668 90.8595 233.391C87.6465 242.617 84.3468 251.843 87.2124 261.916C87.4946 262.937 86.0618 264.435 85.4105 265.715C84.4119 264.565 82.6969 263.544 82.545 262.22C81.6581 252.274 82.803 242.251 85.9098 232.761C88.7103 223.014 89.2747 212.615 90.8812 202.499C91.2068 200.328 91.8364 198.374 92.314 196.312L94.246 196.703" fill="black"/>
<path d="M214.994 181.574C214.994 193.622 214.994 205.671 214.994 217.741C214.746 220.498 214.296 223.234 213.648 225.925C212.41 223.277 210.478 220.715 210.087 217.936C209.469 213.178 209.36 208.368 209.762 203.587C210.261 197.486 211.346 191.43 212.345 185.395C212.79 183.884 213.402 182.428 214.169 181.053L214.972 181.574" fill="black"/>
<path d="M186.106 108.827C197.851 113.168 210.377 129.45 209.726 137.743L186.106 108.827Z" fill="black"/>
<path d="M99.4653 248.175C100.898 238.145 102.331 228.116 103.807 217.174C110.32 228.593 103.286 238.21 102.244 248.24L99.4653 248.175Z" fill="black"/>
<path d="M337.868 422.845C337.347 415.747 336.826 408.8 336.327 402.157C343.078 407.519 343.903 417.353 337.868 422.845Z" fill="black"/>
<path d="M349.092 416.375L345.662 419.349C345.12 412.402 344.62 405.889 344.034 398.248C350.547 403.697 348.376 410.513 348.875 416.614L349.092 416.375" fill="black"/>
<path d="M110.527 172.889C110.527 164.835 113.697 161.623 120.709 161.579C125.051 161.579 129.002 162.426 130.152 170.089C121.903 164.076 115.976 166.702 110.614 172.889" fill="black"/>
<path d="M154.271 165.898C154.923 159.516 158.613 156.368 163.563 156.216C166.798 156.216 170.076 158.387 173.202 161.231C169.933 160.097 166.405 159.935 163.046 160.763C159.686 161.591 156.639 163.375 154.271 165.898" fill="black"/>
<path d="M145.445 187.934C144.638 187.934 143.865 188.254 143.295 188.824C142.725 189.394 142.405 190.167 142.405 190.973C142.405 191.779 142.725 192.552 143.295 193.122C143.865 193.692 144.638 194.012 145.445 194.012" fill="black"/>
<mask id="path-17-inside-1_1586_7103" fill="white">
<path fill-rule="evenodd" clip-rule="evenodd" d="M295.428 75C339.847 75 375.855 58.2107 375.855 37.5C375.855 16.7893 339.847 0 295.428 0C251.009 0 215 16.7893 215 37.5C215 47.8175 223.937 57.1618 238.397 63.942L239.008 76.434C239.158 79.5095 242.581 81.2691 245.17 79.6012L257.318 71.7732C257.744 71.4983 258.096 71.1641 258.372 70.7915C269.462 73.4804 282.064 75 295.428 75Z"/>
</mask>
<path d="M238.397 63.942L240.395 63.8444L240.336 62.6422L239.247 62.1312L238.397 63.942ZM239.008 76.434L237.01 76.5316V76.5316L239.008 76.434ZM245.17 79.6012L246.253 81.2823L245.17 79.6012ZM257.318 71.7732L256.234 70.092L256.234 70.0921L257.318 71.7732ZM258.372 70.7915L258.844 68.8478L257.557 68.5358L256.767 69.5988L258.372 70.7915ZM373.855 37.5C373.855 46.6158 365.851 55.4907 351.453 62.2039C337.218 68.841 317.412 73 295.428 73V77C317.862 77 338.27 72.7643 353.144 65.8292C367.855 58.97 377.855 49.0949 377.855 37.5H373.855ZM295.428 2C317.412 2 337.218 6.159 351.453 12.7961C365.851 19.5093 373.855 28.3842 373.855 37.5H377.855C377.855 25.9051 367.855 16.03 353.144 9.17085C338.27 2.23566 317.862 -2 295.428 -2V2ZM217 37.5C217 28.3842 225.004 19.5093 239.402 12.7961C253.637 6.159 273.443 2 295.428 2V-2C272.994 -2 252.586 2.23566 237.712 9.17085C223 16.03 213 25.9051 213 37.5H217ZM239.247 62.1312C224.944 55.4254 217 46.5821 217 37.5H213C213 49.0529 222.929 58.8983 237.548 65.7529L239.247 62.1312ZM241.005 76.3364L240.395 63.8444L236.4 64.0396L237.01 76.5316L241.005 76.3364ZM244.086 77.92C242.792 78.7539 241.081 77.8742 241.005 76.3364L237.01 76.5316C237.236 81.1449 242.371 83.7842 246.253 81.2823L244.086 77.92ZM256.234 70.0921L244.086 77.92L246.253 81.2823L258.401 73.4544L256.234 70.0921ZM256.767 69.5988C256.633 69.7789 256.459 69.9474 256.234 70.092L258.401 73.4544C259.03 73.0491 259.558 72.5494 259.978 71.9842L256.767 69.5988ZM295.428 73C282.212 73 269.768 71.4967 258.844 68.8478L257.901 72.7352C269.155 75.464 281.917 77 295.428 77V73Z" fill="black" mask="url(#path-17-inside-1_1586_7103)"/>
<path d="M259.817 42.416C259.817 42.4069 259.822 42.3932 259.831 42.375C259.849 42.3659 259.886 42.3294 259.94 42.2656C259.995 42.2018 260.036 42.1608 260.063 42.1426C260.091 42.1243 260.136 42.0879 260.2 42.0332C260.273 41.9694 260.35 41.9102 260.432 41.8555C260.514 41.7917 260.592 41.7324 260.665 41.6777C260.738 41.6139 260.792 41.5729 260.829 41.5547C260.838 41.5456 260.865 41.5273 260.911 41.5C260.966 41.4635 261.02 41.4271 261.075 41.3906C261.13 41.3542 261.184 41.3177 261.239 41.2812C261.294 41.2448 261.335 41.2174 261.362 41.1992C261.371 41.1901 261.389 41.181 261.417 41.1719C261.444 41.1536 261.467 41.1445 261.485 41.1445H261.499H261.526C261.79 41.3815 262.032 41.6322 262.251 41.8965C262.479 42.1517 262.725 42.3887 262.989 42.6074C263.117 42.7077 263.235 42.7806 263.345 42.8262C263.463 42.8717 263.604 42.8945 263.768 42.8945C263.86 42.8945 263.955 42.89 264.055 42.8809C264.156 42.8626 264.229 42.8125 264.274 42.7305V42.457C264.274 42.0924 264.188 41.7552 264.014 41.4453C263.841 41.1354 263.623 40.862 263.358 40.625C263.322 40.5977 263.253 40.5384 263.153 40.4473C263.062 40.3561 262.953 40.2559 262.825 40.1465C262.697 40.028 262.561 39.9049 262.415 39.7773C262.269 39.6406 262.132 39.513 262.005 39.3945C261.877 39.276 261.763 39.1758 261.663 39.0938C261.572 39.0117 261.513 38.957 261.485 38.9297C261.294 38.7474 261.107 38.5514 260.925 38.3418C260.751 38.123 260.596 37.8952 260.46 37.6582C260.323 37.4212 260.214 37.1751 260.132 36.9199C260.05 36.6556 260.009 36.3867 260.009 36.1133C260.009 35.776 260.077 35.4844 260.214 35.2383C260.35 34.9922 260.514 34.7324 260.706 34.459C260.724 34.4499 260.751 34.4271 260.788 34.3906C260.833 34.3451 260.865 34.3132 260.884 34.2949C261.221 34.0033 261.581 33.7663 261.964 33.584C262.346 33.3926 262.77 33.2969 263.235 33.2969C263.6 33.2969 263.923 33.3333 264.206 33.4062C264.498 33.4792 264.766 33.584 265.013 33.7207C265.259 33.8574 265.496 34.0306 265.723 34.2402C265.96 34.4408 266.202 34.6732 266.448 34.9375C266.548 35.0378 266.621 35.1289 266.667 35.2109C266.721 35.2839 266.749 35.3841 266.749 35.5117V35.6348C266.74 35.6439 266.703 35.6803 266.639 35.7441C266.585 35.8079 266.539 35.8535 266.503 35.8809C266.457 35.9173 266.38 35.9811 266.27 36.0723C266.17 36.1543 266.061 36.2454 265.942 36.3457C265.833 36.446 265.723 36.5417 265.614 36.6328C265.505 36.7148 265.432 36.7741 265.395 36.8105H265.245C265.19 36.8105 265.149 36.8151 265.122 36.8242C265.104 36.8242 265.081 36.8014 265.054 36.7559C265.044 36.7467 265.026 36.7148 264.999 36.6602C264.971 36.6055 264.94 36.5508 264.903 36.4961C264.867 36.4323 264.835 36.3776 264.807 36.332C264.78 36.2773 264.762 36.2454 264.753 36.2363C264.735 36.2272 264.703 36.1999 264.657 36.1543C264.611 36.0996 264.561 36.0449 264.507 35.9902C264.452 35.9355 264.397 35.8809 264.343 35.8262C264.297 35.7715 264.261 35.7305 264.233 35.7031C264.133 35.6211 264.01 35.571 263.864 35.5527C263.727 35.5254 263.6 35.5117 263.481 35.5117C263.317 35.5117 263.19 35.5254 263.098 35.5527C263.007 35.571 262.934 35.612 262.88 35.6758C262.825 35.7396 262.784 35.8216 262.757 35.9219C262.738 36.0221 262.72 36.1452 262.702 36.291V36.3184C262.702 36.3822 262.738 36.4688 262.811 36.5781C262.893 36.6875 262.953 36.765 262.989 36.8105L263.932 37.7539C263.942 37.763 263.973 37.7904 264.028 37.8359C264.083 37.8724 264.138 37.9134 264.192 37.959C264.247 38.0046 264.297 38.0501 264.343 38.0957C264.397 38.1322 264.434 38.1549 264.452 38.1641C264.789 38.4284 265.09 38.7109 265.354 39.0117C265.628 39.3125 265.892 39.6361 266.147 39.9824C266.257 40.2194 266.361 40.429 266.462 40.6113C266.562 40.7845 266.649 40.9577 266.721 41.1309C266.804 41.2949 266.867 41.4818 266.913 41.6914C266.958 41.8919 266.981 42.138 266.981 42.4297V42.9492C266.936 43.1315 266.872 43.3047 266.79 43.4688C266.708 43.6237 266.594 43.765 266.448 43.8926C266.412 43.9199 266.352 43.9701 266.27 44.043C266.188 44.1159 266.097 44.1888 265.997 44.2617C265.906 44.3346 265.819 44.403 265.737 44.4668C265.655 44.5306 265.6 44.5762 265.573 44.6035C265.546 44.6217 265.486 44.6628 265.395 44.7266C265.304 44.7812 265.249 44.8132 265.231 44.8223C265.177 44.8587 265.085 44.9089 264.958 44.9727C264.839 45.0273 264.771 45.0592 264.753 45.0684C264.725 45.0684 264.657 45.0775 264.548 45.0957C264.447 45.123 264.333 45.1504 264.206 45.1777C264.087 45.2051 263.969 45.2279 263.85 45.2461C263.732 45.2734 263.641 45.2917 263.577 45.3008H263.481C263.326 45.3008 263.167 45.2826 263.003 45.2461C262.839 45.2096 262.679 45.1686 262.524 45.123C262.123 45.0046 261.781 44.8268 261.499 44.5898C261.216 44.3438 260.934 44.0703 260.651 43.7695C260.615 43.7331 260.569 43.6875 260.514 43.6328C260.46 43.569 260.405 43.5098 260.35 43.4551C260.296 43.3913 260.246 43.3366 260.2 43.291C260.154 43.2363 260.132 43.2044 260.132 43.1953C260.113 43.1771 260.091 43.1224 260.063 43.0312C260.036 42.931 260.018 42.8717 260.009 42.8535C259.999 42.8353 259.972 42.7852 259.927 42.7031C259.881 42.6211 259.849 42.571 259.831 42.5527C259.822 42.5436 259.817 42.5299 259.817 42.5117V42.457V42.416ZM270.316 33.6934C270.362 33.5931 270.421 33.5156 270.494 33.4609H270.699H270.89C270.899 33.4609 270.927 33.4655 270.972 33.4746C271.027 33.4746 271.077 33.4792 271.123 33.4883C271.177 33.4974 271.228 33.5065 271.273 33.5156C271.319 33.5156 271.351 33.5156 271.369 33.5156C271.424 33.5247 271.515 33.5339 271.642 33.543C271.779 33.543 271.92 33.543 272.066 33.543C272.212 33.543 272.349 33.543 272.476 33.543C272.613 33.5339 272.709 33.5247 272.763 33.5156C272.827 33.5612 272.873 33.6296 272.9 33.7207C272.927 33.8118 272.941 33.8893 272.941 33.9531C272.941 34.2448 272.932 34.5365 272.914 34.8281C272.896 35.1198 272.886 35.4115 272.886 35.7031C272.886 36.6055 272.937 37.485 273.037 38.3418C273.146 39.1986 273.292 40.069 273.474 40.9531C273.483 40.9987 273.497 41.0671 273.515 41.1582C273.543 41.2493 273.565 41.3451 273.584 41.4453C273.611 41.5456 273.634 41.6413 273.652 41.7324C273.679 41.8145 273.698 41.8691 273.707 41.8965C273.761 42.0514 273.857 42.2109 273.994 42.375C274.131 42.5299 274.29 42.6074 274.472 42.6074C274.6 42.6074 274.705 42.5801 274.787 42.5254C274.869 42.4707 274.96 42.3978 275.06 42.3066C275.279 42.1061 275.443 41.8783 275.552 41.623C275.671 41.3587 275.753 41.0853 275.799 40.8027C275.853 40.5202 275.881 40.2331 275.881 39.9414C275.881 39.6406 275.881 39.3535 275.881 39.0801C275.881 38.6699 275.876 38.2643 275.867 37.8633C275.867 37.4531 275.849 37.043 275.812 36.6328C275.812 36.5781 275.799 36.4414 275.771 36.2227C275.753 36.0039 275.73 35.7715 275.703 35.5254C275.675 35.2702 275.648 35.0332 275.621 34.8145C275.603 34.5866 275.589 34.4453 275.58 34.3906C275.58 34.3724 275.575 34.3086 275.566 34.1992C275.566 34.0807 275.566 33.9941 275.566 33.9395C275.566 33.903 275.566 33.8483 275.566 33.7754C275.575 33.7025 275.58 33.6569 275.58 33.6387L275.703 33.584H277.808C277.817 33.584 277.858 33.5977 277.931 33.625C278.013 33.6523 278.073 33.6751 278.109 33.6934C278.109 33.7025 278.118 33.7161 278.136 33.7344C278.155 33.7435 278.164 33.7526 278.164 33.7617C278.173 33.7982 278.182 33.8757 278.191 33.9941C278.2 34.1035 278.205 34.181 278.205 34.2266C278.214 34.2721 278.218 34.3678 278.218 34.5137C278.228 34.6595 278.237 34.819 278.246 34.9922C278.255 35.1562 278.259 35.3203 278.259 35.4844C278.269 35.6393 278.278 35.7487 278.287 35.8125V36.291C278.287 36.8743 278.269 37.4577 278.232 38.041C278.196 38.6243 278.155 39.2077 278.109 39.791C278.1 39.8457 278.086 39.9779 278.068 40.1875C278.05 40.3971 278.032 40.625 278.013 40.8711C277.995 41.1081 277.977 41.3359 277.959 41.5547C277.94 41.7643 277.931 41.8965 277.931 41.9512C277.868 42.5983 277.672 43.1452 277.343 43.5918C277.015 44.0293 276.564 44.3802 275.99 44.6445C275.698 44.7812 275.407 44.8861 275.115 44.959C274.832 45.0228 274.527 45.0547 274.199 45.0547C273.771 45.0547 273.374 44.9818 273.009 44.8359C272.645 44.6901 272.321 44.4896 272.039 44.2344C271.756 43.9701 271.515 43.6647 271.314 43.3184C271.123 42.972 270.981 42.5938 270.89 42.1836C270.89 42.1654 270.881 42.1107 270.863 42.0195C270.854 41.9284 270.845 41.8281 270.836 41.7188C270.827 41.6094 270.817 41.5091 270.808 41.418C270.799 41.3268 270.795 41.2721 270.795 41.2539C270.785 41.2448 270.776 41.2266 270.767 41.1992C270.767 41.1628 270.763 41.1263 270.754 41.0898C270.744 41.0443 270.735 41.0033 270.726 40.9668C270.726 40.9303 270.726 40.9076 270.726 40.8984C270.726 40.8711 270.722 40.8301 270.713 40.7754C270.713 40.7116 270.708 40.6523 270.699 40.5977C270.69 40.5339 270.681 40.4746 270.672 40.4199C270.672 40.3652 270.672 40.3288 270.672 40.3105C270.662 40.2467 270.653 40.0872 270.644 39.832C270.635 39.5677 270.621 39.2897 270.603 38.998C270.594 38.7064 270.58 38.4329 270.562 38.1777C270.553 37.9134 270.549 37.7493 270.549 37.6855C270.549 37.6673 270.544 37.6309 270.535 37.5762C270.535 37.5215 270.53 37.4622 270.521 37.3984C270.512 37.3255 270.503 37.2617 270.494 37.207C270.494 37.1432 270.494 37.1022 270.494 37.084C270.494 37.0293 270.485 36.9108 270.466 36.7285C270.457 36.5371 270.444 36.332 270.425 36.1133C270.416 35.8854 270.403 35.6667 270.384 35.457C270.375 35.2474 270.371 35.0924 270.371 34.9922C270.362 34.8372 270.348 34.6868 270.33 34.541C270.321 34.3861 270.316 34.2311 270.316 34.0762V33.6934ZM281.608 42.416C281.608 42.4069 281.613 42.3932 281.622 42.375C281.64 42.3659 281.676 42.3294 281.731 42.2656C281.786 42.2018 281.827 42.1608 281.854 42.1426C281.881 42.1243 281.927 42.0879 281.991 42.0332C282.064 41.9694 282.141 41.9102 282.223 41.8555C282.305 41.7917 282.383 41.7324 282.456 41.6777C282.529 41.6139 282.583 41.5729 282.62 41.5547C282.629 41.5456 282.656 41.5273 282.702 41.5C282.756 41.4635 282.811 41.4271 282.866 41.3906C282.92 41.3542 282.975 41.3177 283.03 41.2812C283.085 41.2448 283.126 41.2174 283.153 41.1992C283.162 41.1901 283.18 41.181 283.208 41.1719C283.235 41.1536 283.258 41.1445 283.276 41.1445H283.29H283.317C283.581 41.3815 283.823 41.6322 284.042 41.8965C284.269 42.1517 284.516 42.3887 284.78 42.6074C284.907 42.7077 285.026 42.7806 285.135 42.8262C285.254 42.8717 285.395 42.8945 285.559 42.8945C285.65 42.8945 285.746 42.89 285.846 42.8809C285.947 42.8626 286.019 42.8125 286.065 42.7305V42.457C286.065 42.0924 285.978 41.7552 285.805 41.4453C285.632 41.1354 285.413 40.862 285.149 40.625C285.113 40.5977 285.044 40.5384 284.944 40.4473C284.853 40.3561 284.743 40.2559 284.616 40.1465C284.488 40.028 284.351 39.9049 284.206 39.7773C284.06 39.6406 283.923 39.513 283.795 39.3945C283.668 39.276 283.554 39.1758 283.454 39.0938C283.363 39.0117 283.303 38.957 283.276 38.9297C283.085 38.7474 282.898 38.5514 282.715 38.3418C282.542 38.123 282.387 37.8952 282.251 37.6582C282.114 37.4212 282.004 37.1751 281.922 36.9199C281.84 36.6556 281.799 36.3867 281.799 36.1133C281.799 35.776 281.868 35.4844 282.004 35.2383C282.141 34.9922 282.305 34.7324 282.497 34.459C282.515 34.4499 282.542 34.4271 282.579 34.3906C282.624 34.3451 282.656 34.3132 282.674 34.2949C283.012 34.0033 283.372 33.7663 283.754 33.584C284.137 33.3926 284.561 33.2969 285.026 33.2969C285.391 33.2969 285.714 33.3333 285.997 33.4062C286.288 33.4792 286.557 33.584 286.803 33.7207C287.049 33.8574 287.286 34.0306 287.514 34.2402C287.751 34.4408 287.993 34.6732 288.239 34.9375C288.339 35.0378 288.412 35.1289 288.458 35.2109C288.512 35.2839 288.54 35.3841 288.54 35.5117V35.6348C288.53 35.6439 288.494 35.6803 288.43 35.7441C288.376 35.8079 288.33 35.8535 288.294 35.8809C288.248 35.9173 288.17 35.9811 288.061 36.0723C287.961 36.1543 287.851 36.2454 287.733 36.3457C287.624 36.446 287.514 36.5417 287.405 36.6328C287.295 36.7148 287.223 36.7741 287.186 36.8105H287.036C286.981 36.8105 286.94 36.8151 286.913 36.8242C286.894 36.8242 286.872 36.8014 286.844 36.7559C286.835 36.7467 286.817 36.7148 286.79 36.6602C286.762 36.6055 286.73 36.5508 286.694 36.4961C286.657 36.4323 286.626 36.3776 286.598 36.332C286.571 36.2773 286.553 36.2454 286.544 36.2363C286.525 36.2272 286.493 36.1999 286.448 36.1543C286.402 36.0996 286.352 36.0449 286.297 35.9902C286.243 35.9355 286.188 35.8809 286.133 35.8262C286.088 35.7715 286.051 35.7305 286.024 35.7031C285.924 35.6211 285.801 35.571 285.655 35.5527C285.518 35.5254 285.391 35.5117 285.272 35.5117C285.108 35.5117 284.98 35.5254 284.889 35.5527C284.798 35.571 284.725 35.612 284.67 35.6758C284.616 35.7396 284.575 35.8216 284.547 35.9219C284.529 36.0221 284.511 36.1452 284.493 36.291V36.3184C284.493 36.3822 284.529 36.4688 284.602 36.5781C284.684 36.6875 284.743 36.765 284.78 36.8105L285.723 37.7539C285.732 37.763 285.764 37.7904 285.819 37.8359C285.874 37.8724 285.928 37.9134 285.983 37.959C286.038 38.0046 286.088 38.0501 286.133 38.0957C286.188 38.1322 286.225 38.1549 286.243 38.1641C286.58 38.4284 286.881 38.7109 287.145 39.0117C287.419 39.3125 287.683 39.6361 287.938 39.9824C288.047 40.2194 288.152 40.429 288.253 40.6113C288.353 40.7845 288.439 40.9577 288.512 41.1309C288.594 41.2949 288.658 41.4818 288.704 41.6914C288.749 41.8919 288.772 42.138 288.772 42.4297V42.9492C288.726 43.1315 288.663 43.3047 288.581 43.4688C288.499 43.6237 288.385 43.765 288.239 43.8926C288.202 43.9199 288.143 43.9701 288.061 44.043C287.979 44.1159 287.888 44.1888 287.788 44.2617C287.697 44.3346 287.61 44.403 287.528 44.4668C287.446 44.5306 287.391 44.5762 287.364 44.6035C287.336 44.6217 287.277 44.6628 287.186 44.7266C287.095 44.7812 287.04 44.8132 287.022 44.8223C286.967 44.8587 286.876 44.9089 286.749 44.9727C286.63 45.0273 286.562 45.0592 286.544 45.0684C286.516 45.0684 286.448 45.0775 286.338 45.0957C286.238 45.123 286.124 45.1504 285.997 45.1777C285.878 45.2051 285.76 45.2279 285.641 45.2461C285.523 45.2734 285.432 45.2917 285.368 45.3008H285.272C285.117 45.3008 284.958 45.2826 284.794 45.2461C284.629 45.2096 284.47 45.1686 284.315 45.123C283.914 45.0046 283.572 44.8268 283.29 44.5898C283.007 44.3438 282.725 44.0703 282.442 43.7695C282.405 43.7331 282.36 43.6875 282.305 43.6328C282.251 43.569 282.196 43.5098 282.141 43.4551C282.086 43.3913 282.036 43.3366 281.991 43.291C281.945 43.2363 281.922 43.2044 281.922 43.1953C281.904 43.1771 281.881 43.1224 281.854 43.0312C281.827 42.931 281.808 42.8717 281.799 42.8535C281.79 42.8353 281.763 42.7852 281.717 42.7031C281.672 42.6211 281.64 42.571 281.622 42.5527C281.613 42.5436 281.608 42.5299 281.608 42.5117V42.457V42.416ZM291.587 45C291.551 44.9909 291.533 44.9681 291.533 44.9316C291.533 44.8952 291.533 44.8633 291.533 44.8359C291.533 44.763 291.565 44.6855 291.628 44.6035C291.692 44.5124 291.738 44.4303 291.765 44.3574C291.774 44.3301 291.792 44.2799 291.82 44.207C291.847 44.125 291.874 44.0384 291.902 43.9473C291.938 43.847 291.97 43.7604 291.998 43.6875C292.025 43.6055 292.043 43.5508 292.052 43.5234C292.061 43.4961 292.075 43.4551 292.093 43.4004C292.121 43.3457 292.148 43.2865 292.175 43.2227C292.203 43.1589 292.225 43.1042 292.244 43.0586C292.271 43.0039 292.285 42.9674 292.285 42.9492C292.294 42.9401 292.312 42.9128 292.339 42.8672C292.367 42.8216 292.394 42.7715 292.421 42.7168C292.449 42.6621 292.471 42.6165 292.49 42.5801C292.517 42.5345 292.531 42.5026 292.531 42.4844C292.54 42.4479 292.576 42.3477 292.64 42.1836C292.704 42.0195 292.772 41.8464 292.845 41.6641C292.918 41.4727 292.986 41.2995 293.05 41.1445C293.114 40.9805 293.155 40.8757 293.173 40.8301C293.192 40.7936 293.228 40.7207 293.283 40.6113C293.346 40.4928 293.387 40.4154 293.406 40.3789L295.621 34.2949C295.63 34.2767 295.643 34.2448 295.662 34.1992C295.689 34.1445 295.712 34.0898 295.73 34.0352C295.757 33.9805 295.78 33.9303 295.798 33.8848C295.826 33.8301 295.844 33.7891 295.853 33.7617L295.921 33.6934H296.113H296.331C296.368 33.6934 296.459 33.6979 296.605 33.707C296.751 33.7161 296.91 33.7253 297.083 33.7344C297.257 33.7344 297.416 33.7389 297.562 33.748C297.708 33.7572 297.803 33.7617 297.849 33.7617C297.913 33.7617 297.972 33.7617 298.027 33.7617C298.081 33.7526 298.141 33.7708 298.205 33.8164C298.277 33.8711 298.341 33.9349 298.396 34.0078C298.451 34.0807 298.501 34.1536 298.546 34.2266C298.574 34.2721 298.61 34.3314 298.656 34.4043C298.701 34.4772 298.742 34.5501 298.779 34.623C298.824 34.696 298.865 34.7643 298.902 34.8281C298.938 34.8828 298.961 34.9147 298.97 34.9238C298.998 34.9876 299.043 35.0879 299.107 35.2246C299.171 35.3522 299.234 35.4889 299.298 35.6348C299.371 35.7806 299.435 35.9128 299.49 36.0312C299.544 36.1497 299.581 36.2272 299.599 36.2637C299.608 36.291 299.626 36.3503 299.654 36.4414C299.681 36.5234 299.713 36.6146 299.749 36.7148C299.786 36.8151 299.818 36.9108 299.845 37.002C299.873 37.084 299.891 37.1387 299.9 37.166C300.073 37.6491 300.283 38.1185 300.529 38.5742C300.775 39.0208 300.994 39.4811 301.185 39.9551C301.203 40.0098 301.244 40.1237 301.308 40.2969C301.372 40.4609 301.445 40.6569 301.527 40.8848C301.618 41.1126 301.709 41.3542 301.8 41.6094C301.891 41.8646 301.978 42.1061 302.06 42.334C302.151 42.5527 302.229 42.7441 302.292 42.9082C302.356 43.0723 302.397 43.1816 302.415 43.2363C302.425 43.2728 302.461 43.3594 302.525 43.4961C302.589 43.6237 302.63 43.7103 302.648 43.7559C302.666 43.8014 302.698 43.8698 302.744 43.9609C302.789 44.043 302.835 44.1341 302.88 44.2344C302.926 44.3346 302.971 44.4303 303.017 44.5215C303.063 44.6035 303.095 44.6628 303.113 44.6992V44.7539C303.113 44.7995 303.095 44.8405 303.058 44.877C303.022 44.9043 302.976 44.9271 302.921 44.9453C302.876 44.9635 302.826 44.9772 302.771 44.9863C302.716 44.9954 302.675 45 302.648 45C302.621 45 302.552 45 302.443 45C302.333 45 302.215 45 302.087 45C301.969 45 301.855 45 301.746 45C301.636 45 301.568 45 301.54 45C301.413 45 301.281 45.0182 301.144 45.0547C301.016 45.1003 300.88 45.123 300.734 45.123C300.661 45.123 300.602 45.1185 300.556 45.1094C300.511 45.1094 300.447 45.0911 300.365 45.0547C300.365 45.0547 300.356 45.0456 300.337 45.0273L300.31 45C300.228 44.8451 300.164 44.722 300.119 44.6309C300.082 44.5306 300.027 44.3984 299.955 44.2344C299.936 44.2161 299.904 44.1569 299.859 44.0566C299.813 43.9564 299.786 43.8971 299.777 43.8789C299.722 43.7057 299.69 43.5553 299.681 43.4277C299.672 43.3001 299.608 43.1589 299.49 43.0039C299.481 42.9948 299.462 42.9857 299.435 42.9766C299.408 42.9583 299.385 42.9492 299.367 42.9492C299.294 42.9492 299.171 42.9447 298.998 42.9355C298.833 42.9264 298.656 42.9219 298.464 42.9219C298.273 42.9128 298.091 42.9036 297.917 42.8945C297.744 42.8854 297.621 42.8809 297.548 42.8809C297.53 42.8809 297.489 42.8809 297.425 42.8809C297.371 42.8717 297.307 42.8626 297.234 42.8535C297.161 42.8444 297.093 42.8398 297.029 42.8398C296.965 42.8307 296.928 42.8262 296.919 42.8262H296.66C296.404 42.8262 296.149 42.8353 295.894 42.8535C295.648 42.8717 295.402 42.9036 295.156 42.9492C295.001 42.9766 294.887 43.0495 294.814 43.168C294.75 43.2773 294.686 43.3958 294.623 43.5234C294.613 43.5508 294.595 43.6009 294.568 43.6738C294.54 43.7467 294.509 43.8242 294.472 43.9062C294.445 43.9792 294.417 44.0475 294.39 44.1113C294.363 44.1751 294.345 44.2161 294.335 44.2344C294.326 44.2526 294.308 44.2982 294.281 44.3711C294.262 44.4349 294.24 44.5078 294.212 44.5898C294.185 44.6628 294.158 44.7357 294.13 44.8086C294.112 44.8724 294.103 44.9134 294.103 44.9316C294.03 45.1139 293.948 45.2096 293.857 45.2188C293.766 45.2279 293.634 45.2324 293.46 45.2324C293.141 45.2324 292.836 45.1914 292.544 45.1094C292.253 45.0365 291.934 45 291.587 45ZM297.152 37.4395C297.143 37.4486 297.129 37.4714 297.111 37.5078C297.102 37.5352 297.097 37.5534 297.097 37.5625C297.097 37.5807 297.088 37.6126 297.07 37.6582C297.052 37.7038 297.029 37.7539 297.001 37.8086C296.983 37.8542 296.965 37.9043 296.947 37.959C296.928 38.0046 296.919 38.0319 296.919 38.041C296.91 38.0501 296.892 38.082 296.865 38.1367C296.846 38.1823 296.824 38.237 296.796 38.3008C296.769 38.3555 296.742 38.4102 296.714 38.4648C296.696 38.5195 296.682 38.5514 296.673 38.5605C296.628 38.6699 296.573 38.8158 296.509 38.998C296.445 39.1803 296.382 39.3626 296.318 39.5449C296.254 39.7181 296.199 39.8685 296.154 39.9961C296.117 40.1237 296.099 40.1875 296.099 40.1875V40.3105H298.328C298.337 40.3105 298.355 40.2969 298.382 40.2695C298.41 40.2331 298.432 40.2057 298.451 40.1875V40.1328C298.451 40.0599 298.428 39.9733 298.382 39.873C298.337 39.7637 298.3 39.6771 298.273 39.6133C298.191 39.4583 298.091 39.2624 297.972 39.0254C297.854 38.7884 297.735 38.5605 297.617 38.3418C297.507 38.1139 297.412 37.918 297.33 37.7539C297.248 37.5898 297.206 37.5078 297.206 37.5078L297.152 37.4395ZM306.571 45.2461C306.562 45.1276 306.552 44.9453 306.543 44.6992C306.534 44.444 306.52 44.1615 306.502 43.8516C306.493 43.5417 306.479 43.2181 306.461 42.8809C306.452 42.5345 306.443 42.2064 306.434 41.8965C306.425 41.5866 306.416 41.3086 306.407 41.0625C306.397 40.8073 306.393 40.6204 306.393 40.502C306.393 40.4746 306.393 40.3607 306.393 40.1602C306.393 39.9596 306.388 39.7318 306.379 39.4766C306.379 39.2214 306.379 38.9661 306.379 38.7109C306.379 38.4557 306.379 38.2552 306.379 38.1094C306.379 38.0182 306.379 37.8587 306.379 37.6309C306.379 37.403 306.379 37.1615 306.379 36.9062C306.388 36.651 306.393 36.4095 306.393 36.1816C306.393 35.9538 306.393 35.7943 306.393 35.7031C306.402 35.6667 306.411 35.5892 306.42 35.4707C306.438 35.3522 306.448 35.2747 306.448 35.2383C306.448 35.1836 306.448 35.0924 306.448 34.9648C306.457 34.8281 306.461 34.6868 306.461 34.541C306.461 34.3861 306.457 34.2448 306.448 34.1172C306.448 33.9805 306.448 33.8848 306.448 33.8301C306.539 33.7936 306.612 33.7754 306.666 33.7754C306.721 33.7663 306.789 33.7617 306.871 33.7617H307.09C307.154 33.7708 307.268 33.7799 307.432 33.7891C307.596 33.7891 307.765 33.7936 307.938 33.8027C308.12 33.8118 308.289 33.821 308.444 33.8301C308.608 33.8301 308.722 33.8301 308.785 33.8301C308.904 33.9303 309.013 34.0579 309.114 34.2129C309.223 34.3587 309.319 34.5182 309.401 34.6914C309.492 34.8555 309.578 35.0241 309.66 35.1973C309.743 35.3613 309.825 35.5072 309.907 35.6348C309.916 35.6621 309.948 35.7214 310.002 35.8125C310.057 35.8945 310.112 35.9857 310.166 36.0859C310.23 36.1771 310.285 36.2682 310.33 36.3594C310.385 36.4414 310.422 36.4915 310.44 36.5098C310.449 36.528 310.467 36.569 310.494 36.6328C310.531 36.6966 310.567 36.7695 310.604 36.8516C310.64 36.9245 310.672 36.9928 310.7 37.0566C310.736 37.1204 310.763 37.1569 310.782 37.166L311.069 37.4531C311.078 37.4714 311.096 37.5124 311.123 37.5762C311.151 37.64 311.173 37.6764 311.192 37.6855C311.201 37.7038 311.224 37.7402 311.26 37.7949C311.297 37.8405 311.338 37.8952 311.383 37.959C311.438 38.0137 311.483 38.0684 311.52 38.123C311.565 38.1686 311.593 38.196 311.602 38.2051C311.62 38.2233 311.638 38.2552 311.657 38.3008C311.684 38.3464 311.702 38.3737 311.711 38.3828C311.72 38.401 311.743 38.4466 311.78 38.5195C311.825 38.5924 311.871 38.6699 311.916 38.752C311.971 38.834 312.017 38.9115 312.053 38.9844C312.09 39.0482 312.117 39.0892 312.135 39.1074C312.144 39.1165 312.172 39.153 312.217 39.2168C312.263 39.2715 312.295 39.3079 312.313 39.3262C312.358 39.3809 312.395 39.4128 312.422 39.4219C312.459 39.431 312.495 39.4583 312.532 39.5039C312.55 39.5221 312.582 39.5723 312.627 39.6543C312.673 39.7363 312.7 39.7865 312.709 39.8047C312.718 39.8138 312.755 39.8503 312.819 39.9141C312.882 39.9779 312.923 40.0143 312.942 40.0234C312.951 40.0417 312.974 40.0736 313.01 40.1191C313.047 40.1647 313.083 40.2148 313.119 40.2695C313.165 40.3151 313.206 40.3652 313.243 40.4199C313.279 40.4655 313.302 40.4928 313.311 40.502C313.32 40.5111 313.334 40.5339 313.352 40.5703C313.379 40.5977 313.397 40.6159 313.407 40.625C313.425 40.5885 313.438 40.5111 313.448 40.3926C313.457 40.2741 313.466 40.1921 313.475 40.1465V39.9824C313.475 39.6361 313.457 39.2943 313.42 38.957C313.393 38.6107 313.356 38.2689 313.311 37.9316V34.0625C313.311 34.0352 313.315 33.9941 313.325 33.9395C313.343 33.8848 313.37 33.8483 313.407 33.8301C313.434 33.8301 313.475 33.8301 313.53 33.8301C313.584 33.8301 313.644 33.8301 313.707 33.8301C313.771 33.821 313.83 33.8164 313.885 33.8164C313.94 33.8164 313.981 33.8164 314.008 33.8164C314.045 33.8164 314.09 33.8164 314.145 33.8164C314.209 33.8164 314.268 33.821 314.323 33.8301C314.386 33.8301 314.441 33.8301 314.487 33.8301C314.541 33.8301 314.573 33.8301 314.582 33.8301C314.619 33.8301 314.678 33.8346 314.76 33.8438C314.851 33.8438 314.947 33.8483 315.047 33.8574C315.157 33.8574 315.252 33.862 315.334 33.8711C315.425 33.8802 315.489 33.8848 315.526 33.8848C315.59 33.9303 315.64 33.985 315.676 34.0488C315.713 34.1126 315.74 34.1855 315.758 34.2676C315.776 34.3405 315.785 34.418 315.785 34.5C315.795 34.5729 315.804 34.6413 315.813 34.7051C315.822 34.8418 315.831 35.0423 315.84 35.3066C315.858 35.571 315.872 35.8444 315.881 36.127C315.899 36.4095 315.913 36.6647 315.922 36.8926C315.931 37.1204 315.936 37.2663 315.936 37.3301C315.936 37.4395 315.936 37.6081 315.936 37.8359C315.945 38.0638 315.95 38.319 315.95 38.6016C315.95 38.8841 315.95 39.1849 315.95 39.5039C315.95 39.8229 315.95 40.1237 315.95 40.4062C315.95 40.6888 315.945 40.944 315.936 41.1719C315.936 41.3997 315.936 41.5684 315.936 41.6777C315.972 41.9329 315.991 42.1608 315.991 42.3613C316 42.5618 316.004 42.7943 316.004 43.0586C316.004 43.1042 316 43.168 315.991 43.25C315.991 43.3229 315.991 43.3958 315.991 43.4688C315.991 43.5417 315.986 43.61 315.977 43.6738C315.977 43.7285 315.977 43.7604 315.977 43.7695C315.977 43.8151 315.972 43.8971 315.963 44.0156C315.963 44.1341 315.959 44.2617 315.95 44.3984C315.95 44.526 315.945 44.6491 315.936 44.7676C315.936 44.877 315.936 44.9544 315.936 45C315.881 45.0091 315.776 45.0182 315.621 45.0273C315.476 45.0456 315.316 45.0592 315.143 45.0684C314.97 45.0866 314.806 45.1003 314.651 45.1094C314.505 45.1185 314.405 45.123 314.35 45.123H313.967H313.584C313.493 45.0957 313.416 45.041 313.352 44.959C313.288 44.877 313.233 44.7995 313.188 44.7266C312.887 44.2344 312.586 43.7467 312.285 43.2637C311.985 42.7715 311.661 42.3021 311.315 41.8555C311.287 41.8281 311.237 41.7689 311.164 41.6777C311.091 41.5866 311.041 41.5273 311.014 41.5C310.996 41.4818 310.959 41.4408 310.905 41.377C310.85 41.3132 310.791 41.2493 310.727 41.1855C310.663 41.1126 310.599 41.0443 310.535 40.9805C310.481 40.9167 310.449 40.8757 310.44 40.8574C310.422 40.8392 310.39 40.7936 310.344 40.7207C310.298 40.6478 310.248 40.5703 310.194 40.4883C310.148 40.3971 310.098 40.3151 310.043 40.2422C309.998 40.1602 309.97 40.1055 309.961 40.0781C309.952 40.0599 309.916 40.0052 309.852 39.9141C309.788 39.8138 309.747 39.7546 309.729 39.7363C309.711 39.709 309.67 39.6452 309.606 39.5449C309.551 39.4355 309.492 39.3262 309.428 39.2168C309.364 39.0983 309.3 38.9889 309.237 38.8887C309.182 38.7793 309.15 38.7109 309.141 38.6836C309.132 38.6745 309.109 38.6471 309.073 38.6016C309.045 38.5469 309.027 38.515 309.018 38.5059C309.018 38.515 309.009 38.5469 308.991 38.6016C308.972 38.6471 308.963 38.6745 308.963 38.6836V38.7383V38.8066C308.991 39.4355 309.009 40.0599 309.018 40.6797C309.027 41.2995 309.05 41.9238 309.086 42.5527C309.086 42.571 309.086 42.6165 309.086 42.6895C309.095 42.7533 309.104 42.8262 309.114 42.9082C309.123 42.9811 309.127 43.054 309.127 43.127C309.136 43.1908 309.141 43.2318 309.141 43.25V44.7676C309.187 44.8587 309.209 44.959 309.209 45.0684C309.209 45.0866 309.205 45.0957 309.196 45.0957C309.196 45.1048 309.196 45.1185 309.196 45.1367V45.1777C309.196 45.1868 309.177 45.196 309.141 45.2051C309.114 45.2233 309.095 45.237 309.086 45.2461C308.868 45.2917 308.658 45.3099 308.457 45.3008C308.266 45.3008 308.056 45.3008 307.828 45.3008H306.967C306.94 45.3008 306.871 45.2917 306.762 45.2734C306.662 45.2643 306.598 45.2552 306.571 45.2461ZM318.874 45C318.838 44.9909 318.82 44.9681 318.82 44.9316C318.82 44.8952 318.82 44.8633 318.82 44.8359C318.82 44.763 318.851 44.6855 318.915 44.6035C318.979 44.5124 319.025 44.4303 319.052 44.3574C319.061 44.3301 319.079 44.2799 319.107 44.207C319.134 44.125 319.161 44.0384 319.189 43.9473C319.225 43.847 319.257 43.7604 319.284 43.6875C319.312 43.6055 319.33 43.5508 319.339 43.5234C319.348 43.4961 319.362 43.4551 319.38 43.4004C319.407 43.3457 319.435 43.2865 319.462 43.2227C319.489 43.1589 319.512 43.1042 319.53 43.0586C319.558 43.0039 319.571 42.9674 319.571 42.9492C319.581 42.9401 319.599 42.9128 319.626 42.8672C319.654 42.8216 319.681 42.7715 319.708 42.7168C319.736 42.6621 319.758 42.6165 319.777 42.5801C319.804 42.5345 319.818 42.5026 319.818 42.4844C319.827 42.4479 319.863 42.3477 319.927 42.1836C319.991 42.0195 320.059 41.8464 320.132 41.6641C320.205 41.4727 320.273 41.2995 320.337 41.1445C320.401 40.9805 320.442 40.8757 320.46 40.8301C320.478 40.7936 320.515 40.7207 320.57 40.6113C320.633 40.4928 320.674 40.4154 320.693 40.3789L322.907 34.2949C322.917 34.2767 322.93 34.2448 322.948 34.1992C322.976 34.1445 322.999 34.0898 323.017 34.0352C323.044 33.9805 323.067 33.9303 323.085 33.8848C323.112 33.8301 323.131 33.7891 323.14 33.7617L323.208 33.6934H323.4H323.618C323.655 33.6934 323.746 33.6979 323.892 33.707C324.038 33.7161 324.197 33.7253 324.37 33.7344C324.543 33.7344 324.703 33.7389 324.849 33.748C324.995 33.7572 325.09 33.7617 325.136 33.7617C325.2 33.7617 325.259 33.7617 325.314 33.7617C325.368 33.7526 325.428 33.7708 325.491 33.8164C325.564 33.8711 325.628 33.9349 325.683 34.0078C325.737 34.0807 325.788 34.1536 325.833 34.2266C325.861 34.2721 325.897 34.3314 325.943 34.4043C325.988 34.4772 326.029 34.5501 326.066 34.623C326.111 34.696 326.152 34.7643 326.189 34.8281C326.225 34.8828 326.248 34.9147 326.257 34.9238C326.284 34.9876 326.33 35.0879 326.394 35.2246C326.458 35.3522 326.521 35.4889 326.585 35.6348C326.658 35.7806 326.722 35.9128 326.777 36.0312C326.831 36.1497 326.868 36.2272 326.886 36.2637C326.895 36.291 326.913 36.3503 326.941 36.4414C326.968 36.5234 327 36.6146 327.036 36.7148C327.073 36.8151 327.105 36.9108 327.132 37.002C327.159 37.084 327.178 37.1387 327.187 37.166C327.36 37.6491 327.57 38.1185 327.816 38.5742C328.062 39.0208 328.28 39.4811 328.472 39.9551C328.49 40.0098 328.531 40.1237 328.595 40.2969C328.659 40.4609 328.732 40.6569 328.814 40.8848C328.905 41.1126 328.996 41.3542 329.087 41.6094C329.178 41.8646 329.265 42.1061 329.347 42.334C329.438 42.5527 329.515 42.7441 329.579 42.9082C329.643 43.0723 329.684 43.1816 329.702 43.2363C329.711 43.2728 329.748 43.3594 329.812 43.4961C329.876 43.6237 329.917 43.7103 329.935 43.7559C329.953 43.8014 329.985 43.8698 330.03 43.9609C330.076 44.043 330.122 44.1341 330.167 44.2344C330.213 44.3346 330.258 44.4303 330.304 44.5215C330.349 44.6035 330.381 44.6628 330.4 44.6992V44.7539C330.4 44.7995 330.381 44.8405 330.345 44.877C330.308 44.9043 330.263 44.9271 330.208 44.9453C330.163 44.9635 330.112 44.9772 330.058 44.9863C330.003 44.9954 329.962 45 329.935 45C329.907 45 329.839 45 329.73 45C329.62 45 329.502 45 329.374 45C329.256 45 329.142 45 329.032 45C328.923 45 328.855 45 328.827 45C328.7 45 328.568 45.0182 328.431 45.0547C328.303 45.1003 328.167 45.123 328.021 45.123C327.948 45.123 327.889 45.1185 327.843 45.1094C327.797 45.1094 327.734 45.0911 327.652 45.0547C327.652 45.0547 327.642 45.0456 327.624 45.0273L327.597 45C327.515 44.8451 327.451 44.722 327.405 44.6309C327.369 44.5306 327.314 44.3984 327.241 44.2344C327.223 44.2161 327.191 44.1569 327.146 44.0566C327.1 43.9564 327.073 43.8971 327.064 43.8789C327.009 43.7057 326.977 43.5553 326.968 43.4277C326.959 43.3001 326.895 43.1589 326.777 43.0039C326.767 42.9948 326.749 42.9857 326.722 42.9766C326.695 42.9583 326.672 42.9492 326.654 42.9492C326.581 42.9492 326.458 42.9447 326.284 42.9355C326.12 42.9264 325.943 42.9219 325.751 42.9219C325.56 42.9128 325.377 42.9036 325.204 42.8945C325.031 42.8854 324.908 42.8809 324.835 42.8809C324.817 42.8809 324.776 42.8809 324.712 42.8809C324.657 42.8717 324.594 42.8626 324.521 42.8535C324.448 42.8444 324.379 42.8398 324.316 42.8398C324.252 42.8307 324.215 42.8262 324.206 42.8262H323.946C323.691 42.8262 323.436 42.8353 323.181 42.8535C322.935 42.8717 322.689 42.9036 322.443 42.9492C322.288 42.9766 322.174 43.0495 322.101 43.168C322.037 43.2773 321.973 43.3958 321.909 43.5234C321.9 43.5508 321.882 43.6009 321.855 43.6738C321.827 43.7467 321.795 43.8242 321.759 43.9062C321.732 43.9792 321.704 44.0475 321.677 44.1113C321.65 44.1751 321.631 44.2161 321.622 44.2344C321.613 44.2526 321.595 44.2982 321.568 44.3711C321.549 44.4349 321.527 44.5078 321.499 44.5898C321.472 44.6628 321.445 44.7357 321.417 44.8086C321.399 44.8724 321.39 44.9134 321.39 44.9316C321.317 45.1139 321.235 45.2096 321.144 45.2188C321.053 45.2279 320.92 45.2324 320.747 45.2324C320.428 45.2324 320.123 45.1914 319.831 45.1094C319.54 45.0365 319.221 45 318.874 45ZM324.439 37.4395C324.43 37.4486 324.416 37.4714 324.398 37.5078C324.389 37.5352 324.384 37.5534 324.384 37.5625C324.384 37.5807 324.375 37.6126 324.357 37.6582C324.338 37.7038 324.316 37.7539 324.288 37.8086C324.27 37.8542 324.252 37.9043 324.234 37.959C324.215 38.0046 324.206 38.0319 324.206 38.041C324.197 38.0501 324.179 38.082 324.152 38.1367C324.133 38.1823 324.111 38.237 324.083 38.3008C324.056 38.3555 324.029 38.4102 324.001 38.4648C323.983 38.5195 323.969 38.5514 323.96 38.5605C323.915 38.6699 323.86 38.8158 323.796 38.998C323.732 39.1803 323.668 39.3626 323.605 39.5449C323.541 39.7181 323.486 39.8685 323.441 39.9961C323.404 40.1237 323.386 40.1875 323.386 40.1875V40.3105H325.614C325.624 40.3105 325.642 40.2969 325.669 40.2695C325.696 40.2331 325.719 40.2057 325.737 40.1875V40.1328C325.737 40.0599 325.715 39.9733 325.669 39.873C325.624 39.7637 325.587 39.6771 325.56 39.6133C325.478 39.4583 325.377 39.2624 325.259 39.0254C325.14 38.7884 325.022 38.5605 324.904 38.3418C324.794 38.1139 324.698 37.918 324.616 37.7539C324.534 37.5898 324.493 37.5078 324.493 37.5078L324.439 37.4395Z" fill="black"/>
</svg>
