<svg width="445" height="717" viewBox="0 0 445 717" fill="none" xmlns="http://www.w3.org/2000/svg">
<path d="M409.685 421.383C408.945 416.897 408.16 412.411 407.442 407.746C407.173 405.839 407.105 403.91 406.836 400.905C413.318 408.598 416.346 430.175 411.972 433.359C411.143 429.277 410.335 425.263 409.528 421.248L409.64 421.383H409.685Z" fill="black"/>
<path d="M385.621 484.787C383.871 486.043 382.705 487.457 381.965 487.255C381.414 487 380.938 486.608 380.58 486.118C380.223 485.627 379.997 485.053 379.924 484.451C380.075 483.87 380.373 483.339 380.79 482.907C381.206 482.474 381.727 482.157 382.301 481.984C383.064 481.984 384.028 483.374 385.621 484.787Z" fill="black"/>
<path d="M442.712 558.354C440.896 541.331 440.29 524.06 437.284 507.261C434.369 491.561 430.018 475.861 419.341 462.942C418.698 461.628 418.441 460.157 418.601 458.703C419.341 447.488 417.031 437.687 407.611 430.801C404.237 428.793 400.73 427.017 397.115 425.486C398.191 423.804 399.043 422.593 399.761 421.516C400.838 422.346 401.69 423.086 403.619 424.768V404.829H404.583C405.323 410.997 406.153 417.03 407.14 424.163C407.97 423.198 409.181 422.346 409.383 421.381C409.607 418.241 409.383 415.236 409.383 411.961V411.849L404.673 396.755C401.939 395.221 399.68 392.962 398.146 390.228C390.655 375.133 376.413 367.799 359.614 371.141C345.483 373.922 338.239 384.307 333.888 396.979C331.824 403.147 327.854 405.681 322.045 403.506C321.574 394.938 326.397 388.164 330.389 381.413C341.603 362.685 357.303 358.581 374.596 362.192C398.258 367.036 412.03 383.813 415.304 408.216C415.91 413.06 416.381 417.77 416.986 422.48C417.345 422.48 417.839 422.48 418.198 422.705C418.978 420.536 419.468 418.273 419.655 415.976C418.916 400.998 413.318 386.668 403.709 375.156C394.894 363.941 382.558 359.321 369.034 358.603C356.003 357.998 343.801 360.846 334.493 371.769C324.468 383.499 318.188 396.665 318.3 412.141C318.3 419.766 320.117 427.235 321.081 434.861C321.365 435.522 321.687 436.166 322.045 436.79C322.898 435.22 323.257 434.368 323.257 434.368H332.228C331.981 432.932 331.847 431.474 331.735 430.151C332.04 429.924 332.362 429.722 332.699 429.545C333.798 431.228 334.942 432.932 336.086 434.614C336.691 434.255 337.409 433.897 338.015 433.515C336.445 429.904 334.875 426.271 333.305 422.525C340.437 430.51 346.358 438.831 357.102 442.106C357.66 442.551 358.104 443.123 358.396 443.775C358.689 444.426 358.822 445.138 358.784 445.851C358.525 446.617 358.113 447.321 357.573 447.923C357.033 448.524 356.377 449.01 355.644 449.35C346.224 453.096 336.445 455.877 327.383 460.34C323.019 462.743 318.142 464.062 313.161 464.187C308.181 464.312 303.244 463.239 298.764 461.058C295.983 459.847 294.884 458.411 295.131 455.63C295.63 450.412 295.832 445.171 295.736 439.93C295.019 427.235 293.337 414.563 292.843 401.801C292.238 379.933 288.133 358.67 283.423 337.543C280.036 322.448 274.721 307.712 270.37 292.685C269.716 290.833 269.804 288.799 270.616 287.01C271.648 285.681 272.257 284.073 272.365 282.393C272.473 280.714 272.075 279.041 271.222 277.59C264.224 263.079 257.563 248.433 249.713 234.348C245.227 226.363 239.328 219.006 229.527 216.405C224.421 215.156 219.414 213.537 214.544 211.56C204.272 207.456 194 203.463 184.108 198.506C176.864 195.008 176.012 187.651 180.61 181.124C181.458 179.843 182.031 178.399 182.292 176.885C183.009 171.951 183.256 166.994 184.221 162.037C185.432 156.363 187.361 150.823 188.706 145.238C188.99 143.836 188.913 142.385 188.482 141.021C186.239 132.319 184.49 123.392 181.215 115.049C179.533 110.944 175.07 107.917 171.683 104.664C171.077 103.947 169.44 104.418 168.184 104.171C167.006 104.16 165.847 103.876 164.797 103.341C154.343 96.0446 141.569 92.8511 128.911 94.3696C118.215 95.6207 108.063 99.7698 99.5519 106.369C95.3129 109.621 92.8233 115.184 86.4984 115.901C85.2872 116.036 83.8518 117.853 83.3584 119.176C81.7884 124.357 75.755 127.497 77.4372 134.383C78.424 138.509 76.2484 143.219 76.7195 147.436C77.0783 150.688 79.5006 153.851 81.0706 157.103C82.1371 158.567 82.9555 160.196 83.4929 161.925C84.3228 169.304 84.5695 176.661 85.4218 183.905C86.4561 192.56 90.6203 200.537 97.1296 206.334C85.2872 211.515 74.4317 216.472 63.4865 221.182C51.1731 226.632 40.7886 234.236 33.5441 245.854C22.7558 263.034 18.8084 282.368 16.5655 302.15C16.4309 304.101 18.4944 306.254 19.4588 308.318C20.0644 309.888 21.3877 311.705 21.1634 313.275C19.7055 324.87 17.171 336.466 16.6776 348.062C14.973 374.976 12.5732 401.891 6.04638 428.132C2.54749 442.509 -0.682261 457.133 0.125175 472.227C0.102605 476.765 1.77241 481.147 4.80837 484.519C7.84433 487.891 12.0283 490.01 16.543 490.462C16.9019 490.597 17.2832 490.103 18.7859 489.251C11.1826 486.716 10.577 481.042 10.6891 474.762C10.719 471.018 10.5618 467.275 10.2181 463.548C9.99776 462.367 9.71325 461.199 9.36584 460.049C9.11912 460.049 8.89483 460.049 8.64812 460.049V485.55C4.65579 481.311 2.12134 477.094 2.72692 471.891C4.29694 457.761 6.11366 443.631 8.4014 429.501C11.0704 412.343 14.816 395.319 16.9692 378.049C19.2121 361.25 19.8849 344.226 21.4549 327.315C22.2629 322.11 23.3485 316.951 24.7071 311.862C32.1983 314.104 38.7251 316.078 45.2519 318.007C42.7174 328.885 39.3307 339.875 37.8728 350.977C35.6299 367.418 34.7328 383.97 33.9029 400.523C33.6562 403.169 35.5851 407.408 37.6485 408.238C41.1026 409.808 41.2371 412.051 41.2371 415.101C41.2371 420.417 39.7793 426.316 41.4838 430.801C44.8482 439.616 42.9193 447.959 42.067 456.527C41.5748 458.868 40.7675 461.132 39.6671 463.256C38.8177 463.23 37.971 463.148 37.1327 463.009C36.3925 457.223 35.6748 451.414 34.8898 445.627C34.3969 445.647 33.9079 445.722 33.4319 445.851C33.2673 450.525 33.3496 455.204 33.6786 459.869C33.7908 461.686 35.6075 464.355 36.9308 464.579C41.9997 465.297 40.9231 468.684 41.0353 471.958C41.6409 490.44 41.8876 509.033 43.2782 527.514C44.3547 540.568 47.1359 553.487 49.4236 566.406C49.6704 568.088 51.9581 569.299 53.3038 570.757C54.6495 572.215 57.2737 573.65 57.655 575.467C59.225 582.196 60.1894 589.238 61.1539 596.124C62.836 608.437 63.8005 620.796 65.8639 633.199C68.3984 648.181 68.2862 649.146 55.7037 656.884C55.5915 656.996 55.3448 656.996 55.2327 657.13C45.9247 663.523 36.7514 669.803 27.578 676.329C25.3611 677.652 23.6468 679.675 22.7049 682.078C21.7629 684.482 21.6467 687.13 22.3745 689.607C22.7919 691.887 23.893 693.985 25.5316 695.624C27.1701 697.262 29.2685 698.363 31.5479 698.781C36.7691 699.459 42.0633 699.338 47.248 698.422C64.5406 695.528 81.8108 692.501 98.8342 688.89C112.718 685.996 118.527 683.081 120.949 671.373C121.928 666.958 122.327 662.434 122.138 657.915C121.913 653.43 119.244 649.101 119.132 644.615C119.132 622.029 119.603 599.331 120.209 576.611C120.351 575.611 120.734 574.66 121.323 573.84C121.913 573.02 122.693 572.354 123.596 571.901C125.184 571.393 126.519 570.297 127.327 568.839C128.136 567.38 128.357 565.667 127.947 564.051C127.186 557.761 126.782 551.434 126.736 545.099C127.341 524.083 128.059 502.932 128.979 481.917C129.225 475.995 130.078 470.209 130.683 463.974H138.892C138.892 465.678 139.251 467.001 139.251 468.325C140.462 486.559 141.18 504.794 142.75 522.916C144.073 538.258 146.137 553.599 148.312 568.94C148.671 571.609 150.981 574.009 152.417 576.544C153.059 577.494 153.509 578.56 153.74 579.684C154.592 588.386 155.198 597.201 155.983 605.903C157.777 625.708 159.482 645.4 161.769 665.093C162.263 670.162 163.339 676.307 166.614 679.94C176.078 690.241 186.072 700.041 196.556 709.3C200.155 712.447 204.464 714.673 209.113 715.787C213.763 716.9 218.613 716.868 223.247 715.692C228.203 714.728 231.59 712.081 232.218 707.371C232.824 703.201 232.495 698.949 231.254 694.923C227.149 683.821 222.282 673.055 217.796 662.065C215.15 655.538 210.44 649.998 211.068 642.013C212.772 622.702 213.49 603.256 214.342 583.811C214.589 579.213 214.342 574.839 219.277 572.08C220.334 571.24 221.031 570.029 221.228 568.694C223.875 553.352 226.656 538.011 228.719 522.558C230.289 511.343 230.962 500.331 231.837 489.094C232.824 474.717 233.9 460.363 234.394 445.986C234.865 432.82 234.394 419.654 234.394 406.489C234.506 403.461 236.637 400.321 236.323 397.293C234.999 383.836 233.183 370.49 231.366 357.078C229.796 345.011 226.88 333.034 230.289 321.327C233.183 322.179 235.964 322.784 238.992 323.569C239.463 325.274 240.203 327.315 240.786 329.491C241.369 331.666 242.603 334.447 242.132 336.623C237.04 357.033 241.997 376.008 249.735 394.714C256.262 410.414 260.366 426.248 253.234 443.16C251.664 446.771 253.122 451.503 252.987 455.72C252.782 456.959 252.459 458.175 252.023 459.353C250.334 463.483 249.042 467.763 248.165 472.138C247.806 476.848 250.946 479.023 255.656 478.418C257.885 478.059 260.131 477.819 262.385 477.7C271.199 477.341 279.184 466.351 276.515 456.931C273.981 464.175 272.298 471.42 264.807 475.771C267.342 469.85 269.517 464.669 267.05 458.748C265.727 463.817 264.269 468.886 262.946 473.954L261.488 473.596C261.729 472.604 261.849 471.588 261.847 470.568C261.129 465.633 261.981 458.501 258.953 456.079C253.144 451.369 253.997 447.264 256.284 442.061C261.488 429.747 260.523 417.546 256.284 405.233C252.539 394.355 248.681 383.365 245.429 372.262C242.513 362.461 240.943 352.323 243.612 342.297C245.16 336.171 244.607 329.703 242.042 323.928C241.817 322.926 241.819 321.886 242.048 320.885C242.277 319.884 242.727 318.946 243.365 318.142C248.681 311.615 254.58 305.469 260.03 299.301C262.093 296.879 264.381 294.591 266.915 291.922C268.261 295.556 269.472 298.337 270.19 301.118C274.407 316.572 278.646 331.913 282.391 347.501C284.981 357.678 286.973 367.998 288.357 378.408C290.174 395.431 290.892 412.589 292.709 429.613C294.485 442.682 293.25 455.985 289.098 468.504C287.64 472.497 286.855 477.476 280.126 477.476C282.369 471.196 287.976 466.261 286.047 459.241C283.019 466.957 280.732 474.941 271.805 478.799C272.449 479.193 273.133 479.516 273.846 479.764C280.007 480.153 286.141 480.902 292.215 482.006C301.03 484.07 309.597 487.681 318.905 486.358C323.01 485.752 327.114 484.541 331.107 483.711C333.35 483.218 335.099 482.859 335.592 486.111C339.585 507.015 341.155 527.784 337.835 549.046C336.251 560.09 335.561 571.243 335.772 582.398C335.772 588.184 335.166 595.317 342.186 598.815C342.904 599.174 342.904 601.058 342.904 602.202C343.375 617.185 343.869 632.279 344.115 647.239C344.362 660.697 347.368 674.67 334.807 684.942C332.161 687.185 330.591 690.37 332.766 693.914C333.749 695.422 335.244 696.523 336.976 697.014C338.708 697.505 340.559 697.351 342.186 696.583C349.276 694.086 356.179 691.088 362.843 687.611C372.017 682.295 373.833 675.298 370.2 665.631C369.842 664.248 369.72 662.815 369.841 661.392C369.594 642.911 369.729 624.317 369.348 605.724C369.236 602.09 368.877 599.309 373.093 597.986C374.305 597.492 375.157 594.846 375.336 593.029C376.076 585.538 376.435 578.046 376.794 570.6C379.822 569.524 381.28 570.376 381.145 573.628C380.903 578.019 381.023 582.422 381.504 586.794C382.469 592.221 380.046 599.354 388.233 601.888C388.726 602.023 388.95 603.952 389.085 605.163C389.691 611.443 390.408 617.588 390.879 623.868C391.732 633.782 392.943 643.561 393.302 653.475C393.683 666.64 393.302 679.918 406.221 688.127C411.803 691.856 417.831 694.87 424.164 697.099C426.833 697.951 431.543 695.416 433.965 692.994C436.971 689.989 434.817 686.108 432.754 682.968C432.036 681.892 431.184 681.039 430.511 680.075C426.878 675.724 423.132 671.619 419.633 667.156C416.005 662.454 414.09 656.654 414.205 650.716C414.43 633.804 413.712 616.781 413.6 599.87C413.6 596.976 415.394 594.195 416.246 591.302C417.345 587.803 419.521 584.057 419.027 580.671C416.785 564.006 415.17 547.027 410.572 531.148C407.073 519.552 409.607 509.033 410.325 496.473C411.108 498 411.797 499.573 412.389 501.183C414.923 508.921 417.951 516.412 418.915 524.733C420.597 537.54 423.401 550.1 426.272 562.66C427.533 566.985 429.069 571.226 430.87 575.355C433.27 573.538 434.615 572.574 437.755 570.152C431.588 571.363 436.432 561.943 429.547 564.97C429.024 558.941 428.133 552.948 426.878 547.027C422.885 530.722 418.915 514.416 413.712 498.469C409.226 484.586 404.74 470.702 404.538 453.903C410.078 458.86 415.753 462.247 419.027 467.181C430.511 484.227 435.221 503.919 438.227 523.724C439.797 534.355 438.832 545.211 439.326 556.089C439.55 560.799 440.649 565.509 445 568.402C444.551 564.769 443.094 561.629 442.712 558.354ZM258.258 458.097C259.716 464.153 261.533 469.693 257.181 474.762C254.939 477.184 252.83 477.005 251.754 473.685C250.206 468.975 253.212 461.394 258.28 458.097H258.258ZM167.691 109.868C169.754 107.333 171.189 107.625 172.288 110.608C173.141 113.008 173.724 115.296 177.111 114.578C177.716 114.466 178.927 115.677 179.04 116.507C180.385 121.217 181.462 126.061 182.561 130.884C183.525 134.517 184.49 138.128 185.454 141.649C183.211 140.192 181.103 137.523 179.421 137.904C176.146 138.509 174.464 141.156 173.971 145.148C173.612 147.683 170.831 149.971 169.148 152.393C168.676 152.246 168.185 152.163 167.691 152.146C167.332 150.217 166.121 147.795 166.861 146.472C168.352 144.521 169.023 142.064 168.73 139.626C168.436 137.187 167.202 134.96 165.291 133.418C169.776 126.308 167.691 120.14 163.474 113.501C164.994 112.429 166.406 111.212 167.691 109.868ZM82.9098 154.434C77.8409 142.008 78.6708 130.525 86.6554 120.14L88.8983 120.499C88.2927 123.639 87.4404 126.667 87.0816 129.807C86.7227 132.947 87.0816 136.693 86.5881 140.079C85.6084 144.924 84.3807 149.715 82.9098 154.434ZM99.5519 207.231C100.27 211.717 102.557 212.188 106.281 211.941C109.196 211.695 112.314 213.87 115.835 215.193C115.835 215.193 116.306 214.229 117.159 212.794C117.876 214.341 118.37 215.328 119.087 216.898C120.052 215.799 120.904 214.835 122.34 213.265C123.08 214.476 123.685 215.687 123.91 216.158C126.317 214.846 128.821 213.722 131.401 212.794C135.034 211.941 138.892 211.582 142.615 210.977C143.109 210.842 143.467 210.012 143.938 209.654C152.91 202.162 165.448 197.564 166.053 182.739C161.95 192.641 154.34 200.683 144.679 205.325C143.939 204.36 143.221 203.374 142.436 202.297C141.471 204.54 140.754 206.514 139.901 208.465C139.593 208.313 139.27 208.193 138.937 208.106C138.466 206.514 138.085 204.966 137.726 203.62H136.761C136.29 205.437 135.931 207.119 135.191 209.9C134.115 207.657 133.509 206.267 132.41 204.091C131.939 206.514 131.446 208.33 130.84 211.47C129.651 208.824 128.911 207.231 128.306 205.796C127.958 205.685 127.593 205.639 127.229 205.661C126.982 207.478 126.736 209.183 126.265 212.39C125.053 209.25 124.336 207.186 123.237 204.181C122.384 206.424 121.779 207.927 120.814 210.326C120.59 207.68 120.343 205.841 120.209 204.046C119.985 204.046 119.626 204.046 119.379 203.822C118.773 205.751 118.056 207.792 117.136 211.179L114.467 204.787C113.391 206.715 112.65 208.039 111.574 210.102C110.834 208.039 110.363 206.581 109.645 204.54C108.793 205.998 108.187 207.074 107.581 208.285L101.548 202.97C98.4081 203.688 93.4513 200.727 91.8813 195.366C89.9017 188.163 88.2848 180.864 87.0367 173.498C84.5022 160.804 88.1357 148.602 90.3113 136.177C91.029 131.691 93.2046 127.205 92.7336 121.441C91.9934 113.098 100.225 107.984 107.088 104.395C116.643 99.4609 127.162 95.4238 138.017 97.0386C146.72 98.3619 154.929 102.466 163.272 105.741C163.99 105.965 164.483 109.128 163.878 109.845C160.962 113.098 161.455 115.879 162.667 119.737C163.743 123.011 165.919 126.869 163.138 130.727C162.831 131.277 162.652 131.889 162.613 132.518C162.574 133.147 162.677 133.776 162.913 134.36C166.883 141.246 162.532 148.49 163.99 155.376C164.595 158.045 162.913 162.62 167.377 162.262C169.418 158.763 170.517 155.017 172.939 153.29C174.545 152.12 175.883 150.621 176.861 148.891C177.84 147.162 178.437 145.244 178.613 143.264C178.613 142.524 179.443 141.919 179.937 141.201C182.83 145.305 182.359 158.583 178.972 161.006C177.402 161.97 174.868 161.499 172.804 161.611C173.522 169.82 174.509 178.522 175.047 187.337C175.541 193.146 176.617 198.551 182.673 200.996C169.866 224.187 121.196 243.611 91.8364 211.739C94.2587 210.192 96.6811 208.801 99.5519 207.231ZM43.166 414.742H45.0949V434.794C41.9549 427.415 43.7716 421.022 43.166 414.742ZM64.5406 600.453C63.3295 591.279 61.7594 582.218 60.1894 572.686C78.7967 576.084 97.8019 576.734 116.598 574.615V647.935C108.03 646.118 99.5744 645.692 91.3654 648.899C90.6253 649.146 89.6609 648.652 88.831 648.406C84.121 647.441 79.3885 646.163 74.7009 645.647C71.5384 645.266 70.2151 644.66 69.7441 641.161C68.2862 627.367 66.4695 613.91 64.5406 600.453ZM120.613 652.039C119.155 660.248 118.93 668.704 116.127 676.195C113.592 683.08 105.608 684.538 98.9688 685.862C82.0575 689.248 65.1462 692.59 48.1228 695.394C43.1853 696.364 38.1186 696.485 33.1403 695.753C31.6247 695.317 30.2181 694.566 29.0123 693.55C27.8065 692.533 26.8286 691.274 26.1426 689.854C25.2725 687.975 25.097 685.849 25.6473 683.853C26.1976 681.857 27.4381 680.121 29.148 678.954C37.1327 673.279 45.0949 667.739 53.1917 662.154C57.6774 659.014 62.4996 656.009 66.9629 652.622C74.3196 646.948 80.5996 646.701 89.5487 653.093L76.6297 671.35C81.3398 672.315 82.6631 668.21 84.8387 666.035C87.1874 663.874 88.9013 661.113 89.7954 658.05C91.4776 649.841 97.7576 649.482 103.813 649.594C108.882 649.549 114.063 651.007 120.59 652.039H120.613ZM218.2 669.197C222.663 679.349 226.534 689.751 229.796 700.351C232.218 707.954 227.755 712.911 219.658 713.808C208.062 715.019 199.472 709.457 191.757 701.966C184.4 694.833 176.774 687.589 169.889 679.985C167.625 676.909 166.091 673.358 165.403 669.601C164.65 665.732 164.208 661.81 164.08 657.871C172.401 659.575 175.541 667.179 180.139 673.1C180.657 672.737 181.144 672.331 181.596 671.889C181.044 670.303 180.291 668.796 179.354 667.403C176.348 664.016 177.784 661.235 180.924 659.799C185.523 657.915 190.244 656.341 195.054 655.089C195.409 654.98 195.781 654.934 196.153 654.955C214.208 655.112 210.687 652.039 218.178 669.13L218.2 669.197ZM208.309 651.927C202.454 650.841 196.43 651.084 190.681 652.637C184.932 654.189 179.605 657.013 175.092 660.898C171.5 658.637 168.033 656.181 164.708 653.542C163.487 652.221 162.8 650.495 162.779 648.697C160.536 625.506 158.293 602.449 155.871 577.912C174.733 586.121 193.327 583.228 212.772 576.342C211.18 602.337 209.722 627.098 208.287 651.86L208.309 651.927ZM231.119 461.394C230.379 475.771 229.773 490.126 228.091 504.39C225.557 525.765 222.282 547.005 219.12 568.155C218.86 568.954 218.437 569.69 217.877 570.315C217.317 570.941 216.633 571.443 215.868 571.789C202.702 576.275 189.536 580.962 175.496 579.527C168.476 578.787 161.725 576.14 154.951 573.964C153.493 573.606 152.17 571.295 151.923 569.86C150.241 557.165 148.918 544.493 147.594 531.731C146.271 518.969 144.679 505.646 143.602 492.593C142.884 483.061 142.75 473.394 142.279 464.086C144.813 463.009 146.63 462.157 148.312 461.439C148.178 460.834 148.178 460.34 148.065 459.735H121.667C121.913 459.981 122.407 461.551 122.878 461.551C128.934 461.91 128.081 466.149 127.722 470.007C126.377 488.129 124.448 506.252 123.977 524.487C123.83 537.633 124.354 550.778 125.547 563.871C125.794 567.236 124.695 568.94 121.913 569.658C110.108 573.035 97.7471 574.019 85.5564 572.551C78.4465 571.587 71.3141 570.869 64.1818 570.017C61.1623 569.676 58.1663 569.151 55.2103 568.447C54.6116 568.195 54.0749 567.815 53.6373 567.335C53.1997 566.855 52.8717 566.285 52.6758 565.666C46.8892 536.082 42.6501 506.252 43.8613 475.951C44.3423 466.688 45.308 457.457 46.7546 448.296C47.0194 447.118 47.5352 446.012 48.2668 445.052C48.9984 444.092 49.9285 443.301 50.9936 442.734C62.3426 438.517 66.2004 429.702 66.6938 418.578C66.8284 417.008 68.6227 414.361 69.5871 414.473C86.7451 414.72 103.903 415.213 119.85 415.684C122.609 426.899 125.166 437.553 128.059 448.184C128.306 449.26 130.1 449.866 130.952 450.427C128.306 438.943 125.771 427.594 122.99 415.281C153.179 415.281 181.821 413.823 210.081 407.184C212.122 422.279 210.081 439.19 231.209 441.724C231.231 448.43 231.478 454.957 231.119 461.394ZM48.5938 439.526V412.051C53.0795 412.41 58.1484 412.903 62.9706 413.374C64.8995 428.267 59.9427 437.216 48.5938 439.504V439.526ZM231.837 437.597C224.705 438.562 218.066 434.704 216.608 428.626C215.284 423.086 214.926 417.277 214.073 411.602C213.356 407.386 215.643 406.04 219.165 405.435C222.686 404.829 227.015 403.999 231.837 403.035V437.597ZM267.588 286.45C261.555 293.806 254.916 300.827 248.501 307.937C245.361 311.435 242.221 314.957 239.081 318.568C236.839 321.102 234.977 320.99 232.801 317.962C223.493 305.761 215.06 292.977 211.539 277.86C209.55 270 209.233 261.811 210.609 253.821C211.984 245.831 215.021 238.219 219.523 231.477C220.488 229.907 221.564 228.337 222.663 226.767C222.17 226.296 221.564 225.937 221.093 225.556C218.455 229.043 216.071 232.716 213.961 236.546C204.294 256.844 205.393 276.918 216.002 296.475C217.567 300.019 219.515 303.381 221.811 306.501C227.374 312.781 228.338 319.958 227.486 327.741C225.804 342.365 229.549 356.383 231.231 370.625C232.196 378.834 233.048 387.065 234.259 395.162C234.618 398.168 233.654 399.872 230.76 400.478C216.137 403.124 201.603 406.758 186.912 408.328C168.543 410.369 149.949 411.58 131.334 411.827C109.353 412.186 87.261 411.468 65.1462 410.616C56.9369 410.052 48.7805 408.883 40.7437 407.117C39.7165 406.666 38.8155 405.97 38.1195 405.09C37.4235 404.211 36.9537 403.174 36.7514 402.07C37.3569 386.841 37.1102 371.388 39.6447 356.517C42.4259 339.494 47.9658 323.054 51.9581 306.277C52.6313 302.524 52.6313 298.681 51.9581 294.928C50.5226 283.713 45.4537 273.06 48.8405 261.285H46.5976C46.0863 266.104 45.8765 270.951 45.9696 275.796C46.5286 281.179 47.5034 286.511 48.8853 291.743C50.0733 295.732 50.3818 299.932 49.7893 304.052C49.1969 308.172 47.7176 312.114 45.4537 315.607C38.3214 313.05 30.718 310.404 23.2268 307.757C22.4433 307.574 21.7047 307.236 21.055 306.761C20.4053 306.286 19.8579 305.686 19.4455 304.995C19.0331 304.304 18.7642 303.537 18.6547 302.74C18.5452 301.943 18.5975 301.132 18.8083 300.356C21.5895 284.409 24.2585 268.462 31.7498 253.614C38.9159 239.571 50.993 228.651 65.6845 222.931C71.9646 220.285 78.2446 217.616 84.4125 214.723C85.5635 213.941 86.9609 213.607 88.3409 213.785C89.721 213.962 90.9883 214.639 91.9037 215.687C102.535 225.825 114.848 231.634 129.831 231.14C131.042 231.028 132.971 233.383 133.442 234.774C134.063 236.959 134.305 239.235 134.16 241.502C134.693 241.484 135.227 241.522 135.752 241.615C135.955 239.082 135.91 236.535 135.617 234.011C135.012 230.871 136.223 230.378 138.757 230.153C147.888 229.148 156.709 226.256 164.663 221.662C172.616 217.067 179.528 210.87 184.961 203.463C198.979 208.42 212.862 213.489 227.015 217.952C237.758 221.339 244.532 229.167 249.443 238.138C256.688 251.281 262.609 265.187 268.665 278.824C269.063 280.095 269.173 281.439 268.987 282.758C268.8 284.077 268.323 285.338 267.588 286.45ZM335.48 412.903C335.121 389.106 347.794 373.653 367.957 373.541C384.263 373.541 398.528 388.635 398.034 407.184C398.169 427.37 386.438 440.625 365.311 441.478C353.356 441.926 335.592 424.656 335.48 412.926V412.903ZM384.039 455.518C376.906 461.439 365.557 463.48 359.501 453.701C360.847 450.673 361.924 447.915 363.247 444.73L373.026 443.025C376.301 442.554 379.441 441.814 382.581 441.343C383.915 443.736 384.933 446.292 385.609 448.946C385.827 450.08 385.8 451.247 385.529 452.369C385.258 453.491 384.75 454.542 384.039 455.451V455.518ZM313.859 483.599C305.403 483.464 296.948 480.077 288.604 478.036C290.533 472.609 292.103 468.123 293.92 462.583C302.263 464.512 310.966 470.433 320.61 466.329C329.312 462.448 337.88 458.344 346.829 454.24C349.252 461.843 349.835 468.729 347.435 475.502C346.39 477.844 344.861 479.939 342.949 481.648C342.343 482.253 340.706 482.029 339.674 482.141C339.674 481.177 339.674 480.078 339.674 478.754C330.995 480.459 322.427 483.599 313.859 483.599ZM364.458 682.295C357.063 686.465 349.398 690.137 341.514 693.286C340.056 694.003 337.768 692.792 335.705 692.433C335.967 690.559 336.496 688.731 337.275 687.006C339.234 684.134 341.377 681.392 343.689 678.797C355.15 685.66 361.43 676.845 368.361 670.453C369.265 672.563 369.368 674.932 368.649 677.112C367.931 679.293 366.44 681.136 364.458 682.295ZM345.259 600.161H366.275C366.387 601.238 366.634 601.843 366.634 602.561C366.993 622.859 367.486 643.157 367.733 663.455C367.733 669.601 355.397 679.38 349.61 677.944C347.188 677.451 345.73 676.621 346.47 673.234C347.334 668.804 347.658 664.285 347.435 659.777C346.829 639.883 345.977 619.831 345.259 600.161ZM419.274 671.171C423.379 676.015 427.371 680.344 430.735 685.077C431.834 686.512 432.687 689.562 431.834 690.751C431.087 691.747 430.144 692.58 429.065 693.201C427.985 693.822 426.791 694.217 425.554 694.362C416.74 694.497 410.819 688.576 405.009 683.013C401.017 679.155 396.688 675.051 397.294 668.031C401.398 670.924 404.651 674.311 408.755 675.769C412.86 677.227 417.614 677.81 419.184 671.171H419.274ZM414.923 664.442C415.289 667.162 415.409 669.91 415.282 672.651C412.389 672.292 408.89 672.786 406.579 671.328C398.483 666.259 395.724 658.521 395.365 648.899C394.984 634.275 393.548 619.742 392.584 605.297C392.405 604.225 392.119 603.173 391.732 602.157C398.258 600.565 404.538 598.995 411.29 597.447C411.29 607.226 411.29 617.633 411.29 627.883C411.424 637.303 411.536 646.836 412.142 656.256C412.164 659.216 414.228 661.751 414.833 664.532L414.923 664.442ZM405.75 485.55C406.333 495.105 405.615 504.637 405.75 514.304C405.702 518.712 406.025 523.116 406.714 527.47C409.114 540.635 411.895 553.689 414.43 566.854C415.282 571.565 415.394 576.275 416.246 580.985C416.666 582.775 416.544 584.649 415.897 586.37C415.251 588.091 414.107 589.581 412.613 590.651C406.826 595.586 400.434 598.86 392.427 597.537C390.133 597.412 387.835 597.412 385.541 597.537C384.711 587.265 383.859 577.104 383.007 566.967C374.686 566.361 373.34 567.572 373.34 575.176C373.34 580.132 373.34 584.955 373.34 589.911C373.093 594.15 371.523 596.797 366.611 596.64C360.937 596.281 355.262 596.64 349.7 596.528C342.209 596.281 339.316 593.993 339.316 586.614C338.959 574.155 339.447 561.686 340.773 549.293C343.42 529.982 343.913 510.895 339.562 491.808C338.71 488.309 338.957 486.133 343.308 484.922C349.095 483.464 352.279 475.951 352.01 467.405C351.764 462.807 351.158 458.434 350.552 452.423C353.334 453.634 355.621 453.993 357.079 455.451C361.789 459.936 366.387 464.422 373.99 463.054C376.031 477.319 374.708 491.561 377.736 505.332L379.979 505.086C379.127 491.09 378.409 476.937 377.557 464.018C382.76 459.667 387.47 455.697 392.898 450.987C399.627 452.064 401.735 452.064 402.453 463.413C402.744 470.904 405.166 478.149 405.66 485.64L405.75 485.55ZM413.6 457.178C413.181 455.762 412.933 454.301 412.86 452.827C413.106 446.098 410.819 440.737 404.763 435.31C406.714 441.836 408.396 447.152 410.078 452.333L408.284 453.073C405.009 446.771 401.757 440.491 398.371 434.098C399.47 430.958 401.398 430.712 404.292 432.282C411.783 436.162 416.134 445.739 415.17 456.572C414.605 456.736 414.062 456.97 413.555 457.267L413.6 457.178Z" fill="black"/>
<path d="M34.8769 485.686C32.8583 485.462 30.3911 485.865 28.8884 484.878C24.8064 482.209 23.0345 466.554 26.0848 462.046L27.7221 473.933C28.395 478.621 28.7763 483.488 35.5498 483.914L34.8769 485.686Z" fill="black"/>
<path d="M24.4345 489.656C22.6177 489.14 20.33 489.118 19.074 487.974C14.5882 483.869 13.7135 468.102 17.5264 462.158C19.5226 471.13 13.4444 482.344 24.6139 488.288C24.6139 488.736 24.5017 489.207 24.4345 489.656V489.656Z" fill="black"/>
<path d="M119.405 146.561L110.231 167.577C112.623 167.753 115.003 168.053 117.364 168.474C122.679 169.707 132.369 166.792 134.522 163.181C136.159 167.307 132.84 170.851 127.793 170.627C126.089 170.627 124.339 171.457 122.635 171.345C118.126 171.081 113.634 170.579 109.177 169.842C108.594 169.842 107.832 167.464 108.056 166.365C108.554 164.17 109.307 162.039 110.299 160.018C112.542 155.218 115.076 150.486 117.454 145.708L119.293 146.471L119.405 146.561Z" fill="black"/>
<path d="M133.38 135.079C135.109 133.314 137.08 131.803 139.234 130.593C141.95 129.453 144.936 129.116 147.838 129.621C150.739 130.126 153.436 131.452 155.607 133.442L134.703 136.537L133.38 134.967V135.079Z" fill="black"/>
<path d="M93.6837 137.12C97.2947 131.064 106.266 128.283 111.627 131.513C112.017 131.794 112.344 132.156 112.583 132.574C112.823 132.992 112.971 133.456 113.017 133.935C112.921 134.328 112.729 134.691 112.459 134.992C112.189 135.293 111.849 135.523 111.47 135.662C106.087 136.649 100.659 137.501 95.2313 138.286C94.7827 138.286 94.1771 137.546 93.6613 137.165L93.6837 137.12Z" fill="black"/>
<path d="M109.854 183.279C119.611 187.249 128.806 186.105 138.384 179.443C134.032 189.402 116.897 191.331 109.854 183.279Z" fill="black"/>
<path d="M357.874 422.975H376.714C374.606 428.111 363.257 428.784 357.874 422.975Z" fill="black"/>
<path d="M343.026 395.632C345.269 394.443 347.512 392.559 349.755 392.223C353.03 391.752 356.91 391.303 358.547 396.417C356.175 395.58 353.7 395.067 351.19 394.892C348.726 395.356 346.335 396.148 344.08 397.247L342.959 395.632H343.026Z" fill="black"/>
<path d="M390.277 397.36L377.044 396.283C378.48 393.143 381.037 392.694 384.222 393.031C387.406 393.367 389.672 393.861 390.277 397.36V397.36Z" fill="black"/>
<path d="M362.856 416.738C363.529 414.495 363.574 412.252 364.695 411.422C366.608 410.563 368.659 410.054 370.751 409.919L371.132 411.377L362.856 416.738V416.738Z" fill="black"/>
<path d="M34.1172 682.094C35.4629 681.735 36.3601 681.242 36.6292 681.466C44.1428 687.298 50.8491 682.072 57.5553 679.717C62.0247 677.772 66.3561 675.524 70.5191 672.988C68.6575 678.416 53.6302 686.154 45.1297 686.804C40.9355 687.118 37.0778 686.468 34.1172 682.05V682.094Z" fill="black"/>
<path d="M224.113 699.25C222.632 700.327 221.309 701.964 219.627 702.39C213.751 703.916 208.031 703.781 202.828 699.856C196.548 695.124 190.043 690.638 186.769 683.034C186.511 682.416 186.331 681.768 186.23 681.105C186.23 680.859 186.522 680.545 186.858 679.962C196.772 690.727 204.802 705.172 223.754 697.905L224.09 699.295L224.113 699.25Z" fill="black"/>
<path d="M104.026 148.177C103.999 148.82 103.782 149.44 103.403 149.959C103.023 150.478 102.499 150.873 101.895 151.094C101.291 151.315 100.635 151.352 100.01 151.2C99.3855 151.049 98.8196 150.716 98.3841 150.243C97.9486 149.769 97.6632 149.178 97.5638 148.543C97.4644 147.907 97.5555 147.257 97.8257 146.673C98.0958 146.09 98.5329 145.6 99.0816 145.265C99.6303 144.929 100.266 144.764 100.909 144.79C101.337 144.805 101.758 144.904 102.147 145.083C102.536 145.261 102.886 145.516 103.177 145.831C103.467 146.146 103.691 146.516 103.837 146.919C103.983 147.321 104.047 147.749 104.026 148.177V148.177Z" fill="black"/>
<path d="M149.965 148.04C149.965 148.684 149.774 149.312 149.417 149.847C149.059 150.382 148.552 150.799 147.957 151.045C147.363 151.291 146.709 151.356 146.078 151.23C145.447 151.105 144.868 150.795 144.413 150.34C143.958 149.885 143.649 149.306 143.523 148.675C143.398 148.044 143.462 147.39 143.708 146.796C143.954 146.202 144.371 145.694 144.906 145.336C145.441 144.979 146.07 144.788 146.713 144.788C147.575 144.788 148.402 145.131 149.012 145.741C149.622 146.351 149.965 147.178 149.965 148.04V148.04Z" fill="black"/>
<path d="M357.103 404.404C357.089 404.83 356.99 405.249 356.813 405.637C356.636 406.025 356.383 406.374 356.071 406.663C355.758 406.953 355.391 407.178 354.991 407.326C354.59 407.473 354.165 407.539 353.739 407.521C353.095 407.499 352.473 407.285 351.951 406.909C351.429 406.532 351.03 406.008 350.805 405.405C350.581 404.801 350.541 404.145 350.69 403.518C350.839 402.892 351.171 402.324 351.643 401.886C352.116 401.448 352.707 401.16 353.343 401.059C353.979 400.958 354.631 401.048 355.216 401.318C355.8 401.588 356.292 402.025 356.628 402.574C356.964 403.124 357.129 403.76 357.103 404.404V404.404Z" fill="black"/>
<path d="M385.995 404.269C385.995 404.912 385.804 405.541 385.447 406.075C385.089 406.61 384.581 407.027 383.987 407.273C383.393 407.519 382.739 407.584 382.108 407.458C381.477 407.333 380.898 407.023 380.443 406.568C379.988 406.113 379.678 405.534 379.553 404.903C379.427 404.272 379.492 403.618 379.738 403.024C379.984 402.43 380.401 401.922 380.936 401.564C381.47 401.207 382.099 401.016 382.742 401.016C383.605 401.016 384.432 401.359 385.042 401.969C385.652 402.579 385.995 403.406 385.995 404.269V404.269Z" fill="black"/>
<mask id="path-20-inside-1_1586_7102" fill="white">
<path fill-rule="evenodd" clip-rule="evenodd" d="M284.809 94.0061C340.485 94.0061 385.618 72.9621 385.618 47.0031C385.618 21.044 340.485 0 284.809 0C229.134 0 184 21.044 184 47.0031C184 58.4878 192.834 69.0105 207.507 77.1745L208.008 87.434C208.159 90.5095 211.582 92.2691 214.17 90.6011L223.771 84.4142C240.714 90.4326 261.866 94.0061 284.809 94.0061Z"/>
</mask>
<path d="M207.507 77.1745L209.505 77.0769L209.45 75.967L208.479 75.4268L207.507 77.1745ZM208.008 87.434L206.011 87.5316V87.5316L208.008 87.434ZM214.17 90.6011L215.254 92.2823L214.17 90.6011ZM223.771 84.4142L224.441 82.5296L223.515 82.2005L222.688 82.733L223.771 84.4142ZM383.618 47.0031C383.618 58.7431 373.333 69.9937 355.247 78.4266C337.324 86.7835 312.422 92.0061 284.809 92.0061V96.0061C312.872 96.0061 338.375 90.7068 356.937 82.0519C375.337 73.473 387.618 61.2221 387.618 47.0031H383.618ZM284.809 2C312.422 2 337.324 7.22267 355.247 15.5795C373.333 24.0124 383.618 35.2631 383.618 47.0031H387.618C387.618 32.784 375.337 20.5331 356.937 11.9542C338.375 3.29933 312.872 -2 284.809 -2V2ZM186 47.0031C186 35.2631 196.285 24.0124 214.371 15.5795C232.295 7.22267 257.196 2 284.809 2V-2C256.747 -2 231.244 3.29933 212.681 11.9542C194.282 20.5331 182 32.784 182 47.0031H186ZM208.479 75.4268C194.019 67.3808 186 57.3817 186 47.0031H182C182 59.5939 191.65 70.6402 206.535 78.9222L208.479 75.4268ZM210.006 87.3364L209.505 77.0769L205.509 77.2721L206.011 87.5316L210.006 87.3364ZM213.087 88.92C211.793 89.7539 210.081 88.8741 210.006 87.3364L206.011 87.5316C206.236 92.1449 211.371 94.7842 215.254 92.2823L213.087 88.92ZM222.688 82.733L213.087 88.92L215.254 92.2823L224.855 86.0954L222.688 82.733ZM284.809 92.0061C262.061 92.0061 241.139 88.4613 224.441 82.5296L223.102 86.2988C240.288 92.4039 261.671 96.0061 284.809 96.0061V92.0061Z" fill="black" mask="url(#path-20-inside-1_1586_7102)"/>
<path d="M213.332 50.5234C213.332 50.2591 213.346 50.0039 213.373 49.7578C213.401 49.5026 213.414 49.2428 213.414 48.9785V48.8281C213.405 48.7917 213.396 48.7188 213.387 48.6094C213.378 48.4909 213.369 48.3724 213.36 48.2539C213.351 48.1263 213.341 48.0078 213.332 47.8984C213.323 47.7891 213.319 47.7116 213.319 47.666V47.4883C213.319 47.4062 213.319 47.2786 213.319 47.1055C213.319 46.9232 213.314 46.7363 213.305 46.5449C213.305 46.3535 213.3 46.1758 213.291 46.0117C213.291 45.8477 213.291 45.7383 213.291 45.6836C213.291 45.6198 213.287 45.5059 213.278 45.3418C213.269 45.1686 213.255 44.9863 213.237 44.7949C213.227 44.6035 213.214 44.4212 213.196 44.248C213.186 44.0658 213.182 43.9382 213.182 43.8652C213.173 43.8014 213.159 43.7285 213.141 43.6465C213.123 43.5645 213.1 43.4824 213.073 43.4004C213.045 43.3184 213.004 43.25 212.949 43.1953C212.904 43.1315 212.84 43.0951 212.758 43.0859C212.722 43.0859 212.658 43.0859 212.567 43.0859C212.476 43.0768 212.38 43.0723 212.28 43.0723C212.179 43.0632 212.084 43.0586 211.992 43.0586C211.91 43.0495 211.856 43.0449 211.828 43.0449C211.819 43.0449 211.792 43.0495 211.746 43.0586C211.701 43.0586 211.651 43.0632 211.596 43.0723C211.55 43.0723 211.5 43.0768 211.446 43.0859C211.4 43.0859 211.373 43.0859 211.364 43.0859H211.323C211.113 43.0859 211.008 42.972 211.008 42.7441V40.6934L211.063 40.6387C211.063 40.6387 211.14 40.6387 211.295 40.6387C211.459 40.6296 211.669 40.6204 211.924 40.6113C212.179 40.6022 212.466 40.5931 212.785 40.584C213.114 40.5749 213.442 40.5703 213.77 40.5703C214.098 40.5612 214.412 40.5521 214.713 40.543C215.023 40.5339 215.287 40.5247 215.506 40.5156H216.504H217.502C217.575 40.543 217.625 40.6387 217.653 40.8027C217.689 40.9577 217.712 41.1309 217.721 41.3223C217.739 41.5137 217.748 41.7005 217.748 41.8828C217.748 42.056 217.748 42.1745 217.748 42.2383C217.748 42.293 217.748 42.3613 217.748 42.4434C217.748 42.5163 217.739 42.5892 217.721 42.6621C217.712 42.735 217.685 42.7988 217.639 42.8535C217.593 42.8991 217.53 42.9219 217.448 42.9219C217.402 42.9219 217.324 42.9264 217.215 42.9355C217.115 42.9447 217.005 42.9538 216.887 42.9629C216.769 42.9629 216.655 42.9674 216.545 42.9766C216.445 42.9857 216.372 42.9902 216.326 42.9902C216.299 42.9902 216.231 42.9948 216.121 43.0039C216.021 43.013 215.957 43.0267 215.93 43.0449C215.921 43.0449 215.898 43.054 215.862 43.0723C215.834 43.0814 215.816 43.0859 215.807 43.0859C215.807 43.1406 215.807 43.2318 215.807 43.3594C215.807 43.487 215.802 43.6191 215.793 43.7559C215.793 43.8926 215.793 44.0247 215.793 44.1523C215.793 44.2799 215.793 44.3711 215.793 44.4258C215.793 45.4102 215.834 46.39 215.916 47.3652C216.007 48.3405 216.053 49.3249 216.053 50.3184V51.1797C216.053 51.2344 216.048 51.3027 216.039 51.3848C216.03 51.4668 216.021 51.5488 216.012 51.6309C216.012 51.7129 216.007 51.7858 215.998 51.8496C215.989 51.9043 215.985 51.9316 215.985 51.9316L215.93 52C215.93 52 215.875 52 215.766 52C215.666 52.0091 215.543 52.0137 215.397 52.0137C215.26 52.0228 215.114 52.0319 214.959 52.041C214.804 52.0501 214.677 52.0547 214.576 52.0547H213.934H213.537L213.414 51.9316C213.405 51.9316 213.396 51.8952 213.387 51.8223C213.387 51.7493 213.382 51.6628 213.373 51.5625C213.373 51.4622 213.369 51.362 213.36 51.2617C213.36 51.1523 213.36 51.0658 213.36 51.002C213.36 50.9928 213.355 50.929 213.346 50.8105C213.337 50.6829 213.332 50.5872 213.332 50.5234ZM220.372 45.6289C220.372 45.4193 220.377 45.2188 220.386 45.0273C220.395 44.8359 220.431 44.64 220.495 44.4395C220.614 44.0293 220.796 43.6419 221.042 43.2773C221.297 42.9036 221.566 42.5482 221.849 42.2109C221.976 42.0651 222.109 41.9421 222.245 41.8418C222.382 41.7415 222.541 41.6322 222.724 41.5137C223.116 41.2493 223.535 41.0306 223.982 40.8574C224.437 40.6751 224.911 40.584 225.403 40.584C225.914 40.584 226.406 40.625 226.88 40.707C227.354 40.7891 227.819 40.9622 228.275 41.2266C228.293 41.2357 228.338 41.2721 228.411 41.3359C228.493 41.3997 228.543 41.4408 228.562 41.459C228.853 41.6686 229.14 41.8691 229.423 42.0605C229.715 42.252 229.979 42.4798 230.216 42.7441C230.216 42.7533 230.234 42.7806 230.271 42.8262C230.307 42.8626 230.344 42.9082 230.38 42.9629C230.426 43.0176 230.471 43.0768 230.517 43.1406C230.562 43.1953 230.594 43.2363 230.612 43.2637C230.622 43.2819 230.64 43.3138 230.667 43.3594C230.704 43.4049 230.726 43.4323 230.736 43.4414C230.745 43.4505 230.772 43.4824 230.818 43.5371C230.872 43.5827 230.904 43.6146 230.913 43.6328C230.922 43.6419 230.922 43.6829 230.913 43.7559C230.913 43.8197 230.913 43.8561 230.913 43.8652C230.913 43.8835 230.931 43.9427 230.968 44.043C231.004 44.1341 231.027 44.1888 231.036 44.207C231.036 44.2161 231.041 44.2435 231.05 44.2891C231.059 44.3255 231.068 44.3665 231.077 44.4121C231.096 44.4577 231.109 44.5033 231.118 44.5488C231.137 44.5853 231.146 44.6081 231.146 44.6172C231.155 44.6354 231.173 44.6764 231.2 44.7402C231.237 44.804 231.255 44.8451 231.255 44.8633V45.1367C231.255 45.1549 231.255 45.1868 231.255 45.2324C231.264 45.2689 231.273 45.3099 231.282 45.3555C231.291 45.401 231.296 45.4466 231.296 45.4922C231.305 45.5286 231.31 45.5514 231.31 45.5605C231.31 45.5697 231.31 45.6107 231.31 45.6836C231.319 45.7474 231.323 45.8249 231.323 45.916C231.323 45.998 231.323 46.0846 231.323 46.1758C231.333 46.2578 231.337 46.3262 231.337 46.3809C231.337 46.7454 231.323 47.1419 231.296 47.5703C231.269 47.9987 231.182 48.377 231.036 48.7051C231.018 48.7324 230.995 48.7734 230.968 48.8281C230.941 48.8828 230.913 48.9421 230.886 49.0059C230.859 49.0697 230.827 49.1289 230.79 49.1836C230.763 49.2383 230.745 49.2793 230.736 49.3066C230.726 49.3249 230.704 49.3568 230.667 49.4023C230.64 49.4388 230.622 49.4661 230.612 49.4844C230.403 49.7396 230.175 49.9902 229.929 50.2363C229.692 50.4824 229.455 50.7194 229.218 50.9473C229.063 51.0931 228.881 51.2207 228.671 51.3301C228.461 51.4395 228.27 51.5443 228.097 51.6445C227.814 51.7995 227.482 51.8997 227.099 51.9453C226.725 51.9818 226.388 52 226.087 52C225.504 52 224.948 51.9316 224.419 51.7949C223.89 51.6582 223.385 51.4349 222.902 51.125C222.865 51.1068 222.815 51.0794 222.751 51.043C222.696 51.0065 222.642 50.9701 222.587 50.9336C222.532 50.888 222.482 50.8516 222.437 50.8242C222.4 50.7969 222.377 50.7786 222.368 50.7695C222.359 50.7695 222.309 50.7331 222.218 50.6602C222.136 50.5781 222.036 50.4824 221.917 50.373C221.799 50.2637 221.676 50.1543 221.548 50.0449C221.43 49.9355 221.329 49.8444 221.247 49.7715C221.256 49.7715 221.247 49.7578 221.22 49.7305L221.193 49.7031C221.183 49.6849 221.165 49.6302 221.138 49.5391C221.111 49.4388 221.092 49.3796 221.083 49.3613C220.974 49.097 220.864 48.8464 220.755 48.6094C220.646 48.3724 220.559 48.1126 220.495 47.8301C220.486 47.821 220.482 47.7845 220.482 47.7207C220.491 47.6569 220.495 47.6204 220.495 47.6113C220.459 47.2741 220.427 46.946 220.4 46.627C220.381 46.2988 220.372 45.9661 220.372 45.6289ZM222.902 47.2012C222.911 47.2194 222.929 47.2513 222.956 47.2969C222.984 47.3333 222.997 47.3607 222.997 47.3789C223.015 47.388 223.029 47.4199 223.038 47.4746C223.047 47.5202 223.056 47.5475 223.066 47.5566C223.075 47.5749 223.093 47.6204 223.12 47.6934C223.157 47.7663 223.193 47.8483 223.23 47.9395C223.266 48.0215 223.303 48.1035 223.339 48.1855C223.375 48.2676 223.403 48.3268 223.421 48.3633C223.549 48.6641 223.694 48.901 223.859 49.0742C224.023 49.2474 224.205 49.375 224.405 49.457C224.615 49.5391 224.843 49.5938 225.089 49.6211C225.344 49.6393 225.622 49.6484 225.923 49.6484C226.452 49.6484 226.93 49.5664 227.359 49.4023C227.796 49.2292 228.183 48.9238 228.521 48.4863C228.53 48.4681 228.548 48.4362 228.575 48.3906C228.603 48.3451 228.616 48.3177 228.616 48.3086C228.726 48.026 228.785 47.7435 228.794 47.4609C228.803 47.1693 228.808 46.873 228.808 46.5723C228.808 46.5449 228.808 46.4948 228.808 46.4219C228.808 46.349 228.803 46.2715 228.794 46.1895C228.794 46.1074 228.794 46.0299 228.794 45.957C228.794 45.875 228.794 45.8203 228.794 45.793C228.776 45.6836 228.744 45.5286 228.698 45.3281C228.653 45.1276 228.594 44.9225 228.521 44.7129C228.448 44.4941 228.366 44.2936 228.275 44.1113C228.183 43.929 228.088 43.806 227.987 43.7422C227.978 43.7422 227.946 43.7376 227.892 43.7285C227.837 43.7103 227.81 43.6966 227.81 43.6875C227.801 43.6784 227.782 43.651 227.755 43.6055C227.728 43.5508 227.705 43.5189 227.687 43.5098C227.678 43.4915 227.659 43.4688 227.632 43.4414C227.605 43.4049 227.582 43.3867 227.564 43.3867C227.308 43.2318 227.026 43.1178 226.716 43.0449C226.415 42.9629 226.114 42.9219 225.814 42.9219C225.403 42.9219 225.016 42.9811 224.652 43.0996C224.287 43.2181 223.963 43.3958 223.681 43.6328C223.407 43.8607 223.189 44.1432 223.025 44.4805C222.861 44.8177 222.778 45.2051 222.778 45.6426C222.778 45.8978 222.792 46.1576 222.819 46.4219C222.847 46.6771 222.874 46.9368 222.902 47.2012ZM234.891 52.2461C234.882 52.1276 234.872 51.9453 234.863 51.6992C234.854 51.444 234.841 51.1615 234.822 50.8516C234.813 50.5417 234.8 50.2181 234.781 49.8809C234.772 49.5345 234.763 49.2064 234.754 48.8965C234.745 48.5866 234.736 48.3086 234.727 48.0625C234.717 47.8073 234.713 47.6204 234.713 47.502C234.713 47.4746 234.713 47.3607 234.713 47.1602C234.713 46.9596 234.708 46.7318 234.699 46.4766C234.699 46.2214 234.699 45.9661 234.699 45.7109C234.699 45.4557 234.699 45.2552 234.699 45.1094C234.699 45.0182 234.699 44.8587 234.699 44.6309C234.699 44.403 234.699 44.1615 234.699 43.9062C234.708 43.651 234.713 43.4095 234.713 43.1816C234.713 42.9538 234.713 42.7943 234.713 42.7031C234.722 42.6667 234.731 42.5892 234.74 42.4707C234.759 42.3522 234.768 42.2747 234.768 42.2383C234.768 42.1836 234.768 42.0924 234.768 41.9648C234.777 41.8281 234.781 41.6868 234.781 41.541C234.781 41.3861 234.777 41.2448 234.768 41.1172C234.768 40.9805 234.768 40.8848 234.768 40.8301C234.859 40.7936 234.932 40.7754 234.986 40.7754C235.041 40.7663 235.109 40.7617 235.191 40.7617H235.41C235.474 40.7708 235.588 40.7799 235.752 40.7891C235.916 40.7891 236.085 40.7936 236.258 40.8027C236.44 40.8118 236.609 40.821 236.764 40.8301C236.928 40.8301 237.042 40.8301 237.106 40.8301C237.224 40.9303 237.333 41.0579 237.434 41.2129C237.543 41.3587 237.639 41.5182 237.721 41.6914C237.812 41.8555 237.898 42.0241 237.981 42.1973C238.063 42.3613 238.145 42.5072 238.227 42.6348C238.236 42.6621 238.268 42.7214 238.322 42.8125C238.377 42.8945 238.432 42.9857 238.486 43.0859C238.55 43.1771 238.605 43.2682 238.65 43.3594C238.705 43.4414 238.742 43.4915 238.76 43.5098C238.769 43.528 238.787 43.569 238.814 43.6328C238.851 43.6966 238.887 43.7695 238.924 43.8516C238.96 43.9245 238.992 43.9928 239.02 44.0566C239.056 44.1204 239.083 44.1569 239.102 44.166L239.389 44.4531C239.398 44.4714 239.416 44.5124 239.443 44.5762C239.471 44.64 239.494 44.6764 239.512 44.6855C239.521 44.7038 239.544 44.7402 239.58 44.7949C239.617 44.8405 239.658 44.8952 239.703 44.959C239.758 45.0137 239.803 45.0684 239.84 45.123C239.885 45.1686 239.913 45.196 239.922 45.2051C239.94 45.2233 239.958 45.2552 239.977 45.3008C240.004 45.3464 240.022 45.3737 240.031 45.3828C240.04 45.401 240.063 45.4466 240.1 45.5195C240.145 45.5924 240.191 45.6699 240.236 45.752C240.291 45.834 240.337 45.9115 240.373 45.9844C240.41 46.0482 240.437 46.0892 240.455 46.1074C240.464 46.1165 240.492 46.153 240.537 46.2168C240.583 46.2715 240.615 46.3079 240.633 46.3262C240.678 46.3809 240.715 46.4128 240.742 46.4219C240.779 46.431 240.815 46.4583 240.852 46.5039C240.87 46.5221 240.902 46.5723 240.947 46.6543C240.993 46.7363 241.02 46.7865 241.029 46.8047C241.038 46.8138 241.075 46.8503 241.139 46.9141C241.203 46.9779 241.244 47.0143 241.262 47.0234C241.271 47.0417 241.294 47.0736 241.33 47.1191C241.367 47.1647 241.403 47.2148 241.439 47.2695C241.485 47.3151 241.526 47.3652 241.563 47.4199C241.599 47.4655 241.622 47.4928 241.631 47.502C241.64 47.5111 241.654 47.5339 241.672 47.5703C241.699 47.5977 241.717 47.6159 241.727 47.625C241.745 47.5885 241.759 47.5111 241.768 47.3926C241.777 47.2741 241.786 47.1921 241.795 47.1465V46.9824C241.795 46.6361 241.777 46.2943 241.74 45.957C241.713 45.6107 241.676 45.2689 241.631 44.9316V41.0625C241.631 41.0352 241.635 40.9941 241.645 40.9395C241.663 40.8848 241.69 40.8483 241.727 40.8301C241.754 40.8301 241.795 40.8301 241.85 40.8301C241.904 40.8301 241.964 40.8301 242.027 40.8301C242.091 40.821 242.15 40.8164 242.205 40.8164C242.26 40.8164 242.301 40.8164 242.328 40.8164C242.365 40.8164 242.41 40.8164 242.465 40.8164C242.529 40.8164 242.588 40.821 242.643 40.8301C242.706 40.8301 242.761 40.8301 242.807 40.8301C242.861 40.8301 242.893 40.8301 242.902 40.8301C242.939 40.8301 242.998 40.8346 243.08 40.8438C243.171 40.8438 243.267 40.8483 243.367 40.8574C243.477 40.8574 243.572 40.862 243.654 40.8711C243.745 40.8802 243.809 40.8848 243.846 40.8848C243.91 40.9303 243.96 40.985 243.996 41.0488C244.033 41.1126 244.06 41.1855 244.078 41.2676C244.096 41.3405 244.106 41.418 244.106 41.5C244.115 41.5729 244.124 41.6413 244.133 41.7051C244.142 41.8418 244.151 42.0423 244.16 42.3066C244.178 42.571 244.192 42.8444 244.201 43.127C244.219 43.4095 244.233 43.6647 244.242 43.8926C244.251 44.1204 244.256 44.2663 244.256 44.3301C244.256 44.4395 244.256 44.6081 244.256 44.8359C244.265 45.0638 244.27 45.319 244.27 45.6016C244.27 45.8841 244.27 46.1849 244.27 46.5039C244.27 46.8229 244.27 47.1237 244.27 47.4062C244.27 47.6888 244.265 47.944 244.256 48.1719C244.256 48.3997 244.256 48.5684 244.256 48.6777C244.292 48.9329 244.311 49.1608 244.311 49.3613C244.32 49.5618 244.324 49.7943 244.324 50.0586C244.324 50.1042 244.32 50.168 244.311 50.25C244.311 50.3229 244.311 50.3958 244.311 50.4688C244.311 50.5417 244.306 50.61 244.297 50.6738C244.297 50.7285 244.297 50.7604 244.297 50.7695C244.297 50.8151 244.292 50.8971 244.283 51.0156C244.283 51.1341 244.279 51.2617 244.27 51.3984C244.27 51.526 244.265 51.6491 244.256 51.7676C244.256 51.877 244.256 51.9544 244.256 52C244.201 52.0091 244.096 52.0182 243.941 52.0273C243.796 52.0456 243.636 52.0592 243.463 52.0684C243.29 52.0866 243.126 52.1003 242.971 52.1094C242.825 52.1185 242.725 52.123 242.67 52.123H242.287H241.904C241.813 52.0957 241.736 52.041 241.672 51.959C241.608 51.877 241.553 51.7995 241.508 51.7266C241.207 51.2344 240.906 50.7467 240.606 50.2637C240.305 49.7715 239.981 49.3021 239.635 48.8555C239.607 48.8281 239.557 48.7689 239.484 48.6777C239.411 48.5866 239.361 48.5273 239.334 48.5C239.316 48.4818 239.279 48.4408 239.225 48.377C239.17 48.3132 239.111 48.2493 239.047 48.1855C238.983 48.1126 238.919 48.0443 238.856 47.9805C238.801 47.9167 238.769 47.8757 238.76 47.8574C238.742 47.8392 238.71 47.7936 238.664 47.7207C238.619 47.6478 238.568 47.5703 238.514 47.4883C238.468 47.3971 238.418 47.3151 238.363 47.2422C238.318 47.1602 238.29 47.1055 238.281 47.0781C238.272 47.0599 238.236 47.0052 238.172 46.9141C238.108 46.8138 238.067 46.7546 238.049 46.7363C238.031 46.709 237.99 46.6452 237.926 46.5449C237.871 46.4355 237.812 46.3262 237.748 46.2168C237.684 46.0983 237.62 45.9889 237.557 45.8887C237.502 45.7793 237.47 45.7109 237.461 45.6836C237.452 45.6745 237.429 45.6471 237.393 45.6016C237.365 45.5469 237.347 45.515 237.338 45.5059C237.338 45.515 237.329 45.5469 237.311 45.6016C237.292 45.6471 237.283 45.6745 237.283 45.6836V45.7383V45.8066C237.311 46.4355 237.329 47.0599 237.338 47.6797C237.347 48.2995 237.37 48.9238 237.406 49.5527C237.406 49.571 237.406 49.6165 237.406 49.6895C237.415 49.7533 237.425 49.8262 237.434 49.9082C237.443 49.9811 237.447 50.054 237.447 50.127C237.456 50.1908 237.461 50.2318 237.461 50.25V51.7676C237.507 51.8587 237.529 51.959 237.529 52.0684C237.529 52.0866 237.525 52.0957 237.516 52.0957C237.516 52.1048 237.516 52.1185 237.516 52.1367V52.1777C237.516 52.1868 237.497 52.196 237.461 52.2051C237.434 52.2233 237.415 52.237 237.406 52.2461C237.188 52.2917 236.978 52.3099 236.777 52.3008C236.586 52.3008 236.376 52.3008 236.148 52.3008H235.287C235.26 52.3008 235.191 52.2917 235.082 52.2734C234.982 52.2643 234.918 52.2552 234.891 52.2461ZM247.768 51.7676C247.787 50.1178 247.782 48.4772 247.755 46.8457C247.727 45.2051 247.714 43.5508 247.714 41.8828V40.8848L247.768 40.8301H249.354C249.364 40.8301 249.4 40.8301 249.464 40.8301C249.528 40.821 249.596 40.8164 249.669 40.8164C249.751 40.8073 249.819 40.7982 249.874 40.7891C249.938 40.7799 249.979 40.7708 249.997 40.7617H250.134C250.289 40.7617 250.403 40.8346 250.476 40.9805C250.548 41.1172 250.585 41.2493 250.585 41.377V41.418C250.585 41.4271 250.58 41.4499 250.571 41.4863C250.562 41.5228 250.553 41.5638 250.544 41.6094C250.535 41.6549 250.526 41.7005 250.517 41.7461C250.517 41.7826 250.517 41.8053 250.517 41.8145V42.416V42.9902C250.517 43.054 250.521 43.1862 250.53 43.3867C250.539 43.5781 250.548 43.8105 250.558 44.084C250.576 44.3483 250.589 44.6309 250.599 44.9316C250.617 45.2233 250.63 45.5059 250.64 45.7793C250.658 46.0436 250.671 46.276 250.681 46.4766C250.69 46.668 250.694 46.7956 250.694 46.8594C250.694 46.8867 250.694 46.9915 250.694 47.1738C250.703 47.3561 250.708 47.5703 250.708 47.8164C250.708 48.0625 250.708 48.3086 250.708 48.5547C250.708 48.8008 250.708 48.9967 250.708 49.1426C250.708 49.2246 250.708 49.375 250.708 49.5938C250.708 49.8125 250.708 50.0449 250.708 50.291C250.708 50.528 250.703 50.7559 250.694 50.9746C250.694 51.1934 250.694 51.3438 250.694 51.4258C250.649 51.5716 250.576 51.6855 250.476 51.7676C250.384 51.8496 250.275 51.9134 250.147 51.959C250.029 51.9954 249.897 52.0182 249.751 52.0273C249.614 52.0456 249.482 52.0592 249.354 52.0684C249.327 52.0684 249.259 52.0684 249.149 52.0684C249.04 52.0775 248.917 52.082 248.78 52.082C248.653 52.0911 248.525 52.1003 248.397 52.1094C248.279 52.1185 248.188 52.123 248.124 52.123H248.001C247.964 52.123 247.928 52.123 247.892 52.123C247.864 52.123 247.846 52.1048 247.837 52.0684C247.828 52.041 247.814 51.9909 247.796 51.918C247.787 51.8451 247.778 51.7949 247.768 51.7676ZM262.71 46.5586C262.664 46.5039 262.591 46.4036 262.491 46.2578C262.4 46.1029 262.299 45.9434 262.19 45.7793C262.09 45.6061 261.994 45.4466 261.903 45.3008C261.812 45.1458 261.748 45.041 261.712 44.9863C261.693 44.959 261.657 44.8997 261.602 44.8086C261.557 44.7174 261.502 44.6217 261.438 44.5215C261.383 44.4121 261.329 44.3118 261.274 44.2207C261.219 44.1296 261.188 44.0703 261.178 44.043C261.169 44.0247 261.142 43.9837 261.096 43.9199C261.051 43.847 261.001 43.7695 260.946 43.6875C260.891 43.6055 260.841 43.5326 260.796 43.4688C260.75 43.3958 260.723 43.3503 260.714 43.332C260.704 43.3138 260.682 43.2728 260.645 43.209C260.609 43.1361 260.572 43.0632 260.536 42.9902C260.499 42.9082 260.463 42.8353 260.426 42.7715C260.39 42.6986 260.367 42.653 260.358 42.6348C260.203 42.3522 260.044 42.0879 259.88 41.8418C259.725 41.5957 259.592 41.3132 259.483 40.9941V40.9395C259.483 40.8757 259.51 40.8255 259.565 40.7891C259.62 40.7526 259.67 40.7253 259.716 40.707C260.035 40.6888 260.349 40.666 260.659 40.6387C260.978 40.6022 261.297 40.584 261.616 40.584H261.889L261.917 40.6113C261.926 40.6204 261.93 40.6296 261.93 40.6387C261.958 40.6842 261.999 40.7435 262.053 40.8164C262.108 40.8893 262.158 40.9668 262.204 41.0488C262.258 41.1217 262.304 41.1855 262.341 41.2402C262.386 41.2949 262.409 41.3268 262.409 41.3359C262.427 41.3815 262.477 41.4909 262.559 41.6641C262.65 41.8372 262.746 42.0241 262.846 42.2246C262.947 42.4251 263.038 42.612 263.12 42.7852C263.211 42.9583 263.266 43.0677 263.284 43.1133C263.302 43.1315 263.343 43.1999 263.407 43.3184C263.471 43.4277 263.512 43.4915 263.53 43.5098C263.539 43.5371 263.566 43.61 263.612 43.7285C263.658 43.8379 263.689 43.9062 263.708 43.9336C263.717 43.9518 263.735 43.9928 263.762 44.0566C263.79 44.1113 263.803 44.1478 263.803 44.166C263.822 44.1751 263.835 44.1842 263.844 44.1934C263.854 44.2025 263.863 44.207 263.872 44.207L263.899 44.2344C263.899 44.2344 263.904 44.2298 263.913 44.2207L263.926 44.207C264.054 43.9518 264.186 43.7057 264.323 43.4688C264.469 43.2318 264.61 42.9948 264.747 42.7578C264.838 42.6029 264.911 42.457 264.966 42.3203C265.02 42.1836 265.084 42.0378 265.157 41.8828C265.248 41.7005 265.357 41.5182 265.485 41.3359C265.613 41.1445 265.736 40.9714 265.854 40.8164C265.872 40.8073 265.904 40.7799 265.95 40.7344C265.995 40.6888 266.023 40.6569 266.032 40.6387H266.456H266.852C266.87 40.6387 266.93 40.6478 267.03 40.666C267.13 40.6842 267.189 40.6979 267.208 40.707C267.226 40.707 267.276 40.7116 267.358 40.7207C267.449 40.7207 267.545 40.7253 267.645 40.7344C267.755 40.7435 267.85 40.7526 267.932 40.7617C268.023 40.7617 268.078 40.7617 268.096 40.7617C268.215 40.7799 268.338 40.8073 268.466 40.8438C268.602 40.8802 268.671 40.9714 268.671 41.1172V41.2402C268.661 41.2676 268.625 41.3405 268.561 41.459C268.507 41.5775 268.47 41.6549 268.452 41.6914L265.676 46.1484L265.335 46.8594V47.2285C265.335 47.8665 265.344 48.5 265.362 49.1289C265.389 49.7578 265.403 50.3958 265.403 51.043V51.7676C265.339 51.8678 265.239 51.9271 265.102 51.9453C264.792 51.9818 264.496 52 264.214 52C263.94 52 263.648 52 263.339 52H262.764L262.71 51.9453V46.5586ZM276.899 52C276.862 51.9909 276.844 51.9681 276.844 51.9316C276.844 51.8952 276.844 51.8633 276.844 51.8359C276.844 51.763 276.876 51.6855 276.94 51.6035C277.004 51.5124 277.049 51.4303 277.077 51.3574C277.086 51.3301 277.104 51.2799 277.131 51.207C277.159 51.125 277.186 51.0384 277.213 50.9473C277.25 50.847 277.282 50.7604 277.309 50.6875C277.336 50.6055 277.355 50.5508 277.364 50.5234C277.373 50.4961 277.386 50.4551 277.405 50.4004C277.432 50.3457 277.459 50.2865 277.487 50.2227C277.514 50.1589 277.537 50.1042 277.555 50.0586C277.582 50.0039 277.596 49.9674 277.596 49.9492C277.605 49.9401 277.623 49.9128 277.651 49.8672C277.678 49.8216 277.706 49.7715 277.733 49.7168C277.76 49.6621 277.783 49.6165 277.801 49.5801C277.829 49.5345 277.842 49.5026 277.842 49.4844C277.851 49.4479 277.888 49.3477 277.952 49.1836C278.015 49.0195 278.084 48.8464 278.157 48.6641C278.23 48.4727 278.298 48.2995 278.362 48.1445C278.426 47.9805 278.467 47.8757 278.485 47.8301C278.503 47.7936 278.539 47.7207 278.594 47.6113C278.658 47.4928 278.699 47.4154 278.717 47.3789L280.932 41.2949C280.941 41.2767 280.955 41.2448 280.973 41.1992C281 41.1445 281.023 41.0898 281.041 41.0352C281.069 40.9805 281.092 40.9303 281.11 40.8848C281.137 40.8301 281.155 40.7891 281.164 40.7617L281.233 40.6934H281.424H281.643C281.679 40.6934 281.771 40.6979 281.916 40.707C282.062 40.7161 282.222 40.7253 282.395 40.7344C282.568 40.7344 282.728 40.7389 282.873 40.748C283.019 40.7572 283.115 40.7617 283.161 40.7617C283.224 40.7617 283.284 40.7617 283.338 40.7617C283.393 40.7526 283.452 40.7708 283.516 40.8164C283.589 40.8711 283.653 40.9349 283.707 41.0078C283.762 41.0807 283.812 41.1536 283.858 41.2266C283.885 41.2721 283.922 41.3314 283.967 41.4043C284.013 41.4772 284.054 41.5501 284.09 41.623C284.136 41.696 284.177 41.7643 284.213 41.8281C284.25 41.8828 284.273 41.9147 284.282 41.9238C284.309 41.9876 284.355 42.0879 284.418 42.2246C284.482 42.3522 284.546 42.4889 284.61 42.6348C284.683 42.7806 284.747 42.9128 284.801 43.0312C284.856 43.1497 284.892 43.2272 284.911 43.2637C284.92 43.291 284.938 43.3503 284.965 43.4414C284.993 43.5234 285.025 43.6146 285.061 43.7148C285.097 43.8151 285.129 43.9108 285.157 44.002C285.184 44.084 285.202 44.1387 285.211 44.166C285.385 44.6491 285.594 45.1185 285.84 45.5742C286.086 46.0208 286.305 46.4811 286.497 46.9551C286.515 47.0098 286.556 47.1237 286.62 47.2969C286.683 47.4609 286.756 47.6569 286.838 47.8848C286.929 48.1126 287.021 48.3542 287.112 48.6094C287.203 48.8646 287.289 49.1061 287.372 49.334C287.463 49.5527 287.54 49.7441 287.604 49.9082C287.668 50.0723 287.709 50.1816 287.727 50.2363C287.736 50.2728 287.773 50.3594 287.836 50.4961C287.9 50.6237 287.941 50.7103 287.959 50.7559C287.978 50.8014 288.01 50.8698 288.055 50.9609C288.101 51.043 288.146 51.1341 288.192 51.2344C288.237 51.3346 288.283 51.4303 288.329 51.5215C288.374 51.6035 288.406 51.6628 288.424 51.6992V51.7539C288.424 51.7995 288.406 51.8405 288.37 51.877C288.333 51.9043 288.288 51.9271 288.233 51.9453C288.187 51.9635 288.137 51.9772 288.082 51.9863C288.028 51.9954 287.987 52 287.959 52C287.932 52 287.864 52 287.754 52C287.645 52 287.526 52 287.399 52C287.28 52 287.166 52 287.057 52C286.948 52 286.879 52 286.852 52C286.724 52 286.592 52.0182 286.456 52.0547C286.328 52.1003 286.191 52.123 286.045 52.123C285.972 52.123 285.913 52.1185 285.868 52.1094C285.822 52.1094 285.758 52.0911 285.676 52.0547C285.676 52.0547 285.667 52.0456 285.649 52.0273L285.622 52C285.539 51.8451 285.476 51.722 285.43 51.6309C285.394 51.5306 285.339 51.3984 285.266 51.2344C285.248 51.2161 285.216 51.1569 285.17 51.0566C285.125 50.9564 285.097 50.8971 285.088 50.8789C285.034 50.7057 285.002 50.5553 284.993 50.4277C284.984 50.3001 284.92 50.1589 284.801 50.0039C284.792 49.9948 284.774 49.9857 284.747 49.9766C284.719 49.9583 284.696 49.9492 284.678 49.9492C284.605 49.9492 284.482 49.9447 284.309 49.9355C284.145 49.9264 283.967 49.9219 283.776 49.9219C283.584 49.9128 283.402 49.9036 283.229 49.8945C283.056 49.8854 282.933 49.8809 282.86 49.8809C282.842 49.8809 282.801 49.8809 282.737 49.8809C282.682 49.8717 282.618 49.8626 282.545 49.8535C282.472 49.8444 282.404 49.8398 282.34 49.8398C282.276 49.8307 282.24 49.8262 282.231 49.8262H281.971C281.716 49.8262 281.461 49.8353 281.206 49.8535C280.959 49.8717 280.713 49.9036 280.467 49.9492C280.312 49.9766 280.198 50.0495 280.125 50.168C280.062 50.2773 279.998 50.3958 279.934 50.5234C279.925 50.5508 279.907 50.6009 279.879 50.6738C279.852 50.7467 279.82 50.8242 279.784 50.9062C279.756 50.9792 279.729 51.0475 279.702 51.1113C279.674 51.1751 279.656 51.2161 279.647 51.2344C279.638 51.2526 279.62 51.2982 279.592 51.3711C279.574 51.4349 279.551 51.5078 279.524 51.5898C279.497 51.6628 279.469 51.7357 279.442 51.8086C279.424 51.8724 279.414 51.9134 279.414 51.9316C279.342 52.1139 279.26 52.2096 279.168 52.2188C279.077 52.2279 278.945 52.2324 278.772 52.2324C278.453 52.2324 278.148 52.1914 277.856 52.1094C277.564 52.0365 277.245 52 276.899 52ZM282.463 44.4395C282.454 44.4486 282.441 44.4714 282.422 44.5078C282.413 44.5352 282.409 44.5534 282.409 44.5625C282.409 44.5807 282.4 44.6126 282.381 44.6582C282.363 44.7038 282.34 44.7539 282.313 44.8086C282.295 44.8542 282.276 44.9043 282.258 44.959C282.24 45.0046 282.231 45.0319 282.231 45.041C282.222 45.0501 282.204 45.082 282.176 45.1367C282.158 45.1823 282.135 45.237 282.108 45.3008C282.081 45.3555 282.053 45.4102 282.026 45.4648C282.008 45.5195 281.994 45.5514 281.985 45.5605C281.939 45.6699 281.885 45.8158 281.821 45.998C281.757 46.1803 281.693 46.3626 281.629 46.5449C281.566 46.7181 281.511 46.8685 281.465 46.9961C281.429 47.1237 281.411 47.1875 281.411 47.1875V47.3105H283.639C283.648 47.3105 283.666 47.2969 283.694 47.2695C283.721 47.2331 283.744 47.2057 283.762 47.1875V47.1328C283.762 47.0599 283.739 46.9733 283.694 46.873C283.648 46.7637 283.612 46.6771 283.584 46.6133C283.502 46.4583 283.402 46.2624 283.284 46.0254C283.165 45.7884 283.047 45.5605 282.928 45.3418C282.819 45.1139 282.723 44.918 282.641 44.7539C282.559 44.5898 282.518 44.5078 282.518 44.5078L282.463 44.4395ZM291.595 49.6895C291.595 49.2611 291.641 48.8372 291.732 48.418C291.832 47.9987 291.882 47.5749 291.882 47.1465V47.0098C291.882 46.8913 291.878 46.7135 291.868 46.4766C291.868 46.2305 291.864 45.957 291.855 45.6562C291.846 45.3464 291.837 45.0228 291.827 44.6855C291.818 44.3392 291.809 44.0156 291.8 43.7148C291.791 43.4049 291.782 43.127 291.773 42.8809C291.773 42.6348 291.773 42.4525 291.773 42.334L291.827 41.2266C291.827 41.1992 291.837 41.1582 291.855 41.1035C291.873 41.0488 291.905 41.0124 291.951 40.9941H292.88C292.898 40.9941 292.939 40.9941 293.003 40.9941C293.076 40.985 293.149 40.9759 293.222 40.9668C293.304 40.9577 293.377 40.9531 293.441 40.9531C293.514 40.944 293.559 40.9395 293.577 40.9395C293.587 40.9395 293.646 40.9395 293.755 40.9395C293.865 40.9395 293.992 40.9395 294.138 40.9395C294.284 40.9303 294.43 40.9258 294.576 40.9258C294.721 40.9258 294.84 40.9258 294.931 40.9258C294.986 40.9258 295.077 40.9258 295.204 40.9258C295.332 40.9258 295.464 40.9303 295.601 40.9395C295.747 40.9395 295.883 40.9395 296.011 40.9395C296.139 40.9395 296.225 40.9395 296.271 40.9395C296.535 40.9668 296.799 41.0078 297.064 41.0625C297.337 41.1081 297.597 41.1855 297.843 41.2949C297.898 41.2949 297.939 41.3086 297.966 41.3359C298.312 41.5547 298.631 41.7826 298.923 42.0195C299.215 42.2474 299.502 42.5117 299.784 42.8125C299.994 43.0312 300.154 43.2773 300.263 43.5508C300.372 43.8242 300.464 44.1022 300.536 44.3848C300.555 44.4395 300.577 44.5215 300.605 44.6309C300.641 44.7311 300.673 44.8405 300.701 44.959C300.737 45.0684 300.769 45.1686 300.796 45.2598C300.824 45.3509 300.837 45.4102 300.837 45.4375C300.865 45.556 300.878 45.6699 300.878 45.7793C300.878 45.8796 300.906 45.9798 300.96 46.0801V46.9551C300.96 46.9733 300.969 47.0052 300.988 47.0508C301.006 47.0872 301.015 47.1146 301.015 47.1328V47.1738V47.1875C301.015 47.1966 301.006 47.2194 300.988 47.2559L300.96 47.3105C300.951 47.3379 300.937 47.3835 300.919 47.4473C300.901 47.502 300.892 47.5384 300.892 47.5566C300.892 47.5658 300.892 47.5931 300.892 47.6387C300.892 47.6842 300.892 47.7344 300.892 47.7891C300.892 47.8346 300.892 47.8802 300.892 47.9258C300.892 47.9714 300.892 47.9987 300.892 48.0078C300.892 48.0169 300.883 48.0397 300.865 48.0762C300.846 48.1035 300.837 48.1217 300.837 48.1309C300.837 48.1491 300.828 48.1992 300.81 48.2812C300.792 48.3633 300.783 48.4134 300.783 48.4316C300.764 48.4863 300.728 48.582 300.673 48.7188C300.628 48.8555 300.577 49.0013 300.523 49.1562C300.468 49.3112 300.413 49.457 300.359 49.5938C300.313 49.7305 300.281 49.8262 300.263 49.8809C300.135 50.0358 300.017 50.2044 299.908 50.3867C299.807 50.5599 299.684 50.724 299.538 50.8789C299.347 51.1068 299.133 51.2936 298.896 51.4395C298.659 51.5762 298.408 51.722 298.144 51.877C298.126 51.8861 298.103 51.8997 298.076 51.918C298.048 51.9271 298.03 51.9316 298.021 51.9316C298.012 51.9408 297.984 51.9453 297.939 51.9453C297.893 51.9362 297.861 51.9316 297.843 51.9316C297.551 51.9772 297.273 52.0228 297.009 52.0684C296.754 52.123 296.467 52.1595 296.148 52.1777C296.102 52.1777 295.993 52.1777 295.82 52.1777C295.656 52.1777 295.473 52.1777 295.273 52.1777C295.072 52.1777 294.885 52.1777 294.712 52.1777C294.548 52.1777 294.443 52.1777 294.398 52.1777C294.37 52.1777 294.298 52.1777 294.179 52.1777C294.061 52.1868 293.937 52.196 293.81 52.2051C293.682 52.2142 293.559 52.2188 293.441 52.2188C293.322 52.2279 293.249 52.2324 293.222 52.2324H292.005C291.987 52.2415 291.955 52.2552 291.909 52.2734C291.873 52.2917 291.846 52.2917 291.827 52.2734C291.818 52.2734 291.805 52.2598 291.786 52.2324C291.777 52.2142 291.773 52.196 291.773 52.1777C291.764 52.1595 291.75 52.1048 291.732 52.0137C291.723 51.9225 291.714 51.8587 291.704 51.8223C291.659 51.4759 291.627 51.1204 291.609 50.7559C291.6 50.3913 291.595 50.0358 291.595 49.6895ZM294.576 49.4844C294.585 49.5482 294.594 49.6257 294.603 49.7168C294.621 49.7988 294.671 49.8535 294.753 49.8809C294.771 49.8809 294.812 49.8854 294.876 49.8945C294.94 49.8945 294.981 49.8945 294.999 49.8945C295.018 49.8945 295.054 49.8945 295.109 49.8945C295.173 49.8854 295.209 49.8809 295.218 49.8809C295.273 49.8809 295.364 49.8763 295.492 49.8672C295.619 49.8581 295.751 49.849 295.888 49.8398C296.034 49.8216 296.171 49.8079 296.298 49.7988C296.426 49.7897 296.517 49.7806 296.572 49.7715C298.103 49.3613 298.868 48.3587 298.868 46.7637C298.868 46.472 298.814 46.1576 298.704 45.8203C298.604 45.474 298.477 45.1732 298.322 44.918C298.294 44.8906 298.249 44.8451 298.185 44.7812C298.13 44.7174 298.066 44.6536 297.993 44.5898C297.93 44.5169 297.866 44.4531 297.802 44.3984C297.738 44.3346 297.693 44.2891 297.665 44.2617C297.656 44.2617 297.592 44.2298 297.474 44.166C297.365 44.1022 297.278 44.0612 297.214 44.043C297.123 43.9974 297.014 43.9564 296.886 43.9199C296.768 43.8743 296.663 43.8379 296.572 43.8105C296.499 43.8105 296.371 43.806 296.189 43.7969C296.016 43.7786 295.829 43.765 295.628 43.7559C295.428 43.7376 295.236 43.724 295.054 43.7148C294.881 43.6966 294.762 43.6875 294.699 43.6875H294.521H294.343C294.343 43.7331 294.339 43.8197 294.329 43.9473C294.32 44.0749 294.311 44.2116 294.302 44.3574C294.302 44.5033 294.298 44.64 294.288 44.7676C294.279 44.8952 294.275 44.9863 294.275 45.041V45.123V45.2051L294.576 48.9512V49.4844ZM304.651 51.8223C304.651 51.7038 304.646 51.5169 304.637 51.2617C304.637 50.9974 304.632 50.7057 304.623 50.3867C304.614 50.0586 304.605 49.7168 304.596 49.3613C304.587 49.0059 304.578 48.6686 304.569 48.3496C304.569 48.0215 304.564 47.7298 304.555 47.4746C304.546 47.2194 304.537 47.0326 304.528 46.9141C304.528 46.8594 304.514 46.7227 304.487 46.5039C304.468 46.2852 304.45 46.0527 304.432 45.8066C304.414 45.5514 304.395 45.3145 304.377 45.0957C304.359 44.877 304.35 44.7402 304.35 44.6855C304.313 44.6582 304.291 44.5671 304.281 44.4121C304.272 44.2572 304.268 44.0794 304.268 43.8789C304.277 43.6784 304.286 43.4779 304.295 43.2773C304.313 43.0677 304.327 42.9082 304.336 42.7988C304.336 42.7259 304.336 42.6165 304.336 42.4707C304.336 42.3158 304.336 42.1608 304.336 42.0059C304.345 41.8509 304.35 41.7096 304.35 41.582C304.35 41.4544 304.35 41.3724 304.35 41.3359L304.404 40.8848L304.473 40.8164C304.509 40.8164 304.582 40.821 304.692 40.8301C304.801 40.8301 304.91 40.8301 305.02 40.8301C305.138 40.8301 305.248 40.8301 305.348 40.8301C305.457 40.821 305.535 40.8164 305.58 40.8164C305.617 40.8164 305.694 40.8118 305.813 40.8027C305.931 40.7936 306.009 40.7799 306.045 40.7617H307.194H308.328C308.347 40.7617 308.388 40.7663 308.451 40.7754C308.515 40.7754 308.584 40.7799 308.656 40.7891C308.738 40.7891 308.811 40.7936 308.875 40.8027C308.948 40.8118 308.998 40.8164 309.026 40.8164C309.418 40.862 309.764 40.9941 310.065 41.2129C310.375 41.4316 310.63 41.696 310.83 42.0059C311.031 42.3158 311.181 42.6576 311.281 43.0312C311.391 43.4049 311.446 43.7695 311.446 44.125C311.446 44.3893 311.404 44.6719 311.322 44.9727C311.25 45.2643 311.136 45.5469 310.981 45.8203C310.835 46.0938 310.657 46.3398 310.447 46.5586C310.238 46.7682 310.001 46.9232 309.737 47.0234V47.0508V47.0781C309.755 47.0964 309.773 47.1374 309.791 47.2012C309.819 47.265 309.837 47.306 309.846 47.3242C309.937 47.4518 310.033 47.5977 310.133 47.7617C310.233 47.9258 310.338 48.0716 310.447 48.1992C310.593 48.3815 310.725 48.6094 310.844 48.8828C310.962 49.1562 311.081 49.3978 311.199 49.6074C311.218 49.6257 311.254 49.6803 311.309 49.7715C311.373 49.8626 311.418 49.9219 311.446 49.9492C311.455 49.9674 311.482 49.9993 311.528 50.0449C311.573 50.0905 311.6 50.1178 311.61 50.127C311.61 50.1361 311.619 50.168 311.637 50.2227C311.655 50.2682 311.664 50.2956 311.664 50.3047C311.746 50.487 311.847 50.7012 311.965 50.9473C312.084 51.1934 312.143 51.4212 312.143 51.6309V51.6445L312.02 51.7676C311.947 51.7767 311.824 51.7904 311.651 51.8086C311.477 51.8177 311.295 51.8359 311.104 51.8633C310.912 51.8815 310.73 51.8997 310.557 51.918C310.384 51.9271 310.265 51.9362 310.201 51.9453C310.183 51.9453 310.133 51.9544 310.051 51.9727C309.969 51.9909 309.923 52 309.914 52H309.778C309.686 52 309.618 51.9681 309.572 51.9043C309.536 51.8405 309.495 51.7721 309.449 51.6992C309.422 51.6536 309.367 51.5671 309.285 51.4395C309.212 51.3027 309.167 51.2161 309.149 51.1797L307.863 48.6094C307.763 48.418 307.649 48.2311 307.522 48.0488C307.403 47.8574 307.262 47.6934 307.098 47.5566V47.6387C307.098 47.8301 307.112 48.0215 307.139 48.2129C307.166 48.3952 307.194 48.582 307.221 48.7734C307.23 48.901 307.239 49.0423 307.248 49.1973C307.257 49.3431 307.285 49.4798 307.33 49.6074V51.877C307.33 51.9681 307.285 52.0273 307.194 52.0547C307.112 52.0911 307.039 52.1139 306.975 52.123C306.765 52.1504 306.587 52.1641 306.442 52.1641C306.305 52.1732 306.132 52.1777 305.922 52.1777H305.635C305.617 52.1777 305.58 52.1732 305.526 52.1641C305.48 52.1549 305.425 52.1413 305.362 52.123C305.307 52.1139 305.248 52.1003 305.184 52.082C305.12 52.0729 305.074 52.0638 305.047 52.0547C305.011 52.0456 304.947 52.0273 304.856 52C304.774 51.9727 304.724 51.9544 304.705 51.9453C304.687 51.9362 304.673 51.918 304.664 51.8906C304.655 51.8542 304.651 51.8314 304.651 51.8223ZM307.043 43.168C307.043 43.1771 307.052 43.2044 307.071 43.25C307.089 43.2956 307.098 43.3229 307.098 43.332V43.6875C307.098 43.7695 307.102 43.8743 307.112 44.002C307.121 44.1296 307.125 44.2526 307.125 44.3711C307.134 44.4896 307.139 44.5944 307.139 44.6855C307.148 44.7676 307.153 44.8086 307.153 44.8086L307.221 44.918C307.257 44.9271 307.294 44.9316 307.33 44.9316H307.522C307.868 44.9316 308.164 44.8906 308.41 44.8086C308.656 44.7266 308.903 44.5534 309.149 44.2891C309.194 44.2344 309.217 44.1797 309.217 44.125C309.217 44.0703 309.217 44.0111 309.217 43.9473C309.217 43.929 309.212 43.9108 309.203 43.8926C309.203 43.8743 309.203 43.8561 309.203 43.8379V43.7559C309.194 43.6647 309.126 43.5736 308.998 43.4824C308.871 43.3822 308.725 43.3001 308.561 43.2363C308.397 43.1634 308.233 43.1042 308.069 43.0586C307.904 43.013 307.781 42.9902 307.699 42.9902C307.672 42.9902 307.622 42.9948 307.549 43.0039C307.476 43.0039 307.403 43.0085 307.33 43.0176C307.257 43.0267 307.189 43.0404 307.125 43.0586C307.071 43.0768 307.043 43.0996 307.043 43.127V43.168ZM315.532 51.7676C315.551 50.1178 315.546 48.4772 315.519 46.8457C315.491 45.2051 315.478 43.5508 315.478 41.8828V40.8848L315.532 40.8301H317.118C317.127 40.8301 317.164 40.8301 317.228 40.8301C317.291 40.821 317.36 40.8164 317.433 40.8164C317.515 40.8073 317.583 40.7982 317.638 40.7891C317.702 40.7799 317.743 40.7708 317.761 40.7617H317.898C318.052 40.7617 318.166 40.8346 318.239 40.9805C318.312 41.1172 318.349 41.2493 318.349 41.377V41.418C318.349 41.4271 318.344 41.4499 318.335 41.4863C318.326 41.5228 318.317 41.5638 318.308 41.6094C318.299 41.6549 318.289 41.7005 318.28 41.7461C318.28 41.7826 318.28 41.8053 318.28 41.8145V42.416V42.9902C318.28 43.054 318.285 43.1862 318.294 43.3867C318.303 43.5781 318.312 43.8105 318.321 44.084C318.34 44.3483 318.353 44.6309 318.362 44.9316C318.381 45.2233 318.394 45.5059 318.403 45.7793C318.422 46.0436 318.435 46.276 318.444 46.4766C318.454 46.668 318.458 46.7956 318.458 46.8594C318.458 46.8867 318.458 46.9915 318.458 47.1738C318.467 47.3561 318.472 47.5703 318.472 47.8164C318.472 48.0625 318.472 48.3086 318.472 48.5547C318.472 48.8008 318.472 48.9967 318.472 49.1426C318.472 49.2246 318.472 49.375 318.472 49.5938C318.472 49.8125 318.472 50.0449 318.472 50.291C318.472 50.528 318.467 50.7559 318.458 50.9746C318.458 51.1934 318.458 51.3438 318.458 51.4258C318.413 51.5716 318.34 51.6855 318.239 51.7676C318.148 51.8496 318.039 51.9134 317.911 51.959C317.793 51.9954 317.661 52.0182 317.515 52.0273C317.378 52.0456 317.246 52.0592 317.118 52.0684C317.091 52.0684 317.023 52.0684 316.913 52.0684C316.804 52.0775 316.681 52.082 316.544 52.082C316.416 52.0911 316.289 52.1003 316.161 52.1094C316.043 52.1185 315.952 52.123 315.888 52.123H315.765C315.728 52.123 315.692 52.123 315.655 52.123C315.628 52.123 315.61 52.1048 315.601 52.0684C315.592 52.041 315.578 51.9909 315.56 51.918C315.551 51.8451 315.541 51.7949 315.532 51.7676ZM321.342 52C321.305 51.9909 321.287 51.9681 321.287 51.9316C321.287 51.8952 321.287 51.8633 321.287 51.8359C321.287 51.763 321.319 51.6855 321.383 51.6035C321.447 51.5124 321.492 51.4303 321.519 51.3574C321.529 51.3301 321.547 51.2799 321.574 51.207C321.602 51.125 321.629 51.0384 321.656 50.9473C321.693 50.847 321.725 50.7604 321.752 50.6875C321.779 50.6055 321.797 50.5508 321.807 50.5234C321.816 50.4961 321.829 50.4551 321.848 50.4004C321.875 50.3457 321.902 50.2865 321.93 50.2227C321.957 50.1589 321.98 50.1042 321.998 50.0586C322.025 50.0039 322.039 49.9674 322.039 49.9492C322.048 49.9401 322.066 49.9128 322.094 49.8672C322.121 49.8216 322.148 49.7715 322.176 49.7168C322.203 49.6621 322.226 49.6165 322.244 49.5801C322.271 49.5345 322.285 49.5026 322.285 49.4844C322.294 49.4479 322.331 49.3477 322.394 49.1836C322.458 49.0195 322.527 48.8464 322.6 48.6641C322.672 48.4727 322.741 48.2995 322.805 48.1445C322.868 47.9805 322.909 47.8757 322.928 47.8301C322.946 47.7936 322.982 47.7207 323.037 47.6113C323.101 47.4928 323.142 47.4154 323.16 47.3789L325.375 41.2949C325.384 41.2767 325.398 41.2448 325.416 41.1992C325.443 41.1445 325.466 41.0898 325.484 41.0352C325.512 40.9805 325.534 40.9303 325.553 40.8848C325.58 40.8301 325.598 40.7891 325.607 40.7617L325.676 40.6934H325.867H326.086C326.122 40.6934 326.214 40.6979 326.359 40.707C326.505 40.7161 326.665 40.7253 326.838 40.7344C327.011 40.7344 327.171 40.7389 327.316 40.748C327.462 40.7572 327.558 40.7617 327.603 40.7617C327.667 40.7617 327.727 40.7617 327.781 40.7617C327.836 40.7526 327.895 40.7708 327.959 40.8164C328.032 40.8711 328.096 40.9349 328.15 41.0078C328.205 41.0807 328.255 41.1536 328.301 41.2266C328.328 41.2721 328.365 41.3314 328.41 41.4043C328.456 41.4772 328.497 41.5501 328.533 41.623C328.579 41.696 328.62 41.7643 328.656 41.8281C328.693 41.8828 328.715 41.9147 328.725 41.9238C328.752 41.9876 328.797 42.0879 328.861 42.2246C328.925 42.3522 328.989 42.4889 329.053 42.6348C329.126 42.7806 329.189 42.9128 329.244 43.0312C329.299 43.1497 329.335 43.2272 329.353 43.2637C329.363 43.291 329.381 43.3503 329.408 43.4414C329.436 43.5234 329.467 43.6146 329.504 43.7148C329.54 43.8151 329.572 43.9108 329.6 44.002C329.627 44.084 329.645 44.1387 329.654 44.166C329.827 44.6491 330.037 45.1185 330.283 45.5742C330.529 46.0208 330.748 46.4811 330.939 46.9551C330.958 47.0098 330.999 47.1237 331.062 47.2969C331.126 47.4609 331.199 47.6569 331.281 47.8848C331.372 48.1126 331.464 48.3542 331.555 48.6094C331.646 48.8646 331.732 49.1061 331.814 49.334C331.906 49.5527 331.983 49.7441 332.047 49.9082C332.111 50.0723 332.152 50.1816 332.17 50.2363C332.179 50.2728 332.215 50.3594 332.279 50.4961C332.343 50.6237 332.384 50.7103 332.402 50.7559C332.421 50.8014 332.452 50.8698 332.498 50.9609C332.544 51.043 332.589 51.1341 332.635 51.2344C332.68 51.3346 332.726 51.4303 332.771 51.5215C332.817 51.6035 332.849 51.6628 332.867 51.6992V51.7539C332.867 51.7995 332.849 51.8405 332.812 51.877C332.776 51.9043 332.73 51.9271 332.676 51.9453C332.63 51.9635 332.58 51.9772 332.525 51.9863C332.471 51.9954 332.43 52 332.402 52C332.375 52 332.307 52 332.197 52C332.088 52 331.969 52 331.842 52C331.723 52 331.609 52 331.5 52C331.391 52 331.322 52 331.295 52C331.167 52 331.035 52.0182 330.898 52.0547C330.771 52.1003 330.634 52.123 330.488 52.123C330.415 52.123 330.356 52.1185 330.311 52.1094C330.265 52.1094 330.201 52.0911 330.119 52.0547C330.119 52.0547 330.11 52.0456 330.092 52.0273L330.064 52C329.982 51.8451 329.919 51.722 329.873 51.6309C329.837 51.5306 329.782 51.3984 329.709 51.2344C329.691 51.2161 329.659 51.1569 329.613 51.0566C329.568 50.9564 329.54 50.8971 329.531 50.8789C329.477 50.7057 329.445 50.5553 329.436 50.4277C329.426 50.3001 329.363 50.1589 329.244 50.0039C329.235 49.9948 329.217 49.9857 329.189 49.9766C329.162 49.9583 329.139 49.9492 329.121 49.9492C329.048 49.9492 328.925 49.9447 328.752 49.9355C328.588 49.9264 328.41 49.9219 328.219 49.9219C328.027 49.9128 327.845 49.9036 327.672 49.8945C327.499 49.8854 327.376 49.8809 327.303 49.8809C327.284 49.8809 327.243 49.8809 327.18 49.8809C327.125 49.8717 327.061 49.8626 326.988 49.8535C326.915 49.8444 326.847 49.8398 326.783 49.8398C326.719 49.8307 326.683 49.8262 326.674 49.8262H326.414C326.159 49.8262 325.904 49.8353 325.648 49.8535C325.402 49.8717 325.156 49.9036 324.91 49.9492C324.755 49.9766 324.641 50.0495 324.568 50.168C324.505 50.2773 324.441 50.3958 324.377 50.5234C324.368 50.5508 324.35 50.6009 324.322 50.6738C324.295 50.7467 324.263 50.8242 324.227 50.9062C324.199 50.9792 324.172 51.0475 324.144 51.1113C324.117 51.1751 324.099 51.2161 324.09 51.2344C324.081 51.2526 324.062 51.2982 324.035 51.3711C324.017 51.4349 323.994 51.5078 323.967 51.5898C323.939 51.6628 323.912 51.7357 323.885 51.8086C323.866 51.8724 323.857 51.9134 323.857 51.9316C323.784 52.1139 323.702 52.2096 323.611 52.2188C323.52 52.2279 323.388 52.2324 323.215 52.2324C322.896 52.2324 322.59 52.1914 322.299 52.1094C322.007 52.0365 321.688 52 321.342 52ZM326.906 44.4395C326.897 44.4486 326.883 44.4714 326.865 44.5078C326.856 44.5352 326.852 44.5534 326.852 44.5625C326.852 44.5807 326.842 44.6126 326.824 44.6582C326.806 44.7038 326.783 44.7539 326.756 44.8086C326.738 44.8542 326.719 44.9043 326.701 44.959C326.683 45.0046 326.674 45.0319 326.674 45.041C326.665 45.0501 326.646 45.082 326.619 45.1367C326.601 45.1823 326.578 45.237 326.551 45.3008C326.523 45.3555 326.496 45.4102 326.469 45.4648C326.45 45.5195 326.437 45.5514 326.428 45.5605C326.382 45.6699 326.327 45.8158 326.264 45.998C326.2 46.1803 326.136 46.3626 326.072 46.5449C326.008 46.7181 325.954 46.8685 325.908 46.9961C325.872 47.1237 325.853 47.1875 325.853 47.1875V47.3105H328.082C328.091 47.3105 328.109 47.2969 328.137 47.2695C328.164 47.2331 328.187 47.2057 328.205 47.1875V47.1328C328.205 47.0599 328.182 46.9733 328.137 46.873C328.091 46.7637 328.055 46.6771 328.027 46.6133C327.945 46.4583 327.845 46.2624 327.727 46.0254C327.608 45.7884 327.49 45.5605 327.371 45.3418C327.262 45.1139 327.166 44.918 327.084 44.7539C327.002 44.5898 326.961 44.5078 326.961 44.5078L326.906 44.4395ZM336.325 52.2461C336.316 52.1276 336.307 51.9453 336.298 51.6992C336.289 51.444 336.275 51.1615 336.257 50.8516C336.248 50.5417 336.234 50.2181 336.216 49.8809C336.207 49.5345 336.197 49.2064 336.188 48.8965C336.179 48.5866 336.17 48.3086 336.161 48.0625C336.152 47.8073 336.147 47.6204 336.147 47.502C336.147 47.4746 336.147 47.3607 336.147 47.1602C336.147 46.9596 336.143 46.7318 336.134 46.4766C336.134 46.2214 336.134 45.9661 336.134 45.7109C336.134 45.4557 336.134 45.2552 336.134 45.1094C336.134 45.0182 336.134 44.8587 336.134 44.6309C336.134 44.403 336.134 44.1615 336.134 43.9062C336.143 43.651 336.147 43.4095 336.147 43.1816C336.147 42.9538 336.147 42.7943 336.147 42.7031C336.156 42.6667 336.166 42.5892 336.175 42.4707C336.193 42.3522 336.202 42.2747 336.202 42.2383C336.202 42.1836 336.202 42.0924 336.202 41.9648C336.211 41.8281 336.216 41.6868 336.216 41.541C336.216 41.3861 336.211 41.2448 336.202 41.1172C336.202 40.9805 336.202 40.8848 336.202 40.8301C336.293 40.7936 336.366 40.7754 336.421 40.7754C336.475 40.7663 336.544 40.7617 336.626 40.7617H336.845C336.908 40.7708 337.022 40.7799 337.186 40.7891C337.35 40.7891 337.519 40.7936 337.692 40.8027C337.875 40.8118 338.043 40.821 338.198 40.8301C338.362 40.8301 338.476 40.8301 338.54 40.8301C338.658 40.9303 338.768 41.0579 338.868 41.2129C338.977 41.3587 339.073 41.5182 339.155 41.6914C339.246 41.8555 339.333 42.0241 339.415 42.1973C339.497 42.3613 339.579 42.5072 339.661 42.6348C339.67 42.6621 339.702 42.7214 339.757 42.8125C339.811 42.8945 339.866 42.9857 339.921 43.0859C339.985 43.1771 340.039 43.2682 340.085 43.3594C340.139 43.4414 340.176 43.4915 340.194 43.5098C340.203 43.528 340.222 43.569 340.249 43.6328C340.285 43.6966 340.322 43.7695 340.358 43.8516C340.395 43.9245 340.427 43.9928 340.454 44.0566C340.49 44.1204 340.518 44.1569 340.536 44.166L340.823 44.4531C340.832 44.4714 340.85 44.5124 340.878 44.5762C340.905 44.64 340.928 44.6764 340.946 44.6855C340.955 44.7038 340.978 44.7402 341.014 44.7949C341.051 44.8405 341.092 44.8952 341.138 44.959C341.192 45.0137 341.238 45.0684 341.274 45.123C341.32 45.1686 341.347 45.196 341.356 45.2051C341.375 45.2233 341.393 45.2552 341.411 45.3008C341.438 45.3464 341.457 45.3737 341.466 45.3828C341.475 45.401 341.498 45.4466 341.534 45.5195C341.58 45.5924 341.625 45.6699 341.671 45.752C341.725 45.834 341.771 45.9115 341.807 45.9844C341.844 46.0482 341.871 46.0892 341.889 46.1074C341.899 46.1165 341.926 46.153 341.972 46.2168C342.017 46.2715 342.049 46.3079 342.067 46.3262C342.113 46.3809 342.149 46.4128 342.177 46.4219C342.213 46.431 342.25 46.4583 342.286 46.5039C342.304 46.5221 342.336 46.5723 342.382 46.6543C342.427 46.7363 342.455 46.7865 342.464 46.8047C342.473 46.8138 342.509 46.8503 342.573 46.9141C342.637 46.9779 342.678 47.0143 342.696 47.0234C342.705 47.0417 342.728 47.0736 342.764 47.1191C342.801 47.1647 342.837 47.2148 342.874 47.2695C342.919 47.3151 342.96 47.3652 342.997 47.4199C343.033 47.4655 343.056 47.4928 343.065 47.502C343.074 47.5111 343.088 47.5339 343.106 47.5703C343.134 47.5977 343.152 47.6159 343.161 47.625C343.179 47.5885 343.193 47.5111 343.202 47.3926C343.211 47.2741 343.22 47.1921 343.229 47.1465V46.9824C343.229 46.6361 343.211 46.2943 343.175 45.957C343.147 45.6107 343.111 45.2689 343.065 44.9316V41.0625C343.065 41.0352 343.07 40.9941 343.079 40.9395C343.097 40.8848 343.125 40.8483 343.161 40.8301C343.188 40.8301 343.229 40.8301 343.284 40.8301C343.339 40.8301 343.398 40.8301 343.462 40.8301C343.526 40.821 343.585 40.8164 343.639 40.8164C343.694 40.8164 343.735 40.8164 343.763 40.8164C343.799 40.8164 343.845 40.8164 343.899 40.8164C343.963 40.8164 344.022 40.821 344.077 40.8301C344.141 40.8301 344.195 40.8301 344.241 40.8301C344.296 40.8301 344.328 40.8301 344.337 40.8301C344.373 40.8301 344.432 40.8346 344.514 40.8438C344.606 40.8438 344.701 40.8483 344.802 40.8574C344.911 40.8574 345.007 40.862 345.089 40.8711C345.18 40.8802 345.244 40.8848 345.28 40.8848C345.344 40.9303 345.394 40.985 345.431 41.0488C345.467 41.1126 345.494 41.1855 345.513 41.2676C345.531 41.3405 345.54 41.418 345.54 41.5C345.549 41.5729 345.558 41.6413 345.567 41.7051C345.576 41.8418 345.585 42.0423 345.595 42.3066C345.613 42.571 345.626 42.8444 345.636 43.127C345.654 43.4095 345.667 43.6647 345.677 43.8926C345.686 44.1204 345.69 44.2663 345.69 44.3301C345.69 44.4395 345.69 44.6081 345.69 44.8359C345.699 45.0638 345.704 45.319 345.704 45.6016C345.704 45.8841 345.704 46.1849 345.704 46.5039C345.704 46.8229 345.704 47.1237 345.704 47.4062C345.704 47.6888 345.699 47.944 345.69 48.1719C345.69 48.3997 345.69 48.5684 345.69 48.6777C345.727 48.9329 345.745 49.1608 345.745 49.3613C345.754 49.5618 345.759 49.7943 345.759 50.0586C345.759 50.1042 345.754 50.168 345.745 50.25C345.745 50.3229 345.745 50.3958 345.745 50.4688C345.745 50.5417 345.74 50.61 345.731 50.6738C345.731 50.7285 345.731 50.7604 345.731 50.7695C345.731 50.8151 345.727 50.8971 345.718 51.0156C345.718 51.1341 345.713 51.2617 345.704 51.3984C345.704 51.526 345.699 51.6491 345.69 51.7676C345.69 51.877 345.69 51.9544 345.69 52C345.636 52.0091 345.531 52.0182 345.376 52.0273C345.23 52.0456 345.07 52.0592 344.897 52.0684C344.724 52.0866 344.56 52.1003 344.405 52.1094C344.259 52.1185 344.159 52.123 344.104 52.123H343.722H343.339C343.248 52.0957 343.17 52.041 343.106 51.959C343.042 51.877 342.988 51.7995 342.942 51.7266C342.641 51.2344 342.341 50.7467 342.04 50.2637C341.739 49.7715 341.416 49.3021 341.069 48.8555C341.042 48.8281 340.992 48.7689 340.919 48.6777C340.846 48.5866 340.796 48.5273 340.768 48.5C340.75 48.4818 340.714 48.4408 340.659 48.377C340.604 48.3132 340.545 48.2493 340.481 48.1855C340.417 48.1126 340.354 48.0443 340.29 47.9805C340.235 47.9167 340.203 47.8757 340.194 47.8574C340.176 47.8392 340.144 47.7936 340.098 47.7207C340.053 47.6478 340.003 47.5703 339.948 47.4883C339.903 47.3971 339.852 47.3151 339.798 47.2422C339.752 47.1602 339.725 47.1055 339.716 47.0781C339.707 47.0599 339.67 47.0052 339.606 46.9141C339.542 46.8138 339.501 46.7546 339.483 46.7363C339.465 46.709 339.424 46.6452 339.36 46.5449C339.306 46.4355 339.246 46.3262 339.182 46.2168C339.119 46.0983 339.055 45.9889 338.991 45.8887C338.936 45.7793 338.904 45.7109 338.895 45.6836C338.886 45.6745 338.863 45.6471 338.827 45.6016C338.8 45.5469 338.781 45.515 338.772 45.5059C338.772 45.515 338.763 45.5469 338.745 45.6016C338.727 45.6471 338.718 45.6745 338.718 45.6836V45.7383V45.8066C338.745 46.4355 338.763 47.0599 338.772 47.6797C338.781 48.2995 338.804 48.9238 338.841 49.5527C338.841 49.571 338.841 49.6165 338.841 49.6895C338.85 49.7533 338.859 49.8262 338.868 49.9082C338.877 49.9811 338.882 50.054 338.882 50.127C338.891 50.1908 338.895 50.2318 338.895 50.25V51.7676C338.941 51.8587 338.964 51.959 338.964 52.0684C338.964 52.0866 338.959 52.0957 338.95 52.0957C338.95 52.1048 338.95 52.1185 338.95 52.1367V52.1777C338.95 52.1868 338.932 52.196 338.895 52.2051C338.868 52.2233 338.85 52.237 338.841 52.2461C338.622 52.2917 338.412 52.3099 338.212 52.3008C338.02 52.3008 337.811 52.3008 337.583 52.3008H336.722C336.694 52.3008 336.626 52.2917 336.516 52.2734C336.416 52.2643 336.352 52.2552 336.325 52.2461ZM348.629 52C348.592 51.9909 348.574 51.9681 348.574 51.9316C348.574 51.8952 348.574 51.8633 348.574 51.8359C348.574 51.763 348.606 51.6855 348.67 51.6035C348.733 51.5124 348.779 51.4303 348.806 51.3574C348.815 51.3301 348.834 51.2799 348.861 51.207C348.888 51.125 348.916 51.0384 348.943 50.9473C348.98 50.847 349.011 50.7604 349.039 50.6875C349.066 50.6055 349.084 50.5508 349.093 50.5234C349.103 50.4961 349.116 50.4551 349.134 50.4004C349.162 50.3457 349.189 50.2865 349.217 50.2227C349.244 50.1589 349.267 50.1042 349.285 50.0586C349.312 50.0039 349.326 49.9674 349.326 49.9492C349.335 49.9401 349.353 49.9128 349.381 49.8672C349.408 49.8216 349.435 49.7715 349.463 49.7168C349.49 49.6621 349.513 49.6165 349.531 49.5801C349.558 49.5345 349.572 49.5026 349.572 49.4844C349.581 49.4479 349.618 49.3477 349.681 49.1836C349.745 49.0195 349.814 48.8464 349.886 48.6641C349.959 48.4727 350.028 48.2995 350.092 48.1445C350.155 47.9805 350.196 47.8757 350.215 47.8301C350.233 47.7936 350.269 47.7207 350.324 47.6113C350.388 47.4928 350.429 47.4154 350.447 47.3789L352.662 41.2949C352.671 41.2767 352.685 41.2448 352.703 41.1992C352.73 41.1445 352.753 41.0898 352.771 41.0352C352.799 40.9805 352.821 40.9303 352.84 40.8848C352.867 40.8301 352.885 40.7891 352.894 40.7617L352.963 40.6934H353.154H353.373C353.409 40.6934 353.5 40.6979 353.646 40.707C353.792 40.7161 353.952 40.7253 354.125 40.7344C354.298 40.7344 354.457 40.7389 354.603 40.748C354.749 40.7572 354.845 40.7617 354.89 40.7617C354.954 40.7617 355.013 40.7617 355.068 40.7617C355.123 40.7526 355.182 40.7708 355.246 40.8164C355.319 40.8711 355.383 40.9349 355.437 41.0078C355.492 41.0807 355.542 41.1536 355.588 41.2266C355.615 41.2721 355.651 41.3314 355.697 41.4043C355.743 41.4772 355.784 41.5501 355.82 41.623C355.866 41.696 355.907 41.7643 355.943 41.8281C355.98 41.8828 356.002 41.9147 356.011 41.9238C356.039 41.9876 356.084 42.0879 356.148 42.2246C356.212 42.3522 356.276 42.4889 356.34 42.6348C356.412 42.7806 356.476 42.9128 356.531 43.0312C356.586 43.1497 356.622 43.2272 356.64 43.2637C356.649 43.291 356.668 43.3503 356.695 43.4414C356.722 43.5234 356.754 43.6146 356.791 43.7148C356.827 43.8151 356.859 43.9108 356.886 44.002C356.914 44.084 356.932 44.1387 356.941 44.166C357.114 44.6491 357.324 45.1185 357.57 45.5742C357.816 46.0208 358.035 46.4811 358.226 46.9551C358.245 47.0098 358.286 47.1237 358.349 47.2969C358.413 47.4609 358.486 47.6569 358.568 47.8848C358.659 48.1126 358.75 48.3542 358.842 48.6094C358.933 48.8646 359.019 49.1061 359.101 49.334C359.192 49.5527 359.27 49.7441 359.334 49.9082C359.398 50.0723 359.439 50.1816 359.457 50.2363C359.466 50.2728 359.502 50.3594 359.566 50.4961C359.63 50.6237 359.671 50.7103 359.689 50.7559C359.707 50.8014 359.739 50.8698 359.785 50.9609C359.83 51.043 359.876 51.1341 359.922 51.2344C359.967 51.3346 360.013 51.4303 360.058 51.5215C360.104 51.6035 360.136 51.6628 360.154 51.6992V51.7539C360.154 51.7995 360.136 51.8405 360.099 51.877C360.063 51.9043 360.017 51.9271 359.963 51.9453C359.917 51.9635 359.867 51.9772 359.812 51.9863C359.758 51.9954 359.717 52 359.689 52C359.662 52 359.593 52 359.484 52C359.375 52 359.256 52 359.129 52C359.01 52 358.896 52 358.787 52C358.677 52 358.609 52 358.582 52C358.454 52 358.322 52.0182 358.185 52.0547C358.058 52.1003 357.921 52.123 357.775 52.123C357.702 52.123 357.643 52.1185 357.597 52.1094C357.552 52.1094 357.488 52.0911 357.406 52.0547C357.406 52.0547 357.397 52.0456 357.379 52.0273L357.351 52C357.269 51.8451 357.205 51.722 357.16 51.6309C357.123 51.5306 357.069 51.3984 356.996 51.2344C356.978 51.2161 356.946 51.1569 356.9 51.0566C356.855 50.9564 356.827 50.8971 356.818 50.8789C356.763 50.7057 356.731 50.5553 356.722 50.4277C356.713 50.3001 356.649 50.1589 356.531 50.0039C356.522 49.9948 356.504 49.9857 356.476 49.9766C356.449 49.9583 356.426 49.9492 356.408 49.9492C356.335 49.9492 356.212 49.9447 356.039 49.9355C355.875 49.9264 355.697 49.9219 355.506 49.9219C355.314 49.9128 355.132 49.9036 354.959 49.8945C354.786 49.8854 354.662 49.8809 354.59 49.8809C354.571 49.8809 354.53 49.8809 354.467 49.8809C354.412 49.8717 354.348 49.8626 354.275 49.8535C354.202 49.8444 354.134 49.8398 354.07 49.8398C354.006 49.8307 353.97 49.8262 353.961 49.8262H353.701C353.446 49.8262 353.19 49.8353 352.935 49.8535C352.689 49.8717 352.443 49.9036 352.197 49.9492C352.042 49.9766 351.928 50.0495 351.855 50.168C351.791 50.2773 351.728 50.3958 351.664 50.5234C351.655 50.5508 351.636 50.6009 351.609 50.6738C351.582 50.7467 351.55 50.8242 351.513 50.9062C351.486 50.9792 351.459 51.0475 351.431 51.1113C351.404 51.1751 351.386 51.2161 351.377 51.2344C351.368 51.2526 351.349 51.2982 351.322 51.3711C351.304 51.4349 351.281 51.5078 351.254 51.5898C351.226 51.6628 351.199 51.7357 351.172 51.8086C351.153 51.8724 351.144 51.9134 351.144 51.9316C351.071 52.1139 350.989 52.2096 350.898 52.2188C350.807 52.2279 350.675 52.2324 350.502 52.2324C350.183 52.2324 349.877 52.1914 349.586 52.1094C349.294 52.0365 348.975 52 348.629 52ZM354.193 44.4395C354.184 44.4486 354.17 44.4714 354.152 44.5078C354.143 44.5352 354.138 44.5534 354.138 44.5625C354.138 44.5807 354.129 44.6126 354.111 44.6582C354.093 44.7038 354.07 44.7539 354.043 44.8086C354.024 44.8542 354.006 44.9043 353.988 44.959C353.97 45.0046 353.961 45.0319 353.961 45.041C353.952 45.0501 353.933 45.082 353.906 45.1367C353.888 45.1823 353.865 45.237 353.838 45.3008C353.81 45.3555 353.783 45.4102 353.756 45.4648C353.737 45.5195 353.724 45.5514 353.715 45.5605C353.669 45.6699 353.614 45.8158 353.551 45.998C353.487 46.1803 353.423 46.3626 353.359 46.5449C353.295 46.7181 353.241 46.8685 353.195 46.9961C353.159 47.1237 353.14 47.1875 353.14 47.1875V47.3105H355.369C355.378 47.3105 355.396 47.2969 355.424 47.2695C355.451 47.2331 355.474 47.2057 355.492 47.1875V47.1328C355.492 47.0599 355.469 46.9733 355.424 46.873C355.378 46.7637 355.342 46.6771 355.314 46.6133C355.232 46.4583 355.132 46.2624 355.013 46.0254C354.895 45.7884 354.776 45.5605 354.658 45.3418C354.549 45.1139 354.453 44.918 354.371 44.7539C354.289 44.5898 354.248 44.5078 354.248 44.5078L354.193 44.4395Z" fill="black"/>
</svg>
