<svg width="27" height="25" viewBox="0 0 27 25" fill="none" xmlns="http://www.w3.org/2000/svg">
<path d="M10.125 6.15812L10.1048 6.15479H10.0843C9.92224 6.15479 9.76369 6.19483 9.64226 6.29999C9.51609 6.40926 9.46313 6.5601 9.46313 6.71093C9.46313 6.74355 9.45682 6.7822 9.44439 6.84089C9.44303 6.84729 9.44153 6.8542 9.43994 6.86156C9.42929 6.91067 9.41437 6.97946 9.40964 7.045C9.40381 7.12589 9.40999 7.23329 9.472 7.33785C9.52094 7.42039 9.592 7.48001 9.67383 7.52316C9.65828 7.59847 9.65511 7.67323 9.66795 7.7463C9.67246 7.77194 9.67875 7.79633 9.6866 7.81947C9.45804 8.0056 9.26514 8.26285 9.21764 8.63894L9.21567 8.65454V8.67027V8.67386V8.67744V8.68104V8.68463V8.68822V8.69182V8.69541V8.69901V8.70261V8.70621V8.70981V8.71342V8.71702V8.72063V8.72424V8.72784V8.73145V8.73507V8.73868V8.74229V8.74591V8.74952V8.75314V8.75676V8.76038V8.764V8.76763V8.77125V8.77488V8.7785V8.78213V8.78576V8.78939V8.79302V8.79665V8.80029V8.80392V8.80756V8.8112V8.81484V8.81848V8.82212V8.82576V8.8294V8.83305V8.83669V8.84034V8.84399V8.84764V8.85129V8.85494V8.85859V8.86224V8.8659V8.86956V8.87321V8.87687V8.88053V8.88419V8.88785V8.89151V8.89518V8.89884V8.90251V8.90617V8.90984V8.91351V8.91718V8.92085V8.92452V8.9282V8.93187V8.93554V8.93922V8.9429V8.94657V8.95025V8.95393V8.95761V8.9613V8.96498V8.96866V8.97235V8.97603V8.97972V8.98341V8.9871V8.99078V8.99447V8.99817V9.00186V9.00555V9.00924V9.01294V9.01663V9.02033V9.02403V9.02773V9.03143V9.03513V9.03883V9.04253V9.04623V9.04993V9.05364V9.05734V9.06105V9.06476V9.06846V9.07217V9.07588V9.07959V9.0833V9.08701V9.09073V9.09444V9.09815V9.10187V9.10558V9.1093V9.11301V9.11673V9.12045V9.12417V9.12789V9.13161V9.13533V9.13905V9.14278V9.1465V9.15022V9.15395V9.15767V9.1614V9.16512V9.16885V9.17258V9.17631V9.18004V9.18377V9.1875V9.19123V9.19496V9.19869V9.20243V9.20616V9.20989V9.21363V9.21736V9.2211V9.22484V9.22857V9.23231V9.23605V9.23979V9.24353V9.24727V9.25101V9.25475V9.25849V9.26223V9.26598V9.26972V9.27346V9.27721V9.28095V9.2847V9.28844V9.29219V9.29594V9.29968V9.30343V9.30718V9.31093V9.31467V9.31842V9.32217V9.32592V9.32967V9.33343V9.33718V9.34093V9.34468V9.34843V9.35219V9.35594V9.35969V9.36345V9.3672V9.37096V9.37471V9.37847V9.38222V9.38598V9.38974V9.39349V9.39725V9.40101V9.40477V9.40853V9.41228V9.41604V9.4198V9.42356V9.42732V9.43108V9.43484V9.4386V9.44236V9.44612V9.44989V9.45365V9.45741V9.46117V9.46493V9.4687V9.47246V9.47622V9.47999V9.48375V9.48751V9.49128V9.49504V9.4988V9.50257V9.50633V9.5101V9.51386V9.51763V9.52139V9.52516V9.52892V9.53269V9.53645V9.54022V9.54399V9.54775V9.55152V9.55528V9.55905V9.56282V9.56658V9.57035V9.57412V9.57788V9.58165V9.58542V9.58918V9.59295V9.59672V9.60048V9.60425V9.60802V9.61179V9.61555V9.61932V9.62309V9.62685V9.63062V9.63439V9.63815V9.64192V9.64569V9.64946V9.65322V9.65699V9.66076V9.66452V9.66829V9.67206V9.67582V9.67959V9.68335V9.68712V9.69089V9.69465V9.69842V9.70218V9.70595V9.70972V9.71348V9.71725V9.72101V9.72478V9.72854V9.73231V9.73607V9.73983V9.7436V9.74736V9.75113V9.75489V9.75865V9.76242V9.76618V9.76994V9.7737V9.77747V9.78123V9.78499V9.78875V9.79251V9.79628V9.80004V9.8038V9.80756V9.81132V9.81508V9.81884V9.8226V9.82635V9.83011V9.83387V9.83763V9.84139V9.84514V9.8489V9.85266V9.85641V9.86017V9.86393V9.86768V9.87144V9.87519V9.87894V9.8827V9.88645V9.89021V9.89396V9.89771V9.90146V9.90521V9.90896V9.91271V9.91647V9.92021V9.92396V9.92771V9.93146V9.93521V9.93896V9.9427V9.94645V9.9502V9.95394V9.95769V9.96143V9.96518V9.96892V9.97266V9.97641V9.98015V9.98389V9.98763V9.99137V9.99511V9.99885V10.0026V10.0063V10.0101V10.0138V10.0175V10.0213V10.025V10.0287V10.0325V10.0362V10.0399V10.0437V10.0474V10.0511V10.0549V10.0586V10.0623V10.0661V10.0698V10.0735V10.0772V10.081V10.0847V10.0884V10.0921V10.0959V10.0996V10.1033V10.107V10.1107V10.1145V10.1182V10.1219V10.1256V10.1293V10.1331V10.1368V10.1405V10.1442V10.1479V10.1516V10.1553V10.159V10.1628V10.1665V10.1702V10.1739V10.1776V10.1813V10.185V10.1887V10.1924V10.1961V10.1998V10.2035V10.2072V10.2109V10.2146V10.2183V10.222V10.2257V10.2294V10.2331V10.2368V10.2405V10.2442V10.2479V10.2515V10.2552V10.2589V10.2626V10.2663V10.27V10.2737V10.2773V10.281V10.2847V10.2884V10.2921V10.2957V10.2994V10.3031V10.3068V10.3104V10.3141V10.3178V10.3215V10.3251V10.3288V10.3325V10.3361V10.3398V10.3435V10.3471V10.3508V10.3544V10.3581V10.3618V10.3654V10.3691V10.3727V10.3764V10.38V10.3837V10.3874V10.391V10.3947V10.3983V10.4019V10.4056V10.4092V10.4129V10.4165V10.4202V10.4238V10.4274V10.4311V10.4347V10.4384V10.442V10.4456V10.4492V10.4529V10.4565V10.4601V10.4638V10.4674V10.471V10.4746V10.4783V10.4819V10.4855V10.4891V10.4927V10.4963V10.5V10.5036V10.5072V10.5108V10.5144V10.518V10.5216V10.5252V10.5288V10.5324V10.536V10.5396V10.5432V10.5468V10.5504V10.554V10.5576V10.5612V10.5635C9.15372 12.1676 9.27806 13.8297 9.40126 15.4152V15.4162V15.418V15.4198V15.4216V15.4234V15.4251V15.4269V15.4287V15.4305V15.4322V15.434V15.4358V15.4375V15.4393V15.4411V15.4429V15.4446V15.4464V15.4481V15.4499V15.4517V15.4534V15.4552V15.4569V15.4587V15.4604V15.4622V15.4639V15.4657V15.4674V15.4692V15.4709V15.4727V15.4744V15.4762V15.4779V15.4797V15.4814V15.4831V15.4849V15.4866V15.4883V15.4901V15.4918V15.4935V15.4953V15.497V15.4987V15.5004V15.5022V15.5039V15.5056V15.5073V15.5091V15.5108V15.5125V15.5142V15.5159V15.5177V15.5194V15.5211V15.5228V15.5245V15.5262V15.5279V15.5296V15.5313V15.5331V15.5348V15.5365V15.5382V15.5399V15.5416V15.5433V15.545V15.5467V15.5484V15.5501V15.5518V15.5535V15.5551V15.5568V15.5585V15.5602V15.5619V15.5636V15.5653V15.567V15.5687V15.5704V15.572V15.5737V15.5754V15.5771V15.5788V15.5805V15.5821V15.5838V15.5855V15.5872V15.5888V15.5905V15.5922V15.5939V15.5955V15.5972V15.5989V15.6006V15.6022V15.6039V15.6056V15.6072V15.6089V15.6106V15.6122V15.6139V15.6156V15.6172V15.6189V15.6205V15.6222V15.6239V15.6255V15.6272V15.6288V15.6305V15.6322V15.6338V15.6355V15.6371V15.6388V15.6404V15.6421V15.6437V15.6454V15.647V15.6487V15.6503V15.652V15.6536V15.6553V15.6569V15.6586V15.6602V15.6619V15.6635V15.6652V15.6668V15.6684V15.6701V15.6717V15.6734V15.675V15.6767V15.6783V15.6799V15.6816V15.6832V15.6848V15.6865V15.6881V15.6898V15.6914V15.693V15.6947V15.6963V15.6979V15.6996V15.7012V15.7028V15.7045V15.7061V15.7077V15.7094V15.711V15.7126V15.7142V15.7159V15.7175V15.7191V15.7208V15.7224V15.724V15.7256V15.7273V15.7289V15.7305V15.7321V15.7338V15.7354V15.737V15.7386V15.7403V15.7419V15.7435V15.7451V15.7468V15.7484V15.75V15.7516V15.7533V15.7549V15.7565V15.7581V15.7597V15.7614V15.763V15.7646V15.7662V15.7678V15.7695V15.7711V15.7727V15.7743V15.7759V15.7775V15.7792V15.7808V15.7824V15.784V15.7856V15.7872V15.7889V15.7905V15.7921V15.7937V15.7953V15.7969V15.7986V15.8002V15.8018V15.8034V15.805V15.8066V15.8083V15.8099V15.8115V15.8131V15.8147V15.8163V15.8179V15.8196V15.8212V15.8228V15.8244V15.826V15.8276V15.8292V15.8309V15.8325V15.8341V15.8357V15.8373V15.8389V15.8405V15.8422V15.8438V15.8454V15.847V15.8486V15.8502V15.8518V15.8535V15.8551V15.8567V15.8583V15.8599V15.8615V15.8632V15.8648V15.8664V15.868V15.8696V15.8712V15.8728V15.8745V15.8761V15.8777V15.8793V15.8809V15.8825V15.8842V15.8858V15.8874V15.889V15.8906V15.8922V15.8939V15.8955V15.8971V15.8987V15.9003V15.902V15.9036V15.9052V15.9068V15.9084V15.9101V15.9117V15.9133V15.9149V15.9165V15.9182V15.9198V15.9214V15.923V15.9247V15.9263V15.9279V15.9295V15.9312V15.9328V15.9344V15.936V15.9376V15.9393V15.9409V15.9425V15.9442V15.9458V15.9474V15.949V15.9507V15.9523V15.9539V15.9556V15.9572V15.9588V15.9604V15.9621V15.9637V15.9653V15.967V15.9686V15.9702V15.9719V15.9735V15.9751V15.9768V15.9784V15.9801V15.9817V15.9833V15.985V15.9866V15.9882V15.9899V15.9915V15.9932V15.9948V15.9964V15.9981V15.9997V16.0014V16.003V16.0047V16.0063V16.0079V16.0096V16.0112V16.0129V16.0145V16.0162V16.0178V16.0195V16.0211V16.0228V16.0244V16.0261V16.0277V16.0294V16.0311V16.0327V16.0344V16.036V16.0377V16.0393V16.041V16.0426V16.0443V16.046V16.0476V16.0493V16.051V16.0526V16.0543V16.0559V16.0576V16.0593V16.0609V16.0626V16.0643V16.0659V16.0676V16.0693V16.071V16.0726V16.0743V16.076V16.0777V16.0793V16.081V16.0827V16.0844V16.086V16.0877V16.0894V16.0911V16.0928V16.0945V16.0961V16.0978V16.0995V16.1012V16.1029V16.1046V16.1063V16.1079V16.1096V16.1113V16.113V16.1147V16.1164V16.1181V16.1198V16.1215V16.1232V16.1249V16.1266V16.1283V16.13V16.1317V16.1334V16.1351V16.1368V16.1385V16.1402V16.142V16.1437V16.1454V16.1471V16.1488V16.1505V16.1522V16.154V16.1557V16.1574V16.1591V16.1608V16.1626V16.1643V16.166V16.1677V16.1695V16.1712V16.1729V16.1746V16.1764V16.1781V16.1798V16.1816V16.1833V16.185V16.1868V16.1885V16.1903V16.192V16.1937V16.1955V16.1972V16.199V16.2007V16.2025V16.2042V16.206V16.2077V16.2095V16.2112V16.213V16.2148V16.2165V16.2183V16.22V16.2218V16.2236V16.2253V16.2271V16.2289V16.2306V16.2324V16.2342V16.2359V16.2377V16.2395V16.2413V16.243V16.2448V16.2466V16.2484V16.2502V16.252V16.2537V16.2555V16.2573V16.2591V16.2609V16.2627C9.40126 16.6488 9.4649 17.1554 9.59264 17.6038C9.63249 17.8425 9.67203 18.1295 9.71215 18.4207C9.73291 18.5714 9.75382 18.7232 9.77501 18.87L9.78317 18.9266L9.81509 18.974C9.8542 19.032 9.87626 19.0927 9.89605 19.1711C9.90065 19.1893 9.90587 19.2124 9.91176 19.2385C9.92683 19.3053 9.9463 19.3915 9.97111 19.4652L10.099 19.845L10.3839 19.5631C10.5647 19.3841 10.7307 19.2347 10.9011 19.0814L10.9026 19.08C11.0719 18.9277 11.2458 18.7713 11.4356 18.5834C11.6863 18.3352 11.9206 18.104 12.1511 17.9329C12.2813 17.8362 12.3948 17.74 12.5017 17.6492L12.504 17.6473C12.613 17.5549 12.7153 17.4682 12.8316 17.3819L12.8458 17.3713L12.8584 17.3588C12.9183 17.2996 12.9705 17.2451 13.0202 17.1933C13.0886 17.1221 13.1521 17.0559 13.2238 16.9894C13.3388 16.8827 13.4206 16.8301 13.4778 16.8134C13.9197 16.7371 14.1507 16.5084 14.338 16.323L14.3431 16.3179C14.4704 16.1919 14.6386 16.0267 14.7999 15.9203L14.8135 15.9113L14.8258 15.9006C15.1653 15.6066 15.5293 15.3461 15.8919 15.0865C16.0481 14.9747 16.2041 14.8631 16.3578 14.749L16.3579 14.7492L16.3661 14.7426C16.6126 14.5429 16.8548 14.3391 17.0977 14.1347C17.5384 13.7638 17.9812 13.3912 18.4557 13.0386C18.5374 12.9844 18.6696 12.89 18.818 12.7841C18.8492 12.7618 18.8811 12.739 18.9134 12.716C19.1069 12.5781 19.3201 12.4275 19.5015 12.3078L19.5016 12.308L19.5111 12.3011L20.6865 11.4439L20.9775 11.2316L20.6769 11.0332C20.3081 10.7899 19.9544 10.5464 19.5983 10.3012L19.5975 10.3006C19.2429 10.0565 18.8861 9.81081 18.5135 9.56492C18.0996 9.2815 17.6721 9.04677 17.254 8.82454C17.1841 8.78736 17.1145 8.75059 17.0453 8.71402C16.6975 8.53019 16.3593 8.35141 16.0311 8.15156C15.4697 7.79833 14.8234 7.56291 14.1907 7.33242C14.0254 7.27222 13.8611 7.21235 13.6994 7.15081L13.6891 7.14689L13.6785 7.14389C13.5174 7.09833 13.3446 7.06007 13.1781 7.0232C13.1128 7.00875 13.0485 6.99452 12.9863 6.98014C12.7576 6.92733 12.5429 6.86998 12.3471 6.78693L12.3003 6.76708H12.2495H12.2211C11.9851 6.70205 11.7507 6.62299 11.5057 6.54035C11.4179 6.51072 11.3286 6.48062 11.2375 6.45056C10.8866 6.33478 10.5159 6.22261 10.125 6.15812ZM9.73744 7.33296L9.73718 7.33346L9.73744 7.33296ZM11.0457 9.28256C11.0457 9.1611 11.0457 9.04072 11.0467 8.92064C11.212 8.92224 11.3737 8.9303 11.4907 8.96891L11.4907 8.96902L11.4979 8.97115L13.3538 9.52222L13.3649 9.52554L13.3764 9.5278C13.5176 9.55576 13.661 9.59814 13.8177 9.64468L13.823 9.64624C13.9695 9.68974 14.1281 9.73685 14.289 9.76965C14.3299 9.78297 14.3699 9.79549 14.4091 9.80772C14.562 9.85544 14.7009 9.8988 14.8147 9.9689C14.8236 9.97758 14.833 9.9865 14.8419 9.99447C14.8582 10.009 14.8854 10.0317 14.9225 10.05C14.9755 10.0763 15.0299 10.0824 15.0635 10.0836C15.2707 10.1393 15.4846 10.244 15.7267 10.3638L15.7359 10.3684L15.7456 10.3722C16.2365 10.5666 16.7266 10.8402 17.1999 11.1044C17.3045 11.1628 17.4083 11.2207 17.5112 11.2773L17.511 11.2775L17.5207 11.2823C17.5219 11.2828 17.523 11.2834 17.5241 11.284L16.9794 11.6761C16.9087 11.6926 16.8461 11.7277 16.7957 11.7798C16.7498 11.8272 16.7225 11.8807 16.7065 11.9183C16.6305 11.9292 16.5566 11.9528 16.4886 11.9976C16.4077 12.051 16.3563 12.1212 16.3203 12.184L15.9822 12.4708C15.9475 12.4793 15.8987 12.4981 15.855 12.5414C15.8428 12.5535 15.8324 12.566 15.8237 12.5786C15.6725 12.638 15.5427 12.7127 15.4143 12.8399L15.3401 12.9132V12.9745L15.3016 13.0126L14.7686 13.4229C14.5946 13.5285 14.4429 13.6635 14.3059 13.7916C14.2751 13.8204 14.2451 13.8487 14.2156 13.8766C14.1615 13.9278 14.109 13.9774 14.0562 14.0253L14.0338 14.0032L13.831 13.8025L13.6587 14.0299C13.4875 14.2559 13.3188 14.4228 13.0903 14.5925L13.0559 14.618L13.032 14.6535L12.9826 14.7269H12.6932L12.8668 14.8987L12.8656 14.9005V14.9069C12.5634 15.0389 12.2444 15.2415 12.0392 15.5763C11.9943 15.6421 11.9501 15.6862 11.9003 15.7293C11.8881 15.7398 11.8726 15.7526 11.8551 15.7671C11.8133 15.8017 11.7599 15.8458 11.713 15.891L11.4138 16.1279L11.3707 16.1621L11.3459 16.2112C11.3298 16.2429 11.3173 16.2676 11.3047 16.2896C11.2975 16.3022 11.2915 16.3117 11.2866 16.3188H11.2188L11.1918 16.3455C11.1827 16.2914 11.1682 16.2484 11.158 16.2184L11.1564 16.2135C11.1463 16.1836 11.1418 16.1684 11.1398 16.157C11.1704 15.9875 11.1691 15.8362 11.1613 15.6976C11.1584 15.6445 11.1548 15.5963 11.1513 15.5501C11.1446 15.4605 11.1385 15.3784 11.1385 15.283V15.2673L11.1366 15.2517C11.1197 15.1184 11.0998 14.991 11.0804 14.8669C11.0314 14.5528 10.9855 14.2593 11.0005 13.9411H11.0292L11.0144 13.6771L10.9525 12.5749L10.9526 12.5749L10.9521 12.568C10.8923 11.858 10.9518 11.1437 11.0138 10.4688L11.0138 10.4688L11.014 10.4653C11.0457 10.0576 11.0457 9.66679 11.0457 9.28674V9.28256ZM15.4914 12.951C15.4957 12.9505 15.4968 12.9506 15.4932 12.9509L15.4914 12.951Z" fill="white" stroke="white" stroke-width="0.5"/>
<path d="M25.3092 12.5487C25.3153 12.4639 25.3133 12.3686 25.3048 12.2628C25.3822 12.2587 25.4607 12.2328 25.5334 12.1711C25.6037 12.1115 25.6439 12.0357 25.6691 11.9753C25.6938 11.9161 25.7124 11.8509 25.728 11.7898C25.7736 11.646 25.7676 11.4825 25.7514 11.3463C25.734 11.2 25.7 11.0499 25.6682 10.9242L25.6684 10.9242L25.666 10.9161C25.5604 10.5502 25.5527 10.3353 25.5522 10.1702C25.6016 10.0315 25.6465 9.95548 25.7254 9.87734C25.8206 9.78311 25.9019 9.65258 25.9149 9.47273C25.927 9.30496 25.8774 9.12255 25.7761 8.92018C25.5874 8.48528 25.3379 7.99149 25.088 7.55827C24.3302 6.1222 23.2574 4.81052 21.993 3.80933L21.9855 3.80341C21.686 3.56625 21.3707 3.31658 21.0517 3.12536C20.786 2.91776 20.5136 2.78795 20.2383 2.65678C20.1693 2.62391 20.1002 2.59096 20.0309 2.55668C19.8557 2.46996 19.6406 2.37021 19.4142 2.2652L19.3602 2.24016C19.1343 2.13536 18.8979 2.02528 18.6727 1.915C18.6291 1.85387 18.5707 1.80009 18.4887 1.76763C18.4177 1.73952 18.3418 1.7352 18.2897 1.73471L17.4001 1.44121C17.0142 1.31391 16.6923 1.25018 16.3842 1.18919L16.3805 1.18846L16.3805 1.18846L16.3787 1.18811C14.7394 0.876095 12.9785 0.876628 11.3453 1.12532L11.3438 1.12555C10.0192 1.33532 8.82485 1.80984 7.645 2.27861C7.41714 2.36915 7.18981 2.45946 6.96219 2.54762L6.94899 2.55273L6.93645 2.5593C5.87334 3.11636 4.85066 3.86819 4.19912 4.82452L4.17483 4.84856C3.98036 4.97312 3.88256 5.13429 3.81657 5.25674C3.80424 5.27963 3.79406 5.29904 3.78508 5.31616C3.76658 5.35143 3.75317 5.37699 3.73658 5.40316C3.72464 5.422 3.71556 5.43333 3.70893 5.44028C3.53963 5.51215 3.4097 5.60434 3.3042 5.71826C3.27045 5.7547 3.24002 5.79251 3.21218 5.83114L3.20301 5.81723L3.01742 5.93969L3.08439 6.04118C3.07457 6.0598 3.06502 6.07838 3.05569 6.09686C2.96719 6.27205 2.8632 6.44867 2.75414 6.63371L2.75204 6.63727C2.65672 6.79899 2.55753 6.9673 2.46875 7.13731C2.34645 7.23038 2.30602 7.35763 2.29277 7.44894C2.07979 7.67806 1.91361 7.94889 1.79264 8.25811L1.75656 8.23988L1.6947 8.36234L1.74528 8.38789C1.74444 8.39035 1.74361 8.39281 1.74278 8.39527L1.7297 8.4341V8.47507V8.50521L1.67545 8.71999L1.66784 8.75013V8.78121C1.66784 8.79027 1.66677 8.79407 1.66665 8.79447L1.66665 8.79448C1.66658 8.79473 1.6665 8.79521 1.66539 8.79703C1.66397 8.79938 1.66066 8.80423 1.65293 8.81289C1.6445 8.82235 1.63464 8.83222 1.61825 8.84844L1.58932 8.87707L1.57097 8.9134C1.43607 9.18045 1.36847 9.44548 1.30841 9.68329C1.18271 9.99748 1.11853 10.2513 1.05784 10.4916C0.802244 11.3799 0.801895 12.3204 0.861953 13.2342L0.806711 13.5076L0.801758 13.5321V13.5571C0.801758 13.8874 0.866909 14.2728 0.931596 14.5308C0.961623 14.6798 0.991762 14.8438 1.02239 15.0105L1.02263 15.0118C1.05177 15.1705 1.08136 15.3316 1.11107 15.4801V15.4802V15.4804V15.4807V15.4809V15.4812V15.4814V15.4817V15.4819V15.4821V15.4824V15.4826V15.4829V15.4831V15.4833V15.4836V15.4838V15.4841V15.4843V15.4845V15.4848V15.485V15.4852V15.4854V15.4857V15.4859V15.4861V15.4863V15.4866V15.4868V15.487V15.4872V15.4874V15.4877V15.4879V15.4881V15.4883V15.4885V15.4887V15.4889V15.4892V15.4894V15.4896V15.4898V15.49V15.4902V15.4904V15.4906V15.4908V15.491V15.4912V15.4914V15.4916V15.4918V15.492V15.4922V15.4924V15.4926V15.4928V15.4929V15.4931V15.4933V15.4935V15.4937V15.4939V15.4941V15.4942V15.4944V15.4946V15.4948V15.495V15.4951V15.4953V15.4955V15.4957V15.4958V15.496V15.4962V15.4964V15.4965V15.4967V15.4969V15.497V15.4972V15.4974V15.4975V15.4977V15.4979V15.498V15.4982V15.4983V15.4985V15.4987V15.4988V15.499V15.4991V15.4993V15.4994V15.4996V15.4997V15.4999V15.5V15.5002V15.5003V15.5005V15.5006V15.5008V15.5009V15.5011V15.5012V15.5013V15.5015V15.5016V15.5018V15.5019V15.502V15.5022V15.5023V15.5024V15.5026V15.5027V15.5028V15.503V15.5031V15.5032V15.5034V15.5035V15.5036V15.5037V15.5039V15.504V15.5041V15.5042V15.5044V15.5045V15.5046V15.5047V15.5048V15.505V15.5051V15.5052V15.5053V15.5054V15.5055V15.5056V15.5058V15.5059V15.506V15.5061V15.5062V15.5063V15.5064V15.5065V15.5066V15.5067V15.5068V15.5069V15.507V15.5071V15.5072V15.5073V15.5074V15.5075V15.5076V15.5077V15.5078V15.5079V15.508V15.5081V15.5082V15.5083V15.5084V15.5085V15.5086V15.5087V15.5088V15.5089V15.509V15.509V15.5091V15.5092V15.5093V15.5094V15.5095V15.5096V15.5096V15.5097V15.5098V15.5099V15.51V15.51V15.5101V15.5102V15.5103V15.5104V15.5104V15.5105V15.5106V15.5107V15.5107V15.5108V15.5109V15.5109V15.511V15.5111V15.5112V15.5112V15.5113V15.5114V15.5114V15.5115V15.5116V15.5116V15.5117V15.5118V15.5118V15.5119V15.512V15.512V15.5121V15.5121V15.5122V15.5123V15.5123V15.5124V15.5124V15.5125V15.5126V15.5126V15.5127V15.5127V15.5128V15.5128V15.5129V15.5129V15.513V15.513V15.5131V15.5131V15.5132V15.5132V15.5133V15.5133V15.5134V15.5134V15.5135V15.5135V15.5136V15.5136V15.5137V15.5137V15.5138V15.5138V15.5139V15.5139V15.5139V15.514V15.514V15.5141V15.5141V15.5141V15.5142V15.5142V15.5143V15.5143V15.5143V15.5144V15.5144V15.5145V15.5145V15.5145V15.5146V15.5146V15.5146V15.5147V15.5147V15.5147V15.5148V15.5148V15.5148V15.5149V15.5149V15.5149V15.5149V15.515V15.515V15.515V15.5151V15.5151V15.5151V15.5151V15.5152V15.5152V15.5152V15.5153V15.5153V15.5153V15.5153V15.5154V15.5154V15.5154V15.5154V15.5154V15.5155V15.5155V15.5155V15.5155V15.5156V15.5156V15.5156V15.5156V15.5156V15.5157V15.5157V15.5157V15.5157V15.5157V15.5158V15.5158V15.5158V15.5158V15.5158V15.5158V15.5159V15.5159V15.5159V15.5159V15.5159V15.5159V15.5159V15.516V15.516V15.516V15.516V15.516V15.516V15.516V15.516V15.5161V15.5161V15.5161V15.5161V15.5161V15.5161V15.5161V15.5161V15.5161V15.5162V15.5162V15.5162V15.5162V15.5162V15.5162V15.5162V15.5162V15.5162V15.5162V15.5162V15.5162V15.5163V15.5163V15.5163V15.5163V15.5163V15.5163V15.5163V15.5163V15.5164V15.5164V15.5164V15.5164V15.5164V15.5164V15.5164V15.5164V15.5164V15.5164V15.5622L1.12729 15.605L1.17294 15.7255V16.1156L1.28044 16.0092L1.31288 16.0948L1.33215 16.1457L1.3708 16.1839C1.3724 16.1855 1.37806 16.1917 1.38622 16.2036C1.39401 16.2149 1.40183 16.2281 1.40858 16.2414C1.4142 16.2526 1.41805 16.2618 1.42039 16.2682V16.2865L1.4302 16.3205C1.55544 16.7544 1.68056 17.1259 1.74262 17.3102L1.74278 17.3106L1.74849 17.3276L1.75656 17.3436C1.81039 17.4501 1.85351 17.5449 1.89819 17.6431C1.9326 17.7187 1.96794 17.7964 2.00979 17.883C2.09595 18.0613 2.19552 18.2445 2.33132 18.4155C2.42668 18.5713 2.53571 18.7255 2.63903 18.8716L2.64168 18.8753C2.75097 19.0298 2.85392 19.1756 2.94132 19.3198L2.94803 19.3309L2.95585 19.3412L3.51262 20.0759L3.51755 20.0824L3.52289 20.0886C3.69209 20.284 3.86222 20.444 4.0172 20.5898C4.04154 20.6127 4.0655 20.6353 4.08903 20.6575C4.26494 20.8241 4.42065 20.9791 4.56082 21.1734L4.58114 21.2015L4.60835 21.2231C4.75631 21.3402 4.90547 21.473 5.06123 21.6117L5.06415 21.6143C5.21682 21.7503 5.37597 21.8921 5.5363 22.019L5.53619 22.0192L5.54389 22.0248C6.99162 23.0839 8.62657 23.8311 10.323 24.2674C10.6311 24.3677 10.9648 24.3993 11.2552 24.4219C11.2885 24.4246 11.3212 24.427 11.353 24.4295C11.6163 24.4496 11.8294 24.4658 11.9954 24.5128L12.005 24.5155L12.0149 24.5174C12.1826 24.5506 12.3637 24.5669 12.529 24.5818L12.5359 24.5824C12.709 24.598 12.8654 24.6123 13.0047 24.6399L13.0287 24.6447H13.0532H13.055H13.0568H13.0587H13.0605H13.0623H13.0641H13.0659H13.0678H13.0696H13.0714H13.0732H13.0751H13.0769H13.0787H13.0805H13.0824H13.0842H13.0861H13.0879H13.0897H13.0916H13.0934H13.0953H13.0971H13.0989H13.1008H13.1026H13.1045H13.1063H13.1082H13.11H13.1119H13.1138H13.1156H13.1175H13.1193H13.1212H13.123H13.1249H13.1268H13.1286H13.1305H13.1324H13.1342H13.1361H13.138H13.1399H13.1417H13.1436H13.1455H13.1474H13.1492H13.1511H13.153H13.1549H13.1568H13.1586H13.1605H13.1624H13.1643H13.1662H13.1681H13.17H13.1719H13.1738H13.1756H13.1775H13.1794H13.1813H13.1832H13.1851H13.187H13.1889H13.1908H13.1927H13.1946H13.1965H13.1984H13.2004H13.2023H13.2042H13.2061H13.208H13.2099H13.2118H13.2137H13.2156H13.2176H13.2195H13.2214H13.2233H13.2252H13.2271H13.2291H13.231H13.2329H13.2348H13.2368H13.2387H13.2406H13.2425H13.2445H13.2464H13.2483H13.2502H13.2522H13.2541H13.256H13.258H13.2599H13.2618H13.2638H13.2657H13.2677H13.2696H13.2715H13.2735H13.2754H13.2774H13.2793H13.2812H13.2832H13.2851H13.2871H13.289H13.291H13.2929H13.2949H13.2968H13.2988H13.3007H13.3027H13.3046H13.3066H13.3085H13.3105H13.3124H13.3144H13.3163H13.3183H13.3202H13.3222H13.3242H13.3261H13.3281H13.33H13.332H13.334H13.3359H13.3379H13.3398H13.3418H13.3438H13.3457H13.3477H13.3497H13.3516H13.3536H13.3556H13.3575H13.3595H13.3615H13.3634H13.3654H13.3674H13.3694H13.3713H13.3733H13.3753H13.3772H13.3792H13.3812H13.3832H13.3851H13.3871H13.3891H13.3911H13.393H13.395H13.397H13.399H13.401H13.4029H13.4049H13.4069H13.4089H13.4109H13.4128H13.4148H13.4168H13.4188H13.4208H13.4227H13.4247H13.4267H13.4287H13.4307H13.4327H13.4346H13.4366H13.4386H13.4406H13.4426H13.4446H13.4466H13.4485H13.4505H13.4525H13.4545H13.4565H13.4585H13.4605H13.4625H13.4644H13.4664H13.4684H13.4704H13.4724H13.4744H13.4764H13.4784H13.4804H13.4824H13.4843H13.4863H13.4883H13.4903H13.4923H13.4943H13.4963H13.4983H13.5003H13.5023H13.5043H13.5063H13.5082H13.5102H13.5122H13.5142H13.5162H13.5182H13.5202H13.5222H13.5242H13.5262H13.5282H13.5302H13.5322H13.5342H13.5362H13.5381H13.5401H13.5421H13.5441H13.5461H13.5481H13.5501H13.5521H13.5541H13.5561H13.5581H13.5601H13.5621H13.5641H13.5661H13.568H13.57H13.572H13.574H13.576H13.578H13.58H13.582H13.584H13.586H13.588H13.59H13.592H13.594H13.5959H13.5979H13.5999H13.6019H13.6039H13.6059H13.6079H13.6099H13.6119H13.6139H13.6159H13.6179H13.6198H13.6218H13.6238H13.6258H13.6278H13.6298H13.6318H13.6338H13.6358H13.6377H13.6397H13.6417H13.6437H13.6457H13.6477H13.6497H13.6517H13.6536H13.6556H13.6576H13.6596H13.6616H13.6636H13.6655H13.6675H13.6695H13.6715H13.6735H13.6755H13.6774H13.6794H13.6814H13.6834H13.6854H13.6874H13.6893H13.6913H13.6933H13.6953H13.6972H13.6992H13.7012H13.7032H13.7052H13.7071H13.7091H13.7111H13.7131H13.715H13.717H13.719H13.721H13.7229H13.7249H13.7269H13.7288H13.7308H13.7328H13.7347H13.7367H13.7387H13.7407H13.7426H13.7446H13.7466H13.7485H13.7505H13.7524H13.7544H13.7564H13.7583H13.7603H13.7623H13.7642H13.7662H13.7681H13.7701H13.7721H13.774H13.776H13.7779H13.7799H13.7818H13.7838H13.7858H13.7877H13.7897H13.7916H13.7936H13.7955H13.7975H13.7994H13.8014H13.8033H13.8053H13.8072H13.8092H13.8111H13.813H13.815H13.8169H13.8189H13.8208H13.8228H13.8247H13.8266H13.8286H13.8305H13.8324H13.8344H13.8363H13.8382H13.8402H13.8421H13.844H13.846H13.8479H13.8498H13.8518H13.8537H13.8556H13.8575H13.8595H13.8614H13.8633H13.8652H13.8672H13.8691H13.871H13.8729H13.8748H13.8768H13.8787H13.8806H13.8825H13.8844H13.8863H13.8882H13.8901H13.8921H13.894H13.8959H13.8978H13.8997H13.9016H13.9035H13.9054H13.9073H13.9092H13.9111H13.913H13.9149H13.9168H13.9187H13.9206H13.9225H13.9244H13.9263H13.9281H13.93H13.9319H13.9338H13.9357H13.9376H13.9395H13.9413H13.9432H13.9451H13.947H13.9489H13.9507H13.9526H13.9545H13.9564H13.9582H13.9601H13.962H13.9638H13.9657H13.9676H13.9694H13.9713H13.9732H13.975H13.9769H13.9788H13.9806H13.9825H13.9843H13.9862H13.988H13.9899H13.9917H13.9936H13.9954H13.9973H13.9991H14.001H14.0028H14.0047H14.0065H14.0083H14.0102H14.012H14.0138H14.0157H14.0175H14.0193H14.0212H14.023H14.0248H14.0266H14.0285H14.0303H14.0321H14.0339H14.0358H14.0376H14.0394H14.0412H14.043C15.3169 24.6447 16.4734 24.3578 17.6454 24.0671C17.7018 24.0531 17.7583 24.039 17.8149 24.0251L18.0048 23.9781V23.9258C18.3075 23.8307 18.5872 23.7079 18.8679 23.5846C18.959 23.5446 19.0502 23.5045 19.1423 23.4654C19.5415 23.3319 19.9905 23.0759 20.364 22.8297C21.868 21.8989 23.2569 20.7139 24.271 19.2092C25.4148 17.5732 25.9837 15.6274 26.0469 13.6877L26.047 13.6877V13.6796C26.047 13.426 26.0312 13.2098 25.9981 13.0374C25.9674 12.8773 25.9138 12.7087 25.8028 12.5987C25.7399 12.5366 25.6543 12.4893 25.5501 12.4839C25.456 12.4791 25.3739 12.5098 25.3092 12.5487ZM24.7244 13.0325C24.7615 13.0403 24.8291 13.0545 24.9065 13.049C24.8505 13.1554 24.7913 13.2614 24.7306 13.3703C24.4803 13.8188 24.2032 14.3152 24.008 15.0878L24.0063 15.0948L24.0049 15.1018C23.7636 16.3559 23.2818 17.5456 22.5632 18.5538C21.5943 19.8719 20.3244 21.008 18.8158 21.7844C17.3024 22.5633 15.6711 22.9813 13.9812 22.9813C12.7738 22.9813 11.6232 22.7424 10.4441 22.4967L10.4416 22.4962C10.1369 22.4359 9.91635 22.3797 9.69976 22.2725L9.67535 22.2604L9.64892 22.2539C9.43282 22.2004 9.2105 22.0916 8.9574 21.9664L8.92763 21.9516L8.89506 21.9452C8.17032 21.8017 7.5708 21.3794 6.90402 20.9098C6.77794 20.821 6.64946 20.7305 6.51727 20.6399C5.80142 20.1078 5.20019 19.4545 4.65349 18.733L4.65358 18.733L4.64866 18.7269C4.40398 18.4242 4.22645 18.1893 4.04938 17.8972C3.87705 17.6129 3.764 17.332 3.7082 17.1139C3.6744 16.9486 3.62504 16.7868 3.57887 16.6421C3.56939 16.6124 3.56015 16.5837 3.55119 16.5559C3.5143 16.4413 3.48225 16.3418 3.45936 16.2512C3.42982 16.1342 3.38758 16.017 3.34864 15.9089C3.34187 15.8901 3.3352 15.8716 3.32872 15.8534C3.28309 15.7255 3.24178 15.6016 3.21456 15.4669L3.21284 15.4584L3.21053 15.45L3.02494 14.7765L3.02532 14.7764L3.02085 14.7631C2.99883 14.6977 2.98583 14.6145 2.96982 14.4957C2.96878 14.488 2.96772 14.4801 2.96665 14.472C2.95311 14.3709 2.93693 14.2501 2.90733 14.1274C2.78946 12.8779 2.91045 11.5666 3.2119 10.3732L3.21193 10.3732L3.21284 10.3693C3.63374 8.58397 4.59677 6.97189 5.92749 5.65423C7.50189 4.15656 9.55501 3.08379 11.7807 2.84564L11.7807 2.84572L11.7868 2.84491C12.6907 2.72563 13.66 2.72474 14.5752 2.78475C15.4914 2.90602 16.3908 3.08602 17.2241 3.4395L17.2241 3.43957L17.2297 3.4418C18.7615 4.04823 20.2054 4.82686 21.2816 6.0104L21.2825 6.01132C21.8982 6.68167 22.4995 7.39798 22.9173 8.16593L22.9349 8.19826L22.961 8.22414L22.9973 8.26003C23.6374 9.42784 23.8784 10.778 24.0005 12.1601C24.0017 12.4458 24.0485 12.679 24.1672 12.8356C24.2318 12.9209 24.3181 12.9832 24.4215 13.0105C24.499 13.0309 24.5742 13.0287 24.6417 13.0143C24.6432 13.0146 24.6449 13.0149 24.6466 13.0153C24.6624 13.0185 24.6706 13.0204 24.6806 13.0227C24.6904 13.025 24.702 13.0277 24.7244 13.0325Z" fill="white" stroke="white" stroke-width="0.5"/>
</svg>
