<svg width="48" height="48" viewBox="0 0 48 48" fill="none" xmlns="http://www.w3.org/2000/svg">
<path fill-rule="evenodd" clip-rule="evenodd" d="M48 24C48 37.2548 37.2548 48 24 48C10.7452 48 0 37.2548 0 24C0 10.7452 10.7452 0 24 0C37.2548 0 48 10.7452 48 24ZM16.9578 16.5242C17.2537 16.2284 17.7333 16.2284 18.0292 16.5242L24.1004 22.5955L30.1717 16.5242C30.4676 16.2284 30.9472 16.2284 31.2431 16.5242C31.5389 16.8201 31.5389 17.2997 31.2431 17.5956L25.1718 23.6668L31.2428 29.7378C31.5386 30.0337 31.5386 30.5133 31.2428 30.8092C30.9469 31.1051 30.4673 31.1051 30.1714 30.8092L24.1004 24.7382L18.0295 30.8092C17.7336 31.1051 17.2539 31.1051 16.9581 30.8092C16.6622 30.5133 16.6622 30.0337 16.9581 29.7378L23.0291 23.6668L16.9578 17.5956C16.662 17.2997 16.662 16.8201 16.9578 16.5242Z" fill="white"/>
</svg>
