<svg width="63" height="49" viewBox="0 0 63 49" fill="none" xmlns="http://www.w3.org/2000/svg">
<path d="M65.0576 71.5342L66.4733 70.8136L64.1137 67.6071L65.4493 66.7515C65.0576 66.0129 65.3501 65.468 66.2279 65.432C67.1502 65.3539 68.0797 65.4301 68.9745 65.6571C70.8386 66.2381 72.4289 67.1298 73.2548 69.0663C73.8777 70.5299 75.0056 71.7684 75.7559 73.2185C75.9009 73.5094 75.983 73.8252 75.9976 74.147C76.0122 74.4688 75.9589 74.7901 75.8409 75.0919C75.5465 75.6782 75.1123 76.1906 74.5731 76.5879C74.0338 76.9852 73.4045 77.2564 72.7357 77.3797C71.3435 77.6544 70.4752 77.0645 69.9042 75.799C69.537 75.1579 69.1021 74.5543 68.6064 73.9976L64.8735 76.3349C64.8169 76.3754 64.7461 76.434 64.7367 76.4925C64.4488 77.9832 62.9245 77.8886 61.9382 78.4695C61.4446 78.7804 60.9159 79.0373 60.362 79.2351C59.0878 79.6495 57.8042 80.0323 56.5017 80.361C55.3361 80.6582 55.0435 79.672 54.614 79.01C54.2648 78.4741 54.2365 77.9021 54.9632 77.4923C55.69 77.0825 56.4923 76.5466 57.1813 76.1142C57.0774 75.3711 57.0255 74.7181 56.8839 74.0787C56.8242 73.7135 56.661 73.3709 56.412 73.0879C55.1614 71.908 53.8967 70.7416 52.5753 69.6427C50.2216 67.6918 48.4653 65.1692 47.4928 62.3426C47.1247 61.3158 46.2233 60.4511 45.4966 59.5639C45.0813 59.0595 44.8689 58.2579 43.8685 58.4065C43.6561 58.4381 43.3965 58.0643 43.0284 57.7986C42.6934 59.9062 41.641 61.9102 42.6934 64.0089C43.1145 64.7472 43.6108 65.4441 44.1752 66.0895C45.4824 67.7513 46.9076 69.341 48.111 71.0703C49.3829 72.8791 50.0523 75.0124 50.0317 77.1906C50.0317 80.4105 50.0695 83.6395 49.9656 86.8595C49.791 92.4123 48.8094 97.866 47.606 103.288C46.7991 106.891 46.1242 110.494 45.3833 114.124C45.1002 115.524 44.7226 116.911 44.548 118.321C44.4206 119.379 43.8118 119.852 42.8585 120.1C41.9053 120.347 41.6504 120.834 42.0233 121.716C42.123 122.075 42.1375 122.451 42.0657 122.815C41.943 124.054 41.4805 125.355 41.7354 126.513C41.9713 127.567 42.9199 128.503 43.6514 129.426C44.3828 130.35 45.2087 131.007 45.8694 131.876C48.0921 134.795 46.9642 138.677 42.8066 139.172C41.5472 139.332 40.2669 139.248 39.0424 138.924C37.818 138.601 36.6745 138.045 35.6807 137.29C33.8449 135.938 32.264 134.268 30.6264 132.786C31.1786 133.961 31.7118 135.317 32.4339 136.578C32.9687 137.566 33.1885 138.683 33.0663 139.789C32.9813 141.352 32.0044 142.086 30.584 142.532C27.4268 143.531 24.8785 142.829 22.7643 140.343C21.4807 138.83 20.1215 137.371 18.9323 135.794C18.3946 135.059 18.0498 134.211 17.9271 133.322C17.6062 130.723 17.4175 128.111 17.2476 125.504C17.2145 125.031 17.5826 124.549 17.6676 124.058C17.7056 123.609 17.7056 123.157 17.6676 122.707C15.4873 122.113 15.5156 122.059 15.2136 120.091C14.7417 116.893 14.1471 113.714 13.5855 110.525C12.4246 103.919 10.1594 97.5508 8.30944 91.0838C7.44112 88.0034 6.52088 84.9365 5.70446 81.8472C4.88804 78.7578 5.51097 75.6954 6.95976 72.8177C6.99287 72.7379 7.01661 72.6548 7.03055 72.57C5.4685 71.1604 3.81679 69.8679 2.41991 68.3682C-0.0340639 65.7292 -0.539016 62.6488 0.532238 59.2802C1.09854 57.5238 1.51383 55.727 1.9999 53.9526C1.9999 53.9166 2.04709 53.8805 2.03766 53.8535C1.23068 51.228 3.31183 49.3815 4.15657 47.2379C5.01062 44.957 6.42496 42.9047 8.28113 41.2528C10.7587 39.1136 13.7837 38.0102 16.9361 37.1726C18.5123 36.7538 20.1263 36.4565 21.6836 35.9837C23.4769 35.4343 23.8167 34.7858 23.4344 33.0609C23.0105 33.2199 22.5444 33.2458 22.104 33.1349C21.6636 33.0239 21.2717 32.7819 20.9852 32.4439C20.6082 32.17 20.1875 31.9556 19.7393 31.809C19.6449 31.7639 19.5081 31.809 19.4184 31.7549C17.8847 30.9083 16.3462 30.0706 14.8313 29.2014C14.3846 28.9132 13.9545 28.602 13.543 28.2692C13.3448 28.1206 13.0711 28.008 12.9626 27.8189C12.3396 26.4678 11.2259 25.423 10.6407 23.9774C10.0036 22.4057 9.76767 20.7889 9.32879 19.2037C9.10196 18.1652 9.08913 17.0945 9.29104 16.0513C9.54115 14.385 9.99419 12.7502 10.3623 11.0974C10.3953 10.9623 10.3623 10.7912 10.4614 10.6966C11.5468 9.42664 11.6034 7.59372 13.2174 6.57143C14.4255 5.80134 15.3788 4.66646 16.4783 3.72523C16.7721 3.53826 17.0892 3.38697 17.4222 3.27488C18.0215 2.99116 18.6209 2.71195 19.2202 2.41922C19.3701 2.31791 19.5279 2.22758 19.6921 2.14901C21.1079 1.72568 22.5755 1.31587 24.0196 0.901549C24.1997 0.87583 24.3748 0.824204 24.5387 0.74843C25.9545 -0.201805 27.677 -0.0531896 29.1729 0.153971C30.8341 0.388152 32.6793 0.0503903 34.1894 1.15825C34.5245 1.40594 35.1333 1.29785 35.558 1.44647C36.9124 1.89682 38.498 2.131 39.5268 2.97315C40.8199 4.02246 42.5235 4.65745 43.2644 6.43633C43.9392 8.03957 45.2276 9.40863 46.2328 10.8858C46.3484 11.0594 46.43 11.2517 46.4734 11.4532C46.733 12.5431 46.5537 13.741 47.4881 14.6642C47.6815 14.8578 47.5447 15.3442 47.5872 15.6865C47.6768 16.362 47.7854 17.0375 47.8798 17.7085C47.9317 18.0778 48.1204 18.5012 48.0025 18.8164C47.5564 20.0908 47.4927 21.4588 47.8184 22.766C47.9175 23.2568 47.6013 23.8288 47.4739 24.3647C47.4739 24.3962 47.422 24.4277 47.422 24.4593C47.422 27.2199 44.9633 28.5124 43.4815 30.3949C43.1039 30.8722 42.3772 31.1424 41.759 31.3991C40.5981 31.881 39.3994 32.2773 38.2243 32.7097C38.1535 32.7322 38.0733 32.7907 38.0167 32.7772C36.129 32.2143 35.2607 33.9391 33.9015 34.5516C33.675 34.6552 33.6656 35.1956 33.5618 35.5198C38.3234 36.2134 42.7311 37.2492 46.7235 39.573C49.6542 41.2978 51.4427 43.8693 52.9953 46.6524C53.6607 47.8278 54.4111 48.9582 55.0907 50.1246C55.2086 50.3318 55.2606 50.7821 55.1426 50.8722C54.5008 51.3631 54.7839 51.8495 54.9302 52.4394C55.2039 53.5518 55.2841 54.6912 55.5295 55.8305C55.6061 56.358 55.8367 56.8543 56.1949 57.2626C58.2667 59.1586 59.4984 61.5049 60.3478 64.0584C60.9566 65.8598 61.5323 67.7017 62.2025 69.4986C62.3346 69.8634 62.7971 70.1516 63.1463 70.3993C63.7268 70.7956 64.3544 71.1334 65.034 71.5387L65.0576 71.5342ZM19.3712 80.6898H19.5364C19.6631 80.0049 19.7435 79.3129 19.777 78.6182C19.7487 75.4657 18.4415 72.7636 16.3273 70.3903C15.5392 69.4896 14.7983 68.5889 14.0196 67.6882C12.4293 65.8598 10.8484 64.0224 9.22497 62.221C8.64588 61.6422 8.03465 61.0935 7.39392 60.5772C7.45527 60.4961 7.51191 60.4106 7.57325 60.325L9.35238 61.2257C10.0697 60.1764 10.8295 59.1316 11.5232 58.0417C11.8441 57.5283 11.5515 57.3797 10.9711 57.2897C9.72354 57.1485 8.49667 56.8735 7.3137 56.47C5.65727 55.826 4.10466 54.9478 2.38216 54.1102C1.87249 56.1638 1.32034 58.2489 0.838985 60.352C0.154704 63.3649 0.838986 65.9904 3.11835 68.2872C5.61764 70.7198 8.38859 72.8838 11.3816 74.7407C13.5855 76.1683 14.9824 77.9607 15.0532 80.5952C15.1268 81.195 15.2628 81.7864 15.459 82.3606L15.9026 82.3155C15.7768 80.6282 15.6478 78.9409 15.5156 77.2536L15.7752 77.1861C16.0478 78 16.27 78.8286 16.4406 79.6675C16.5654 80.4632 16.5654 81.2721 16.4406 82.0678C16.3792 82.4326 15.846 82.7253 15.5298 83.0541C15.2236 82.7613 14.9616 82.4294 14.7511 82.0678C14.6292 81.5971 14.544 81.1185 14.4963 80.6357C14.2603 79.5774 13.9961 78.5281 13.7412 77.4833L13.4439 77.5328C13.0947 79.9827 12.6039 82.3696 10.938 84.3961C10.3623 85.0942 10.8672 86.3642 11.8441 86.846C10.3528 87.1973 11.5232 87.508 11.6742 87.8548C11.5115 88.3139 11.4678 88.8037 11.5468 89.2824C12.4293 93.0698 13.4628 96.8348 14.2273 100.645C15.0862 104.95 15.7421 109.296 16.4123 113.633C16.5004 114.67 16.5083 115.711 16.4359 116.749C16.0111 115.056 15.9026 113.363 15.6289 111.696C14.954 107.58 14.2886 103.459 13.4581 99.3657C12.7832 96.0647 11.8913 92.7996 11.0607 89.5256C10.8573 88.9097 10.6097 88.3078 10.3198 87.7242L9.97531 87.7647L10.7965 87.3864L9.95172 86.7109H10.249C10.3284 86.4383 10.3649 86.1561 10.3576 85.8733C9.82467 82.3781 9.71541 78.8361 10.0319 75.3171C10.0417 74.9597 9.90253 74.6131 9.64497 74.3534C8.98429 73.7904 8.22922 73.3176 7.46471 72.7681C5.94514 75.5288 5.34108 78.393 6.04896 81.2617C7.13909 85.8237 8.57844 90.3137 9.89509 94.8262C10.8625 98.1678 11.9243 101.482 12.8351 104.837C13.4062 106.95 13.8167 109.107 14.2179 111.255C14.7889 114.335 15.341 117.42 15.7799 120.519C15.9073 121.419 16.1291 121.87 17.0966 122.108C21.2447 123.135 25.2796 122.559 29.2767 121.446C29.7955 121.339 30.2702 121.089 30.6431 120.729C31.0159 120.368 31.2709 119.912 31.3768 119.415C31.7567 117.745 32.009 116.05 32.1319 114.344C32.3521 107.982 32.5094 101.617 32.6038 95.2495C32.6462 91.2324 32.4905 87.2153 32.4292 83.1937C32.4292 82.9145 32.4622 82.6308 32.4811 82.347H32.7217C32.8916 83.5179 33.0662 84.6844 33.2739 86.1165L36.1479 83.9323L36.3838 84.225C35.5249 84.9005 34.6377 85.549 33.826 86.2741C33.5103 86.5667 33.3117 86.9554 33.2645 87.3729C33.1984 88.8366 33.2645 90.3002 33.2267 91.7638C33.1418 96.2163 33.0427 100.669 32.9294 105.121C32.8728 107.184 32.7973 109.242 32.6746 111.3C32.5 114.236 32.2781 117.154 32.0658 120.266C32.6698 120.347 33.4815 120.474 34.246 120.555C37.0776 120.852 39.7722 120.145 42.4952 119.654C43.1842 119.532 43.9109 119.28 44.0903 118.42C44.4489 116.546 44.817 114.669 45.1945 112.8C46.2186 107.747 47.2663 102.703 48.2667 97.6499C48.6834 95.8462 48.975 94.0184 49.1398 92.1781C49.3946 87.8188 49.4748 83.4459 49.6447 79.0775C49.7816 75.5333 48.8613 72.3223 46.5206 69.5076C45.1049 67.8008 43.6466 66.112 42.1884 64.3962C37.8468 67.2424 32.9247 68.1656 27.8232 68.4088C27.7194 70.2102 27.7005 71.908 27.4976 73.5923C27.3655 74.6776 27.1956 75.844 26.6387 76.7762C25.2749 79.028 23.0616 79.8251 20.3953 79.5504C19.8384 82.0543 18.5076 83.3063 16.4783 83.0406C18.2952 81.4824 16.8417 79.4963 17.2381 77.7535H17.71L18.1065 82.3741C18.4469 81.5067 18.6521 80.5963 18.7152 79.672C18.7126 78.7281 18.6511 77.7852 18.5312 76.8483L18.9559 76.8168C19.1116 78.1093 19.2627 79.3973 19.4278 80.6898H19.3712ZM44.6471 55.5468L53.656 49.3635C50.3762 40.2665 43.4154 37.4608 34.2413 36.2134C33.7111 37.4149 32.791 38.4224 31.6162 39.0879C30.4414 39.7535 29.074 40.0418 27.7147 39.9107C24.5812 39.5594 22.9247 37.9427 22.7973 36.2224C20.6312 36.7673 18.4415 37.3482 16.2377 37.8616C9.2816 39.4874 5.42603 44.0449 3.35431 50.2687C3.30442 50.4913 3.3114 50.7221 3.37465 50.9416C3.43789 51.161 3.55555 51.3628 3.71768 51.5297C6.46026 53.4319 9.61981 54.7146 12.9578 55.2811C13.5713 54.0832 14.1707 52.9258 14.7653 51.7639L15.0248 51.854C14.8785 52.3583 14.8738 52.9618 14.5529 53.3491C13.2363 54.9974 13.4486 56.6637 14.2886 58.3885C14.3353 58.5193 14.3716 58.6533 14.3972 58.7893C14.6095 59.5549 14.5812 60.6763 15.1003 61.0005C15.6195 61.3248 16.7757 61.0906 17.6345 61.0005C21.1786 60.5502 24.7133 60.0323 28.2668 59.5864C30.9426 59.2532 33.6231 58.8028 36.3319 59.3387C38.1724 59.699 40.0176 60.0503 41.9525 60.4241C42.1931 59.2442 42.448 57.9922 42.7028 56.7492L41.8062 56.3529C44.3687 55.3712 45.1379 53.4347 45.3125 51.3C45.3982 50.2425 45.235 49.1801 44.8349 48.1905C44.4348 47.2009 43.8079 46.3092 43.0001 45.5806C44.128 45.8733 44.6896 46.6704 45.1143 47.5351C46.464 50.2687 46.0582 52.9123 44.6424 55.5468H44.6471ZM23.4108 24.0945C23.4787 23.9362 23.5355 23.7737 23.5807 23.6081C24.3971 20.5818 26.2754 18.4246 29.3853 17.3843C32.146 16.4566 34.6661 16.8619 36.6764 19.0371C39.0974 21.6536 39.3286 24.8286 38.8897 28.044C38.6915 29.4581 37.8751 30.7957 37.271 32.3359C37.9789 32.1287 38.7151 31.9396 39.4371 31.6919C40.0868 31.4907 40.7181 31.2392 41.3248 30.9398C42.0201 30.5862 42.6803 30.1732 43.2974 29.7058C44.0744 29.104 44.806 28.4509 45.4871 27.7513C45.8416 27.3739 46.1172 26.9351 46.2988 26.4588C46.5206 25.8824 46.4829 25.1933 46.7707 24.6574C47.0667 24.1872 47.2453 23.6583 47.2928 23.1117C47.3402 22.565 47.2553 22.0153 47.0445 21.505C46.9045 20.8756 46.9755 20.2202 47.2474 19.6315C47.5636 18.8074 47.7193 18.0913 47.1766 17.2852C46.9548 16.952 47.0256 16.4341 46.9831 15.9972C46.9406 15.5604 47.0822 15.1551 46.9123 14.8443C46.3227 13.9301 46.0213 12.8733 46.044 11.8C46.0676 11.5027 45.624 11.183 45.4352 10.8542C45.053 10.1697 44.7462 9.44015 44.3168 8.78715C43.472 7.50816 42.566 6.2652 41.674 5.01773C41.6032 4.92316 41.405 4.92316 41.2823 4.8511C40.9709 4.67547 40.5367 4.54937 40.3857 4.28367C39.3475 2.48227 37.054 3.07223 35.6335 1.95086C34.9917 1.44647 34.0054 1.34289 33.1701 1.05016C32.923 0.920982 32.6448 0.855773 32.3631 0.861019C31.9524 0.984289 31.5174 1.01469 31.0923 0.949813C30.6672 0.884938 30.2637 0.726569 29.9138 0.487229C29.7628 0.383649 29.4891 0.442193 29.272 0.442193C28.5642 0.442193 27.8563 0.410669 27.1531 0.442193C26.6534 0.47227 26.1583 0.552269 25.676 0.680877C25.0684 0.83913 24.4712 1.03162 23.8875 1.25732C22.3301 1.83377 20.7822 2.42372 19.2296 3.01818C18.7577 3.19382 18.3188 3.38297 17.8752 3.59463C17.4206 3.79179 16.9834 4.02373 16.568 4.28817C16.0957 4.6318 15.645 5.00173 15.2183 5.39603C14.2745 6.21116 13.3307 7.02629 12.4434 7.86844C12.2783 8.02156 12.2547 8.31879 12.1603 8.52595C11.9668 8.97629 11.7592 9.40413 11.5751 9.84547C11.0277 11.1965 10.485 12.516 9.96116 13.8536C9.90453 13.9977 10.0225 14.1958 10.0225 14.367C10.0225 14.8173 10.0225 15.3082 9.96588 15.7766C9.90453 16.3575 9.66385 16.9475 9.73463 17.5104C9.8479 18.4381 10.3812 19.3613 10.3151 20.262C10.2018 21.8472 11.2117 23.0722 11.4855 24.5133C11.5416 24.7796 11.6684 25.0276 11.8535 25.2339C12.8776 26.3552 13.4533 27.8864 15.072 28.4854C15.2419 28.5484 15.2985 28.8367 15.4543 28.9808C15.7044 29.2149 15.9592 29.5482 16.2613 29.6022C17.3518 29.7275 18.3527 30.2405 19.0645 31.0389C19.1777 31.183 19.4609 31.192 19.6543 31.2865C20.3499 31.5484 21.0156 31.8774 21.6411 32.2683C21.8815 32.5064 22.2086 32.6471 22.5548 32.6613C22.9009 32.6756 23.2395 32.5623 23.5005 32.3449C23.3589 31.3991 23.5807 29.949 22.9908 29.5302C21.6789 28.589 21.4476 27.3235 21.1031 26.0715C21.0359 25.7513 21.0384 25.4213 21.1107 25.1021C21.183 24.7828 21.3234 24.4812 21.5231 24.2161C21.7827 23.9189 22.651 24.0945 23.4108 24.0449V24.0945ZM26.6859 33.5023L26.785 33.2095C27.0493 33.3176 27.3183 33.4212 27.5779 33.5338C28.9181 34.1328 30.1923 34.5696 31.8251 34.2724C35.0058 33.6869 36.9596 31.917 37.927 29.1294C38.7245 26.8236 38.5499 24.5043 37.7901 22.131C36.9124 19.3883 34.1233 17.1771 30.9757 17.587C27.6722 18.0373 24.0007 21.4284 24.0102 24.743C24.0102 25.0222 23.727 25.3014 23.576 25.5806C23.3553 25.3969 23.1237 25.2254 22.8823 25.0672C22.591 24.9118 22.2918 24.7705 21.9856 24.6439C21.8771 24.9051 21.6317 25.1978 21.6883 25.4275C21.9307 26.3872 22.2253 27.3342 22.5708 28.2647C22.6274 28.4313 22.9955 28.4764 23.1749 28.625C23.3542 28.7736 23.7648 29.0393 23.7931 29.2825C23.9913 30.9578 24.1328 32.6421 24.265 34.3219C24.2731 34.5918 24.1941 34.8575 24.0385 35.083C23.1324 36.3935 23.9205 37.8166 24.9823 38.4201C25.8548 38.9148 26.8374 39.2061 27.8501 39.2702C28.8628 39.3344 29.8771 39.1697 30.8105 38.7894C31.8015 38.4381 32.8161 37.9967 33.1701 36.988C33.3919 36.362 33.2078 35.6054 33.2078 34.8263C30.65 35.1821 28.4226 35.2226 26.6954 33.4752L26.6859 33.5023ZM62.1883 72.4484L62.4856 72.2142C62.9575 72.7366 63.6324 73.205 63.7787 73.7994C63.925 74.3939 63.5521 75.1505 63.3067 76.1818C64.1656 75.4162 64.8216 74.8578 65.4304 74.2588C65.4816 74.1682 65.5084 74.0668 65.5084 73.9638C65.5084 73.8608 65.4816 73.7595 65.4304 73.6688C64.6895 72.6285 64.411 71.2234 62.8726 70.7821C62.3954 70.6504 61.9919 70.3446 61.7494 69.9309C61.2492 68.7285 60.8858 67.472 60.4941 66.2291C59.437 62.883 58.21 59.6315 55.388 57.1906C55.1357 56.9558 54.9701 56.6492 54.916 56.3169C54.7367 54.9253 54.614 53.5293 54.4441 51.7819L45.119 58.3165C46.8145 59.9505 48.1046 61.9264 48.8944 64.0989C49.9703 66.8686 52.3913 68.715 54.6518 70.647C56.0345 71.8269 58.0354 72.7456 57.5777 75.0874C57.5446 75.2676 57.7759 75.4972 57.9033 75.7359L62.5139 73.1284C62.3959 72.9213 62.2874 72.7186 62.1741 72.5159L62.1883 72.4484ZM17.8139 124.918C17.9271 126.688 17.9743 128.521 18.1867 130.323C18.2723 131.418 18.5515 132.491 19.0125 133.498C20.2726 135.934 22.316 137.825 24.3688 139.64C26.4217 141.455 28.9653 141.807 31.2399 140.676C31.7395 140.455 32.1396 140.07 32.3681 139.592C32.5966 139.114 32.6383 138.574 32.4858 138.069C32.0516 136.938 31.5656 135.817 31.0417 134.727C29.9091 132.358 28.6821 130.034 29.1777 127.292C29.3145 126.544 29.3192 125.779 29.3664 125.225H20.9474V129.706C20.6501 129.435 20.5604 129.395 20.5604 129.35C20.5274 128.791 20.4944 128.233 20.4944 127.675C20.4944 125.207 20.4944 125.207 18.0357 124.828C18.0074 124.828 17.9696 124.851 17.7997 124.918H17.8139ZM30.8341 122.797C30.8341 125.297 30.7775 127.585 30.8718 129.868C30.9053 130.542 31.1937 131.182 31.6835 131.669C33.4579 133.16 35.3834 134.484 37.1955 135.934C39.1304 137.479 41.2304 137.816 43.6419 137.163C45.959 136.533 46.8462 135.164 46.0298 133.047C45.8507 132.635 45.5949 132.256 45.2748 131.93C44.2696 130.823 43.2361 129.733 42.2026 128.652C41.7897 128.258 41.4745 127.781 41.2801 127.256C41.0857 126.731 41.0172 126.17 41.0794 125.617C41.2116 124.473 41.372 123.333 41.5277 122.117C41.1099 122.404 40.6526 122.635 40.1686 122.802C38.4776 123.158 36.7664 123.421 35.0436 123.59C34.0573 123.666 33.5712 123.82 33.6797 124.878C33.7694 125.819 33.6797 126.783 33.6797 127.733H33.34C32.7973 126.382 33.4627 124.923 33.1984 123.504L30.8152 122.779L30.8341 122.797ZM27.9507 67.8368C31.542 67.4901 35.1097 67.3054 38.4131 65.6977C37.1814 65.2698 36.247 64.5493 36.365 63.2613C36.4641 62.221 36.8888 61.2077 37.1908 60.1088C34.6046 59.6177 31.9454 59.5871 29.3475 60.0188C26.3933 60.4691 23.4297 60.8159 20.4661 61.1987C18.6397 61.4329 16.8134 61.649 15.0012 61.8742C14.9352 62.5092 14.8691 63.0811 14.8219 63.5225C16.0064 63.4414 17.1815 63.3378 18.3094 63.2838C21.0088 63.1442 23.7081 62.9866 26.4122 62.928C27.6062 62.901 27.9648 63.3784 27.9507 64.5853C27.9507 65.6571 27.9507 66.7245 27.9507 67.8458V67.8368ZM75.2038 74.1507C74.9123 73.3648 74.5752 72.595 74.1939 71.8449C73.3633 70.4173 72.6885 68.7916 71.4945 67.7017C70.4657 66.7605 68.8235 66.3957 67.403 65.9003C66.9783 65.7562 66.3884 66.0309 65.874 66.1165L65.8457 66.4768C67.2614 67.5891 69.621 67.1433 70.6356 69.0438C68.8235 68.1025 66.9499 67.445 64.7886 67.6927C66.412 68.7375 66.6762 70.6605 68.1817 71.9035C69.4605 72.9753 70.0127 74.8307 70.8763 76.3214C71.5541 75.8338 72.2599 75.3828 72.9905 74.9703C73.7106 74.6529 74.4496 74.3762 75.2038 74.1417V74.1507ZM17.9743 67.2604C18.6869 67.0802 19.3901 66.6974 19.6638 66.8821C20.0932 67.1568 20.2442 67.8368 20.5746 68.4448C22.0187 68.6384 26.6576 65.4004 26.7945 63.4279L15.8413 63.8783C16.6671 65.1888 17.3844 66.3236 17.9743 67.2694V67.2604ZM20.9096 71.5882C20.9096 73.3536 20.8672 74.9388 20.9474 76.5195C20.9474 76.8303 21.5562 77.4202 21.7591 77.3572C22.7029 77.15 23.727 76.9519 24.4538 76.4115C26.1715 75.137 25.8978 73.2095 26.0158 71.3C24.2886 71.9665 22.7124 72.552 20.9096 71.5882V71.5882ZM13.1466 56.3394L9.7252 61.7931L13.0711 65.5536C15.4637 62.5047 13.9158 59.5774 13.1277 56.3304L13.1466 56.3394ZM29.0974 122.212C25.4353 122.766 22.0187 123.788 18.4415 122.802C18.0876 124.189 18.2292 124.414 19.6072 124.5C22.0328 124.653 24.4538 124.819 26.8794 124.878C27.5023 124.878 28.4037 124.729 28.7057 124.324C29.0833 123.815 28.9842 122.973 29.0974 122.212V122.212ZM25.3787 70.1426C26.5585 70.3002 26.7945 70.9532 26.6482 71.8179C26.5585 72.4349 26.4972 73.0564 26.4311 73.6778C26.1291 76.5646 24.1848 78.1318 21.1786 77.7805C20.4566 77.6995 20.3905 78.0237 20.4236 78.4335C20.4236 78.6632 20.7634 79.046 20.9663 79.055C21.6212 79.079 22.2768 79.0307 22.92 78.9109C24.5953 78.6092 26.4924 76.8618 26.6623 75.3081C26.9502 72.6555 27.1342 69.9895 27.3089 67.3279C27.3749 66.3912 27.3089 65.4455 27.3089 64.4007L24.3075 67.5261C25.6147 67.9764 25.8837 68.8771 25.3693 70.1471L25.3787 70.1426ZM54.9916 50.8542C54.4017 49.8274 53.8542 49.8274 53.17 50.3183C52.1789 51.0298 51.1549 51.6963 50.1544 52.3989C48.1299 53.8175 46.0912 55.2271 44.1044 56.6907C43.8449 56.8843 43.8401 57.3887 43.7174 57.749C44.1044 57.749 44.5952 57.8796 44.8548 57.7085C48.2384 55.4567 51.589 53.1645 54.9916 50.8542ZM41.9572 64.0089C41.8628 63.2703 41.6221 62.7119 41.759 62.2525C42.0704 61.2212 41.4569 60.987 40.6641 60.7979C40.3807 60.7332 40.1018 60.652 39.8288 60.5547C39.0549 60.2665 38.2951 60.2304 37.7146 60.8744C37.0681 61.595 36.5018 62.3876 36.8982 63.4189C37.3277 64.5538 37.6533 65.2428 39.154 64.9816C40.1173 64.739 41.0556 64.4134 41.9572 64.0089V64.0089ZM12.7738 55.844C8.99844 55.1325 5.74221 53.5157 2.7361 51.4216C2.0235 52.5295 2.0235 53.0023 2.9343 53.6193C5.40715 55.2946 8.1254 56.4925 11.1551 56.7943C11.8488 56.8663 12.5709 56.7673 12.7738 55.844V55.844ZM31.9053 120.735C31.9053 122.374 32.1602 122.779 33.5712 122.928C35.8046 123.224 38.0803 122.965 40.1781 122.176C40.5592 122.078 40.8876 121.846 41.0976 121.527C41.3076 121.209 41.3837 120.826 41.3107 120.456C38.2054 121.059 35.1144 121.55 31.8723 120.735H31.9053ZM10.452 83.7611L10.8012 83.8377C12.1715 81.7694 12.9178 79.3806 12.9578 76.9339C12.9437 76.7979 12.9004 76.6661 12.8306 76.5468C12.7607 76.4275 12.6659 76.3231 12.552 76.2403C11.9385 75.79 11.2778 75.3937 10.452 74.8622V83.7611ZM56.8603 79.5999C57.1529 78.6362 57.1577 77.7985 57.5965 77.3482C58.3752 76.6237 59.2647 76.0163 60.2346 75.5468C60.9971 75.2045 61.7859 74.9185 62.5941 74.6911C62.816 74.6101 63.1416 74.5785 63.2218 74.4299C63.302 74.2813 63.2879 73.8174 63.1652 73.7544C63.0405 73.7064 62.9066 73.6844 62.7723 73.6899C62.638 73.6953 62.5065 73.7281 62.3865 73.7859C61.8344 74.0561 61.3294 74.4074 60.7961 74.7136C58.8141 75.8665 56.8273 77.0149 54.8641 78.1498C55.6334 80.0278 56.0062 80.1989 56.8556 79.5729L56.8603 79.5999ZM31.49 121.176L31.1597 120.996C29.7109 121.838 29.2107 122.797 29.5033 123.986C29.658 124.624 29.7309 125.277 29.7204 125.932C29.6732 127.954 28.9842 130.025 30.3433 131.921C30.3724 131.801 30.3913 131.679 30.3999 131.557C30.3999 128.855 30.3999 126.152 30.4565 123.45C30.4924 123.017 30.6141 122.593 30.8152 122.203C31.0109 121.85 31.2366 121.512 31.49 121.194V121.176ZM65.2275 72.1331C65.9825 73.0338 66.5252 73.9345 65.7324 75.0199C65.874 75.0199 65.9495 75.0199 65.9967 74.9929C66.5394 74.6461 67.0868 74.3038 67.6201 73.939C68.5922 73.2815 68.5403 72.6195 67.5634 71.935C66.7376 71.354 66.0297 71.4531 65.2275 72.1331ZM20.2678 75.9971V71.1018L18.1489 71.5027L20.2678 75.9746V75.9971ZM22.6652 71.4711C23.5194 71.4981 24.3782 71.7954 24.2886 70.5344C24.2886 70.2957 24.6236 70.039 24.7983 69.7823C25.3598 68.9717 25.1947 68.4898 24.4396 68.2737C24.3393 68.7577 24.1809 69.2292 23.9677 69.6787C23.8377 69.7565 23.6899 69.8029 23.537 69.8139C23.384 69.8249 23.2306 69.8001 23.0899 69.7418C22.8055 69.2788 22.5699 68.7901 22.3868 68.2827C20.669 69.4401 23.1607 70.3498 22.6841 71.4711H22.6652ZM16.955 66.747L15.61 64.3556L15.3363 64.4592C15.3033 66.3191 14.888 68.2602 16.7992 69.7508L17.4316 69.3005C15.7138 68.3998 15.7799 67.4315 16.9597 66.765L16.955 66.747ZM18.8474 71.1379C19.1494 69.6562 19.3806 68.5123 19.6119 67.364C18.9276 67.6116 18.5076 67.8774 18.0923 67.8774C17.6615 67.8047 17.2467 67.6631 16.8653 67.4585L16.6246 67.7287C16.8087 68.0125 16.9219 68.4538 17.1862 68.5529C17.5562 68.6578 17.8751 68.8848 18.086 69.1933C18.2969 69.5018 18.3861 69.8717 18.3377 70.2372C18.3377 70.4804 18.6114 70.7326 18.8474 71.1379ZM75.1519 75.0019C75.1 74.9118 75.0528 74.8217 75.0056 74.7317L71.1689 76.6096C72.6979 77.1275 74.2222 76.3934 75.1519 75.0019ZM62.0892 75.4117C62.0892 75.4432 61.5748 75.7855 61.6173 75.9521C61.7898 76.4727 62.106 76.9394 62.5328 77.3031C62.764 77.4833 63.3303 77.2626 63.7456 77.2221C63.7079 77.0284 63.7456 76.7717 63.6182 76.6456C63.2076 76.2583 62.7404 75.9206 62.075 75.3937L62.0892 75.4117ZM60.7348 78.5056L59.0217 76.515C59.0217 77.159 58.8047 77.713 59.0217 78.0372C59.0952 78.1833 59.2007 78.3127 59.3311 78.4165C59.4615 78.5203 59.6138 78.5961 59.7776 78.6388C59.9414 78.6815 60.1129 78.6901 60.2805 78.664C60.4481 78.6379 60.6079 78.5777 60.7489 78.4876L60.7348 78.5056ZM60.7159 75.853L60.3573 75.826C60.3337 76.2763 60.126 76.8123 60.3289 77.087C60.742 77.5024 61.2195 77.8547 61.7447 78.1318L61.9052 77.9156C61.504 77.2266 61.1076 76.5376 60.7065 75.853H60.7159ZM13.9725 65.2338C13.1938 66.076 13.2693 66.2831 14.7794 67.409C14.6001 66.6164 15.308 65.6346 13.9725 65.2338ZM57.9741 77.7985L57.7334 77.8301C57.79 78.2534 57.6956 78.8073 57.9458 79.0685C58.1959 79.3297 58.7999 79.3612 59.5314 79.5729L57.9741 77.7985ZM21.1079 70.1426H21.3957C21.3061 69.7598 21.2164 69.3725 21.1315 68.9942L19.3995 68.8456L21.1079 70.1381" fill="black"/>
<path d="M26.3667 56.5451C31.2628 54.5183 32.3133 51.3013 30.0536 46.912C31.7137 48.0171 32.2192 51.4579 31.4312 53.0104C30.5789 54.6838 28.3588 56.9478 26.3667 56.5451Z" fill="black"/>
<path d="M15.3798 17.8712C15.3162 18.6156 15.2708 19.1509 15.2117 19.8596L16.6475 18.8399C16.8611 19.2784 17.1019 19.7169 17.3336 20.2318C17.9198 19.0541 18.6604 19.5231 19.3874 20.4255C19.3874 20.4255 19.1466 20.8742 19.0739 20.8487C18.7667 20.6908 18.4757 20.4959 18.2061 20.2675C17.8834 20.4153 17.4109 20.8334 17.1428 20.706C16.8747 20.5785 16.6884 19.931 16.4658 19.4262C16.0114 19.4772 15.7388 21.1291 14.989 19.88C14.8806 19.7265 14.8039 19.5479 14.7646 19.3571C14.7253 19.1662 14.7243 18.968 14.7617 18.7766C14.7991 18.5853 14.874 18.4057 14.9809 18.2509C15.0878 18.0961 15.2241 17.9699 15.3798 17.8814" fill="black"/>
<path d="M16.0717 9.57885C16.8047 9.3209 17.2558 9.3252 16.9782 10.2538C16.9131 10.4645 17.078 10.7397 16.9782 11.1696L16.0631 10.2194C15.4992 10.3742 15.252 10.0389 15.6033 9.35959C15.2607 9.05434 14.7012 8.6889 14.7359 8.57282C14.9692 8.15814 15.2613 7.7788 15.6033 7.44641L15.8419 7.65277C15.638 7.91933 15.4082 8.18589 15.1263 8.57282C15.9937 8.47824 16.5575 8.60722 16.0717 9.57885Z" fill="black"/>
<path d="M16.8004 16.382C16.7506 16.6696 16.6966 16.9573 16.6717 17.1012L17.7762 17.3034C17.7762 17.4203 17.7513 17.5327 17.7347 17.6496L18.3284 17.4788L19.3872 18.4811C19.1671 18.5171 18.8433 18.6789 18.5983 18.589C18.0627 18.4002 17.5893 18.0047 17.0537 17.8294C16.1029 17.5192 16.053 17.4383 16.8004 16.382Z" fill="black"/>
<path d="M42.6222 21.195C42.429 21.6143 42.3282 22.1701 42.0635 22.3066C41.7989 22.4431 41.4292 22.1116 41.1016 21.9946C41.131 21.8873 41.1562 21.7849 41.1814 21.6777L41.9627 21.8776C42.2652 21.3461 41.6771 19.6495 42.9709 20.5319L44.1849 18.6158C44.3572 19.7811 43.2986 21.2389 42.6222 21.195" fill="black"/>
<path d="M17.3501 8.30109L18.2774 7.44641L18.554 7.76691L18.0659 8.02759L19.3878 10.1643L19.2414 10.425C18.9176 10.1366 18.5593 9.89377 18.1757 9.70275C17.5616 9.49336 18.7045 8.23698 17.0613 8.77543L17.3501 8.30109Z" fill="black"/>
<path d="M17.1149 27.2968C16.7634 27.5084 16.2836 27.8847 16.2171 27.8259C15.9396 27.3937 15.7022 26.9244 15.5093 26.4267L15.8228 26.2092L16.2598 27.0616L16.9962 26.0623L17.5425 26.8912L18.6113 26.9852C18.3643 27.3908 18.1363 27.7906 17.8132 28.2962C17.4522 27.7847 17.2242 27.4614 17.1149 27.2968Z" fill="black"/>
<path d="M30.8082 3.78939L30.2441 2.61524L31.4342 2.23389C31.485 2.35933 31.5301 2.47976 31.5752 2.6052L30.8138 2.96648C31.5583 3.25751 32.049 3.51843 31.5921 4.38149C31.4624 4.63237 32.2069 5.38504 31.4511 5.95706C31.203 5.19938 30.983 4.54205 30.7687 3.87971V3.78939" fill="black"/>
<path d="M40.0608 10.4249C40.4754 11.0195 40.4512 11.1544 39.6531 11.8164C40.4443 12.9675 39.0865 13.191 38.9829 14.1481C38.8862 13.9415 38.7514 13.756 38.7791 13.7012C39.2054 13.016 39.4845 12.2115 39.591 11.361C39.6186 11.0279 39.9019 10.7243 40.0608 10.4249Z" fill="black"/>
<path d="M27.8517 11.1696L27.6736 11.7038L29.4691 13.9924L29.214 14.1481C28.8096 13.6937 27.5676 13.7821 28.1742 12.7261C26.9033 12.2003 26.8119 11.8427 27.8709 11.1696" fill="black"/>
<path d="M30.7892 14.1481C30.6444 13.5476 29.3366 13.5198 30.061 12.5972C29.8221 12.2989 29.5402 12.0802 29.4737 11.8019C29.4306 11.6348 29.7125 11.4042 29.8652 11.1696L30.0845 11.2968L29.9631 11.6229L31.0203 14.0248L30.7892 14.1322" fill="black"/>
<path d="M44.9794 19.3753C44.954 20.1419 44.702 20.8695 44.2722 21.4171C43.8424 21.9646 43.2653 22.2932 42.6528 22.339L44.0235 20.9708C44.1212 20.7053 44.2348 20.4494 44.3632 20.2051C44.5537 19.9072 44.7596 19.625 44.9794 19.3605" fill="black"/>
<path d="M39.5508 14.0736C40.0482 12.859 40.541 11.6443 41.0384 10.4249C41.3606 11.877 40.3704 12.9381 39.9582 14.1481L39.5508 14.0504" fill="black"/>
<path d="M29.8487 6.70168L28.6926 4.30231L29.2638 3.72314C29.4329 4.3354 29.4283 4.9642 29.7665 5.37789C30.1823 5.88259 30.5525 6.20526 29.8487 6.69755" fill="black"/>
<path d="M18.5596 26.0623C17.918 26.0549 17.2788 26.0115 16.6498 25.9328C16.4675 25.9031 16.4197 25.5658 16.2852 25.3176L18.6117 25.8572L18.5596 26.0623Z" fill="black"/>
<path d="M31.0383 31.2694C30.3829 31.0076 29.6973 30.7457 29.0333 30.4419C28.8867 30.3738 28.8047 30.0962 28.6926 29.9182C28.878 29.8763 29.0979 29.7296 29.2402 29.8082C30.5738 30.4889 32.0724 30.5171 33.4227 29.8867C33.621 29.8029 33.8884 29.9496 34.1212 29.9915C33.9703 30.1905 33.8452 30.5152 33.6641 30.5624C32.8018 30.8347 31.9696 31.0337 31.0383 31.2747" fill="black"/>
<path d="M28.5198 22.8031C28.0139 22.8969 27.5079 23.0048 26.9972 23.0799C26.8141 23.0799 26.5153 23.1081 26.4527 23.0095C26.4036 22.9184 26.3748 22.8183 26.3682 22.7156C26.3615 22.6129 26.3772 22.51 26.4141 22.4137C26.7707 21.602 28.7511 21.297 29.3485 21.9445C29.4642 22.0712 29.5124 22.4137 29.4208 22.5169C29.1738 22.7079 28.9015 22.8657 28.6113 22.9861C28.5824 22.9204 28.5487 22.8594 28.5198 22.7984" fill="black"/>
<path d="M36.449 23.4779C35.385 23.6208 34.7159 23.7145 34.0419 23.7933C33.8445 23.7933 33.5605 23.8722 33.469 23.7933C33.407 23.7064 33.3671 23.605 33.3528 23.4983C33.3385 23.3917 33.3503 23.2831 33.3871 23.1822C33.5944 22.8382 33.9101 22.5768 34.2822 22.4415C34.6543 22.3062 35.0603 22.305 35.4332 22.4381C35.8231 22.5366 36.0975 23.1182 36.4442 23.5026" fill="black"/>
<path d="M31.977 26.0623C32.3818 26.3387 32.7581 26.6743 33.0979 27.0617C33.1903 27.1841 33.2597 27.3301 33.3014 27.4892C33.3431 27.6484 33.3561 27.8169 33.3393 27.9829C33.3225 28.1489 33.2765 28.3084 33.2044 28.45C33.1323 28.5917 33.036 28.7121 32.9221 28.8028C32.5814 29.1465 32.1529 29.2007 31.8891 28.4003L32.7499 28.2104C33.1382 27.2154 31.2115 27.0119 31.977 26.0623" fill="black"/>
<path d="M26.3667 24.7417C26.9529 24.4232 27.5253 23.9105 28.1301 23.8511C28.2893 23.8161 28.4531 23.8216 28.6104 23.867C28.7676 23.9125 28.9147 23.997 29.0416 24.1147C29.1686 24.2324 29.2724 24.3806 29.3461 24.5493C29.4198 24.718 29.4616 24.9033 29.4687 25.0925C29.3164 25.1303 29.1271 25.249 29.0718 25.1897C28.3932 24.4988 27.7746 24.3369 27.1376 25.276C27.0591 25.3894 26.6991 25.2382 26.4683 25.2112C26.4313 25.0547 26.399 24.8982 26.3667 24.7417" fill="black"/>
<path d="M36.449 25.3176C35.3426 24.4142 34.3809 24.1387 33.3469 25.3176C33.3469 24.2652 33.7967 23.8677 34.6911 23.8316C35.5856 23.7954 36.2732 24.0529 36.4335 25.3131" fill="black"/>
</svg>
