<svg width="8" height="14" viewBox="0 0 8 14" fill="none" xmlns="http://www.w3.org/2000/svg">
<path d="M5.2425 2.95194H6.77374C6.91462 2.95194 7.02895 2.83877 7.02895 2.69934V1.18375C7.02895 1.04432 6.91462 0.931152 6.77374 0.931152H5.2425C3.69492 0.931152 2.43521 2.17747 2.43521 3.70973V5.47792H0.648762C0.507888 5.47792 0.393555 5.59108 0.393555 5.73051V7.2461C0.393555 7.38553 0.507888 7.4987 0.648762 7.4987H2.43521V12.8033C2.43521 12.9427 2.54955 13.0559 2.69042 13.0559H4.22167C4.36254 13.0559 4.47687 12.9427 4.47687 12.8033V7.4987H6.26333C6.37307 7.4987 6.47055 7.42898 6.50577 7.32592L7.01619 5.81033C7.04222 5.73354 7.02895 5.64867 6.98097 5.58249C6.93248 5.51682 6.85592 5.47792 6.77374 5.47792H4.47687V3.70973C4.47687 3.29193 4.82038 2.95194 5.2425 2.95194Z" fill="white"/>
</svg>
