<svg width="29" height="25" viewBox="0 0 29 25" fill="none" xmlns="http://www.w3.org/2000/svg">
<path d="M10.2012 0L8.44294 3.67574H2.46208C2.1385 3.67476 1.81793 3.74061 1.5188 3.86951C1.21968 3.99841 0.947893 4.18781 0.719087 4.42681C0.490281 4.66582 0.308967 4.94972 0.185571 5.26219C0.0621762 5.57465 -0.000865089 5.90952 7.32806e-05 6.24752V22.4158C-0.00243454 22.7549 0.0594481 23.0911 0.182141 23.405C0.304833 23.7189 0.485899 24.0042 0.714862 24.2446C0.943825 24.4849 1.21614 24.6754 1.51605 24.8051C1.81595 24.9347 2.1375 25.001 2.46208 25H26.395C26.7187 25.001 27.0394 24.9351 27.3386 24.8063C27.6379 24.6774 27.9098 24.488 28.1388 24.2491C28.3678 24.0101 28.5494 23.7262 28.673 23.4137C28.7967 23.1012 28.86 22.7663 28.8594 22.4282V6.24752C28.86 5.9094 28.7967 5.57448 28.673 5.262C28.5494 4.94952 28.3678 4.66564 28.1388 4.42666C27.9098 4.18769 27.6379 3.99833 27.3386 3.86946C27.0394 3.7406 26.7187 3.67476 26.395 3.67574H20.4047L18.6441 0H10.2012ZM14.4238 6.24752C15.9545 6.24752 17.4507 6.72165 18.7234 7.60995C19.9961 8.49825 20.988 9.76082 21.5738 11.238C22.1596 12.7152 22.3128 14.3406 22.0142 15.9088C21.7156 17.477 20.9785 18.9174 19.8962 20.048C18.8138 21.1786 17.4349 21.9486 15.9336 22.2605C14.4324 22.5724 12.8763 22.4123 11.4622 21.8005C10.048 21.1886 8.83936 20.1524 7.98898 18.823C7.13859 17.4936 6.6847 15.9306 6.6847 14.3317C6.69033 12.1894 7.5075 10.1366 8.95765 8.62181C10.4078 7.10701 12.373 6.2534 14.4238 6.24752ZM14.4238 9.18564C13.4494 9.18515 12.4967 9.48654 11.6862 10.0517C10.8757 10.6169 10.244 11.4204 9.87072 12.3607C9.49749 13.3009 9.3996 14.3357 9.58941 15.3341C9.77923 16.3325 10.2482 17.2497 10.9371 17.9696C11.626 18.6895 12.5038 19.1799 13.4595 19.3787C14.4152 19.5774 15.4058 19.4757 16.3061 19.0862C17.2064 18.6968 17.976 18.0372 18.5174 17.1909C19.0588 16.3446 19.3478 15.3496 19.3478 14.3317C19.3506 13.6553 19.2252 12.985 18.9788 12.3595C18.7324 11.734 18.3698 11.1656 17.912 10.6872C17.4543 10.2088 16.9104 9.82978 16.3117 9.57207C15.713 9.31435 15.0713 9.18302 14.4238 9.18564Z" fill="white"/>
</svg>
