<svg width="28" height="26" viewBox="0 0 28 26" fill="none" xmlns="http://www.w3.org/2000/svg">
<path d="M4.13118 8.23133C3.57179 9.28573 2.84284 10.315 3.80757 11.3963C4.55941 12.239 5.62062 12.3168 6.58273 11.8922C7.03624 11.6921 7.66226 11.4187 7.76266 10.8653C7.88205 10.2071 7.62393 9.35738 7.15522 8.87719C6.46782 8.17298 3.85303 8.10818 3.60455 9.33703" stroke="white" stroke-width="2" stroke-linecap="round"/>
<path d="M8.04097 19.2495C6.74403 19.8712 5.56044 20.818 5.55634 22.4026C5.55427 23.206 6.14715 23.7263 6.83723 23.9987C7.95621 24.4403 9.73535 24.661 10.7473 23.8325C11.2696 23.4049 12.015 22.6798 12.1129 21.9739C12.2311 21.1217 11.7151 20.3722 11.0093 19.9662C10.1636 19.4796 9.13151 19.1991 8.15213 19.2271C7.66826 19.2409 7.19515 19.3565 6.75202 19.5494C6.30443 19.7442 6.14958 19.9908 5.80089 20.2739" stroke="white" stroke-width="2" stroke-linecap="round"/>
<path d="M10.4183 19.478C12.1463 14.5196 14.0644 9.66734 16.2843 4.9071C16.4641 4.5216 16.6643 4.1385 16.797 3.73826C16.9374 3.31481 17.1981 2.3708 17.6503 2.21037C18.1346 2.03859 18.7248 1.87321 19.2378 1.9365C19.3159 1.94613 19.4471 1.94068 19.4706 2.0411C19.51 2.2092 19.3598 2.39228 19.2846 2.52399C18.9252 3.1533 18.6109 3.80704 18.2637 4.44311C16.3497 7.94972 14.3897 11.4082 12.6021 14.9852C12.0017 16.1867 11.3186 17.3712 10.7999 18.6109C10.6249 19.029 10.3469 19.5291 10.291 19.9826" stroke="white" stroke-width="2" stroke-linecap="round"/>
<path d="M7.99512 10.9192C8.70225 10.9914 9.41258 11.0531 10.1149 11.1626C10.2441 11.1828 10.4252 11.2423 10.5137 11.3275" stroke="white" stroke-width="2" stroke-linecap="round"/>
<path d="M15.6362 13.0329C18.583 12.9261 21.5223 12.8669 24.4699 12.9195C24.8171 12.9257 25.6365 12.8125 25.9172 13.1378C26.0217 13.259 24.5397 13.9639 24.4401 14.0107C23.5555 14.4259 22.5402 14.7517 21.5677 14.8595C20.2936 15.0007 18.8494 14.9422 17.6113 14.5954C17.2013 14.4806 16.7998 14.3372 16.3918 14.2155C16.1679 14.1488 15.7718 14.1191 15.5683 13.9929C15.5667 13.9919 15.8375 13.8839 15.8679 13.8781C16.4388 13.7694 17.0871 13.8341 17.6648 13.8107C18.9555 13.7584 20.2472 13.7513 21.5378 13.696C21.8899 13.6809 22.2601 13.6274 22.6106 13.6982" stroke="white" stroke-width="2" stroke-linecap="round"/>
</svg>
