<svg width="46" height="16" viewBox="0 0 46 16" fill="none" xmlns="http://www.w3.org/2000/svg">
<path d="M45.9442 5.10119C45.8307 4.60682 45.6785 4.12514 45.5481 3.63838C45.2461 2.51023 44.9465 1.38207 44.6615 0.289406L18.9792 0.162647L17.0466 0.147436C16.9508 0.146411 16.856 0.167433 16.7689 0.209021C16.6817 0.250609 16.6043 0.31175 16.5421 0.388136C16.4799 0.464521 16.4345 0.554292 16.4089 0.65112C16.3834 0.747949 16.3784 0.849479 16.3943 0.948554L16.9982 4.77415L17.5031 7.98876C17.5209 8.09939 17.513 8.21287 17.4803 8.31964C17.4475 8.42642 17.3907 8.52335 17.3147 8.60227L16.8316 9.10931L14.882 11.1527L13.8215 12.2656L13.6403 12.4507L12.6885 13.447C12.6556 13.4813 12.6303 13.5229 12.6145 13.5687C12.5987 13.6145 12.5928 13.6634 12.5972 13.7119C12.6016 13.7604 12.6162 13.8073 12.6399 13.8491C12.6636 13.891 12.6959 13.9268 12.7344 13.954L13.8384 14.7146L15.2516 15.7692C15.3335 15.8306 15.4334 15.8596 15.5337 15.8513C15.634 15.8429 15.7283 15.7977 15.8 15.7236C16.1624 15.3535 16.5247 14.9935 16.8871 14.6081L17.1794 15.4752L18.1457 14.5904L18.885 13.916L19.0613 13.7538L19.1966 13.8146C19.2135 14.1062 19.2328 14.3977 19.2498 14.6867L19.4213 14.7628L21.3732 12.9881L21.5689 14.1442L23.5474 12.3391L23.8736 13.376L25.7482 11.6597L25.9294 11.7383C25.9463 12.0121 25.9632 12.2884 25.9826 12.5648L26.1493 12.6358L27.9973 10.9524H28.1495C28.1858 11.282 28.2244 11.6141 28.2727 12.0273C28.9975 11.3631 29.6207 10.8003 30.2706 10.207L30.6016 11.2414L32.5342 9.46677L32.6308 9.50733C32.6622 9.84958 32.6936 10.1918 32.7347 10.6203L34.7108 8.81523L34.8751 8.88368C34.9113 9.19297 34.9476 9.50733 34.991 9.89775L36.9744 8.10284L37.1387 8.07749C37.1725 8.41974 37.2087 8.75946 37.2522 9.18537L39.2211 7.38539H39.3733L39.4989 8.46284L41.4968 6.63751C41.6127 7.00764 41.7142 7.32708 41.8229 7.67947L43.8087 5.85414C43.8667 6.28512 43.9101 6.61469 43.9657 7.04821C44.6904 6.46511 45.2727 5.99357 45.8452 5.49667C45.8885 5.4425 45.9198 5.37895 45.9369 5.31058C45.9541 5.2422 45.9566 5.17069 45.9442 5.10119Z" fill="white"/>
<path d="M14.8788 8.05467L14.3956 4.98203L13.7434 0.907992C13.7238 0.785149 13.6655 0.672729 13.578 0.588648C13.4904 0.504567 13.3785 0.453665 13.2602 0.444053C12.9027 0.400955 12.4268 0.385744 12.1659 0.380673L11.7165 0.367997C9.52298 0.317294 7.32944 0.256449 5.1359 0.223492L3.94733 0.205746C3.8507 0.205746 3.75407 0.205746 3.65744 0.205746H2.44954C2.21865 0.203038 1.99617 0.296529 1.83087 0.465718C1.66557 0.634906 1.57096 0.865982 1.56778 1.10827C1.56783 1.19384 1.57838 1.27905 1.59918 1.36179C1.63694 1.50235 1.70621 1.63138 1.80119 1.73811C1.89617 1.84484 2.01411 1.92617 2.14515 1.9753C2.17129 1.98545 2.19454 2.00241 2.21271 2.02458C2.23089 2.04676 2.24338 2.07342 2.24903 2.10206L2.22487 2.17558C1.77294 3.47918 1.40808 4.81423 1.13293 6.17103C0.609061 8.37054 0.23448 10.6063 0.0120074 12.8614C-0.0116543 13.0095 -0.000231565 13.1614 0.0452684 13.3038C0.0907685 13.4461 0.168948 13.5745 0.272913 13.6777C0.864782 14.3039 1.97846 14.56 2.75393 14.74C3.38318 14.8801 4.02083 14.975 4.66241 15.0239C5.53934 15.0949 6.52256 15.2115 7.3536 14.849C7.91623 14.5888 8.42876 14.2227 8.86588 13.769C8.97701 13.6574 9.08814 13.5408 9.19685 13.4242C9.27434 13.3192 9.36635 13.2269 9.46983 13.1504C9.64999 13.0646 9.84461 13.0172 10.0424 13.011C10.168 12.9957 10.296 12.9856 10.4217 12.9831C10.5253 12.9743 10.6262 12.9429 10.7177 12.891C10.8092 12.839 10.8894 12.7677 10.9531 12.6814L11.3227 12.3163H11.3662C11.3662 12.3163 11.6513 12.0273 12.0306 11.6318L14.2386 9.3248L14.6203 8.92424C14.726 8.81119 14.8046 8.67337 14.8495 8.52218C14.8944 8.37099 14.9045 8.21074 14.8788 8.05467ZM8.2257 7.91524C8.02542 9.23289 7.75279 10.5373 7.40916 11.822C6.82454 14.1442 3.00759 12.8081 3.67193 10.4859C4.2635 8.37723 4.56848 6.19146 4.57785 3.99331C4.5773 3.55741 4.73389 3.13742 5.01618 2.81766C5.29848 2.49789 5.68559 2.30203 6.0998 2.26939C6.29307 2.24657 6.48874 2.23389 6.68442 2.22122C7.74496 2.14263 8.51318 2.82459 8.49385 3.96289C8.48568 5.28502 8.39611 6.60523 8.2257 7.91524ZM11.6561 3.46346C11.4766 3.46145 11.3016 3.40364 11.1534 3.29735C11.0051 3.19106 10.8902 3.04104 10.8232 2.86626C10.7561 2.69147 10.74 2.49975 10.7767 2.31531C10.8134 2.13088 10.9014 1.962 11.0295 1.83001C11.1577 1.69802 11.3202 1.60884 11.4966 1.57374C11.673 1.53864 11.8553 1.55919 12.0206 1.63279C12.1859 1.70639 12.3267 1.82974 12.4252 1.98727C12.5237 2.14479 12.5755 2.32942 12.5741 2.51783C12.5732 2.64323 12.5487 2.7672 12.502 2.88263C12.4553 2.99807 12.3874 3.10271 12.3021 3.19055C12.2168 3.2784 12.1159 3.34772 12.005 3.39455C11.8942 3.44138 11.7756 3.46479 11.6561 3.46346Z" fill="white"/>
</svg>
