<svg width="37" height="37" viewBox="0 0 37 37" fill="none" xmlns="http://www.w3.org/2000/svg">
<path fill-rule="evenodd" clip-rule="evenodd" d="M18.5 36C28.165 36 36 28.165 36 18.5C36 8.83502 28.165 1 18.5 1C8.83502 1 1 8.83502 1 18.5C1 28.165 8.83502 36 18.5 36Z" stroke="black" stroke-width="2"/>
<path d="M14.2205 11.6666L14.2197 11.6669C13.7963 11.8223 13.4477 12.0285 13.0918 12.3674C12.7383 12.7039 12.5259 13.0353 12.3611 13.4331C12.2041 13.8193 12.0894 14.2706 12.0569 14.9655L12.0569 14.9656C12.0224 15.6979 12.0137 15.9276 12.0137 17.8235C12.0137 19.7194 12.0224 19.9491 12.0569 20.6842L14.2205 11.6666ZM14.2205 11.6666C14.6331 11.5144 15.1148 11.4036 15.8501 11.3722L14.2205 11.6666ZM25.049 13.5154C24.8902 13.1191 24.6883 12.8263 24.3814 12.5342C24.073 12.2405 23.7692 12.0557 23.3658 11.9059C23.0567 11.7903 22.6171 11.6662 21.848 11.6334L23.362 23.748C23.7704 23.5997 24.0747 23.4105 24.3814 23.1184C24.69 22.8246 24.887 22.5324 25.0472 22.1416C25.171 21.8418 25.3032 21.416 25.3379 20.6756C25.3735 19.9258 25.3822 19.6973 25.3822 17.8263C25.3822 15.9553 25.3735 15.7268 25.3379 14.977C25.303 14.2336 25.167 13.8095 25.049 13.5154ZM25.049 13.5154L24.5848 13.7013M25.049 13.5154C25.0489 13.5153 25.0489 13.5152 25.0489 13.5151L24.5848 13.7013M24.5848 13.7013C24.4536 13.3738 24.2933 13.1406 24.0367 12.8963C23.7801 12.652 23.5352 12.5021 23.1911 12.3744M24.5848 13.7013L23.1911 12.3744M23.1911 12.3744C22.9316 12.2773 22.5438 12.1635 21.8266 12.1329C21.051 12.0996 20.8206 12.0913 18.8584 12.0913L23.1911 12.3744ZM18.8584 11.5913C20.8232 11.5913 21.0619 11.5996 21.8478 11.6334L18.8584 11.5913ZM18.8584 11.5913C16.8988 11.5913 16.6551 11.5968 15.8679 11.6334C15.0965 11.6664 14.6586 11.7941 14.355 11.9045L18.8584 11.5913ZM21.8478 24.0192C21.0619 24.0529 20.8232 24.0613 18.8584 24.0613C16.8935 24.0613 16.6548 24.0529 15.8689 24.0192C15.0997 23.9864 14.66 23.8623 14.3509 23.7466C13.9475 23.5968 13.6437 23.412 13.3353 23.1184C13.0285 22.8263 12.8266 22.5336 12.6679 22.1375C12.5498 21.8433 12.4137 21.4193 12.3788 20.6758L21.8478 24.0192ZM21.8478 24.0192C22.6199 23.9863 23.058 23.8586 23.3618 23.7481L21.8478 24.0192ZM12.6695 13.5111C12.8296 13.1202 13.0267 12.828 13.3353 12.5342C13.6421 12.2421 13.9463 12.0529 14.3547 11.9046L12.6695 13.5111ZM12.6695 13.5111C12.5457 13.8109 12.4136 14.2366 12.3788 14.9768L12.6695 13.5111ZM18.8584 11.3311C16.8666 11.3311 16.624 11.3394 15.8502 11.3722L18.8584 11.3311ZM18.8584 11.3311C20.8492 11.3311 21.0933 11.3394 21.8704 11.3695C22.6076 11.4009 23.0888 11.5115 23.5008 11.6633C23.9256 11.8228 24.2769 12.0277 24.6308 12.3646C24.9865 12.7033 25.2001 13.032 25.3605 13.428C25.5183 13.8182 25.6331 14.2701 25.6657 14.9629C25.7001 15.6979 25.7089 15.9249 25.7089 17.8235C25.7089 19.7222 25.7001 19.9491 25.6657 20.6843C25.6331 21.3792 25.5185 21.8305 25.3614 22.2167C25.1967 22.6145 24.9843 22.9459 24.6308 23.2824C24.2749 23.6212 23.9263 23.8275 23.503 23.9829M18.8584 11.3311L23.6751 24.4523M21.8695 24.2776C21.0957 24.3104 20.856 24.3187 18.8613 24.3187C16.8665 24.3187 16.6269 24.3104 15.8531 24.2776C15.1154 24.2462 14.6339 24.1356 14.2217 23.9837C13.797 23.8242 13.4457 23.6193 13.0918 23.2824C12.7361 22.9438 12.5224 22.615 12.3621 22.219L21.8907 24.7771M21.8695 24.2776L21.8907 24.7771M21.8695 24.2776C21.8695 24.2776 21.8694 24.2776 21.8694 24.2776L21.8907 24.7771M21.8695 24.2776C22.6047 24.2462 23.0868 24.1355 23.503 23.9829M21.8907 24.7771C22.6721 24.7438 23.2057 24.6244 23.6751 24.4523M23.503 23.9829C23.503 23.9829 23.5029 23.9829 23.5028 23.9829L23.6751 24.4523M23.503 23.9829L23.6751 24.4523M12.3345 17.8263C12.3345 19.6973 12.3432 19.9258 12.3788 20.6756V14.977C12.3432 15.7268 12.3345 15.9553 12.3345 17.8263ZM12.362 22.2188C12.2042 21.8287 12.0894 21.3768 12.0569 20.6843L12.362 22.2188Z" fill="black" stroke="black"/>
<path d="M15.5857 17.8264C15.5857 16.1409 17.0293 14.7344 18.8586 14.7344C20.6907 14.7344 22.1316 16.1406 22.1316 17.8264C22.1316 19.5121 20.6907 20.9184 18.8586 20.9184C17.0266 20.9184 15.5857 19.5121 15.5857 17.8264ZM15.9094 17.8236C15.9094 19.4106 17.253 20.6553 18.8586 20.6553C20.4642 20.6553 21.8078 19.4106 21.8078 17.8236C21.8078 16.2366 20.4642 14.9919 18.8586 14.9919C17.253 14.9919 15.9094 16.2366 15.9094 17.8236Z" fill="black" stroke="black"/>
<path d="M23.1605 14.0898C23.1605 14.2538 23.0136 14.4281 22.78 14.4281C22.5464 14.4281 22.3994 14.2538 22.3994 14.0898C22.3994 13.9258 22.5464 13.7515 22.78 13.7515C23.0136 13.7515 23.1605 13.9258 23.1605 14.0898Z" fill="black" stroke="black"/>
</svg>
