<svg width="37" height="37" viewBox="0 0 37 37" fill="none" xmlns="http://www.w3.org/2000/svg">
<path fill-rule="evenodd" clip-rule="evenodd" d="M18.5 36C28.165 36 36 28.165 36 18.5C36 8.83502 28.165 1 18.5 1C8.83502 1 1 8.83502 1 18.5C1 28.165 8.83502 36 18.5 36Z" stroke="black" stroke-width="1.5"/>
<path d="M14.4845 14.9671C15.3039 14.9671 15.9681 14.3029 15.9681 13.4835C15.9681 12.6642 15.3039 12 14.4845 12C13.6652 12 13.001 12.6642 13.001 13.4835C13.001 14.3029 13.6652 14.9671 14.4845 14.9671Z" fill="black"/>
<path d="M15.7198 15.958H13.2473C13.1108 15.958 13 16.0688 13 16.2053V23.623C13 23.7595 13.1108 23.8703 13.2473 23.8703H15.7198C15.8563 23.8703 15.9671 23.7595 15.9671 23.623V16.2053C15.9671 16.0688 15.8563 15.958 15.7198 15.958Z" fill="black"/>
<path d="M23.0885 15.5469C22.0317 15.1849 20.7099 15.5029 19.9172 16.0731C19.89 15.9667 19.7931 15.8876 19.6778 15.8876H17.2053C17.0688 15.8876 16.958 15.9984 16.958 16.1349V23.5526C16.958 23.6891 17.0688 23.7999 17.2053 23.7999H19.6778C19.8143 23.7999 19.9251 23.6891 19.9251 23.5526V18.2217C20.3247 17.8775 20.8395 17.7678 21.2608 17.9468C21.6693 18.1194 21.9032 18.5407 21.9032 19.102V23.5526C21.9032 23.6891 22.0139 23.7999 22.1504 23.7999H24.623C24.7595 23.7999 24.8703 23.6891 24.8703 23.5526V18.604C24.8421 16.572 23.8862 15.8199 23.0885 15.5469Z" fill="black"/>
</svg>
