<svg width="238" height="44" viewBox="0 0 238 44" fill="none" xmlns="http://www.w3.org/2000/svg">
<g clip-path="url(#clip0_1082_8698)">
<path d="M27.4195 14.8004C27.3993 18.5503 26.1302 22.1875 23.8112 25.1416C22.1399 27.371 20.2206 29.4181 18.4135 31.5416C16.9961 33.2181 15.508 34.8416 14.1674 36.5769C12.8586 38.1934 12.1125 40.1897 12.0414 42.2651C12.0184 42.7458 11.8056 43.1979 11.4494 43.5229C11.0932 43.848 10.6225 44.0196 10.1398 44.0004C9.89401 44.0012 9.65051 43.9535 9.42335 43.86C9.1962 43.7664 8.9899 43.629 8.81638 43.4556C8.64286 43.2823 8.50555 43.0763 8.41239 42.8498C8.31924 42.6232 8.27208 42.3805 8.27364 42.1357C8.22168 39.9772 8.82474 37.8533 10.004 36.0416C11.1045 34.3353 12.3157 32.7024 13.63 31.1534C15.4017 29.0769 17.2973 27.1534 19.0631 25.0945C21.0946 22.7416 22.8131 20.1592 23.3683 17.0122C23.8397 14.4906 23.5648 11.8868 22.5769 9.51807C20.9883 5.72395 17.1556 3.63572 12.1123 3.8416C10.5627 3.85809 9.04898 4.30801 7.74376 5.14007C6.43853 5.97213 5.39435 7.15283 4.7303 8.54749C3.12399 11.5945 3.61415 14.9651 5.91142 17.0769C7.06975 18.1724 8.60163 18.7903 10.1989 18.8063C12.8209 18.871 14.8702 16.9122 15.1064 14.1593C15.2009 13.071 15.6969 12.3945 16.5001 12.1945C16.7896 12.1156 17.0937 12.1058 17.3878 12.166C17.6818 12.2262 17.9574 12.3547 18.1922 12.541C18.427 12.7273 18.6143 12.9661 18.739 13.2381C18.8636 13.5101 18.9221 13.8076 18.9096 14.1063C19.01 18.4416 15.3072 22.3416 10.878 22.5887C3.47242 22.9769 -1.73038 15.9651 0.57279 8.70043C1.42565 5.98664 3.18736 3.6464 5.56375 2.07051C7.94014 0.494615 10.7874 -0.221543 13.63 0.041609C15.9188 0.146002 18.1618 0.716552 20.2206 1.71807C24.4903 3.92983 26.6222 7.60042 27.2305 12.2181C27.3191 13.071 27.3486 13.9357 27.4195 14.8004Z" fill="black"/>
<path d="M37.8723 24.1584C39.3319 24.1268 40.7799 24.4229 42.1089 25.0247C43.4379 25.6265 44.6138 26.5186 45.5495 27.6348C46.8763 29.244 48.1181 30.9208 49.27 32.6584C50.2858 34.0937 51.1893 35.5996 52.2228 37.0172C53.6756 38.929 55.524 40.1937 58.0693 40.2231C58.3166 40.222 58.5613 40.2725 58.7878 40.3713C59.0143 40.4701 59.2175 40.615 59.3844 40.7968C59.5512 40.9785 59.6781 41.193 59.7567 41.4265C59.8354 41.66 59.8641 41.9073 59.841 42.1525C59.8423 42.4042 59.7916 42.6536 59.6921 42.8849C59.5926 43.1163 59.4463 43.3249 59.2624 43.4976C59.0785 43.6702 58.8609 43.8034 58.6232 43.8888C58.3854 43.9741 58.1326 44.0098 57.8803 43.9937C55.5722 44.0176 53.3298 43.2279 51.5496 41.7643C49.8222 40.2712 48.3468 38.5115 47.1795 36.5525C46.1873 35.029 45.2365 33.4819 44.1913 31.9937C43.633 31.1935 42.9917 30.4541 42.2779 29.7878C39.5731 27.2996 36.0061 27.2819 33.3191 29.7878C32.4229 30.6562 31.6212 31.6165 30.9274 32.6525C29.8348 34.1996 28.9431 35.8937 27.7974 37.4054C26.6437 38.9727 25.3554 40.437 23.947 41.7819C22.2771 43.2555 20.1126 44.0511 17.882 44.0113C16.6005 44.0113 15.7619 43.3113 15.7265 42.1937C15.7078 41.9278 15.7469 41.6611 15.8412 41.4116C15.9354 41.1622 16.0826 40.936 16.2726 40.7484C16.4627 40.5608 16.6911 40.4162 16.9423 40.3245C17.1936 40.2329 17.4617 40.1963 17.7284 40.2172C18.6991 40.2015 19.6538 39.9693 20.5225 39.5377C21.3912 39.1061 22.1517 38.486 22.7482 37.7231C23.9293 36.3054 24.9037 34.7407 25.9785 33.2407C27.3191 31.376 28.5474 29.4055 30.0474 27.6702C30.9934 26.5256 32.1913 25.6134 33.5483 25.0044C34.9053 24.3954 36.3849 24.1059 37.8723 24.1584Z" fill="black"/>
<path d="M140.889 33.9937L137.995 34.6172C137.871 34.1348 137.765 33.6995 137.635 33.2701C137.435 32.4007 136.946 31.6241 136.247 31.0666C135.548 30.5092 134.68 30.2036 133.785 30.1995C133.215 30.1496 132.642 30.1496 132.072 30.1995C131.109 30.2401 130.19 30.6087 129.468 31.2437C128.745 31.8786 128.264 32.7415 128.103 33.6878C127.725 35.2258 127.803 36.8401 128.328 38.3348C128.515 38.9793 128.878 39.5595 129.377 40.0111C129.875 40.4627 130.489 40.7682 131.151 40.8937C132.293 41.0935 133.46 41.1232 134.611 40.9819C135.279 40.8857 135.904 40.5998 136.412 40.1585C136.92 39.7171 137.289 39.139 137.476 38.4937C137.676 37.9407 137.818 37.3584 138.007 36.729L140.854 37.3172C141.096 40.4878 137.629 43.6584 133.702 43.9054C128.842 44.2113 124.95 40.876 124.749 36.2584C124.536 31.2113 127.855 27.5466 132.757 27.4054C137.145 27.2937 140.848 30.2348 140.889 33.9937Z" fill="black"/>
<path d="M75.3904 43.6829C75.4967 43.3476 75.5675 43.0946 75.6561 42.8476C77.4278 38.024 79.2349 33.2064 80.9711 28.377C81.0171 28.1437 81.1527 27.9375 81.349 27.8023C81.5454 27.6671 81.787 27.6137 82.0223 27.6534C83.0026 27.7005 83.983 27.6535 84.9751 27.6829C85.119 27.7004 85.2571 27.7503 85.3789 27.8287C85.5006 27.9072 85.6029 28.0122 85.6779 28.1358C87.5617 33.1829 89.4102 38.2417 91.2645 43.3005C91.2922 43.426 91.3041 43.5544 91.3 43.6829C90.3492 43.6829 89.4279 43.7181 88.5125 43.6829C88.3118 43.6829 88.046 43.3652 87.9574 43.1417C87.5913 42.2358 87.2586 41.3201 86.9594 40.3946C86.9263 40.2239 86.8275 40.0729 86.684 39.9739C86.5404 39.8749 86.3637 39.8359 86.1916 39.8652C84.3196 39.8652 82.4416 39.8652 80.5696 39.8652C80.3854 39.8412 80.199 39.889 80.0493 39.9986C79.8997 40.1082 79.7983 40.2712 79.7664 40.4534C79.4534 41.377 79.1345 42.3005 78.7625 43.2005C78.7057 43.3192 78.6233 43.424 78.5212 43.5074C78.4192 43.5907 78.2999 43.6507 78.1719 43.6829C77.2802 43.7181 76.3884 43.6829 75.3904 43.6829ZM85.7664 37.1535L83.4042 30.277L81.0066 37.1535H85.7664Z" fill="black"/>
<path d="M77.0676 0.539062C79.8078 0.644945 82.5303 0.574371 85.1996 0.92143C87.6622 1.23908 88.8965 3.03907 88.8787 5.53319C88.861 8.02731 87.5323 9.65084 85.1582 10.1861C84.4368 10.313 83.7058 10.378 82.9732 10.3802C82.0342 10.4155 81.0893 10.3802 80.0204 10.3802V16.592H77.0676V0.539062ZM80.0795 7.6626C81.5263 7.6626 82.9141 7.75083 84.2783 7.63318C85.3768 7.53906 85.8138 6.80965 85.8079 5.52142C85.802 4.23318 85.3472 3.5273 84.3138 3.44495C82.92 3.3273 81.5145 3.44495 80.0795 3.44495V7.6626Z" fill="black"/>
<path d="M176.375 41.8011V43.6658H173.558V27.7305H176.381V34.4011C177.031 33.4638 177.967 32.7604 179.051 32.3952C180.202 32.019 181.456 32.1069 182.543 32.6402C183.63 33.1734 184.465 34.1096 184.868 35.2481C185.614 37.1445 185.583 39.2573 184.779 41.1305C184.304 42.2262 183.434 43.1053 182.342 43.5951C181.249 44.0848 180.012 44.1499 178.873 43.7775C177.86 43.4294 177.024 42.6984 176.547 41.7422L176.375 41.8011ZM182.405 38.0952C182.405 35.654 181.106 34.5658 178.631 34.9187C178.042 34.9659 177.488 35.2211 177.07 35.6384C176.652 36.0556 176.398 36.6076 176.352 37.1952C176.051 38.9599 176.553 40.4128 177.692 40.9775L177.763 41.0128C180.232 42.1422 182.411 40.7658 182.405 38.0952Z" fill="black"/>
<path d="M151.82 34.7183V32.5536H154.714V43.63H151.862V41.783L151.596 41.5947C151.593 41.7084 151.576 41.8212 151.543 41.93C150.072 44.8712 145.047 44.6006 143.558 41.4536C143.017 40.3982 142.737 39.2292 142.742 38.0441C142.748 36.859 143.037 35.6924 143.588 34.6418C143.955 33.9291 144.505 33.3256 145.181 32.8921C145.857 32.4586 146.636 32.2106 147.44 32.173C148.243 32.1354 149.042 32.3096 149.756 32.678C150.471 33.0464 151.074 33.596 151.507 34.2712C151.572 34.3535 151.649 34.4712 151.82 34.7183ZM145.72 38.1183C145.771 38.5729 145.845 39.0245 145.944 39.4712C146.076 40.0025 146.388 40.4724 146.827 40.8022C147.265 41.1321 147.804 41.3018 148.354 41.283C149.647 41.3594 150.923 41.283 151.56 39.9124C151.839 39.3372 151.981 38.7057 151.975 38.0671C151.969 37.4284 151.815 36.7998 151.525 36.23C151.283 35.7811 150.907 35.4175 150.45 35.1889C147.987 33.9947 145.761 35.4065 145.72 38.1183Z" fill="black"/>
<path d="M98.9891 16.6412V14.5882C98.8787 14.7049 98.7761 14.8287 98.682 14.9588C97.2056 17.847 92.1859 17.5765 90.6918 14.4176C90.1748 13.3667 89.9085 12.211 89.9136 11.0407C89.9188 9.87034 90.1952 8.71702 90.7213 7.67059C91.0775 6.91649 91.6463 6.28192 92.3583 5.84427C93.0703 5.40663 93.8948 5.18482 94.7312 5.20588C95.5359 5.12917 96.3454 5.29368 97.0556 5.67833C97.7659 6.06298 98.3445 6.65021 98.7174 7.36469C98.7924 7.47265 98.8753 7.57491 98.9655 7.67059V5.5294H101.871V16.6353L98.9891 16.6412ZM95.93 14.2882C98.056 14.2882 99.1013 13.2412 99.0954 11.0765C99.0895 8.91175 98.0796 7.86471 96.0186 7.83529C93.9575 7.80588 92.9418 8.85881 92.9182 11.0235C92.8945 13.1882 93.8808 14.2882 95.93 14.3V14.2882Z" fill="black"/>
<path d="M222.829 34.7078V32.5372H225.699V43.6548H222.87V41.8019L222.581 41.596C222.585 41.7131 222.571 41.8303 222.539 41.943C221.063 44.8842 216.014 44.6019 214.519 41.3548C214.006 40.316 213.743 39.1725 213.75 38.0147C213.757 36.8569 214.035 35.7166 214.561 34.6842C214.917 33.9668 215.458 33.3555 216.127 32.912C216.796 32.4685 217.57 32.2083 218.373 32.1576C219.175 32.1069 219.976 32.2675 220.696 32.6233C221.416 32.979 222.029 33.5174 222.474 34.1842L222.829 34.7078ZM219.781 41.3078C221.89 41.3078 222.911 40.3078 222.947 38.1783C222.982 36.0489 221.966 34.8901 219.87 34.8666C217.773 34.843 216.787 35.8842 216.764 38.043C216.74 40.2019 217.732 41.296 219.781 41.3078Z" fill="black"/>
<path d="M180.527 16.6535H177.716C177.686 16.0358 177.651 15.4123 177.61 14.5594C176.346 16.7888 174.527 17.2711 172.371 16.777C170.216 16.2829 168.934 14.6829 168.734 12.2182C168.637 10.9276 168.765 9.63018 169.112 8.3829C169.333 7.51881 169.826 6.74793 170.519 6.18282C171.212 5.61771 172.068 5.28797 172.962 5.24173C174.858 5.02408 176.393 5.62995 177.379 7.34172C177.413 7.41182 177.441 7.48464 177.462 7.55938L177.651 7.47113V5.52996H180.527V16.6535ZM171.556 11.0947C171.556 13.2535 172.566 14.3064 174.639 14.3005C176.712 14.2947 177.74 13.2476 177.746 11.1123C177.751 8.97701 176.706 7.84173 174.61 7.84761C172.513 7.85349 171.556 8.92995 171.556 11.0947Z" fill="black"/>
<path d="M122.818 38.1292C122.818 41.5528 120.273 44.0116 116.759 43.9645C113.245 43.9175 110.747 41.4822 110.765 38.0822C110.782 34.6822 113.34 32.1998 116.836 32.1998C117.627 32.1686 118.417 32.3004 119.155 32.5869C119.893 32.8735 120.563 33.3086 121.125 33.8651C121.686 34.4216 122.127 35.0876 122.418 35.8213C122.709 36.555 122.845 37.3407 122.818 38.1292ZM116.794 41.3057C118.873 41.3057 119.877 40.2586 119.871 38.0939C119.865 35.9292 118.867 34.8645 116.8 34.8645C114.733 34.8645 113.723 35.9175 113.712 38.0822C113.7 40.2469 114.716 41.2998 116.794 41.3057Z" fill="black"/>
<path d="M138.125 12.0006H130.259C130.212 13.2476 130.725 14.1182 131.659 14.4711C133.105 15.0182 134.263 14.6241 135.474 13.1182L137.883 13.9947C137.575 14.9374 136.922 15.7296 136.052 16.2123C133.661 17.6123 129.987 17.0359 128.375 15.0359C126.603 12.83 126.704 8.94761 128.664 6.92408C130.377 5.15938 132.491 4.81819 134.747 5.55937C137.003 6.30055 137.901 8.00645 138.143 10.1888C138.178 10.73 138.125 11.3006 138.125 12.0006ZM135.172 10.0064C135.255 8.24172 134.464 7.41821 132.769 7.42997C131.074 7.44174 130.17 8.41231 130.271 10.0064H135.172Z" fill="black"/>
<path d="M198.297 39.0575H190.389C190.389 40.3751 190.903 41.2987 191.919 41.5281C193.602 41.9104 194.576 41.8281 195.574 40.1457L196.756 40.5634L198.037 41.0457C197.856 41.5792 197.563 42.0683 197.178 42.4809C196.794 42.8936 196.325 43.2204 195.805 43.4398C194.92 43.8351 193.959 44.034 192.99 44.0229C192.02 44.0117 191.064 43.7907 190.189 43.3751C188.086 42.3869 186.988 40.081 187.271 37.4281C187.661 33.8104 190.525 31.6869 194.11 32.3516C196.531 32.7987 198.12 34.7398 198.285 37.4692C198.321 37.9222 198.297 38.4045 198.297 39.0575ZM195.344 37.0281C195.344 35.2222 194.6 34.4692 192.982 34.4575C191.364 34.4457 190.419 35.3398 190.407 37.0281H195.344Z" fill="black"/>
<path d="M157.088 11.9988H149.269C149.18 12.5174 149.277 13.0506 149.544 13.5047C149.811 13.9587 150.23 14.3045 150.728 14.4811C152.257 14.9988 153.397 14.587 154.407 13.0811L156.863 13.9752C156.563 14.9167 155.912 15.708 155.045 16.187C152.623 17.6105 148.932 17.0105 147.296 14.9458C145.525 12.7105 145.678 8.84583 147.669 6.83406C149.369 5.11641 151.46 4.787 153.686 5.50464C155.913 6.22229 156.84 7.8576 157.076 10.0399C157.116 10.6922 157.12 11.3461 157.088 11.9988ZM154.135 9.97523C154.194 8.21053 153.45 7.4223 151.773 7.41054C150.096 7.39877 149.157 8.31641 149.204 9.97523H154.135Z" fill="black"/>
<path d="M200.819 32.5054H203.665V34.4231C203.976 33.8264 204.428 33.3144 204.983 32.932C205.538 32.5495 206.178 32.3082 206.848 32.229C209.334 31.9349 211.177 33.2172 211.331 35.6937C211.496 38.3113 211.366 40.9407 211.366 43.6231H208.555C208.555 43.3348 208.519 43.0348 208.514 42.7584C208.514 40.9172 208.514 39.0701 208.514 37.229C208.514 35.7937 207.976 35.0878 206.848 34.9113C205.46 34.6878 204.362 35.276 203.978 36.576C203.793 37.2826 203.701 38.0104 203.706 38.7407C203.671 40.3584 203.706 41.976 203.706 43.6348H200.836L200.819 32.5054Z" fill="black"/>
<path d="M125.405 12.4773C124.619 15.7362 122.245 17.2832 118.814 16.8891C115.82 16.5479 113.847 14.2126 113.865 11.0361C113.883 7.85968 115.885 5.58321 119.068 5.23027C122.251 4.87733 124.684 6.54204 125.393 9.68321L122.599 10.3597C122.54 10.195 122.499 10.095 122.47 9.99498C121.879 8.02439 120.225 7.25968 118.336 8.13615C117.872 8.353 117.488 8.70881 117.237 9.1538C116.939 9.75038 116.783 10.4078 116.783 11.0744C116.783 11.7409 116.939 12.3984 117.237 12.995C117.828 14.2126 118.973 14.342 120.19 14.2891C120.671 14.293 121.139 14.1406 121.525 13.855C121.911 13.5694 122.193 13.1663 122.328 12.7067C122.422 12.4362 122.505 12.1538 122.623 11.795L125.405 12.4773Z" fill="black"/>
<path d="M182.99 13.5899L185.511 12.8841C186.439 14.5723 187.283 15.0076 188.848 14.6488C189.439 14.5076 189.864 14.237 189.882 13.5723C189.891 13.3107 189.799 13.0554 189.624 12.8601C189.449 12.6649 189.205 12.5448 188.943 12.5252C188.009 12.3311 187.071 12.1958 186.137 12.0193C184.135 11.6429 183.096 10.4017 183.155 8.48994C183.143 7.88756 183.321 7.29666 183.665 6.80061C184.008 6.30456 184.499 5.9284 185.069 5.72522C186.77 5.02388 188.682 5.02388 190.384 5.72522C190.95 5.95395 191.444 6.33218 191.811 6.81928C192.179 7.30638 192.406 7.88394 192.468 8.48994L190.011 9.06052C189.368 7.44876 188.482 6.97817 187.011 7.38994C186.753 7.43112 186.519 7.56407 186.352 7.76416C186.185 7.96424 186.096 8.21791 186.102 8.47818C186.088 8.72753 186.17 8.97274 186.332 9.16396C186.493 9.35518 186.721 9.47806 186.97 9.50759C187.95 9.70171 188.948 9.8311 189.923 10.0076C191.612 10.3017 192.61 11.237 192.781 12.6782C192.988 14.4429 192.25 15.8193 190.62 16.4429C189.749 16.7952 188.816 16.9714 187.877 16.9613C186.937 16.9512 186.008 16.755 185.145 16.3841C184.563 16.16 184.054 15.7809 183.674 15.2881C183.294 14.7953 183.057 14.2078 182.99 13.5899Z" fill="black"/>
<path d="M237.652 35.4776L235.224 36.0658C235.16 36.0076 235.104 35.9402 235.059 35.8658C234.982 35.5465 234.832 35.2494 234.62 34.9979C234.408 34.7465 234.14 34.5476 233.838 34.4169C233.535 34.2862 233.206 34.2274 232.877 34.2451C232.548 34.2628 232.227 34.3565 231.941 34.5188C231.769 34.6277 231.626 34.7758 231.524 34.9507C231.421 35.1256 231.362 35.3223 231.35 35.5247C231.395 35.7336 231.488 35.9293 231.623 36.0958C231.757 36.2624 231.929 36.3951 232.124 36.4835C233.048 36.7086 233.985 36.8776 234.929 36.9894C236.872 37.3188 237.882 38.2953 238 39.9306C238.107 40.7765 237.89 41.6315 237.392 42.3249C236.893 43.0184 236.151 43.4993 235.313 43.6717C233.767 44.1524 232.103 44.1027 230.589 43.5306C229.951 43.3142 229.383 42.9307 228.946 42.4204C228.508 41.9101 228.217 41.2918 228.102 40.6306L230.689 39.9011C231.663 41.5894 232.425 41.9952 233.955 41.6658C234.545 41.5305 235.053 41.2835 235.071 40.5776C235.089 39.8717 234.622 39.6188 234.055 39.5011C233.122 39.3129 232.177 39.1894 231.244 39.0011C229.295 38.6188 228.291 37.3776 228.344 35.4717C228.341 34.8548 228.533 34.2526 228.892 33.7501C229.251 33.2476 229.76 32.8704 230.346 32.6717C231.937 32.0596 233.695 32.0366 235.301 32.607C235.928 32.8099 236.484 33.1885 236.901 33.6976C237.318 34.2067 237.578 34.8247 237.652 35.4776Z" fill="black"/>
<path d="M93.922 35.0647H91.5598V32.4941H93.8925C93.8925 31.7705 93.8925 31.1588 93.8925 30.5411C93.8925 28.3705 95.2153 27.0705 97.4004 27.0117C98.239 27.0117 99.0776 27.0117 99.9988 27.0117V29.5764H96.8571V32.4235H100.099V35.0058H96.8689V43.6176H93.9456L93.922 35.0647Z" fill="black"/>
<path d="M140.777 0.699219H143.564V16.6227H140.777V0.699219Z" fill="black"/>
<path d="M167.234 8.14619C166.791 8.08149 166.549 8.04031 166.306 8.01089C164.417 7.79913 163.052 8.69324 162.799 10.5638C162.586 12.1638 162.663 13.7991 162.61 15.4227C162.61 15.7991 162.61 16.1756 162.61 16.5991H159.745V5.52854H162.604V7.82854H162.745C162.875 7.54031 162.988 7.24031 163.129 6.96972C163.455 6.30667 164.004 5.77916 164.681 5.48004C165.359 5.18091 166.12 5.12935 166.832 5.33443C166.925 5.36663 167.01 5.42011 167.078 5.49059C167.147 5.56107 167.198 5.64658 167.228 5.7403C167.251 6.55206 167.234 7.32855 167.234 8.14619Z" fill="black"/>
<path d="M105.06 16.6168V5.55794H107.93V7.83443L108.06 7.86383C108.19 7.58148 108.308 7.2756 108.444 7.02266C108.764 6.35479 109.312 5.82199 109.991 5.51926C110.669 5.21652 111.433 5.16353 112.147 5.36972C112.246 5.41307 112.334 5.47942 112.403 5.56329C112.472 5.64717 112.52 5.74615 112.542 5.85206C112.59 6.57559 112.542 7.305 112.542 8.11677L111.627 8.01089C109.761 7.79913 108.432 8.64619 108.131 10.4932C107.977 11.8346 107.912 13.1846 107.936 14.5344C107.936 15.2109 107.936 15.8815 107.936 16.6168H105.06Z" fill="black"/>
<path d="M157.909 43.6214V32.5861H160.779V34.8567L160.909 34.8861C161.062 34.5567 161.198 34.2155 161.369 33.8978C161.718 33.2764 162.266 32.7906 162.927 32.5193C163.587 32.2481 164.321 32.2073 165.007 32.4037C165.106 32.4518 165.192 32.522 165.258 32.6087C165.325 32.6955 165.37 32.7965 165.391 32.9037C165.432 33.6273 165.391 34.3567 165.391 35.1567C164.99 35.1096 164.653 35.0684 164.31 35.039C162.592 34.8861 161.358 35.6861 161.003 37.3625C160.844 38.2951 160.771 39.2402 160.785 40.1861C160.749 41.3214 160.785 42.4567 160.785 43.6508L157.909 43.6214Z" fill="black"/>
<path d="M104.912 32.5362V34.8303L105.042 34.8597C105.107 34.7361 105.178 34.6126 105.231 34.4832C105.464 33.7201 105.978 33.0734 106.671 32.6737C107.364 32.2741 108.183 32.1513 108.964 32.3303C109.383 32.3832 109.595 32.5362 109.554 32.995C109.525 33.6891 109.554 34.3832 109.554 35.1303C109.099 35.0832 108.751 35.0361 108.373 35.0067C106.719 34.8773 105.556 35.6362 105.149 37.2303C104.974 37.9926 104.885 38.7719 104.883 39.5538C104.847 40.9009 104.883 42.2479 104.883 43.6361H102.048V32.5362H104.912Z" fill="black"/>
<path d="M167.423 32.5234H170.234V43.6117H167.423V32.5234Z" fill="black"/>
<path d="M208.762 27.5231H210.084C209.975 28.4049 209.812 29.2791 209.594 30.1407C209.497 30.4604 209.279 30.7299 208.986 30.8923C208.692 31.0547 208.348 31.0974 208.023 31.0113C207.411 30.8868 206.816 30.6893 206.252 30.4231C205.944 30.256 205.653 30.059 205.384 29.8349C204.338 29.129 204.061 29.2466 203.76 30.6348H202.531C202.466 29.6172 202.449 28.5937 203.122 27.729C203.647 27.0231 204.462 27.0349 205.206 27.2996C205.762 27.5105 206.283 27.8018 206.754 28.1643C208.1 29.1466 208.342 29.0878 208.762 27.5231Z" fill="black"/>
<path d="M168.828 30.5708C167.594 30.5708 166.909 29.9473 166.891 28.7767C166.873 27.6061 167.541 26.959 168.781 26.9532C170.021 26.9473 170.718 27.5767 170.718 28.7179C170.718 29.859 170.051 30.5649 168.828 30.5708Z" fill="black"/>
<path d="M37.9432 16.8809C38.4253 16.9191 38.8737 17.1416 39.1947 17.5019C39.5157 17.8621 39.6844 18.332 39.6653 18.8133C39.6462 19.2946 39.4409 19.7498 39.0924 20.0837C38.7439 20.4176 38.2792 20.6042 37.7956 20.6044C37.5435 20.6045 37.2939 20.5539 37.0619 20.4556C36.8298 20.3573 36.6202 20.2133 36.4454 20.0323C36.2706 19.8513 36.1343 19.637 36.0447 19.4022C35.9552 19.1674 35.9141 18.9171 35.9241 18.6661C35.934 18.4152 35.9948 18.1688 36.1026 17.9418C36.2105 17.7148 36.3633 17.5119 36.5519 17.3451C36.7405 17.1784 36.9609 17.0513 37.2 16.9716C37.4391 16.8918 37.6919 16.8609 37.9432 16.8809Z" fill="black"/>
</g>
<defs>
<clipPath id="clip0_1082_8698">
<rect width="238" height="44" fill="white"/>
</clipPath>
</defs>
</svg>
