<svg width="16" height="22" viewBox="0 0 16 22" fill="none" xmlns="http://www.w3.org/2000/svg">
<path d="M1.07013 1.50584C1.14058 2.42936 1.14026 3.35369 1.14026 4.27894C1.14026 4.5634 1.17178 4.86185 1.1052 5.14233C1.03264 5.44797 1 5.79511 1 6.10659C1 7.09562 1.00484 8.09126 1.04286 9.07972C1.06884 9.75521 1.08426 10.4305 1.12273 11.1057C1.15366 11.6486 1.1052 12.1945 1.1052 12.7384C1.1052 13.4175 1.13999 14.1041 1.19286 14.7815C1.24661 15.4702 1.38753 16.1951 1.3078 16.8861C1.23859 17.4859 1.21039 18.1187 1.21039 18.7223C1.21039 19.1526 1.08771 19.6416 1.18312 20.0696C1.20595 20.172 1.30293 20.2761 1.31559 20.3705C1.32534 20.4432 1.80346 20.4012 1.86494 20.4012C2.81776 20.4012 3.76335 20.4981 4.71497 20.5226C5.92511 20.5539 7.14562 20.5496 8.35592 20.5551C9.35197 20.5596 10.3482 20.5551 11.3443 20.5551C11.6795 20.5551 12.0009 20.6474 12.3397 20.6474C12.5271 20.6474 12.7027 20.6782 12.8891 20.6782C13.0651 20.6782 13.2516 20.6518 13.4248 20.6235C13.5615 20.6012 13.7022 20.6368 13.8339 20.5927C13.9928 20.5396 14.1828 20.6053 14.3501 20.538C14.5231 20.4684 14.4701 20.1589 14.4475 20.0319C14.3531 19.5012 14.2425 18.9024 14.3326 18.3633C14.369 18.1453 14.4619 17.936 14.4923 17.717C14.5209 17.5123 14.5001 17.2969 14.5001 17.0913C14.5001 16.8015 14.5345 16.5113 14.5625 16.2228C14.6211 15.6187 14.5703 14.9911 14.5703 14.3849C14.5703 13.7443 14.4651 13.1144 14.4651 12.4751C14.4651 12.2688 14.4651 12.0625 14.4651 11.8562C14.4651 11.5791 14.3782 11.3199 14.3618 11.0476C14.3473 10.8053 14.2897 10.5641 14.2897 10.3227C14.2897 10.0809 14.3404 9.85687 14.3579 9.61827C14.4393 8.51076 14.3949 7.41428 14.3949 6.3032C14.3949 6.04289 14.4407 5.73224 14.3677 5.47571C14.3254 5.32746 14.2897 5.238 14.2897 5.07565C14.2897 4.8754 13.8192 4.68453 13.6274 4.60036C13.4404 4.51832 13.2924 4.38496 13.1462 4.25671C12.7803 3.93556 12.3915 3.63405 12.065 3.2839C11.7621 2.95894 11.4207 2.67316 11.0072 2.45813C10.4432 2.1648 10.0529 1.64977 9.48775 1.37077C9.2444 1.25064 8.69608 1.3864 8.46111 1.41351C7.83834 1.48537 7.21688 1.56103 6.58707 1.56738C5.68826 1.57645 4.79219 1.56253 3.89483 1.5349C2.96049 1.50613 2.01998 1.44429 1.08572 1.44429" stroke="white" stroke-linecap="round"/>
<path d="M8.95056 1.42566C8.95056 2.16696 8.95056 2.86048 8.95056 3.60629C8.95056 4.04656 8.53665 5.78693 8.95056 5.42349" stroke="white" stroke-linecap="round"/>
<path d="M9.0918 5.53732C9.45411 5.53144 9.74545 5.58836 10.1018 5.53723C10.4032 5.494 10.7037 5.4788 11.0057 5.43123C11.4118 5.36727 11.8371 5.38771 12.2486 5.38336C12.5988 5.37966 12.9884 5.34761 13.3356 5.30643C13.4589 5.29181 14.1792 5.37298 14.22 5.22949" stroke="white" stroke-linecap="round"/>
</svg>
