<svg width="26" height="25" viewBox="0 0 26 25" fill="none" xmlns="http://www.w3.org/2000/svg">
<path d="M7.50569 19.2081L7.4295 19.2796L7.47028 19.3759C8.08071 20.8169 8.90693 22.0636 9.92016 22.8867C10.9363 23.7122 12.142 24.1117 13.4933 23.8481C14.5125 23.6876 15.4453 23.0522 16.3322 22.2848C16.777 21.8999 17.2153 21.4771 17.6502 21.0577L17.6518 21.0562C18.0858 20.6376 18.5163 20.2224 18.9519 19.845C19.001 19.8102 19.0218 19.7596 19.0311 19.729C19.0427 19.691 19.0467 19.6499 19.0477 19.612C19.0497 19.535 19.0396 19.4397 19.0222 19.337C18.9871 19.1297 18.9179 18.8668 18.8288 18.6063C18.7398 18.3461 18.6285 18.0813 18.507 17.8723C18.4464 17.768 18.3806 17.673 18.3104 17.5987C18.2435 17.5278 18.1601 17.4624 18.0612 17.4392C16.2425 16.9283 14.432 16.5917 12.6616 16.7728C10.8852 16.9546 9.15722 17.6565 7.50569 19.2081ZM9.41437 19.6648C12.1128 18.11 14.5624 18.5319 17.1407 19.0184C16.0571 20.9211 14.8044 21.9049 13.5119 22.022C12.2133 22.1397 10.8081 21.3881 9.41437 19.6648Z" fill="white" stroke="white" stroke-width="0.3"/>
<path d="M7.53992 3.56475L7.80446 3.5218L7.62951 3.31877C6.83467 2.39635 6.07261 1.71278 5.27363 1.3678C4.46569 1.01895 3.63141 1.02122 2.7124 1.4447C2.10962 1.6989 1.45204 2.0157 1.03185 2.50333C0.818673 2.75073 0.665043 3.04355 0.610735 3.39369C0.556559 3.74298 0.602826 4.13883 0.772573 4.59066L0.814947 4.70345L0.93422 4.6864C2.16467 4.51049 3.33853 4.30004 4.5899 4.07569C5.5131 3.91018 6.47848 3.7371 7.53992 3.56475Z" fill="white" stroke="white" stroke-width="0.3"/>
<path d="M24.9607 7.5367L25.286 7.62582L25.1343 7.32459C24.378 5.82204 23.5115 5.11985 22.5837 4.88934C21.6659 4.66132 20.7223 4.90506 19.8364 5.21169L19.8364 5.21167L19.834 5.21255C19.1046 5.479 18.6418 5.89108 18.4508 6.56095C18.2651 7.21235 18.3438 8.08612 18.6235 9.2615L18.7311 9.71353L18.9081 9.28391C19.2271 8.50969 19.6043 7.97745 20.0233 7.62095C20.441 7.26559 20.9077 7.07833 21.4179 7.00539C22.4503 6.8578 23.6498 7.1775 24.9607 7.5367Z" fill="white" stroke="white" stroke-width="0.3"/>
<path d="M17.8334 2.38526L17.7153 2.4859L17.8199 2.60051C17.916 2.70588 18.0847 2.89261 18.1662 3.07131L18.2107 3.16895L18.3175 3.15831C19.2826 3.06215 20.2681 2.94338 21.2627 2.82351C21.3243 2.81608 21.386 2.80865 21.4477 2.80123C22.5056 2.6738 23.5734 2.54661 24.6408 2.44488L24.8282 2.42702L24.7689 2.24832C24.5766 1.6687 24.309 1.24455 23.9855 0.939411C23.6617 0.634009 23.289 0.454513 22.8969 0.35379C22.2257 0.181379 21.4829 0.238411 20.8215 0.289188C20.7204 0.296952 20.6211 0.30457 20.5244 0.311199L20.5244 0.311074L20.5183 0.311741C19.999 0.368659 19.5251 0.733845 19.0946 1.14193C18.9158 1.3114 18.7388 1.49411 18.5656 1.67291C18.5276 1.71206 18.4899 1.75102 18.4523 1.78962C18.2417 2.00614 18.0368 2.21187 17.8334 2.38526Z" fill="white" stroke="white" stroke-width="0.3"/>
<path d="M1.25182 9.04394L1.1029 9.27516H1.37793H8.44583H8.88077L8.5383 9.00705C8.13077 8.68801 7.78301 8.39314 7.46652 8.12477C7.27673 7.96385 7.09819 7.81246 6.92474 7.6711C6.46999 7.30049 6.05867 7.00639 5.61548 6.84423C4.64438 6.47203 3.82885 6.57684 3.11379 7.00923C2.40907 7.43537 1.81262 8.17321 1.25182 9.04394Z" fill="white" stroke="white" stroke-width="0.3"/>
<path d="M14.3324 10.4367L14.3842 10.3658L14.3477 10.286C14.2528 10.078 14.1581 9.89641 14.0763 9.74267C14.0619 9.71557 14.048 9.68951 14.0346 9.66446C13.9708 9.54506 13.9191 9.44839 13.8828 9.36865L13.8087 9.20633L13.6615 9.30716C13.4824 9.42986 13.2733 9.54775 13.0541 9.66706C13.0073 9.69255 12.9599 9.71814 12.9124 9.74383C12.7398 9.83712 12.5645 9.93182 12.4025 10.0282C12.1959 10.1511 12.0013 10.2822 11.8509 10.4263C11.701 10.5698 11.5823 10.7383 11.552 10.9373L11.5519 10.9373L11.5513 10.9428C11.5012 11.3819 11.6013 11.9415 11.7919 12.4637C11.9819 12.9843 12.2699 13.49 12.6166 13.8175C12.7442 13.9544 12.9238 14.0121 13.1075 14.033C13.2939 14.0541 13.5056 14.0396 13.7179 14.0137C13.8599 13.9964 14.0091 13.9731 14.1554 13.9502C14.227 13.9389 14.298 13.9278 14.3669 13.9176C14.5811 13.8859 14.7811 13.8619 14.9553 13.8619H15.1886L15.0917 13.6497C15.0147 13.4809 15.0123 13.3118 15.0123 12.9984V12.9031L14.926 12.8626C14.5732 12.6969 14.2529 12.5338 13.8994 12.3538C13.6423 12.2228 13.3675 12.0829 13.0499 11.9265C13.2806 11.6419 13.4947 11.4071 13.6943 11.1884L13.6973 11.1851C13.9277 10.9326 14.1416 10.6982 14.3324 10.4367Z" fill="white" stroke="white" stroke-width="0.3"/>
</svg>
