<svg width="37" height="37" viewBox="0 0 37 37" fill="none" xmlns="http://www.w3.org/2000/svg">
<path fill-rule="evenodd" clip-rule="evenodd" d="M18.5 36C28.165 36 36 28.165 36 18.5C36 8.83502 28.165 1 18.5 1C8.83502 1 1 8.83502 1 18.5C1 28.165 8.83502 36 18.5 36Z" stroke="black" stroke-width="1.5"/>
<path d="M24.2192 15.2647C24.138 15.1729 24.0071 15.1498 23.8997 15.2064C23.8329 15.2416 23.7073 15.2878 23.5582 15.3334C23.7463 15.0762 23.8976 14.7882 23.9643 14.5293C23.9932 14.4177 23.951 14.3001 23.8591 14.2336C23.7672 14.1677 23.6448 14.1677 23.5529 14.2336C23.4081 14.3375 22.7092 14.6497 22.2673 14.7508C21.2686 13.8511 20.1064 13.7577 18.8983 14.4831C17.9161 15.0729 17.7024 16.2721 17.7441 17.0031C15.4961 16.7805 14.0988 15.5593 13.3123 14.5485C13.2572 14.4776 13.1685 14.4403 13.0852 14.4458C12.9975 14.4524 12.9185 14.5024 12.8736 14.5799C12.5017 15.2257 12.3985 15.9396 12.5765 16.6447C12.6737 17.0295 12.8436 17.3686 13.0408 17.6434C12.9462 17.5956 12.8549 17.5357 12.7688 17.4642C12.6898 17.3972 12.5791 17.3845 12.4856 17.429C12.3927 17.4747 12.3333 17.5714 12.3333 17.6775C12.3333 18.8882 13.0697 19.6962 13.7574 20.1183C13.6462 20.1045 13.5303 20.0792 13.4132 20.0424C13.3128 20.0111 13.2038 20.0424 13.1343 20.1238C13.0649 20.2046 13.0483 20.32 13.0916 20.4184C13.4779 21.2972 14.21 21.9017 15.1157 22.121C14.3248 22.5986 13.2663 22.8328 12.297 22.7179C12.1714 22.6998 12.0517 22.7817 12.0122 22.9059C11.9727 23.0301 12.0245 23.1664 12.1351 23.2301C13.6056 24.0793 14.9351 24.3827 16.0839 24.3827C17.7558 24.3827 19.0463 23.7407 19.8318 23.2038C21.9493 21.7583 23.2692 19.163 23.0854 16.841C23.4247 16.5832 23.9323 16.1072 24.247 15.5955C24.3122 15.4922 24.3004 15.3559 24.2192 15.2647Z" fill="black"/>
</svg>
