<svg width="18" height="13" viewBox="0 0 18 13" fill="none" xmlns="http://www.w3.org/2000/svg">
<path d="M17.1467 10.8152V10.8149C17.3162 10.2048 17.4077 9.22333 17.4542 8.35713C17.477 7.93183 17.4885 7.54713 17.4942 7.26873C17.497 7.12963 17.4985 7.01733 17.4992 6.94013L17.4998 6.85173L17.4999 6.82923V6.82383V6.82253V6.82233V6.82223V6.82203V6.82083V6.81533L17.4998 6.79283L17.4992 6.70443C17.4985 6.62723 17.497 6.51493 17.4942 6.37593C17.4885 6.09743 17.477 5.71273 17.4542 5.28743C17.4077 4.42133 17.3162 3.43973 17.1467 2.82963V2.82933C17.0706 2.55473 16.92 2.30173 16.7074 2.09663C16.4949 1.89153 16.2281 1.74173 15.9327 1.66433C15.6356 1.58783 15.0719 1.52273 14.3532 1.47213C13.6474 1.42243 12.8312 1.38913 12.0538 1.36683C11.2772 1.34463 10.5433 1.33343 10.0032 1.32783C9.73331 1.32503 9.51201 1.32373 9.35841 1.32303L9.18101 1.32243L9.13491 1.32233H9.12321H9.12031H9.11961H9.11951L9.11941 0.822327V1.32233H9.11931H9.11861H9.11571H9.10401L9.05781 1.32243L8.88051 1.32303C8.72691 1.32373 8.50561 1.32503 8.23571 1.32783C7.69561 1.33343 6.96171 1.34463 6.18511 1.36683C5.40771 1.38913 4.59151 1.42243 3.88571 1.47213C3.16701 1.52273 2.60341 1.58783 2.30621 1.66433C2.01081 1.74173 1.74401 1.89153 1.53151 2.09663C1.31891 2.30173 1.16831 2.55473 1.09221 2.82933L1.09211 2.82963C0.922713 3.43973 0.831214 4.42133 0.784714 5.28743C0.761914 5.71273 0.750414 6.09743 0.744714 6.37593C0.741914 6.51493 0.740414 6.62723 0.739714 6.70443L0.739114 6.79283L0.739014 6.81533V6.82083V6.82203V6.82223V6.82233V6.82253V6.82383V6.82923L0.739114 6.85173L0.739714 6.94013C0.740414 7.01733 0.741914 7.12963 0.744714 7.26873C0.750414 7.54713 0.761914 7.93183 0.784714 8.35713C0.831214 9.22333 0.922713 10.2048 1.09211 10.8149L1.09221 10.8152C1.16831 11.0898 1.31891 11.3428 1.53151 11.548C1.74401 11.753 2.01081 11.9029 2.30631 11.9802C2.60341 12.0567 3.16701 12.1219 3.88571 12.1724C4.59151 12.2221 5.40771 12.2554 6.18511 12.2777C6.96171 12.3 7.69561 12.3111 8.23571 12.3167C8.50561 12.3195 8.72691 12.3209 8.88051 12.3216L9.05781 12.3222L9.10401 12.3223H9.11571H9.11861H9.11931H9.11941V12.8223L9.11951 12.3223H9.11961H9.12031H9.12321H9.13491L9.18101 12.3222L9.35841 12.3216C9.51201 12.3209 9.73331 12.3195 10.0032 12.3167C10.5433 12.3111 11.2772 12.3 12.0538 12.2777C12.8312 12.2554 13.6474 12.2221 14.3532 12.1724C15.0719 12.1219 15.6355 12.0567 15.9327 11.9802C16.2281 11.9029 16.4949 11.753 16.7074 11.548C16.92 11.3428 17.0706 11.0898 17.1467 10.8152ZM6.80301 4.28973V3.44733L7.54251 3.85083L12.1845 6.38333L12.989 6.82233L12.1845 7.26123L7.54251 9.79383L6.80301 10.1972V9.35483V4.28973Z" fill="white" stroke="white"/>
</svg>
