<svg width="331" height="400" viewBox="0 0 331 400" fill="none" xmlns="http://www.w3.org/2000/svg">
<g clip-path="url(#clip0_703_8632)">
<path fill-rule="evenodd" clip-rule="evenodd" d="M191.781 240.861C162.092 232.605 142.699 244.331 130.607 278.312C119.714 308.704 85.3558 320.908 51.9557 313.37C19.6331 306.071 0.718314 282.141 3.28794e-05 247.681C-0.718248 212.742 16.1614 189.051 48.6037 179.359C83.2009 169.069 86.4332 164.043 88.2289 125.156C90.5035 74.0642 110.975 32.425 159.339 11.4857C204.471 -8.13739 248.884 -3.59058 287.193 30.1516C328.135 66.1671 340.705 117.977 321.072 165.479C299.643 217.289 255.708 243.732 191.781 240.861Z" fill="#F2B17C"/>
<path d="M221.71 281.903C219.315 281.664 217.16 281.544 214.886 281.305C214.886 287.048 215.006 292.553 214.766 298.176C214.766 299.133 213.808 300.091 213.21 301.048C212.851 301.766 212.013 302.603 212.013 303.441C211.534 318.757 211.295 334.072 210.816 349.388C210.457 361.473 209.858 373.677 209.259 385.762C209.259 386.839 208.541 388.036 207.823 388.873C203.753 393.779 198.365 396.89 192.499 399.283C190.225 400.24 187.711 400.24 185.915 397.967C184.12 395.574 185.556 393.42 186.753 391.266C186.993 390.788 187.472 390.309 187.95 390.189C196.211 386.241 196.33 378.822 196.211 371.284C195.971 358.601 195.851 345.798 195.732 333.115C195.612 323.423 195.492 313.611 195.253 303.92C195.253 303.082 194.894 301.885 194.415 301.646C190.943 300.091 191.542 296.98 191.422 294.108C191.302 290.159 191.183 286.211 190.823 282.262C190.345 276.878 189.746 271.494 189.147 266.109C187.352 267.425 185.915 268.861 184.12 269.818C182.683 270.656 181.246 270.297 180.408 268.502C179.69 267.066 178.254 265.87 177.296 264.434C176.099 262.639 176.099 261.562 178.613 260.605C180.887 259.768 182.803 257.973 185.556 256.058C183.521 254.981 182.444 254.623 181.486 254.024C177.655 251.512 173.585 249.358 170.113 246.486C164.487 241.7 163.05 232.965 166.402 225.666C167.479 223.154 169.036 220.88 170.472 218.487C170.831 217.889 171.43 217.171 171.31 216.812C169.395 213.582 171.909 212.385 173.944 211.188C180.887 206.881 187.831 202.693 195.013 198.625C196.45 197.787 198.365 197.787 200.281 197.309C200.999 195.514 200.52 194.317 198.365 193.241C196.091 192.164 193.697 190.728 191.901 188.933C186.753 184.147 181.606 179.48 178.852 172.78C175.261 164.045 176.578 155.669 179.93 147.294C181.366 143.824 182.922 140.474 184.718 137.243C185.556 135.687 186.753 134.132 188.19 132.935C190.225 131.141 191.661 131.739 192.619 134.012C195.732 130.901 198.844 127.431 202.316 124.44C203.872 123.124 206.147 122.047 207.583 124.919C209.14 124.32 210.456 123.602 211.893 123.124C216.203 121.808 218.717 123.722 218.717 128.269C218.717 130.183 218.358 132.098 220.991 132.576C223.026 129.226 223.984 129.226 226.139 132.576C226.498 133.175 227.216 133.534 227.695 134.012C228.414 134.73 229.611 135.448 229.85 136.286C231.526 141.67 233.561 147.054 234.519 152.678C236.434 164.045 233.801 174.335 225.301 182.711C224.104 183.908 223.386 185.702 222.428 187.019C221.231 188.574 219.794 189.89 218.597 191.446C218.118 192.164 217.879 193.001 217.52 193.839C218.238 194.198 218.956 194.796 219.674 194.796C223.625 194.557 227.576 194.437 231.406 193.839C232.843 193.599 234.04 192.044 235.596 191.326C237.631 190.249 239.786 189.531 241.821 188.574C242.54 188.215 243.258 187.617 243.737 186.899C249.962 178.164 256.307 169.549 262.292 160.695C265.525 155.909 267.919 150.524 270.672 145.499C273.067 141.191 271.989 136.764 271.75 132.337C271.63 129.465 271.271 126.594 275.461 125.397C275.7 126.833 276.06 128.149 276.299 129.465C278.334 126.713 280.369 124.081 282.285 121.568C285.277 123.483 287.911 124.679 289.946 126.594C290.784 127.431 290.305 129.585 290.545 131.26C291.143 131.619 292.221 132.337 293.179 133.055C292.46 134.132 291.742 135.328 290.904 136.286C286.235 141.431 281.087 146.097 278.214 152.798C272.229 166.917 265.166 180.557 255.588 192.642C254.032 194.557 252.596 196.71 251.159 198.745C250.8 199.223 250.321 199.821 250.441 200.18C252.356 203.77 249.244 205.325 247.448 207.24C243.976 210.83 243.258 214.898 244.575 219.684C245.533 223.154 246.011 226.743 246.849 230.213C247.448 232.846 245.413 234.042 243.737 234.521C238.948 235.957 238.589 239.187 239.068 243.255C240.026 250.794 241.103 258.212 241.582 265.75C242.3 275.681 242.659 285.613 243.138 295.544C243.138 296.022 243.138 296.86 242.779 297.099C239.307 299.253 240.744 302.843 240.624 305.714C240.505 319.474 240.624 333.235 240.744 346.875C240.744 355.729 241.462 364.584 240.744 373.438C240.385 379.062 242.899 381.814 246.849 384.566C248.645 385.882 250.441 387.557 251.758 389.352C253.434 391.506 253.553 394.018 251.758 396.411C249.962 398.804 247.568 398.924 245.293 397.608C239.786 394.497 234.399 391.266 229.012 387.916C228.533 387.677 228.294 386.6 228.294 386.002C227.935 377.386 227.456 368.771 227.336 360.037C226.977 345.798 226.857 331.559 226.618 317.44C226.498 312.893 226.378 308.227 225.9 303.68C225.54 300.928 224.104 298.296 223.625 295.424C222.667 290.997 222.308 286.57 221.71 281.903ZM196.57 199.582C187.472 203.411 179.331 208.556 171.669 214.658C174.303 218.368 176.937 221.718 179.092 225.427C180.408 227.701 181.606 228.06 183.641 226.624C183.76 225.427 183.88 224.111 183.88 222.914C184.718 223.632 184.958 224.35 185.077 225.188C185.556 231.051 185.915 236.914 186.274 242.897C186.634 248.52 186.993 248.999 192.739 248.64C193.337 248.64 194.056 248.52 194.654 248.401C210.097 245.17 225.301 241.461 239.786 235.119C245.293 232.726 245.413 232.487 244.096 226.624C243.857 225.547 243.857 224.47 243.497 223.393C241.702 215.975 241.582 209.035 248.166 203.65C248.525 203.291 248.885 202.813 249.004 202.693C246.49 198.745 244.096 194.916 241.462 191.326C241.103 190.847 239.068 190.728 238.469 191.206C234.399 194.916 229.611 196.112 224.224 195.873C222.907 195.753 221.47 196.232 219.914 196.352C222.667 198.745 222.787 200.18 220.632 202.693C215.963 208.077 205.907 209.872 199.802 206.402C197.767 204.967 195.373 203.411 196.57 199.582ZM197.767 300.45C201.239 300.33 204.112 299.971 206.865 300.091C214.048 300.33 212.731 299.851 213.09 293.988C213.449 289.322 213.21 284.655 213.21 279.75C216.562 279.869 219.914 279.989 223.026 280.228C223.505 283.818 223.984 287.407 224.463 290.877C224.822 293.39 224.942 295.903 225.66 298.296C225.9 299.133 227.576 300.45 228.294 300.33C232.843 299.373 237.392 298.057 242.061 296.74C240.864 280.468 239.667 265.152 238.35 249.358C223.386 248.879 209.02 250.076 194.415 253.546C195.612 269.22 196.689 284.536 197.767 300.45ZM183.401 167.874C183.521 167.395 183.282 167.994 183.282 168.472C183.401 174.096 187.711 177.925 189.267 182.95C190.345 186.779 193.457 188.813 196.57 190.967C204.471 196.352 219.315 193.958 222.787 183.668C223.625 181.036 224.343 178.404 225.181 175.771C225.301 175.293 225.301 174.455 225.54 174.335C230.09 172.182 228.294 168.353 228.174 165.361C226.977 164.883 225.78 164.284 225.66 163.447C225.062 159.977 223.026 157.584 220.393 155.43C217.759 153.276 215.245 151.003 212.252 148.49C210.935 148.73 208.9 149.208 206.865 149.448C196.689 150.764 188.19 153.875 186.873 166.079C186.873 166.558 185.077 167.037 183.401 167.874ZM197.647 302.125C197.647 312.056 197.647 321.628 197.647 331.2C197.647 340.533 197.527 349.986 197.647 359.319C197.647 365.541 198.126 371.763 198.126 377.865C198.126 380.138 197.168 382.412 196.33 384.685C195.612 386.719 194.415 388.634 193.218 390.907C196.33 390.907 198.485 391.147 200.64 390.907C203.992 390.548 208.9 384.326 207.344 383.01C206.506 383.249 205.668 383.489 204.71 383.728V378.344C205.788 378.942 206.506 379.301 207.703 380.019C208.421 353.815 209.259 328.089 209.978 302.005H197.647V302.125ZM238.948 300.091C234.758 300.928 231.167 301.766 227.456 302.484C227.456 302.962 227.336 303.441 227.336 303.92C227.695 314.928 228.174 325.816 228.533 336.824C229.012 349.268 229.491 361.712 229.85 374.156C229.97 376.07 229.97 377.985 232.364 377.626C232.723 379.181 232.963 380.617 233.322 381.933C233.082 382.053 232.963 382.292 232.723 382.412C231.885 381.335 230.928 380.138 230.09 379.181C228.892 383.489 230.329 386.719 234.639 388.036C237.033 388.754 239.667 388.395 242.181 388.275C243.258 388.275 244.335 387.437 245.413 387.078C244.814 386.121 244.335 384.805 243.497 384.207C240.505 381.933 238.469 379.54 238.948 375.233C239.427 371.165 238.948 366.977 238.948 362.908C238.829 358.122 238.589 353.336 238.709 348.55C238.829 341.61 239.188 334.67 239.307 327.73C239.307 325.696 238.829 323.662 238.829 321.509C238.829 314.569 238.948 307.509 238.948 300.091ZM248.885 198.505C252.955 193.36 257.145 189.172 260.018 184.267C266.004 174.096 272.348 164.045 276.299 152.798C277.376 149.926 278.933 147.054 280.848 144.542C283.123 141.431 285.996 138.679 288.39 136.166C286.475 134.252 284.679 132.576 283.003 130.901C282.285 131.141 281.447 131.26 280.13 131.619C280.369 129.585 280.489 128.03 280.609 126.474C277.735 127.431 279.531 135.089 273.426 131.26C273.426 132.576 273.186 134.012 273.426 135.209C274.743 140.234 272.947 144.542 270.792 148.969C264.088 162.37 255.349 174.455 246.61 186.54C245.652 187.856 243.857 189.292 243.857 190.608C243.857 192.283 245.413 193.839 246.49 195.394C247.209 196.351 248.047 197.309 248.885 198.505ZM190.105 154.473C194.894 150.165 199.323 148.73 204.83 148.131C211.055 147.413 216.682 145.738 219.315 139.397C219.914 137.841 220.273 134.969 219.435 134.252C217.16 132.337 217.639 130.064 217.4 127.79C217.041 124.919 215.365 123.483 212.731 124.44C209.02 125.756 205.429 127.431 204.471 131.739C203.513 136.166 200.161 138.559 197.168 141.431C193.457 144.781 191.422 148.969 190.105 154.473ZM185.676 165.122C186.873 160.097 187.591 155.191 189.387 150.644C190.943 146.815 193.218 142.627 196.33 140.354C201.598 136.405 202.915 130.782 205.429 125.158C204.71 125.397 204.351 125.397 204.112 125.517C201.119 128.389 198.006 131.141 195.253 134.252C192.739 137.123 191.661 137.243 190.105 133.773C179.331 143.226 171.43 168.951 187.472 182.472C185.915 179.48 184.718 177.207 183.76 174.934C182.922 172.541 182.084 170.147 181.845 167.635C181.606 165.242 182.683 163.686 185.676 165.122ZM225.66 178.643C226.019 178.763 226.378 178.882 226.857 179.002C232.843 170.506 235.596 161.174 233.202 150.883C232.005 145.978 229.85 141.191 228.054 136.286C227.456 136.166 226.498 136.166 226.019 136.046C225.062 134.252 224.343 132.816 223.625 131.38C222.548 137.961 219.674 143.106 214.886 147.413C215.604 148.61 216.083 150.524 217.16 150.883C223.625 153.396 225.421 160.216 230.329 164.165C230.568 164.404 230.688 164.643 230.808 165.002C231.766 167.754 229.97 173.617 227.935 175.652C226.738 176.489 226.259 177.686 225.66 178.643ZM184.598 245.29C177.655 242.777 175.141 240.384 175.859 234.162C176.099 232.128 176.817 230.213 177.176 228.179C177.296 227.222 177.655 225.906 177.176 225.188C175.859 223.034 174.064 221.12 172.507 218.966C171.909 219.684 171.43 220.162 171.071 220.761C165.444 228.658 164.606 240.025 172.148 246.366C175.38 249.118 179.451 250.794 183.282 252.708C186.993 254.503 187.352 255.34 184.958 258.81C184.479 259.409 183.76 260.007 183.641 260.127C184.479 262.639 185.077 264.793 185.796 266.947C188.788 264.195 189.147 263.357 188.788 259.289C188.669 257.853 189.148 256.417 188.908 255.101C188.669 253.426 188.429 250.674 187.591 250.554C184.598 249.717 184.598 247.683 184.598 245.29ZM199.323 203.531C205.548 208.197 214.886 207.001 219.196 201.257C217.879 198.505 216.682 196.112 215.604 193.958C211.414 194.557 206.985 195.275 202.915 195.873C201.717 198.386 200.64 200.898 199.323 203.531ZM189.985 251.392C190.105 251.751 190.345 251.99 190.464 252.349C205.907 248.401 221.59 246.725 237.751 247.084C237.272 243.973 236.913 241.341 236.554 238.709C231.047 240.384 225.78 242.298 220.393 243.734C211.055 246.007 201.717 247.922 192.38 250.076C191.542 250.315 190.823 251.033 189.985 251.392ZM178.613 229.256C175.38 236.435 177.894 242.418 184.359 242.657V228.658C182.324 228.897 180.648 229.136 178.613 229.256ZM194.415 299.851C194.774 299.732 195.133 299.612 195.612 299.492C194.535 284.536 193.577 269.459 192.38 253.426C191.542 254.623 190.704 255.34 190.584 256.178C190.464 257.733 190.943 259.409 191.063 261.084C191.542 266.827 191.901 272.57 192.26 278.314C192.619 284.177 192.739 290.159 193.098 296.022C193.218 297.339 193.936 298.535 194.415 299.851ZM249.483 394.138C246.371 390.189 243.019 389.352 239.547 391.745C242.659 393.061 245.293 395.574 249.483 394.138ZM197.527 393.3C193.816 391.625 191.542 393.3 190.225 396.77C192.739 395.693 195.133 394.497 197.527 393.3Z" fill="black"/>
<path d="M196.57 199.581C195.373 203.41 197.647 204.965 200.041 206.281C206.266 209.751 216.203 207.957 220.871 202.572C223.026 200.059 222.907 198.504 220.153 196.231C221.709 195.991 223.026 195.632 224.463 195.752C229.85 196.111 234.639 194.795 238.709 191.085C239.307 190.607 241.223 190.607 241.702 191.205C244.335 194.795 246.61 198.624 249.244 202.572C249.124 202.811 248.765 203.29 248.406 203.529C241.821 208.914 241.941 215.854 243.737 223.272C243.976 224.349 244.096 225.426 244.335 226.503C245.652 232.366 245.532 232.605 240.026 234.998C225.54 241.34 210.337 245.049 194.894 248.28C194.295 248.399 193.577 248.519 192.978 248.519C187.232 248.878 186.873 248.519 186.514 242.776C186.155 236.913 185.676 230.93 185.317 225.067C185.317 224.229 184.957 223.511 184.119 222.794C184 223.99 183.88 225.306 183.88 226.503C181.845 227.939 180.648 227.699 179.331 225.306C177.176 221.597 174.542 218.366 171.909 214.537C179.331 208.435 187.471 203.41 196.57 199.581Z" fill="white"/>
<path d="M197.767 300.449C196.689 284.655 195.612 269.22 194.534 253.425C209.02 249.956 223.385 248.759 238.469 249.238C239.666 264.912 240.863 280.347 242.18 296.501C237.511 297.697 232.962 299.133 228.413 300.09C227.695 300.21 226.019 299.013 225.78 298.056C225.061 295.663 224.942 293.15 224.582 290.638C224.104 287.048 223.625 283.578 223.146 279.988C220.033 279.869 216.801 279.749 213.329 279.51C213.329 284.416 213.569 289.082 213.21 293.748C212.85 299.731 214.048 300.09 206.985 299.851C204.111 299.97 201.358 300.21 197.767 300.449Z" fill="white"/>
<path d="M183.401 167.873C185.077 167.035 186.873 166.556 186.873 165.958C188.07 153.873 196.689 150.643 206.865 149.326C208.9 149.087 210.935 148.608 212.252 148.369C215.125 150.882 217.759 153.155 220.393 155.309C223.026 157.463 225.061 159.856 225.66 163.326C225.78 164.163 226.977 164.762 228.174 165.24C228.413 168.232 230.089 172.06 225.54 174.214C225.301 174.334 225.301 175.171 225.181 175.65C224.343 178.282 223.625 180.915 222.787 183.547C219.315 193.837 204.471 196.23 196.57 190.846C193.457 188.692 190.464 186.538 189.267 182.829C187.711 177.804 183.401 173.975 183.281 168.351C183.281 167.873 183.401 167.394 183.401 167.873ZM198.605 179.958C200.281 183.308 202.914 185.701 206.027 185.222C208.541 184.863 210.816 182.351 212.97 180.556C213.21 180.436 212.492 178.163 211.893 178.043C207.344 176.727 202.795 176.368 198.605 179.958ZM198.485 161.292C196.45 159.138 194.654 158.181 192.38 159.138C190.823 159.856 189.147 160.574 189.985 162.608C192.739 162.249 195.253 161.89 198.485 161.292ZM220.991 165.958C219.076 162.488 216.801 162.847 214.407 163.565C212.611 164.163 212.252 165.36 212.97 168.112C214.646 164.403 217.639 165.24 220.991 165.958ZM211.893 160.215C212.013 160.454 212.252 160.574 212.372 160.813C215.006 160.574 217.639 160.215 220.512 159.975C219.555 157.343 217.16 157.702 215.245 157.822C214.048 157.822 212.97 159.377 211.893 160.215ZM190.584 167.992H199.682C198.006 166.796 197.168 165.838 195.971 165.48C193.577 164.762 192.021 166.078 190.584 167.992ZM207.104 169.428C206.865 169.069 206.626 168.71 206.386 168.351C205.428 168.949 203.872 169.428 203.752 170.146C203.633 171.223 204.231 172.659 205.069 173.377C205.548 173.855 206.985 173.377 207.942 173.377C207.942 173.137 207.942 173.018 207.823 172.539C207.104 172.18 206.266 171.821 205.189 171.343C206.027 170.505 206.506 169.907 207.104 169.428Z" fill="white"/>
<path d="M197.647 302.123H210.097C209.379 328.088 208.541 353.933 207.823 380.137C206.626 379.539 205.907 379.06 204.83 378.462V383.846C205.668 383.607 206.506 383.367 207.464 383.128C209.02 384.444 204.112 390.547 200.76 391.025C198.605 391.265 196.45 391.025 193.337 391.025C194.535 388.752 195.612 386.837 196.45 384.803C197.288 382.65 198.126 380.256 198.246 377.983C198.365 371.761 197.887 365.539 197.767 359.437C197.647 350.104 197.767 340.651 197.767 331.318C197.647 321.626 197.647 312.054 197.647 302.123Z" fill="white"/>
<path d="M238.948 300.09C238.948 307.508 238.948 314.568 238.948 321.747C238.948 323.781 239.427 325.815 239.427 327.969C239.307 334.909 238.948 341.849 238.829 348.789C238.829 353.575 239.068 358.361 239.068 363.147C239.188 367.215 239.547 371.403 239.068 375.471C238.589 379.659 240.624 382.172 243.617 384.445C244.455 385.043 244.934 386.36 245.533 387.317C244.455 387.795 243.378 388.513 242.3 388.513C239.786 388.633 237.033 388.992 234.758 388.274C230.449 386.958 229.012 383.727 230.209 379.42C231.047 380.377 231.885 381.574 232.843 382.65C233.082 382.531 233.202 382.291 233.441 382.172C233.202 380.856 232.843 379.539 232.484 377.864C230.09 378.223 229.97 376.309 229.97 374.394C229.491 361.95 229.012 349.507 228.653 337.063C228.294 326.055 227.815 315.166 227.456 304.158C227.456 303.679 227.456 303.081 227.576 302.722C231.167 301.765 234.639 300.927 238.948 300.09Z" fill="white"/>
<path d="M248.884 198.504C247.927 197.307 247.089 196.35 246.49 195.393C245.532 193.837 243.976 192.282 243.856 190.607C243.856 189.291 245.652 187.974 246.61 186.538C255.349 174.454 264.088 162.369 270.792 148.967C272.947 144.54 274.742 140.233 273.426 135.207C273.066 134.011 273.426 132.575 273.426 131.259C279.531 135.207 277.616 127.43 280.608 126.473C280.489 128.028 280.369 129.584 280.13 131.618C281.446 131.259 282.284 131.019 283.003 130.9C284.679 132.455 286.474 134.25 288.39 136.165C285.995 138.797 283.242 141.429 280.848 144.54C278.932 147.053 277.376 149.805 276.299 152.796C272.348 164.044 266.003 174.095 260.018 184.265C257.145 189.171 253.074 193.359 248.884 198.504Z" fill="white"/>
<path d="M190.105 154.473C191.422 148.849 193.577 144.781 197.048 141.431C200.041 138.559 203.274 136.166 204.351 131.739C205.309 127.431 208.9 125.756 212.611 124.44C215.365 123.483 217.041 124.918 217.28 127.79C217.52 130.064 217.16 132.337 219.315 134.251C220.153 134.969 219.914 137.841 219.196 139.396C216.562 145.738 211.055 147.413 204.71 148.131C199.203 148.849 194.774 150.165 190.105 154.473Z" fill="white"/>
<path d="M185.676 165.122C182.683 163.686 181.725 165.361 181.965 167.635C182.204 170.147 183.042 172.66 183.88 174.933C184.718 177.326 186.035 179.48 187.591 182.471C171.669 169.07 179.451 143.345 190.225 133.892C191.781 137.243 192.859 137.243 195.373 134.371C198.126 131.26 201.239 128.508 204.231 125.636C204.351 125.517 204.71 125.517 205.548 125.277C203.034 130.901 201.717 136.525 196.45 140.473C193.218 142.866 191.063 147.054 189.507 150.763C187.591 155.071 186.873 160.096 185.676 165.122Z" fill="white"/>
<path d="M225.66 178.642C226.259 177.685 226.857 176.488 227.695 175.651C229.85 173.616 231.526 167.753 230.568 165.001C230.449 164.762 230.329 164.403 230.09 164.164C225.301 160.215 223.386 153.395 216.921 150.882C215.844 150.523 215.484 148.609 214.646 147.412C219.435 143.105 222.308 137.96 223.386 131.379C224.104 132.815 224.822 134.131 225.78 136.045C226.259 136.045 227.216 136.165 227.815 136.285C229.611 141.31 231.885 145.977 232.963 150.882C235.357 161.173 232.604 170.505 226.618 179.001C226.378 178.881 226.019 178.762 225.66 178.642Z" fill="white"/>
<path d="M184.598 245.289C184.598 247.682 184.479 249.716 187.471 250.434C188.309 250.673 188.549 253.425 188.788 254.981C188.908 256.297 188.549 257.733 188.669 259.169C189.028 263.237 188.669 264.194 185.676 266.827C185.077 264.792 184.359 262.519 183.521 260.006C183.76 259.767 184.359 259.288 184.838 258.69C187.352 255.34 186.993 254.502 183.162 252.588C179.331 250.673 175.261 248.998 172.028 246.246C164.367 239.905 165.324 228.657 170.951 220.64C171.31 220.162 171.789 219.564 172.387 218.846C174.063 220.88 175.739 222.914 177.056 225.068C177.535 225.786 177.296 227.102 177.056 228.059C176.697 230.093 175.979 232.008 175.739 234.042C175.141 240.503 177.655 242.776 184.598 245.289Z" fill="white"/>
<path d="M199.323 203.529C200.64 200.777 201.717 198.384 202.795 195.871C206.865 195.273 211.414 194.555 215.484 193.957C216.562 196.111 217.759 198.504 219.076 201.256C215.005 207.119 205.548 208.196 199.323 203.529Z" fill="white"/>
<path d="M189.986 251.39C190.704 250.912 191.542 250.313 192.38 250.074C201.718 247.92 211.055 246.006 220.393 243.732C225.78 242.416 231.047 240.502 236.554 238.707C236.913 241.459 237.272 244.091 237.751 247.083C221.59 246.724 205.908 248.399 190.464 252.347C190.345 252.108 190.225 251.749 189.986 251.39Z" fill="white"/>
<path d="M194.415 299.851C193.936 298.535 193.218 297.338 193.098 296.022C192.739 290.159 192.499 284.177 192.26 278.314C191.901 272.57 191.422 266.827 191.063 261.084C190.943 259.408 190.584 257.853 190.584 256.178C190.584 255.46 191.542 254.622 192.38 253.426C193.457 269.459 194.535 284.536 195.612 299.492C195.253 299.612 194.774 299.731 194.415 299.851Z" fill="white"/>
<path d="M249.363 394.137C245.173 395.573 242.659 393.06 239.427 391.744C243.018 389.351 246.37 390.069 249.363 394.137Z" fill="white"/>
<path d="M197.528 393.299C195.133 394.496 192.619 395.573 190.225 396.769C191.542 393.299 193.816 391.624 197.528 393.299Z" fill="white"/>
<path d="M198.605 179.959C202.795 176.369 207.344 176.728 212.013 177.925C212.611 178.044 213.329 180.318 213.09 180.438C210.815 182.232 208.661 184.745 206.147 185.104C202.795 185.702 200.161 183.309 198.605 179.959ZM200.64 180.318C204.351 184.625 208.301 184.266 211.175 179.48C207.703 178.882 204.351 178.284 200.64 180.318Z" fill="black"/>
<path d="M198.485 161.292C195.253 161.771 192.739 162.25 189.986 162.609C189.148 160.574 190.824 159.737 192.38 159.139C194.654 158.181 196.45 159.139 198.485 161.292Z" fill="black"/>
<path d="M220.991 165.959C217.639 165.121 214.646 164.403 212.97 168.113C212.252 165.361 212.611 164.164 214.407 163.566C216.682 162.848 219.076 162.489 220.991 165.959Z" fill="black"/>
<path d="M211.893 160.215C212.97 159.378 214.048 157.942 215.245 157.822C217.16 157.703 219.554 157.344 220.512 159.976C217.759 160.215 215.005 160.574 212.372 160.813C212.252 160.574 212.013 160.335 211.893 160.215Z" fill="black"/>
<path d="M190.584 167.993C192.021 165.959 193.577 164.643 195.971 165.481C197.049 165.84 198.006 166.797 199.682 167.993H190.584Z" fill="black"/>
<path d="M207.104 169.428C206.625 170.027 206.027 170.505 205.309 171.343C206.386 171.821 207.104 172.18 207.942 172.539C207.942 172.898 207.942 173.138 208.062 173.377C207.104 173.377 205.668 173.856 205.189 173.377C204.351 172.659 203.752 171.104 203.872 170.146C203.992 169.428 205.548 168.95 206.506 168.352C206.625 168.591 206.865 168.95 207.104 169.428Z" fill="black"/>
<path d="M200.64 180.318C204.231 178.284 207.583 178.882 211.175 179.481C208.302 184.267 204.471 184.626 200.64 180.318Z" fill="white"/>
</g>
<defs>
<clipPath id="clip0_703_8632">
<rect width="330.05" height="400" fill="white"/>
</clipPath>
</defs>
</svg>
