<svg width="65" height="51" viewBox="0 0 65 51" fill="none" xmlns="http://www.w3.org/2000/svg">
<path d="M23.4118 0L19.5413 7.49851H6.37544C5.66314 7.49651 4.95745 7.63085 4.29897 7.8938C3.64048 8.15675 3.0422 8.54312 2.53852 9.0307C2.03484 9.51827 1.63571 10.0974 1.36407 10.7349C1.09244 11.3723 0.953662 12.0554 0.955728 12.7449V45.7283C0.950207 46.4199 1.08643 47.1058 1.35652 47.7461C1.62661 48.3865 2.02519 48.9686 2.52922 49.4589C3.03324 49.9492 3.6327 50.3378 4.2929 50.6023C4.9531 50.8668 5.66093 51.002 6.37544 51H59.0599C59.7724 51.002 60.4784 50.8677 61.1372 50.6048C61.7959 50.3419 62.3946 49.9556 62.8987 49.4681C63.4028 48.9806 63.8024 48.4015 64.0746 47.764C64.3468 47.1266 64.4862 46.4433 64.4848 45.7535V12.7449C64.4862 12.0552 64.3468 11.3719 64.0746 10.7345C63.8024 10.097 63.4028 9.5179 62.8987 9.0304C62.3946 8.54289 61.7959 8.15659 61.1372 7.89371C60.4784 7.63082 59.7724 7.49651 59.0599 7.49851H45.8731L41.9974 0H23.4118ZM32.7072 12.7449C36.0767 12.7449 39.3705 13.7122 42.1721 15.5243C44.9738 17.3364 47.1574 19.9121 48.4468 22.9255C49.7362 25.939 50.0736 29.2549 49.4163 32.454C48.7589 35.6531 47.1364 38.5916 44.7538 40.898C42.3712 43.2044 39.3356 44.7751 36.0309 45.4114C32.7261 46.0477 29.3007 45.7212 26.1877 44.4729C23.0747 43.2247 20.414 41.1109 18.542 38.3989C16.67 35.6869 15.6709 32.4984 15.6709 29.2366C15.6832 24.8664 17.4821 20.6787 20.6744 17.5885C23.8666 14.4983 28.1927 12.7569 32.7072 12.7449ZM32.7072 18.7387C30.5621 18.7377 28.4649 19.3525 26.6808 20.5055C24.8968 21.6584 23.506 23.2976 22.6844 25.2157C21.8628 27.1339 21.6473 29.2448 22.0651 31.2816C22.483 33.3183 23.5154 35.1893 25.0319 36.658C26.5483 38.1266 28.4806 39.127 30.5844 39.5325C32.6882 39.9379 34.869 39.7303 36.8509 38.9359C38.8328 38.1415 40.5268 36.796 41.7187 35.0695C42.9105 33.343 43.5467 31.3131 43.5467 29.2366C43.5529 27.8568 43.2768 26.4894 42.7343 25.2133C42.1918 23.9373 41.3937 22.7778 40.386 21.8019C39.3783 20.8259 38.181 20.0528 36.863 19.527C35.5451 19.0013 34.1327 18.7334 32.7072 18.7387Z" fill="black"/>
</svg>
