<svg width="316" height="757" viewBox="0 0 316 757" fill="none" xmlns="http://www.w3.org/2000/svg">
<path d="M136.961 472.776L120.563 471.417C120.563 485.215 120.75 498.544 120.376 511.874C120.376 514.216 118.033 516.559 116.674 518.902C115.667 520.776 113.91 522.626 113.863 524.547C112.762 561.396 112.036 598.292 110.865 635.14C109.951 664.352 108.639 693.564 107.234 722.753C106.904 725.573 105.728 728.227 103.86 730.366C93.9981 742.079 81.0671 749.739 67.035 755.385C61.5534 757.61 55.3221 757.728 51.246 752.129C47.1699 746.53 50.2856 741.142 53.2372 736.106C53.8987 734.95 54.8841 734.014 56.0717 733.412C76.0305 724.041 76.1711 706.167 75.8431 687.872C75.2809 657.301 75.0466 626.707 74.6718 596.113C74.3673 572.687 74.0628 549.261 73.5942 525.836C73.5942 523.938 72.7978 520.94 71.5093 520.354C63.0761 516.465 64.4816 509.18 64.4816 502.199C64.2474 492.829 63.8257 483.247 63.0292 473.783C61.9282 460.829 60.4055 448.015 59.0702 434.803C55.2651 438.064 51.2421 441.061 47.0294 443.775C43.5155 445.719 40.2125 444.923 37.9636 440.589C36.113 437.005 32.8334 434.194 30.5142 430.82C27.586 426.557 27.7265 423.793 33.6064 421.45C39.0881 419.295 43.7732 415.055 50.4261 410.651C45.5536 408.308 42.9533 407.16 40.6342 405.685C31.2638 399.781 21.5421 394.557 13.2026 387.553C-0.384397 376.145 -3.71087 355.108 4.27732 337.469C6.97129 331.495 10.7194 326.037 13.9522 320.321C14.7018 319.009 16.2948 317.065 15.8262 316.362C11.3285 308.702 17.2552 305.82 22.0809 302.845C38.8069 292.538 55.6032 282.301 72.6338 272.392C76.0774 270.401 80.6688 270.354 85.354 269.276C87.2046 264.966 85.9396 262.084 80.6688 259.625C74.9741 257.025 69.7186 253.556 65.0907 249.341C52.839 237.909 40.3999 226.548 33.7235 210.454C25.056 189.558 28.1482 169.271 36.3707 149.242C39.7876 141.015 43.6427 132.976 47.9196 125.161C50.034 121.337 52.8009 117.912 56.0952 115.041C61.038 110.801 64.3879 112.112 66.6368 117.524C74.2033 109.934 81.6761 101.688 90.0626 94.3791C93.7638 91.1464 99.2689 88.5929 102.712 95.5036C106.125 93.8842 109.62 92.4455 113.184 91.1932C123.468 88.1244 129.582 92.7159 129.722 103.445C129.722 107.966 128.996 112.815 135.274 113.916C139.96 105.998 142.536 105.998 147.784 113.916C148.898 115.172 150.138 116.31 151.485 117.313C153.336 119.093 156.17 120.639 156.803 122.818C160.902 135.819 165.775 148.774 168.07 162.15C172.756 189.558 166.267 214.108 146.003 234.278C143.099 237.183 141.506 241.306 138.976 244.679C136.118 248.404 132.721 251.707 129.863 255.385C128.748 257.2 127.836 259.132 127.146 261.147C128.903 261.944 130.706 263.49 132.44 263.373C141.845 263.097 151.229 262.315 160.551 261.03C164.088 260.468 167.016 256.72 170.507 254.963C175.403 252.48 180.603 250.606 185.546 248.193C187.396 247.289 189.002 245.956 190.231 244.304C205.177 223.221 220.474 202.583 234.74 181.055C242.424 169.506 248.14 156.668 255.004 144.534C260.79 134.297 258.166 123.451 257.744 112.815C257.487 106.045 256.69 98.9237 266.599 96.1361C267.302 99.6734 267.911 102.812 268.52 105.998C273.44 99.486 278.312 92.9736 282.81 87C289.838 91.4978 296.28 94.5431 301.199 99.1346C303.214 101.009 302.183 106.162 302.581 110.215L309 114.502C307.327 117.254 305.473 119.892 303.448 122.396C292.133 134.718 279.718 146.01 272.995 162.033C258.564 196.024 241.745 228.773 218.717 258.079C214.992 262.764 211.689 267.777 208.129 272.696C207.402 273.75 206.067 275.414 206.418 276.07C210.963 284.761 203.607 288.509 199.18 293.077C190.723 301.744 189.201 311.583 192.152 322.921C194.331 331.261 195.713 339.835 197.61 348.268C199.063 354.64 194.096 357.474 190.161 358.646C178.659 362.066 177.675 369.796 178.963 379.729C181.306 397.72 183.649 415.734 185.054 433.819C186.811 457.666 187.561 481.584 188.685 505.455C188.685 506.72 188.685 508.664 187.865 509.133C179.479 514.427 182.852 522.907 182.782 529.841C182.43 562.872 182.782 595.926 182.946 628.979C182.946 650.273 184.586 671.661 183.086 692.838C182.126 706.285 188.31 713.055 197.774 719.708C202.257 722.877 206.21 726.735 209.487 731.139C211.464 733.5 212.547 736.482 212.547 739.561C212.547 742.64 211.464 745.621 209.487 747.982C205.2 753.651 199.367 753.933 193.933 750.911C180.65 743.532 167.649 735.614 154.694 727.672C154.095 727.051 153.626 726.317 153.312 725.513C152.998 724.708 152.847 723.85 152.867 722.987C151.977 702.208 150.97 681.406 150.525 660.628C149.751 626.426 149.447 592.224 148.744 558.023C148.51 546.966 148.252 535.838 146.917 524.899C146.12 518.175 142.63 511.827 141.435 505.127C139.514 494.562 138.531 483.857 137.102 472.8L136.961 472.776ZM76.7099 274.57C55.1263 283.709 34.9877 295.941 16.9273 310.88C23.2522 319.923 29.6475 327.958 34.7543 336.649C37.987 342.224 40.8684 343.021 45.6707 339.413C45.8815 336.461 46.1158 333.51 46.3266 330.558C47.1466 331.231 47.8162 332.069 48.2923 333.018C48.7685 333.966 49.0405 335.003 49.0909 336.063C50.145 350.236 51.1758 364.408 52.0425 378.581C52.8624 392.238 53.8463 393.199 67.6441 392.262C69.2163 392.189 70.7817 392.009 72.3292 391.723C109.389 384.016 146.074 375.02 180.931 359.817C194.167 354.031 194.448 353.515 191.285 339.296C190.7 336.719 190.583 334.049 189.974 331.495C185.57 313.738 185.499 297.036 201.195 284.034C201.964 283.337 202.648 282.55 203.233 281.692C197.095 272.322 191.52 263.115 185.171 254.424C184.305 253.206 179.455 253.042 178.144 254.237C168.305 263.068 156.873 266.114 143.965 265.317C140.515 265.439 137.082 265.862 133.705 266.582C140.358 272.251 140.733 275.953 135.438 281.903C124.124 294.717 100.042 299.074 85.2134 290.781C79.3101 287.478 73.7348 283.753 76.7099 274.5V274.57ZM79.521 517.191C87.9074 516.817 94.7477 516.067 101.541 516.301C118.759 516.887 115.597 515.856 116.604 501.59C117.354 490.416 116.745 479.148 116.745 467.365L140.311 468.419C141.435 476.993 142.653 485.543 143.708 494.187C144.251 500.19 145.214 506.147 146.589 512.014C147.198 514.123 151.11 517.145 152.891 516.699C163.948 514.357 174.84 511.101 185.991 508.102C182.969 469.051 180.135 432.109 177.206 394.276C141.734 392.84 106.229 396.189 71.6499 404.232C74.297 442.182 76.8739 479.078 79.521 517.215V517.191ZM44.8742 198.273C45.0148 197.242 44.6634 198.437 44.7102 199.608C45.0851 213.007 55.4627 222.307 59.0702 234.419C61.7876 243.531 69.1199 248.661 76.5693 253.768C95.5208 266.77 131.315 261.03 139.538 236.176C141.646 229.874 143.427 223.502 145.324 217.154C145.675 215.982 145.511 214.015 146.167 213.687C157.013 208.627 152.891 199.28 152.375 192.088C149.517 191.011 146.659 189.488 146.355 187.567C145.043 179.11 140.053 173.511 133.799 168.241C127.544 162.97 121.313 157.582 114.332 151.632C111.169 152.194 106.297 153.272 101.354 153.974C76.9207 157.137 56.3529 164.727 53.3544 193.798C53.2138 195.227 48.88 196.141 44.8742 198.273ZM79.0993 521.385C79.0993 545.162 79.0993 568.236 79.0993 591.24C79.0993 613.823 78.8182 636.382 79.0993 658.941C79.0993 673.863 80.3643 688.762 80.1769 703.661C79.6877 709.287 78.2543 714.791 75.9368 719.942C73.7199 725.086 71.2413 730.114 68.5108 735.005C74.4747 735.27 80.4482 735.231 86.4082 734.887C94.4666 733.95 106.343 719.075 102.619 715.983L96.411 717.787V704.949L103.579 708.955C105.43 646.033 107.257 583.932 109.108 521.385H79.0993ZM178.331 516.418L150.665 522.298C150.538 523.481 150.476 524.67 150.478 525.859C151.43 552.268 152.406 578.669 153.406 605.062C154.53 635.031 155.624 665 156.686 694.97C156.85 699.655 156.896 704.34 162.776 703.38C163.596 707.245 164.299 710.407 164.978 713.664L163.479 714.905L157.224 707.151C154.366 717.482 157.927 725.4 168.234 728.516C173.857 730.202 180.322 729.453 186.389 729.148C189.06 729.008 191.66 727.227 194.284 726.197C192.808 723.854 191.824 720.855 189.763 719.169C182.594 713.664 177.722 707.831 178.87 697.64C179.947 687.848 178.987 677.822 178.87 667.89C178.659 656.388 178.026 644.885 178.144 633.407C178.354 616.681 179.198 599.955 179.502 583.229C179.502 578.263 178.471 573.32 178.425 568.353C178.284 551.206 178.425 534.058 178.425 516.301L178.331 516.418ZM202.577 271.994C212.486 259.508 222.418 249.481 229.352 237.698C243.759 213.218 258.963 189.066 268.473 161.963C271.081 154.875 274.737 148.218 279.32 142.215C284.918 134.742 291.759 128.159 297.404 121.998L284.309 109.442L277.492 111.222C277.937 106.279 278.265 102.578 278.617 98.7832C271.589 101.126 276.274 119.585 261.446 110.192C261.069 113.366 261.069 116.574 261.446 119.749C264.561 131.884 260.438 142.261 255.144 152.92C239.097 185.224 218.014 214.226 197.072 243.344C194.729 246.6 190.302 249.856 190.419 252.995C190.559 256.907 194.307 260.749 196.697 264.474C198.266 266.816 200.211 269.159 202.483 271.994H202.577ZM60.9443 166.109C72.3527 155.638 82.988 152.405 96.3875 150.929C111.427 149.242 124.85 145.283 131.128 129.846C132.627 126.145 133.353 119.281 131.292 117.524C125.904 112.839 126.888 107.451 126.302 101.993C125.553 94.9648 121.5 91.6149 115.011 93.8403C106.109 96.9091 97.3948 101.102 95.0288 111.433C92.6628 121.764 84.7918 127.831 77.6235 134.718C69.1902 142.707 64.0599 152.616 60.9443 166.015V166.109ZM50.3559 191.432C53.2841 179.438 54.8536 167.421 59.2811 156.575C63.0292 147.415 68.4171 137.365 76.0539 131.72C88.7976 122.35 91.7961 108.809 97.9571 95.2693C96.1533 95.7612 95.3099 95.7378 94.8883 96.1595C87.7434 103.187 80.2472 109.817 73.6411 117.243C67.4801 124.27 64.9033 124.27 61.202 116.212C35.2228 139.005 16.4353 200.849 54.8067 233.341C51.1992 226.056 48.0601 220.785 45.9518 215.139C43.6759 209.473 42.1025 203.549 41.2666 197.5C40.6576 191.948 43.2344 188.129 50.309 191.503L50.3559 191.432ZM146.355 224.299L149.096 225.283C163.479 204.902 170.179 182.437 164.322 157.699C161.535 145.799 156.217 134.508 151.883 122.443L147.034 121.904L141.178 110.801C138.904 125.713 131.437 139.344 120.094 149.289C121.898 152.241 122.976 156.762 125.436 157.699C140.92 163.626 145.441 180.047 157.013 189.558C157.538 190.131 157.916 190.822 158.115 191.573C160.34 198.202 156.147 212.398 151.087 217.154C149.258 219.349 147.686 221.746 146.402 224.299H146.355ZM47.7556 384.672C31.053 378.628 25.0092 372.959 26.6724 357.826C27.2112 353 29.015 348.315 29.7646 343.513C30.1628 341.17 30.7953 338.078 29.7646 336.368C26.485 331.191 22.4089 326.529 18.5202 321.492C17.0444 323.32 15.9902 324.491 15.1 325.779C1.58336 344.871 -0.57181 371.998 17.7706 387.295C25.5479 393.761 35.3633 397.954 44.5931 402.475C53.8229 406.996 54.5022 408.941 48.5521 417.116C47.5888 418.296 46.5054 419.371 45.3193 420.326C47.2168 426.416 48.88 431.687 50.4496 436.724C57.735 430.211 58.4377 428.127 57.4773 418.194C57.1962 414.868 58.2269 411.424 57.8053 408.144C57.2899 404.232 56.5871 397.603 54.7131 397.111C47.5448 395.307 47.6853 390.528 47.6853 384.742L47.7556 384.672ZM83.1285 284.316C97.9571 295.537 120.61 292.702 130.847 278.881C127.591 272.298 124.686 266.442 122.179 261.335L91.5618 266.02L83.1285 284.292V284.316ZM60.7803 399.383L62.0453 401.726C99.1459 392.257 137.387 388.015 175.66 389.123C174.583 381.743 173.669 375.372 172.709 368.906C159.45 373.029 146.776 377.644 133.775 380.9C111.427 386.452 88.8444 391.09 66.4025 396.267C64.3963 397.047 62.505 398.095 60.7803 399.383ZM33.4424 346.136C25.6651 363.542 31.7324 377.855 47.17 378.37V344.778L33.4424 346.136ZM71.3688 515.739L74.1799 514.849C71.6733 478.773 69.1668 442.674 66.4962 404.021C64.4582 407.02 62.3264 408.707 62.2093 410.627C62.2989 414.55 62.6432 418.462 63.24 422.34C64.2708 436.162 65.3484 450.006 66.1448 463.874C66.9882 478.117 67.3395 492.36 68.3 506.603C68.9327 509.766 69.9639 512.836 71.3688 515.739ZM203.678 742.618C196.228 733.013 188.24 731.092 179.713 736.855C187.537 740.065 193.769 746.226 203.678 742.618ZM78.9353 740.791C69.9867 736.715 64.6222 740.791 61.4362 749.13L78.9353 740.791Z" fill="black"/>
<path d="M81.3486 227.486C91.4686 218.865 102.432 219.592 113.465 222.684C114.824 223.082 116.487 228.306 115.972 228.751C110.631 233.038 105.243 239.082 99.1523 240.066C91.5857 241.284 85.2373 235.545 81.3486 227.486ZM86.5023 228.447C95.4978 238.731 104.915 237.817 111.849 226.549C103.299 224.862 95.1464 223.527 86.5023 228.447Z" fill="black"/>
<path d="M81.298 182.579L60.8004 185.858C58.8092 181.009 62.8619 178.995 66.5866 177.402C72.0916 175.059 76.402 177.402 81.298 182.579Z" fill="black"/>
<path d="M135.175 193.75C127.116 191.829 119.972 189.885 115.989 198.951C114.162 192.391 115.076 189.58 119.48 188.011C125.008 186.137 130.63 185.41 135.175 193.75Z" fill="black"/>
<path d="M113.406 179.909C116.053 177.848 118.583 174.31 121.371 174.076C126.056 173.701 131.842 173.045 134.138 179.253L114.648 181.268L113.406 179.909Z" fill="black"/>
<path d="M62.1973 198.742C65.5003 194.057 69.4358 190.754 75.2689 192.652C77.9628 193.518 80.1883 195.931 84.1238 198.742H62.1973Z" fill="black"/>
<path d="M101.836 201.972L97.5964 206.493L103.804 209.328C103.804 210.288 103.804 210.78 103.968 211.296C101.626 211.296 98.2523 212.49 97.0576 211.296C96.0068 210.291 95.1766 209.079 94.6201 207.736C94.0635 206.393 93.7926 204.948 93.8248 203.495C94.0591 201.808 97.9478 200.66 100.22 199.255L101.836 201.925" fill="black"/>
<mask id="path-8-inside-1_1586_7105" fill="white">
<path fill-rule="evenodd" clip-rule="evenodd" d="M235.428 75C279.847 75 315.855 58.2107 315.855 37.5C315.855 16.7893 279.847 0 235.428 0C191.009 0 155 16.7893 155 37.5C155 47.8178 163.937 57.1623 178.398 63.9425L179.009 76.434C179.159 79.5095 182.582 81.2691 185.171 79.6012L197.319 71.7732C197.745 71.4983 198.096 71.1643 198.373 70.7917C209.462 73.4805 222.064 75 235.428 75Z"/>
</mask>
<path d="M178.398 63.9425L180.396 63.8449L180.337 62.6426L179.247 62.1317L178.398 63.9425ZM179.009 76.434L177.011 76.5316V76.5316L179.009 76.434ZM185.171 79.6012L186.254 81.2823L185.171 79.6012ZM197.319 71.7732L198.402 73.4544L197.319 71.7732ZM198.373 70.7917L198.844 68.848L197.558 68.536L196.768 69.5989L198.373 70.7917ZM313.855 37.5C313.855 46.6158 305.851 55.4907 291.453 62.2039C277.218 68.841 257.412 73 235.428 73V77C257.862 77 278.27 72.7643 293.144 65.8292C307.855 58.97 317.855 49.0949 317.855 37.5H313.855ZM235.428 2C257.412 2 277.218 6.159 291.453 12.7961C305.851 19.5093 313.855 28.3842 313.855 37.5H317.855C317.855 25.9051 307.855 16.03 293.144 9.17085C278.27 2.23566 257.862 -2 235.428 -2V2ZM157 37.5C157 28.3842 165.004 19.5093 179.402 12.7961C193.637 6.159 213.443 2 235.428 2V-2C212.994 -2 192.586 2.23566 177.712 9.17085C163 16.03 153 25.9051 153 37.5H157ZM179.247 62.1317C164.945 55.4258 157 46.5823 157 37.5H153C153 49.0532 162.929 58.8988 177.549 65.7534L179.247 62.1317ZM181.006 76.3364L180.396 63.8449L176.401 64.0401L177.011 76.5316L181.006 76.3364ZM184.087 77.92C182.793 78.7539 181.082 77.8742 181.006 76.3364L177.011 76.5316C177.237 81.1449 182.372 83.7842 186.254 81.2823L184.087 77.92ZM196.235 70.0921L184.087 77.92L186.254 81.2823L198.402 73.4544L196.235 70.0921ZM196.768 69.5989C196.634 69.7789 196.46 69.9474 196.235 70.0921L198.402 73.4544C199.031 73.0492 199.559 72.5496 199.979 71.9845L196.768 69.5989ZM235.428 73C222.212 73 209.769 71.4968 198.844 68.848L197.902 72.7354C209.156 75.4641 221.917 77 235.428 77V73Z" fill="black" mask="url(#path-8-inside-1_1586_7105)"/>
<path d="M225.641 42.6895C225.641 42.2611 225.686 41.8372 225.777 41.418C225.878 40.9987 225.928 40.5749 225.928 40.1465V40.0098C225.928 39.8913 225.923 39.7135 225.914 39.4766C225.914 39.2305 225.91 38.957 225.9 38.6562C225.891 38.3464 225.882 38.0228 225.873 37.6855C225.864 37.3392 225.855 37.0156 225.846 36.7148C225.837 36.4049 225.827 36.127 225.818 35.8809C225.818 35.6348 225.818 35.4525 225.818 35.334L225.873 34.2266C225.873 34.1992 225.882 34.1582 225.9 34.1035C225.919 34.0488 225.951 34.0124 225.996 33.9941H226.926C226.944 33.9941 226.985 33.9941 227.049 33.9941C227.122 33.985 227.195 33.9759 227.268 33.9668C227.35 33.9577 227.423 33.9531 227.486 33.9531C227.559 33.944 227.605 33.9395 227.623 33.9395C227.632 33.9395 227.691 33.9395 227.801 33.9395C227.91 33.9395 228.038 33.9395 228.184 33.9395C228.329 33.9303 228.475 33.9258 228.621 33.9258C228.767 33.9258 228.885 33.9258 228.977 33.9258C229.031 33.9258 229.122 33.9258 229.25 33.9258C229.378 33.9258 229.51 33.9303 229.646 33.9395C229.792 33.9395 229.929 33.9395 230.057 33.9395C230.184 33.9395 230.271 33.9395 230.316 33.9395C230.581 33.9668 230.845 34.0078 231.109 34.0625C231.383 34.1081 231.643 34.1855 231.889 34.2949C231.943 34.2949 231.984 34.3086 232.012 34.3359C232.358 34.5547 232.677 34.7826 232.969 35.0195C233.26 35.2474 233.548 35.5117 233.83 35.8125C234.04 36.0312 234.199 36.2773 234.309 36.5508C234.418 36.8242 234.509 37.1022 234.582 37.3848C234.6 37.4395 234.623 37.5215 234.65 37.6309C234.687 37.7311 234.719 37.8405 234.746 37.959C234.783 38.0684 234.814 38.1686 234.842 38.2598C234.869 38.3509 234.883 38.4102 234.883 38.4375C234.91 38.556 234.924 38.6699 234.924 38.7793C234.924 38.8796 234.951 38.9798 235.006 39.0801V39.9551C235.006 39.9733 235.015 40.0052 235.033 40.0508C235.051 40.0872 235.061 40.1146 235.061 40.1328V40.1738V40.1875C235.061 40.1966 235.051 40.2194 235.033 40.2559L235.006 40.3105C234.997 40.3379 234.983 40.3835 234.965 40.4473C234.947 40.502 234.938 40.5384 234.938 40.5566C234.938 40.5658 234.938 40.5931 234.938 40.6387C234.938 40.6842 234.938 40.7344 234.938 40.7891C234.938 40.8346 234.938 40.8802 234.938 40.9258C234.938 40.9714 234.938 40.9987 234.938 41.0078C234.938 41.0169 234.928 41.0397 234.91 41.0762C234.892 41.1035 234.883 41.1217 234.883 41.1309C234.883 41.1491 234.874 41.1992 234.855 41.2812C234.837 41.3633 234.828 41.4134 234.828 41.4316C234.81 41.4863 234.773 41.582 234.719 41.7188C234.673 41.8555 234.623 42.0013 234.568 42.1562C234.514 42.3112 234.459 42.457 234.404 42.5938C234.359 42.7305 234.327 42.8262 234.309 42.8809C234.181 43.0358 234.062 43.2044 233.953 43.3867C233.853 43.5599 233.73 43.724 233.584 43.8789C233.393 44.1068 233.178 44.2936 232.941 44.4395C232.704 44.5762 232.454 44.722 232.189 44.877C232.171 44.8861 232.148 44.8997 232.121 44.918C232.094 44.9271 232.076 44.9316 232.066 44.9316C232.057 44.9408 232.03 44.9453 231.984 44.9453C231.939 44.9362 231.907 44.9316 231.889 44.9316C231.597 44.9772 231.319 45.0228 231.055 45.0684C230.799 45.123 230.512 45.1595 230.193 45.1777C230.148 45.1777 230.038 45.1777 229.865 45.1777C229.701 45.1777 229.519 45.1777 229.318 45.1777C229.118 45.1777 228.931 45.1777 228.758 45.1777C228.594 45.1777 228.489 45.1777 228.443 45.1777C228.416 45.1777 228.343 45.1777 228.225 45.1777C228.106 45.1868 227.983 45.196 227.855 45.2051C227.728 45.2142 227.605 45.2188 227.486 45.2188C227.368 45.2279 227.295 45.2324 227.268 45.2324H226.051C226.033 45.2415 226.001 45.2552 225.955 45.2734C225.919 45.2917 225.891 45.2917 225.873 45.2734C225.864 45.2734 225.85 45.2598 225.832 45.2324C225.823 45.2142 225.818 45.196 225.818 45.1777C225.809 45.1595 225.796 45.1048 225.777 45.0137C225.768 44.9225 225.759 44.8587 225.75 44.8223C225.704 44.4759 225.673 44.1204 225.654 43.7559C225.645 43.3913 225.641 43.0358 225.641 42.6895ZM228.621 42.4844C228.63 42.5482 228.639 42.6257 228.648 42.7168C228.667 42.7988 228.717 42.8535 228.799 42.8809C228.817 42.8809 228.858 42.8854 228.922 42.8945C228.986 42.8945 229.027 42.8945 229.045 42.8945C229.063 42.8945 229.1 42.8945 229.154 42.8945C229.218 42.8854 229.255 42.8809 229.264 42.8809C229.318 42.8809 229.41 42.8763 229.537 42.8672C229.665 42.8581 229.797 42.849 229.934 42.8398C230.079 42.8216 230.216 42.8079 230.344 42.7988C230.471 42.7897 230.562 42.7806 230.617 42.7715C232.148 42.3613 232.914 41.3587 232.914 39.7637C232.914 39.472 232.859 39.1576 232.75 38.8203C232.65 38.474 232.522 38.1732 232.367 37.918C232.34 37.8906 232.294 37.8451 232.23 37.7812C232.176 37.7174 232.112 37.6536 232.039 37.5898C231.975 37.5169 231.911 37.4531 231.848 37.3984C231.784 37.3346 231.738 37.2891 231.711 37.2617C231.702 37.2617 231.638 37.2298 231.52 37.166C231.41 37.1022 231.324 37.0612 231.26 37.043C231.169 36.9974 231.059 36.9564 230.932 36.9199C230.813 36.8743 230.708 36.8379 230.617 36.8105C230.544 36.8105 230.417 36.806 230.234 36.7969C230.061 36.7786 229.874 36.765 229.674 36.7559C229.473 36.7376 229.282 36.724 229.1 36.7148C228.926 36.6966 228.808 36.6875 228.744 36.6875H228.566H228.389C228.389 36.7331 228.384 36.8197 228.375 36.9473C228.366 37.0749 228.357 37.2116 228.348 37.3574C228.348 37.5033 228.343 37.64 228.334 37.7676C228.325 37.8952 228.32 37.9863 228.32 38.041V38.123V38.2051L228.621 41.9512V42.4844ZM238.614 40.0234C238.605 39.8958 238.591 39.6999 238.573 39.4355C238.564 39.1712 238.55 38.875 238.532 38.5469C238.523 38.2096 238.509 37.8587 238.491 37.4941C238.473 37.1204 238.455 36.765 238.436 36.4277C238.427 36.0905 238.418 35.7897 238.409 35.5254C238.4 35.2611 238.395 35.0651 238.395 34.9375V34.377V33.8301C238.395 33.7572 238.418 33.6934 238.464 33.6387C238.518 33.5749 238.573 33.5247 238.628 33.4883H239.571C239.58 33.4883 239.617 33.4837 239.681 33.4746C239.744 33.4655 239.813 33.4609 239.886 33.4609C239.959 33.4518 240.027 33.4427 240.091 33.4336C240.155 33.4245 240.196 33.4199 240.214 33.4199C240.268 33.4382 240.369 33.4564 240.515 33.4746C240.66 33.4837 240.82 33.4883 240.993 33.4883C241.166 33.4883 241.326 33.4837 241.472 33.4746C241.617 33.4655 241.718 33.4473 241.772 33.4199H243.194C243.249 33.4199 243.349 33.4245 243.495 33.4336C243.641 33.4427 243.796 33.4564 243.96 33.4746C244.124 33.4837 244.274 33.4974 244.411 33.5156C244.557 33.5247 244.657 33.5339 244.712 33.543C244.73 33.543 244.753 33.5475 244.78 33.5566C244.807 33.5658 244.826 33.5749 244.835 33.584C244.862 33.6296 244.899 33.6979 244.944 33.7891C244.99 33.8802 245.013 33.9303 245.013 33.9395V35.5391C245.013 35.5938 244.962 35.653 244.862 35.7168C244.771 35.7806 244.703 35.8125 244.657 35.8125L241.444 35.9355C241.417 35.9355 241.38 35.9447 241.335 35.9629C241.289 35.972 241.266 35.9811 241.266 35.9902C241.257 35.9993 241.244 36.0404 241.225 36.1133C241.216 36.1862 241.207 36.2454 241.198 36.291C241.198 36.3184 241.194 36.3548 241.184 36.4004C241.175 36.446 241.166 36.4961 241.157 36.5508C241.157 36.5964 241.153 36.6419 241.143 36.6875C241.143 36.724 241.143 36.7467 241.143 36.7559V37.1387V37.3984L241.376 37.4941H243.659L244.657 37.6855C244.73 37.7038 244.789 37.7812 244.835 37.918C244.88 38.0456 244.917 38.1914 244.944 38.3555C244.972 38.5104 244.99 38.6654 244.999 38.8203C245.008 38.9661 245.013 39.0618 245.013 39.1074C245.013 39.3171 244.967 39.472 244.876 39.5723C244.785 39.6725 244.666 39.7454 244.52 39.791C244.375 39.8275 244.215 39.8457 244.042 39.8457C243.869 39.8457 243.7 39.8503 243.536 39.8594C243.454 39.8594 243.308 39.8639 243.099 39.873C242.889 39.8822 242.666 39.8913 242.429 39.9004C242.192 39.9004 241.968 39.9049 241.759 39.9141C241.549 39.9141 241.403 39.9141 241.321 39.9141C241.321 39.9414 241.317 39.9961 241.307 40.0781C241.298 40.151 241.289 40.2331 241.28 40.3242C241.28 40.4062 241.276 40.4883 241.266 40.5703C241.266 40.6523 241.266 40.707 241.266 40.7344C241.266 40.7526 241.262 40.8301 241.253 40.9668C241.253 41.0944 241.253 41.1947 241.253 41.2676C241.253 41.304 241.253 41.3496 241.253 41.4043C241.253 41.459 241.253 41.5137 241.253 41.5684C241.262 41.623 241.266 41.6732 241.266 41.7188C241.266 41.7552 241.266 41.7734 241.266 41.7734C241.266 41.819 241.271 41.901 241.28 42.0195C241.298 42.138 241.312 42.2155 241.321 42.252C241.33 42.3066 241.344 42.3613 241.362 42.416C241.38 42.4707 241.426 42.498 241.499 42.498H245.067C245.085 42.498 245.136 42.5072 245.218 42.5254C245.3 42.5345 245.35 42.5618 245.368 42.6074V43.168V43.7285C245.368 43.765 245.363 43.8333 245.354 43.9336C245.354 44.0247 245.35 44.125 245.341 44.2344C245.332 44.3346 245.322 44.4349 245.313 44.5352C245.313 44.6263 245.313 44.6901 245.313 44.7266C245.259 44.8268 245.19 44.8861 245.108 44.9043C245.026 44.9225 244.935 44.9362 244.835 44.9453C244.753 44.9544 244.625 44.9681 244.452 44.9863C244.288 45.0046 244.115 45.0228 243.932 45.041C243.75 45.0592 243.582 45.0775 243.427 45.0957C243.281 45.1139 243.185 45.123 243.14 45.123H242.866C242.647 45.123 242.424 45.1139 242.196 45.0957C241.968 45.0775 241.74 45.0684 241.513 45.0684C241.421 45.0684 241.335 45.0775 241.253 45.0957C241.18 45.1139 241.102 45.123 241.02 45.123C240.729 45.123 240.437 45.1094 240.145 45.082C239.854 45.0638 239.562 45.0365 239.27 45C239.261 45 239.225 45 239.161 45C239.097 45.0091 239.061 45.0091 239.052 45C239.033 45 239.002 44.9818 238.956 44.9453C238.91 44.9089 238.883 44.8906 238.874 44.8906C238.847 44.8724 238.796 44.8496 238.724 44.8223C238.66 44.7949 238.628 44.763 238.628 44.7266L238.614 40.3789V40.0234ZM240.788 31.5742C240.788 31.5104 240.793 31.4557 240.802 31.4102C240.82 31.3646 240.843 31.3099 240.87 31.2461C240.906 31.1823 240.952 31.0957 241.007 30.9863C241.061 30.877 241.13 30.7174 241.212 30.5078C241.257 30.3529 241.285 30.2526 241.294 30.207C241.303 30.1615 241.317 30.1022 241.335 30.0293C241.353 29.9382 241.367 29.8789 241.376 29.8516C241.394 29.8151 241.453 29.7969 241.554 29.7969C241.909 29.8151 242.155 29.8516 242.292 29.9062C242.429 29.9518 242.497 30.043 242.497 30.1797C242.497 30.3073 242.447 30.485 242.347 30.7129C242.246 30.9408 242.137 31.2461 242.018 31.6289C242 31.7474 241.95 31.8385 241.868 31.9023C241.813 31.9297 241.754 31.9388 241.69 31.9297C241.636 31.9115 241.581 31.8932 241.526 31.875C241.472 31.8477 241.412 31.8203 241.349 31.793C241.285 31.7656 241.216 31.752 241.143 31.752C241.125 31.752 241.075 31.7428 240.993 31.7246C240.911 31.7064 240.861 31.6973 240.843 31.6973C240.834 31.6882 240.82 31.6699 240.802 31.6426C240.783 31.6061 240.779 31.5833 240.788 31.5742Z" fill="black"/>
</svg>
