<svg width="10" height="10" viewBox="0 0 10 10" fill="none" xmlns="http://www.w3.org/2000/svg">
<path fill-rule="evenodd" clip-rule="evenodd" d="M6.73756 0H7.50756L1.77756 5.74H1.02756L6.73756 0ZM1.14 9.39995L0 9.69995L0.29 8.54995H0.4C0.444411 8.55953 0.485685 8.58017 0.52 8.60995L0.62 8.68995L0.72 8.78995C0.760825 8.81903 0.794928 8.85655 0.82 8.89995C0.845672 8.93158 0.869065 8.965 0.89 8.99995C0.912006 9.03892 0.932031 9.07897 0.95 9.11995C0.945871 9.1565 0.945871 9.1934 0.95 9.22995L1.14 9.39995ZM1.33756 9.08C1.3397 9.05004 1.3397 9.01996 1.33756 8.99C1.33899 8.96002 1.33899 8.92998 1.33756 8.9C1.32765 8.85867 1.30694 8.82071 1.27756 8.79C1.27756 8.79 1.27756 8.73 1.21756 8.71L1.15756 8.63C1.13548 8.59301 1.10455 8.56208 1.06756 8.54L0.977557 8.45C0.977557 8.45 0.977557 8.45 0.907557 8.39C0.879966 8.3666 0.849766 8.34647 0.817557 8.33C0.782375 8.30441 0.745638 8.28103 0.707557 8.26H0.627557H0.547557L0.637557 6.2H1.79756L3.06756 7.5V8.66L1.33756 9.08ZM2.19756 5.96L8.04755 0.12L9.13755 1.2L3.29756 7.08L2.19756 5.96ZM3.54756 8.23V7.5L9.25755 1.78V2.54L3.54756 8.23Z" fill="#010101"/>
</svg>
