<svg width="148" height="76" viewBox="0 0 148 76" fill="none" xmlns="http://www.w3.org/2000/svg">
<mask id="path-1-inside-1_678:6511" fill="white">
<path fill-rule="evenodd" clip-rule="evenodd" d="M74 69.0061C114.869 69.0061 148 53.5586 148 34.5031C148 15.4475 114.869 0 74 0C33.1309 0 0 15.4475 0 34.5031C0 44.4417 9.01245 53.3988 23.4347 59.6947L24.0083 71.434C24.1586 74.5095 27.5818 76.2691 30.1702 74.6011L42.318 66.7732C42.7016 66.526 43.0242 66.231 43.2866 65.9032C52.642 67.8958 63.0429 69.0061 74 69.0061Z"/>
</mask>
<path d="M23.4347 59.6947L25.4323 59.5971L25.3718 58.3581L24.2349 57.8618L23.4347 59.6947ZM24.0083 71.434L22.0107 71.5316V71.5316L24.0083 71.434ZM30.1702 74.6011L31.2535 76.2823L30.1702 74.6011ZM42.318 66.7732L43.4013 68.4544L42.318 66.7732ZM43.2866 65.9032L43.7032 63.9471L42.4963 63.69L41.7252 64.6534L43.2866 65.9032ZM146 34.5031C146 42.7913 138.715 50.917 125.481 57.0878C112.409 63.1826 94.2099 67.0061 74 67.0061V71.0061C94.6592 71.0061 113.46 67.1059 127.171 60.7131C140.719 54.3962 150 45.2704 150 34.5031H146ZM74 2C94.2099 2 112.409 5.82356 125.481 11.9184C138.715 18.0892 146 26.2148 146 34.5031H150C150 23.7358 140.719 14.6099 127.171 8.29306C113.46 1.90022 94.6592 -2 74 -2V2ZM2 34.5031C2 26.2148 9.28451 18.0892 22.5193 11.9184C35.591 5.82356 53.7901 2 74 2V-2C53.3408 -2 34.5399 1.90022 20.8289 8.29306C7.28095 14.6099 -2 23.7358 -2 34.5031H2ZM24.2349 57.8618C9.94541 51.6238 2 43.154 2 34.5031H-2C-2 45.7294 8.0795 55.1738 22.6345 61.5277L24.2349 57.8618ZM26.0059 71.3364L25.4323 59.5971L21.4371 59.7923L22.0107 71.5316L26.0059 71.3364ZM29.0869 72.92C27.7927 73.7539 26.081 72.8741 26.0059 71.3364L22.0107 71.5316C22.2361 76.1449 27.371 78.7842 31.2535 76.2823L29.0869 72.92ZM41.2346 65.092L29.0869 72.92L31.2535 76.2823L43.4013 68.4544L41.2346 65.092ZM41.7252 64.6534C41.5979 64.8124 41.4368 64.9618 41.2346 65.092L43.4013 68.4544C43.9664 68.0903 44.4505 67.6496 44.848 67.153L41.7252 64.6534ZM74 67.0061C63.1753 67.0061 52.9144 65.9089 43.7032 63.9471L42.87 67.8593C52.3696 69.8826 62.9105 71.0061 74 71.0061V67.0061Z" fill="black" mask="url(#path-1-inside-1_678:6511)"/>
<path d="M30.9989 39.6895C30.9989 39.2611 31.0445 38.8372 31.1357 38.418C31.2359 37.9987 31.2861 37.5749 31.2861 37.1465V37.0098C31.2861 36.8913 31.2815 36.7135 31.2724 36.4766C31.2724 36.2305 31.2678 35.957 31.2587 35.6562C31.2496 35.3464 31.2405 35.0228 31.2314 34.6855C31.2223 34.3392 31.2131 34.0156 31.204 33.7148C31.1949 33.4049 31.1858 33.127 31.1767 32.8809C31.1767 32.6348 31.1767 32.4525 31.1767 32.334L31.2314 31.2266C31.2314 31.1992 31.2405 31.1582 31.2587 31.1035C31.2769 31.0488 31.3088 31.0124 31.3544 30.9941H32.2841C32.3023 30.9941 32.3433 30.9941 32.4072 30.9941C32.4801 30.985 32.553 30.9759 32.6259 30.9668C32.7079 30.9577 32.7808 30.9531 32.8447 30.9531C32.9176 30.944 32.9631 30.9395 32.9814 30.9395C32.9905 30.9395 33.0497 30.9395 33.1591 30.9395C33.2685 30.9395 33.3961 30.9395 33.5419 30.9395C33.6877 30.9303 33.8336 30.9258 33.9794 30.9258C34.1252 30.9258 34.2437 30.9258 34.3349 30.9258C34.3896 30.9258 34.4807 30.9258 34.6083 30.9258C34.7359 30.9258 34.8681 30.9303 35.0048 30.9395C35.1506 30.9395 35.2874 30.9395 35.415 30.9395C35.5426 30.9395 35.6292 30.9395 35.6747 30.9395C35.9391 30.9668 36.2034 31.0078 36.4677 31.0625C36.7411 31.1081 37.0009 31.1855 37.247 31.2949C37.3017 31.2949 37.3427 31.3086 37.37 31.3359C37.7164 31.5547 38.0354 31.7826 38.3271 32.0195C38.6187 32.2474 38.9058 32.5117 39.1884 32.8125C39.398 33.0312 39.5575 33.2773 39.6669 33.5508C39.7763 33.8242 39.8674 34.1022 39.9404 34.3848C39.9586 34.4395 39.9814 34.5215 40.0087 34.6309C40.0452 34.7311 40.0771 34.8405 40.1044 34.959C40.1409 35.0684 40.1728 35.1686 40.2001 35.2598C40.2275 35.3509 40.2411 35.4102 40.2411 35.4375C40.2685 35.556 40.2822 35.6699 40.2822 35.7793C40.2822 35.8796 40.3095 35.9798 40.3642 36.0801V36.9551C40.3642 36.9733 40.3733 37.0052 40.3915 37.0508C40.4098 37.0872 40.4189 37.1146 40.4189 37.1328V37.1738V37.1875C40.4189 37.1966 40.4098 37.2194 40.3915 37.2559L40.3642 37.3105C40.3551 37.3379 40.3414 37.3835 40.3232 37.4473C40.3049 37.502 40.2958 37.5384 40.2958 37.5566C40.2958 37.5658 40.2958 37.5931 40.2958 37.6387C40.2958 37.6842 40.2958 37.7344 40.2958 37.7891C40.2958 37.8346 40.2958 37.8802 40.2958 37.9258C40.2958 37.9714 40.2958 37.9987 40.2958 38.0078C40.2958 38.0169 40.2867 38.0397 40.2685 38.0762C40.2502 38.1035 40.2411 38.1217 40.2411 38.1309C40.2411 38.1491 40.232 38.1992 40.2138 38.2812C40.1956 38.3633 40.1864 38.4134 40.1864 38.4316C40.1682 38.4863 40.1318 38.582 40.0771 38.7188C40.0315 38.8555 39.9814 39.0013 39.9267 39.1562C39.872 39.3112 39.8173 39.457 39.7626 39.5938C39.717 39.7305 39.6851 39.8262 39.6669 39.8809C39.5393 40.0358 39.4208 40.2044 39.3114 40.3867C39.2112 40.5599 39.0881 40.724 38.9423 40.8789C38.7509 41.1068 38.5367 41.2936 38.2997 41.4395C38.0627 41.5762 37.8121 41.722 37.5478 41.877C37.5295 41.8861 37.5068 41.8997 37.4794 41.918C37.4521 41.9271 37.4338 41.9316 37.4247 41.9316C37.4156 41.9408 37.3883 41.9453 37.3427 41.9453C37.2971 41.9362 37.2652 41.9316 37.247 41.9316C36.9553 41.9772 36.6773 42.0228 36.413 42.0684C36.1578 42.123 35.8707 42.1595 35.5517 42.1777C35.5061 42.1777 35.3967 42.1777 35.2236 42.1777C35.0595 42.1777 34.8772 42.1777 34.6767 42.1777C34.4762 42.1777 34.2893 42.1777 34.1161 42.1777C33.9521 42.1777 33.8473 42.1777 33.8017 42.1777C33.7743 42.1777 33.7014 42.1777 33.5829 42.1777C33.4644 42.1868 33.3414 42.196 33.2138 42.2051C33.0862 42.2142 32.9631 42.2188 32.8447 42.2188C32.7262 42.2279 32.6532 42.2324 32.6259 42.2324H31.4091C31.3909 42.2415 31.359 42.2552 31.3134 42.2734C31.2769 42.2917 31.2496 42.2917 31.2314 42.2734C31.2223 42.2734 31.2086 42.2598 31.1904 42.2324C31.1812 42.2142 31.1767 42.196 31.1767 42.1777C31.1676 42.1595 31.1539 42.1048 31.1357 42.0137C31.1266 41.9225 31.1174 41.8587 31.1083 41.8223C31.0627 41.4759 31.0308 41.1204 31.0126 40.7559C31.0035 40.3913 30.9989 40.0358 30.9989 39.6895ZM33.9794 39.4844C33.9885 39.5482 33.9976 39.6257 34.0068 39.7168C34.025 39.7988 34.0751 39.8535 34.1572 39.8809C34.1754 39.8809 34.2164 39.8854 34.2802 39.8945C34.344 39.8945 34.385 39.8945 34.4032 39.8945C34.4215 39.8945 34.4579 39.8945 34.5126 39.8945C34.5764 39.8854 34.6129 39.8809 34.622 39.8809C34.6767 39.8809 34.7678 39.8763 34.8954 39.8672C35.023 39.8581 35.1552 39.849 35.2919 39.8398C35.4377 39.8216 35.5745 39.8079 35.7021 39.7988C35.8297 39.7897 35.9208 39.7806 35.9755 39.7715C37.5068 39.3613 38.2724 38.3587 38.2724 36.7637C38.2724 36.472 38.2177 36.1576 38.1083 35.8203C38.0081 35.474 37.8805 35.1732 37.7255 34.918C37.6982 34.8906 37.6526 34.8451 37.5888 34.7812C37.5341 34.7174 37.4703 34.6536 37.3974 34.5898C37.3336 34.5169 37.2698 34.4531 37.206 34.3984C37.1422 34.3346 37.0966 34.2891 37.0693 34.2617C37.0601 34.2617 36.9963 34.2298 36.8779 34.166C36.7685 34.1022 36.6819 34.0612 36.6181 34.043C36.5269 33.9974 36.4176 33.9564 36.29 33.9199C36.1715 33.8743 36.0667 33.8379 35.9755 33.8105C35.9026 33.8105 35.775 33.806 35.5927 33.7969C35.4195 33.7786 35.2327 33.765 35.0322 33.7559C34.8316 33.7376 34.6402 33.724 34.4579 33.7148C34.2848 33.6966 34.1663 33.6875 34.1025 33.6875H33.9247H33.747C33.747 33.7331 33.7424 33.8197 33.7333 33.9473C33.7242 34.0749 33.7151 34.2116 33.706 34.3574C33.706 34.5033 33.7014 34.64 33.6923 34.7676C33.6832 34.8952 33.6786 34.9863 33.6786 35.041V35.123V35.2051L33.9794 38.9512V39.4844ZM43.699 35.6289C43.699 35.4193 43.7036 35.2188 43.7127 35.0273C43.7218 34.8359 43.7583 34.64 43.8221 34.4395C43.9406 34.0293 44.1229 33.6419 44.3689 33.2773C44.6242 32.9036 44.893 32.5482 45.1756 32.2109C45.3032 32.0651 45.4354 31.9421 45.5721 31.8418C45.7088 31.7415 45.8683 31.6322 46.0506 31.5137C46.4425 31.2493 46.8618 31.0306 47.3084 30.8574C47.7641 30.6751 48.2381 30.584 48.7303 30.584C49.2407 30.584 49.7329 30.625 50.2068 30.707C50.6808 30.7891 51.1456 30.9622 51.6014 31.2266C51.6196 31.2357 51.6652 31.2721 51.7381 31.3359C51.8201 31.3997 51.8702 31.4408 51.8885 31.459C52.1801 31.6686 52.4673 31.8691 52.7498 32.0605C53.0415 32.252 53.3058 32.4798 53.5428 32.7441C53.5428 32.7533 53.561 32.7806 53.5975 32.8262C53.6339 32.8626 53.6704 32.9082 53.7068 32.9629C53.7524 33.0176 53.798 33.0768 53.8436 33.1406C53.8891 33.1953 53.921 33.2363 53.9393 33.2637C53.9484 33.2819 53.9666 33.3138 53.9939 33.3594C54.0304 33.4049 54.0532 33.4323 54.0623 33.4414C54.0714 33.4505 54.0988 33.4824 54.1443 33.5371C54.199 33.5827 54.2309 33.6146 54.24 33.6328C54.2492 33.6419 54.2492 33.6829 54.24 33.7559C54.24 33.8197 54.24 33.8561 54.24 33.8652C54.24 33.8835 54.2583 33.9427 54.2947 34.043C54.3312 34.1341 54.354 34.1888 54.3631 34.207C54.3631 34.2161 54.3676 34.2435 54.3768 34.2891C54.3859 34.3255 54.395 34.3665 54.4041 34.4121C54.4223 34.4577 54.436 34.5033 54.4451 34.5488C54.4633 34.5853 54.4725 34.6081 54.4725 34.6172C54.4816 34.6354 54.4998 34.6764 54.5272 34.7402C54.5636 34.804 54.5818 34.8451 54.5818 34.8633V35.1367C54.5818 35.1549 54.5818 35.1868 54.5818 35.2324C54.591 35.2689 54.6001 35.3099 54.6092 35.3555C54.6183 35.401 54.6229 35.4466 54.6229 35.4922C54.632 35.5286 54.6365 35.5514 54.6365 35.5605C54.6365 35.5697 54.6365 35.6107 54.6365 35.6836C54.6456 35.7474 54.6502 35.8249 54.6502 35.916C54.6502 35.998 54.6502 36.0846 54.6502 36.1758C54.6593 36.2578 54.6639 36.3262 54.6639 36.3809C54.6639 36.7454 54.6502 37.1419 54.6229 37.5703C54.5955 37.9987 54.5089 38.377 54.3631 38.7051C54.3449 38.7324 54.3221 38.7734 54.2947 38.8281C54.2674 38.8828 54.24 38.9421 54.2127 39.0059C54.1854 39.0697 54.1535 39.1289 54.117 39.1836C54.0897 39.2383 54.0714 39.2793 54.0623 39.3066C54.0532 39.3249 54.0304 39.3568 53.9939 39.4023C53.9666 39.4388 53.9484 39.4661 53.9393 39.4844C53.7296 39.7396 53.5018 39.9902 53.2557 40.2363C53.0187 40.4824 52.7817 40.7194 52.5447 40.9473C52.3898 41.0931 52.2075 41.2207 51.9979 41.3301C51.7882 41.4395 51.5968 41.5443 51.4236 41.6445C51.1411 41.7995 50.8084 41.8997 50.4256 41.9453C50.0519 41.9818 49.7147 42 49.4139 42C48.8305 42 48.2745 41.9316 47.7459 41.7949C47.2173 41.6582 46.7114 41.4349 46.2283 41.125C46.1919 41.1068 46.1417 41.0794 46.0779 41.043C46.0232 41.0065 45.9686 40.9701 45.9139 40.9336C45.8592 40.888 45.8091 40.8516 45.7635 40.8242C45.727 40.7969 45.7042 40.7786 45.6951 40.7695C45.686 40.7695 45.6359 40.7331 45.5447 40.6602C45.4627 40.5781 45.3624 40.4824 45.2439 40.373C45.1255 40.2637 45.0024 40.1543 44.8748 40.0449C44.7563 39.9355 44.6561 39.8444 44.574 39.7715C44.5831 39.7715 44.574 39.7578 44.5467 39.7305L44.5193 39.7031C44.5102 39.6849 44.492 39.6302 44.4647 39.5391C44.4373 39.4388 44.4191 39.3796 44.41 39.3613C44.3006 39.097 44.1912 38.8464 44.0818 38.6094C43.9725 38.3724 43.8859 38.1126 43.8221 37.8301C43.813 37.821 43.8084 37.7845 43.8084 37.7207C43.8175 37.6569 43.8221 37.6204 43.8221 37.6113C43.7856 37.2741 43.7537 36.946 43.7264 36.627C43.7081 36.2988 43.699 35.9661 43.699 35.6289ZM46.2283 37.2012C46.2374 37.2194 46.2557 37.2513 46.283 37.2969C46.3104 37.3333 46.324 37.3607 46.324 37.3789C46.3423 37.388 46.3559 37.4199 46.365 37.4746C46.3742 37.5202 46.3833 37.5475 46.3924 37.5566C46.4015 37.5749 46.4197 37.6204 46.4471 37.6934C46.4835 37.7663 46.52 37.8483 46.5564 37.9395C46.5929 38.0215 46.6294 38.1035 46.6658 38.1855C46.7023 38.2676 46.7296 38.3268 46.7479 38.3633C46.8755 38.6641 47.0213 38.901 47.1854 39.0742C47.3494 39.2474 47.5317 39.375 47.7322 39.457C47.9419 39.5391 48.1697 39.5938 48.4158 39.6211C48.671 39.6393 48.949 39.6484 49.2498 39.6484C49.7785 39.6484 50.257 39.5664 50.6854 39.4023C51.1229 39.2292 51.5102 38.9238 51.8475 38.4863C51.8566 38.4681 51.8748 38.4362 51.9022 38.3906C51.9295 38.3451 51.9432 38.3177 51.9432 38.3086C52.0525 38.026 52.1118 37.7435 52.1209 37.4609C52.13 37.1693 52.1346 36.873 52.1346 36.5723C52.1346 36.5449 52.1346 36.4948 52.1346 36.4219C52.1346 36.349 52.13 36.2715 52.1209 36.1895C52.1209 36.1074 52.1209 36.0299 52.1209 35.957C52.1209 35.875 52.1209 35.8203 52.1209 35.793C52.1027 35.6836 52.0708 35.5286 52.0252 35.3281C51.9796 35.1276 51.9204 34.9225 51.8475 34.7129C51.7745 34.4941 51.6925 34.2936 51.6014 34.1113C51.5102 33.929 51.4145 33.806 51.3143 33.7422C51.3051 33.7422 51.2732 33.7376 51.2186 33.7285C51.1639 33.7103 51.1365 33.6966 51.1365 33.6875C51.1274 33.6784 51.1092 33.651 51.0818 33.6055C51.0545 33.5508 51.0317 33.5189 51.0135 33.5098C51.0044 33.4915 50.9861 33.4688 50.9588 33.4414C50.9314 33.4049 50.9087 33.3867 50.8904 33.3867C50.6352 33.2318 50.3527 33.1178 50.0428 33.0449C49.742 32.9629 49.4412 32.9219 49.1404 32.9219C48.7303 32.9219 48.3429 32.9811 47.9783 33.0996C47.6137 33.2181 47.2902 33.3958 47.0076 33.6328C46.7342 33.8607 46.5154 34.1432 46.3514 34.4805C46.1873 34.8177 46.1053 35.2051 46.1053 35.6426C46.1053 35.8978 46.1189 36.1576 46.1463 36.4219C46.1736 36.6771 46.201 36.9368 46.2283 37.2012ZM58.2175 42.2461C58.2083 42.1276 58.1992 41.9453 58.1901 41.6992C58.181 41.444 58.1673 41.1615 58.1491 40.8516C58.14 40.5417 58.1263 40.2181 58.1081 39.8809C58.099 39.5345 58.0899 39.2064 58.0807 38.8965C58.0716 38.5866 58.0625 38.3086 58.0534 38.0625C58.0443 37.8073 58.0397 37.6204 58.0397 37.502C58.0397 37.4746 58.0397 37.3607 58.0397 37.1602C58.0397 36.9596 58.0352 36.7318 58.0261 36.4766C58.0261 36.2214 58.0261 35.9661 58.0261 35.7109C58.0261 35.4557 58.0261 35.2552 58.0261 35.1094C58.0261 35.0182 58.0261 34.8587 58.0261 34.6309C58.0261 34.403 58.0261 34.1615 58.0261 33.9062C58.0352 33.651 58.0397 33.4095 58.0397 33.1816C58.0397 32.9538 58.0397 32.7943 58.0397 32.7031C58.0488 32.6667 58.058 32.5892 58.0671 32.4707C58.0853 32.3522 58.0944 32.2747 58.0944 32.2383C58.0944 32.1836 58.0944 32.0924 58.0944 31.9648C58.1035 31.8281 58.1081 31.6868 58.1081 31.541C58.1081 31.3861 58.1035 31.2448 58.0944 31.1172C58.0944 30.9805 58.0944 30.8848 58.0944 30.8301C58.1856 30.7936 58.2585 30.7754 58.3132 30.7754C58.3679 30.7663 58.4362 30.7617 58.5182 30.7617H58.737C58.8008 30.7708 58.9147 30.7799 59.0788 30.7891C59.2429 30.7891 59.4115 30.7936 59.5847 30.8027C59.7669 30.8118 59.9356 30.821 60.0905 30.8301C60.2546 30.8301 60.3685 30.8301 60.4323 30.8301C60.5508 30.9303 60.6602 31.0579 60.7604 31.2129C60.8698 31.3587 60.9655 31.5182 61.0475 31.6914C61.1387 31.8555 61.2253 32.0241 61.3073 32.1973C61.3893 32.3613 61.4714 32.5072 61.5534 32.6348C61.5625 32.6621 61.5944 32.7214 61.6491 32.8125C61.7038 32.8945 61.7585 32.9857 61.8132 33.0859C61.877 33.1771 61.9317 33.2682 61.9772 33.3594C62.0319 33.4414 62.0684 33.4915 62.0866 33.5098C62.0957 33.528 62.1139 33.569 62.1413 33.6328C62.1777 33.6966 62.2142 33.7695 62.2507 33.8516C62.2871 33.9245 62.319 33.9928 62.3464 34.0566C62.3828 34.1204 62.4102 34.1569 62.4284 34.166L62.7155 34.4531C62.7246 34.4714 62.7429 34.5124 62.7702 34.5762C62.7975 34.64 62.8203 34.6764 62.8386 34.6855C62.8477 34.7038 62.8705 34.7402 62.9069 34.7949C62.9434 34.8405 62.9844 34.8952 63.03 34.959C63.0847 35.0137 63.1302 35.0684 63.1667 35.123C63.2123 35.1686 63.2396 35.196 63.2487 35.2051C63.2669 35.2233 63.2852 35.2552 63.3034 35.3008C63.3307 35.3464 63.349 35.3737 63.3581 35.3828C63.3672 35.401 63.39 35.4466 63.4264 35.5195C63.472 35.5924 63.5176 35.6699 63.5632 35.752C63.6179 35.834 63.6634 35.9115 63.6999 35.9844C63.7363 36.0482 63.7637 36.0892 63.7819 36.1074C63.791 36.1165 63.8184 36.153 63.8639 36.2168C63.9095 36.2715 63.9414 36.3079 63.9597 36.3262C64.0052 36.3809 64.0417 36.4128 64.069 36.4219C64.1055 36.431 64.1419 36.4583 64.1784 36.5039C64.1966 36.5221 64.2285 36.5723 64.2741 36.6543C64.3197 36.7363 64.347 36.7865 64.3561 36.8047C64.3652 36.8138 64.4017 36.8503 64.4655 36.9141C64.5293 36.9779 64.5703 37.0143 64.5886 37.0234C64.5977 37.0417 64.6205 37.0736 64.6569 37.1191C64.6934 37.1647 64.7298 37.2148 64.7663 37.2695C64.8119 37.3151 64.8529 37.3652 64.8893 37.4199C64.9258 37.4655 64.9486 37.4928 64.9577 37.502C64.9668 37.5111 64.9805 37.5339 64.9987 37.5703C65.0261 37.5977 65.0443 37.6159 65.0534 37.625C65.0716 37.5885 65.0853 37.5111 65.0944 37.3926C65.1035 37.2741 65.1126 37.1921 65.1218 37.1465V36.9824C65.1218 36.6361 65.1035 36.2943 65.0671 35.957C65.0397 35.6107 65.0033 35.2689 64.9577 34.9316V31.0625C64.9577 31.0352 64.9623 30.9941 64.9714 30.9395C64.9896 30.8848 65.0169 30.8483 65.0534 30.8301C65.0807 30.8301 65.1218 30.8301 65.1764 30.8301C65.2311 30.8301 65.2904 30.8301 65.3542 30.8301C65.418 30.821 65.4772 30.8164 65.5319 30.8164C65.5866 30.8164 65.6276 30.8164 65.655 30.8164C65.6914 30.8164 65.737 30.8164 65.7917 30.8164C65.8555 30.8164 65.9147 30.821 65.9694 30.8301C66.0332 30.8301 66.0879 30.8301 66.1335 30.8301C66.1882 30.8301 66.2201 30.8301 66.2292 30.8301C66.2656 30.8301 66.3249 30.8346 66.4069 30.8438C66.4981 30.8438 66.5938 30.8483 66.694 30.8574C66.8034 30.8574 66.8991 30.862 66.9811 30.8711C67.0723 30.8802 67.1361 30.8848 67.1725 30.8848C67.2363 30.9303 67.2865 30.985 67.3229 31.0488C67.3594 31.1126 67.3867 31.1855 67.405 31.2676C67.4232 31.3405 67.4323 31.418 67.4323 31.5C67.4414 31.5729 67.4505 31.6413 67.4597 31.7051C67.4688 31.8418 67.4779 32.0423 67.487 32.3066C67.5052 32.571 67.5189 32.8444 67.528 33.127C67.5462 33.4095 67.5599 33.6647 67.569 33.8926C67.5781 34.1204 67.5827 34.2663 67.5827 34.3301C67.5827 34.4395 67.5827 34.6081 67.5827 34.8359C67.5918 35.0638 67.5964 35.319 67.5964 35.6016C67.5964 35.8841 67.5964 36.1849 67.5964 36.5039C67.5964 36.8229 67.5964 37.1237 67.5964 37.4062C67.5964 37.6888 67.5918 37.944 67.5827 38.1719C67.5827 38.3997 67.5827 38.5684 67.5827 38.6777C67.6192 38.9329 67.6374 39.1608 67.6374 39.3613C67.6465 39.5618 67.6511 39.7943 67.6511 40.0586C67.6511 40.1042 67.6465 40.168 67.6374 40.25C67.6374 40.3229 67.6374 40.3958 67.6374 40.4688C67.6374 40.5417 67.6328 40.61 67.6237 40.6738C67.6237 40.7285 67.6237 40.7604 67.6237 40.7695C67.6237 40.8151 67.6192 40.8971 67.61 41.0156C67.61 41.1341 67.6055 41.2617 67.5964 41.3984C67.5964 41.526 67.5918 41.6491 67.5827 41.7676C67.5827 41.877 67.5827 41.9544 67.5827 42C67.528 42.0091 67.4232 42.0182 67.2682 42.0273C67.1224 42.0456 66.9629 42.0592 66.7897 42.0684C66.6166 42.0866 66.4525 42.1003 66.2975 42.1094C66.1517 42.1185 66.0514 42.123 65.9968 42.123H65.6139H65.2311C65.14 42.0957 65.0625 42.041 64.9987 41.959C64.9349 41.877 64.8802 41.7995 64.8347 41.7266C64.5339 41.2344 64.2331 40.7467 63.9323 40.2637C63.6315 39.7715 63.308 39.3021 62.9616 38.8555C62.9343 38.8281 62.8841 38.7689 62.8112 38.6777C62.7383 38.5866 62.6882 38.5273 62.6608 38.5C62.6426 38.4818 62.6061 38.4408 62.5514 38.377C62.4968 38.3132 62.4375 38.2493 62.3737 38.1855C62.3099 38.1126 62.2461 38.0443 62.1823 37.9805C62.1276 37.9167 62.0957 37.8757 62.0866 37.8574C62.0684 37.8392 62.0365 37.7936 61.9909 37.7207C61.9453 37.6478 61.8952 37.5703 61.8405 37.4883C61.7949 37.3971 61.7448 37.3151 61.6901 37.2422C61.6445 37.1602 61.6172 37.1055 61.6081 37.0781C61.599 37.0599 61.5625 37.0052 61.4987 36.9141C61.4349 36.8138 61.3939 36.7546 61.3757 36.7363C61.3574 36.709 61.3164 36.6452 61.2526 36.5449C61.1979 36.4355 61.1387 36.3262 61.0749 36.2168C61.0111 36.0983 60.9473 35.9889 60.8835 35.8887C60.8288 35.7793 60.7969 35.7109 60.7878 35.6836C60.7787 35.6745 60.7559 35.6471 60.7194 35.6016C60.6921 35.5469 60.6738 35.515 60.6647 35.5059C60.6647 35.515 60.6556 35.5469 60.6374 35.6016C60.6192 35.6471 60.61 35.6745 60.61 35.6836V35.7383V35.8066C60.6374 36.4355 60.6556 37.0599 60.6647 37.6797C60.6738 38.2995 60.6966 38.9238 60.7331 39.5527C60.7331 39.571 60.7331 39.6165 60.7331 39.6895C60.7422 39.7533 60.7513 39.8262 60.7604 39.9082C60.7695 39.9811 60.7741 40.054 60.7741 40.127C60.7832 40.1908 60.7878 40.2318 60.7878 40.25V41.7676C60.8333 41.8587 60.8561 41.959 60.8561 42.0684C60.8561 42.0866 60.8516 42.0957 60.8425 42.0957C60.8425 42.1048 60.8425 42.1185 60.8425 42.1367V42.1777C60.8425 42.1868 60.8242 42.196 60.7878 42.2051C60.7604 42.2233 60.7422 42.237 60.7331 42.2461C60.5143 42.2917 60.3047 42.3099 60.1042 42.3008C59.9128 42.3008 59.7031 42.3008 59.4753 42.3008H58.6139C58.5866 42.3008 58.5182 42.2917 58.4089 42.2734C58.3086 42.2643 58.2448 42.2552 58.2175 42.2461ZM59.8171 28.082C59.89 27.8177 60.0267 27.5944 60.2272 27.4121C60.4277 27.2207 60.6237 27.0384 60.8151 26.8652C60.9792 26.7103 61.1432 26.6009 61.3073 26.5371C61.4714 26.4733 61.6719 26.4414 61.9089 26.4414H62.2233C62.3509 26.4688 62.4876 26.5326 62.6335 26.6328C62.7793 26.724 62.916 26.8014 63.0436 26.8652C63.0801 26.8835 63.1576 26.9199 63.2761 26.9746C63.3945 27.0293 63.472 27.0658 63.5085 27.084C63.5905 27.1296 63.668 27.1523 63.7409 27.1523C63.8503 27.1523 63.946 27.1159 64.028 27.043C64.1192 26.9609 64.2012 26.8743 64.2741 26.7832C64.3561 26.6829 64.4291 26.5918 64.4929 26.5098C64.5567 26.4277 64.6159 26.3867 64.6706 26.3867H64.7389C64.7754 26.4141 64.8347 26.4596 64.9167 26.5234C64.9987 26.5781 65.0853 26.6419 65.1764 26.7148C65.2767 26.7786 65.3679 26.8424 65.4499 26.9062C65.5319 26.9701 65.5866 27.0156 65.6139 27.043C65.6686 27.0794 65.7233 27.1159 65.778 27.1523C65.8327 27.1888 65.86 27.2435 65.86 27.3164C65.86 27.3255 65.8555 27.3392 65.8464 27.3574C65.8464 27.3665 65.8464 27.3757 65.8464 27.3848C65.737 27.5488 65.6139 27.7266 65.4772 27.918C65.3496 28.1003 65.2083 28.2689 65.0534 28.4238C64.8985 28.5788 64.7253 28.7064 64.5339 28.8066C64.3516 28.9069 64.1465 28.957 63.9186 28.957C63.5723 28.957 63.2578 28.8613 62.9753 28.6699C62.8294 28.5788 62.711 28.4967 62.6198 28.4238C62.5378 28.3509 62.4147 28.3145 62.2507 28.3145C62.0228 28.3145 61.8268 28.3828 61.6628 28.5195C61.5078 28.6562 61.362 28.8021 61.2253 28.957H61.0475C60.9382 28.957 60.8197 28.9297 60.6921 28.875C60.5736 28.8112 60.4597 28.7383 60.3503 28.6562C60.2409 28.5651 60.1406 28.4694 60.0495 28.3691C59.9583 28.2689 59.8809 28.1732 59.8171 28.082ZM70.5211 42C70.4846 41.9909 70.4664 41.9681 70.4664 41.9316C70.4664 41.8952 70.4664 41.8633 70.4664 41.8359C70.4664 41.763 70.4983 41.6855 70.5621 41.6035C70.6259 41.5124 70.6714 41.4303 70.6988 41.3574C70.7079 41.3301 70.7261 41.2799 70.7535 41.207C70.7808 41.125 70.8082 41.0384 70.8355 40.9473C70.872 40.847 70.9039 40.7604 70.9312 40.6875C70.9586 40.6055 70.9768 40.5508 70.9859 40.5234C70.995 40.4961 71.0087 40.4551 71.0269 40.4004C71.0543 40.3457 71.0816 40.2865 71.1089 40.2227C71.1363 40.1589 71.1591 40.1042 71.1773 40.0586C71.2047 40.0039 71.2183 39.9674 71.2183 39.9492C71.2274 39.9401 71.2457 39.9128 71.273 39.8672C71.3004 39.8216 71.3277 39.7715 71.355 39.7168C71.3824 39.6621 71.4052 39.6165 71.4234 39.5801C71.4507 39.5345 71.4644 39.5026 71.4644 39.4844C71.4735 39.4479 71.51 39.3477 71.5738 39.1836C71.6376 39.0195 71.706 38.8464 71.7789 38.6641C71.8518 38.4727 71.9201 38.2995 71.9839 38.1445C72.0477 37.9805 72.0888 37.8757 72.107 37.8301C72.1252 37.7936 72.1617 37.7207 72.2164 37.6113C72.2802 37.4928 72.3212 37.4154 72.3394 37.3789L74.5543 31.2949C74.5634 31.2767 74.577 31.2448 74.5953 31.1992C74.6226 31.1445 74.6454 31.0898 74.6636 31.0352C74.691 30.9805 74.7138 30.9303 74.732 30.8848C74.7593 30.8301 74.7776 30.7891 74.7867 30.7617L74.855 30.6934H75.0464H75.2652C75.3017 30.6934 75.3928 30.6979 75.5386 30.707C75.6845 30.7161 75.844 30.7253 76.0172 30.7344C76.1903 30.7344 76.3498 30.7389 76.4957 30.748C76.6415 30.7572 76.7372 30.7617 76.7828 30.7617C76.8466 30.7617 76.9058 30.7617 76.9605 30.7617C77.0152 30.7526 77.0744 30.7708 77.1382 30.8164C77.2112 30.8711 77.275 30.9349 77.3297 31.0078C77.3843 31.0807 77.4345 31.1536 77.48 31.2266C77.5074 31.2721 77.5438 31.3314 77.5894 31.4043C77.635 31.4772 77.676 31.5501 77.7125 31.623C77.758 31.696 77.7991 31.7643 77.8355 31.8281C77.872 31.8828 77.8948 31.9147 77.9039 31.9238C77.9312 31.9876 77.9768 32.0879 78.0406 32.2246C78.1044 32.3522 78.1682 32.4889 78.232 32.6348C78.3049 32.7806 78.3687 32.9128 78.4234 33.0312C78.4781 33.1497 78.5145 33.2272 78.5328 33.2637C78.5419 33.291 78.5601 33.3503 78.5875 33.4414C78.6148 33.5234 78.6467 33.6146 78.6832 33.7148C78.7196 33.8151 78.7515 33.9108 78.7789 34.002C78.8062 34.084 78.8244 34.1387 78.8336 34.166C79.0067 34.6491 79.2164 35.1185 79.4625 35.5742C79.7086 36.0208 79.9273 36.4811 80.1187 36.9551C80.1369 37.0098 80.178 37.1237 80.2418 37.2969C80.3056 37.4609 80.3785 37.6569 80.4605 37.8848C80.5517 38.1126 80.6428 38.3542 80.7339 38.6094C80.8251 38.8646 80.9117 39.1061 80.9937 39.334C81.0849 39.5527 81.1623 39.7441 81.2261 39.9082C81.2899 40.0723 81.331 40.1816 81.3492 40.2363C81.3583 40.2728 81.3948 40.3594 81.4586 40.4961C81.5224 40.6237 81.5634 40.7103 81.5816 40.7559C81.5998 40.8014 81.6317 40.8698 81.6773 40.9609C81.7229 41.043 81.7685 41.1341 81.814 41.2344C81.8596 41.3346 81.9052 41.4303 81.9507 41.5215C81.9963 41.6035 82.0282 41.6628 82.0464 41.6992V41.7539C82.0464 41.7995 82.0282 41.8405 81.9918 41.877C81.9553 41.9043 81.9097 41.9271 81.855 41.9453C81.8095 41.9635 81.7593 41.9772 81.7047 41.9863C81.65 41.9954 81.6089 42 81.5816 42C81.5543 42 81.4859 42 81.3765 42C81.2672 42 81.1487 42 81.0211 42C80.9026 42 80.7886 42 80.6793 42C80.5699 42 80.5015 42 80.4742 42C80.3466 42 80.2144 42.0182 80.0777 42.0547C79.9501 42.1003 79.8134 42.123 79.6675 42.123C79.5946 42.123 79.5354 42.1185 79.4898 42.1094C79.4442 42.1094 79.3804 42.0911 79.2984 42.0547C79.2984 42.0547 79.2893 42.0456 79.2711 42.0273L79.2437 42C79.1617 41.8451 79.0979 41.722 79.0523 41.6309C79.0158 41.5306 78.9612 41.3984 78.8882 41.2344C78.87 41.2161 78.8381 41.1569 78.7925 41.0566C78.747 40.9564 78.7196 40.8971 78.7105 40.8789C78.6558 40.7057 78.6239 40.5553 78.6148 40.4277C78.6057 40.3001 78.5419 40.1589 78.4234 40.0039C78.4143 39.9948 78.3961 39.9857 78.3687 39.9766C78.3414 39.9583 78.3186 39.9492 78.3004 39.9492C78.2274 39.9492 78.1044 39.9447 77.9312 39.9355C77.7672 39.9264 77.5894 39.9219 77.398 39.9219C77.2066 39.9128 77.0243 39.9036 76.8511 39.8945C76.678 39.8854 76.5549 39.8809 76.482 39.8809C76.4638 39.8809 76.4227 39.8809 76.3589 39.8809C76.3043 39.8717 76.2405 39.8626 76.1675 39.8535C76.0946 39.8444 76.0263 39.8398 75.9625 39.8398C75.8987 39.8307 75.8622 39.8262 75.8531 39.8262H75.5933C75.3381 39.8262 75.0829 39.8353 74.8277 39.8535C74.5816 39.8717 74.3355 39.9036 74.0894 39.9492C73.9345 39.9766 73.8205 40.0495 73.7476 40.168C73.6838 40.2773 73.62 40.3958 73.5562 40.5234C73.5471 40.5508 73.5289 40.6009 73.5015 40.6738C73.4742 40.7467 73.4423 40.8242 73.4058 40.9062C73.3785 40.9792 73.3511 41.0475 73.3238 41.1113C73.2964 41.1751 73.2782 41.2161 73.2691 41.2344C73.26 41.2526 73.2418 41.2982 73.2144 41.3711C73.1962 41.4349 73.1734 41.5078 73.1461 41.5898C73.1187 41.6628 73.0914 41.7357 73.064 41.8086C73.0458 41.8724 73.0367 41.9134 73.0367 41.9316C72.9638 42.1139 72.8817 42.2096 72.7906 42.2188C72.6994 42.2279 72.5673 42.2324 72.3941 42.2324C72.0751 42.2324 71.7698 42.1914 71.4781 42.1094C71.1864 42.0365 70.8674 42 70.5211 42ZM76.0855 34.4395C76.0764 34.4486 76.0627 34.4714 76.0445 34.5078C76.0354 34.5352 76.0308 34.5534 76.0308 34.5625C76.0308 34.5807 76.0217 34.6126 76.0035 34.6582C75.9852 34.7038 75.9625 34.7539 75.9351 34.8086C75.9169 34.8542 75.8987 34.9043 75.8804 34.959C75.8622 35.0046 75.8531 35.0319 75.8531 35.041C75.844 35.0501 75.8257 35.082 75.7984 35.1367C75.7802 35.1823 75.7574 35.237 75.73 35.3008C75.7027 35.3555 75.6754 35.4102 75.648 35.4648C75.6298 35.5195 75.6161 35.5514 75.607 35.5605C75.5614 35.6699 75.5067 35.8158 75.4429 35.998C75.3791 36.1803 75.3153 36.3626 75.2515 36.5449C75.1877 36.7181 75.133 36.8685 75.0875 36.9961C75.051 37.1237 75.0328 37.1875 75.0328 37.1875V37.3105H77.2613C77.2704 37.3105 77.2886 37.2969 77.316 37.2695C77.3433 37.2331 77.3661 37.2057 77.3843 37.1875V37.1328C77.3843 37.0599 77.3616 36.9733 77.316 36.873C77.2704 36.7637 77.2339 36.6771 77.2066 36.6133C77.1246 36.4583 77.0243 36.2624 76.9058 36.0254C76.7873 35.7884 76.6688 35.5605 76.5504 35.3418C76.441 35.1139 76.3453 34.918 76.2632 34.7539C76.1812 34.5898 76.1402 34.5078 76.1402 34.5078L76.0855 34.4395ZM90.9036 42C90.8398 41.9453 90.7988 41.8861 90.7806 41.8223V40.7422C90.7806 39.1927 90.7943 37.6569 90.8216 36.1348C90.8489 34.6126 90.8535 33.0723 90.8353 31.5137L90.9036 30.9395C90.9036 30.9121 90.931 30.8848 90.9857 30.8574C91.0404 30.8301 91.0723 30.8164 91.0814 30.8164C91.1087 30.8073 91.1497 30.7982 91.2044 30.7891C91.2591 30.7708 91.2956 30.7617 91.3138 30.7617H93.2279C93.2552 30.7617 93.2825 30.7799 93.3099 30.8164C93.3372 30.8529 93.36 30.8939 93.3782 30.9395C93.4056 30.985 93.4284 31.0306 93.4466 31.0762C93.4648 31.1217 93.4739 31.1536 93.4739 31.1719C93.5469 31.6367 93.5833 32.1061 93.5833 32.5801C93.5924 33.054 93.597 33.528 93.597 34.002C93.597 34.084 93.5924 34.1979 93.5833 34.3438C93.5833 34.4805 93.5833 34.5534 93.5833 34.5625C93.5833 34.5807 93.5788 34.6263 93.5696 34.6992C93.5696 34.7721 93.5651 34.8542 93.556 34.9453C93.5469 35.0273 93.5377 35.1048 93.5286 35.1777C93.5286 35.2507 93.5286 35.2962 93.5286 35.3145V36.6133C93.5286 36.6497 93.5241 36.7272 93.515 36.8457C93.5058 36.9642 93.4922 37.0417 93.4739 37.0781V39.4297C93.5469 39.4297 93.6745 39.4342 93.8568 39.4434C94.039 39.4434 94.2305 39.4479 94.431 39.457C94.6406 39.457 94.8366 39.4616 95.0189 39.4707C95.2012 39.4707 95.3288 39.4753 95.4017 39.4844C95.4655 39.4935 95.543 39.498 95.6341 39.498C95.7252 39.498 95.8164 39.5026 95.9075 39.5117C96.0078 39.5208 96.1126 39.5299 96.222 39.5391L96.345 39.6484C96.3542 39.7669 96.3633 39.8809 96.3724 39.9902C96.3815 40.0905 96.3861 40.1908 96.3861 40.291C96.3861 40.3822 96.3906 40.4596 96.3997 40.5234V40.6465V40.7695C96.3906 40.8698 96.3861 40.9883 96.3861 41.125C96.3861 41.2617 96.3815 41.3939 96.3724 41.5215C96.3633 41.6764 96.3542 41.8359 96.345 42L96.0989 42.0547H94.9779H93.2962C93.2051 42.0547 93.0456 42.0501 92.8177 42.041C92.5898 42.041 92.3483 42.0365 92.0931 42.0273C91.847 42.0182 91.61 42.0091 91.3821 42C91.1543 42 90.9948 42 90.9036 42ZM99.6115 30.6934C99.6571 30.5931 99.7163 30.5156 99.7893 30.4609H99.9943H100.186C100.195 30.4609 100.222 30.4655 100.268 30.4746C100.322 30.4746 100.373 30.4792 100.418 30.4883C100.473 30.4974 100.523 30.5065 100.569 30.5156C100.614 30.5156 100.646 30.5156 100.664 30.5156C100.719 30.5247 100.81 30.5339 100.938 30.543C101.074 30.543 101.216 30.543 101.362 30.543C101.507 30.543 101.644 30.543 101.772 30.543C101.908 30.5339 102.004 30.5247 102.059 30.5156C102.123 30.5612 102.168 30.6296 102.196 30.7207C102.223 30.8118 102.237 30.8893 102.237 30.9531C102.237 31.2448 102.227 31.5365 102.209 31.8281C102.191 32.1198 102.182 32.4115 102.182 32.7031C102.182 33.6055 102.232 34.485 102.332 35.3418C102.442 36.1986 102.587 37.069 102.77 37.9531C102.779 37.9987 102.793 38.0671 102.811 38.1582C102.838 38.2493 102.861 38.3451 102.879 38.4453C102.906 38.5456 102.929 38.6413 102.947 38.7324C102.975 38.8145 102.993 38.8691 103.002 38.8965C103.057 39.0514 103.153 39.2109 103.289 39.375C103.426 39.5299 103.585 39.6074 103.768 39.6074C103.895 39.6074 104 39.5801 104.082 39.5254C104.164 39.4707 104.255 39.3978 104.356 39.3066C104.574 39.1061 104.738 38.8783 104.848 38.623C104.966 38.3587 105.048 38.0853 105.094 37.8027C105.149 37.5202 105.176 37.2331 105.176 36.9414C105.176 36.6406 105.176 36.3535 105.176 36.0801C105.176 35.6699 105.171 35.2643 105.162 34.8633C105.162 34.4531 105.144 34.043 105.108 33.6328C105.108 33.5781 105.094 33.4414 105.067 33.2227C105.048 33.0039 105.026 32.7715 104.998 32.5254C104.971 32.2702 104.944 32.0332 104.916 31.8145C104.898 31.5866 104.884 31.4453 104.875 31.3906C104.875 31.3724 104.871 31.3086 104.862 31.1992C104.862 31.0807 104.862 30.9941 104.862 30.9395C104.862 30.903 104.862 30.8483 104.862 30.7754C104.871 30.7025 104.875 30.6569 104.875 30.6387L104.998 30.584H107.104C107.113 30.584 107.154 30.5977 107.227 30.625C107.309 30.6523 107.368 30.6751 107.404 30.6934C107.404 30.7025 107.414 30.7161 107.432 30.7344C107.45 30.7435 107.459 30.7526 107.459 30.7617C107.468 30.7982 107.477 30.8757 107.487 30.9941C107.496 31.1035 107.5 31.181 107.5 31.2266C107.509 31.2721 107.514 31.3678 107.514 31.5137C107.523 31.6595 107.532 31.819 107.541 31.9922C107.55 32.1562 107.555 32.3203 107.555 32.4844C107.564 32.6393 107.573 32.7487 107.582 32.8125V33.291C107.582 33.8743 107.564 34.4577 107.528 35.041C107.491 35.6243 107.45 36.2077 107.404 36.791C107.395 36.8457 107.382 36.9779 107.363 37.1875C107.345 37.3971 107.327 37.625 107.309 37.8711C107.291 38.1081 107.272 38.3359 107.254 38.5547C107.236 38.7643 107.227 38.8965 107.227 38.9512C107.163 39.5983 106.967 40.1452 106.639 40.5918C106.311 41.0293 105.86 41.3802 105.285 41.6445C104.994 41.7812 104.702 41.8861 104.41 41.959C104.128 42.0228 103.822 42.0547 103.494 42.0547C103.066 42.0547 102.669 41.9818 102.305 41.8359C101.94 41.6901 101.617 41.4896 101.334 41.2344C101.052 40.9701 100.81 40.6647 100.61 40.3184C100.418 39.972 100.277 39.5938 100.186 39.1836C100.186 39.1654 100.177 39.1107 100.158 39.0195C100.149 38.9284 100.14 38.8281 100.131 38.7188C100.122 38.6094 100.113 38.5091 100.104 38.418C100.095 38.3268 100.09 38.2721 100.09 38.2539C100.081 38.2448 100.072 38.2266 100.063 38.1992C100.063 38.1628 100.058 38.1263 100.049 38.0898C100.04 38.0443 100.031 38.0033 100.022 37.9668C100.022 37.9303 100.022 37.9076 100.022 37.8984C100.022 37.8711 100.017 37.8301 100.008 37.7754C100.008 37.7116 100.003 37.6523 99.9943 37.5977C99.9852 37.5339 99.9761 37.4746 99.967 37.4199C99.967 37.3652 99.967 37.3288 99.967 37.3105C99.9579 37.2467 99.9488 37.0872 99.9397 36.832C99.9305 36.5677 99.9169 36.2897 99.8986 35.998C99.8895 35.7064 99.8758 35.4329 99.8576 35.1777C99.8485 34.9134 99.8439 34.7493 99.8439 34.6855C99.8439 34.6673 99.8394 34.6309 99.8303 34.5762C99.8303 34.5215 99.8257 34.4622 99.8166 34.3984C99.8075 34.3255 99.7984 34.2617 99.7893 34.207C99.7893 34.1432 99.7893 34.1022 99.7893 34.084C99.7893 34.0293 99.7801 33.9108 99.7619 33.7285C99.7528 33.5371 99.7391 33.332 99.7209 33.1133C99.7118 32.8854 99.6981 32.6667 99.6799 32.457C99.6708 32.2474 99.6662 32.0924 99.6662 31.9922C99.6571 31.8372 99.6434 31.6868 99.6252 31.541C99.6161 31.3861 99.6115 31.2311 99.6115 31.0762V30.6934ZM110.671 41.6719C110.671 41.6536 110.676 41.6309 110.685 41.6035C110.694 41.5671 110.698 41.5397 110.698 41.5215C110.835 41.0202 110.985 40.528 111.149 40.0449C111.323 39.5527 111.519 39.0742 111.737 38.6094C111.856 38.3633 111.974 38.1172 112.093 37.8711C112.22 37.625 112.339 37.3789 112.448 37.1328C112.457 37.1055 112.489 37.028 112.544 36.9004C112.599 36.7728 112.653 36.6406 112.708 36.5039C112.763 36.3581 112.813 36.2214 112.858 36.0938C112.913 35.9661 112.95 35.8887 112.968 35.8613C113.059 35.6335 113.168 35.4147 113.296 35.2051C113.424 34.9954 113.547 34.7858 113.665 34.5762C113.793 34.3665 113.911 34.1569 114.021 33.9473C114.139 33.7285 114.239 33.5007 114.321 33.2637C114.33 33.2454 114.326 33.209 114.308 33.1543C114.289 33.0996 114.28 33.0632 114.28 33.0449H110.972V30.5156C110.972 30.4336 111.017 30.388 111.108 30.3789C111.209 30.3607 111.291 30.3516 111.355 30.3516C111.5 30.3516 111.628 30.3607 111.737 30.3789C111.856 30.388 111.993 30.4062 112.148 30.4336H117.589C117.68 30.4336 117.78 30.4564 117.89 30.502C118.008 30.5384 118.067 30.6159 118.067 30.7344V30.8164C118.049 30.862 118.022 30.944 117.985 31.0625C117.949 31.181 117.908 31.3086 117.862 31.4453C117.817 31.5729 117.771 31.696 117.726 31.8145C117.689 31.9238 117.666 32.0013 117.657 32.0469C117.648 32.0742 117.625 32.1243 117.589 32.1973C117.562 32.2702 117.543 32.3158 117.534 32.334C117.507 32.3887 117.457 32.4889 117.384 32.6348C117.311 32.7806 117.233 32.9355 117.151 33.0996C117.069 33.2637 116.992 33.4186 116.919 33.5645C116.846 33.7103 116.796 33.8105 116.769 33.8652C116.769 33.8926 116.76 33.9427 116.741 34.0156C116.732 34.0885 116.723 34.1387 116.714 34.166C116.705 34.1842 116.673 34.2435 116.618 34.3438C116.573 34.4349 116.545 34.4896 116.536 34.5078C116.518 34.5443 116.482 34.6354 116.427 34.7812C116.372 34.918 116.313 35.0684 116.249 35.2324C116.185 35.3965 116.121 35.5514 116.058 35.6973C116.003 35.834 115.971 35.9206 115.962 35.957C115.944 35.9844 115.898 36.0755 115.825 36.2305C115.752 36.3763 115.666 36.5449 115.566 36.7363C115.474 36.9186 115.383 37.1055 115.292 37.2969C115.201 37.4792 115.128 37.625 115.073 37.7344C115.064 37.7526 115.046 37.7891 115.019 37.8438C114.991 37.8893 114.959 37.9395 114.923 37.9941C114.886 38.0488 114.855 38.1035 114.827 38.1582C114.8 38.2129 114.786 38.2448 114.786 38.2539C114.777 38.2721 114.759 38.3177 114.732 38.3906C114.704 38.4635 114.672 38.5456 114.636 38.6367C114.608 38.7188 114.577 38.7962 114.54 38.8691C114.513 38.9421 114.495 38.9876 114.485 39.0059C114.476 39.0332 114.449 39.1061 114.403 39.2246C114.358 39.334 114.33 39.4023 114.321 39.4297V39.4434C114.321 39.4525 114.321 39.4616 114.321 39.4707C114.33 39.4707 114.335 39.4753 114.335 39.4844H117.411C117.42 39.4844 117.461 39.4889 117.534 39.498C117.616 39.5072 117.676 39.5208 117.712 39.5391C117.748 39.5482 117.789 39.5618 117.835 39.5801C117.89 39.5892 117.926 39.612 117.944 39.6484C117.944 39.7031 117.944 39.7943 117.944 39.9219C117.954 40.0404 117.963 40.168 117.972 40.3047C117.981 40.4414 117.985 40.5736 117.985 40.7012C117.995 40.8197 118.004 40.9017 118.013 40.9473V41.3848V41.8223C118.013 41.8861 117.981 41.9316 117.917 41.959C117.862 41.9863 117.812 42 117.767 42C117.685 42 117.534 42 117.316 42C117.106 42.0091 116.883 42.0182 116.646 42.0273C116.418 42.0365 116.194 42.041 115.976 42.041C115.766 42.0501 115.62 42.0547 115.538 42.0547H113.487H111.45C111.386 42.0456 111.309 42.0365 111.218 42.0273C111.127 42.0182 111.04 42.0046 110.958 41.9863C110.876 41.959 110.808 41.9225 110.753 41.877C110.698 41.8223 110.671 41.7539 110.671 41.6719Z" fill="black"/>
</svg>
