<svg width="374" height="400" viewBox="0 0 374 400" fill="none" xmlns="http://www.w3.org/2000/svg">
<g clip-path="url(#clip0_703_8457)">
<path fill-rule="evenodd" clip-rule="evenodd" d="M178.808 224.165C151.194 216.482 133.155 227.395 121.909 259.021C111.777 287.306 79.8201 298.664 48.7542 291.649C18.6904 284.856 1.09749 262.584 0.429403 230.513C-0.238681 197.996 15.4613 175.947 45.6364 166.927C77.8158 157.35 80.8222 152.673 82.4924 116.482C84.608 68.9316 103.648 30.1788 148.633 10.6911C190.611 -7.57174 231.921 -3.34011 267.552 28.063C305.633 61.5819 317.324 109.8 299.063 154.01C279.132 202.228 238.267 226.838 178.808 224.165Z" fill="#D1B068"/>
<path d="M350.06 245.211L357.409 252.449L361.863 258.574L364.981 264.81L367.876 273.273L369.546 281.514L370.66 289.866L371.439 300.445L372.664 310.801L374 313.919L369.769 315.033L367.208 315.589L364.313 311.915L361.195 298.997L359.079 286.636L355.294 274.053L352.733 267.371L349.504 247.884" fill="white"/>
<path d="M271.56 152.227L277.351 171.38L281.693 189.866L283.809 202.115L285.145 218.151L286.258 232.85L286.926 241.648L286.258 250.111L284.254 257.015L282.25 261.469L273.565 262.138L266.661 259.91L267.329 256.347L266.661 249.777L263.432 247.215V242.984L265.993 231.959L265.214 223.942L260.76 210.244L257.419 199.443L256.306 192.984L255.972 187.75L257.419 179.732L256.974 175.835L255.304 169.487" fill="white"/>
<path d="M129.259 164.588L126.698 178.619L125.473 196.659L123.914 211.024L122.021 222.272L118.124 242.427L116.676 255.122L116.454 259.577L117.456 262.472L119.349 265.256L120.685 266.815L124.693 268.374L125.584 268.263L129.704 267.929L135.939 265.479L139.725 258.129L142.064 239.309L140.282 231.96V221.826L137.053 201.336L138.278 189.198L141.395 175.946L143.4 168.151L129.259 164.588Z" fill="white"/>
<path d="M302.07 219.488H307.414L310.421 215.813L314.875 206.125L321.11 201.114L327.568 199.777L334.36 201.114L340.484 204.454L344.382 208.352L349.504 215.924L348.613 228.174L350.06 230.735L357.855 229.399V221.603L355.516 212.695L351.842 205.679L346.831 199.777L342.266 196.325L334.583 193.43L325.787 192.984L318.883 194.432L314.429 196.771L309.419 201.893L306.301 206.236L303.963 211.024L302.07 215.479" fill="white"/>
<path d="M136.051 266.146C136.162 265.812 136.273 265.478 136.496 265.144C132.599 264.921 132.376 262.026 131.931 259.353C131.597 257.126 131.263 254.788 130.929 252.449C129.147 255.01 130.149 264.142 132.599 265.701C133.49 266.258 134.937 265.924 136.051 266.146ZM130.038 268.373C130.038 268.151 130.149 267.817 130.149 267.594C123.691 264.142 127.143 257.683 126.029 252.449C123.803 255.901 124.359 265.033 126.92 267.483C127.7 268.151 129.036 268.151 130.038 268.373Z" fill="white"/>
<path d="M353.512 223.273C353.512 225.166 353.623 226.948 353.401 228.73C353.401 229.287 352.621 229.844 352.176 230.4C351.619 226.28 351.174 222.717 350.728 219.153C350.506 219.153 350.394 219.153 350.172 219.153V230.623C349.058 229.732 348.501 229.287 347.945 228.73C347.499 229.398 347.054 230.066 346.386 231.068C348.613 232.182 350.728 232.85 352.51 234.187C357.966 238.195 359.413 243.986 358.968 250.445C358.968 251.224 358.857 252.338 359.413 252.895C365.538 260.467 368.099 269.487 369.769 278.619C371.55 288.307 371.884 298.329 372.998 308.24C373.221 310.133 374 312.026 374.223 313.919C371.662 312.138 371.105 309.465 370.994 306.681C370.771 300.445 371.216 294.097 370.326 287.973C368.544 276.503 365.872 265.033 359.302 255.233C357.409 252.338 354.069 250.445 350.84 247.55C350.951 257.349 353.512 265.367 356.184 273.496C359.191 282.739 361.418 292.204 363.867 301.67C364.758 305.011 364.87 308.574 365.426 312.138C369.435 310.356 366.651 315.812 370.214 315.144C368.321 316.481 367.542 317.037 366.206 318.151C365.204 315.478 364.09 313.251 363.533 310.801C361.974 303.452 360.193 296.213 359.302 288.752C358.634 283.964 356.964 279.621 355.516 275.055C355.294 274.387 354.96 273.83 354.292 272.383C353.846 279.732 352.399 285.746 354.403 292.538C357.075 301.781 357.966 311.581 359.302 321.269C359.525 323.273 358.3 325.389 357.743 327.505C357.298 329.175 356.184 330.846 356.184 332.405C356.184 342.204 356.63 352.115 356.518 361.915C356.518 365.59 357.521 368.708 359.636 371.492C361.64 374.053 363.756 376.503 365.872 378.953C366.317 379.509 366.874 380.066 367.208 380.623C368.433 382.516 369.657 384.743 367.987 386.525C366.54 387.861 363.867 389.42 362.309 388.864C358.634 387.75 355.182 385.634 351.953 383.63C344.493 378.841 344.604 371.158 344.493 363.585C344.382 357.795 343.602 352.115 343.157 346.325C342.823 342.761 342.489 339.086 342.043 335.523C341.932 334.855 341.932 333.741 341.598 333.63C336.921 332.182 338.369 328.062 337.812 324.944C337.367 322.494 337.589 319.821 337.589 317.26C337.589 315.367 336.81 314.921 335.028 315.478C334.806 319.821 334.583 324.164 334.138 328.507C334.026 329.509 333.581 331.068 332.913 331.291C330.463 332.071 330.686 333.741 330.686 335.746C330.909 346.547 330.909 357.349 331.02 368.04C331.02 368.819 331.02 369.71 331.243 370.489C333.358 376.169 332.245 380.178 326.9 383.296C323.114 385.523 318.994 386.97 314.875 388.53C312.87 389.309 310.643 388.975 309.419 386.97C308.194 384.966 309.084 383.073 310.643 381.737C317.881 375.723 316.099 367.594 315.988 359.91C315.877 351.224 315.543 342.427 315.32 333.741C315.32 333.073 315.32 331.959 314.875 331.848C310.755 329.732 311.2 325.612 311.089 322.271C310.977 315.812 311.311 309.242 312.314 302.895C314.206 290.645 313.316 278.507 310.977 266.369C310.643 264.476 309.641 264.699 308.305 264.921C305.967 265.478 303.628 266.146 301.179 266.481C295.723 267.26 290.824 265.144 285.702 263.919C282.25 263.14 278.575 263.028 275.012 262.694C274.79 262.694 274.455 262.472 273.787 262.138C279.021 259.91 280.357 255.233 282.027 250.779C283.252 254.899 279.911 257.683 278.687 261.358C282.472 261.469 283.029 258.463 283.92 256.124C286.481 248.775 286.815 241.313 286.036 233.518C285.033 223.607 284.588 213.697 283.475 203.786C282.807 197.772 281.693 191.759 280.246 185.857C278.13 176.837 275.569 167.928 273.231 159.019C272.785 157.349 272.117 155.79 271.338 153.674C269.89 155.233 268.554 156.57 267.329 157.906C264.1 161.581 260.76 165.144 257.642 168.819C256.974 169.599 256.529 171.269 256.863 172.16C258.199 175.612 258.867 178.953 257.753 182.85C256.195 188.641 257.085 194.543 258.755 200.222C260.648 206.681 262.875 213.028 265.102 219.376C267.552 226.503 268.109 233.63 265.102 240.757C263.877 243.763 263.321 246.102 266.661 248.886C268.331 250.334 267.886 254.454 268.331 257.349C268.443 257.906 268.22 258.463 268.109 259.131C268.443 259.242 268.665 259.242 268.999 259.354C269.779 256.458 270.558 253.452 271.338 250.556C272.785 254.008 271.56 257.015 270.002 260.467C274.344 257.906 275.346 253.786 276.794 249.554C278.353 255.122 273.787 261.469 268.665 261.581C267.329 261.581 266.104 261.915 264.768 262.026C261.985 262.36 260.203 261.135 260.426 258.351C260.648 255.79 261.873 253.34 262.653 250.89C262.875 250.222 263.209 249.554 263.209 248.774C263.321 246.325 262.43 243.541 263.321 241.425C267.441 231.625 265.102 222.383 261.316 213.251C256.863 202.449 253.968 191.425 256.863 179.509C257.197 178.285 256.417 176.725 256.083 175.389C255.749 174.164 255.304 172.828 254.97 171.937C253.188 171.492 251.629 171.046 249.959 170.712C247.955 177.505 249.625 184.409 250.627 191.425C251.741 199.22 252.743 207.015 253.411 214.81C253.633 216.592 252.409 218.374 252.297 220.155C252.186 227.839 252.52 235.411 252.186 243.095C251.963 251.447 251.295 259.799 250.738 268.04C250.293 274.498 249.848 281.068 248.957 287.527C247.732 296.436 246.062 305.345 244.614 314.253C244.503 315.033 244.058 315.924 243.501 316.258C240.606 317.817 240.829 320.378 240.606 323.051C240.049 334.298 239.604 345.545 238.713 356.792C238.268 361.469 241.051 364.699 242.61 368.485C245.171 374.832 248.066 381.18 250.404 387.527C251.184 389.754 251.295 392.316 250.961 394.654C250.627 397.438 248.623 398.997 245.728 399.554C239.938 400.668 234.593 399.665 230.251 395.768C224.238 390.311 218.225 384.743 212.88 378.73C210.987 376.614 210.431 373.051 210.097 370.044C208.761 358.685 207.758 347.215 206.756 335.746C206.311 330.623 205.977 325.612 205.531 320.489C205.42 319.821 204.975 319.264 204.752 318.708C203.973 317.26 202.636 315.812 202.414 314.253C201.189 305.345 199.964 296.436 199.185 287.527C198.294 277.06 197.848 266.481 197.18 255.901C197.18 255.122 197.069 254.342 196.958 253.34H192.17C191.836 256.904 191.279 260.244 191.168 263.697C190.611 275.946 190.166 288.084 189.831 300.334C189.72 304.008 190.166 307.683 190.5 311.358C190.722 313.585 190.166 315.033 187.939 315.924C187.048 316.258 186.046 317.705 185.934 318.708C185.6 331.848 185.378 344.988 185.378 358.129C185.378 360.69 186.936 363.251 187.159 365.812C187.382 368.374 186.936 371.158 186.38 373.719C184.932 380.512 181.592 382.182 173.575 383.852C163.665 385.968 153.644 387.75 143.622 389.42C140.616 389.866 137.498 390.089 134.492 389.643C131.708 389.198 129.815 387.082 129.147 384.298C128.368 381.069 129.481 378.396 132.154 376.503C137.498 372.717 142.843 369.042 148.188 365.367C148.299 365.256 148.41 365.256 148.522 365.256C155.871 360.69 155.871 360.244 154.423 351.447C153.198 344.32 152.641 337.082 151.639 329.955C151.083 325.946 150.526 321.937 149.635 317.928C149.412 316.926 147.965 316.146 147.074 315.256C146.295 314.476 144.958 313.697 144.847 312.694C143.511 305.233 141.952 297.661 141.284 290.089C140.393 279.398 140.282 268.596 139.948 257.906C139.837 256.013 140.505 254.12 137.61 253.674C136.83 253.563 135.828 251.893 135.717 250.89C135.494 248.218 135.605 245.434 135.605 242.761C135.828 242.761 136.162 242.65 136.385 242.65C136.83 245.991 137.276 249.443 137.61 252.783C138.166 252.783 138.612 252.895 139.168 252.895C139.614 251.558 140.393 250.334 140.505 248.997C141.061 243.986 142.063 239.086 140.171 234.075C139.168 231.403 139.948 228.062 139.948 224.944C139.948 223.162 139.948 221.826 137.721 220.935C136.496 220.489 135.383 217.928 135.494 216.48C136.051 206.904 136.607 197.215 137.832 187.75C138.723 181.291 140.616 174.944 142.175 168.596C138.389 167.483 134.603 166.369 130.261 165.033C129.704 167.817 128.702 170.935 128.368 174.053C127.366 183.852 127.032 193.763 125.807 203.452C124.471 213.474 122.355 223.385 120.796 233.296C119.46 241.425 118.458 249.665 117.456 257.906C117.122 260.913 118.569 263.362 120.907 265.812V251.113C121.019 251.113 121.13 251.002 121.353 251.002C121.576 251.67 121.798 252.338 121.798 253.117C122.021 255.233 122.244 257.46 122.132 259.688C122.021 263.251 122.355 266.592 126.809 268.04C126.029 268.485 125.695 268.819 125.473 268.708C119.794 267.928 116.231 263.808 116.008 258.129C115.563 249.331 117.344 240.868 119.46 232.516C123.246 217.26 124.693 201.67 125.584 186.08C126.029 179.287 127.477 172.605 128.256 165.924C128.368 165.033 127.588 164.031 127.254 163.028C126.698 161.803 125.473 160.578 125.584 159.465C126.92 147.995 129.259 136.859 135.494 126.837C139.725 120.044 145.738 115.701 152.864 112.583C159.211 109.799 165.446 107.015 172.35 103.897C168.341 100.111 166.114 95.8792 165.558 90.9794C165.001 86.7478 164.89 82.5161 164.444 78.2845C164.333 77.2823 163.553 76.3914 163.108 75.3892C162.217 73.4961 160.77 71.7144 160.547 69.8213C160.213 67.3714 161.549 64.5874 160.992 62.2489C159.99 58.24 163.553 56.4582 164.444 53.4515C164.667 52.672 165.558 51.5584 166.226 51.5584C169.9 51.2244 171.348 47.8836 173.797 45.9905C178.808 42.093 184.598 39.9772 190.834 39.0863C198.405 38.0841 205.309 40.1999 211.656 44.3201C212.212 44.6542 212.88 44.7656 213.548 44.8769C214.217 44.9883 215.219 44.7656 215.664 45.0997C217.668 46.9927 220.229 48.7745 221.12 51.2244C223.013 56.0128 224.015 61.2466 225.351 66.2578C225.574 67.0373 225.685 67.9282 225.463 68.7077C224.683 71.9371 223.57 75.1665 222.902 78.5072C222.345 81.2912 222.122 84.1865 221.677 87.0818C221.565 87.9727 221.231 88.8636 220.675 89.5317C218.002 93.3179 218.559 97.5495 222.679 99.6654C228.358 102.449 234.37 104.788 240.272 107.238C243.056 108.351 245.951 109.354 248.957 110.022C254.747 111.469 258.199 115.812 260.76 120.378C265.325 128.507 269.222 137.082 273.231 145.434C274.121 147.215 274.344 148.997 272.897 150.89C272.34 151.67 272.451 153.229 272.785 154.231C275.235 162.917 278.464 171.38 280.357 180.178C283.141 192.427 285.479 204.788 285.813 217.483C286.036 224.832 287.038 232.293 287.483 239.643C287.706 242.65 287.26 245.768 287.038 248.774C286.926 250.334 287.594 251.224 289.153 252.004C294.832 254.454 300.065 254.454 305.855 251.558C311.089 248.997 316.767 247.327 322.223 245.211C323.003 244.877 323.782 243.986 324.005 243.207C324.116 242.65 323.56 241.202 323.003 241.091C316.767 239.198 313.316 234.298 309.196 229.732C310.087 231.848 311.089 233.964 311.98 236.08C311.645 236.302 311.2 236.525 310.866 236.748C310.198 235.746 309.53 234.743 308.862 233.741C308.639 233.852 308.416 233.964 308.305 234.075C308.416 234.855 308.528 235.634 308.639 236.525H303.406C303.406 236.414 303.183 236.97 302.738 237.973C302.404 237.416 302.181 237.193 302.181 236.859C301.624 232.516 300.511 228.062 300.511 223.607C300.511 214.587 304.074 206.904 309.975 200.111C315.32 193.875 322.446 192.093 330.018 192.538C337.812 192.984 345.05 195.656 350.06 202.115C355.516 209.019 358.968 216.926 359.302 225.835C359.302 227.06 358.745 228.396 358.411 229.732C358.189 229.732 357.966 229.621 357.632 229.621C357.298 226.837 356.964 224.164 356.63 221.38C354.737 207.238 346.72 197.438 333.024 194.654C323.003 192.538 313.761 194.988 307.414 205.79C305.076 209.799 302.292 213.697 302.515 218.708C305.967 219.933 308.194 218.485 309.419 214.921C311.98 207.572 316.099 201.558 324.339 199.888C334.138 197.884 342.377 202.227 346.72 210.913C347.499 212.472 348.947 213.697 350.506 214.699C351.731 217.483 352.621 220.378 353.512 223.273ZM244.169 115.256C244.503 115.478 244.726 115.701 245.06 115.924C244.503 116.815 243.835 117.705 243.278 118.708C237.822 127.06 236.375 136.191 238.602 145.656C240.606 154.454 245.617 161.803 250.961 168.93C252.297 170.601 253.299 170.712 254.636 169.264C256.417 167.26 258.31 165.144 260.092 163.14C263.766 159.019 267.663 155.011 271.115 150.668C271.894 149.665 272.229 147.438 271.783 146.325C268.22 138.307 264.88 130.289 260.648 122.717C257.753 117.483 253.856 112.917 247.621 111.024C239.381 108.463 231.364 105.456 223.236 102.672C216.666 111.135 207.758 116.703 196.512 118.04C195.065 118.262 194.285 118.485 194.731 120.267C195.065 121.714 194.842 123.162 194.842 124.721C194.508 124.721 194.285 124.721 193.951 124.721C193.84 123.385 193.951 122.048 193.506 120.823C193.172 119.933 192.058 118.708 191.39 118.708C182.705 118.93 175.579 115.59 169.455 109.799C168.119 108.463 166.783 108.351 165.112 109.242C161.549 110.913 157.875 112.472 154.2 114.031C145.515 117.594 138.946 123.385 134.492 131.848C130.149 140.423 128.59 149.665 126.92 158.908C126.586 161.024 127.477 162.472 129.481 163.14C133.824 164.699 138.166 166.258 142.397 167.705C145.293 163.028 145.738 158.685 144.513 153.897C143.734 150.89 143.066 147.772 142.843 144.654C142.62 141.87 143.066 139.086 143.177 136.191C143.622 136.191 144.068 136.191 144.513 136.191C142.509 142.984 145.515 149.22 146.295 155.679C146.517 157.795 146.74 160.133 146.183 162.249C143.845 171.937 140.616 181.514 138.946 191.425C137.498 200.111 137.61 209.019 137.276 217.928C137.276 218.93 138.612 220.712 139.614 220.824C144.29 221.714 148.967 222.717 153.755 222.828C166.56 223.273 179.365 223.719 192.17 223.607C202.97 223.496 213.66 222.717 224.349 221.603C232.923 220.601 241.274 218.596 249.736 217.037C251.407 216.703 251.963 215.701 251.741 213.919C251.073 209.131 250.627 204.454 249.959 199.665C248.957 191.425 246.841 183.184 247.732 174.832C248.289 170.267 247.621 166.146 244.503 162.472C243.056 160.801 242.165 158.685 241.163 156.681C235.038 145.322 234.37 133.63 239.938 121.937C241.051 119.264 242.721 117.371 244.169 115.256ZM198.294 253.563C198.517 258.908 198.628 264.587 199.073 270.155C199.63 277.728 200.521 285.3 201.3 292.872C202.08 300.222 202.859 307.572 203.861 314.921C203.973 315.812 204.863 317.149 205.643 317.371C209.54 318.596 213.548 320.155 217.668 320.601C225.797 321.492 233.48 318.708 241.051 316.146C241.831 315.924 242.833 314.81 242.944 314.031C244.837 301.67 246.73 289.42 248.177 277.06C249.18 268.819 249.514 260.467 249.959 252.115C250.182 248.44 249.959 244.654 249.959 240.757C237.711 239.309 238.824 229.398 237.711 220.712C221.231 224.61 204.752 225.389 187.159 225.389C188.718 232.516 190.277 239.086 191.724 245.768C191.279 245.434 190.166 244.988 190.054 244.432C188.384 238.307 186.825 232.071 185.266 225.612C176.024 225.389 166.114 225.055 156.093 224.832C155.536 224.832 154.534 226.391 154.423 227.282C154.089 233.741 151.862 238.864 145.293 241.313C144.179 241.759 142.954 243.318 142.843 244.543C142.063 249.888 141.395 255.233 141.173 260.579C140.505 278.173 142.954 295.434 146.295 312.583C146.406 313.251 147.185 314.031 147.742 314.142C149.412 314.587 151.194 314.81 152.975 315.033C157.095 315.59 161.215 315.924 165.335 316.592C172.461 317.594 179.476 316.703 186.491 314.81C188.161 314.365 188.718 313.474 188.607 311.469C188.05 303.897 187.382 296.213 187.605 288.641C187.939 278.062 189.052 267.594 189.831 257.015C189.943 254.788 190.5 252.338 187.048 252.115C186.714 252.115 186.38 251.224 186.38 251.002H201.523C201.634 251.336 201.634 251.67 201.746 252.004C200.855 252.449 199.741 252.895 198.294 253.563ZM183.707 106.792C184.375 104.788 184.709 103.674 185.044 102.561C185.155 102.672 185.378 102.672 185.489 102.783C185.6 103.786 185.712 104.899 185.823 106.347C186.38 105.011 186.714 104.12 187.27 102.783C187.939 104.565 188.273 105.679 188.941 107.572C189.163 105.679 189.386 104.676 189.497 103.674L190.054 103.786C190.388 104.676 190.834 105.567 191.502 107.126C191.947 105.233 192.17 104.231 192.504 102.783C193.061 104.008 193.506 104.899 194.174 106.124C194.508 104.565 194.842 103.452 195.065 102.449C195.287 102.449 195.399 102.449 195.622 102.449C195.844 103.34 196.067 104.231 196.29 105.122C196.512 105.233 196.735 105.233 196.846 105.345C197.292 104.231 197.737 103.117 198.294 101.781C198.739 102.449 199.185 103.006 199.63 103.563C205.42 100.668 209.651 96.436 211.99 90.4226C211.656 99.1086 204.418 101.67 199.185 106.124C198.962 106.347 198.739 106.792 198.517 106.904C196.29 107.238 194.063 107.46 191.947 108.017C190.611 108.351 189.386 109.131 187.605 109.91C187.493 109.688 187.048 108.908 186.714 108.24C185.823 109.242 185.378 109.688 184.821 110.356C184.375 109.465 184.153 108.908 183.707 108.017C183.262 108.908 182.928 109.354 182.928 109.465C180.924 108.685 179.142 107.46 177.472 107.572C175.245 107.683 174.02 107.46 173.463 104.788C171.905 105.679 170.457 106.57 169.009 107.46C186.046 125.946 214.328 114.587 221.788 101.224C218.225 99.7767 217.668 96.6587 217.334 93.3179C216.889 88.1954 216.443 83.1843 215.998 78.3959C217.223 78.2845 218.67 78.6186 219.561 77.9504C221.565 76.6141 221.9 68.819 220.118 66.4805C219.784 66.9259 219.339 67.26 219.339 67.7054C219.004 70.044 218.225 71.9371 216.109 73.4961C214.662 74.4983 214.105 76.6141 212.88 78.7299C210.319 78.9527 211.322 76.2801 210.987 74.721C210.097 70.7121 212.658 66.4805 210.319 62.583C209.985 62.0262 210.097 61.0239 210.431 60.4671C211.99 58.24 210.765 55.9014 210.097 54.1197C209.317 51.8925 209.095 50.2221 210.765 48.3291C211.099 47.8836 210.876 46.1019 210.431 45.8792C205.643 43.9861 200.855 41.6475 195.733 40.868C189.497 39.8658 183.262 42.2043 177.806 45.0997C173.909 47.2155 169.01 50.1108 169.455 55.0106C169.789 58.24 168.453 60.9126 168.007 63.5852C166.783 70.8235 164.667 77.8391 166.114 85.1887C167.005 89.4204 167.673 93.7634 168.898 97.8836C169.9 101.113 172.684 102.783 174.577 102.338C175.802 103.452 176.915 104.454 178.029 105.345C178.474 104.676 178.808 104.008 179.253 103.229C179.699 104.342 179.922 105.233 180.367 106.458C181.035 105.345 181.48 104.565 182.148 103.34C182.705 104.454 183.039 105.233 183.707 106.792ZM319.106 246.77C319.44 250.222 319.774 252.895 319.885 255.456C320.108 260.356 318.215 264.81 314.875 265.701C312.314 266.369 312.202 267.705 312.648 269.71C315.209 280.846 314.986 291.87 313.427 303.117C312.425 310.244 312.536 317.594 312.536 324.721C312.536 328.953 314.206 330.289 318.549 330.4C321.778 330.512 325.118 330.289 328.348 330.512C331.243 330.734 332.133 329.175 332.245 326.725C332.356 323.83 332.356 321.046 332.356 318.151C332.356 313.697 333.136 313.028 337.923 313.474C338.369 319.376 338.926 325.278 339.371 331.18C341.153 331.18 342.266 331.068 343.379 331.18C348.056 331.848 351.731 330.066 355.071 327.171C356.853 325.723 357.632 323.942 357.187 321.492C356.63 318.819 356.63 316.035 356.073 313.362C354.626 305.679 353.067 298.106 351.619 290.423C351.174 287.861 351.062 285.3 351.062 282.739C351.062 277.171 351.396 271.603 351.062 266.035C350.84 261.692 349.392 257.46 349.058 253.117C348.613 246.547 347.388 246.547 343.491 245.879C340.262 248.552 337.589 250.89 334.583 253.452C335.028 260.913 335.474 269.153 335.919 277.282C335.474 277.282 335.028 277.394 334.583 277.394C332.913 269.376 333.581 261.135 332.467 252.895C328.014 253.674 325.341 251.113 322.669 248.44C322.001 247.772 320.665 247.55 319.106 246.77ZM239.27 318.596C227.912 322.605 217.223 324.276 206.311 319.487C207.647 333.63 208.872 347.104 210.208 360.467C210.319 361.469 210.653 362.694 211.322 363.362C213.214 364.921 215.441 366.258 217.334 367.594C223.347 362.583 230.028 361.358 236.597 362.472C237.488 348.218 238.379 333.741 239.27 318.596ZM150.749 316.592C151.639 322.16 152.53 327.394 153.31 332.739C154.423 340.645 155.425 348.44 156.316 356.347C156.539 358.463 157.318 358.797 159.1 358.908C161.883 359.242 164.556 360.022 167.339 360.578C167.785 360.69 168.453 361.024 168.787 360.801C173.575 358.908 178.474 359.242 183.485 360.244V317.705C172.684 319.042 161.883 318.485 150.749 316.592ZM346.831 220.489C347.165 209.799 338.814 201.002 329.35 201.002C317.658 201.113 310.309 210.022 310.421 223.83C310.532 230.623 320.776 240.645 327.791 240.423C340.039 239.977 346.831 232.293 346.831 220.489ZM167.785 363.251C162.551 359.465 158.988 359.576 154.646 362.917C152.085 364.922 149.301 366.592 146.629 368.485C141.952 371.714 137.276 374.944 132.71 378.173C130.483 379.732 130.038 382.293 130.929 384.521C131.597 385.968 133.49 387.639 135.049 387.973C137.832 388.418 140.839 388.195 143.734 387.75C153.644 386.08 163.442 384.187 173.241 382.293C177.138 381.514 181.703 380.734 183.151 376.725C184.821 372.383 184.932 367.483 185.712 362.694C181.926 362.138 178.919 361.358 176.024 361.358C172.461 361.358 168.898 361.469 167.896 366.258C167.562 367.928 166.337 369.599 165.001 370.935C163.776 372.271 162.997 374.498 160.213 374.053C162.885 370.267 165.224 366.815 167.785 363.251ZM210.987 365.924C211.21 368.262 211.21 370.601 211.767 372.717C212.324 374.832 212.992 377.171 214.328 378.73C218.336 383.184 222.679 387.305 227.021 391.536C231.475 395.879 236.486 399.109 243.167 398.329C247.843 397.884 250.516 394.988 249.068 390.534C247.175 384.409 244.948 378.396 242.387 372.494C238.045 362.583 240.049 364.365 229.582 364.253C229.36 364.253 229.137 364.253 229.026 364.253C226.242 365.144 223.347 365.812 220.786 367.037C219.004 367.928 218.114 369.487 219.895 371.492C220.563 372.16 220.786 373.273 221.231 374.053C220.897 374.276 220.675 374.498 220.341 374.721C217.668 371.38 215.887 366.926 210.987 365.924ZM316.211 332.516C316.656 343.986 317.102 355.567 317.436 367.149C317.547 369.71 317.436 372.383 316.879 374.944C316.433 376.948 317.324 377.394 318.66 377.728C322.112 378.507 329.238 372.828 329.238 369.264C329.127 357.46 328.904 345.656 328.682 333.964C328.682 333.63 328.57 333.184 328.459 332.516H316.211ZM343.045 333.741C343.157 334.075 343.491 334.855 343.491 335.634C344.048 344.097 344.938 352.449 345.161 360.913C345.272 366.481 346.943 370.935 351.619 373.83C352.955 374.61 354.96 374.387 356.63 374.61C356.518 373.051 356.741 371.38 356.407 369.821C356.073 368.151 354.848 366.703 354.737 365.033C354.403 359.576 354.292 354.12 354.292 348.552C354.18 342.538 354.292 336.636 354.292 330.846C350.506 331.959 346.831 332.85 343.045 333.741ZM283.363 261.692C288.151 262.806 293.05 264.81 297.95 264.81C302.96 264.921 307.86 263.028 312.87 262.026C312.87 262.806 312.982 263.362 312.982 264.031C313.65 263.919 314.54 264.142 314.875 263.697C315.877 262.583 317.101 261.469 317.547 260.133C318.883 256.236 318.549 252.227 317.213 247.772C311.98 250.222 306.969 252.561 301.958 254.788C296.391 257.238 291.269 253.786 286.481 252.672C285.256 255.901 284.365 258.574 283.363 261.692ZM250.293 218.151C247.509 218.708 245.282 219.153 242.944 219.487C240.94 219.821 239.604 220.601 239.938 223.051C240.495 226.28 240.717 229.732 241.497 232.85C242.387 236.414 246.173 238.641 250.293 238.084V218.151ZM223.458 66.4805C222.902 64.3647 222.345 62.3602 221.788 60.2444C221.12 57.4605 220.452 54.6765 219.784 51.8925C219.673 51.4471 219.004 50.6676 218.67 50.7789C216.666 51.2244 216.332 49.8881 215.775 48.4404C215.107 46.6587 214.328 46.5473 213.103 47.995C212.435 48.8858 211.433 49.4426 210.653 49.9994C213.103 53.897 214.328 57.4605 211.656 61.5807C213.882 63.6965 214.439 66.1464 212.546 69.1531C212.101 69.8213 212.88 71.2689 213.103 72.3825C213.326 72.4939 213.66 72.4939 213.882 72.6052C214.885 71.1576 216.443 69.9326 216.666 68.3736C217 66.1464 217.891 64.476 219.895 64.142C220.897 64.142 222.234 65.5896 223.458 66.4805ZM346.275 371.826C345.829 375.946 348.39 378.285 350.728 380.512C354.069 383.741 357.521 387.193 362.643 387.082C363.867 387.082 365.538 385.968 366.317 384.966C366.762 384.298 366.317 382.516 365.649 381.625C363.645 378.953 361.306 376.391 358.968 373.607C358.077 377.505 355.071 377.171 352.844 376.28C350.617 375.612 348.724 373.607 346.275 371.826ZM324.45 247.55C328.014 253.229 334.472 252.004 338.703 248.663C339.482 247.995 339.816 246.102 339.594 244.877C339.371 243.318 338.48 241.982 337.812 240.423C336.031 240.757 334.138 241.091 332.245 241.425C330.24 241.759 328.236 242.093 326.566 242.427C325.898 244.097 325.23 245.768 324.45 247.55ZM144.068 239.309C150.637 237.973 153.532 232.85 152.419 224.164C149.635 223.83 146.74 223.607 144.068 223.385V239.309ZM315.209 378.173C313.984 379.732 312.536 381.18 311.534 382.962C310.977 383.852 310.977 385.077 310.643 386.191C311.757 386.414 313.093 387.082 313.984 386.748C318.549 384.743 323.003 382.85 327.234 380.289C329.906 378.619 330.575 375.389 329.572 373.385C325.564 377.06 321.889 382.182 315.209 378.173ZM163.999 73.9415C164.667 71.1576 165.558 68.3736 166.114 65.5896C166.449 63.6965 166.226 61.5807 166.449 59.6876C166.671 57.9059 167.117 56.1241 167.451 54.3424C167.005 54.2311 166.671 54.2311 166.226 54.1197C161.549 60.0217 160.992 66.7032 163.999 73.9415ZM355.739 249.554C356.073 249.443 356.407 249.331 356.741 249.22C357.298 242.872 354.737 237.416 350.394 235.077C348.724 234.187 347.611 234.298 346.943 236.08C348.836 239.754 350.728 243.429 352.621 247.104C352.955 246.993 353.289 246.881 353.735 246.659C352.733 243.652 351.842 240.534 350.617 236.748C354.18 239.866 355.516 242.984 355.294 246.881C355.294 247.884 355.628 248.775 355.739 249.554ZM265.77 250.111C262.875 252.115 261.094 256.458 261.985 259.131C262.653 261.024 263.877 261.135 265.102 259.799C267.552 256.792 266.55 253.563 265.77 250.111ZM142.063 224.944C141.729 224.944 141.395 224.944 140.95 224.944C141.284 228.507 140.171 232.293 142.063 236.525V224.944Z" fill="black"/>
<path d="M353.512 223.386C353.066 220.713 352.621 218.152 352.287 215.48C352.176 214.366 352.064 213.252 351.953 211.471C355.739 215.925 357.52 228.397 354.959 230.29C354.403 227.952 353.957 225.613 353.512 223.386C353.512 223.275 353.512 223.386 353.512 223.386Z" fill="black"/>
<path d="M136.051 266.146C134.826 266.035 133.49 266.258 132.599 265.701C130.261 264.142 129.259 255.122 130.929 252.449C131.263 254.788 131.597 257.126 131.931 259.353C132.265 262.026 132.488 264.921 136.496 265.144C136.385 265.367 136.273 265.812 136.051 266.146Z" fill="black"/>
<path d="M130.038 268.373C129.036 268.039 127.7 268.039 126.92 267.371C124.359 265.033 123.803 255.79 126.029 252.338C127.143 257.572 123.691 264.03 130.149 267.483C130.149 267.928 130.038 268.151 130.038 268.373Z" fill="black"/>
<path d="M244.169 115.255C242.721 117.371 241.051 119.376 240.049 121.603C234.37 133.407 235.038 144.988 241.274 156.347C242.387 158.351 243.167 160.467 244.614 162.137C247.843 165.812 248.4 169.933 247.843 174.498C246.841 182.961 249.068 191.091 250.07 199.331C250.627 204.12 251.184 208.797 251.852 213.585C252.074 215.367 251.518 216.369 249.848 216.703C241.385 218.262 232.923 220.378 224.46 221.269C213.771 222.494 202.97 223.162 192.281 223.273C179.476 223.496 166.671 223.051 153.866 222.494C149.078 222.271 144.402 221.38 139.725 220.489C138.723 220.267 137.387 218.485 137.387 217.594C137.721 208.797 137.609 199.777 139.057 191.091C140.727 181.291 143.956 171.714 146.294 161.915C146.74 159.799 146.629 157.572 146.406 155.345C145.626 148.886 142.62 142.65 144.624 135.857C144.179 135.857 143.733 135.857 143.288 135.857C143.177 138.641 142.731 141.536 142.954 144.32C143.177 147.438 143.845 150.556 144.624 153.563C145.849 158.24 145.404 162.583 142.509 167.371C138.277 165.924 133.935 164.365 129.592 162.806C127.588 162.137 126.697 160.69 127.031 158.574C128.702 149.331 130.149 140.088 134.603 131.514C138.946 123.051 145.515 117.26 154.311 113.696C157.986 112.137 161.66 110.69 165.224 108.908C166.894 108.129 168.23 108.129 169.566 109.465C175.69 115.367 182.816 118.708 191.502 118.374C192.17 118.374 193.283 119.598 193.617 120.489C194.062 121.714 193.951 123.051 194.062 124.387C194.397 124.387 194.619 124.387 194.953 124.387C194.953 122.939 195.176 121.38 194.842 119.933C194.508 118.151 195.176 117.817 196.623 117.705C207.981 116.369 216.777 110.801 223.347 102.338C231.475 105.122 239.492 108.129 247.732 110.69C253.967 112.694 257.976 117.149 260.76 122.382C264.991 129.955 268.331 138.084 271.894 145.99C272.451 147.215 272.117 149.331 271.226 150.333C267.663 154.676 263.877 158.685 260.203 162.806C258.421 164.81 256.528 166.926 254.747 168.93C253.411 170.378 252.409 170.378 251.072 168.596C245.728 161.469 240.828 154.008 238.713 145.322C236.486 135.857 237.933 126.725 243.389 118.374C243.946 117.483 244.614 116.592 245.171 115.59C244.726 115.701 244.392 115.478 244.169 115.255Z" fill="white"/>
<path d="M198.294 253.564C199.741 252.896 200.744 252.45 201.746 252.005C201.634 251.671 201.634 251.337 201.523 251.002H186.38C186.491 251.114 186.714 252.116 187.048 252.116C190.5 252.339 190.054 254.789 189.832 257.016C189.052 267.595 187.939 278.063 187.605 288.642C187.382 296.214 188.05 303.898 188.607 311.47C188.718 313.475 188.161 314.366 186.491 314.811C179.588 316.593 172.573 317.595 165.335 316.593C161.215 316.036 157.095 315.59 152.976 315.034C151.194 314.811 149.412 314.588 147.742 314.143C147.186 314.031 146.406 313.141 146.295 312.584C142.954 295.435 140.505 278.174 141.173 260.579C141.395 255.234 142.064 249.889 142.843 244.544C143.066 243.319 144.179 241.76 145.293 241.314C151.862 238.864 154.089 233.742 154.423 227.283C154.423 226.392 155.537 224.833 156.093 224.833C166.003 224.945 176.025 225.279 185.266 225.613C186.825 232.071 188.384 238.308 190.054 244.432C190.277 245.1 191.279 245.435 191.724 245.769C190.166 239.087 188.718 232.517 187.159 225.39C204.641 225.39 221.232 224.499 237.711 220.713C238.824 229.51 237.711 239.31 249.959 240.757C249.959 244.544 250.182 248.33 249.959 252.116C249.514 260.468 249.18 268.82 248.178 277.06C246.73 289.421 244.726 301.782 242.944 314.031C242.833 314.811 241.831 315.925 241.051 316.147C233.48 318.708 225.797 321.492 217.668 320.602C213.549 320.156 209.651 318.597 205.643 317.372C204.863 317.149 204.084 315.813 203.861 314.922C202.859 307.573 202.08 300.223 201.3 292.873C200.521 285.301 199.63 277.729 199.073 270.156C198.628 264.477 198.517 258.909 198.294 253.564Z" fill="white"/>
<path d="M183.707 106.793C183.151 105.234 182.817 104.455 182.26 103.118C181.592 104.343 181.146 105.011 180.478 106.236C180.033 105.011 179.81 104.232 179.365 103.007C178.919 103.786 178.474 104.455 178.14 105.123C177.027 104.12 175.913 103.23 174.688 102.116C172.907 102.561 170.012 100.891 169.01 97.6616C167.785 93.5414 167.117 89.1984 166.226 84.9668C164.778 77.5058 166.894 70.4902 168.119 63.3632C168.564 60.6906 169.789 58.018 169.566 54.7886C169.121 49.8888 173.909 46.8821 177.917 44.8777C183.485 41.9824 189.609 39.6438 195.844 40.6461C200.855 41.4256 205.643 43.8755 210.542 45.6572C210.876 45.7686 211.21 47.6617 210.876 48.1071C209.206 50.0002 209.429 51.5592 210.208 53.8977C210.765 55.7908 212.101 58.018 210.542 60.2452C210.208 60.6906 210.097 61.8042 210.431 62.361C212.658 66.3699 210.208 70.6015 211.099 74.4991C211.433 76.0581 210.431 78.7307 212.992 78.508C214.217 76.5035 214.773 74.2764 216.221 73.2741C218.336 71.7151 219.227 69.9334 219.45 67.4835C219.45 67.038 219.895 66.704 220.229 66.2585C222.011 68.7084 221.677 76.3922 219.673 77.7285C218.782 78.2853 217.334 78.0625 216.109 78.1739C216.555 82.851 217 87.9734 217.446 93.0959C217.668 96.4367 218.336 99.5547 221.9 101.002C214.439 114.477 186.268 125.724 169.121 107.238C170.568 106.348 172.016 105.568 173.575 104.566C174.02 107.127 175.356 107.461 177.583 107.35C179.254 107.238 181.035 108.575 183.039 109.243C183.039 109.243 183.373 108.686 183.819 107.795C184.264 108.686 184.598 109.243 184.932 110.134C185.489 109.466 185.934 109.02 186.825 108.018C187.271 108.798 187.605 109.466 187.716 109.688C189.386 108.909 190.611 108.018 192.058 107.795C194.174 107.238 196.401 107.127 198.628 106.682C198.851 106.682 199.073 106.125 199.296 105.902C204.529 101.559 211.878 98.8866 212.101 90.2006C209.651 96.214 205.531 100.334 199.741 103.341C199.296 102.784 198.962 102.227 198.405 101.559C197.849 102.895 197.403 104.009 196.958 105.123C196.735 105.011 196.512 105.011 196.401 104.9C196.178 104.009 195.956 103.118 195.733 102.227C195.51 102.227 195.399 102.227 195.176 102.227C194.953 103.23 194.731 104.232 194.285 105.902C193.617 104.566 193.283 103.786 192.615 102.561C192.281 104.009 192.058 105.011 191.613 106.904C190.945 105.345 190.5 104.455 190.166 103.564L189.609 103.452C189.497 104.455 189.275 105.568 189.052 107.35C188.384 105.457 187.939 104.343 187.382 102.561C186.825 103.898 186.491 104.789 185.934 106.125C185.823 104.566 185.712 103.564 185.6 102.561C185.489 102.45 185.266 102.45 185.155 102.339C184.71 103.675 184.264 104.789 183.707 106.793ZM185.155 69.3766C184.821 69.2652 184.487 69.0425 184.041 68.9311C182.705 71.7151 181.258 74.4991 179.922 77.283C179.365 78.508 178.808 79.7329 178.585 80.9579C178.474 81.626 178.919 82.9623 179.254 82.9623C181.815 83.4077 184.376 83.6305 187.048 83.8532C188.05 83.9645 189.052 83.4078 190.054 83.4078C192.949 83.5191 194.953 81.5147 193.951 79.0648C192.727 81.1806 187.048 82.851 184.041 82.1828C182.817 81.8487 181.592 81.8487 179.922 81.626C181.592 77.6171 183.373 73.4968 185.155 69.3766ZM193.283 62.6951C193.506 63.0291 193.84 63.2519 194.063 63.5859C197.96 63.0291 201.857 62.4723 206.2 61.8042C203.527 59.4657 200.075 58.7975 196.735 60.1338C195.399 60.5792 194.397 61.8042 193.283 62.6951ZM170.234 63.8086C170.568 64.0314 170.902 64.4768 171.125 64.4768C174.243 64.0314 177.361 63.4746 180.59 62.9178C180.924 62.8064 181.48 62.2496 181.48 61.9155C181.48 61.4701 181.146 60.802 180.701 60.5792C177.472 58.6862 172.35 60.3565 170.234 63.8086ZM179.588 90.6461C183.707 95.3231 193.617 94.2095 196.178 88.4189C190.611 92.2051 185.266 92.8732 179.588 90.6461ZM174.8 67.9289C173.575 69.4879 172.35 70.3788 172.461 70.9356C172.684 71.8265 173.798 72.606 174.688 73.1628C174.911 73.2741 176.358 72.0492 176.358 71.4924C176.47 70.4902 175.69 69.5993 174.8 67.9289Z" fill="white"/>
<path d="M319.106 246.77C320.665 247.438 322.001 247.772 322.891 248.551C325.675 251.224 328.347 253.785 332.69 253.006C333.915 261.246 333.135 269.487 334.806 277.505C335.251 277.505 335.696 277.393 336.142 277.393C335.696 269.264 335.251 261.135 334.806 253.563C337.812 251.001 340.484 248.663 343.713 245.99C347.611 246.658 348.835 246.658 349.281 253.229C349.503 257.572 350.951 261.803 351.285 266.146C351.619 271.714 351.174 277.282 351.285 282.85C351.285 285.411 351.396 287.972 351.842 290.534C353.178 298.217 354.848 305.79 356.296 313.474C356.852 316.146 356.852 318.93 357.409 321.603C357.855 324.053 357.075 325.834 355.294 327.282C351.953 330.177 348.167 331.959 343.602 331.291C342.489 331.068 341.375 331.291 339.594 331.291C339.148 325.389 338.591 319.487 338.146 313.585C333.247 313.251 332.579 313.919 332.579 318.262C332.579 321.157 332.579 323.941 332.467 326.837C332.356 329.286 331.465 330.845 328.57 330.623C325.341 330.4 322.001 330.623 318.772 330.511C314.429 330.4 312.759 329.064 312.759 324.832C312.759 317.594 312.648 310.355 313.65 303.229C315.209 291.981 315.431 280.957 312.87 269.821C312.425 267.817 312.536 266.48 315.097 265.812C318.438 264.921 320.331 260.578 320.108 255.567C319.774 252.894 319.44 250.333 319.106 246.77ZM339.594 260.133C338.703 259.353 338.146 258.462 337.701 258.462C337.144 258.574 336.365 259.353 336.365 259.91C336.365 260.467 337.033 261.358 337.589 261.58C337.923 261.692 338.591 260.912 339.594 260.133Z" fill="white"/>
<path d="M239.27 318.598C238.379 333.742 237.488 348.108 236.597 362.473C230.028 361.471 223.347 362.584 217.334 367.595C215.33 366.259 213.214 364.923 211.321 363.364C210.653 362.807 210.319 361.471 210.208 360.468C208.872 346.994 207.647 333.631 206.311 319.489C217.223 324.277 228.024 322.607 239.27 318.598Z" fill="white"/>
<path d="M150.749 316.592C161.883 318.485 172.684 319.042 183.485 317.705V360.244C178.474 359.242 173.575 358.908 168.787 360.801C168.341 360.912 167.785 360.578 167.339 360.578C164.556 360.022 161.883 359.242 159.1 358.908C157.318 358.685 156.539 358.351 156.316 356.347C155.425 348.44 154.423 340.645 153.31 332.739C152.641 327.394 151.639 322.048 150.749 316.592Z" fill="white"/>
<path d="M329.35 201.114C317.658 201.114 310.309 210.134 310.421 223.943C310.532 230.736 320.887 240.758 327.791 240.535C340.039 240.09 346.831 232.406 346.831 220.602C347.054 209.8 338.814 201.003 329.35 201.114ZM327.457 223.052C328.348 222.384 329.795 222.384 331.02 222.161C331.131 222.384 331.131 222.718 331.243 223.052C329.906 223.943 328.57 224.722 326.455 226.17C326.789 224.834 326.789 223.497 327.457 223.052ZM315.543 214.811C315.32 214.477 315.097 214.143 314.875 213.809C316.211 213.141 317.436 212.027 318.772 211.805C320.665 211.582 322.892 211.248 323.894 214.255C322.446 213.921 320.999 213.252 319.662 213.364C318.215 213.475 316.879 214.366 315.543 214.811ZM323.448 229.733H334.36C333.135 232.74 326.566 233.074 323.448 229.733ZM334.583 214.255C335.362 212.473 336.921 212.139 338.703 212.362C340.373 212.584 341.821 212.807 342.155 214.811C339.482 214.589 337.144 214.477 334.583 214.255Z" fill="white"/>
<path d="M167.785 363.251C165.224 366.815 162.885 370.267 160.324 373.83C162.997 374.387 163.776 372.048 165.112 370.712C166.337 369.376 167.562 367.705 168.007 366.035C169.01 361.247 172.684 361.135 176.136 361.135C179.142 361.135 182.037 361.915 185.823 362.472C185.044 367.26 184.821 372.16 183.262 376.503C181.814 380.512 177.249 381.291 173.352 382.071C163.554 384.075 153.755 385.857 143.845 387.527C141.061 387.973 137.944 388.195 135.16 387.75C133.601 387.527 131.708 385.857 131.04 384.298C130.149 382.182 130.595 379.621 132.822 377.95C137.387 374.61 142.063 371.492 146.74 368.262C149.412 366.369 152.196 364.699 154.757 362.694C158.988 359.576 162.551 359.465 167.785 363.251ZM135.605 380.066C137.276 382.627 139.614 382.962 141.952 382.85C146.851 382.516 155.648 377.95 156.65 374.832C153.866 376.28 151.639 377.839 149.078 378.73C145.181 380.066 141.284 383.184 136.942 379.732C136.942 379.621 136.385 379.843 135.605 380.066Z" fill="white"/>
<path d="M210.987 365.925C215.887 366.927 217.668 371.27 220.341 374.722C220.675 374.5 220.897 374.277 221.231 374.054C220.786 373.163 220.563 372.161 219.895 371.493C218.114 369.488 218.893 367.929 220.786 367.039C223.458 365.814 226.242 365.145 229.026 364.255C229.248 364.143 229.471 364.255 229.582 364.255C240.16 364.366 238.045 362.584 242.387 372.495C244.948 378.397 247.175 384.411 249.068 390.535C250.516 394.99 247.843 397.774 243.167 398.33C236.486 398.999 231.475 395.769 227.021 391.537C222.679 387.417 218.336 383.186 214.328 378.731C212.992 377.172 212.212 374.834 211.767 372.718C211.21 370.602 211.21 368.263 210.987 365.925ZM245.839 389.978C245.728 389.756 245.728 389.422 245.616 389.199C234.704 393.431 229.916 385.079 224.238 378.843C224.015 379.177 223.904 379.399 223.904 379.511C223.904 379.845 224.126 380.29 224.238 380.624C226.131 385.079 229.916 387.64 233.591 390.424C236.597 392.651 239.938 392.762 243.389 391.872C244.28 391.649 245.06 390.647 245.839 389.978Z" fill="white"/>
<path d="M316.211 332.518H328.348C328.459 333.186 328.57 333.52 328.57 333.965C328.793 345.769 329.016 357.573 329.127 369.266C329.127 372.829 322.001 378.509 318.549 377.729C317.213 377.395 316.322 376.95 316.767 374.945C317.324 372.495 317.436 369.711 317.324 367.15C317.102 355.569 316.545 343.988 316.211 332.518Z" fill="white"/>
<path d="M343.045 333.741C346.831 332.85 350.506 331.959 354.403 331.068C354.403 336.748 354.403 342.761 354.403 348.774C354.514 354.231 354.514 359.799 354.848 365.256C354.96 366.815 356.184 368.374 356.518 370.044C356.852 371.603 356.741 373.273 356.741 374.832C355.071 374.61 353.067 374.832 351.73 374.053C347.054 371.158 345.384 366.592 345.272 361.135C345.05 352.672 344.159 344.32 343.602 335.857C343.491 334.855 343.157 334.075 343.045 333.741Z" fill="white"/>
<path d="M283.363 261.693C284.477 258.575 285.368 255.903 286.481 252.673C291.269 253.787 296.391 257.239 301.958 254.789C306.969 252.562 311.98 250.223 317.213 247.773C318.549 252.116 318.883 256.125 317.547 260.134C317.102 261.471 315.877 262.584 314.875 263.698C314.541 264.032 313.65 263.921 312.982 264.032C312.982 263.475 312.87 262.807 312.87 262.027C307.86 263.03 302.849 264.811 297.95 264.811C293.051 264.811 288.151 262.807 283.363 261.693Z" fill="white"/>
<path d="M250.293 218.15V238.195C246.173 238.752 242.387 236.525 241.496 232.961C240.717 229.732 240.494 226.391 239.938 223.05C239.492 220.6 240.828 219.821 242.944 219.487C245.282 219.153 247.621 218.707 250.293 218.15Z" fill="white"/>
<path d="M223.458 66.4812C222.234 65.5903 220.897 64.1427 219.895 64.254C218.002 64.5881 217 66.1471 216.666 68.4856C216.443 70.0447 214.885 71.2696 213.883 72.7173C213.66 72.6059 213.326 72.6059 213.103 72.4945C212.88 71.381 212.101 69.9333 212.546 69.2651C214.328 66.2585 213.883 63.8086 211.656 61.6928C214.217 57.5725 213.103 54.009 210.653 50.1115C211.433 49.4433 212.435 48.8865 213.103 48.107C214.328 46.548 215.107 46.7707 215.775 48.5525C216.221 49.8888 216.666 51.2251 218.67 50.891C219.004 50.7796 219.673 51.5591 219.784 52.0046C220.563 54.7885 221.12 57.5725 221.788 60.3565C222.345 62.3609 222.902 64.4767 223.458 66.4812Z" fill="white"/>
<path d="M346.275 371.826C348.613 373.497 350.506 375.501 352.844 376.392C355.071 377.171 358.077 377.617 358.968 373.719C361.306 376.503 363.645 379.064 365.649 381.737C366.317 382.628 366.762 384.41 366.317 385.078C365.538 386.191 363.867 387.194 362.643 387.194C357.521 387.194 354.069 383.853 350.728 380.624C348.501 378.396 345.941 375.946 346.275 371.826Z" fill="white"/>
<path d="M324.451 247.551C325.23 245.769 325.898 244.21 326.566 242.428C328.236 242.094 330.241 241.871 332.245 241.426C334.138 241.092 336.031 240.758 337.812 240.424C338.48 241.871 339.371 243.319 339.594 244.878C339.816 246.103 339.482 247.996 338.703 248.664C334.472 252.005 328.014 253.119 324.451 247.551Z" fill="white"/>
<path d="M144.068 239.309V223.273C146.74 223.496 149.524 223.83 152.419 224.053C153.532 232.85 150.637 237.973 144.068 239.309Z" fill="white"/>
<path d="M315.209 378.173C321.889 382.182 325.564 377.06 329.572 373.273C330.574 375.278 329.906 378.507 327.234 380.178C323.003 382.739 318.438 384.632 313.984 386.636C313.093 386.971 311.757 386.302 310.643 386.08C310.866 384.966 310.977 383.741 311.534 382.85C312.648 381.18 313.984 379.732 315.209 378.173Z" fill="white"/>
<path d="M163.999 73.9429C161.104 66.7046 161.549 60.0231 166.114 54.0098C166.56 54.1211 166.894 54.1211 167.339 54.2325C167.005 56.0142 166.56 57.796 166.337 59.5777C166.114 61.5821 166.448 63.5866 166.003 65.4797C165.558 68.375 164.667 71.159 163.999 73.9429Z" fill="white"/>
<path d="M355.739 249.555C355.628 248.664 355.294 247.884 355.294 247.105C355.405 243.207 354.18 240.089 350.617 236.971C351.842 240.757 352.733 243.764 353.735 246.882C353.401 246.994 353.067 247.105 352.621 247.328C350.728 243.653 348.836 239.978 346.943 236.303C347.611 234.521 348.724 234.299 350.394 235.301C354.737 237.528 357.187 243.096 356.741 249.443C356.407 249.332 356.073 249.443 355.739 249.555Z" fill="white"/>
<path d="M265.77 250.111C266.661 253.563 267.663 256.793 265.102 259.799C263.877 261.247 262.541 261.024 261.985 259.131C260.982 256.459 262.764 252.116 265.77 250.111Z" fill="white"/>
<path d="M142.064 224.943V236.636C140.171 232.293 141.284 228.618 140.95 225.055C141.284 224.943 141.618 224.943 142.064 224.943Z" fill="white"/>
<path d="M185.155 69.3771C183.373 73.4973 181.592 77.6176 179.81 81.6265C181.48 81.8492 182.705 81.8492 183.93 82.1833C187.048 82.8514 192.615 81.1811 193.84 79.0653C194.842 81.5151 192.838 83.5196 189.943 83.4082C188.941 83.4082 187.939 83.8537 186.936 83.8537C184.375 83.7423 181.703 83.4082 179.142 82.9628C178.808 82.8514 178.363 81.6265 178.474 80.9583C178.697 79.7334 179.253 78.5085 179.81 77.2835C181.146 74.4996 182.594 71.7156 183.93 68.9316C184.375 69.043 184.821 69.1544 185.155 69.3771Z" fill="black"/>
<path d="M193.283 62.6945C194.397 61.8036 195.399 60.69 196.735 60.1332C200.187 58.7969 203.527 59.3537 206.199 61.8036C201.857 62.4718 197.96 63.0286 194.063 63.5853C193.729 63.2513 193.506 63.0286 193.283 62.6945Z" fill="black"/>
<path d="M170.234 63.8083C172.35 60.2449 177.583 58.6859 180.701 60.5789C181.146 60.8017 181.48 61.4698 181.48 61.9152C181.48 62.2493 180.924 62.8061 180.59 62.9175C177.472 63.4743 174.354 64.0311 171.125 64.4765C170.902 64.5879 170.457 64.1424 170.234 63.8083Z" fill="black"/>
<path d="M179.588 90.6451C185.266 92.9837 190.611 92.3155 196.178 88.418C193.617 94.2086 183.707 95.3222 179.588 90.6451Z" fill="black"/>
<path d="M339.594 260.133C338.591 260.913 337.923 261.692 337.478 261.581C336.921 261.47 336.253 260.467 336.253 259.911C336.253 259.354 337.033 258.574 337.589 258.463C338.146 258.463 338.703 259.354 339.594 260.133Z" fill="black"/>
<path d="M323.448 229.732H334.36C333.135 232.739 326.566 233.073 323.448 229.732Z" fill="black"/>
<path d="M314.875 213.808C316.211 213.14 317.436 212.026 318.772 211.804C320.665 211.581 322.892 211.247 323.894 214.254C322.446 213.919 320.999 213.251 319.662 213.363C318.326 213.474 316.879 214.254 315.543 214.699C315.32 214.476 315.097 214.142 314.875 213.808Z" fill="black"/>
<path d="M342.266 214.81C339.482 214.587 337.144 214.364 334.583 214.142C335.362 212.36 336.921 212.026 338.703 212.248C340.484 212.583 341.932 212.805 342.266 214.81Z" fill="black"/>
<path d="M326.343 226.058C326.789 224.833 326.789 223.385 327.457 222.94C328.348 222.272 329.795 222.272 331.02 222.049C331.131 222.272 331.131 222.606 331.243 222.828C329.906 223.831 328.57 224.721 326.343 226.058Z" fill="black"/>
<path d="M135.605 380.066C136.385 379.843 136.83 379.509 137.053 379.732C141.395 383.073 145.292 380.066 149.189 378.73C151.639 377.839 153.977 376.28 156.761 374.832C155.648 377.95 146.963 382.516 142.063 382.85C139.614 382.961 137.387 382.627 135.605 380.066Z" fill="black"/>
<path d="M245.839 389.978C244.948 390.646 244.169 391.537 243.278 391.759C239.827 392.65 236.486 392.539 233.48 390.312C229.805 387.528 226.019 384.967 224.127 380.512C224.015 380.178 223.904 379.733 223.792 379.399C223.792 379.287 224.015 379.065 224.127 378.73C229.917 384.967 234.593 393.318 245.505 389.087C245.728 389.532 245.839 389.755 245.839 389.978Z" fill="black"/>
<path d="M370.437 311.471L372.33 314.589" stroke="black" stroke-width="0.5" stroke-miterlimit="10"/>
<path d="M368.544 311.471L370.437 314.589" stroke="black" stroke-width="0.5" stroke-miterlimit="10"/>
<path d="M176.247 70.2678C176.247 71.27 175.356 72.1609 174.243 72.0495C173.241 72.0495 172.35 71.1587 172.461 70.0451C172.461 69.0429 173.352 68.152 174.465 68.2633C175.468 68.3747 176.358 69.2656 176.247 70.2678Z" fill="black"/>
<path d="M202.859 70.1568C202.859 71.159 201.968 72.0499 200.966 72.0499C199.964 72.0499 199.073 71.159 199.073 70.1568C199.073 69.1545 199.964 68.2637 200.966 68.2637C201.968 68.2637 202.859 69.1545 202.859 70.1568Z" fill="black"/>
<path d="M323.003 218.932C323.003 219.934 322.112 220.825 320.999 220.714C319.997 220.714 319.106 219.823 319.217 218.709C319.217 217.707 320.108 216.816 321.221 216.927C322.223 217.039 323.114 217.93 323.003 218.932Z" fill="black"/>
<path d="M339.816 218.819C339.816 219.821 338.925 220.712 337.923 220.712C336.921 220.712 336.03 219.821 336.03 218.819C336.03 217.817 336.921 216.926 337.923 216.926C338.925 217.037 339.816 217.817 339.816 218.819Z" fill="black"/>
</g>
<defs>
<clipPath id="clip0_703_8457">
<rect width="373.57" height="400" fill="white" transform="translate(0.429565)"/>
</clipPath>
</defs>
</svg>
