<svg width="74" height="156" viewBox="0 0 74 156" fill="none" xmlns="http://www.w3.org/2000/svg">
<path d="M32.9712 89.8688C31.6292 89.7347 30.4214 89.6676 29.1465 89.5335C29.1465 92.7526 29.2136 95.8377 29.0794 98.9898C29.0794 99.5263 28.5426 100.063 28.2071 100.599C28.0058 101.002 27.5361 101.471 27.5361 101.941C27.2677 110.525 27.1335 119.11 26.8651 127.694C26.6638 134.468 26.3283 141.309 25.9928 148.082C25.9928 148.686 25.5902 149.357 25.1876 149.826C22.9062 152.576 19.8867 154.319 16.5988 155.661C15.3239 156.197 13.9148 156.197 12.9083 154.923C11.9018 153.582 12.707 152.375 13.378 151.167C13.5122 150.899 13.7806 150.631 14.049 150.564C18.6789 148.351 18.746 144.192 18.6789 139.967C18.5447 132.858 18.4776 125.682 18.4105 118.573C18.3434 113.141 18.2763 107.641 18.1421 102.209C18.1421 101.74 17.9408 101.069 17.6724 100.935C15.7265 100.063 16.062 98.3192 15.9949 96.7096C15.9278 94.4964 15.8607 92.2832 15.6594 90.07C15.391 87.052 15.0555 84.034 14.72 81.016C13.7135 81.7538 12.9083 82.5586 11.9018 83.0951C11.0966 83.5646 10.2914 83.3634 9.82169 82.3574C9.41909 81.5526 8.6139 80.8819 8.07709 80.0771C7.40609 79.0711 7.40609 78.4675 8.81519 77.931C10.0901 77.4615 11.1637 76.4555 12.707 75.3825C11.5663 74.7789 10.9624 74.5777 10.4256 74.2424C8.2784 72.834 5.99699 71.6268 4.05108 70.0172C0.897378 67.3345 0.0921715 62.4387 1.97098 58.3477C2.57488 56.9393 3.44718 55.665 4.25238 54.3237C4.45368 53.9883 4.78919 53.5859 4.72209 53.3847C3.64848 51.574 5.05759 50.9033 6.19829 50.2326C10.0901 47.8182 13.9819 45.4709 18.0079 43.1907C18.8131 42.7212 19.8867 42.7212 20.9603 42.4529C21.3629 41.4469 21.0945 40.7763 19.8867 40.1727C18.6118 39.5691 17.2698 38.7643 16.2633 37.7583C13.378 35.0757 10.4927 32.4601 8.94939 28.7044C6.93638 23.8085 7.67449 19.1139 9.5533 14.4192C10.3585 12.4743 11.2308 10.5965 12.2373 8.78568C12.707 7.91382 13.378 7.04196 14.1832 6.37129C15.3239 5.3653 16.1291 5.70063 16.6659 6.97489C18.4105 5.23117 20.1551 3.28625 22.101 1.60959C22.9733 0.871862 24.2482 0.268267 25.0534 1.87786C25.9257 1.54253 26.6638 1.14013 27.469 0.871863C29.8846 0.134135 31.2937 1.20719 31.2937 3.75571C31.2937 4.82877 31.0925 5.90183 32.5687 6.1701C33.7094 4.29224 34.2462 4.29224 35.454 6.1701C35.6553 6.50543 36.0579 6.70663 36.3263 6.97489C36.7289 7.37729 37.3999 7.77969 37.5341 8.24915C38.4735 11.2671 39.6142 14.2851 40.151 17.4372C41.2246 23.8085 39.7484 29.5762 34.9843 34.2709C34.3133 34.9415 33.9107 35.9475 33.3739 36.6852C32.7029 37.5571 31.8977 38.2948 31.2267 39.1667C30.9583 39.5691 30.824 40.0386 30.6227 40.508C31.0253 40.7092 31.4279 41.0446 31.8305 41.0446C34.0449 40.9104 36.2592 40.8434 38.4064 40.508C39.2116 40.3739 39.8826 39.502 40.7549 39.0996C41.8956 38.496 43.1034 38.0936 44.2441 37.5571C44.6467 37.3559 45.0493 37.0206 45.3177 36.6182C48.8069 31.7223 52.3632 26.8936 55.7182 21.9307C57.5299 19.248 58.8719 16.23 60.4152 13.4133C61.7572 10.9989 61.1533 8.51742 61.0191 6.03596C60.952 4.42637 60.7507 2.81679 63.0992 2.14612C63.2334 2.95092 63.4347 3.68864 63.5689 4.42637C64.7096 2.88385 65.8503 1.40839 66.9239 0C68.6014 1.07306 70.0776 1.74373 71.2183 2.81679C71.688 3.28625 71.4196 4.49344 71.5538 5.43237C71.8893 5.63356 72.4932 6.03596 73.03 6.43836C72.6274 7.04196 72.2248 7.71262 71.7551 8.24915C69.1382 11.133 66.2529 13.7486 64.6425 17.5043C61.2875 25.4181 57.3286 33.0637 51.9606 39.8374C51.0883 40.9104 50.2831 42.1176 49.4779 43.2577C49.2766 43.526 49.0082 43.8613 49.0753 44.0625C50.1489 46.0745 48.4043 46.9464 47.3978 48.0194C45.4519 50.0314 45.0493 52.3117 45.7874 54.9943C46.3242 56.9393 46.5926 58.9512 47.0623 60.8962C47.3978 62.3716 46.2571 63.0423 45.3177 63.3106C42.6337 64.1153 42.4324 65.9261 42.7008 68.2064C43.2376 72.4316 43.8415 76.5897 44.1099 80.8148C44.5125 86.3814 44.7138 91.9478 44.9822 97.5143C44.9822 97.7826 44.9822 98.2521 44.7809 98.3862C42.835 99.5934 43.6402 101.605 43.5731 103.215C43.506 110.928 43.5731 118.64 43.6402 126.286C43.6402 131.249 44.0428 136.212 43.6402 141.174C43.4389 144.327 44.848 145.869 47.0623 147.412C48.0688 148.149 49.0753 149.088 49.8134 150.094C50.7528 151.301 50.8199 152.71 49.8134 154.051C48.8069 155.393 47.4649 155.46 46.19 154.722C43.1034 152.978 40.0839 151.167 37.0644 149.29C36.796 149.155 36.6618 148.552 36.6618 148.216C36.4605 143.388 36.1921 138.559 36.125 133.663C35.9237 125.682 35.8566 117.701 35.7224 109.787C35.6553 107.239 35.5882 104.623 35.3198 102.075C35.1185 100.532 34.3133 99.0569 34.0449 97.4473C33.5081 94.9658 33.3068 92.4844 32.9712 89.8688ZM18.8802 43.7272C13.7806 45.8733 9.21779 48.7572 4.92338 52.1776C6.39958 54.2566 7.87579 56.1345 9.0836 58.2135C9.8217 59.4878 10.4927 59.689 11.6334 58.8842C11.7005 58.2135 11.7676 57.4758 11.7676 56.8051C12.2373 57.2075 12.3715 57.6099 12.4386 58.0794C12.707 61.3656 12.9083 64.6519 13.1096 68.0052C13.3109 71.1573 13.5122 71.4256 16.733 71.2244C17.0685 71.2244 17.4711 71.1573 17.8066 71.0902C26.4625 69.2795 34.9843 67.2004 43.1034 63.6459C46.19 62.3046 46.2571 62.1704 45.519 58.8842C45.3848 58.2806 45.3848 57.677 45.1835 57.0734C44.177 52.9153 44.1099 49.0254 47.8004 46.0075C48.0017 45.8063 48.203 45.538 48.2701 45.4709C46.861 43.2577 45.519 41.1116 44.0428 39.0996C43.8415 38.8314 42.7008 38.7643 42.3653 39.0326C40.0839 41.1116 37.3999 41.7823 34.3804 41.6481C33.6423 41.5811 32.837 41.8494 31.9647 41.9164C33.508 43.2577 33.5752 44.0625 32.3674 45.4709C29.7504 48.4889 24.114 49.4949 20.6919 47.55C19.5512 46.7452 18.2092 45.8733 18.8802 43.7272ZM19.5512 100.264C21.4971 100.197 23.1075 99.9958 24.6508 100.063C28.6768 100.197 27.9387 99.9287 28.14 96.6425C28.3413 94.0269 28.2071 91.4113 28.2071 88.6616C30.0859 88.7287 31.9648 88.7957 33.7094 88.9299C33.9778 90.9419 34.2462 92.9538 34.5146 94.8988C34.7159 96.3072 34.783 97.7156 35.1856 99.0569C35.3198 99.5263 36.2592 100.264 36.6618 100.197C39.2116 99.6605 41.7614 98.9227 44.3783 98.185C43.7073 89.064 43.0363 80.4795 42.2982 71.6268C33.9107 71.3585 25.8586 72.0292 17.6724 73.9741C18.3434 82.7598 18.9473 91.3443 19.5512 100.264ZM11.4992 25.9546C11.5663 25.6864 11.4321 26.0217 11.4321 26.29C11.4992 29.4421 13.9148 31.5882 14.7871 34.405C15.391 36.5511 17.1356 37.6912 18.8802 38.8984C23.3088 41.9164 31.6293 40.5751 33.5752 34.8074C34.0449 33.3319 34.4475 31.8565 34.9172 30.381C34.9843 30.1127 34.9843 29.6433 35.1185 29.5762C37.6683 28.369 36.6618 26.2229 36.5947 24.5463C35.9237 24.278 35.2527 23.9427 35.1856 23.4732C34.8501 21.5283 33.7094 20.1869 32.2332 18.9797C30.757 17.7726 29.3478 16.4983 27.6703 15.0899C26.9322 15.224 25.7915 15.4923 24.6508 15.6264C18.9473 16.3642 14.1832 18.1079 13.4451 24.9487C13.4451 25.2169 12.4386 25.4852 11.4992 25.9546ZM19.4841 101.203C19.4841 106.769 19.4841 112.135 19.4841 117.5C19.4841 122.731 19.417 128.029 19.4841 133.261C19.4841 136.748 19.7525 140.236 19.7525 143.656C19.7525 144.93 19.2157 146.204 18.746 147.479C18.3434 148.619 17.6724 149.692 17.0014 150.966C18.746 150.966 19.9538 151.1 21.1616 150.966C23.0404 150.765 25.7915 147.278 24.9192 146.54C24.4495 146.674 23.9798 146.808 23.443 146.942V143.924C24.0469 144.26 24.4495 144.461 25.1205 144.863C25.5231 130.176 25.9928 115.756 26.3954 101.136H19.4841V101.203ZM42.6337 100.063C40.2852 100.532 38.2722 101.002 36.1921 101.404C36.1921 101.672 36.125 101.941 36.125 102.209C36.3263 108.379 36.5947 114.482 36.796 120.652C37.0644 127.627 37.3328 134.602 37.5341 141.577C37.6012 142.65 37.6012 143.723 38.9432 143.522C39.1445 144.394 39.2787 145.198 39.48 145.936C39.3458 146.003 39.2787 146.137 39.1445 146.204C38.6748 145.601 38.138 144.93 37.6683 144.394C36.9973 146.808 37.8025 148.619 40.2181 149.357C41.5601 149.759 43.0363 149.558 44.4454 149.491C45.0493 149.491 45.6532 149.021 46.2571 148.82C45.9216 148.284 45.6532 147.546 45.1835 147.21C43.506 145.936 42.3653 144.595 42.6337 142.18C42.9021 139.9 42.6337 137.553 42.6337 135.273C42.5666 132.59 42.4324 129.907 42.4995 127.225C42.5666 123.335 42.7679 119.445 42.835 115.555C42.835 114.415 42.5666 113.275 42.5666 112.068C42.5666 108.178 42.6337 104.221 42.6337 100.063ZM48.203 43.1236C50.4844 40.2398 52.8329 37.8924 54.4433 35.1427C57.7983 29.4421 61.3546 23.8085 63.5689 17.5043C64.1728 15.8947 65.0451 14.2851 66.1187 12.8767C67.3936 11.133 69.004 9.59048 70.346 8.18209C69.2724 7.10903 68.2659 6.1701 67.3265 5.23117C66.9239 5.3653 66.4542 5.43237 65.7161 5.63357C65.8503 4.49344 65.9174 3.62158 65.9845 2.74972C64.3741 3.28625 65.3806 7.57849 61.9585 5.43237C61.9585 6.1701 61.8243 6.97489 61.9585 7.64556C62.6966 10.4623 61.6901 12.8767 60.4823 15.3582C56.7247 22.8696 51.8264 29.6433 46.9281 36.417C46.3913 37.1547 45.3848 37.9595 45.3848 38.6972C45.3848 39.6362 46.2571 40.508 46.861 41.3799C47.2636 41.9164 47.7333 42.4529 48.203 43.1236ZM15.2568 18.4432C17.9408 16.0288 20.4235 15.224 23.5101 14.8887C26.9993 14.4863 30.153 13.5474 31.6292 9.99287C31.9647 9.12101 32.1661 7.51142 31.6964 7.10902C30.4214 6.03596 30.6898 4.76171 30.5556 3.48745C30.3543 1.87786 29.4149 1.07306 27.9387 1.60959C25.8586 2.34732 23.8456 3.28625 23.3088 5.70063C22.772 8.18208 20.8932 9.52341 19.2157 11.133C17.1356 13.0109 15.9949 15.3582 15.2568 18.4432ZM12.7741 24.4121C13.4451 21.5953 13.8477 18.8456 14.8542 16.2971C15.7265 14.151 17.0014 11.8037 18.746 10.5294C21.6984 8.31622 22.4365 5.1641 23.8456 2.01199C23.443 2.14612 23.2417 2.14612 23.1075 2.21319C21.43 3.82278 19.6854 5.3653 18.1421 7.10902C16.733 8.71861 16.1291 8.78568 15.2568 6.84076C9.2178 12.139 4.78919 26.5582 13.7806 34.1367C12.9083 32.4601 12.2373 31.1858 11.7005 29.9116C11.2308 28.5702 10.7611 27.2289 10.6269 25.8205C10.4927 24.4792 11.0966 23.6073 12.7741 24.4121ZM35.1856 31.9906C35.3869 32.0577 35.5882 32.1247 35.8566 32.1918C39.2116 27.4301 40.7549 22.1989 39.4129 16.4312C38.7419 13.6815 37.5341 10.9989 36.5276 8.24915C36.1921 8.18209 35.6553 8.18208 35.3869 8.11502C34.8501 7.10902 34.4475 6.30423 34.0449 5.49944C33.441 9.18808 31.8305 12.0719 29.1465 14.4863C29.5491 15.157 29.8175 16.23 30.4214 16.4312C34.0448 17.8396 35.0514 21.6624 37.8025 23.8756C37.9367 24.0097 38.0038 24.1439 38.0709 24.3451C38.6077 25.8876 37.6012 29.1738 36.4605 30.314C35.7895 30.7834 35.5211 31.4541 35.1856 31.9906ZM12.1702 69.3465C8.27839 67.9381 6.86928 66.5968 7.27188 63.1094C7.40609 61.9692 7.80869 60.8962 8.00999 59.756C8.07709 59.2195 8.27839 58.4818 8.00999 58.0794C7.27189 56.8722 6.26539 55.7991 5.39309 54.5919C5.05759 54.9943 4.78918 55.2626 4.58788 55.5979C1.43417 60.0243 0.964475 66.3956 5.19179 69.9501C7.00349 71.4926 9.2849 72.4316 11.4321 73.5046C13.5122 74.5106 13.7135 74.9801 12.3715 76.925C12.1031 77.2603 11.7005 77.5957 11.6334 77.6627C12.1031 79.0711 12.4386 80.2783 12.8412 81.4855C14.5187 79.943 14.72 79.4735 14.5187 77.1933C14.4516 76.3885 14.72 75.5837 14.5858 74.8459C14.4516 73.907 14.3174 72.3645 13.8477 72.2974C12.1702 71.828 12.1702 70.6878 12.1702 69.3465ZM20.4235 45.9404C23.9127 48.556 29.1465 47.8853 31.5622 44.6661C30.8241 43.1236 30.153 41.7823 29.5491 40.5751C27.2006 40.9104 24.7179 41.3128 22.4365 41.6481C21.7655 43.0565 21.1616 44.4649 20.4235 45.9404ZM15.1897 72.7669C15.2568 72.9681 15.391 73.1022 15.4581 73.3034C24.114 71.0902 32.9042 70.1513 41.9627 70.3525C41.6943 68.6088 41.493 67.1333 41.2917 65.6579C38.2051 66.5968 35.2527 67.6699 32.2332 68.4747C26.9993 69.7489 21.7655 70.822 16.5317 72.0292C16.062 72.1633 15.6594 72.5657 15.1897 72.7669ZM8.81519 60.3596C7.00349 64.3836 8.41259 67.7369 12.036 67.8711V60.0243C10.8953 60.1584 9.95589 60.2926 8.81519 60.3596ZM17.6724 99.9287C17.8737 99.8617 18.075 99.7946 18.3434 99.7275C17.7395 91.3443 17.2027 82.8939 16.5317 73.907C16.062 74.5777 15.5923 74.9801 15.5252 75.4496C15.4581 76.3214 15.7265 77.2603 15.7936 78.1993C16.062 81.4184 16.2633 84.6376 16.4646 87.8568C16.6659 91.1431 16.733 94.4964 16.9343 97.7826C17.0014 98.5203 17.404 99.191 17.6724 99.9287ZM48.5385 152.777C46.7939 150.564 44.9151 150.094 42.9692 151.436C44.7138 152.173 46.19 153.582 48.5385 152.777ZM19.417 152.307C17.3369 151.369 16.062 152.307 15.3239 154.252C16.733 153.649 18.075 152.978 19.417 152.307Z" fill="#552E10"/>
<path d="M20.0205 32.7283C22.369 30.7163 24.9188 30.9175 27.5357 31.5881C27.8712 31.6552 28.2738 32.9295 28.1396 32.9965C26.8647 34.0025 25.6569 35.4109 24.2478 35.6121C22.369 35.9474 20.8928 34.6061 20.0205 32.7283ZM21.1612 32.9295C23.2413 35.3438 25.4556 35.1426 27.066 32.46C25.1201 32.1247 23.2413 31.7893 21.1612 32.9295Z" fill="#552E10"/>
<path d="M19.9539 22.2658C18.1422 22.534 16.7331 22.8023 15.1898 23.0035C14.7201 21.8634 15.6595 21.3939 16.5318 21.0586C17.8067 20.522 18.8132 21.0586 19.9539 22.2658Z" fill="#552E10"/>
<path d="M32.5681 24.8814C30.6893 24.4119 29.0117 24.0095 28.0723 26.0886C27.6697 24.5461 27.871 23.8754 28.8775 23.5401C30.1525 23.1377 31.4945 22.9365 32.5681 24.8814Z" fill="#552E10"/>
<path d="M27.4688 21.6624C28.0727 21.1929 28.6766 20.3881 29.3476 20.3211C30.4212 20.254 31.7632 20.0528 32.3 21.5283C30.7567 21.6624 29.2133 21.8636 27.7371 21.9977C27.67 21.8636 27.5359 21.7295 27.4688 21.6624Z" fill="#552E10"/>
<path d="M15.5254 26.0216C16.3306 24.8815 17.2029 24.1438 18.5449 24.6132C19.1488 24.8144 19.6856 25.3509 20.625 26.0216H15.5254Z" fill="#552E10"/>
<path d="M24.7851 26.8267C24.5167 27.1621 24.1812 27.4303 23.7786 27.8998C24.3825 28.1681 24.7851 28.3693 25.2548 28.5705C25.2548 28.7716 25.2548 28.9058 25.3219 29.0399C24.7851 29.0399 23.9799 29.3082 23.7115 29.0399C23.2418 28.6375 22.9063 27.7657 22.9734 27.2291C23.0405 26.8267 23.9128 26.5585 24.4496 26.2231C24.5167 26.3573 24.6509 26.5585 24.7851 26.8267Z" fill="#552E10"/>
</svg>
