<svg width="12" height="10" viewBox="0 0 12 10" fill="none" xmlns="http://www.w3.org/2000/svg">
<path fill-rule="evenodd" clip-rule="evenodd" d="M0.71002 1.73997C0.71002 1.69223 0.728984 1.64645 0.762741 1.61269C0.796497 1.57893 0.842281 1.55997 0.89002 1.55997H2.19002C2.66962 1.55602 3.1422 1.67533 3.56244 1.90647C3.98269 2.1376 4.33652 2.47282 4.59002 2.87997C4.59002 2.87997 4.00002 3.99997 3.79002 4.46997C3.45002 3.75997 3.08002 3.04997 2.19002 3.04997H0.88002C0.832281 3.04997 0.786498 3.031 0.752741 2.99725C0.718985 2.96349 0.70002 2.91771 0.70002 2.86997L0.71002 1.73997ZM11.12 7.66997L8.28002 9.53997C8.25353 9.56489 8.22044 9.58168 8.18469 9.58835C8.14894 9.59503 8.11202 9.5913 8.07832 9.57761C8.04463 9.56392 8.01557 9.54084 7.9946 9.51113C7.97363 9.48141 7.96163 9.4463 7.96002 9.40997V8.27997C7.77033 8.29542 7.57971 8.29542 7.39002 8.27997C6.91467 8.29325 6.4441 8.18213 6.0249 7.95762C5.60569 7.73311 5.25241 7.403 5.00002 6.99997C5.30695 6.49277 5.57119 5.96094 5.79002 5.40997C6.13002 6.10997 6.50002 6.81997 7.39002 6.81997H8.00002V5.66997C8.00002 5.48997 8.19002 5.42997 8.33002 5.53997L11.16 7.39997C11.1877 7.44285 11.198 7.4947 11.1887 7.5449C11.1794 7.5951 11.1512 7.63985 11.11 7.66997H11.12ZM11.12 2.43997L8.27002 4.30997C8.24344 4.32279 8.21423 4.32925 8.18472 4.32883C8.1552 4.3284 8.1262 4.32111 8.09999 4.30752C8.07379 4.29393 8.05111 4.27443 8.03376 4.25055C8.01641 4.22668 8.00485 4.19908 8.00002 4.16997V3.04997H7.48002C6.36002 3.04997 5.92002 4.33997 5.55002 5.20997C4.90002 6.71997 4.14002 8.27997 2.24002 8.27997H0.88002C0.856002 8.28143 0.831947 8.27777 0.809447 8.26924C0.786947 8.26071 0.766514 8.2475 0.749499 8.23049C0.732484 8.21347 0.719275 8.19304 0.710746 8.17054C0.702216 8.14804 0.69856 8.12399 0.70002 8.09997V6.99997C0.698659 6.9755 0.702307 6.95102 0.710741 6.92801C0.719176 6.905 0.732219 6.88396 0.749071 6.86617C0.765923 6.84839 0.78623 6.83422 0.808747 6.82456C0.831264 6.8149 0.855517 6.80993 0.88002 6.80997H2.19002C3.31002 6.80997 3.75002 5.52997 4.12002 4.64997C4.77002 3.13997 5.53002 1.57997 7.43002 1.57997H8.00002V0.439968C7.99971 0.401562 8.01104 0.363961 8.03252 0.332126C8.05401 0.30029 8.08464 0.275713 8.12037 0.261636C8.15611 0.247558 8.19527 0.244641 8.2327 0.25327C8.27012 0.261898 8.30406 0.281666 8.33002 0.309968L11.16 2.16997C11.1877 2.21285 11.198 2.26471 11.1887 2.3149C11.1794 2.3651 11.1512 2.40985 11.11 2.43997H11.12Z" fill="#010101"/>
</svg>
