<svg width="78" height="156" viewBox="0 0 78 156" fill="none" xmlns="http://www.w3.org/2000/svg">
<path d="M7.62828 85.9336C7.51732 84.4901 7.3509 82.991 7.29543 81.5474C7.18448 74.7183 8.68231 68.1113 10.2911 61.6153C11.7889 55.397 13.9525 49.4007 15.8387 43.2934C15.8941 43.0158 16.116 42.8492 16.2825 42.5716C16.3934 42.6271 16.4489 42.6826 16.5598 42.7382C16.3934 43.5155 16.2825 44.3483 16.116 45.1256C16.2825 45.1811 16.3934 45.2366 16.5598 45.2921C17.2256 43.9041 18.2796 42.5716 18.446 41.1836C18.7789 38.352 18.7234 35.4649 17.5029 32.7444C16.3379 30.2459 16.4489 30.1904 14.2299 31.8005C13.8415 32.0781 13.3977 32.3557 13.0094 32.6888C9.68087 35.9091 7.68375 39.9066 6.62971 44.3483C5.2983 50.067 4.13331 55.8412 2.91285 61.6153C1.52596 68.1668 0.5274 74.7739 0.804778 81.4919C0.860254 82.6023 1.19311 83.7683 1.35953 84.8787C1.41501 84.8787 1.52597 84.8232 1.58144 84.8232C1.52597 83.3796 1.41501 81.9361 1.35953 80.437L1.74787 80.3815C1.96977 81.603 2.13619 82.8799 2.3581 84.1014C2.46905 84.1014 2.63547 84.1014 2.74642 84.0459V80.7701C2.91285 80.7701 3.07928 80.7701 3.19023 80.7701C3.19023 81.5474 3.07928 82.3802 3.24571 83.102C3.52309 84.3235 3.24571 85.8781 4.79903 86.5443C4.8545 86.5999 4.96545 86.7109 5.02093 86.7664C4.79902 86.933 4.57712 87.3216 4.41069 87.3216C3.57856 87.2661 2.8019 87.044 1.63691 86.8775C1.30406 86.0446 0.693827 84.9342 0.5274 83.7683C-0.249258 79.2711 -0.0828293 74.7739 0.693829 70.2766C1.91429 62.8923 3.35666 55.5636 4.8545 48.2348C5.74211 43.8486 7.01805 39.5179 9.51445 35.687C11.7335 32.3002 14.9511 30.1349 18.5015 28.1916C14.2853 26.1929 11.4006 23.2503 10.7904 18.5865C10.513 16.3101 9.95825 13.7561 10.624 11.7019C12.2882 6.42736 18.0577 0.764205 24.9367 1.5415C25.5469 1.59702 26.2681 1.70806 26.7119 1.43046C29.3747 -0.0686122 32.2594 -0.0686121 35.1442 0.0424301C41.0801 0.264515 45.9619 2.76297 49.6233 7.26018C54.0613 12.6457 54.8935 18.753 52.3416 25.3601C51.8978 26.415 52.0642 27.6919 53.2847 28.6913C55.0599 30.0794 56.8351 31.5784 58.111 33.4106C60.7184 37.2416 61.4951 41.7943 61.8279 46.236C62.3272 52.843 63.4922 59.2835 65.101 65.6684C65.4893 67.334 65.7112 69.1107 67.4309 70.1101C69.4835 71.3871 70.704 73.2193 71.3697 75.4956C71.5361 76.0508 71.758 76.6616 72.0354 77.1613C73.3113 79.1045 73.7552 81.2698 73.8106 83.4907C73.8106 85.656 73.5887 87.8768 73.6442 90.0422C73.6997 93.9286 74.0325 97.8151 74.088 101.757C74.1435 105.533 74.0325 109.308 73.9216 113.028C73.7552 120.19 73.6442 127.297 73.4778 134.459C73.4778 135.847 73.4778 137.235 73.4778 138.623C76.9727 139.067 78.5261 141.177 77.8049 144.397C77.6939 144.897 77.0282 145.286 76.6399 145.785C76.2516 145.341 75.7523 144.953 75.4749 144.453C75.1421 143.898 75.0866 143.176 74.8647 142.565C74.5873 143.731 74.6982 145.064 73.2559 145.175C72.6456 145.23 71.9245 144.231 71.0369 143.565C71.0369 144.342 71.1478 145.175 70.9814 145.952C70.8704 146.452 70.4266 147.284 70.1492 147.284C69.4835 147.284 68.4295 147.007 68.2076 146.563C67.8193 145.619 67.8747 144.508 67.8193 143.509C67.8193 143.12 67.9302 142.732 67.9857 142.288C67.8193 142.232 67.6528 142.176 67.4309 142.121C66.9317 143.12 66.4879 144.12 65.9331 145.064C65.7112 145.452 65.2119 145.952 64.8791 145.952C64.4907 145.952 63.936 145.508 63.7696 145.119C63.5477 144.619 63.4367 143.953 63.5477 143.398C64.2688 140.289 65.7112 139.012 69.2062 138.457C69.2062 137.957 69.2062 137.402 69.2062 136.846C69.1507 131.572 68.9843 126.297 69.0952 121.023C69.2062 115.526 69.7055 110.085 69.7609 104.589C69.8164 97.7041 69.65 90.7639 69.539 83.8793C69.539 82.7134 69.2062 81.603 68.8733 80.4925C68.7624 80.1039 68.3186 79.8263 68.2076 79.7708C67.2645 80.6591 66.155 82.1582 65.8222 81.9916C64.4353 81.3809 63.3258 80.2149 61.9389 79.1045C60.6629 79.4932 60.6629 80.9922 60.3856 82.2692C60.2191 83.2686 59.7753 84.1569 58.7768 83.8238C58.111 83.6017 57.3899 82.6023 57.3344 81.9361C57.3344 80.7146 57.8337 79.4932 58.111 78.2717C58.1665 77.9386 58.3884 77.6054 58.333 77.2723C57.6673 74.6073 56.9461 71.8868 56.2804 69.2217C55.3373 65.3908 54.3387 61.5043 53.3956 57.6178C52.1197 57.6734 51.9533 58.5062 51.8978 59.5055C51.8423 63.4475 51.7314 67.4451 51.6759 71.3871C51.5649 76.9392 51.5095 82.4358 51.343 87.9879C51.2321 91.5968 50.8992 95.2056 50.9547 98.759C51.0657 106.143 51.3985 113.528 51.6759 120.912C51.7314 122.078 51.2321 122.689 50.178 123.022C48.6247 123.466 47.0714 123.91 45.5181 124.465C45.0743 124.632 44.4086 125.02 44.3531 125.409C43.8538 129.462 43.4655 133.571 43.0217 137.624C42.7443 139.9 43.8538 141.677 45.0188 143.509C46.2948 145.563 47.8481 147.562 48.4583 149.783C49.6233 153.891 48.7357 154.724 44.4086 154.669C43.8538 154.669 43.2991 154.447 42.8553 154.169C40.9136 152.837 38.8056 151.615 37.0858 150.061C35.3106 148.395 33.3689 146.674 33.147 144.009C32.9806 142.065 33.0361 140.067 33.0361 138.123C33.0361 135.07 33.0361 131.961 33.0361 128.851C30.5952 128.962 28.3207 129.129 26.1571 129.24C26.0462 130.406 25.9352 131.461 25.8797 132.516C25.7133 136.125 25.5469 139.789 25.325 143.398C25.2695 144.286 25.214 145.341 24.7148 145.952C21.941 149.672 19.0008 153.336 14.7292 155.613C13.4532 156.279 11.2342 156.057 10.2911 155.168C9.29255 154.225 8.84874 152.503 9.6254 151.115C10.5685 149.283 11.8444 147.618 12.843 145.841C13.5642 144.508 14.5072 143.065 14.5627 141.621C14.7291 137.346 14.4518 133.127 14.3963 128.851C14.3963 127.908 14.1744 127.352 12.9539 127.186C9.73635 126.797 9.6254 126.575 9.56992 123.521C9.40349 114.694 9.29255 105.81 9.07064 96.9823C8.95969 92.6517 8.62684 88.2655 8.40494 84.0459C8.07209 84.7677 7.73923 85.3784 7.40638 85.9891L7.62828 85.9336ZM64.9345 141.899C64.5462 142.565 63.7696 143.787 65.4338 144.342C65.7112 143.842 65.8222 143.287 66.2105 142.898C66.7652 142.288 67.4309 141.732 68.0967 141.233C68.7624 140.733 69.4281 140.289 70.0938 139.789C69.9273 140.344 69.8164 140.844 69.65 141.399C69.3171 142.621 68.8733 143.842 68.6514 145.119C68.5959 145.508 69.3171 146.007 69.65 146.452C69.9274 146.007 70.3157 145.619 70.4266 145.119C70.6485 144.286 70.4821 143.176 70.9259 142.565C71.4807 141.843 72.6456 141.011 73.4778 141.066C74.5873 141.177 75.9742 141.677 75.9742 143.342C75.9742 143.565 76.2516 143.787 76.418 144.064C77.472 142.787 76.5844 140.067 74.9756 139.789C74.1435 139.623 73.2559 140.011 72.3683 140.011C71.5916 140.011 70.815 139.9 69.9828 139.789C67.8193 138.623 66.266 139.678 64.9345 141.899ZM50.9547 35.4094C51.0102 36.0201 50.7883 36.6864 50.5664 37.2971C49.9007 39.2959 49.124 41.2391 48.5693 43.2934C48.3474 44.1262 48.6247 45.0701 48.5138 45.9584C48.3473 47.2909 48.0145 48.6234 47.7371 49.9559C51.454 53.0096 50.8992 58.7838 47.5152 62.115C47.2933 62.3371 47.0159 62.6147 46.7386 62.8368C46.3502 63.1699 45.9064 63.4476 45.4626 63.7807C45.1298 63.2255 44.5195 62.6702 44.575 62.1706C44.8524 59.5055 43.7429 57.1181 43.1326 54.6197C42.9107 53.7314 43.3545 52.732 43.2991 51.7881C43.2436 50.8998 43.0772 50.0114 42.8553 49.1231C42.5779 48.0127 41.9677 47.0133 41.8012 45.9029C41.4129 42.5716 42.0231 39.2959 42.6334 36.0201C42.6888 35.798 42.6334 35.5204 42.6334 35.0207C41.5239 36.0756 40.6917 37.0195 39.6377 37.7968C36.3091 40.2952 32.6478 40.4618 28.7645 39.2959C25.4914 38.2965 23.0505 36.4088 21.5526 33.3551C21.0534 32.3557 20.3322 31.4119 19.722 30.468C18.8343 29.0245 18.5015 28.9134 17.1146 29.9128C17.7803 31.9671 18.6679 33.9658 19.1117 36.0756C19.9439 40.0732 19.3891 43.7375 15.9496 46.5136C15.5613 46.8467 15.3394 47.513 15.173 48.0682C13.8415 52.1768 12.2328 56.1743 11.2897 60.3939C10.0692 65.6129 9.18159 70.8874 8.51589 76.2174C8.23851 78.6603 8.84874 81.2698 9.07064 83.7683C9.34802 87.6548 9.79182 91.5412 9.95825 95.4277C10.1802 101.702 10.1802 108.031 10.2911 114.305C10.3466 117.747 10.513 121.19 10.5685 124.632C10.5685 125.465 10.7904 125.909 11.7335 126.02C15.5058 126.575 19.2227 127.075 22.9395 127.852C29.874 129.24 36.1427 126.964 42.4115 124.632C44.7414 123.743 47.0714 123.077 49.4569 122.411C50.4554 122.133 51.0102 121.745 50.9547 120.523C50.8438 117.136 50.7883 113.694 50.6773 110.307C50.5664 106.81 50.2335 103.367 50.289 99.8694C50.4554 93.0958 50.8992 86.3223 51.0657 79.4931C51.1766 76.1619 50.8992 72.8306 50.8992 69.4993C50.8992 65.835 51.0657 62.115 51.1766 58.4506C51.1766 57.951 51.5095 57.2847 51.8978 57.0626C54.5606 55.4525 54.838 52.8985 54.3387 50.289C53.9504 48.0682 53.0073 45.9029 52.2306 43.7375C51.343 41.2391 51.1766 38.6851 51.6759 36.0756C52.0642 33.9658 52.508 31.856 52.8964 29.6907C52.8964 29.5241 52.7299 29.3576 52.4525 28.9689C51.7314 31.1343 50.7883 33.133 50.9547 35.4094ZM33.258 28.4137C35.9763 27.803 38.5837 27.1923 41.5239 26.4705C39.8596 28.0251 38.1398 28.4692 36.3091 28.7468C36.0318 28.8024 35.6989 28.7468 35.4215 28.7468C33.3135 28.6913 31.2054 28.7468 29.2083 29.7462C25.9907 31.3008 22.9395 30.5235 19.8884 28.9134C22.0519 31.745 22.9395 35.5204 26.379 37.4081C29.874 39.2959 33.6463 40.0176 37.1413 38.352C40.1924 36.8529 42.9662 34.6876 43.4655 30.5235C43.7984 27.5809 45.2407 24.7493 46.2393 21.8622C46.4057 21.4181 46.7386 20.9739 47.0159 20.4742C46.6831 20.2521 46.2948 20.03 45.629 19.6414C46.4612 19.4193 46.9605 19.3083 47.1269 19.2527C46.905 18.6975 46.5167 18.1423 46.4612 17.5316C46.4612 17.365 47.4597 16.8098 47.5707 16.9208C48.0145 17.254 48.2364 17.8092 48.5138 18.2534C49.235 17.4761 49.5678 15.0887 48.8466 14.0338C48.2364 13.1454 47.4597 12.8678 46.5167 13.5896C46.2948 13.7561 46.0728 13.9227 46.1838 13.8672C45.2407 13.423 44.575 13.0344 43.9093 12.8678C39.9151 12.0905 35.8099 11.5908 31.8711 10.5914C29.1528 9.92519 26.6564 8.3706 25.1031 5.70558C21.3307 9.75863 17.0037 12.4236 11.4561 12.9233C10.513 19.7524 12.6766 24.4717 18.5015 27.3033C19.8884 27.9696 21.2753 28.5803 22.7176 29.08C26.2681 30.357 29.4302 29.191 32.3704 27.2478C32.5368 27.1367 32.7032 27.0257 33.147 26.8036C33.2025 27.3588 33.258 27.6919 33.258 28.4137ZM25.2695 4.20652C26.49 7.5933 29.4302 9.20341 32.5923 9.98071C37.0858 11.1467 41.6903 11.8684 46.2948 12.3681C47.9035 12.5347 49.2904 12.3681 49.8452 14.2003C50.4554 16.3101 49.9007 18.4754 48.3474 19.5859C45.9619 21.3625 45.0743 26.0263 46.5721 28.5248C46.7386 28.7468 46.8495 29.0245 46.9605 29.3021C46.8495 29.4131 46.7386 29.5241 46.5721 29.6352C46.0728 29.0245 45.5736 28.4692 45.1298 27.914C43.9093 29.5797 43.9093 29.8017 44.7969 35.5204C44.4086 35.2428 44.0757 35.0763 43.7984 34.8542C42.6888 37.1861 42.9662 39.4624 44.5195 41.6277C44.2976 41.6833 44.1312 41.7388 43.9093 41.7388C43.6319 41.2946 43.2991 40.7949 42.9107 40.1287C41.8567 42.4606 42.6888 44.2928 43.7984 46.236C43.41 46.0139 43.0772 45.8473 42.6888 45.6253C42.7998 48.0682 43.9093 49.5673 45.4626 49.4562C47.3488 49.2897 48.1254 47.7906 47.959 44.3483C47.4043 44.6259 46.905 44.848 46.0729 45.2366C47.2378 43.5155 48.1809 42.1274 49.235 40.5173C48.5693 40.3508 48.2919 40.2952 47.9035 40.1842C49.2904 38.2965 51.0657 36.6308 49.6788 34.0769C49.1795 34.299 48.7357 34.521 48.07 34.8542C49.1795 33.3551 50.289 32.2447 50.9547 30.8567C51.5095 29.6907 51.5095 28.3027 51.6759 26.9702C51.6759 26.7481 51.2321 26.4705 50.7883 26.0263C50.7328 26.2484 50.7328 25.9708 50.8438 25.8598C52.8409 23.861 52.7299 21.3625 52.8964 18.8086C53.1737 14.7 52.0087 11.0356 49.4014 7.98195C45.9619 3.87339 41.6348 1.20837 36.1982 0.875247C34.3675 0.764205 32.5368 0.819726 30.7061 0.875247C30.0959 0.875247 29.4302 0.930769 28.9309 1.20837C27.3776 2.15223 25.7688 2.20775 24.049 2.09671C19.5001 1.87463 16.3379 4.37308 13.6196 7.64882C12.6211 8.87029 11.9554 10.3694 11.1232 11.7019C11.2342 11.8129 11.4006 11.9795 11.5116 12.0905C17.2255 11.5353 21.83 8.92581 25.2695 4.20652ZM62.3827 76.7171C63.2703 78.0496 64.1024 79.4376 64.99 80.7701C65.101 80.9922 65.4338 81.0477 65.6557 81.2143C65.7667 81.1033 65.9331 81.0477 66.0441 80.9367C65.101 79.2155 64.1024 77.4944 63.1593 75.7732C63.2703 75.6622 63.4367 75.5512 63.6031 75.4956C65.2674 76.6061 65.7667 78.6048 66.8762 80.2705C67.7638 77.9386 65.101 76.8281 65.101 74.8849C65.2674 74.7739 65.4338 74.6628 65.6003 74.6073C66.6543 76.0508 67.6528 77.4944 68.7069 78.8824C68.8733 78.7714 68.9843 78.7159 69.1507 78.6048C68.374 77.1058 67.5974 75.6067 66.8207 74.1076C68.8178 74.9959 69.3726 76.7726 70.1492 78.6603C71.4252 77.4389 70.7595 75.9398 70.3157 74.9959C69.65 73.4969 68.5959 71.9978 67.2645 70.9984C65.3229 69.5549 64.8236 67.6672 64.3243 65.5574C63.4922 61.893 62.4936 58.2286 61.717 54.5086C61.4396 53.0651 61.4396 51.566 61.3286 50.1225C60.9958 45.4032 60.4965 40.7394 58.8322 36.2977C57.8891 33.6882 56.2249 31.5229 53.8394 29.8573C53.673 30.0238 53.5066 30.1349 53.4511 30.3014C52.2861 34.0214 51.8423 37.9078 52.6744 41.7388C53.1737 44.0707 54.3942 46.236 55.1154 48.5124C55.892 51.0108 55.7256 53.4537 54.6716 55.8967C54.2832 56.7295 54.3942 57.8954 54.6161 58.7838C55.5037 62.6147 56.5577 66.3902 57.5008 70.2211C57.8892 71.8868 58.1111 73.6079 58.4439 75.2736C58.4994 75.6067 58.7213 75.8843 58.8877 76.384C60.552 74.6073 61.1067 74.7183 62.3827 76.7171ZM15.6168 137.79C15.8387 141.177 15.173 144.175 13.0649 146.84C12.732 147.229 12.3992 147.729 12.3992 148.173C12.3992 149.006 12.4547 150.005 12.8985 150.616C13.1204 150.949 14.4518 150.949 14.951 150.616C16.7263 149.394 18.5015 148.117 19.9993 146.563C21.5526 145.008 22.9395 143.231 24.2155 141.399C24.7702 140.566 24.9367 139.289 24.9921 138.235C25.214 135.514 25.325 132.793 25.325 130.073C25.325 129.629 24.8257 128.907 24.4374 128.851C21.6081 128.296 18.7234 127.852 15.8387 127.408C15.6722 127.352 15.4503 127.519 15.5613 127.463C15.5613 131.072 15.3949 134.459 15.6168 137.79ZM33.9237 128.518C33.9237 132.516 33.9237 136.513 33.9237 140.511C33.9237 140.844 33.9792 141.288 34.2011 141.51C36.5865 144.064 38.5282 147.118 41.8012 148.784C43.8538 149.838 45.3517 149.561 45.7955 147.895C46.0174 147.118 45.7955 146.118 45.5181 145.341C45.2407 144.564 44.7414 143.787 44.2422 143.12C42.5224 140.677 42.1896 138.012 42.6334 135.181C42.9107 133.515 43.0217 131.905 43.2436 130.239C43.41 128.574 43.6319 126.964 43.8538 125.02C40.3034 126.242 37.1413 127.408 33.9237 128.518ZM69.7055 79.7708C69.8164 80.326 70.2602 81.3253 70.3157 82.2692C70.4821 86.7109 70.5376 91.2081 70.5376 95.6498C70.5931 101.757 70.5931 107.864 70.5376 113.972C70.4821 116.526 69.9828 119.08 69.9828 121.634C69.9274 125.52 70.1493 129.407 70.2047 133.293C70.2602 134.903 70.2047 136.513 70.3157 138.068C70.3712 138.512 70.8704 138.901 71.2033 139.289C71.7026 138.901 72.5902 138.568 72.5902 138.123C72.7011 135.958 72.5902 133.737 72.6456 131.572C72.7011 128.629 72.8675 125.631 72.923 122.689C72.9785 120.246 72.923 117.803 72.9785 115.36C73.034 109.919 73.2559 104.478 73.2559 99.0921C73.2559 93.4845 73.1449 87.9324 72.9785 82.3247C72.923 80.9367 72.4237 79.5487 72.0909 78.2162C71.2033 78.8269 70.5931 79.2155 69.7055 79.7708ZM40.2479 148.784C38.4172 147.507 37.0303 145.674 35.4215 144.064C35.0332 143.676 34.8113 143.176 34.3675 142.843C33.7573 145.619 35.5325 147.229 37.0858 148.728C38.972 150.505 41.191 151.948 43.41 153.281C44.1867 153.78 45.2962 153.836 46.2393 153.78C47.9035 153.669 48.7912 151.837 48.07 150.005C47.7926 149.228 47.3488 148.45 46.905 147.451C45.6845 151.115 43.1881 150.893 40.2479 148.784ZM10.6794 154.169C11.7335 155.446 13.2868 155.668 15.062 154.613C18.1686 152.837 20.5541 150.227 22.7731 147.451C23.8271 146.118 25.1031 144.897 24.6593 142.787C24.4374 143.009 24.2709 143.12 24.1045 143.287C21.6081 145.73 19.1117 148.228 16.5598 150.671C16.1715 151.06 15.6168 151.282 15.1175 151.449C13.2868 152.17 12.2882 151.671 11.3451 149.727C9.95825 151.282 9.68087 153.003 10.6794 154.169ZM46.905 50.6777C47.4043 52.1768 47.8481 53.3427 48.2364 54.5642C48.6802 55.8412 48.6802 57.1181 47.9035 58.3396C48.3474 55.7856 47.5707 53.6203 46.2948 51.5105C45.6845 51.566 45.0188 51.6216 44.3531 51.6771C43.6874 53.0096 43.7984 54.3421 44.2422 55.7301C44.9079 57.951 45.3517 60.2828 45.9064 62.5592C50.1226 59.1169 50.8438 52.8985 46.905 50.6777ZM60.8294 76.7726C60.2746 76.9392 59.6089 77.4944 59.387 78.0496C58.9432 79.049 58.7213 80.2149 58.5549 81.3253C58.4994 81.6585 58.9987 82.1026 59.2206 82.4913C59.4425 82.1582 59.7753 81.8806 59.8863 81.5474C60.2746 80.2149 60.441 78.7714 62.3272 77.9941C61.6615 77.4389 61.1067 76.6616 60.8294 76.7726ZM73.4223 141.732C72.923 142.01 72.4792 142.232 71.5916 142.787C72.5347 143.231 73.0895 143.509 73.6442 143.787C73.6997 143.62 73.8106 143.453 73.8661 143.287C73.7552 142.843 73.6442 142.343 73.4223 141.732Z" fill="#651D0D"/>
<path d="M7.62844 85.9336C7.29559 84.9343 6.96273 83.9904 6.68536 82.991C6.51893 82.2692 6.51893 81.492 6.40798 80.5481C5.57585 81.8806 6.01966 85.6005 7.01821 86.3223C7.73939 86.822 7.79487 86.4333 7.57297 85.8226C7.57297 85.8781 7.62844 85.9336 7.62844 85.9336Z" fill="#651D0D"/>
<path d="M4.90996 86.5441C4.96543 86.5996 5.07638 86.7107 5.13186 86.7662C5.40923 86.8772 5.63114 86.9328 5.68661 86.9328C5.29828 85.0451 4.85448 83.1574 4.3552 80.9365C3.68949 83.1018 4.24425 84.823 4.90996 86.5441Z" fill="#651D0D"/>
<path d="M23.7158 56.6741C24.9363 59.117 29.3743 59.6722 31.3715 57.84C28.7641 58.6728 26.3232 57.8955 23.7158 56.6741Z" fill="#651D0D"/>
<path d="M21.4967 24.3605C21.3303 24.1384 21.1084 23.6943 21.2193 23.4722C21.3303 23.2501 21.7741 23.028 22.0515 22.9725C22.9391 22.917 23.8821 22.9725 24.7698 22.917C26.2121 22.8059 27.6545 22.6949 29.3187 22.5283C28.2647 25.2489 22.9945 26.1927 21.4967 24.3605ZM28.0428 23.3611C26.1012 23.5277 24.1595 23.7498 22.2179 23.9164C24.3259 25.0823 26.2121 24.4716 28.0428 23.3611Z" fill="#651D0D"/>
<path d="M22.9954 14.2559C22.829 16.0881 22.6626 17.9202 22.4407 20.03C21.9414 19.4748 21.553 19.0862 21.1647 18.642C20.9983 19.9745 21.553 20.2521 22.718 20.6408C24.2713 21.1405 25.5473 20.5853 26.9342 20.4742C27.4889 20.4187 27.9882 19.9745 28.3765 19.4748C27.5444 19.5304 26.7123 19.6414 25.4918 19.7524C25.3809 19.808 24.8261 20.3077 24.4378 20.1966C23.994 20.03 23.4947 19.3638 23.4392 18.8641C23.3283 17.9758 23.4947 16.9764 23.5502 16.0325C23.6056 15.4773 23.6611 14.9221 23.6611 14.3669C23.3837 14.3114 23.1618 14.3114 22.9954 14.2559Z" fill="#651D0D"/>
<path d="M35.6431 13.5339C34.9774 11.9793 33.757 12.1459 32.6475 12.368C32.0372 12.479 31.4825 13.0897 31.2051 13.7005C32.6474 13.6449 34.0898 13.5894 35.6431 13.5339Z" fill="#651D0D"/>
<path d="M35.8095 14.2559C34.4226 15.1442 32.3146 13.2565 31.4824 15.866C32.0927 15.7549 32.5365 15.5884 33.0357 15.5884C33.4795 15.5328 33.9788 15.5328 34.4226 15.6994C35.4767 16.0881 35.9205 15.6994 35.8095 14.2559Z" fill="#651D0D"/>
<path d="M20.9418 13.8115C19.6659 11.9793 16.9476 11.9793 16.1709 13.5894C17.6687 13.6449 19.2221 13.7559 20.9418 13.8115Z" fill="#651D0D"/>
<path d="M14.5068 14.7555C14.9506 15.2552 15.4499 15.7549 15.9492 16.3101C17.0032 14.811 18.1127 15.4773 19.2777 15.8659C18.4456 13.4785 16.0601 15.6993 14.8397 14.4224C14.7287 14.5889 14.6178 14.6444 14.5068 14.7555Z" fill="#651D0D"/>
<path d="M47.1819 60.616C46.7935 58.6728 46.4607 56.7295 46.0723 54.8418C45.9059 54.8973 45.684 54.8973 45.5176 54.9528C45.9059 56.8961 46.2388 58.8393 46.6271 60.7271C46.7935 60.6715 46.96 60.6715 47.1819 60.616Z" fill="#651D0D"/>
</svg>
