<svg width="161" height="80" viewBox="0 0 161 80" fill="none" xmlns="http://www.w3.org/2000/svg">
<mask id="path-1-inside-1_676:9933" fill="white">
<path fill-rule="evenodd" clip-rule="evenodd" d="M80.4276 75C124.847 75 160.855 58.2107 160.855 37.5C160.855 16.7893 124.847 0 80.4276 0C36.0087 0 0 16.7893 0 37.5C0 47.8294 8.95714 57.1834 23.4475 63.9655L24.0078 75.434C24.1581 78.5095 27.5814 80.2691 30.1698 78.6012L42.3175 70.7732C42.4059 70.7163 42.491 70.6568 42.5729 70.595C53.8546 73.4062 66.742 75 80.4276 75Z"/>
</mask>
<path d="M23.4475 63.9655L25.4451 63.8679L25.3863 62.6647L24.2953 62.1541L23.4475 63.9655ZM24.0078 75.434L22.0102 75.5316V75.5316L24.0078 75.434ZM30.1698 78.6012L31.2531 80.2823L30.1698 78.6012ZM42.3175 70.7732L43.4009 72.4544L43.4009 72.4544L42.3175 70.7732ZM42.5729 70.595L43.0565 68.6544L42.13 68.4235L41.3679 68.9988L42.5729 70.595ZM158.855 37.5C158.855 46.6158 150.851 55.4907 136.453 62.2039C122.218 68.841 102.412 73 80.4276 73V77C102.862 77 123.27 72.7643 138.144 65.8292C152.855 58.97 162.855 49.0949 162.855 37.5H158.855ZM80.4276 2C102.412 2 122.218 6.159 136.453 12.7961C150.851 19.5093 158.855 28.3842 158.855 37.5H162.855C162.855 25.9051 152.855 16.03 138.144 9.17085C123.27 2.23566 102.862 -2 80.4276 -2V2ZM2 37.5C2 28.3842 10.0039 19.5093 24.4019 12.7961C38.6368 6.159 58.4428 2 80.4276 2V-2C57.9935 -2 37.5857 2.23566 22.7115 9.17085C8.00039 16.03 -2 25.9051 -2 37.5H2ZM24.2953 62.1541C9.96291 55.4459 2 46.5927 2 37.5H-2C-2 49.0661 7.95136 58.9209 22.5997 65.7769L24.2953 62.1541ZM26.0055 75.3364L25.4451 63.8679L21.4499 64.0631L22.0102 75.5316L26.0055 75.3364ZM29.0864 76.92C27.7922 77.7539 26.0806 76.8742 26.0055 75.3364L22.0102 75.5316C22.2356 80.1449 27.3706 82.7842 31.2531 80.2823L29.0864 76.92ZM41.2342 69.0921L29.0864 76.92L31.2531 80.2823L43.4009 72.4544L41.2342 69.0921ZM41.3679 68.9988C41.3256 69.0307 41.2811 69.0618 41.2342 69.0921L43.4009 72.4544C43.5307 72.3708 43.6564 72.283 43.7779 72.1913L41.3679 68.9988ZM80.4276 73C66.8928 73 54.1687 71.4233 43.0565 68.6544L42.0893 72.5357C53.5406 75.3891 66.5911 77 80.4276 77V73Z" fill="black" mask="url(#path-1-inside-1_676:9933)"/>
<path d="M56.168 44.9453C56.1589 44.9089 56.1497 44.8496 56.1406 44.7676C56.1315 44.6764 56.1178 44.5853 56.0996 44.4941C56.0905 44.3939 56.0814 44.2982 56.0723 44.207C56.0632 44.1159 56.0586 44.0521 56.0586 44.0156C56.0586 43.9792 56.054 43.888 56.0449 43.7422C56.0358 43.5872 56.0267 43.4232 56.0176 43.25C56.0176 43.0768 56.013 42.9173 56.0039 42.7715C55.9948 42.6257 55.9902 42.5345 55.9902 42.498C55.9902 42.3978 55.9766 42.2793 55.9492 42.1426C55.931 42.0059 55.9082 41.8828 55.8809 41.7734C55.8626 41.6823 55.8398 41.5137 55.8125 41.2676C55.7852 41.0215 55.7533 40.7617 55.7168 40.4883C55.6895 40.2148 55.6621 39.9596 55.6348 39.7227C55.6074 39.4766 55.5892 39.3034 55.5801 39.2031C55.571 39.1849 55.5618 39.1348 55.5527 39.0527C55.5436 38.9616 55.5299 38.8978 55.5117 38.8613C55.5117 38.8431 55.5026 38.7975 55.4844 38.7246C55.4753 38.6882 55.4661 38.6562 55.457 38.6289H55.416C55.3522 38.8659 55.2702 39.0983 55.1699 39.3262C55.0697 39.554 54.9922 39.7865 54.9375 40.0234C54.9375 40.0508 54.9238 40.1191 54.8965 40.2285C54.8783 40.3288 54.8555 40.4382 54.8281 40.5566C54.8008 40.6751 54.7734 40.7845 54.7461 40.8848C54.7279 40.985 54.7142 41.0488 54.7051 41.0762C54.696 41.1217 54.6641 41.2311 54.6094 41.4043C54.5638 41.5684 54.5091 41.7461 54.4453 41.9375C54.3815 42.1289 54.3223 42.3066 54.2676 42.4707C54.222 42.6348 54.1947 42.735 54.1855 42.7715C54.0671 43.1634 53.9668 43.5371 53.8848 43.8926C53.8027 44.248 53.6615 44.599 53.4609 44.9453C53.4609 44.9453 53.4518 44.9544 53.4336 44.9727C53.4245 44.9818 53.4199 44.9909 53.4199 45H51.4238C51.4056 45 51.3737 44.9863 51.3281 44.959C51.2917 44.9316 51.2643 44.9089 51.2461 44.8906C50.9727 44.2799 50.7083 43.6693 50.4531 43.0586C50.207 42.4479 49.9655 41.8281 49.7285 41.1992C49.7194 41.181 49.7012 41.1309 49.6738 41.0488C49.6465 40.9668 49.6146 40.8802 49.5781 40.7891C49.5417 40.6979 49.5098 40.6113 49.4824 40.5293C49.4551 40.4473 49.4414 40.3971 49.4414 40.3789C49.4323 40.3698 49.4141 40.3379 49.3867 40.2832C49.3685 40.2285 49.3457 40.1738 49.3184 40.1191C49.291 40.0645 49.2637 40.0143 49.2363 39.9688C49.2181 39.9141 49.2044 39.8776 49.1953 39.8594C49.1406 39.7044 49.0905 39.5449 49.0449 39.3809C48.9993 39.2168 48.9355 39.0664 48.8535 38.9297L48.7988 39.0391L48.6348 40.4473V40.625L48.1426 44.3027C48.1243 44.3665 48.1152 44.4349 48.1152 44.5078C48.1152 44.5807 48.1107 44.6536 48.1016 44.7266C48.1016 44.7995 48.0924 44.8678 48.0742 44.9316C48.0651 44.9954 48.0332 45.041 47.9785 45.0684C47.9603 45.0684 47.9056 45.082 47.8145 45.1094C47.7233 45.1458 47.6595 45.1686 47.623 45.1777C47.5866 45.1868 47.5319 45.2005 47.459 45.2188C47.3861 45.237 47.3405 45.2461 47.3223 45.2461H45.6953L45.5723 45.1777C45.5632 45.1322 45.5586 45.0911 45.5586 45.0547V44.8906C45.5586 44.5078 45.6042 44.1296 45.6953 43.7559C45.7956 43.373 45.873 42.9902 45.9277 42.6074C45.9368 42.5527 45.9551 42.4206 45.9824 42.2109C46.0098 41.9922 46.0371 41.7552 46.0645 41.5C46.1009 41.2448 46.1328 40.9987 46.1602 40.7617C46.1875 40.5156 46.2103 40.3288 46.2285 40.2012C46.2285 40.1829 46.2285 40.1419 46.2285 40.0781C46.2376 40.0052 46.2422 39.9323 46.2422 39.8594C46.2513 39.7773 46.2559 39.7044 46.2559 39.6406C46.265 39.5677 46.2695 39.5221 46.2695 39.5039C46.2878 39.349 46.3197 39.194 46.3652 39.0391C46.4108 38.875 46.4382 38.7155 46.4473 38.5605V38.041C46.4473 38.0228 46.4655 37.9818 46.502 37.918C46.5384 37.8542 46.5612 37.8177 46.5703 37.8086C46.6159 37.6263 46.6523 37.4212 46.6797 37.1934C46.707 36.9655 46.7298 36.7604 46.748 36.5781C46.748 36.5599 46.7435 36.5052 46.7344 36.4141C46.7344 36.3138 46.7389 36.2546 46.748 36.2363C46.748 36.2181 46.7572 36.1953 46.7754 36.168C46.7936 36.1406 46.8027 36.1224 46.8027 36.1133C46.8483 35.9401 46.8711 35.7806 46.8711 35.6348C46.8802 35.4889 46.8984 35.3158 46.9258 35.1152C46.9258 35.0788 46.9303 35.0195 46.9395 34.9375C46.9486 34.8555 46.9577 34.7689 46.9668 34.6777C46.985 34.5775 46.9987 34.4863 47.0078 34.4043C47.026 34.3223 47.0397 34.2676 47.0488 34.2402C47.0671 34.1673 47.1126 34.1081 47.1855 34.0625C47.2676 34.0078 47.3542 33.9622 47.4453 33.9258C47.5456 33.8893 47.6413 33.8665 47.7324 33.8574C47.8327 33.8392 47.9147 33.8301 47.9785 33.8301H49.4961L49.5234 33.8574L49.5508 33.8848C49.5781 33.9212 49.6146 33.985 49.6602 34.0762C49.7057 34.1673 49.7285 34.222 49.7285 34.2402C49.7285 34.2585 49.7331 34.2949 49.7422 34.3496C49.7604 34.3952 49.7741 34.4453 49.7832 34.5C49.8014 34.5547 49.8151 34.6094 49.8242 34.6641C49.8333 34.7188 49.8424 34.7507 49.8516 34.7598C49.8698 34.8236 49.9062 34.8828 49.9609 34.9375C49.9609 35.1016 49.9837 35.2702 50.0293 35.4434C50.0749 35.6165 50.1296 35.7943 50.1934 35.9766C50.2572 36.1497 50.321 36.3229 50.3848 36.4961C50.4486 36.6693 50.5033 36.8333 50.5488 36.9883C50.5671 36.9974 50.5853 37.0156 50.6035 37.043C50.6309 37.0703 50.6536 37.0931 50.6719 37.1113C50.681 37.1296 50.6901 37.1797 50.6992 37.2617C50.7174 37.3346 50.7266 37.3802 50.7266 37.3984C50.7448 37.444 50.7721 37.526 50.8086 37.6445C50.8542 37.763 50.8815 37.8359 50.8906 37.8633C50.9089 37.8724 50.9316 37.8997 50.959 37.9453C50.9863 37.9909 51.0046 38.0228 51.0137 38.041C51.0319 38.0592 51.0456 38.0911 51.0547 38.1367C51.0638 38.1732 51.0684 38.196 51.0684 38.2051C51.1048 38.278 51.1732 38.4102 51.2734 38.6016C51.3737 38.793 51.474 38.998 51.5742 39.2168C51.6836 39.4264 51.7839 39.627 51.875 39.8184C51.9661 40.0007 52.0299 40.1283 52.0664 40.2012C52.0755 40.2194 52.0938 40.2695 52.1211 40.3516C52.1576 40.4336 52.1803 40.4837 52.1895 40.502C52.1895 40.5111 52.194 40.5339 52.2031 40.5703C52.2214 40.5977 52.235 40.6159 52.2441 40.625C52.3353 40.4974 52.3854 40.3607 52.3945 40.2148C52.4128 40.069 52.4447 39.9323 52.4902 39.8047C52.4902 39.7956 52.4993 39.7773 52.5176 39.75C52.5358 39.7135 52.5449 39.6908 52.5449 39.6816C52.554 39.6725 52.5632 39.6452 52.5723 39.5996C52.5814 39.554 52.5859 39.5221 52.5859 39.5039C52.6953 39.1576 52.7956 38.8021 52.8867 38.4375C52.987 38.0638 53.0872 37.6947 53.1875 37.3301C53.1875 37.3118 53.1921 37.2572 53.2012 37.166C53.2194 37.0658 53.2331 37.0065 53.2422 36.9883C53.2422 36.9792 53.2513 36.9473 53.2695 36.8926C53.2878 36.8379 53.306 36.7832 53.3242 36.7285C53.3424 36.6647 53.3607 36.61 53.3789 36.5645C53.3971 36.5098 53.4108 36.4733 53.4199 36.4551C53.4199 36.4368 53.4245 36.3913 53.4336 36.3184C53.4518 36.2363 53.4609 36.1862 53.4609 36.168C53.4792 36.1497 53.5111 36.0905 53.5566 35.9902C53.6113 35.89 53.6387 35.8307 53.6387 35.8125C53.6478 35.7943 53.6615 35.7533 53.6797 35.6895C53.707 35.6165 53.7344 35.5436 53.7617 35.4707C53.7891 35.3887 53.8118 35.3158 53.8301 35.252C53.8574 35.179 53.8757 35.1335 53.8848 35.1152C53.8848 35.097 53.8984 35.056 53.9258 34.9922C53.9531 34.9193 53.985 34.8464 54.0215 34.7734C54.0579 34.6914 54.0898 34.6185 54.1172 34.5547C54.1536 34.4818 54.1764 34.4362 54.1855 34.418C54.1855 34.4089 54.1947 34.3815 54.2129 34.3359C54.2311 34.2812 54.2493 34.2311 54.2676 34.1855C54.2858 34.1309 54.304 34.0807 54.3223 34.0352C54.3405 33.9896 54.3542 33.9577 54.3633 33.9395C54.3633 33.9303 54.377 33.9121 54.4043 33.8848C54.4316 33.8483 54.4499 33.8301 54.459 33.8301C54.6686 33.7845 54.8783 33.7617 55.0879 33.7617C55.3066 33.7617 55.5208 33.7617 55.7305 33.7617H56.4551C56.5827 33.7799 56.6829 33.8392 56.7559 33.9395C56.8288 34.0397 56.888 34.14 56.9336 34.2402L57.166 34.9375C57.166 34.9557 57.1706 34.9876 57.1797 35.0332C57.1979 35.0788 57.2116 35.1289 57.2207 35.1836C57.2389 35.2292 57.2526 35.2793 57.2617 35.334C57.2708 35.3796 57.2799 35.4069 57.2891 35.416C57.2891 35.4251 57.3027 35.4616 57.3301 35.5254C57.3665 35.5892 57.3848 35.6257 57.3848 35.6348C57.3939 35.6621 57.3939 35.735 57.3848 35.8535C57.3848 35.9629 57.3848 36.0312 57.3848 36.0586C57.4303 36.5234 57.5215 36.9837 57.6582 37.4395C57.7949 37.8861 57.9043 38.3418 57.9863 38.8066C57.9863 38.8249 57.9863 38.8613 57.9863 38.916C57.9954 38.9616 58.0046 39.0117 58.0137 39.0664C58.0228 39.1211 58.0273 39.1758 58.0273 39.2305C58.0365 39.2852 58.041 39.3171 58.041 39.3262C58.041 39.3626 58.0456 39.4219 58.0547 39.5039C58.0729 39.5768 58.0866 39.6543 58.0957 39.7363C58.1139 39.8092 58.1276 39.8822 58.1367 39.9551C58.1458 40.0189 58.1549 40.0599 58.1641 40.0781C58.2917 40.7982 58.401 41.5137 58.4922 42.2246C58.5833 42.9355 58.6289 43.6556 58.6289 44.3848V45.2461C58.5742 45.2461 58.474 45.2507 58.3281 45.2598C58.1914 45.2689 58.0456 45.278 57.8906 45.2871C57.7357 45.3053 57.5898 45.319 57.4531 45.3281C57.3164 45.3372 57.2207 45.3464 57.166 45.3555H57.0703C56.9883 45.3555 56.8971 45.3509 56.7969 45.3418C56.7057 45.3418 56.6146 45.3281 56.5234 45.3008C56.4414 45.2734 56.3685 45.2324 56.3047 45.1777C56.2409 45.123 56.1953 45.0456 56.168 44.9453ZM61.4442 45C61.4078 44.9909 61.3895 44.9681 61.3895 44.9316C61.3895 44.8952 61.3895 44.8633 61.3895 44.8359C61.3895 44.763 61.4214 44.6855 61.4852 44.6035C61.549 44.5124 61.5946 44.4303 61.622 44.3574C61.6311 44.3301 61.6493 44.2799 61.6766 44.207C61.704 44.125 61.7313 44.0384 61.7587 43.9473C61.7951 43.847 61.827 43.7604 61.8544 43.6875C61.8817 43.6055 61.8999 43.5508 61.9091 43.5234C61.9182 43.4961 61.9318 43.4551 61.9501 43.4004C61.9774 43.3457 62.0048 43.2865 62.0321 43.2227C62.0595 43.1589 62.0822 43.1042 62.1005 43.0586C62.1278 43.0039 62.1415 42.9674 62.1415 42.9492C62.1506 42.9401 62.1688 42.9128 62.1962 42.8672C62.2235 42.8216 62.2509 42.7715 62.2782 42.7168C62.3055 42.6621 62.3283 42.6165 62.3466 42.5801C62.3739 42.5345 62.3876 42.5026 62.3876 42.4844C62.3967 42.4479 62.4332 42.3477 62.497 42.1836C62.5608 42.0195 62.6291 41.8464 62.702 41.6641C62.7749 41.4727 62.8433 41.2995 62.9071 41.1445C62.9709 40.9805 63.0119 40.8757 63.0302 40.8301C63.0484 40.7936 63.0848 40.7207 63.1395 40.6113C63.2033 40.4928 63.2443 40.4154 63.2626 40.3789L65.4774 34.2949C65.4865 34.2767 65.5002 34.2448 65.5184 34.1992C65.5458 34.1445 65.5686 34.0898 65.5868 34.0352C65.6141 33.9805 65.6369 33.9303 65.6552 33.8848C65.6825 33.8301 65.7007 33.7891 65.7098 33.7617L65.7782 33.6934H65.9696H66.1884C66.2248 33.6934 66.316 33.6979 66.4618 33.707C66.6076 33.7161 66.7671 33.7253 66.9403 33.7344C67.1135 33.7344 67.273 33.7389 67.4188 33.748C67.5647 33.7572 67.6604 33.7617 67.7059 33.7617C67.7697 33.7617 67.829 33.7617 67.8837 33.7617C67.9384 33.7526 67.9976 33.7708 68.0614 33.8164C68.1343 33.8711 68.1981 33.9349 68.2528 34.0078C68.3075 34.0807 68.3576 34.1536 68.4032 34.2266C68.4305 34.2721 68.467 34.3314 68.5126 34.4043C68.5582 34.4772 68.5992 34.5501 68.6356 34.623C68.6812 34.696 68.7222 34.7643 68.7587 34.8281C68.7951 34.8828 68.8179 34.9147 68.827 34.9238C68.8544 34.9876 68.8999 35.0879 68.9638 35.2246C69.0276 35.3522 69.0914 35.4889 69.1552 35.6348C69.2281 35.7806 69.2919 35.9128 69.3466 36.0312C69.4013 36.1497 69.4377 36.2272 69.4559 36.2637C69.4651 36.291 69.4833 36.3503 69.5106 36.4414C69.538 36.5234 69.5699 36.6146 69.6063 36.7148C69.6428 36.8151 69.6747 36.9108 69.702 37.002C69.7294 37.084 69.7476 37.1387 69.7567 37.166C69.9299 37.6491 70.1395 38.1185 70.3856 38.5742C70.6317 39.0208 70.8505 39.4811 71.0419 39.9551C71.0601 40.0098 71.1011 40.1237 71.1649 40.2969C71.2287 40.4609 71.3016 40.6569 71.3837 40.8848C71.4748 41.1126 71.566 41.3542 71.6571 41.6094C71.7483 41.8646 71.8348 42.1061 71.9169 42.334C72.008 42.5527 72.0855 42.7441 72.1493 42.9082C72.2131 43.0723 72.2541 43.1816 72.2723 43.2363C72.2815 43.2728 72.3179 43.3594 72.3817 43.4961C72.4455 43.6237 72.4865 43.7103 72.5048 43.7559C72.523 43.8014 72.5549 43.8698 72.6005 43.9609C72.646 44.043 72.6916 44.1341 72.7372 44.2344C72.7828 44.3346 72.8283 44.4303 72.8739 44.5215C72.9195 44.6035 72.9514 44.6628 72.9696 44.6992V44.7539C72.9696 44.7995 72.9514 44.8405 72.9149 44.877C72.8785 44.9043 72.8329 44.9271 72.7782 44.9453C72.7326 44.9635 72.6825 44.9772 72.6278 44.9863C72.5731 44.9954 72.5321 45 72.5048 45C72.4774 45 72.4091 45 72.2997 45C72.1903 45 72.0718 45 71.9442 45C71.8257 45 71.7118 45 71.6024 45C71.493 45 71.4247 45 71.3973 45C71.2697 45 71.1376 45.0182 71.0009 45.0547C70.8733 45.1003 70.7365 45.123 70.5907 45.123C70.5178 45.123 70.4585 45.1185 70.413 45.1094C70.3674 45.1094 70.3036 45.0911 70.2216 45.0547C70.2216 45.0547 70.2124 45.0456 70.1942 45.0273L70.1669 45C70.0848 44.8451 70.021 44.722 69.9755 44.6309C69.939 44.5306 69.8843 44.3984 69.8114 44.2344C69.7932 44.2161 69.7613 44.1569 69.7157 44.0566C69.6701 43.9564 69.6428 43.8971 69.6337 43.8789C69.579 43.7057 69.5471 43.5553 69.538 43.4277C69.5289 43.3001 69.4651 43.1589 69.3466 43.0039C69.3374 42.9948 69.3192 42.9857 69.2919 42.9766C69.2645 42.9583 69.2417 42.9492 69.2235 42.9492C69.1506 42.9492 69.0276 42.9447 68.8544 42.9355C68.6903 42.9264 68.5126 42.9219 68.3212 42.9219C68.1298 42.9128 67.9475 42.9036 67.7743 42.8945C67.6011 42.8854 67.4781 42.8809 67.4052 42.8809C67.3869 42.8809 67.3459 42.8809 67.2821 42.8809C67.2274 42.8717 67.1636 42.8626 67.0907 42.8535C67.0178 42.8444 66.9494 42.8398 66.8856 42.8398C66.8218 42.8307 66.7854 42.8262 66.7763 42.8262H66.5165C66.2613 42.8262 66.0061 42.8353 65.7509 42.8535C65.5048 42.8717 65.2587 42.9036 65.0126 42.9492C64.8576 42.9766 64.7437 43.0495 64.6708 43.168C64.607 43.2773 64.5432 43.3958 64.4794 43.5234C64.4703 43.5508 64.452 43.6009 64.4247 43.6738C64.3973 43.7467 64.3654 43.8242 64.329 43.9062C64.3016 43.9792 64.2743 44.0475 64.247 44.1113C64.2196 44.1751 64.2014 44.2161 64.1923 44.2344C64.1832 44.2526 64.1649 44.2982 64.1376 44.3711C64.1193 44.4349 64.0966 44.5078 64.0692 44.5898C64.0419 44.6628 64.0145 44.7357 63.9872 44.8086C63.969 44.8724 63.9598 44.9134 63.9598 44.9316C63.8869 45.1139 63.8049 45.2096 63.7138 45.2188C63.6226 45.2279 63.4904 45.2324 63.3173 45.2324C62.9983 45.2324 62.6929 45.1914 62.4013 45.1094C62.1096 45.0365 61.7906 45 61.4442 45ZM67.0087 37.4395C66.9996 37.4486 66.9859 37.4714 66.9677 37.5078C66.9585 37.5352 66.954 37.5534 66.954 37.5625C66.954 37.5807 66.9449 37.6126 66.9266 37.6582C66.9084 37.7038 66.8856 37.7539 66.8583 37.8086C66.8401 37.8542 66.8218 37.9043 66.8036 37.959C66.7854 38.0046 66.7763 38.0319 66.7763 38.041C66.7671 38.0501 66.7489 38.082 66.7216 38.1367C66.7033 38.1823 66.6805 38.237 66.6532 38.3008C66.6259 38.3555 66.5985 38.4102 66.5712 38.4648C66.5529 38.5195 66.5393 38.5514 66.5302 38.5605C66.4846 38.6699 66.4299 38.8158 66.3661 38.998C66.3023 39.1803 66.2385 39.3626 66.1747 39.5449C66.1109 39.7181 66.0562 39.8685 66.0106 39.9961C65.9742 40.1237 65.9559 40.1875 65.9559 40.1875V40.3105H68.1845C68.1936 40.3105 68.2118 40.2969 68.2391 40.2695C68.2665 40.2331 68.2893 40.2057 68.3075 40.1875V40.1328C68.3075 40.0599 68.2847 39.9733 68.2391 39.873C68.1936 39.7637 68.1571 39.6771 68.1298 39.6133C68.0477 39.4583 67.9475 39.2624 67.829 39.0254C67.7105 38.7884 67.592 38.5605 67.4735 38.3418C67.3641 38.1139 67.2684 37.918 67.1864 37.7539C67.1044 37.5898 67.0634 37.5078 67.0634 37.5078L67.0087 37.4395ZM76.4959 44.8223C76.4959 44.7038 76.4913 44.5169 76.4822 44.2617C76.4822 43.9974 76.4776 43.7057 76.4685 43.3867C76.4594 43.0586 76.4503 42.7168 76.4412 42.3613C76.4321 42.0059 76.4229 41.6686 76.4138 41.3496C76.4138 41.0215 76.4093 40.7298 76.4002 40.4746C76.391 40.2194 76.3819 40.0326 76.3728 39.9141C76.3728 39.8594 76.3591 39.7227 76.3318 39.5039C76.3136 39.2852 76.2953 39.0527 76.2771 38.8066C76.2589 38.5514 76.2407 38.3145 76.2224 38.0957C76.2042 37.877 76.1951 37.7402 76.1951 37.6855C76.1586 37.6582 76.1358 37.5671 76.1267 37.4121C76.1176 37.2572 76.113 37.0794 76.113 36.8789C76.1222 36.6784 76.1313 36.4779 76.1404 36.2773C76.1586 36.0677 76.1723 35.9082 76.1814 35.7988C76.1814 35.7259 76.1814 35.6165 76.1814 35.4707C76.1814 35.3158 76.1814 35.1608 76.1814 35.0059C76.1905 34.8509 76.1951 34.7096 76.1951 34.582C76.1951 34.4544 76.1951 34.3724 76.1951 34.3359L76.2498 33.8848L76.3181 33.8164C76.3546 33.8164 76.4275 33.821 76.5369 33.8301C76.6462 33.8301 76.7556 33.8301 76.865 33.8301C76.9835 33.8301 77.0929 33.8301 77.1931 33.8301C77.3025 33.821 77.38 33.8164 77.4255 33.8164C77.462 33.8164 77.5395 33.8118 77.658 33.8027C77.7765 33.7936 77.8539 33.7799 77.8904 33.7617H79.0388H80.1736C80.1918 33.7617 80.2328 33.7663 80.2966 33.7754C80.3604 33.7754 80.4288 33.7799 80.5017 33.7891C80.5837 33.7891 80.6567 33.7936 80.7205 33.8027C80.7934 33.8118 80.8435 33.8164 80.8709 33.8164C81.2628 33.862 81.6091 33.9941 81.9099 34.2129C82.2198 34.4316 82.475 34.696 82.6755 35.0059C82.8761 35.3158 83.0265 35.6576 83.1267 36.0312C83.2361 36.4049 83.2908 36.7695 83.2908 37.125C83.2908 37.3893 83.2498 37.6719 83.1677 37.9727C83.0948 38.2643 82.9809 38.5469 82.8259 38.8203C82.6801 39.0938 82.5024 39.3398 82.2927 39.5586C82.0831 39.7682 81.8461 39.9232 81.5818 40.0234V40.0508V40.0781C81.6 40.0964 81.6183 40.1374 81.6365 40.2012C81.6638 40.265 81.6821 40.306 81.6912 40.3242C81.7823 40.4518 81.878 40.5977 81.9783 40.7617C82.0785 40.9258 82.1834 41.0716 82.2927 41.1992C82.4386 41.3815 82.5707 41.6094 82.6892 41.8828C82.8077 42.1562 82.9262 42.3978 83.0447 42.6074C83.0629 42.6257 83.0994 42.6803 83.1541 42.7715C83.2179 42.8626 83.2634 42.9219 83.2908 42.9492C83.2999 42.9674 83.3272 42.9993 83.3728 43.0449C83.4184 43.0905 83.4457 43.1178 83.4548 43.127C83.4548 43.1361 83.464 43.168 83.4822 43.2227C83.5004 43.2682 83.5095 43.2956 83.5095 43.3047C83.5916 43.487 83.6918 43.7012 83.8103 43.9473C83.9288 44.1934 83.988 44.4212 83.988 44.6309V44.6445L83.865 44.7676C83.7921 44.7767 83.669 44.7904 83.4959 44.8086C83.3227 44.8177 83.1404 44.8359 82.949 44.8633C82.7576 44.8815 82.5753 44.8997 82.4021 44.918C82.2289 44.9271 82.1104 44.9362 82.0466 44.9453C82.0284 44.9453 81.9783 44.9544 81.8962 44.9727C81.8142 44.9909 81.7686 45 81.7595 45H81.6228C81.5317 45 81.4633 44.9681 81.4177 44.9043C81.3813 44.8405 81.3403 44.7721 81.2947 44.6992C81.2673 44.6536 81.2127 44.5671 81.1306 44.4395C81.0577 44.3027 81.0121 44.2161 80.9939 44.1797L79.7087 41.6094C79.6085 41.418 79.4946 41.2311 79.367 41.0488C79.2485 40.8574 79.1072 40.6934 78.9431 40.5566V40.6387C78.9431 40.8301 78.9568 41.0215 78.9841 41.2129C79.0115 41.3952 79.0388 41.582 79.0662 41.7734C79.0753 41.901 79.0844 42.0423 79.0935 42.1973C79.1026 42.3431 79.13 42.4798 79.1755 42.6074V44.877C79.1755 44.9681 79.13 45.0273 79.0388 45.0547C78.9568 45.0911 78.8839 45.1139 78.8201 45.123C78.6104 45.1504 78.4327 45.1641 78.2869 45.1641C78.1502 45.1732 77.977 45.1777 77.7673 45.1777H77.4802C77.462 45.1777 77.4255 45.1732 77.3709 45.1641C77.3253 45.1549 77.2706 45.1413 77.2068 45.123C77.1521 45.1139 77.0929 45.1003 77.0291 45.082C76.9653 45.0729 76.9197 45.0638 76.8923 45.0547C76.8559 45.0456 76.7921 45.0273 76.7009 45C76.6189 44.9727 76.5688 44.9544 76.5505 44.9453C76.5323 44.9362 76.5186 44.918 76.5095 44.8906C76.5004 44.8542 76.4959 44.8314 76.4959 44.8223ZM78.8884 36.168C78.8884 36.1771 78.8976 36.2044 78.9158 36.25C78.934 36.2956 78.9431 36.3229 78.9431 36.332V36.6875C78.9431 36.7695 78.9477 36.8743 78.9568 37.002C78.9659 37.1296 78.9705 37.2526 78.9705 37.3711C78.9796 37.4896 78.9841 37.5944 78.9841 37.6855C78.9933 37.7676 78.9978 37.8086 78.9978 37.8086L79.0662 37.918C79.1026 37.9271 79.1391 37.9316 79.1755 37.9316H79.367C79.7133 37.9316 80.0095 37.8906 80.2556 37.8086C80.5017 37.7266 80.7478 37.5534 80.9939 37.2891C81.0395 37.2344 81.0623 37.1797 81.0623 37.125C81.0623 37.0703 81.0623 37.0111 81.0623 36.9473C81.0623 36.929 81.0577 36.9108 81.0486 36.8926C81.0486 36.8743 81.0486 36.8561 81.0486 36.8379V36.7559C81.0395 36.6647 80.9711 36.5736 80.8435 36.4824C80.7159 36.3822 80.5701 36.3001 80.406 36.2363C80.242 36.1634 80.0779 36.1042 79.9138 36.0586C79.7498 36.013 79.6267 35.9902 79.5447 35.9902C79.5173 35.9902 79.4672 35.9948 79.3943 36.0039C79.3214 36.0039 79.2485 36.0085 79.1755 36.0176C79.1026 36.0267 79.0343 36.0404 78.9705 36.0586C78.9158 36.0768 78.8884 36.0996 78.8884 36.127V36.168ZM87.3776 44.7676C87.3958 43.1178 87.3913 41.4772 87.3639 39.8457C87.3366 38.2051 87.3229 36.5508 87.3229 34.8828V33.8848L87.3776 33.8301H88.9635C88.9726 33.8301 89.0091 33.8301 89.0729 33.8301C89.1367 33.821 89.2051 33.8164 89.278 33.8164C89.36 33.8073 89.4284 33.7982 89.483 33.7891C89.5468 33.7799 89.5879 33.7708 89.6061 33.7617H89.7428C89.8978 33.7617 90.0117 33.8346 90.0846 33.9805C90.1575 34.1172 90.194 34.2493 90.194 34.377V34.418C90.194 34.4271 90.1894 34.4499 90.1803 34.4863C90.1712 34.5228 90.1621 34.5638 90.153 34.6094C90.1439 34.6549 90.1347 34.7005 90.1256 34.7461C90.1256 34.7826 90.1256 34.8053 90.1256 34.8145V35.416V35.9902C90.1256 36.054 90.1302 36.1862 90.1393 36.3867C90.1484 36.5781 90.1575 36.8105 90.1666 37.084C90.1849 37.3483 90.1985 37.6309 90.2077 37.9316C90.2259 38.2233 90.2396 38.5059 90.2487 38.7793C90.2669 39.0436 90.2806 39.276 90.2897 39.4766C90.2988 39.668 90.3034 39.7956 90.3034 39.8594C90.3034 39.8867 90.3034 39.9915 90.3034 40.1738C90.3125 40.3561 90.317 40.5703 90.317 40.8164C90.317 41.0625 90.317 41.3086 90.317 41.5547C90.317 41.8008 90.317 41.9967 90.317 42.1426C90.317 42.2246 90.317 42.375 90.317 42.5938C90.317 42.8125 90.317 43.0449 90.317 43.291C90.317 43.528 90.3125 43.7559 90.3034 43.9746C90.3034 44.1934 90.3034 44.3438 90.3034 44.4258C90.2578 44.5716 90.1849 44.6855 90.0846 44.7676C89.9935 44.8496 89.8841 44.9134 89.7565 44.959C89.638 44.9954 89.5058 45.0182 89.36 45.0273C89.2233 45.0456 89.0911 45.0592 88.9635 45.0684C88.9362 45.0684 88.8678 45.0684 88.7584 45.0684C88.6491 45.0775 88.526 45.082 88.3893 45.082C88.2617 45.0911 88.1341 45.1003 88.0065 45.1094C87.888 45.1185 87.7968 45.123 87.733 45.123H87.61C87.5735 45.123 87.5371 45.123 87.5006 45.123C87.4733 45.123 87.4551 45.1048 87.4459 45.0684C87.4368 45.041 87.4232 44.9909 87.4049 44.918C87.3958 44.8451 87.3867 44.7949 87.3776 44.7676ZM93.6382 42.416C93.6382 42.4069 93.6428 42.3932 93.6519 42.375C93.6701 42.3659 93.7066 42.3294 93.7612 42.2656C93.8159 42.2018 93.857 42.1608 93.8843 42.1426C93.9116 42.1243 93.9572 42.0879 94.021 42.0332C94.0939 41.9694 94.1714 41.9102 94.2534 41.8555C94.3355 41.7917 94.4129 41.7324 94.4859 41.6777C94.5588 41.6139 94.6135 41.5729 94.6499 41.5547C94.659 41.5456 94.6864 41.5273 94.732 41.5C94.7866 41.4635 94.8413 41.4271 94.896 41.3906C94.9507 41.3542 95.0054 41.3177 95.0601 41.2812C95.1148 41.2448 95.1558 41.2174 95.1831 41.1992C95.1922 41.1901 95.2105 41.181 95.2378 41.1719C95.2652 41.1536 95.2879 41.1445 95.3062 41.1445H95.3198H95.3472C95.6115 41.3815 95.853 41.6322 96.0718 41.8965C96.2997 42.1517 96.5458 42.3887 96.8101 42.6074C96.9377 42.7077 97.0562 42.7806 97.1655 42.8262C97.284 42.8717 97.4253 42.8945 97.5894 42.8945C97.6805 42.8945 97.7762 42.89 97.8765 42.8809C97.9767 42.8626 98.0497 42.8125 98.0952 42.7305V42.457C98.0952 42.0924 98.0086 41.7552 97.8355 41.4453C97.6623 41.1354 97.4435 40.862 97.1792 40.625C97.1428 40.5977 97.0744 40.5384 96.9741 40.4473C96.883 40.3561 96.7736 40.2559 96.646 40.1465C96.5184 40.028 96.3817 39.9049 96.2359 39.7773C96.09 39.6406 95.9533 39.513 95.8257 39.3945C95.6981 39.276 95.5842 39.1758 95.4839 39.0938C95.3928 39.0117 95.3335 38.957 95.3062 38.9297C95.1148 38.7474 94.9279 38.5514 94.7456 38.3418C94.5724 38.123 94.4175 37.8952 94.2808 37.6582C94.1441 37.4212 94.0347 37.1751 93.9527 36.9199C93.8706 36.6556 93.8296 36.3867 93.8296 36.1133C93.8296 35.776 93.898 35.4844 94.0347 35.2383C94.1714 34.9922 94.3355 34.7324 94.5269 34.459C94.5451 34.4499 94.5724 34.4271 94.6089 34.3906C94.6545 34.3451 94.6864 34.3132 94.7046 34.2949C95.0418 34.0033 95.4019 33.7663 95.7847 33.584C96.1675 33.3926 96.5913 33.2969 97.0562 33.2969C97.4208 33.2969 97.7443 33.3333 98.0269 33.4062C98.3185 33.4792 98.5874 33.584 98.8335 33.7207C99.0796 33.8574 99.3166 34.0306 99.5445 34.2402C99.7814 34.4408 100.023 34.6732 100.269 34.9375C100.369 35.0378 100.442 35.1289 100.488 35.2109C100.542 35.2839 100.57 35.3841 100.57 35.5117V35.6348C100.561 35.6439 100.524 35.6803 100.46 35.7441C100.406 35.8079 100.36 35.8535 100.324 35.8809C100.278 35.9173 100.201 35.9811 100.091 36.0723C99.9911 36.1543 99.8817 36.2454 99.7632 36.3457C99.6538 36.446 99.5445 36.5417 99.4351 36.6328C99.3257 36.7148 99.2528 36.7741 99.2163 36.8105H99.0659C99.0112 36.8105 98.9702 36.8151 98.9429 36.8242C98.9247 36.8242 98.9019 36.8014 98.8745 36.7559C98.8654 36.7467 98.8472 36.7148 98.8198 36.6602C98.7925 36.6055 98.7606 36.5508 98.7241 36.4961C98.6877 36.4323 98.6558 36.3776 98.6284 36.332C98.6011 36.2773 98.5829 36.2454 98.5737 36.2363C98.5555 36.2272 98.5236 36.1999 98.478 36.1543C98.4325 36.0996 98.3823 36.0449 98.3277 35.9902C98.273 35.9355 98.2183 35.8809 98.1636 35.8262C98.118 35.7715 98.0816 35.7305 98.0542 35.7031C97.954 35.6211 97.8309 35.571 97.6851 35.5527C97.5484 35.5254 97.4208 35.5117 97.3023 35.5117C97.1382 35.5117 97.0106 35.5254 96.9195 35.5527C96.8283 35.571 96.7554 35.612 96.7007 35.6758C96.646 35.7396 96.605 35.8216 96.5777 35.9219C96.5594 36.0221 96.5412 36.1452 96.523 36.291V36.3184C96.523 36.3822 96.5594 36.4688 96.6323 36.5781C96.7144 36.6875 96.7736 36.765 96.8101 36.8105L97.7534 37.7539C97.7626 37.763 97.7945 37.7904 97.8491 37.8359C97.9038 37.8724 97.9585 37.9134 98.0132 37.959C98.0679 38.0046 98.118 38.0501 98.1636 38.0957C98.2183 38.1322 98.2547 38.1549 98.273 38.1641C98.6102 38.4284 98.911 38.7109 99.1753 39.0117C99.4487 39.3125 99.7131 39.6361 99.9683 39.9824C100.078 40.2194 100.182 40.429 100.283 40.6113C100.383 40.7845 100.47 40.9577 100.542 41.1309C100.625 41.2949 100.688 41.4818 100.734 41.6914C100.779 41.8919 100.802 42.138 100.802 42.4297V42.9492C100.757 43.1315 100.693 43.3047 100.611 43.4688C100.529 43.6237 100.415 43.765 100.269 43.8926C100.233 43.9199 100.173 43.9701 100.091 44.043C100.009 44.1159 99.9182 44.1888 99.8179 44.2617C99.7267 44.3346 99.6402 44.403 99.5581 44.4668C99.4761 44.5306 99.4214 44.5762 99.3941 44.6035C99.3667 44.6217 99.3075 44.6628 99.2163 44.7266C99.1252 44.7812 99.0705 44.8132 99.0523 44.8223C98.9976 44.8587 98.9064 44.9089 98.7788 44.9727C98.6603 45.0273 98.592 45.0592 98.5737 45.0684C98.5464 45.0684 98.478 45.0775 98.3687 45.0957C98.2684 45.123 98.1545 45.1504 98.0269 45.1777C97.9084 45.2051 97.7899 45.2279 97.6714 45.2461C97.5529 45.2734 97.4618 45.2917 97.398 45.3008H97.3023C97.1473 45.3008 96.9878 45.2826 96.8237 45.2461C96.6597 45.2096 96.5002 45.1686 96.3452 45.123C95.9442 45.0046 95.6024 44.8268 95.3198 44.5898C95.0373 44.3438 94.7547 44.0703 94.4722 43.7695C94.4357 43.7331 94.3902 43.6875 94.3355 43.6328C94.2808 43.569 94.2261 43.5098 94.1714 43.4551C94.1167 43.3913 94.0666 43.3366 94.021 43.291C93.9754 43.2363 93.9527 43.2044 93.9527 43.1953C93.9344 43.1771 93.9116 43.1224 93.8843 43.0312C93.857 42.931 93.8387 42.8717 93.8296 42.8535C93.8205 42.8353 93.7932 42.7852 93.7476 42.7031C93.702 42.6211 93.6701 42.571 93.6519 42.5527C93.6428 42.5436 93.6382 42.5299 93.6382 42.5117V42.457V42.416ZM103.618 45C103.581 44.9909 103.563 44.9681 103.563 44.9316C103.563 44.8952 103.563 44.8633 103.563 44.8359C103.563 44.763 103.595 44.6855 103.659 44.6035C103.722 44.5124 103.768 44.4303 103.795 44.3574C103.804 44.3301 103.823 44.2799 103.85 44.207C103.877 44.125 103.905 44.0384 103.932 43.9473C103.968 43.847 104 43.7604 104.028 43.6875C104.055 43.6055 104.073 43.5508 104.082 43.5234C104.092 43.4961 104.105 43.4551 104.123 43.4004C104.151 43.3457 104.178 43.2865 104.205 43.2227C104.233 43.1589 104.256 43.1042 104.274 43.0586C104.301 43.0039 104.315 42.9674 104.315 42.9492C104.324 42.9401 104.342 42.9128 104.37 42.8672C104.397 42.8216 104.424 42.7715 104.452 42.7168C104.479 42.6621 104.502 42.6165 104.52 42.5801C104.547 42.5345 104.561 42.5026 104.561 42.4844C104.57 42.4479 104.607 42.3477 104.67 42.1836C104.734 42.0195 104.802 41.8464 104.875 41.6641C104.948 41.4727 105.017 41.2995 105.08 41.1445C105.144 40.9805 105.185 40.8757 105.204 40.8301C105.222 40.7936 105.258 40.7207 105.313 40.6113C105.377 40.4928 105.418 40.4154 105.436 40.3789L107.651 34.2949C107.66 34.2767 107.674 34.2448 107.692 34.1992C107.719 34.1445 107.742 34.0898 107.76 34.0352C107.787 33.9805 107.81 33.9303 107.829 33.8848C107.856 33.8301 107.874 33.7891 107.883 33.7617L107.952 33.6934H108.143H108.362C108.398 33.6934 108.489 33.6979 108.635 33.707C108.781 33.7161 108.94 33.7253 109.114 33.7344C109.287 33.7344 109.446 33.7389 109.592 33.748C109.738 33.7572 109.834 33.7617 109.879 33.7617C109.943 33.7617 110.002 33.7617 110.057 33.7617C110.112 33.7526 110.171 33.7708 110.235 33.8164C110.308 33.8711 110.371 33.9349 110.426 34.0078C110.481 34.0807 110.531 34.1536 110.577 34.2266C110.604 34.2721 110.64 34.3314 110.686 34.4043C110.732 34.4772 110.773 34.5501 110.809 34.623C110.855 34.696 110.896 34.7643 110.932 34.8281C110.968 34.8828 110.991 34.9147 111 34.9238C111.028 34.9876 111.073 35.0879 111.137 35.2246C111.201 35.3522 111.265 35.4889 111.329 35.6348C111.401 35.7806 111.465 35.9128 111.52 36.0312C111.575 36.1497 111.611 36.2272 111.629 36.2637C111.638 36.291 111.657 36.3503 111.684 36.4414C111.711 36.5234 111.743 36.6146 111.78 36.7148C111.816 36.8151 111.848 36.9108 111.875 37.002C111.903 37.084 111.921 37.1387 111.93 37.166C112.103 37.6491 112.313 38.1185 112.559 38.5742C112.805 39.0208 113.024 39.4811 113.215 39.9551C113.233 40.0098 113.274 40.1237 113.338 40.2969C113.402 40.4609 113.475 40.6569 113.557 40.8848C113.648 41.1126 113.739 41.3542 113.83 41.6094C113.922 41.8646 114.008 42.1061 114.09 42.334C114.181 42.5527 114.259 42.7441 114.323 42.9082C114.386 43.0723 114.427 43.1816 114.446 43.2363C114.455 43.2728 114.491 43.3594 114.555 43.4961C114.619 43.6237 114.66 43.7103 114.678 43.7559C114.696 43.8014 114.728 43.8698 114.774 43.9609C114.819 44.043 114.865 44.1341 114.911 44.2344C114.956 44.3346 115.002 44.4303 115.047 44.5215C115.093 44.6035 115.125 44.6628 115.143 44.6992V44.7539C115.143 44.7995 115.125 44.8405 115.088 44.877C115.052 44.9043 115.006 44.9271 114.952 44.9453C114.906 44.9635 114.856 44.9772 114.801 44.9863C114.746 44.9954 114.705 45 114.678 45C114.651 45 114.582 45 114.473 45C114.364 45 114.245 45 114.118 45C113.999 45 113.885 45 113.776 45C113.666 45 113.598 45 113.571 45C113.443 45 113.311 45.0182 113.174 45.0547C113.047 45.1003 112.91 45.123 112.764 45.123C112.691 45.123 112.632 45.1185 112.586 45.1094C112.541 45.1094 112.477 45.0911 112.395 45.0547C112.395 45.0547 112.386 45.0456 112.368 45.0273L112.34 45C112.258 44.8451 112.194 44.722 112.149 44.6309C112.112 44.5306 112.058 44.3984 111.985 44.2344C111.967 44.2161 111.935 44.1569 111.889 44.0566C111.843 43.9564 111.816 43.8971 111.807 43.8789C111.752 43.7057 111.72 43.5553 111.711 43.4277C111.702 43.3001 111.638 43.1589 111.52 43.0039C111.511 42.9948 111.493 42.9857 111.465 42.9766C111.438 42.9583 111.415 42.9492 111.397 42.9492C111.324 42.9492 111.201 42.9447 111.028 42.9355C110.864 42.9264 110.686 42.9219 110.495 42.9219C110.303 42.9128 110.121 42.9036 109.948 42.8945C109.774 42.8854 109.651 42.8809 109.579 42.8809C109.56 42.8809 109.519 42.8809 109.455 42.8809C109.401 42.8717 109.337 42.8626 109.264 42.8535C109.191 42.8444 109.123 42.8398 109.059 42.8398C108.995 42.8307 108.959 42.8262 108.95 42.8262H108.69C108.435 42.8262 108.179 42.8353 107.924 42.8535C107.678 42.8717 107.432 42.9036 107.186 42.9492C107.031 42.9766 106.917 43.0495 106.844 43.168C106.78 43.2773 106.717 43.3958 106.653 43.5234C106.644 43.5508 106.625 43.6009 106.598 43.6738C106.571 43.7467 106.539 43.8242 106.502 43.9062C106.475 43.9792 106.448 44.0475 106.42 44.1113C106.393 44.1751 106.375 44.2161 106.366 44.2344C106.357 44.2526 106.338 44.2982 106.311 44.3711C106.293 44.4349 106.27 44.5078 106.243 44.5898C106.215 44.6628 106.188 44.7357 106.161 44.8086C106.142 44.8724 106.133 44.9134 106.133 44.9316C106.06 45.1139 105.978 45.2096 105.887 45.2188C105.796 45.2279 105.664 45.2324 105.491 45.2324C105.172 45.2324 104.866 45.1914 104.575 45.1094C104.283 45.0365 103.964 45 103.618 45ZM109.182 37.4395C109.173 37.4486 109.159 37.4714 109.141 37.5078C109.132 37.5352 109.127 37.5534 109.127 37.5625C109.127 37.5807 109.118 37.6126 109.1 37.6582C109.082 37.7038 109.059 37.7539 109.032 37.8086C109.013 37.8542 108.995 37.9043 108.977 37.959C108.959 38.0046 108.95 38.0319 108.95 38.041C108.94 38.0501 108.922 38.082 108.895 38.1367C108.877 38.1823 108.854 38.237 108.827 38.3008C108.799 38.3555 108.772 38.4102 108.745 38.4648C108.726 38.5195 108.713 38.5514 108.704 38.5605C108.658 38.6699 108.603 38.8158 108.539 38.998C108.476 39.1803 108.412 39.3626 108.348 39.5449C108.284 39.7181 108.23 39.8685 108.184 39.9961C108.148 40.1237 108.129 40.1875 108.129 40.1875V40.3105H110.358C110.367 40.3105 110.385 40.2969 110.412 40.2695C110.44 40.2331 110.463 40.2057 110.481 40.1875V40.1328C110.481 40.0599 110.458 39.9733 110.412 39.873C110.367 39.7637 110.33 39.6771 110.303 39.6133C110.221 39.4583 110.121 39.2624 110.002 39.0254C109.884 38.7884 109.765 38.5605 109.647 38.3418C109.537 38.1139 109.442 37.918 109.36 37.7539C109.278 37.5898 109.237 37.5078 109.237 37.5078L109.182 37.4395Z" fill="black"/>
</svg>
