<svg width="69" height="47" viewBox="0 0 69 47" fill="none" xmlns="http://www.w3.org/2000/svg">
<path d="M66.965 7.33178C66.6073 5.93882 65.8667 4.65791 64.8168 3.61641C63.767 2.57492 62.4446 1.80914 60.9811 1.39523C55.6977 0 34.535 0 34.535 0C34.535 0 13.3431 0 8.05973 1.39523C6.62327 1.82935 5.33091 2.60406 4.30803 3.64421C3.28515 4.68436 2.56648 5.95463 2.22175 7.33178C1.20636 12.6689 0.688718 18.0787 0.67468 23.5C0.639634 28.9173 1.10845 34.3272 2.0758 39.6682C2.43356 41.0612 3.17417 42.3421 4.22397 43.3836C5.27378 44.4251 6.5962 45.1909 8.05973 45.6048C13.3431 47 34.535 47 34.535 47C34.535 47 55.6977 47 60.9811 45.6048C62.4446 45.1909 63.767 44.4251 64.8168 43.3836C65.8667 42.3421 66.6073 41.0612 66.965 39.6682C67.9324 34.3272 68.4012 28.9173 68.3661 23.5C68.4003 18.0827 67.9315 12.6729 66.965 7.33178ZM27.5878 33.4307V13.6787L45.2769 23.5821L27.5878 33.4307Z" fill="black"/>
</svg>
