<svg width="268" height="49" viewBox="0 0 268 49" fill="none" xmlns="http://www.w3.org/2000/svg">
<path d="M3.20265 35.3676C2.51682 28.8596 1.90318 23.3957 2.01275 17.292C2.02894 16.726 2.38482 9.00149 3.20303 8.94047C5.92083 8.73781 5.41711 9.10044 8.20917 8.94047C14.0216 8.60747 19.8504 8.63379 25.6525 8.22046C42.5152 7.0192 59.3123 6.62045 76.2739 6.30043C86.9461 6.09908 97.6454 6.344 108.3 5.82043C122.019 5.14623 135.645 4.31278 149.405 4.0204C169.631 3.5906 189.873 3.72757 210.099 3.31372C223.985 3.02959 237.847 2.14605 251.74 2.08703C255.586 2.0707 263.656 1.25657 264.575 4.95375C265.742 9.65431 266.126 14.4408 265.965 19.2073C265.853 22.5519 265.46 25.8911 265.349 29.2341C265.286 31.1624 265.696 33.2408 265.25 35.1542C264.83 36.9605 263.175 36.8442 261.038 37.2476C249.161 39.4895 237.12 39.6664 224.741 39.7543C205.877 39.8883 187.024 40.1643 168.159 40.381C144.386 40.654 120.657 41.047 96.9358 42.221C72.5357 43.4287 48.2081 45.5441 23.785 46.4877C19.0056 46.6724 13.5015 47.2017 8.78532 46.3811C7.85793 46.2197 7.52517 46.228 7.05688 45.6344C4.54946 42.4557 3.57678 38.9177 3.20265 35.3676Z" fill="#37B0FF"/>
<path d="M2.22552 12.7645C1.61286 20.8339 2.35226 27.298 3.20265 35.3676C3.57678 38.9177 4.54946 42.4557 7.05688 45.6344C7.52517 46.228 7.85793 46.2197 8.78532 46.3811C13.5015 47.2017 19.0056 46.6724 23.785 46.4877C48.2081 45.5441 72.5357 43.4287 96.9358 42.221C120.657 41.047 144.386 40.654 168.159 40.381C187.024 40.1643 205.877 39.8883 224.741 39.7543C237.12 39.6664 249.161 39.4895 261.038 37.2476C263.175 36.8442 264.83 36.9605 265.25 35.1542C265.696 33.2408 265.286 31.1624 265.349 29.2341C265.46 25.8911 265.853 22.5519 265.965 19.2073C266.126 14.4408 265.742 9.65431 264.575 4.95375C263.656 1.25657 255.586 2.0707 251.74 2.08703C237.847 2.14605 223.985 3.02959 210.099 3.31372C189.873 3.72757 169.631 3.5906 149.405 4.0204C135.645 4.31278 122.019 5.14623 108.3 5.82043C97.6454 6.344 86.9461 6.09908 76.2739 6.30043C59.3123 6.62045 42.5152 7.0192 25.6525 8.22046C19.8504 8.63379 14.0216 8.60747 8.20917 8.94047C5.41711 9.10044 5.92083 8.73781 3.20303 8.94047C2.38482 9.00149 2.02894 16.726 2.01275 17.292" stroke="#37B0FF" stroke-width="3" stroke-linecap="round"/>
</svg>
