<svg width="92" height="30" viewBox="0 0 92 30" fill="none" xmlns="http://www.w3.org/2000/svg">
<path d="M91.7624 9.46266C91.535 8.51834 91.2302 7.59823 90.9689 6.66844C90.3641 4.51345 89.7641 2.35845 89.1932 0.271258L37.7554 0.0291244L33.8846 6.83018e-05C33.6929 -0.00188959 33.503 0.038267 33.3285 0.117708C33.1539 0.197149 32.9989 0.31394 32.8743 0.459851C32.7498 0.605761 32.6587 0.77724 32.6075 0.962201C32.5564 1.14716 32.5464 1.3411 32.5782 1.53035L33.7878 8.83796L34.7991 14.9785C34.8347 15.1898 34.8189 15.4066 34.7532 15.6105C34.6876 15.8145 34.5738 15.9996 34.4217 16.1504L33.454 17.1189L29.5493 21.0221L27.4253 23.1481L27.0624 23.5016L25.156 25.4048C25.0901 25.4704 25.0395 25.5498 25.0079 25.6372C24.9763 25.7247 24.9645 25.8182 24.9733 25.9108C24.9821 26.0034 25.0113 26.0929 25.0588 26.1729C25.1062 26.2529 25.1709 26.3213 25.2479 26.3733L27.4591 27.8261L30.2896 29.8407C30.4537 29.9578 30.6538 30.0133 30.8547 29.9973C31.0556 29.9814 31.2444 29.895 31.388 29.7535C32.1137 29.0465 32.8395 28.3588 33.5653 27.6227L34.1507 29.2789L36.0861 27.5888L37.5667 26.3007L37.9199 25.9907L38.1909 26.107C38.2247 26.6639 38.2634 27.2208 38.2973 27.7728L38.6408 27.9181L42.5503 24.5282L42.9422 26.7365L46.9049 23.2885L47.5581 25.2692L51.3128 21.9907L51.6757 22.1408C51.7095 22.6638 51.7434 23.1917 51.7821 23.7195L52.116 23.8551L55.8174 20.6396H56.1222C56.1948 21.2691 56.2722 21.9035 56.369 22.6929C57.8205 21.4241 59.0689 20.349 60.3704 19.2158L61.0333 21.1916L64.9041 17.8018L65.0976 17.8792C65.1605 18.533 65.2234 19.1868 65.3057 20.0052L69.2635 16.5572L69.5925 16.6879C69.6651 17.2787 69.7377 17.8792 69.8248 18.625L73.7972 15.1964L74.1262 15.148C74.1939 15.8017 74.2665 16.4507 74.3536 17.2642L78.297 13.8259H78.6018L78.8534 15.8841L82.8548 12.3973C83.087 13.1044 83.2903 13.7145 83.508 14.3877L87.4852 10.9009C87.6013 11.7242 87.6884 12.3537 87.7997 13.1818C89.2513 12.068 90.4173 11.1673 91.564 10.2181C91.6507 10.1146 91.7135 9.99325 91.7478 9.86264C91.7821 9.73203 91.7871 9.59544 91.7624 9.46266Z" fill="black"/>
<path d="M29.9849 14.7556L29.0179 8.97925L27.7124 1.32029C27.6732 1.08935 27.5566 0.87801 27.3814 0.719942C27.2061 0.561875 26.9823 0.466181 26.7454 0.448112C26.0298 0.36709 25.0773 0.338494 24.5552 0.328962L23.6559 0.305132C19.2657 0.209812 14.8755 0.0954276 10.4853 0.0334696L8.10653 0.000107583C7.91313 0.000107583 7.71973 0.000107583 7.52633 0.000107583H5.10884C4.64674 -0.00498318 4.20145 0.170775 3.87062 0.48884C3.5398 0.806905 3.35044 1.24131 3.34406 1.6968C3.34417 1.85767 3.36529 2.01786 3.40692 2.1734C3.48249 2.43764 3.62112 2.68022 3.81121 2.88087C4.00131 3.08152 4.23735 3.23441 4.49963 3.32678C4.55194 3.34585 4.59848 3.37773 4.63485 3.41942C4.67122 3.46111 4.69623 3.51123 4.70753 3.56508L4.65918 3.70329C3.75468 6.15398 3.02444 8.66379 2.47377 11.2145C1.42528 15.3495 0.675589 19.5525 0.230331 23.792C0.182974 24.0704 0.205835 24.356 0.2969 24.6236C0.387964 24.8913 0.544433 25.1327 0.75251 25.3266C1.93708 26.5038 4.16601 26.9852 5.71804 27.3236C6.97744 27.5871 8.25363 27.7654 9.53769 27.8574C11.2928 27.9908 13.2606 28.2101 14.9239 27.5285C16.0499 27.0393 17.0757 26.3512 17.9506 25.4982C18.173 25.2885 18.3954 25.0693 18.613 24.85C18.7681 24.6526 18.9522 24.4791 19.1593 24.3353C19.5199 24.174 19.9094 24.0848 20.3052 24.0732C20.5566 24.0446 20.8129 24.0255 21.0643 24.0208C21.2718 24.0042 21.4736 23.9453 21.6568 23.8476C21.8399 23.75 22.0004 23.6158 22.128 23.4536L22.8678 22.7673H22.9548C22.9548 22.7673 23.5253 22.224 24.2844 21.4805L28.7036 17.1434L29.4675 16.3904C29.6791 16.1778 29.8363 15.9188 29.9262 15.6345C30.0162 15.3503 30.0363 15.049 29.9849 14.7556ZM16.6693 14.4935C16.2685 16.9706 15.7228 19.4228 15.0351 21.8379C13.865 26.2036 6.22572 23.6919 7.55534 19.3262C8.73932 15.362 9.34971 11.2529 9.36846 7.12051C9.36735 6.30104 9.68075 5.51148 10.2457 4.91035C10.8107 4.30921 11.5855 3.941 12.4145 3.87963C12.8013 3.83674 13.1929 3.81291 13.5846 3.78908C15.7071 3.64133 17.2447 4.92339 17.206 7.06332C17.1896 9.54886 17.0104 12.0308 16.6693 14.4935ZM23.535 6.12442C23.1757 6.12064 22.8255 6.01198 22.5288 5.81215C22.2321 5.61233 22.0021 5.33031 21.8679 5.00172C21.7338 4.67313 21.7014 4.3127 21.7749 3.96597C21.8484 3.61925 22.0245 3.30176 22.2809 3.05363C22.5373 2.8055 22.8626 2.63785 23.2157 2.57186C23.5687 2.50587 23.9337 2.5445 24.2645 2.68286C24.5953 2.82123 24.8771 3.05313 25.0743 3.34926C25.2714 3.6454 25.3751 3.99249 25.3723 4.3467C25.3704 4.58244 25.3213 4.81549 25.2279 5.03251C25.1345 5.24952 24.9985 5.44624 24.8279 5.61138C24.6572 5.77652 24.4551 5.90684 24.2333 5.99488C24.0114 6.08291 23.7741 6.12693 23.535 6.12442Z" fill="black"/>
</svg>
