<svg width="161" height="81" viewBox="0 0 161 81" fill="none" xmlns="http://www.w3.org/2000/svg">
<mask id="path-1-inside-1_676:9824" fill="white">
<path fill-rule="evenodd" clip-rule="evenodd" d="M80.4276 75C124.847 75 160.855 58.2107 160.855 37.5C160.855 16.7893 124.847 0 80.4276 0C36.0087 0 0 16.7893 0 37.5C0 47.8175 8.93654 57.1618 23.3975 63.942L24.0078 76.434C24.1581 79.5095 27.5814 81.2691 30.1698 79.6012L42.3175 71.7732C42.7443 71.4983 43.0955 71.1641 43.3723 70.7915C54.4619 73.4804 67.0641 75 80.4276 75Z"/>
</mask>
<path d="M23.3975 63.942L25.3951 63.8444L25.3363 62.6422L24.2465 62.1312L23.3975 63.942ZM24.0078 76.434L22.0102 76.5316V76.5316L24.0078 76.434ZM30.1698 79.6012L31.2531 81.2823L30.1698 79.6012ZM42.3175 71.7732L41.2342 70.092L41.2342 70.0921L42.3175 71.7732ZM43.3723 70.7915L43.8436 68.8478L42.5566 68.5358L41.7669 69.5988L43.3723 70.7915ZM158.855 37.5C158.855 46.6158 150.851 55.4907 136.453 62.2039C122.218 68.841 102.412 73 80.4276 73V77C102.862 77 123.27 72.7643 138.144 65.8292C152.855 58.97 162.855 49.0949 162.855 37.5H158.855ZM80.4276 2C102.412 2 122.218 6.159 136.453 12.7961C150.851 19.5093 158.855 28.3842 158.855 37.5H162.855C162.855 25.9051 152.855 16.03 138.144 9.17085C123.27 2.23566 102.862 -2 80.4276 -2V2ZM2 37.5C2 28.3842 10.0039 19.5093 24.4019 12.7961C38.6368 6.159 58.4428 2 80.4276 2V-2C57.9935 -2 37.5857 2.23566 22.7115 9.17085C8.00039 16.03 -2 25.9051 -2 37.5H2ZM24.2465 62.1312C9.94414 55.4254 2 46.5821 2 37.5H-2C-2 49.0529 7.92893 58.8983 22.5484 65.7529L24.2465 62.1312ZM26.0055 76.3364L25.3951 63.8444L21.3998 64.0396L22.0102 76.5316L26.0055 76.3364ZM29.0864 77.92C27.7922 78.7539 26.0806 77.8742 26.0055 76.3364L22.0102 76.5316C22.2356 81.1449 27.3706 83.7842 31.2531 81.2823L29.0864 77.92ZM41.2342 70.0921L29.0864 77.92L31.2531 81.2823L43.4009 73.4544L41.2342 70.0921ZM41.7669 69.5988C41.6331 69.7789 41.4586 69.9474 41.2342 70.092L43.4009 73.4544C44.0299 73.0491 44.5579 72.5494 44.9778 71.9842L41.7669 69.5988ZM80.4276 73C67.2117 73 54.7683 71.4967 43.8436 68.8478L42.9011 72.7352C54.1554 75.464 66.9165 77 80.4276 77V73Z" fill="black" mask="url(#path-1-inside-1_676:9824)"/>
<path d="M44.8172 42.416C44.8172 42.4069 44.8217 42.3932 44.8309 42.375C44.8491 42.3659 44.8855 42.3294 44.9402 42.2656C44.9949 42.2018 45.0359 42.1608 45.0633 42.1426C45.0906 42.1243 45.1362 42.0879 45.2 42.0332C45.2729 41.9694 45.3504 41.9102 45.4324 41.8555C45.5145 41.7917 45.5919 41.7324 45.6648 41.6777C45.7378 41.6139 45.7924 41.5729 45.8289 41.5547C45.838 41.5456 45.8654 41.5273 45.9109 41.5C45.9656 41.4635 46.0203 41.4271 46.075 41.3906C46.1297 41.3542 46.1844 41.3177 46.2391 41.2812C46.2938 41.2448 46.3348 41.2174 46.3621 41.1992C46.3712 41.1901 46.3895 41.181 46.4168 41.1719C46.4441 41.1536 46.4669 41.1445 46.4852 41.1445H46.4988H46.5262C46.7905 41.3815 47.032 41.6322 47.2508 41.8965C47.4786 42.1517 47.7247 42.3887 47.9891 42.6074C48.1167 42.7077 48.2352 42.7806 48.3445 42.8262C48.463 42.8717 48.6043 42.8945 48.7684 42.8945C48.8595 42.8945 48.9552 42.89 49.0555 42.8809C49.1557 42.8626 49.2286 42.8125 49.2742 42.7305V42.457C49.2742 42.0924 49.1876 41.7552 49.0145 41.4453C48.8413 41.1354 48.6225 40.862 48.3582 40.625C48.3217 40.5977 48.2534 40.5384 48.1531 40.4473C48.062 40.3561 47.9526 40.2559 47.825 40.1465C47.6974 40.028 47.5607 39.9049 47.4148 39.7773C47.269 39.6406 47.1323 39.513 47.0047 39.3945C46.8771 39.276 46.7632 39.1758 46.6629 39.0938C46.5717 39.0117 46.5125 38.957 46.4852 38.9297C46.2938 38.7474 46.1069 38.5514 45.9246 38.3418C45.7514 38.123 45.5965 37.8952 45.4598 37.6582C45.323 37.4212 45.2137 37.1751 45.1316 36.9199C45.0496 36.6556 45.0086 36.3867 45.0086 36.1133C45.0086 35.776 45.077 35.4844 45.2137 35.2383C45.3504 34.9922 45.5145 34.7324 45.7059 34.459C45.7241 34.4499 45.7514 34.4271 45.7879 34.3906C45.8335 34.3451 45.8654 34.3132 45.8836 34.2949C46.2208 34.0033 46.5809 33.7663 46.9637 33.584C47.3465 33.3926 47.7703 33.2969 48.2352 33.2969C48.5997 33.2969 48.9233 33.3333 49.2059 33.4062C49.4975 33.4792 49.7664 33.584 50.0125 33.7207C50.2586 33.8574 50.4956 34.0306 50.7234 34.2402C50.9604 34.4408 51.202 34.6732 51.448 34.9375C51.5483 35.0378 51.6212 35.1289 51.6668 35.2109C51.7215 35.2839 51.7488 35.3841 51.7488 35.5117V35.6348C51.7397 35.6439 51.7033 35.6803 51.6395 35.7441C51.5848 35.8079 51.5392 35.8535 51.5027 35.8809C51.4572 35.9173 51.3797 35.9811 51.2703 36.0723C51.1701 36.1543 51.0607 36.2454 50.9422 36.3457C50.8328 36.446 50.7234 36.5417 50.6141 36.6328C50.5047 36.7148 50.4318 36.7741 50.3953 36.8105H50.2449C50.1902 36.8105 50.1492 36.8151 50.1219 36.8242C50.1036 36.8242 50.0809 36.8014 50.0535 36.7559C50.0444 36.7467 50.0262 36.7148 49.9988 36.6602C49.9715 36.6055 49.9396 36.5508 49.9031 36.4961C49.8667 36.4323 49.8348 36.3776 49.8074 36.332C49.7801 36.2773 49.7618 36.2454 49.7527 36.2363C49.7345 36.2272 49.7026 36.1999 49.657 36.1543C49.6115 36.0996 49.5613 36.0449 49.5066 35.9902C49.452 35.9355 49.3973 35.8809 49.3426 35.8262C49.297 35.7715 49.2605 35.7305 49.2332 35.7031C49.1329 35.6211 49.0099 35.571 48.8641 35.5527C48.7273 35.5254 48.5997 35.5117 48.4813 35.5117C48.3172 35.5117 48.1896 35.5254 48.0984 35.5527C48.0073 35.571 47.9344 35.612 47.8797 35.6758C47.825 35.7396 47.784 35.8216 47.7566 35.9219C47.7384 36.0221 47.7202 36.1452 47.702 36.291V36.3184C47.702 36.3822 47.7384 36.4688 47.8113 36.5781C47.8934 36.6875 47.9526 36.765 47.9891 36.8105L48.9324 37.7539C48.9415 37.763 48.9734 37.7904 49.0281 37.8359C49.0828 37.8724 49.1375 37.9134 49.1922 37.959C49.2469 38.0046 49.297 38.0501 49.3426 38.0957C49.3973 38.1322 49.4337 38.1549 49.452 38.1641C49.7892 38.4284 50.09 38.7109 50.3543 39.0117C50.6277 39.3125 50.8921 39.6361 51.1473 39.9824C51.2566 40.2194 51.3615 40.429 51.4617 40.6113C51.562 40.7845 51.6486 40.9577 51.7215 41.1309C51.8035 41.2949 51.8673 41.4818 51.9129 41.6914C51.9585 41.8919 51.9813 42.138 51.9813 42.4297V42.9492C51.9357 43.1315 51.8719 43.3047 51.7898 43.4688C51.7078 43.6237 51.5939 43.765 51.448 43.8926C51.4116 43.9199 51.3523 43.9701 51.2703 44.043C51.1883 44.1159 51.0971 44.1888 50.9969 44.2617C50.9057 44.3346 50.8191 44.403 50.7371 44.4668C50.6551 44.5306 50.6004 44.5762 50.573 44.6035C50.5457 44.6217 50.4865 44.6628 50.3953 44.7266C50.3042 44.7812 50.2495 44.8132 50.2313 44.8223C50.1766 44.8587 50.0854 44.9089 49.9578 44.9727C49.8393 45.0273 49.771 45.0592 49.7527 45.0684C49.7254 45.0684 49.657 45.0775 49.5477 45.0957C49.4474 45.123 49.3335 45.1504 49.2059 45.1777C49.0874 45.2051 48.9689 45.2279 48.8504 45.2461C48.7319 45.2734 48.6408 45.2917 48.577 45.3008H48.4813C48.3263 45.3008 48.1668 45.2826 48.0027 45.2461C47.8387 45.2096 47.6792 45.1686 47.5242 45.123C47.1232 45.0046 46.7814 44.8268 46.4988 44.5898C46.2163 44.3438 45.9337 44.0703 45.6512 43.7695C45.6147 43.7331 45.5691 43.6875 45.5145 43.6328C45.4598 43.569 45.4051 43.5098 45.3504 43.4551C45.2957 43.3913 45.2456 43.3366 45.2 43.291C45.1544 43.2363 45.1316 43.2044 45.1316 43.1953C45.1134 43.1771 45.0906 43.1224 45.0633 43.0312C45.0359 42.931 45.0177 42.8717 45.0086 42.8535C44.9995 42.8353 44.9721 42.7852 44.9266 42.7031C44.881 42.6211 44.8491 42.571 44.8309 42.5527C44.8217 42.5436 44.8172 42.5299 44.8172 42.5117V42.457V42.416ZM55.3161 33.6934C55.3617 33.5931 55.4209 33.5156 55.4938 33.4609H55.6989H55.8903C55.8994 33.4609 55.9268 33.4655 55.9723 33.4746C56.027 33.4746 56.0772 33.4792 56.1227 33.4883C56.1774 33.4974 56.2276 33.5065 56.2731 33.5156C56.3187 33.5156 56.3506 33.5156 56.3688 33.5156C56.4235 33.5247 56.5147 33.5339 56.6423 33.543C56.779 33.543 56.9203 33.543 57.0661 33.543C57.2119 33.543 57.3486 33.543 57.4763 33.543C57.613 33.5339 57.7087 33.5247 57.7634 33.5156C57.8272 33.5612 57.8727 33.6296 57.9001 33.7207C57.9274 33.8118 57.9411 33.8893 57.9411 33.9531C57.9411 34.2448 57.932 34.5365 57.9138 34.8281C57.8955 35.1198 57.8864 35.4115 57.8864 35.7031C57.8864 36.6055 57.9365 37.485 58.0368 38.3418C58.1462 39.1986 58.292 40.069 58.4743 40.9531C58.4834 40.9987 58.4971 41.0671 58.5153 41.1582C58.5427 41.2493 58.5654 41.3451 58.5837 41.4453C58.611 41.5456 58.6338 41.6413 58.652 41.7324C58.6794 41.8145 58.6976 41.8691 58.7067 41.8965C58.7614 42.0514 58.8571 42.2109 58.9938 42.375C59.1305 42.5299 59.2901 42.6074 59.4723 42.6074C59.5999 42.6074 59.7048 42.5801 59.7868 42.5254C59.8688 42.4707 59.96 42.3978 60.0602 42.3066C60.279 42.1061 60.443 41.8783 60.5524 41.623C60.6709 41.3587 60.7529 41.0853 60.7985 40.8027C60.8532 40.5202 60.8805 40.2331 60.8805 39.9414C60.8805 39.6406 60.8805 39.3535 60.8805 39.0801C60.8805 38.6699 60.876 38.2643 60.8669 37.8633C60.8669 37.4531 60.8486 37.043 60.8122 36.6328C60.8122 36.5781 60.7985 36.4414 60.7712 36.2227C60.7529 36.0039 60.7302 35.7715 60.7028 35.5254C60.6755 35.2702 60.6481 35.0332 60.6208 34.8145C60.6026 34.5866 60.5889 34.4453 60.5798 34.3906C60.5798 34.3724 60.5752 34.3086 60.5661 34.1992C60.5661 34.0807 60.5661 33.9941 60.5661 33.9395C60.5661 33.903 60.5661 33.8483 60.5661 33.7754C60.5752 33.7025 60.5798 33.6569 60.5798 33.6387L60.7028 33.584H62.8083C62.8174 33.584 62.8584 33.5977 62.9313 33.625C63.0134 33.6523 63.0726 33.6751 63.1091 33.6934C63.1091 33.7025 63.1182 33.7161 63.1364 33.7344C63.1546 33.7435 63.1638 33.7526 63.1638 33.7617C63.1729 33.7982 63.182 33.8757 63.1911 33.9941C63.2002 34.1035 63.2048 34.181 63.2048 34.2266C63.2139 34.2721 63.2184 34.3678 63.2184 34.5137C63.2276 34.6595 63.2367 34.819 63.2458 34.9922C63.2549 35.1562 63.2595 35.3203 63.2595 35.4844C63.2686 35.6393 63.2777 35.7487 63.2868 35.8125V36.291C63.2868 36.8743 63.2686 37.4577 63.2321 38.041C63.1957 38.6243 63.1546 39.2077 63.1091 39.791C63.0999 39.8457 63.0863 39.9779 63.068 40.1875C63.0498 40.3971 63.0316 40.625 63.0134 40.8711C62.9951 41.1081 62.9769 41.3359 62.9587 41.5547C62.9404 41.7643 62.9313 41.8965 62.9313 41.9512C62.8675 42.5983 62.6716 43.1452 62.3434 43.5918C62.0153 44.0293 61.5641 44.3802 60.9899 44.6445C60.6983 44.7812 60.4066 44.8861 60.1149 44.959C59.8324 45.0228 59.527 45.0547 59.1989 45.0547C58.7705 45.0547 58.374 44.9818 58.0095 44.8359C57.6449 44.6901 57.3213 44.4896 57.0388 44.2344C56.7562 43.9701 56.5147 43.6647 56.3141 43.3184C56.1227 42.972 55.9815 42.5938 55.8903 42.1836C55.8903 42.1654 55.8812 42.1107 55.863 42.0195C55.8539 41.9284 55.8447 41.8281 55.8356 41.7188C55.8265 41.6094 55.8174 41.5091 55.8083 41.418C55.7992 41.3268 55.7946 41.2721 55.7946 41.2539C55.7855 41.2448 55.7764 41.2266 55.7673 41.1992C55.7673 41.1628 55.7627 41.1263 55.7536 41.0898C55.7445 41.0443 55.7354 41.0033 55.7263 40.9668C55.7263 40.9303 55.7263 40.9076 55.7263 40.8984C55.7263 40.8711 55.7217 40.8301 55.7126 40.7754C55.7126 40.7116 55.708 40.6523 55.6989 40.5977C55.6898 40.5339 55.6807 40.4746 55.6716 40.4199C55.6716 40.3652 55.6716 40.3288 55.6716 40.3105C55.6624 40.2467 55.6533 40.0872 55.6442 39.832C55.6351 39.5677 55.6214 39.2897 55.6032 38.998C55.5941 38.7064 55.5804 38.4329 55.5622 38.1777C55.5531 37.9134 55.5485 37.7493 55.5485 37.6855C55.5485 37.6673 55.544 37.6309 55.5348 37.5762C55.5348 37.5215 55.5303 37.4622 55.5212 37.3984C55.5121 37.3255 55.5029 37.2617 55.4938 37.207C55.4938 37.1432 55.4938 37.1022 55.4938 37.084C55.4938 37.0293 55.4847 36.9108 55.4665 36.7285C55.4574 36.5371 55.4437 36.332 55.4255 36.1133C55.4164 35.8854 55.4027 35.6667 55.3845 35.457C55.3753 35.2474 55.3708 35.0924 55.3708 34.9922C55.3617 34.8372 55.348 34.6868 55.3298 34.541C55.3207 34.3861 55.3161 34.2311 55.3161 34.0762V33.6934ZM66.608 42.416C66.608 42.4069 66.6125 42.3932 66.6216 42.375C66.6399 42.3659 66.6763 42.3294 66.731 42.2656C66.7857 42.2018 66.8267 42.1608 66.8541 42.1426C66.8814 42.1243 66.927 42.0879 66.9908 42.0332C67.0637 41.9694 67.1412 41.9102 67.2232 41.8555C67.3052 41.7917 67.3827 41.7324 67.4556 41.6777C67.5285 41.6139 67.5832 41.5729 67.6197 41.5547C67.6288 41.5456 67.6561 41.5273 67.7017 41.5C67.7564 41.4635 67.8111 41.4271 67.8658 41.3906C67.9205 41.3542 67.9752 41.3177 68.0298 41.2812C68.0845 41.2448 68.1255 41.2174 68.1529 41.1992C68.162 41.1901 68.1802 41.181 68.2076 41.1719C68.2349 41.1536 68.2577 41.1445 68.2759 41.1445H68.2896H68.317C68.5813 41.3815 68.8228 41.6322 69.0416 41.8965C69.2694 42.1517 69.5155 42.3887 69.7798 42.6074C69.9074 42.7077 70.0259 42.7806 70.1353 42.8262C70.2538 42.8717 70.3951 42.8945 70.5591 42.8945C70.6503 42.8945 70.746 42.89 70.8463 42.8809C70.9465 42.8626 71.0194 42.8125 71.065 42.7305V42.457C71.065 42.0924 70.9784 41.7552 70.8052 41.4453C70.6321 41.1354 70.4133 40.862 70.149 40.625C70.1125 40.5977 70.0442 40.5384 69.9439 40.4473C69.8528 40.3561 69.7434 40.2559 69.6158 40.1465C69.4882 40.028 69.3515 39.9049 69.2056 39.7773C69.0598 39.6406 68.9231 39.513 68.7955 39.3945C68.6679 39.276 68.5539 39.1758 68.4537 39.0938C68.3625 39.0117 68.3033 38.957 68.2759 38.9297C68.0845 38.7474 67.8977 38.5514 67.7154 38.3418C67.5422 38.123 67.3873 37.8952 67.2505 37.6582C67.1138 37.4212 67.0045 37.1751 66.9224 36.9199C66.8404 36.6556 66.7994 36.3867 66.7994 36.1133C66.7994 35.776 66.8677 35.4844 67.0045 35.2383C67.1412 34.9922 67.3052 34.7324 67.4966 34.459C67.5149 34.4499 67.5422 34.4271 67.5787 34.3906C67.6242 34.3451 67.6561 34.3132 67.6744 34.2949C68.0116 34.0033 68.3716 33.7663 68.7545 33.584C69.1373 33.3926 69.5611 33.2969 70.0259 33.2969C70.3905 33.2969 70.7141 33.3333 70.9966 33.4062C71.2883 33.4792 71.5572 33.584 71.8033 33.7207C72.0494 33.8574 72.2864 34.0306 72.5142 34.2402C72.7512 34.4408 72.9927 34.6732 73.2388 34.9375C73.3391 35.0378 73.412 35.1289 73.4576 35.2109C73.5123 35.2839 73.5396 35.3841 73.5396 35.5117V35.6348C73.5305 35.6439 73.494 35.6803 73.4302 35.7441C73.3755 35.8079 73.33 35.8535 73.2935 35.8809C73.2479 35.9173 73.1705 35.9811 73.0611 36.0723C72.9608 36.1543 72.8515 36.2454 72.733 36.3457C72.6236 36.446 72.5142 36.5417 72.4048 36.6328C72.2955 36.7148 72.2226 36.7741 72.1861 36.8105H72.0357C71.981 36.8105 71.94 36.8151 71.9127 36.8242C71.8944 36.8242 71.8716 36.8014 71.8443 36.7559C71.8352 36.7467 71.817 36.7148 71.7896 36.6602C71.7623 36.6055 71.7304 36.5508 71.6939 36.4961C71.6574 36.4323 71.6255 36.3776 71.5982 36.332C71.5709 36.2773 71.5526 36.2454 71.5435 36.2363C71.5253 36.2272 71.4934 36.1999 71.4478 36.1543C71.4022 36.0996 71.3521 36.0449 71.2974 35.9902C71.2427 35.9355 71.188 35.8809 71.1334 35.8262C71.0878 35.7715 71.0513 35.7305 71.024 35.7031C70.9237 35.6211 70.8007 35.571 70.6548 35.5527C70.5181 35.5254 70.3905 35.5117 70.272 35.5117C70.108 35.5117 69.9804 35.5254 69.8892 35.5527C69.7981 35.571 69.7252 35.612 69.6705 35.6758C69.6158 35.7396 69.5748 35.8216 69.5474 35.9219C69.5292 36.0221 69.511 36.1452 69.4927 36.291V36.3184C69.4927 36.3822 69.5292 36.4688 69.6021 36.5781C69.6841 36.6875 69.7434 36.765 69.7798 36.8105L70.7232 37.7539C70.7323 37.763 70.7642 37.7904 70.8189 37.8359C70.8736 37.8724 70.9283 37.9134 70.983 37.959C71.0377 38.0046 71.0878 38.0501 71.1334 38.0957C71.188 38.1322 71.2245 38.1549 71.2427 38.1641C71.58 38.4284 71.8808 38.7109 72.1451 39.0117C72.4185 39.3125 72.6828 39.6361 72.938 39.9824C73.0474 40.2194 73.1522 40.429 73.2525 40.6113C73.3528 40.7845 73.4393 40.9577 73.5123 41.1309C73.5943 41.2949 73.6581 41.4818 73.7037 41.6914C73.7492 41.8919 73.772 42.138 73.772 42.4297V42.9492C73.7265 43.1315 73.6627 43.3047 73.5806 43.4688C73.4986 43.6237 73.3847 43.765 73.2388 43.8926C73.2024 43.9199 73.1431 43.9701 73.0611 44.043C72.9791 44.1159 72.8879 44.1888 72.7877 44.2617C72.6965 44.3346 72.6099 44.403 72.5279 44.4668C72.4459 44.5306 72.3912 44.5762 72.3638 44.6035C72.3365 44.6217 72.2772 44.6628 72.1861 44.7266C72.0949 44.7812 72.0403 44.8132 72.022 44.8223C71.9673 44.8587 71.8762 44.9089 71.7486 44.9727C71.6301 45.0273 71.5617 45.0592 71.5435 45.0684C71.5162 45.0684 71.4478 45.0775 71.3384 45.0957C71.2382 45.123 71.1242 45.1504 70.9966 45.1777C70.8782 45.2051 70.7597 45.2279 70.6412 45.2461C70.5227 45.2734 70.4315 45.2917 70.3677 45.3008H70.272C70.1171 45.3008 69.9576 45.2826 69.7935 45.2461C69.6295 45.2096 69.4699 45.1686 69.315 45.123C68.914 45.0046 68.5722 44.8268 68.2896 44.5898C68.0071 44.3438 67.7245 44.0703 67.442 43.7695C67.4055 43.7331 67.3599 43.6875 67.3052 43.6328C67.2505 43.569 67.1959 43.5098 67.1412 43.4551C67.0865 43.3913 67.0364 43.3366 66.9908 43.291C66.9452 43.2363 66.9224 43.2044 66.9224 43.1953C66.9042 43.1771 66.8814 43.1224 66.8541 43.0312C66.8267 42.931 66.8085 42.8717 66.7994 42.8535C66.7903 42.8353 66.7629 42.7852 66.7173 42.7031C66.6718 42.6211 66.6399 42.571 66.6216 42.5527C66.6125 42.5436 66.608 42.5299 66.608 42.5117V42.457V42.416ZM76.5873 45C76.5509 44.9909 76.5327 44.9681 76.5327 44.9316C76.5327 44.8952 76.5327 44.8633 76.5327 44.8359C76.5327 44.763 76.5646 44.6855 76.6284 44.6035C76.6922 44.5124 76.7377 44.4303 76.7651 44.3574C76.7742 44.3301 76.7924 44.2799 76.8198 44.207C76.8471 44.125 76.8745 44.0384 76.9018 43.9473C76.9383 43.847 76.9702 43.7604 76.9975 43.6875C77.0248 43.6055 77.0431 43.5508 77.0522 43.5234C77.0613 43.4961 77.075 43.4551 77.0932 43.4004C77.1205 43.3457 77.1479 43.2865 77.1752 43.2227C77.2026 43.1589 77.2254 43.1042 77.2436 43.0586C77.2709 43.0039 77.2846 42.9674 77.2846 42.9492C77.2937 42.9401 77.312 42.9128 77.3393 42.8672C77.3666 42.8216 77.394 42.7715 77.4213 42.7168C77.4487 42.6621 77.4715 42.6165 77.4897 42.5801C77.517 42.5345 77.5307 42.5026 77.5307 42.4844C77.5398 42.4479 77.5763 42.3477 77.6401 42.1836C77.7039 42.0195 77.7722 41.8464 77.8452 41.6641C77.9181 41.4727 77.9864 41.2995 78.0502 41.1445C78.114 40.9805 78.1551 40.8757 78.1733 40.8301C78.1915 40.7936 78.228 40.7207 78.2827 40.6113C78.3465 40.4928 78.3875 40.4154 78.4057 40.3789L80.6205 34.2949C80.6297 34.2767 80.6433 34.2448 80.6616 34.1992C80.6889 34.1445 80.7117 34.0898 80.7299 34.0352C80.7573 33.9805 80.7801 33.9303 80.7983 33.8848C80.8256 33.8301 80.8439 33.7891 80.853 33.7617L80.9213 33.6934H81.1127H81.3315C81.3679 33.6934 81.4591 33.6979 81.6049 33.707C81.7508 33.7161 81.9103 33.7253 82.0834 33.7344C82.2566 33.7344 82.4161 33.7389 82.562 33.748C82.7078 33.7572 82.8035 33.7617 82.8491 33.7617C82.9129 33.7617 82.9721 33.7617 83.0268 33.7617C83.0815 33.7526 83.1407 33.7708 83.2045 33.8164C83.2774 33.8711 83.3413 33.9349 83.3959 34.0078C83.4506 34.0807 83.5008 34.1536 83.5463 34.2266C83.5737 34.2721 83.6101 34.3314 83.6557 34.4043C83.7013 34.4772 83.7423 34.5501 83.7788 34.623C83.8243 34.696 83.8653 34.7643 83.9018 34.8281C83.9383 34.8828 83.961 34.9147 83.9702 34.9238C83.9975 34.9876 84.0431 35.0879 84.1069 35.2246C84.1707 35.3522 84.2345 35.4889 84.2983 35.6348C84.3712 35.7806 84.435 35.9128 84.4897 36.0312C84.5444 36.1497 84.5808 36.2272 84.5991 36.2637C84.6082 36.291 84.6264 36.3503 84.6538 36.4414C84.6811 36.5234 84.713 36.6146 84.7495 36.7148C84.7859 36.8151 84.8178 36.9108 84.8452 37.002C84.8725 37.084 84.8907 37.1387 84.8998 37.166C85.073 37.6491 85.2827 38.1185 85.5288 38.5742C85.7748 39.0208 85.9936 39.4811 86.185 39.9551C86.2032 40.0098 86.2442 40.1237 86.308 40.2969C86.3719 40.4609 86.4448 40.6569 86.5268 40.8848C86.6179 41.1126 86.7091 41.3542 86.8002 41.6094C86.8914 41.8646 86.978 42.1061 87.06 42.334C87.1511 42.5527 87.2286 42.7441 87.2924 42.9082C87.3562 43.0723 87.3972 43.1816 87.4155 43.2363C87.4246 43.2728 87.461 43.3594 87.5248 43.4961C87.5886 43.6237 87.6297 43.7103 87.6479 43.7559C87.6661 43.8014 87.698 43.8698 87.7436 43.9609C87.7892 44.043 87.8347 44.1341 87.8803 44.2344C87.9259 44.3346 87.9715 44.4303 88.017 44.5215C88.0626 44.6035 88.0945 44.6628 88.1127 44.6992V44.7539C88.1127 44.7995 88.0945 44.8405 88.058 44.877C88.0216 44.9043 87.976 44.9271 87.9213 44.9453C87.8758 44.9635 87.8256 44.9772 87.7709 44.9863C87.7163 44.9954 87.6752 45 87.6479 45C87.6205 45 87.5522 45 87.4428 45C87.3334 45 87.2149 45 87.0873 45C86.9689 45 86.8549 45 86.7455 45C86.6362 45 86.5678 45 86.5405 45C86.4129 45 86.2807 45.0182 86.144 45.0547C86.0164 45.1003 85.8797 45.123 85.7338 45.123C85.6609 45.123 85.6017 45.1185 85.5561 45.1094C85.5105 45.1094 85.4467 45.0911 85.3647 45.0547C85.3647 45.0547 85.3556 45.0456 85.3373 45.0273L85.31 45C85.228 44.8451 85.1642 44.722 85.1186 44.6309C85.0821 44.5306 85.0274 44.3984 84.9545 44.2344C84.9363 44.2161 84.9044 44.1569 84.8588 44.0566C84.8133 43.9564 84.7859 43.8971 84.7768 43.8789C84.7221 43.7057 84.6902 43.5553 84.6811 43.4277C84.672 43.3001 84.6082 43.1589 84.4897 43.0039C84.4806 42.9948 84.4623 42.9857 84.435 42.9766C84.4077 42.9583 84.3849 42.9492 84.3666 42.9492C84.2937 42.9492 84.1707 42.9447 83.9975 42.9355C83.8334 42.9264 83.6557 42.9219 83.4643 42.9219C83.2729 42.9128 83.0906 42.9036 82.9174 42.8945C82.7442 42.8854 82.6212 42.8809 82.5483 42.8809C82.5301 42.8809 82.489 42.8809 82.4252 42.8809C82.3705 42.8717 82.3067 42.8626 82.2338 42.8535C82.1609 42.8444 82.0926 42.8398 82.0288 42.8398C81.9649 42.8307 81.9285 42.8262 81.9194 42.8262H81.6596C81.4044 42.8262 81.1492 42.8353 80.894 42.8535C80.6479 42.8717 80.4018 42.9036 80.1557 42.9492C80.0008 42.9766 79.8868 43.0495 79.8139 43.168C79.7501 43.2773 79.6863 43.3958 79.6225 43.5234C79.6134 43.5508 79.5952 43.6009 79.5678 43.6738C79.5405 43.7467 79.5086 43.8242 79.4721 43.9062C79.4448 43.9792 79.4174 44.0475 79.3901 44.1113C79.3627 44.1751 79.3445 44.2161 79.3354 44.2344C79.3263 44.2526 79.308 44.2982 79.2807 44.3711C79.2625 44.4349 79.2397 44.5078 79.2123 44.5898C79.185 44.6628 79.1577 44.7357 79.1303 44.8086C79.1121 44.8724 79.103 44.9134 79.103 44.9316C79.0301 45.1139 78.948 45.2096 78.8569 45.2188C78.7657 45.2279 78.6336 45.2324 78.4604 45.2324C78.1414 45.2324 77.836 45.1914 77.5444 45.1094C77.2527 45.0365 76.9337 45 76.5873 45ZM82.1518 37.4395C82.1427 37.4486 82.129 37.4714 82.1108 37.5078C82.1017 37.5352 82.0971 37.5534 82.0971 37.5625C82.0971 37.5807 82.088 37.6126 82.0698 37.6582C82.0515 37.7038 82.0288 37.7539 82.0014 37.8086C81.9832 37.8542 81.9649 37.9043 81.9467 37.959C81.9285 38.0046 81.9194 38.0319 81.9194 38.041C81.9103 38.0501 81.892 38.082 81.8647 38.1367C81.8465 38.1823 81.8237 38.237 81.7963 38.3008C81.769 38.3555 81.7416 38.4102 81.7143 38.4648C81.6961 38.5195 81.6824 38.5514 81.6733 38.5605C81.6277 38.6699 81.573 38.8158 81.5092 38.998C81.4454 39.1803 81.3816 39.3626 81.3178 39.5449C81.254 39.7181 81.1993 39.8685 81.1538 39.9961C81.1173 40.1237 81.0991 40.1875 81.0991 40.1875V40.3105H83.3276C83.3367 40.3105 83.3549 40.2969 83.3823 40.2695C83.4096 40.2331 83.4324 40.2057 83.4506 40.1875V40.1328C83.4506 40.0599 83.4278 39.9733 83.3823 39.873C83.3367 39.7637 83.3002 39.6771 83.2729 39.6133C83.1909 39.4583 83.0906 39.2624 82.9721 39.0254C82.8536 38.7884 82.7351 38.5605 82.6166 38.3418C82.5073 38.1139 82.4116 37.918 82.3295 37.7539C82.2475 37.5898 82.2065 37.5078 82.2065 37.5078L82.1518 37.4395ZM91.5706 45.2461C91.5615 45.1276 91.5524 44.9453 91.5433 44.6992C91.5342 44.444 91.5205 44.1615 91.5023 43.8516C91.4932 43.5417 91.4795 43.2181 91.4613 42.8809C91.4521 42.5345 91.443 42.2064 91.4339 41.8965C91.4248 41.5866 91.4157 41.3086 91.4066 41.0625C91.3974 40.8073 91.3929 40.6204 91.3929 40.502C91.3929 40.4746 91.3929 40.3607 91.3929 40.1602C91.3929 39.9596 91.3883 39.7318 91.3792 39.4766C91.3792 39.2214 91.3792 38.9661 91.3792 38.7109C91.3792 38.4557 91.3792 38.2552 91.3792 38.1094C91.3792 38.0182 91.3792 37.8587 91.3792 37.6309C91.3792 37.403 91.3792 37.1615 91.3792 36.9062C91.3883 36.651 91.3929 36.4095 91.3929 36.1816C91.3929 35.9538 91.3929 35.7943 91.3929 35.7031C91.402 35.6667 91.4111 35.5892 91.4202 35.4707C91.4385 35.3522 91.4476 35.2747 91.4476 35.2383C91.4476 35.1836 91.4476 35.0924 91.4476 34.9648C91.4567 34.8281 91.4613 34.6868 91.4613 34.541C91.4613 34.3861 91.4567 34.2448 91.4476 34.1172C91.4476 33.9805 91.4476 33.8848 91.4476 33.8301C91.5387 33.7936 91.6116 33.7754 91.6663 33.7754C91.721 33.7663 91.7894 33.7617 91.8714 33.7617H92.0902C92.154 33.7708 92.2679 33.7799 92.432 33.7891C92.596 33.7891 92.7646 33.7936 92.9378 33.8027C93.1201 33.8118 93.2887 33.821 93.4437 33.8301C93.6077 33.8301 93.7217 33.8301 93.7855 33.8301C93.904 33.9303 94.0133 34.0579 94.1136 34.2129C94.223 34.3587 94.3187 34.5182 94.4007 34.6914C94.4918 34.8555 94.5784 35.0241 94.6605 35.1973C94.7425 35.3613 94.8245 35.5072 94.9066 35.6348C94.9157 35.6621 94.9476 35.7214 95.0023 35.8125C95.057 35.8945 95.1116 35.9857 95.1663 36.0859C95.2301 36.1771 95.2848 36.2682 95.3304 36.3594C95.3851 36.4414 95.4215 36.4915 95.4398 36.5098C95.4489 36.528 95.4671 36.569 95.4945 36.6328C95.5309 36.6966 95.5674 36.7695 95.6038 36.8516C95.6403 36.9245 95.6722 36.9928 95.6995 37.0566C95.736 37.1204 95.7633 37.1569 95.7816 37.166L96.0687 37.4531C96.0778 37.4714 96.096 37.5124 96.1234 37.5762C96.1507 37.64 96.1735 37.6764 96.1917 37.6855C96.2008 37.7038 96.2236 37.7402 96.2601 37.7949C96.2965 37.8405 96.3376 37.8952 96.3831 37.959C96.4378 38.0137 96.4834 38.0684 96.5198 38.123C96.5654 38.1686 96.5928 38.196 96.6019 38.2051C96.6201 38.2233 96.6383 38.2552 96.6566 38.3008C96.6839 38.3464 96.7021 38.3737 96.7113 38.3828C96.7204 38.401 96.7432 38.4466 96.7796 38.5195C96.8252 38.5924 96.8708 38.6699 96.9163 38.752C96.971 38.834 97.0166 38.9115 97.053 38.9844C97.0895 39.0482 97.1168 39.0892 97.1351 39.1074C97.1442 39.1165 97.1715 39.153 97.2171 39.2168C97.2627 39.2715 97.2946 39.3079 97.3128 39.3262C97.3584 39.3809 97.3948 39.4128 97.4222 39.4219C97.4586 39.431 97.4951 39.4583 97.5316 39.5039C97.5498 39.5221 97.5817 39.5723 97.6273 39.6543C97.6728 39.7363 97.7002 39.7865 97.7093 39.8047C97.7184 39.8138 97.7549 39.8503 97.8187 39.9141C97.8825 39.9779 97.9235 40.0143 97.9417 40.0234C97.9508 40.0417 97.9736 40.0736 98.0101 40.1191C98.0465 40.1647 98.083 40.2148 98.1195 40.2695C98.165 40.3151 98.206 40.3652 98.2425 40.4199C98.279 40.4655 98.3017 40.4928 98.3109 40.502C98.32 40.5111 98.3336 40.5339 98.3519 40.5703C98.3792 40.5977 98.3974 40.6159 98.4066 40.625C98.4248 40.5885 98.4385 40.5111 98.4476 40.3926C98.4567 40.2741 98.4658 40.1921 98.4749 40.1465V39.9824C98.4749 39.6361 98.4567 39.2943 98.4202 38.957C98.3929 38.6107 98.3564 38.2689 98.3109 37.9316V34.0625C98.3109 34.0352 98.3154 33.9941 98.3245 33.9395C98.3428 33.8848 98.3701 33.8483 98.4066 33.8301C98.4339 33.8301 98.4749 33.8301 98.5296 33.8301C98.5843 33.8301 98.6435 33.8301 98.7073 33.8301C98.7711 33.821 98.8304 33.8164 98.8851 33.8164C98.9398 33.8164 98.9808 33.8164 99.0081 33.8164C99.0446 33.8164 99.0902 33.8164 99.1448 33.8164C99.2086 33.8164 99.2679 33.821 99.3226 33.8301C99.3864 33.8301 99.4411 33.8301 99.4866 33.8301C99.5413 33.8301 99.5732 33.8301 99.5823 33.8301C99.6188 33.8301 99.678 33.8346 99.7601 33.8438C99.8512 33.8438 99.9469 33.8483 100.047 33.8574C100.157 33.8574 100.252 33.862 100.334 33.8711C100.425 33.8802 100.489 33.8848 100.526 33.8848C100.59 33.9303 100.64 33.985 100.676 34.0488C100.713 34.1126 100.74 34.1855 100.758 34.2676C100.776 34.3405 100.785 34.418 100.785 34.5C100.795 34.5729 100.804 34.6413 100.813 34.7051C100.822 34.8418 100.831 35.0423 100.84 35.3066C100.858 35.571 100.872 35.8444 100.881 36.127C100.899 36.4095 100.913 36.6647 100.922 36.8926C100.931 37.1204 100.936 37.2663 100.936 37.3301C100.936 37.4395 100.936 37.6081 100.936 37.8359C100.945 38.0638 100.95 38.319 100.95 38.6016C100.95 38.8841 100.95 39.1849 100.95 39.5039C100.95 39.8229 100.95 40.1237 100.95 40.4062C100.95 40.6888 100.945 40.944 100.936 41.1719C100.936 41.3997 100.936 41.5684 100.936 41.6777C100.972 41.9329 100.991 42.1608 100.991 42.3613C101 42.5618 101.004 42.7943 101.004 43.0586C101.004 43.1042 101 43.168 100.991 43.25C100.991 43.3229 100.991 43.3958 100.991 43.4688C100.991 43.5417 100.986 43.61 100.977 43.6738C100.977 43.7285 100.977 43.7604 100.977 43.7695C100.977 43.8151 100.972 43.8971 100.963 44.0156C100.963 44.1341 100.959 44.2617 100.95 44.3984C100.95 44.526 100.945 44.6491 100.936 44.7676C100.936 44.877 100.936 44.9544 100.936 45C100.881 45.0091 100.776 45.0182 100.621 45.0273C100.476 45.0456 100.316 45.0592 100.143 45.0684C99.9697 45.0866 99.8057 45.1003 99.6507 45.1094C99.5049 45.1185 99.4046 45.123 99.3499 45.123H98.9671H98.5843C98.4932 45.0957 98.4157 45.041 98.3519 44.959C98.2881 44.877 98.2334 44.7995 98.1878 44.7266C97.887 44.2344 97.5863 43.7467 97.2855 43.2637C96.9847 42.7715 96.6611 42.3021 96.3148 41.8555C96.2874 41.8281 96.2373 41.7689 96.1644 41.6777C96.0915 41.5866 96.0413 41.5273 96.014 41.5C95.9958 41.4818 95.9593 41.4408 95.9046 41.377C95.8499 41.3132 95.7907 41.2493 95.7269 41.1855C95.6631 41.1126 95.5993 41.0443 95.5355 40.9805C95.4808 40.9167 95.4489 40.8757 95.4398 40.8574C95.4215 40.8392 95.3896 40.7936 95.3441 40.7207C95.2985 40.6478 95.2484 40.5703 95.1937 40.4883C95.1481 40.3971 95.098 40.3151 95.0433 40.2422C94.9977 40.1602 94.9704 40.1055 94.9613 40.0781C94.9521 40.0599 94.9157 40.0052 94.8519 39.9141C94.7881 39.8138 94.7471 39.7546 94.7288 39.7363C94.7106 39.709 94.6696 39.6452 94.6058 39.5449C94.5511 39.4355 94.4918 39.3262 94.428 39.2168C94.3642 39.0983 94.3004 38.9889 94.2366 38.8887C94.182 38.7793 94.1501 38.7109 94.1409 38.6836C94.1318 38.6745 94.109 38.6471 94.0726 38.6016C94.0452 38.5469 94.027 38.515 94.0179 38.5059C94.0179 38.515 94.0088 38.5469 93.9905 38.6016C93.9723 38.6471 93.9632 38.6745 93.9632 38.6836V38.7383V38.8066C93.9905 39.4355 94.0088 40.0599 94.0179 40.6797C94.027 41.2995 94.0498 41.9238 94.0863 42.5527C94.0863 42.571 94.0863 42.6165 94.0863 42.6895C94.0954 42.7533 94.1045 42.8262 94.1136 42.9082C94.1227 42.9811 94.1273 43.054 94.1273 43.127C94.1364 43.1908 94.1409 43.2318 94.1409 43.25V44.7676C94.1865 44.8587 94.2093 44.959 94.2093 45.0684C94.2093 45.0866 94.2047 45.0957 94.1956 45.0957C94.1956 45.1048 94.1956 45.1185 94.1956 45.1367V45.1777C94.1956 45.1868 94.1774 45.196 94.1409 45.2051C94.1136 45.2233 94.0954 45.237 94.0863 45.2461C93.8675 45.2917 93.6579 45.3099 93.4573 45.3008C93.2659 45.3008 93.0563 45.3008 92.8284 45.3008H91.9671C91.9398 45.3008 91.8714 45.2917 91.762 45.2734C91.6618 45.2643 91.598 45.2552 91.5706 45.2461ZM103.874 45C103.838 44.9909 103.82 44.9681 103.82 44.9316C103.82 44.8952 103.82 44.8633 103.82 44.8359C103.82 44.763 103.851 44.6855 103.915 44.6035C103.979 44.5124 104.025 44.4303 104.052 44.3574C104.061 44.3301 104.079 44.2799 104.107 44.207C104.134 44.125 104.161 44.0384 104.189 43.9473C104.225 43.847 104.257 43.7604 104.284 43.6875C104.312 43.6055 104.33 43.5508 104.339 43.5234C104.348 43.4961 104.362 43.4551 104.38 43.4004C104.407 43.3457 104.435 43.2865 104.462 43.2227C104.489 43.1589 104.512 43.1042 104.53 43.0586C104.558 43.0039 104.571 42.9674 104.571 42.9492C104.581 42.9401 104.599 42.9128 104.626 42.8672C104.654 42.8216 104.681 42.7715 104.708 42.7168C104.736 42.6621 104.758 42.6165 104.777 42.5801C104.804 42.5345 104.818 42.5026 104.818 42.4844C104.827 42.4479 104.863 42.3477 104.927 42.1836C104.991 42.0195 105.059 41.8464 105.132 41.6641C105.205 41.4727 105.273 41.2995 105.337 41.1445C105.401 40.9805 105.442 40.8757 105.46 40.8301C105.478 40.7936 105.515 40.7207 105.57 40.6113C105.633 40.4928 105.674 40.4154 105.693 40.3789L107.907 34.2949C107.917 34.2767 107.93 34.2448 107.948 34.1992C107.976 34.1445 107.999 34.0898 108.017 34.0352C108.044 33.9805 108.067 33.9303 108.085 33.8848C108.112 33.8301 108.131 33.7891 108.14 33.7617L108.208 33.6934H108.4H108.618C108.655 33.6934 108.746 33.6979 108.892 33.707C109.038 33.7161 109.197 33.7253 109.37 33.7344C109.543 33.7344 109.703 33.7389 109.849 33.748C109.995 33.7572 110.09 33.7617 110.136 33.7617C110.2 33.7617 110.259 33.7617 110.314 33.7617C110.368 33.7526 110.428 33.7708 110.491 33.8164C110.564 33.8711 110.628 33.9349 110.683 34.0078C110.737 34.0807 110.788 34.1536 110.833 34.2266C110.861 34.2721 110.897 34.3314 110.943 34.4043C110.988 34.4772 111.029 34.5501 111.066 34.623C111.111 34.696 111.152 34.7643 111.189 34.8281C111.225 34.8828 111.248 34.9147 111.257 34.9238C111.284 34.9876 111.33 35.0879 111.394 35.2246C111.458 35.3522 111.521 35.4889 111.585 35.6348C111.658 35.7806 111.722 35.9128 111.777 36.0312C111.831 36.1497 111.868 36.2272 111.886 36.2637C111.895 36.291 111.913 36.3503 111.941 36.4414C111.968 36.5234 112 36.6146 112.036 36.7148C112.073 36.8151 112.105 36.9108 112.132 37.002C112.159 37.084 112.178 37.1387 112.187 37.166C112.36 37.6491 112.57 38.1185 112.816 38.5742C113.062 39.0208 113.28 39.4811 113.472 39.9551C113.49 40.0098 113.531 40.1237 113.595 40.2969C113.659 40.4609 113.732 40.6569 113.814 40.8848C113.905 41.1126 113.996 41.3542 114.087 41.6094C114.178 41.8646 114.265 42.1061 114.347 42.334C114.438 42.5527 114.515 42.7441 114.579 42.9082C114.643 43.0723 114.684 43.1816 114.702 43.2363C114.711 43.2728 114.748 43.3594 114.812 43.4961C114.876 43.6237 114.917 43.7103 114.935 43.7559C114.953 43.8014 114.985 43.8698 115.03 43.9609C115.076 44.043 115.122 44.1341 115.167 44.2344C115.213 44.3346 115.258 44.4303 115.304 44.5215C115.349 44.6035 115.381 44.6628 115.4 44.6992V44.7539C115.4 44.7995 115.381 44.8405 115.345 44.877C115.308 44.9043 115.263 44.9271 115.208 44.9453C115.163 44.9635 115.112 44.9772 115.058 44.9863C115.003 44.9954 114.962 45 114.935 45C114.907 45 114.839 45 114.73 45C114.62 45 114.502 45 114.374 45C114.256 45 114.142 45 114.032 45C113.923 45 113.855 45 113.827 45C113.7 45 113.568 45.0182 113.431 45.0547C113.303 45.1003 113.167 45.123 113.021 45.123C112.948 45.123 112.889 45.1185 112.843 45.1094C112.797 45.1094 112.734 45.0911 112.652 45.0547C112.652 45.0547 112.642 45.0456 112.624 45.0273L112.597 45C112.515 44.8451 112.451 44.722 112.405 44.6309C112.369 44.5306 112.314 44.3984 112.241 44.2344C112.223 44.2161 112.191 44.1569 112.146 44.0566C112.1 43.9564 112.073 43.8971 112.064 43.8789C112.009 43.7057 111.977 43.5553 111.968 43.4277C111.959 43.3001 111.895 43.1589 111.777 43.0039C111.767 42.9948 111.749 42.9857 111.722 42.9766C111.695 42.9583 111.672 42.9492 111.654 42.9492C111.581 42.9492 111.458 42.9447 111.284 42.9355C111.12 42.9264 110.943 42.9219 110.751 42.9219C110.56 42.9128 110.377 42.9036 110.204 42.8945C110.031 42.8854 109.908 42.8809 109.835 42.8809C109.817 42.8809 109.776 42.8809 109.712 42.8809C109.657 42.8717 109.594 42.8626 109.521 42.8535C109.448 42.8444 109.379 42.8398 109.316 42.8398C109.252 42.8307 109.215 42.8262 109.206 42.8262H108.946C108.691 42.8262 108.436 42.8353 108.181 42.8535C107.935 42.8717 107.689 42.9036 107.443 42.9492C107.288 42.9766 107.174 43.0495 107.101 43.168C107.037 43.2773 106.973 43.3958 106.909 43.5234C106.9 43.5508 106.882 43.6009 106.855 43.6738C106.827 43.7467 106.795 43.8242 106.759 43.9062C106.732 43.9792 106.704 44.0475 106.677 44.1113C106.65 44.1751 106.631 44.2161 106.622 44.2344C106.613 44.2526 106.595 44.2982 106.568 44.3711C106.549 44.4349 106.527 44.5078 106.499 44.5898C106.472 44.6628 106.445 44.7357 106.417 44.8086C106.399 44.8724 106.39 44.9134 106.39 44.9316C106.317 45.1139 106.235 45.2096 106.144 45.2188C106.053 45.2279 105.92 45.2324 105.747 45.2324C105.428 45.2324 105.123 45.1914 104.831 45.1094C104.54 45.0365 104.221 45 103.874 45ZM109.439 37.4395C109.43 37.4486 109.416 37.4714 109.398 37.5078C109.389 37.5352 109.384 37.5534 109.384 37.5625C109.384 37.5807 109.375 37.6126 109.357 37.6582C109.338 37.7038 109.316 37.7539 109.288 37.8086C109.27 37.8542 109.252 37.9043 109.234 37.959C109.215 38.0046 109.206 38.0319 109.206 38.041C109.197 38.0501 109.179 38.082 109.152 38.1367C109.133 38.1823 109.111 38.237 109.083 38.3008C109.056 38.3555 109.029 38.4102 109.001 38.4648C108.983 38.5195 108.969 38.5514 108.96 38.5605C108.915 38.6699 108.86 38.8158 108.796 38.998C108.732 39.1803 108.668 39.3626 108.605 39.5449C108.541 39.7181 108.486 39.8685 108.441 39.9961C108.404 40.1237 108.386 40.1875 108.386 40.1875V40.3105H110.614C110.624 40.3105 110.642 40.2969 110.669 40.2695C110.696 40.2331 110.719 40.2057 110.737 40.1875V40.1328C110.737 40.0599 110.715 39.9733 110.669 39.873C110.624 39.7637 110.587 39.6771 110.56 39.6133C110.478 39.4583 110.377 39.2624 110.259 39.0254C110.14 38.7884 110.022 38.5605 109.904 38.3418C109.794 38.1139 109.698 37.918 109.616 37.7539C109.534 37.5898 109.493 37.5078 109.493 37.5078L109.439 37.4395Z" fill="black"/>
</svg>
