<svg width="112" height="156" viewBox="0 0 112 156" fill="none" xmlns="http://www.w3.org/2000/svg">
<path d="M8.90226 98.1886C8.95036 98.0443 8.99845 97.9 9.09465 97.7557C7.41121 97.6595 7.31502 96.4088 7.12263 95.2544C6.97833 94.2923 6.83404 93.2821 6.68974 92.272C5.92017 93.3783 6.35306 97.3228 7.41121 97.9962C7.796 98.2367 8.42128 98.0924 8.90226 98.1886ZM6.30496 99.1507C6.30496 99.0545 6.35306 98.9102 6.35306 98.814C3.56336 97.3228 5.05441 94.5328 4.57343 92.272C3.61146 93.7632 3.85195 97.7076 4.95821 98.7659C5.2949 99.0545 5.87208 99.0545 6.30496 99.1507Z" fill="white"/>
<path d="M102.838 79.6688C102.838 80.4866 102.886 81.2562 102.79 82.0259C102.79 82.2664 102.453 82.5069 102.261 82.7474C102.02 80.9676 101.828 79.4283 101.635 77.889C101.539 77.889 101.491 77.889 101.395 77.889V82.8436C100.914 82.4588 100.674 82.2664 100.433 82.0259C100.241 82.3145 100.048 82.6031 99.7597 83.036C100.722 83.5171 101.635 83.8057 102.405 84.3829C104.762 86.1146 105.387 88.616 105.195 91.4059C105.195 91.7427 105.147 92.2237 105.387 92.4642C108.033 95.7352 109.139 99.6316 109.86 103.576C110.63 107.761 110.774 112.09 111.255 116.371C111.351 117.189 111.688 118.007 111.784 118.825C110.678 118.055 110.437 116.901 110.389 115.698C110.293 113.004 110.486 110.262 110.101 107.617C109.331 102.662 108.177 97.7074 105.339 93.4744C104.521 92.2237 103.078 91.4059 101.684 90.1553C101.732 94.3883 102.838 97.8518 103.992 101.363C105.291 105.356 106.253 109.445 107.311 113.533C107.696 114.976 107.744 116.516 107.984 118.055C109.716 117.285 108.514 119.642 110.053 119.354C109.235 119.931 108.898 120.172 108.321 120.653C107.888 119.498 107.407 118.536 107.167 117.478C106.493 114.303 105.724 111.176 105.339 107.953C105.05 105.885 104.329 104.009 103.704 102.037C103.608 101.748 103.463 101.508 103.175 100.882C102.982 104.057 102.357 106.655 103.223 109.589C104.377 113.581 104.762 117.814 105.339 121.999C105.435 122.865 104.906 123.779 104.666 124.693C104.473 125.415 103.992 126.136 103.992 126.81C103.992 131.043 104.185 135.324 104.137 139.557C104.137 141.144 104.569 142.491 105.483 143.694C106.349 144.8 107.263 145.859 108.177 146.917C108.369 147.157 108.61 147.398 108.754 147.638C109.283 148.456 109.812 149.418 109.091 150.188C108.465 150.765 107.311 151.438 106.638 151.198C105.05 150.717 103.559 149.803 102.165 148.937C98.942 146.869 98.9901 143.55 98.942 140.279C98.8939 137.777 98.5572 135.324 98.3648 132.823C98.2205 131.283 98.0762 129.696 97.8838 128.157C97.8357 127.868 97.8357 127.387 97.6914 127.339C95.6713 126.714 96.2966 124.934 96.0561 123.587C95.8637 122.529 95.9599 121.374 95.9599 120.268C95.9599 119.45 95.6232 119.258 94.8536 119.498C94.7574 121.374 94.6613 123.25 94.4689 125.126C94.4208 125.559 94.2284 126.233 93.9398 126.329C92.8816 126.665 92.9778 127.387 92.9778 128.253C93.074 132.919 93.074 137.585 93.1221 142.203C93.1221 142.539 93.1221 142.924 93.2183 143.261C94.1322 145.714 93.6512 147.446 91.3425 148.793C89.7071 149.755 87.9275 150.38 86.1479 151.054C85.2821 151.39 84.3202 151.246 83.7911 150.38C83.262 149.514 83.6468 148.697 84.3202 148.119C87.4465 145.522 86.677 142.01 86.6289 138.691C86.5808 134.939 86.4365 131.139 86.3403 127.387C86.3403 127.098 86.3403 126.617 86.1479 126.569C84.3682 125.655 84.5606 123.875 84.5125 122.432C84.4644 119.642 84.6087 116.804 85.0416 114.062C85.8593 108.771 85.4745 103.528 84.4644 98.2847C84.3201 97.4669 83.8873 97.5631 83.3101 97.6593C82.3 97.8998 81.29 98.1885 80.2318 98.3328C77.875 98.6695 75.7587 97.7555 73.5462 97.2264C72.0551 96.8897 70.4679 96.8416 68.9287 96.6973C68.8326 96.6973 68.6882 96.6011 68.3997 96.4568C70.6603 95.4947 71.2374 93.4744 71.9589 91.5503C72.488 93.3301 71.0451 94.5326 70.516 96.12C72.1513 96.1681 72.3918 94.8694 72.7766 93.8592C73.8829 90.6844 74.0271 87.4615 73.6905 84.0943C73.2576 79.8131 73.0652 75.532 72.5842 71.2508C72.2956 68.6532 71.8146 66.0557 71.1894 63.5062C70.2755 59.6099 69.1692 55.7616 68.1592 51.9134C67.9668 51.1918 67.6782 50.5184 67.3415 49.6044C66.7162 50.2779 66.139 50.8551 65.61 51.4324C64.2151 53.0198 62.7722 54.5591 61.4254 56.1465C61.1368 56.4832 60.9445 57.2047 61.0887 57.5895C61.6659 59.0807 61.9545 60.5238 61.4735 62.2074C60.8002 64.7088 61.1849 67.2582 61.9064 69.7115C62.7241 72.5015 63.686 75.2433 64.648 77.9852C65.7062 81.0638 65.9467 84.1424 64.648 87.221C64.1189 88.5198 63.8784 89.5299 65.3214 90.7325C66.0429 91.3578 65.8505 93.1377 66.0429 94.3883C66.091 94.6289 65.9948 94.8694 65.9466 95.158C66.0909 95.2061 66.1871 95.2061 66.3314 95.2542C66.6681 94.0035 67.0048 92.7047 67.3415 91.454C67.9668 92.9452 67.4377 94.244 66.7643 95.7352C68.6402 94.6288 69.073 92.849 69.6983 91.0211C70.3717 93.4263 68.3997 96.1681 66.1871 96.2162C65.61 96.2162 65.0809 96.3606 64.5037 96.4087C63.3013 96.553 62.5317 96.0238 62.6279 94.8213C62.7241 93.7149 63.2532 92.6566 63.5898 91.5984C63.686 91.3097 63.8303 91.0211 63.8303 90.6844C63.8784 89.6261 63.4937 88.4236 63.8784 87.5096C65.6581 83.2765 64.648 79.284 63.0127 75.3395C61.0887 70.6736 59.8382 65.9114 61.0887 60.7643C61.233 60.2352 60.8964 59.5618 60.7521 58.9845C60.6078 58.4554 60.4154 57.8782 60.2711 57.4933C59.5015 57.3009 58.8281 57.1085 58.1067 56.9642C57.2409 59.8985 57.9624 62.8809 58.3952 65.9114C58.8762 69.2786 59.3091 72.6458 59.5977 76.013C59.6939 76.7826 59.1648 77.5523 59.1167 78.3219C59.0686 81.641 59.2129 84.912 59.0686 88.2311C58.9724 91.8389 58.6838 95.4466 58.4433 99.0062C58.251 101.796 58.0586 104.634 57.6738 107.424C57.1447 111.272 56.4232 115.121 55.7979 118.969C55.7499 119.306 55.5575 119.691 55.317 119.835C54.0664 120.508 54.1626 121.615 54.0664 122.769C53.8259 127.628 53.6335 132.486 53.2487 137.344C53.0564 139.365 54.2588 140.76 54.9322 142.395C56.0384 145.137 57.289 147.879 58.299 150.621C58.6357 151.583 58.6838 152.689 58.5395 153.699C58.3952 154.902 57.5295 155.575 56.2789 155.816C53.7778 156.297 51.4691 155.864 49.5933 154.18C46.996 151.823 44.3987 149.418 42.09 146.821C41.2723 145.907 41.0318 144.367 40.8875 143.069C40.3103 138.162 39.8775 133.207 39.4446 128.253C39.2522 126.04 39.1079 123.875 38.9155 121.663C38.8674 121.374 38.675 121.134 38.5788 120.893C38.2421 120.268 37.6649 119.642 37.5687 118.969C37.0397 115.121 36.5106 111.272 36.1739 107.424C35.7891 102.903 35.5967 98.3328 35.3081 93.763C35.3081 93.4263 35.26 93.0896 35.2119 92.6566H33.1437C32.9994 94.1959 32.7589 95.639 32.7108 97.1302C32.4703 102.422 32.278 107.665 32.1337 112.956C32.0856 114.543 32.2779 116.131 32.4222 117.718C32.5184 118.68 32.2779 119.306 31.316 119.691C30.9312 119.835 30.4983 120.46 30.4502 120.893C30.3059 126.569 30.2097 132.245 30.2097 137.922C30.2097 139.028 30.8831 140.134 30.9793 141.241C31.0755 142.347 30.8831 143.55 30.6426 144.656C30.0173 147.59 28.5744 148.312 25.1113 149.033C20.8306 149.947 16.5018 150.717 12.1729 151.438C10.8743 151.631 9.52752 151.727 8.22887 151.535C7.02642 151.342 6.20875 150.428 5.92016 149.226C5.58347 147.831 6.06445 146.676 7.21881 145.859C9.52752 144.223 11.8362 142.636 14.1449 141.048C14.193 141 14.2411 141 14.2892 141C17.4637 139.028 17.4637 138.836 16.8384 135.035C16.3094 131.957 16.0689 128.83 15.636 125.751C15.3955 124.02 15.155 122.288 14.7702 120.556C14.674 120.123 14.0487 119.787 13.664 119.402C13.3273 119.065 12.7501 118.728 12.702 118.296C12.1248 115.073 11.4514 111.802 11.1629 108.531C10.7781 103.913 10.73 99.2467 10.5857 94.6289C10.5376 93.8111 10.8262 92.9933 9.57562 92.8009C9.23893 92.7528 8.80605 92.0313 8.75795 91.5984C8.66175 90.4439 8.70985 89.2413 8.70985 88.0868C8.80605 88.0868 8.95034 88.0387 9.04654 88.0387C9.23893 89.4818 9.43132 90.973 9.57562 92.4161C9.81611 92.4161 10.0085 92.4642 10.249 92.4642C10.4414 91.887 10.7781 91.3578 10.8262 90.7806C11.0667 88.616 11.4995 86.4994 10.6819 84.3348C10.249 83.1803 10.5857 81.7372 10.5857 80.3904C10.5857 79.6207 10.5857 79.0435 9.62372 78.6587C9.09464 78.4662 8.61366 77.3599 8.66175 76.7345C8.90225 72.5977 9.14274 68.4127 9.67182 64.324C10.0566 61.534 10.8743 58.7921 11.5476 56.0502C9.91231 55.5692 8.27697 55.0882 6.40114 54.5109C6.16065 55.7135 5.72777 57.0604 5.58347 58.4073C5.15059 62.6404 5.00629 66.9215 4.47721 71.1065C3.90004 75.4358 2.98617 79.7169 2.3128 83.9981C1.73562 87.5096 1.30273 91.0692 0.869851 94.6289C0.725557 95.9276 1.35083 96.9859 2.36089 98.0442V91.6946C2.40899 91.6946 2.45709 91.6465 2.55329 91.6465C2.64948 91.9351 2.74568 92.2237 2.74568 92.5604C2.84188 93.4744 2.93807 94.4364 2.88998 95.3985C2.84188 96.9378 2.98617 98.3809 4.9101 99.0062C4.57341 99.1986 4.42912 99.3429 4.33292 99.2948C1.87991 98.9581 0.340774 97.1783 0.244577 94.7251C0.0521848 90.9249 0.821755 87.2691 1.73562 83.6614C3.37096 77.0713 3.99623 70.3368 4.38102 63.6024C4.57341 60.6681 5.19869 57.782 5.53537 54.8958C5.58347 54.5109 5.24679 54.078 5.10249 53.6451C4.862 53.116 4.33292 52.5868 4.38102 52.1058C4.9582 47.1512 5.96826 42.3409 8.66175 38.0116C10.4895 35.0773 13.0868 33.2013 16.1651 31.8544C18.9067 30.6519 21.6002 29.4493 24.5822 28.1024C22.8507 26.4669 21.8887 24.639 21.6483 22.5225C21.4078 20.6945 21.3597 18.8666 21.1673 17.0387C21.1192 16.6058 20.7825 16.221 20.5901 15.788C20.2053 14.9703 19.58 14.2006 19.4838 13.3829C19.3395 12.3246 19.9167 11.122 19.6762 10.1119C19.2433 8.38017 20.7825 7.61052 21.1673 6.31174C21.2635 5.97502 21.6483 5.49399 21.9368 5.49399C23.5241 5.34968 24.1494 3.90659 25.2075 3.08884C27.3719 1.40524 29.873 0.491278 32.5665 0.106454C35.8372 -0.326473 38.8193 0.587485 41.5609 2.3673C41.8014 2.5116 42.09 2.55971 42.3786 2.60781C42.6671 2.65591 43.1 2.55971 43.2924 2.70402C44.1582 3.52177 45.2645 4.29142 45.6492 5.34968C46.4669 7.41811 46.8998 9.67895 47.477 11.8436C47.5732 12.1803 47.6213 12.5651 47.5251 12.9019C47.1884 14.2968 46.7074 15.6918 46.4188 17.1349C46.1783 18.3375 46.0821 19.5882 45.8897 20.8388C45.8416 21.2237 45.6973 21.6085 45.4568 21.8971C44.3025 23.5326 44.543 25.3605 46.3226 26.2745C48.7756 27.4771 51.3729 28.4872 53.9221 29.5455C55.1246 30.0265 56.3751 30.4594 57.6738 30.7481C60.1749 31.3734 61.6659 33.2494 62.7722 35.2216C64.7442 38.7332 66.4276 42.4371 68.1592 46.0448C68.544 46.8145 68.6402 47.5841 68.0149 48.4019C67.7744 48.7386 67.8225 49.412 67.9668 49.845C69.0249 53.597 70.4198 57.2528 71.2374 61.053C72.4399 66.3443 73.45 71.6837 73.5943 77.1675C73.6905 80.3423 74.1233 83.5652 74.3157 86.74C74.4119 88.0387 74.2195 89.3856 74.1233 90.6844C74.0752 91.3578 74.3638 91.7427 75.0372 92.0794C77.4902 93.1377 79.7508 93.1376 82.2519 91.887C84.5125 90.7806 86.9655 90.0591 89.3224 89.1451C89.659 89.0008 89.9957 88.616 90.0919 88.2793C90.14 88.0387 89.8995 87.4134 89.659 87.3653C86.9656 86.5475 85.4745 84.431 83.6949 82.4588C84.0797 83.3727 84.5125 84.2867 84.8973 85.2007C84.753 85.2969 84.5606 85.3931 84.4163 85.4893C84.1278 85.0564 83.8392 84.6234 83.5506 84.1905C83.4544 84.2386 83.3582 84.2867 83.3101 84.3348C83.3582 84.6715 83.4063 85.0082 83.4544 85.3931H81.1938C81.1938 85.345 81.0976 85.5855 80.9052 86.0184C80.7609 85.7779 80.6647 85.6817 80.6647 85.5374C80.4242 83.6614 79.9432 81.7372 79.9432 79.8131C79.9432 75.9168 81.4824 72.5977 84.0316 69.6634C86.3403 66.9696 89.4186 66.2 92.6892 66.3924C96.0561 66.5848 99.1825 67.7393 101.347 70.5292C103.704 73.5116 105.195 76.9269 105.339 80.7752C105.339 81.3043 105.099 81.8816 104.954 82.4588C104.858 82.4588 104.762 82.4107 104.618 82.4107C104.473 81.2081 104.329 80.0536 104.185 78.8511C103.367 72.742 99.904 68.5089 93.9879 67.3063C89.659 66.3924 85.6669 67.4507 82.9253 72.1166C81.9152 73.8484 80.7128 75.532 80.809 77.6966C82.3 78.2257 83.262 77.6004 83.7911 76.0611C84.8973 72.8863 86.677 70.2887 90.2362 69.5672C94.4689 68.7013 98.0281 70.5773 99.904 74.3294C100.241 75.0028 100.866 75.532 101.539 75.9649C102.068 77.1675 102.453 78.4181 102.838 79.6688ZM55.6056 33.0089C55.7498 33.1051 55.846 33.2013 55.9903 33.2975C55.7498 33.6823 55.4613 34.0672 55.2208 34.5001C52.864 38.1078 52.2387 42.0523 53.2006 46.141C54.0664 49.9412 56.2308 53.116 58.5395 56.1945C59.1167 56.9161 59.5496 56.9642 60.1268 56.3389C60.8964 55.473 61.714 54.5591 62.4836 53.6932C64.0708 51.9134 65.7543 50.1817 67.2453 48.3057C67.582 47.8727 67.7263 46.9107 67.5339 46.4296C65.9948 42.9662 64.5518 39.5028 62.7241 36.2318C61.4735 33.971 59.7901 31.9987 57.0966 31.181C53.5373 30.0746 50.0743 28.7758 46.5631 27.5733C43.7253 31.2291 39.8775 33.6342 35.0195 34.2115C34.3943 34.3077 34.0576 34.4039 34.25 35.1735C34.3943 35.7989 34.2981 36.4242 34.2981 37.0977C34.1538 37.0977 34.0576 37.0977 33.9133 37.0977C33.8652 36.5204 33.9133 35.9432 33.7209 35.4141C33.5766 35.0292 33.0956 34.5001 32.807 34.5001C29.0554 34.5963 25.9771 33.1532 23.3317 30.6519C22.7545 30.0746 22.1773 30.0265 21.4559 30.4113C19.9167 31.1329 18.3295 31.8063 16.7422 32.4798C12.9906 34.0191 10.1528 36.5204 8.22887 40.1763C6.35304 43.8802 5.67967 47.8727 4.95819 51.8653C4.8139 52.7792 5.19869 53.4046 6.06445 53.6932C7.94028 54.3666 9.81611 55.0401 11.6438 55.6654C12.8944 53.6451 13.0868 51.7691 12.5577 49.7006C12.221 48.4019 11.9324 47.055 11.8362 45.7081C11.74 44.5055 11.9324 43.3029 11.9805 42.0523C12.1729 42.0523 12.3653 42.0523 12.5577 42.0523C11.6919 44.9866 12.9906 47.6803 13.3273 50.4703C13.4235 51.3843 13.5197 52.3944 13.2792 53.3084C12.2691 57.4933 10.8743 61.6302 10.1528 65.9114C9.52752 69.6634 9.57562 73.5116 9.43132 77.3599C9.43132 77.7928 10.0085 78.5624 10.4414 78.6105C12.4615 78.9954 14.4816 79.4283 16.5498 79.4764C22.0811 79.6688 27.6124 79.8612 33.1437 79.8131C37.8092 79.765 42.4267 79.4283 47.0441 78.9473C50.7476 78.5143 54.355 77.6485 58.0105 76.975C58.7319 76.8307 58.9724 76.3978 58.8762 75.6282C58.5876 73.5597 58.3953 71.5394 58.1067 69.471C57.6738 65.9114 56.7599 62.3517 57.1447 58.744C57.3852 56.7718 57.0966 54.992 55.7498 53.4046C55.1246 52.683 54.7398 51.7691 54.3069 50.9032C51.6615 45.9967 51.3729 40.9459 53.7778 35.8951C54.2588 34.7406 54.9803 33.9229 55.6056 33.0089ZM35.7891 92.7528C35.8853 95.0618 35.9334 97.515 36.1258 99.9202C36.3663 103.191 36.7511 106.462 37.0878 109.733C37.4244 112.908 37.7611 116.083 38.194 119.258C38.2421 119.642 38.6269 120.22 38.9636 120.316C40.647 120.845 42.3786 121.518 44.1582 121.711C47.6694 122.096 50.9881 120.893 54.2588 119.787C54.5955 119.691 55.0284 119.209 55.0765 118.873C55.8941 113.533 56.7118 108.242 57.3371 102.903C57.77 99.3429 57.9143 95.7352 58.1067 92.1275C58.2029 90.5401 58.1067 88.9046 58.1067 87.221C52.8159 86.5956 53.2968 82.3145 52.8159 78.5624C45.6973 80.246 38.5788 80.5828 30.9793 80.5828C31.6527 83.6614 32.326 86.4994 32.9513 89.3856C32.7589 89.2413 32.278 89.0489 32.2299 88.8084C31.5084 86.1627 30.835 83.469 30.1616 80.679C26.1695 80.5828 21.8887 80.4385 17.5599 80.3423C17.3194 80.3423 16.8865 81.0157 16.8384 81.4005C16.6941 84.1905 15.7322 86.4032 12.8944 87.4615C12.4134 87.6539 11.8843 88.3274 11.8362 88.8565C11.4995 91.1654 11.211 93.4744 11.1148 95.7833C10.8262 103.384 11.8843 110.84 13.3273 118.247C13.3754 118.536 13.7121 118.873 13.9526 118.921C14.674 119.113 15.4436 119.209 16.2132 119.306C17.9928 119.546 19.7724 119.691 21.5521 119.979C24.6303 120.412 27.6605 120.027 30.6907 119.209C31.4122 119.017 31.6527 118.632 31.6046 117.766C31.3641 114.495 31.0755 111.176 31.1717 107.905C31.316 103.335 31.797 98.8138 32.1337 94.244C32.1818 93.282 32.4222 92.2237 30.9312 92.1275C30.7869 92.1275 30.6426 91.7427 30.6426 91.6465H37.184C37.2321 91.7908 37.2321 91.9351 37.2802 92.0794C36.8954 92.2718 36.4144 92.4642 35.7891 92.7528ZM29.4883 29.3531C29.7768 28.4872 29.9211 28.0062 30.0654 27.5252C30.1135 27.5733 30.2097 27.5733 30.2578 27.6214C30.3059 28.0543 30.354 28.5353 30.4021 29.1607C30.6426 28.5834 30.7869 28.1986 31.0274 27.6214C31.316 28.391 31.4603 28.872 31.7489 29.6898C31.8451 28.872 31.9413 28.4391 31.9894 28.0062L32.2299 28.0543C32.3741 28.4391 32.5665 28.8239 32.8551 29.4974C33.0475 28.6796 33.1437 28.2467 33.288 27.6214C33.5285 28.1505 33.7209 28.5353 34.0095 29.0645C34.1538 28.391 34.2981 27.91 34.3943 27.4771C34.4905 27.4771 34.5386 27.4771 34.6348 27.4771C34.731 27.8619 34.8271 28.2467 34.9233 28.6315C35.0195 28.6796 35.1157 28.6796 35.1638 28.7277C35.3562 28.2467 35.5486 27.7657 35.7891 27.1884C35.9815 27.4771 36.1739 27.7176 36.3663 27.9581C38.8674 26.7074 40.6951 24.8795 41.7052 22.2819C41.5609 26.034 38.4345 27.1403 36.1739 29.0645C36.0777 29.1607 35.9815 29.3531 35.8853 29.4012C34.9233 29.5455 33.9614 29.6417 33.0475 29.8822C32.4703 30.0265 31.9413 30.3632 31.1717 30.7C31.1236 30.6038 30.9312 30.267 30.7869 29.9784C30.4021 30.4113 30.2097 30.6038 29.9692 30.8924C29.7768 30.5075 29.6806 30.267 29.4883 29.8822C29.2959 30.267 29.1516 30.4594 29.1516 30.5076C28.2858 30.1708 27.5162 29.6417 26.7948 29.6898C25.8328 29.7379 25.3037 29.6417 25.0632 28.4872C24.3898 28.872 23.7646 29.2569 23.1393 29.6417C30.4983 37.6268 42.7153 32.7203 45.9378 26.9479C44.3987 26.3226 44.1582 24.9757 44.0139 23.5326C43.8215 21.3199 43.6291 19.1552 43.4367 17.0868C43.9658 17.0387 44.5911 17.183 44.9759 16.8944C45.8416 16.3172 45.9859 12.95 45.2164 11.9398C45.0721 12.1322 44.8797 12.2765 44.8797 12.4689C44.7354 13.4791 44.3987 14.2968 43.4848 14.9703C42.8595 15.4032 42.6191 16.3172 42.09 17.2311C40.9837 17.3273 41.4166 16.1729 41.2723 15.4994C40.8875 13.7677 41.9938 11.9398 40.9837 10.2562C40.8394 10.0157 40.8875 9.58275 41.0318 9.34223C41.7052 8.38017 41.1761 7.37001 40.8875 6.60036C40.5508 5.6383 40.4546 4.91676 41.1761 4.099C41.3204 3.90659 41.2242 3.13694 41.0318 3.04074C38.9636 2.22299 36.8954 1.21282 34.6829 0.876103C31.9894 0.443176 29.2959 1.45334 26.9391 2.70402C25.2556 3.61797 23.1393 4.86865 23.3317 6.98518C23.476 8.38017 22.8988 9.53464 22.7064 10.6891C22.1773 13.8158 21.2635 16.8463 21.8887 20.0211C22.2735 21.849 22.5621 23.725 23.0912 25.5048C23.5241 26.8998 24.7265 27.6214 25.5442 27.429C26.0733 27.91 26.5543 28.3429 27.0352 28.7277C27.2276 28.4391 27.3719 28.1505 27.5643 27.8138C27.7567 28.2948 27.8529 28.6796 28.0453 29.2088C28.3339 28.7277 28.5263 28.391 28.8149 27.8619C29.0554 28.3429 29.1997 28.6796 29.4883 29.3531ZM87.9756 89.8186C88.1199 91.3097 88.2642 92.4642 88.3123 93.5706C88.4085 95.6871 87.5908 97.6112 86.1479 97.9961C85.0416 98.2847 84.9935 98.8619 85.1859 99.7278C86.2922 104.538 86.196 109.3 85.5226 114.159C85.0897 117.237 85.1378 120.412 85.1378 123.491C85.1378 125.319 85.8593 125.896 87.7351 125.944C89.13 125.992 90.5729 125.896 91.9678 125.992C93.2183 126.088 93.6031 125.415 93.6512 124.356C93.6993 123.106 93.6993 121.903 93.6993 120.653C93.6993 118.728 94.036 118.44 96.1042 118.632C96.2966 121.182 96.5371 123.731 96.7295 126.281C97.499 126.281 97.98 126.233 98.461 126.281C100.481 126.569 102.068 125.8 103.511 124.549C104.281 123.924 104.618 123.154 104.425 122.096C104.185 120.941 104.185 119.739 103.944 118.584C103.319 115.265 102.646 111.994 102.02 108.675C101.828 107.569 101.78 106.462 101.78 105.356C101.78 102.951 101.924 100.546 101.78 98.1404C101.684 96.2643 101.058 94.4364 100.914 92.5604C100.722 89.7223 100.193 89.7223 98.5091 89.4337C97.1143 90.5882 95.9599 91.5984 94.6613 92.7047C94.8536 95.9276 95.046 99.4873 95.2384 102.999C95.046 102.999 94.8536 103.047 94.6613 103.047C93.9398 99.5835 94.2284 96.0238 93.7474 92.4642C91.8235 92.8009 90.6691 91.6946 89.5147 90.5401C89.2262 90.2515 88.649 90.1553 87.9756 89.8186ZM53.4892 120.845C48.5832 122.577 43.9658 123.298 39.2522 121.23C39.8294 127.339 40.3584 133.159 40.9356 138.932C40.9837 139.365 41.128 139.894 41.4166 140.182C42.2343 140.856 43.1962 141.433 44.0139 142.01C46.6112 139.846 49.4971 139.317 52.3349 139.798C52.7197 133.64 53.1045 127.387 53.4892 120.845ZM15.2512 119.979C15.636 122.384 16.0208 124.645 16.3575 126.954C16.8384 130.369 17.2713 133.737 17.6561 137.152C17.7523 138.066 18.089 138.21 18.8586 138.258C20.061 138.403 21.2154 138.739 22.4178 138.98C22.6102 139.028 22.8988 139.172 23.0431 139.076C25.1113 138.258 27.2276 138.403 29.3921 138.836V120.46C24.7265 121.037 20.061 120.797 15.2512 119.979ZM99.9521 78.4662C100.096 73.8484 96.489 70.0482 92.4006 70.0482C87.3503 70.0963 84.1758 73.9446 84.224 79.9093C84.272 82.8436 88.6971 87.1729 91.7273 87.0767C97.0181 86.8843 99.9521 83.5652 99.9521 78.4662ZM22.6102 140.134C20.3496 138.499 18.8105 138.547 16.9346 139.99C15.8284 140.856 14.6259 141.577 13.4716 142.395C11.4514 143.79 9.43132 145.185 7.4593 146.58C6.49734 147.254 6.30494 148.36 6.68973 149.322C6.97832 149.947 7.79599 150.669 8.46936 150.813C9.67182 151.006 10.9705 150.909 12.221 150.717C16.5018 149.995 20.7344 149.178 24.967 148.36C26.6505 148.023 28.6225 147.686 29.2478 145.955C29.9692 144.079 30.0173 141.962 30.354 139.894C28.7187 139.653 27.42 139.317 26.1695 139.317C24.6303 139.317 23.0912 139.365 22.6583 141.433C22.514 142.155 21.9849 142.876 21.4078 143.453C20.8787 144.031 20.542 144.993 19.3395 144.8C20.4939 143.165 21.504 141.674 22.6102 140.134ZM41.2723 141.289C41.3685 142.299 41.3685 143.309 41.609 144.223C41.8495 145.137 42.1381 146.147 42.7153 146.821C44.4468 148.745 46.3226 150.525 48.1984 152.352C50.1224 154.228 52.2868 155.623 55.1727 155.287C57.1928 155.094 58.3471 153.844 57.7219 151.92C56.9042 149.274 55.9422 146.676 54.836 144.127C52.9602 139.846 53.8259 140.615 49.3047 140.567C49.2085 140.567 49.1123 140.567 49.0642 140.567C47.8618 140.952 46.6112 141.241 45.5049 141.77C44.7354 142.155 44.3506 142.828 45.1202 143.694C45.4087 143.983 45.5049 144.464 45.6973 144.8C45.553 144.896 45.4568 144.993 45.3125 145.089C44.1582 143.646 43.3886 141.722 41.2723 141.289ZM86.7251 126.858C86.9174 131.812 87.1098 136.815 87.2541 141.818C87.3022 142.924 87.2541 144.079 87.0136 145.185C86.8213 146.051 87.206 146.243 87.7832 146.388C89.2743 146.724 92.3525 144.271 92.3525 142.732C92.3044 137.633 92.2082 132.534 92.112 127.483C92.112 127.339 92.064 127.146 92.0159 126.858H86.7251ZM98.3167 127.387C98.3648 127.531 98.5091 127.868 98.5091 128.205C98.7496 131.861 99.1344 135.468 99.2306 139.124C99.2787 141.529 100 143.453 102.02 144.704C102.597 145.041 103.463 144.945 104.185 145.041C104.137 144.367 104.233 143.646 104.089 142.972C103.944 142.251 103.415 141.625 103.367 140.904C103.223 138.547 103.175 136.19 103.175 133.785C103.127 131.187 103.175 128.638 103.175 126.136C101.539 126.617 99.9521 127.002 98.3167 127.387ZM72.5361 96.2644C74.6043 96.7454 76.7206 97.6112 78.837 97.6112C81.0014 97.6593 83.1177 96.8416 85.2821 96.4087C85.2821 96.7454 85.3302 96.9859 85.3302 97.2745C85.6188 97.2264 86.0036 97.3226 86.1479 97.1302C86.5808 96.6492 87.1098 96.1681 87.3022 95.5909C87.8794 93.9073 87.7351 92.1756 87.1579 90.2515C84.8973 91.3097 82.7329 92.3199 80.5685 93.282C78.1636 94.3402 75.9511 92.849 73.8829 92.368C73.3538 93.763 72.969 94.9175 72.5361 96.2644ZM58.2509 77.4561C57.0485 77.6966 56.0865 77.889 55.0765 78.0333C54.2107 78.1776 53.6335 78.5143 53.7778 79.5726C54.0183 80.9676 54.1145 82.4588 54.4512 83.8057C54.836 85.345 56.4713 86.307 58.2509 86.0665V77.4561ZM46.6593 11.9398C46.4188 11.0258 46.1783 10.16 45.9378 9.24602C45.6492 8.04345 45.3606 6.84087 45.0721 5.6383C45.024 5.44589 44.7354 5.10917 44.5911 5.15727C43.7253 5.34968 43.581 4.77245 43.3405 4.14711C43.0519 3.37746 42.7152 3.32936 42.1862 3.95469C41.8976 4.33952 41.4647 4.58003 41.128 4.82055C42.1862 6.50415 42.7152 8.04345 41.5609 9.82326C42.5229 10.7372 42.7633 11.7955 41.9457 13.0943C41.7533 13.3829 42.09 14.0082 42.1862 14.4893C42.2824 14.5374 42.4267 14.5374 42.5229 14.5855C42.9557 13.9601 43.6291 13.431 43.7253 12.7575C43.8696 11.7955 44.2544 11.0739 45.1202 10.9296C45.553 10.9296 46.1302 11.555 46.6593 11.9398ZM99.7116 143.838C99.5192 145.618 100.625 146.628 101.635 147.59C103.078 148.985 104.569 150.476 106.782 150.428C107.311 150.428 108.033 149.947 108.369 149.514C108.562 149.226 108.369 148.456 108.081 148.071C107.215 146.917 106.205 145.81 105.195 144.608C104.81 146.291 103.511 146.147 102.549 145.762C101.587 145.474 100.77 144.608 99.7116 143.838ZM90.2843 90.1553C91.8235 92.6085 94.6132 92.0794 96.4409 90.6363C96.7776 90.3477 96.9219 89.5299 96.8257 89.0008C96.7295 88.3274 96.3447 87.7501 96.0561 87.0767C95.2865 87.221 94.4689 87.3653 93.6512 87.5096C92.7854 87.6539 91.9197 87.7982 91.1982 87.9425C90.9096 88.6641 90.621 89.3856 90.2843 90.1553ZM12.3653 86.5956C15.2031 86.0184 16.4537 83.8057 15.9727 80.0536C14.7702 79.9093 13.5197 79.8131 12.3653 79.7169V86.5956ZM86.2922 146.58C85.7631 147.254 85.1378 147.879 84.7049 148.649C84.4644 149.033 84.4644 149.562 84.3202 150.044C84.8011 150.14 85.3783 150.428 85.7631 150.284C87.7351 149.418 89.659 148.6 91.4868 147.494C92.6411 146.772 92.9297 145.378 92.4968 144.512C90.7653 146.099 89.1781 148.312 86.2922 146.58ZM20.9749 15.1627C21.2635 13.9601 21.6483 12.7575 21.8887 11.555C22.033 10.7372 21.9368 9.82326 22.033 9.00551C22.1292 8.23586 22.3216 7.46621 22.4659 6.69657C22.2735 6.64846 22.1292 6.64846 21.9368 6.60036C19.9167 9.14982 19.6762 12.036 20.9749 15.1627ZM103.8 91.0211C103.944 90.973 104.088 90.9249 104.233 90.8768C104.473 88.1349 103.367 85.7779 101.491 84.7677C100.77 84.3829 100.289 84.431 100 85.2007C100.818 86.7881 101.635 88.3755 102.453 89.9629C102.597 89.9147 102.742 89.8667 102.934 89.7704C102.501 88.4717 102.116 87.1248 101.587 85.4893C103.127 86.8362 103.704 88.183 103.608 89.8667C103.608 90.2996 103.752 90.6844 103.8 91.0211ZM64.9366 91.2616C63.686 92.1275 62.9165 94.0035 63.3013 95.158C63.5898 95.9757 64.1189 96.0238 64.648 95.4466C65.7062 94.1478 65.2733 92.7528 64.9366 91.2616ZM11.4995 80.3904C11.3552 80.3904 11.211 80.3904 11.0186 80.3904C11.1629 81.9297 10.6819 83.5652 11.4995 85.3931V80.3904Z" fill="#49350F"/>
<path d="M102.837 79.7169C102.645 78.5624 102.453 77.456 102.308 76.3015C102.26 75.8205 102.212 75.3395 102.164 74.5698C103.799 76.4939 104.569 81.8815 103.463 82.6992C103.222 81.6891 103.03 80.6789 102.837 79.7169C102.837 79.6688 102.837 79.7169 102.837 79.7169Z" fill="#49350F"/>
<path d="M8.90184 98.1886C8.37276 98.1405 7.79558 98.2367 7.41079 97.9962C6.40073 97.3228 5.96785 93.4264 6.68932 92.272C6.83361 93.2821 6.97791 94.2923 7.1222 95.2544C7.2665 96.4088 7.36269 97.6595 9.09423 97.7557C9.04613 97.8519 8.99804 98.0443 8.90184 98.1886Z" fill="#49350F"/>
<path d="M6.30496 99.1507C5.87207 99.0064 5.2949 99.0064 4.95821 98.7178C3.85195 97.7076 3.61146 93.7151 4.57343 92.2239C5.05441 94.4847 3.56336 97.2747 6.35305 98.7659C6.35305 98.9583 6.30496 99.0545 6.30496 99.1507Z" fill="#49350F"/>
<path d="M30.1131 13.1905C29.3436 14.9703 28.574 16.7501 27.8044 18.4818C28.5259 18.578 29.055 18.578 29.5841 18.7223C30.9308 19.0109 33.3357 18.2894 33.8648 17.3754C34.2977 18.4337 33.4319 19.2995 32.1814 19.2514C31.7485 19.2514 31.3156 19.4438 30.8827 19.4438C29.7765 19.3957 28.6221 19.2514 27.5159 19.059C27.3716 19.0109 27.1792 18.4818 27.2273 18.1932C27.3235 17.664 27.564 17.1349 27.8044 16.6058C28.3816 15.4032 29.0069 14.2006 29.5841 12.998C29.7765 13.0461 29.9689 13.0943 30.1131 13.1905Z" fill="#49350F"/>
<path d="M33.625 10.3045C34.106 9.91972 34.5389 9.43869 35.116 9.19817C36.6071 8.62094 38.05 8.86145 39.2044 9.91972C37.3286 10.2083 35.6451 10.4488 33.9617 10.6894C33.8174 10.5451 33.7212 10.4488 33.625 10.3045Z" fill="#49350F"/>
<path d="M23.668 10.7855C24.5818 9.24621 26.8424 8.57277 28.1892 9.39052C28.3816 9.48673 28.5259 9.77535 28.5259 9.96776C28.5259 10.1121 28.2854 10.3526 28.1411 10.4007C26.7943 10.6412 25.4476 10.8817 24.0528 11.0741C23.9566 11.1222 23.7642 10.9298 23.668 10.7855Z" fill="#49350F"/>
<path d="M27.709 22.3781C30.162 23.3882 32.4707 23.0996 34.8756 21.416C33.7694 23.9174 29.4886 24.3984 27.709 22.3781Z" fill="#49350F"/>
<path d="M96.8257 95.5909C96.3929 95.9276 96.1043 96.2644 95.9119 96.2163C95.6714 96.1682 95.3828 95.7352 95.3828 95.4947C95.3828 95.2542 95.7195 94.9175 95.96 94.8694C96.2005 94.8694 96.441 95.2542 96.8257 95.5909Z" fill="#49350F"/>
<path d="M89.8516 82.459H94.5652C94.0361 83.7578 91.1983 83.9021 89.8516 82.459Z" fill="#49350F"/>
<path d="M86.1475 75.5801C86.7246 75.2915 87.2537 74.8105 87.8309 74.7143C88.6486 74.6181 89.6106 74.4737 90.0434 75.7725C89.4182 75.6282 88.7929 75.3396 88.2157 75.3877C87.6385 75.4358 87.0132 75.7725 86.4361 75.9649C86.3399 75.8687 86.2437 75.7244 86.1475 75.5801Z" fill="#49350F"/>
<path d="M97.9799 76.0131C96.7774 75.9169 95.7674 75.8207 94.6611 75.7245C94.9978 74.9548 95.6712 74.8105 96.4408 74.9067C97.2103 75.051 97.8356 75.1472 97.9799 76.0131Z" fill="#49350F"/>
<path d="M91.1016 80.8714C91.294 80.3422 91.294 79.7169 91.5825 79.5245C91.9673 79.2359 92.5926 79.2359 93.1217 79.1396C93.1698 79.2359 93.1698 79.3802 93.2179 79.4764C92.6407 79.9093 92.0635 80.2941 91.1016 80.8714Z" fill="#49350F"/>
<path d="M8.70996 147.398C9.04665 147.302 9.23904 147.157 9.33523 147.254C11.2111 148.697 12.8945 147.398 14.5779 146.821C15.6361 146.436 16.6461 145.762 17.8486 145.137C17.3676 146.484 13.616 148.456 11.4996 148.6C10.4415 148.648 9.47953 148.504 8.70996 147.398Z" fill="#49350F"/>
<path d="M56.3271 151.679C55.9424 151.968 55.6057 152.352 55.2209 152.449C53.7299 152.833 52.2869 152.785 50.9883 151.823C49.401 150.621 47.7657 149.514 46.948 147.59C46.8999 147.446 46.8518 147.253 46.8037 147.109C46.8037 147.061 46.8999 146.965 46.948 146.821C49.4491 149.514 51.4692 153.122 56.1829 151.294C56.2791 151.487 56.3271 151.583 56.3271 151.679Z" fill="#49350F"/>
<path d="M26.2654 13.5755C26.2654 14.0084 25.8806 14.3932 25.3996 14.3451C24.9667 14.3451 24.582 13.9603 24.6301 13.4793C24.6301 13.0464 25.0148 12.6615 25.4958 12.7096C25.9287 12.7577 26.3135 13.1426 26.2654 13.5755Z" fill="#49350F"/>
<path d="M37.7613 13.5272C37.7613 13.9601 37.3765 14.345 36.9437 14.345C36.5108 14.345 36.126 13.9601 36.126 13.5272C36.126 13.0943 36.5108 12.7095 36.9437 12.7095C37.3765 12.7095 37.7613 13.0943 37.7613 13.5272Z" fill="#49350F"/>
<path d="M89.6589 77.7928C89.6589 78.2257 89.2741 78.6105 88.7932 78.5624C88.3603 78.5624 87.9755 78.1776 88.0236 77.6966C88.0236 77.2636 88.4084 76.8788 88.8894 76.9269C89.3222 76.975 89.707 77.3599 89.6589 77.7928Z" fill="#49350F"/>
<path d="M96.9215 77.7448C96.9215 78.1777 96.5367 78.5625 96.1038 78.5625C95.6709 78.5625 95.2861 78.1777 95.2861 77.7448C95.2861 77.3118 95.6709 76.927 96.1038 76.927C96.5367 76.9751 96.9215 77.3118 96.9215 77.7448Z" fill="#49350F"/>
</svg>
