<svg width="202" height="95" viewBox="0 0 202 95" fill="none" xmlns="http://www.w3.org/2000/svg">
<mask id="path-1-inside-1_676:9737" fill="white">
<path fill-rule="evenodd" clip-rule="evenodd" d="M100.809 94.0061C156.485 94.0061 201.618 72.9621 201.618 47.0031C201.618 21.044 156.485 0 100.809 0C45.1338 0 0 21.044 0 47.0031C0 58.4878 8.83418 69.0105 23.507 77.1745L24.0083 87.434C24.1586 90.5095 27.5818 92.2691 30.1702 90.6011L39.7715 84.4142C56.7135 90.4326 77.8663 94.0061 100.809 94.0061Z"/>
</mask>
<path d="M23.507 77.1745L25.5046 77.0769L25.4504 75.967L24.4794 75.4268L23.507 77.1745ZM24.0083 87.434L22.0107 87.5316V87.5316L24.0083 87.434ZM30.1702 90.6011L31.2535 92.2823L30.1702 90.6011ZM39.7715 84.4142L40.4409 82.5296L39.5145 82.2005L38.6881 82.733L39.7715 84.4142ZM199.618 47.0031C199.618 58.7431 189.333 69.9937 171.247 78.4266C153.324 86.7835 128.422 92.0061 100.809 92.0061V96.0061C128.872 96.0061 154.375 90.7068 172.937 82.0519C191.337 73.473 203.618 61.2221 203.618 47.0031H199.618ZM100.809 2C128.422 2 153.324 7.22267 171.247 15.5795C189.333 24.0124 199.618 35.2631 199.618 47.0031H203.618C203.618 32.784 191.337 20.5331 172.937 11.9542C154.375 3.29933 128.872 -2 100.809 -2V2ZM2 47.0031C2 35.2631 12.2852 24.0124 30.3715 15.5795C48.2948 7.22267 73.1962 2 100.809 2V-2C72.7469 -2 47.2437 3.29933 28.6812 11.9542C10.2817 20.5331 -2 32.784 -2 47.0031H2ZM24.4794 75.4268C10.0187 67.3808 2 57.3817 2 47.0031H-2C-2 59.5939 7.64965 70.6402 22.5346 78.9222L24.4794 75.4268ZM26.0059 87.3364L25.5046 77.0769L21.5094 77.2721L22.0107 87.5316L26.0059 87.3364ZM29.0869 88.92C27.7927 89.7539 26.081 88.8741 26.0059 87.3364L22.0107 87.5316C22.2361 92.1449 27.371 94.7842 31.2535 92.2823L29.0869 88.92ZM38.6881 82.733L29.0869 88.92L31.2535 92.2823L40.8548 86.0954L38.6881 82.733ZM100.809 92.0061C78.0613 92.0061 57.1389 88.4613 40.4409 82.5296L39.102 86.2988C56.2881 92.4039 77.6713 96.0061 100.809 96.0061V92.0061Z" fill="black" mask="url(#path-1-inside-1_676:9737)"/>
<path d="M29.3323 50.5234C29.3323 50.2591 29.346 50.0039 29.3733 49.7578C29.4007 49.5026 29.4143 49.2428 29.4143 48.9785V48.8281C29.4052 48.7917 29.3961 48.7188 29.387 48.6094C29.3779 48.4909 29.3688 48.3724 29.3596 48.2539C29.3505 48.1263 29.3414 48.0078 29.3323 47.8984C29.3232 47.7891 29.3186 47.7116 29.3186 47.666V47.4883C29.3186 47.4062 29.3186 47.2786 29.3186 47.1055C29.3186 46.9232 29.3141 46.7363 29.305 46.5449C29.305 46.3535 29.3004 46.1758 29.2913 46.0117C29.2913 45.8477 29.2913 45.7383 29.2913 45.6836C29.2913 45.6198 29.2867 45.5059 29.2776 45.3418C29.2685 45.1686 29.2548 44.9863 29.2366 44.7949C29.2275 44.6035 29.2138 44.4212 29.1956 44.248C29.1865 44.0658 29.1819 43.9382 29.1819 43.8652C29.1728 43.8014 29.1591 43.7285 29.1409 43.6465C29.1227 43.5645 29.0999 43.4824 29.0725 43.4004C29.0452 43.3184 29.0042 43.25 28.9495 43.1953C28.9039 43.1315 28.8401 43.0951 28.7581 43.0859C28.7216 43.0859 28.6578 43.0859 28.5667 43.0859C28.4755 43.0768 28.3798 43.0723 28.2796 43.0723C28.1793 43.0632 28.0836 43.0586 27.9925 43.0586C27.9104 43.0495 27.8557 43.0449 27.8284 43.0449C27.8193 43.0449 27.7919 43.0495 27.7464 43.0586C27.7008 43.0586 27.6507 43.0632 27.596 43.0723C27.5504 43.0723 27.5003 43.0768 27.4456 43.0859C27.4 43.0859 27.3727 43.0859 27.3636 43.0859H27.3225C27.1129 43.0859 27.0081 42.972 27.0081 42.7441V40.6934L27.0628 40.6387C27.0628 40.6387 27.1402 40.6387 27.2952 40.6387C27.4593 40.6296 27.6689 40.6204 27.9241 40.6113C28.1793 40.6022 28.4664 40.5931 28.7854 40.584C29.1136 40.5749 29.4417 40.5703 29.7698 40.5703C30.0979 40.5612 30.4124 40.5521 30.7132 40.543C31.0231 40.5339 31.2874 40.5247 31.5061 40.5156H32.5042H33.5022C33.5751 40.543 33.6253 40.6387 33.6526 40.8027C33.6891 40.9577 33.7119 41.1309 33.721 41.3223C33.7392 41.5137 33.7483 41.7005 33.7483 41.8828C33.7483 42.056 33.7483 42.1745 33.7483 42.2383C33.7483 42.293 33.7483 42.3613 33.7483 42.4434C33.7483 42.5163 33.7392 42.5892 33.721 42.6621C33.7119 42.735 33.6845 42.7988 33.6389 42.8535C33.5934 42.8991 33.5296 42.9219 33.4475 42.9219C33.402 42.9219 33.3245 42.9264 33.2151 42.9355C33.1149 42.9447 33.0055 42.9538 32.887 42.9629C32.7685 42.9629 32.6546 42.9674 32.5452 42.9766C32.4449 42.9857 32.372 42.9902 32.3264 42.9902C32.2991 42.9902 32.2307 42.9948 32.1214 43.0039C32.0211 43.013 31.9573 43.0267 31.93 43.0449C31.9208 43.0449 31.8981 43.054 31.8616 43.0723C31.8343 43.0814 31.816 43.0859 31.8069 43.0859C31.8069 43.1406 31.8069 43.2318 31.8069 43.3594C31.8069 43.487 31.8024 43.6191 31.7932 43.7559C31.7932 43.8926 31.7932 44.0247 31.7932 44.1523C31.7932 44.2799 31.7932 44.3711 31.7932 44.4258C31.7932 45.4102 31.8343 46.39 31.9163 47.3652C32.0074 48.3405 32.053 49.3249 32.053 50.3184V51.1797C32.053 51.2344 32.0485 51.3027 32.0393 51.3848C32.0302 51.4668 32.0211 51.5488 32.012 51.6309C32.012 51.7129 32.0074 51.7858 31.9983 51.8496C31.9892 51.9043 31.9846 51.9316 31.9846 51.9316L31.93 52C31.93 52 31.8753 52 31.7659 52C31.6656 52.0091 31.5426 52.0137 31.3968 52.0137C31.26 52.0228 31.1142 52.0319 30.9593 52.041C30.8043 52.0501 30.6767 52.0547 30.5764 52.0547H29.9339H29.5374L29.4143 51.9316C29.4052 51.9316 29.3961 51.8952 29.387 51.8223C29.387 51.7493 29.3824 51.6628 29.3733 51.5625C29.3733 51.4622 29.3688 51.362 29.3596 51.2617C29.3596 51.1523 29.3596 51.0658 29.3596 51.002C29.3596 50.9928 29.3551 50.929 29.346 50.8105C29.3369 50.6829 29.3323 50.5872 29.3323 50.5234ZM36.3722 45.6289C36.3722 45.4193 36.3768 45.2188 36.3859 45.0273C36.395 44.8359 36.4315 44.64 36.4953 44.4395C36.6138 44.0293 36.7961 43.6419 37.0421 43.2773C37.2974 42.9036 37.5662 42.5482 37.8488 42.2109C37.9764 42.0651 38.1086 41.9421 38.2453 41.8418C38.382 41.7415 38.5415 41.6322 38.7238 41.5137C39.1157 41.2493 39.535 41.0306 39.9816 40.8574C40.4373 40.6751 40.9113 40.584 41.4035 40.584C41.9139 40.584 42.4061 40.625 42.88 40.707C43.354 40.7891 43.8188 40.9622 44.2746 41.2266C44.2928 41.2357 44.3384 41.2721 44.4113 41.3359C44.4933 41.3997 44.5435 41.4408 44.5617 41.459C44.8533 41.6686 45.1405 41.8691 45.423 42.0605C45.7147 42.252 45.979 42.4798 46.216 42.7441C46.216 42.7533 46.2342 42.7806 46.2707 42.8262C46.3071 42.8626 46.3436 42.9082 46.38 42.9629C46.4256 43.0176 46.4712 43.0768 46.5168 43.1406C46.5623 43.1953 46.5942 43.2363 46.6125 43.2637C46.6216 43.2819 46.6398 43.3138 46.6671 43.3594C46.7036 43.4049 46.7264 43.4323 46.7355 43.4414C46.7446 43.4505 46.772 43.4824 46.8175 43.5371C46.8722 43.5827 46.9041 43.6146 46.9132 43.6328C46.9224 43.6419 46.9224 43.6829 46.9132 43.7559C46.9132 43.8197 46.9132 43.8561 46.9132 43.8652C46.9132 43.8835 46.9315 43.9427 46.9679 44.043C47.0044 44.1341 47.0272 44.1888 47.0363 44.207C47.0363 44.2161 47.0408 44.2435 47.05 44.2891C47.0591 44.3255 47.0682 44.3665 47.0773 44.4121C47.0955 44.4577 47.1092 44.5033 47.1183 44.5488C47.1366 44.5853 47.1457 44.6081 47.1457 44.6172C47.1548 44.6354 47.173 44.6764 47.2004 44.7402C47.2368 44.804 47.255 44.8451 47.255 44.8633V45.1367C47.255 45.1549 47.255 45.1868 47.255 45.2324C47.2642 45.2689 47.2733 45.3099 47.2824 45.3555C47.2915 45.401 47.2961 45.4466 47.2961 45.4922C47.3052 45.5286 47.3097 45.5514 47.3097 45.5605C47.3097 45.5697 47.3097 45.6107 47.3097 45.6836C47.3188 45.7474 47.3234 45.8249 47.3234 45.916C47.3234 45.998 47.3234 46.0846 47.3234 46.1758C47.3325 46.2578 47.3371 46.3262 47.3371 46.3809C47.3371 46.7454 47.3234 47.1419 47.2961 47.5703C47.2687 47.9987 47.1821 48.377 47.0363 48.7051C47.0181 48.7324 46.9953 48.7734 46.9679 48.8281C46.9406 48.8828 46.9132 48.9421 46.8859 49.0059C46.8586 49.0697 46.8267 49.1289 46.7902 49.1836C46.7629 49.2383 46.7446 49.2793 46.7355 49.3066C46.7264 49.3249 46.7036 49.3568 46.6671 49.4023C46.6398 49.4388 46.6216 49.4661 46.6125 49.4844C46.4028 49.7396 46.175 49.9902 45.9289 50.2363C45.6919 50.4824 45.4549 50.7194 45.2179 50.9473C45.063 51.0931 44.8807 51.2207 44.6711 51.3301C44.4614 51.4395 44.27 51.5443 44.0968 51.6445C43.8143 51.7995 43.4816 51.8997 43.0988 51.9453C42.7251 51.9818 42.3879 52 42.0871 52C41.5037 52 40.9477 51.9316 40.4191 51.7949C39.8905 51.6582 39.3846 51.4349 38.9015 51.125C38.8651 51.1068 38.8149 51.0794 38.7511 51.043C38.6964 51.0065 38.6418 50.9701 38.5871 50.9336C38.5324 50.888 38.4823 50.8516 38.4367 50.8242C38.4002 50.7969 38.3774 50.7786 38.3683 50.7695C38.3592 50.7695 38.3091 50.7331 38.2179 50.6602C38.1359 50.5781 38.0356 50.4824 37.9171 50.373C37.7987 50.2637 37.6756 50.1543 37.548 50.0449C37.4295 49.9355 37.3293 49.8444 37.2472 49.7715C37.2563 49.7715 37.2472 49.7578 37.2199 49.7305L37.1925 49.7031C37.1834 49.6849 37.1652 49.6302 37.1379 49.5391C37.1105 49.4388 37.0923 49.3796 37.0832 49.3613C36.9738 49.097 36.8644 48.8464 36.755 48.6094C36.6457 48.3724 36.5591 48.1126 36.4953 47.8301C36.4862 47.821 36.4816 47.7845 36.4816 47.7207C36.4907 47.6569 36.4953 47.6204 36.4953 47.6113C36.4588 47.2741 36.4269 46.946 36.3996 46.627C36.3813 46.2988 36.3722 45.9661 36.3722 45.6289ZM38.9015 47.2012C38.9106 47.2194 38.9289 47.2513 38.9562 47.2969C38.9836 47.3333 38.9972 47.3607 38.9972 47.3789C39.0155 47.388 39.0291 47.4199 39.0382 47.4746C39.0474 47.5202 39.0565 47.5475 39.0656 47.5566C39.0747 47.5749 39.0929 47.6204 39.1203 47.6934C39.1567 47.7663 39.1932 47.8483 39.2296 47.9395C39.2661 48.0215 39.3026 48.1035 39.339 48.1855C39.3755 48.2676 39.4028 48.3268 39.4211 48.3633C39.5487 48.6641 39.6945 48.901 39.8586 49.0742C40.0226 49.2474 40.2049 49.375 40.4054 49.457C40.6151 49.5391 40.8429 49.5938 41.089 49.6211C41.3442 49.6393 41.6222 49.6484 41.923 49.6484C42.4517 49.6484 42.9302 49.5664 43.3586 49.4023C43.7961 49.2292 44.1834 48.9238 44.5207 48.4863C44.5298 48.4681 44.548 48.4362 44.5754 48.3906C44.6027 48.3451 44.6164 48.3177 44.6164 48.3086C44.7257 48.026 44.785 47.7435 44.7941 47.4609C44.8032 47.1693 44.8078 46.873 44.8078 46.5723C44.8078 46.5449 44.8078 46.4948 44.8078 46.4219C44.8078 46.349 44.8032 46.2715 44.7941 46.1895C44.7941 46.1074 44.7941 46.0299 44.7941 45.957C44.7941 45.875 44.7941 45.8203 44.7941 45.793C44.7759 45.6836 44.744 45.5286 44.6984 45.3281C44.6528 45.1276 44.5936 44.9225 44.5207 44.7129C44.4477 44.4941 44.3657 44.2936 44.2746 44.1113C44.1834 43.929 44.0877 43.806 43.9875 43.7422C43.9783 43.7422 43.9464 43.7376 43.8918 43.7285C43.8371 43.7103 43.8097 43.6966 43.8097 43.6875C43.8006 43.6784 43.7824 43.651 43.755 43.6055C43.7277 43.5508 43.7049 43.5189 43.6867 43.5098C43.6776 43.4915 43.6593 43.4688 43.632 43.4414C43.6046 43.4049 43.5819 43.3867 43.5636 43.3867C43.3084 43.2318 43.0259 43.1178 42.716 43.0449C42.4152 42.9629 42.1144 42.9219 41.8136 42.9219C41.4035 42.9219 41.0161 42.9811 40.6515 43.0996C40.2869 43.2181 39.9634 43.3958 39.6808 43.6328C39.4074 43.8607 39.1886 44.1432 39.0246 44.4805C38.8605 44.8177 38.7785 45.2051 38.7785 45.6426C38.7785 45.8978 38.7921 46.1576 38.8195 46.4219C38.8468 46.6771 38.8742 46.9368 38.9015 47.2012ZM50.8907 52.2461C50.8816 52.1276 50.8724 51.9453 50.8633 51.6992C50.8542 51.444 50.8405 51.1615 50.8223 50.8516C50.8132 50.5417 50.7995 50.2181 50.7813 49.8809C50.7722 49.5345 50.7631 49.2064 50.7539 48.8965C50.7448 48.5866 50.7357 48.3086 50.7266 48.0625C50.7175 47.8073 50.7129 47.6204 50.7129 47.502C50.7129 47.4746 50.7129 47.3607 50.7129 47.1602C50.7129 46.9596 50.7084 46.7318 50.6993 46.4766C50.6993 46.2214 50.6993 45.9661 50.6993 45.7109C50.6993 45.4557 50.6993 45.2552 50.6993 45.1094C50.6993 45.0182 50.6993 44.8587 50.6993 44.6309C50.6993 44.403 50.6993 44.1615 50.6993 43.9062C50.7084 43.651 50.7129 43.4095 50.7129 43.1816C50.7129 42.9538 50.7129 42.7943 50.7129 42.7031C50.722 42.6667 50.7312 42.5892 50.7403 42.4707C50.7585 42.3522 50.7676 42.2747 50.7676 42.2383C50.7676 42.1836 50.7676 42.0924 50.7676 41.9648C50.7767 41.8281 50.7813 41.6868 50.7813 41.541C50.7813 41.3861 50.7767 41.2448 50.7676 41.1172C50.7676 40.9805 50.7676 40.8848 50.7676 40.8301C50.8588 40.7936 50.9317 40.7754 50.9864 40.7754C51.0411 40.7663 51.1094 40.7617 51.1914 40.7617H51.4102C51.474 40.7708 51.5879 40.7799 51.752 40.7891C51.9161 40.7891 52.0847 40.7936 52.2579 40.8027C52.4401 40.8118 52.6088 40.821 52.7637 40.8301C52.9278 40.8301 53.0417 40.8301 53.1055 40.8301C53.224 40.9303 53.3334 41.0579 53.4336 41.2129C53.543 41.3587 53.6387 41.5182 53.7207 41.6914C53.8119 41.8555 53.8985 42.0241 53.9805 42.1973C54.0625 42.3613 54.1446 42.5072 54.2266 42.6348C54.2357 42.6621 54.2676 42.7214 54.3223 42.8125C54.377 42.8945 54.4317 42.9857 54.4864 43.0859C54.5502 43.1771 54.6049 43.2682 54.6504 43.3594C54.7051 43.4414 54.7416 43.4915 54.7598 43.5098C54.7689 43.528 54.7871 43.569 54.8145 43.6328C54.851 43.6966 54.8874 43.7695 54.9239 43.8516C54.9603 43.9245 54.9922 43.9928 55.0196 44.0566C55.056 44.1204 55.0834 44.1569 55.1016 44.166L55.3887 44.4531C55.3978 44.4714 55.4161 44.5124 55.4434 44.5762C55.4707 44.64 55.4935 44.6764 55.5118 44.6855C55.5209 44.7038 55.5437 44.7402 55.5801 44.7949C55.6166 44.8405 55.6576 44.8952 55.7032 44.959C55.7579 45.0137 55.8034 45.0684 55.8399 45.123C55.8855 45.1686 55.9128 45.196 55.9219 45.2051C55.9401 45.2233 55.9584 45.2552 55.9766 45.3008C56.0039 45.3464 56.0222 45.3737 56.0313 45.3828C56.0404 45.401 56.0632 45.4466 56.0996 45.5195C56.1452 45.5924 56.1908 45.6699 56.2364 45.752C56.2911 45.834 56.3366 45.9115 56.3731 45.9844C56.4095 46.0482 56.4369 46.0892 56.4551 46.1074C56.4642 46.1165 56.4916 46.153 56.5371 46.2168C56.5827 46.2715 56.6146 46.3079 56.6329 46.3262C56.6784 46.3809 56.7149 46.4128 56.7422 46.4219C56.7787 46.431 56.8151 46.4583 56.8516 46.5039C56.8698 46.5221 56.9017 46.5723 56.9473 46.6543C56.9929 46.7363 57.0202 46.7865 57.0293 46.8047C57.0385 46.8138 57.0749 46.8503 57.1387 46.9141C57.2025 46.9779 57.2435 47.0143 57.2618 47.0234C57.2709 47.0417 57.2937 47.0736 57.3301 47.1191C57.3666 47.1647 57.403 47.2148 57.4395 47.2695C57.4851 47.3151 57.5261 47.3652 57.5625 47.4199C57.599 47.4655 57.6218 47.4928 57.6309 47.502C57.64 47.5111 57.6537 47.5339 57.6719 47.5703C57.6993 47.5977 57.7175 47.6159 57.7266 47.625C57.7448 47.5885 57.7585 47.5111 57.7676 47.3926C57.7767 47.2741 57.7858 47.1921 57.795 47.1465V46.9824C57.795 46.6361 57.7767 46.2943 57.7403 45.957C57.7129 45.6107 57.6765 45.2689 57.6309 44.9316V41.0625C57.6309 41.0352 57.6355 40.9941 57.6446 40.9395C57.6628 40.8848 57.6901 40.8483 57.7266 40.8301C57.7539 40.8301 57.795 40.8301 57.8496 40.8301C57.9043 40.8301 57.9636 40.8301 58.0274 40.8301C58.0912 40.821 58.1504 40.8164 58.2051 40.8164C58.2598 40.8164 58.3008 40.8164 58.3282 40.8164C58.3646 40.8164 58.4102 40.8164 58.4649 40.8164C58.5287 40.8164 58.5879 40.821 58.6426 40.8301C58.7064 40.8301 58.7611 40.8301 58.8067 40.8301C58.8614 40.8301 58.8933 40.8301 58.9024 40.8301C58.9388 40.8301 58.9981 40.8346 59.0801 40.8438C59.1713 40.8438 59.267 40.8483 59.3672 40.8574C59.4766 40.8574 59.5723 40.862 59.6543 40.8711C59.7455 40.8802 59.8093 40.8848 59.8457 40.8848C59.9095 40.9303 59.9597 40.985 59.9961 41.0488C60.0326 41.1126 60.0599 41.1855 60.0782 41.2676C60.0964 41.3405 60.1055 41.418 60.1055 41.5C60.1146 41.5729 60.1237 41.6413 60.1329 41.7051C60.142 41.8418 60.1511 42.0423 60.1602 42.3066C60.1784 42.571 60.1921 42.8444 60.2012 43.127C60.2194 43.4095 60.2331 43.6647 60.2422 43.8926C60.2513 44.1204 60.2559 44.2663 60.2559 44.3301C60.2559 44.4395 60.2559 44.6081 60.2559 44.8359C60.265 45.0638 60.2696 45.319 60.2696 45.6016C60.2696 45.8841 60.2696 46.1849 60.2696 46.5039C60.2696 46.8229 60.2696 47.1237 60.2696 47.4062C60.2696 47.6888 60.265 47.944 60.2559 48.1719C60.2559 48.3997 60.2559 48.5684 60.2559 48.6777C60.2924 48.9329 60.3106 49.1608 60.3106 49.3613C60.3197 49.5618 60.3243 49.7943 60.3243 50.0586C60.3243 50.1042 60.3197 50.168 60.3106 50.25C60.3106 50.3229 60.3106 50.3958 60.3106 50.4688C60.3106 50.5417 60.306 50.61 60.2969 50.6738C60.2969 50.7285 60.2969 50.7604 60.2969 50.7695C60.2969 50.8151 60.2924 50.8971 60.2832 51.0156C60.2832 51.1341 60.2787 51.2617 60.2696 51.3984C60.2696 51.526 60.265 51.6491 60.2559 51.7676C60.2559 51.877 60.2559 51.9544 60.2559 52C60.2012 52.0091 60.0964 52.0182 59.9414 52.0273C59.7956 52.0456 59.6361 52.0592 59.4629 52.0684C59.2898 52.0866 59.1257 52.1003 58.9707 52.1094C58.8249 52.1185 58.7246 52.123 58.67 52.123H58.2871H57.9043C57.8132 52.0957 57.7357 52.041 57.6719 51.959C57.6081 51.877 57.5534 51.7995 57.5079 51.7266C57.2071 51.2344 56.9063 50.7467 56.6055 50.2637C56.3047 49.7715 55.9812 49.3021 55.6348 48.8555C55.6075 48.8281 55.5573 48.7689 55.4844 48.6777C55.4115 48.5866 55.3614 48.5273 55.334 48.5C55.3158 48.4818 55.2793 48.4408 55.2246 48.377C55.17 48.3132 55.1107 48.2493 55.0469 48.1855C54.9831 48.1126 54.9193 48.0443 54.8555 47.9805C54.8008 47.9167 54.7689 47.8757 54.7598 47.8574C54.7416 47.8392 54.7097 47.7936 54.6641 47.7207C54.6185 47.6478 54.5684 47.5703 54.5137 47.4883C54.4681 47.3971 54.418 47.3151 54.3633 47.2422C54.3177 47.1602 54.2904 47.1055 54.2813 47.0781C54.2722 47.0599 54.2357 47.0052 54.1719 46.9141C54.1081 46.8138 54.0671 46.7546 54.0489 46.7363C54.0306 46.709 53.9896 46.6452 53.9258 46.5449C53.8711 46.4355 53.8119 46.3262 53.7481 46.2168C53.6843 46.0983 53.6205 45.9889 53.5567 45.8887C53.502 45.7793 53.4701 45.7109 53.461 45.6836C53.4519 45.6745 53.4291 45.6471 53.3926 45.6016C53.3653 45.5469 53.347 45.515 53.3379 45.5059C53.3379 45.515 53.3288 45.5469 53.3106 45.6016C53.2924 45.6471 53.2832 45.6745 53.2832 45.6836V45.7383V45.8066C53.3106 46.4355 53.3288 47.0599 53.3379 47.6797C53.347 48.2995 53.3698 48.9238 53.4063 49.5527C53.4063 49.571 53.4063 49.6165 53.4063 49.6895C53.4154 49.7533 53.4245 49.8262 53.4336 49.9082C53.4427 49.9811 53.4473 50.054 53.4473 50.127C53.4564 50.1908 53.461 50.2318 53.461 50.25V51.7676C53.5066 51.8587 53.5293 51.959 53.5293 52.0684C53.5293 52.0866 53.5248 52.0957 53.5157 52.0957C53.5157 52.1048 53.5157 52.1185 53.5157 52.1367V52.1777C53.5157 52.1868 53.4974 52.196 53.461 52.2051C53.4336 52.2233 53.4154 52.237 53.4063 52.2461C53.1875 52.2917 52.9779 52.3099 52.7774 52.3008C52.586 52.3008 52.3763 52.3008 52.1485 52.3008H51.2871C51.2598 52.3008 51.1914 52.2917 51.0821 52.2734C50.9818 52.2643 50.918 52.2552 50.8907 52.2461ZM63.7685 51.7676C63.7867 50.1178 63.7822 48.4772 63.7548 46.8457C63.7275 45.2051 63.7138 43.5508 63.7138 41.8828V40.8848L63.7685 40.8301H65.3544C65.3635 40.8301 65.4 40.8301 65.4638 40.8301C65.5276 40.821 65.596 40.8164 65.6689 40.8164C65.7509 40.8073 65.8193 40.7982 65.8739 40.7891C65.9377 40.7799 65.9788 40.7708 65.997 40.7617H66.1337C66.2887 40.7617 66.4026 40.8346 66.4755 40.9805C66.5484 41.1172 66.5849 41.2493 66.5849 41.377V41.418C66.5849 41.4271 66.5803 41.4499 66.5712 41.4863C66.5621 41.5228 66.553 41.5638 66.5439 41.6094C66.5348 41.6549 66.5256 41.7005 66.5165 41.7461C66.5165 41.7826 66.5165 41.8053 66.5165 41.8145V42.416V42.9902C66.5165 43.054 66.5211 43.1862 66.5302 43.3867C66.5393 43.5781 66.5484 43.8105 66.5575 44.084C66.5758 44.3483 66.5894 44.6309 66.5986 44.9316C66.6168 45.2233 66.6305 45.5059 66.6396 45.7793C66.6578 46.0436 66.6715 46.276 66.6806 46.4766C66.6897 46.668 66.6943 46.7956 66.6943 46.8594C66.6943 46.8867 66.6943 46.9915 66.6943 47.1738C66.7034 47.3561 66.7079 47.5703 66.7079 47.8164C66.7079 48.0625 66.7079 48.3086 66.7079 48.5547C66.7079 48.8008 66.7079 48.9967 66.7079 49.1426C66.7079 49.2246 66.7079 49.375 66.7079 49.5938C66.7079 49.8125 66.7079 50.0449 66.7079 50.291C66.7079 50.528 66.7034 50.7559 66.6943 50.9746C66.6943 51.1934 66.6943 51.3438 66.6943 51.4258C66.6487 51.5716 66.5758 51.6855 66.4755 51.7676C66.3844 51.8496 66.275 51.9134 66.1474 51.959C66.0289 51.9954 65.8967 52.0182 65.7509 52.0273C65.6142 52.0456 65.482 52.0592 65.3544 52.0684C65.3271 52.0684 65.2587 52.0684 65.1493 52.0684C65.04 52.0775 64.9169 52.082 64.7802 52.082C64.6526 52.0911 64.525 52.1003 64.3974 52.1094C64.2789 52.1185 64.1877 52.123 64.1239 52.123H64.0009C63.9644 52.123 63.928 52.123 63.8915 52.123C63.8642 52.123 63.846 52.1048 63.8368 52.0684C63.8277 52.041 63.8141 51.9909 63.7958 51.918C63.7867 51.8451 63.7776 51.7949 63.7685 51.7676ZM78.7096 46.5586C78.6641 46.5039 78.5912 46.4036 78.4909 46.2578C78.3998 46.1029 78.2995 45.9434 78.1901 45.7793C78.0899 45.6061 77.9942 45.4466 77.903 45.3008C77.8119 45.1458 77.7481 45.041 77.7116 44.9863C77.6934 44.959 77.6569 44.8997 77.6022 44.8086C77.5567 44.7174 77.502 44.6217 77.4382 44.5215C77.3835 44.4121 77.3288 44.3118 77.2741 44.2207C77.2194 44.1296 77.1875 44.0703 77.1784 44.043C77.1693 44.0247 77.1419 43.9837 77.0964 43.9199C77.0508 43.847 77.0007 43.7695 76.946 43.6875C76.8913 43.6055 76.8412 43.5326 76.7956 43.4688C76.75 43.3958 76.7227 43.3503 76.7136 43.332C76.7044 43.3138 76.6817 43.2728 76.6452 43.209C76.6087 43.1361 76.5723 43.0632 76.5358 42.9902C76.4994 42.9082 76.4629 42.8353 76.4264 42.7715C76.39 42.6986 76.3672 42.653 76.3581 42.6348C76.2031 42.3522 76.0436 42.0879 75.8796 41.8418C75.7246 41.5957 75.5925 41.3132 75.4831 40.9941V40.9395C75.4831 40.8757 75.5104 40.8255 75.5651 40.7891C75.6198 40.7526 75.6699 40.7253 75.7155 40.707C76.0345 40.6888 76.349 40.666 76.6589 40.6387C76.9779 40.6022 77.2969 40.584 77.6159 40.584H77.8893L77.9167 40.6113C77.9258 40.6204 77.9304 40.6296 77.9304 40.6387C77.9577 40.6842 77.9987 40.7435 78.0534 40.8164C78.1081 40.8893 78.1582 40.9668 78.2038 41.0488C78.2585 41.1217 78.304 41.1855 78.3405 41.2402C78.3861 41.2949 78.4089 41.3268 78.4089 41.3359C78.4271 41.3815 78.4772 41.4909 78.5593 41.6641C78.6504 41.8372 78.7461 42.0241 78.8464 42.2246C78.9466 42.4251 79.0378 42.612 79.1198 42.7852C79.211 42.9583 79.2656 43.0677 79.2839 43.1133C79.3021 43.1315 79.3431 43.1999 79.4069 43.3184C79.4707 43.4277 79.5117 43.4915 79.53 43.5098C79.5391 43.5371 79.5664 43.61 79.612 43.7285C79.6576 43.8379 79.6895 43.9062 79.7077 43.9336C79.7168 43.9518 79.735 43.9928 79.7624 44.0566C79.7897 44.1113 79.8034 44.1478 79.8034 44.166C79.8216 44.1751 79.8353 44.1842 79.8444 44.1934C79.8535 44.2025 79.8626 44.207 79.8718 44.207L79.8991 44.2344C79.8991 44.2344 79.9037 44.2298 79.9128 44.2207L79.9264 44.207C80.054 43.9518 80.1862 43.7057 80.3229 43.4688C80.4688 43.2318 80.61 42.9948 80.7468 42.7578C80.8379 42.6029 80.9108 42.457 80.9655 42.3203C81.0202 42.1836 81.084 42.0378 81.1569 41.8828C81.2481 41.7005 81.3574 41.5182 81.485 41.3359C81.6126 41.1445 81.7357 40.9714 81.8542 40.8164C81.8724 40.8073 81.9043 40.7799 81.9499 40.7344C81.9955 40.6888 82.0228 40.6569 82.0319 40.6387H82.4557H82.8522C82.8705 40.6387 82.9297 40.6478 83.03 40.666C83.1302 40.6842 83.1895 40.6979 83.2077 40.707C83.2259 40.707 83.2761 40.7116 83.3581 40.7207C83.4492 40.7207 83.5449 40.7253 83.6452 40.7344C83.7546 40.7435 83.8503 40.7526 83.9323 40.7617C84.0235 40.7617 84.0781 40.7617 84.0964 40.7617C84.2149 40.7799 84.3379 40.8073 84.4655 40.8438C84.6022 40.8802 84.6706 40.9714 84.6706 41.1172V41.2402C84.6615 41.2676 84.625 41.3405 84.5612 41.459C84.5065 41.5775 84.4701 41.6549 84.4518 41.6914L81.6764 46.1484L81.3346 46.8594V47.2285C81.3346 47.8665 81.3438 48.5 81.362 49.1289C81.3893 49.7578 81.403 50.3958 81.403 51.043V51.7676C81.3392 51.8678 81.2389 51.9271 81.1022 51.9453C80.7923 51.9818 80.4961 52 80.2136 52C79.9401 52 79.6485 52 79.3386 52H78.7643L78.7096 51.9453V46.5586ZM92.8989 52C92.8624 51.9909 92.8442 51.9681 92.8442 51.9316C92.8442 51.8952 92.8442 51.8633 92.8442 51.8359C92.8442 51.763 92.8761 51.6855 92.9399 51.6035C93.0037 51.5124 93.0493 51.4303 93.0766 51.3574C93.0857 51.3301 93.1039 51.2799 93.1313 51.207C93.1586 51.125 93.186 51.0384 93.2133 50.9473C93.2498 50.847 93.2817 50.7604 93.309 50.6875C93.3364 50.6055 93.3546 50.5508 93.3637 50.5234C93.3728 50.4961 93.3865 50.4551 93.4047 50.4004C93.4321 50.3457 93.4594 50.2865 93.4868 50.2227C93.5141 50.1589 93.5369 50.1042 93.5551 50.0586C93.5825 50.0039 93.5961 49.9674 93.5961 49.9492C93.6052 49.9401 93.6235 49.9128 93.6508 49.8672C93.6782 49.8216 93.7055 49.7715 93.7328 49.7168C93.7602 49.6621 93.783 49.6165 93.8012 49.5801C93.8286 49.5345 93.8422 49.5026 93.8422 49.4844C93.8513 49.4479 93.8878 49.3477 93.9516 49.1836C94.0154 49.0195 94.0838 48.8464 94.1567 48.6641C94.2296 48.4727 94.298 48.2995 94.3618 48.1445C94.4256 47.9805 94.4666 47.8757 94.4848 47.8301C94.503 47.7936 94.5395 47.7207 94.5942 47.6113C94.658 47.4928 94.699 47.4154 94.7172 47.3789L96.9321 41.2949C96.9412 41.2767 96.9549 41.2448 96.9731 41.1992C97.0004 41.1445 97.0232 41.0898 97.0414 41.0352C97.0688 40.9805 97.0916 40.9303 97.1098 40.8848C97.1371 40.8301 97.1554 40.7891 97.1645 40.7617L97.2328 40.6934H97.4243H97.643C97.6795 40.6934 97.7706 40.6979 97.9164 40.707C98.0623 40.7161 98.2218 40.7253 98.395 40.7344C98.5681 40.7344 98.7276 40.7389 98.8735 40.748C99.0193 40.7572 99.115 40.7617 99.1606 40.7617C99.2244 40.7617 99.2836 40.7617 99.3383 40.7617C99.393 40.7526 99.4523 40.7708 99.5161 40.8164C99.589 40.8711 99.6528 40.9349 99.7075 41.0078C99.7621 41.0807 99.8123 41.1536 99.8578 41.2266C99.8852 41.2721 99.9217 41.3314 99.9672 41.4043C100.013 41.4772 100.054 41.5501 100.09 41.623C100.136 41.696 100.177 41.7643 100.213 41.8281C100.25 41.8828 100.273 41.9147 100.282 41.9238C100.309 41.9876 100.355 42.0879 100.418 42.2246C100.482 42.3522 100.546 42.4889 100.61 42.6348C100.683 42.7806 100.747 42.9128 100.801 43.0312C100.856 43.1497 100.892 43.2272 100.911 43.2637C100.92 43.291 100.938 43.3503 100.965 43.4414C100.993 43.5234 101.025 43.6146 101.061 43.7148C101.097 43.8151 101.129 43.9108 101.157 44.002C101.184 44.084 101.202 44.1387 101.211 44.166C101.385 44.6491 101.594 45.1185 101.84 45.5742C102.086 46.0208 102.305 46.4811 102.497 46.9551C102.515 47.0098 102.556 47.1237 102.62 47.2969C102.683 47.4609 102.756 47.6569 102.838 47.8848C102.929 48.1126 103.021 48.3542 103.112 48.6094C103.203 48.8646 103.289 49.1061 103.372 49.334C103.463 49.5527 103.54 49.7441 103.604 49.9082C103.668 50.0723 103.709 50.1816 103.727 50.2363C103.736 50.2728 103.773 50.3594 103.836 50.4961C103.9 50.6237 103.941 50.7103 103.959 50.7559C103.978 50.8014 104.01 50.8698 104.055 50.9609C104.101 51.043 104.146 51.1341 104.192 51.2344C104.237 51.3346 104.283 51.4303 104.329 51.5215C104.374 51.6035 104.406 51.6628 104.424 51.6992V51.7539C104.424 51.7995 104.406 51.8405 104.37 51.877C104.333 51.9043 104.288 51.9271 104.233 51.9453C104.187 51.9635 104.137 51.9772 104.082 51.9863C104.028 51.9954 103.987 52 103.959 52C103.932 52 103.864 52 103.754 52C103.645 52 103.526 52 103.399 52C103.28 52 103.166 52 103.057 52C102.948 52 102.879 52 102.852 52C102.724 52 102.592 52.0182 102.456 52.0547C102.328 52.1003 102.191 52.123 102.045 52.123C101.972 52.123 101.913 52.1185 101.868 52.1094C101.822 52.1094 101.758 52.0911 101.676 52.0547C101.676 52.0547 101.667 52.0456 101.649 52.0273L101.622 52C101.539 51.8451 101.476 51.722 101.43 51.6309C101.394 51.5306 101.339 51.3984 101.266 51.2344C101.248 51.2161 101.216 51.1569 101.17 51.0566C101.125 50.9564 101.097 50.8971 101.088 50.8789C101.034 50.7057 101.002 50.5553 100.993 50.4277C100.984 50.3001 100.92 50.1589 100.801 50.0039C100.792 49.9948 100.774 49.9857 100.747 49.9766C100.719 49.9583 100.696 49.9492 100.678 49.9492C100.605 49.9492 100.482 49.9447 100.309 49.9355C100.145 49.9264 99.9672 49.9219 99.7758 49.9219C99.5844 49.9128 99.4021 49.9036 99.2289 49.8945C99.0558 49.8854 98.9327 49.8809 98.8598 49.8809C98.8416 49.8809 98.8006 49.8809 98.7368 49.8809C98.6821 49.8717 98.6183 49.8626 98.5453 49.8535C98.4724 49.8444 98.4041 49.8398 98.3403 49.8398C98.2765 49.8307 98.24 49.8262 98.2309 49.8262H97.9711C97.7159 49.8262 97.4607 49.8353 97.2055 49.8535C96.9594 49.8717 96.7133 49.9036 96.4672 49.9492C96.3123 49.9766 96.1983 50.0495 96.1254 50.168C96.0616 50.2773 95.9978 50.3958 95.934 50.5234C95.9249 50.5508 95.9067 50.6009 95.8793 50.6738C95.852 50.7467 95.8201 50.8242 95.7836 50.9062C95.7563 50.9792 95.7289 51.0475 95.7016 51.1113C95.6743 51.1751 95.656 51.2161 95.6469 51.2344C95.6378 51.2526 95.6196 51.2982 95.5922 51.3711C95.574 51.4349 95.5512 51.5078 95.5239 51.5898C95.4965 51.6628 95.4692 51.7357 95.4418 51.8086C95.4236 51.8724 95.4145 51.9134 95.4145 51.9316C95.3416 52.1139 95.2595 52.2096 95.1684 52.2188C95.0773 52.2279 94.9451 52.2324 94.7719 52.2324C94.4529 52.2324 94.1476 52.1914 93.8559 52.1094C93.5642 52.0365 93.2452 52 92.8989 52ZM98.4633 44.4395C98.4542 44.4486 98.4405 44.4714 98.4223 44.5078C98.4132 44.5352 98.4086 44.5534 98.4086 44.5625C98.4086 44.5807 98.3995 44.6126 98.3813 44.6582C98.3631 44.7038 98.3403 44.7539 98.3129 44.8086C98.2947 44.8542 98.2765 44.9043 98.2582 44.959C98.24 45.0046 98.2309 45.0319 98.2309 45.041C98.2218 45.0501 98.2036 45.082 98.1762 45.1367C98.158 45.1823 98.1352 45.237 98.1078 45.3008C98.0805 45.3555 98.0532 45.4102 98.0258 45.4648C98.0076 45.5195 97.9939 45.5514 97.9848 45.5605C97.9392 45.6699 97.8845 45.8158 97.8207 45.998C97.7569 46.1803 97.6931 46.3626 97.6293 46.5449C97.5655 46.7181 97.5108 46.8685 97.4653 46.9961C97.4288 47.1237 97.4106 47.1875 97.4106 47.1875V47.3105H99.6391C99.6482 47.3105 99.6664 47.2969 99.6938 47.2695C99.7211 47.2331 99.7439 47.2057 99.7621 47.1875V47.1328C99.7621 47.0599 99.7394 46.9733 99.6938 46.873C99.6482 46.7637 99.6118 46.6771 99.5844 46.6133C99.5024 46.4583 99.4021 46.2624 99.2836 46.0254C99.1651 45.7884 99.0467 45.5605 98.9282 45.3418C98.8188 45.1139 98.7231 44.918 98.6411 44.7539C98.559 44.5898 98.518 44.5078 98.518 44.5078L98.4633 44.4395ZM107.595 49.6895C107.595 49.2611 107.641 48.8372 107.732 48.418C107.832 47.9987 107.882 47.5749 107.882 47.1465V47.0098C107.882 46.8913 107.878 46.7135 107.868 46.4766C107.868 46.2305 107.864 45.957 107.855 45.6562C107.846 45.3464 107.837 45.0228 107.827 44.6855C107.818 44.3392 107.809 44.0156 107.8 43.7148C107.791 43.4049 107.782 43.127 107.773 42.8809C107.773 42.6348 107.773 42.4525 107.773 42.334L107.827 41.2266C107.827 41.1992 107.837 41.1582 107.855 41.1035C107.873 41.0488 107.905 41.0124 107.951 40.9941H108.88C108.898 40.9941 108.939 40.9941 109.003 40.9941C109.076 40.985 109.149 40.9759 109.222 40.9668C109.304 40.9577 109.377 40.9531 109.441 40.9531C109.514 40.944 109.559 40.9395 109.577 40.9395C109.587 40.9395 109.646 40.9395 109.755 40.9395C109.865 40.9395 109.992 40.9395 110.138 40.9395C110.284 40.9303 110.43 40.9258 110.576 40.9258C110.721 40.9258 110.84 40.9258 110.931 40.9258C110.986 40.9258 111.077 40.9258 111.204 40.9258C111.332 40.9258 111.464 40.9303 111.601 40.9395C111.747 40.9395 111.883 40.9395 112.011 40.9395C112.139 40.9395 112.225 40.9395 112.271 40.9395C112.535 40.9668 112.799 41.0078 113.064 41.0625C113.337 41.1081 113.597 41.1855 113.843 41.2949C113.898 41.2949 113.939 41.3086 113.966 41.3359C114.312 41.5547 114.631 41.7826 114.923 42.0195C115.215 42.2474 115.502 42.5117 115.784 42.8125C115.994 43.0312 116.154 43.2773 116.263 43.5508C116.372 43.8242 116.464 44.1022 116.536 44.3848C116.555 44.4395 116.577 44.5215 116.605 44.6309C116.641 44.7311 116.673 44.8405 116.701 44.959C116.737 45.0684 116.769 45.1686 116.796 45.2598C116.824 45.3509 116.837 45.4102 116.837 45.4375C116.865 45.556 116.878 45.6699 116.878 45.7793C116.878 45.8796 116.906 45.9798 116.96 46.0801V46.9551C116.96 46.9733 116.969 47.0052 116.988 47.0508C117.006 47.0872 117.015 47.1146 117.015 47.1328V47.1738V47.1875C117.015 47.1966 117.006 47.2194 116.988 47.2559L116.96 47.3105C116.951 47.3379 116.937 47.3835 116.919 47.4473C116.901 47.502 116.892 47.5384 116.892 47.5566C116.892 47.5658 116.892 47.5931 116.892 47.6387C116.892 47.6842 116.892 47.7344 116.892 47.7891C116.892 47.8346 116.892 47.8802 116.892 47.9258C116.892 47.9714 116.892 47.9987 116.892 48.0078C116.892 48.0169 116.883 48.0397 116.865 48.0762C116.846 48.1035 116.837 48.1217 116.837 48.1309C116.837 48.1491 116.828 48.1992 116.81 48.2812C116.792 48.3633 116.783 48.4134 116.783 48.4316C116.764 48.4863 116.728 48.582 116.673 48.7188C116.628 48.8555 116.577 49.0013 116.523 49.1562C116.468 49.3112 116.413 49.457 116.359 49.5938C116.313 49.7305 116.281 49.8262 116.263 49.8809C116.135 50.0358 116.017 50.2044 115.908 50.3867C115.807 50.5599 115.684 50.724 115.538 50.8789C115.347 51.1068 115.133 51.2936 114.896 51.4395C114.659 51.5762 114.408 51.722 114.144 51.877C114.126 51.8861 114.103 51.8997 114.076 51.918C114.048 51.9271 114.03 51.9316 114.021 51.9316C114.012 51.9408 113.984 51.9453 113.939 51.9453C113.893 51.9362 113.861 51.9316 113.843 51.9316C113.551 51.9772 113.273 52.0228 113.009 52.0684C112.754 52.123 112.467 52.1595 112.148 52.1777C112.102 52.1777 111.993 52.1777 111.82 52.1777C111.656 52.1777 111.473 52.1777 111.273 52.1777C111.072 52.1777 110.885 52.1777 110.712 52.1777C110.548 52.1777 110.443 52.1777 110.398 52.1777C110.37 52.1777 110.298 52.1777 110.179 52.1777C110.061 52.1868 109.937 52.196 109.81 52.2051C109.682 52.2142 109.559 52.2188 109.441 52.2188C109.322 52.2279 109.249 52.2324 109.222 52.2324H108.005C107.987 52.2415 107.955 52.2552 107.909 52.2734C107.873 52.2917 107.846 52.2917 107.827 52.2734C107.818 52.2734 107.805 52.2598 107.786 52.2324C107.777 52.2142 107.773 52.196 107.773 52.1777C107.764 52.1595 107.75 52.1048 107.732 52.0137C107.723 51.9225 107.714 51.8587 107.704 51.8223C107.659 51.4759 107.627 51.1204 107.609 50.7559C107.6 50.3913 107.595 50.0358 107.595 49.6895ZM110.576 49.4844C110.585 49.5482 110.594 49.6257 110.603 49.7168C110.621 49.7988 110.671 49.8535 110.753 49.8809C110.771 49.8809 110.812 49.8854 110.876 49.8945C110.94 49.8945 110.981 49.8945 110.999 49.8945C111.018 49.8945 111.054 49.8945 111.109 49.8945C111.173 49.8854 111.209 49.8809 111.218 49.8809C111.273 49.8809 111.364 49.8763 111.492 49.8672C111.619 49.8581 111.751 49.849 111.888 49.8398C112.034 49.8216 112.171 49.8079 112.298 49.7988C112.426 49.7897 112.517 49.7806 112.572 49.7715C114.103 49.3613 114.868 48.3587 114.868 46.7637C114.868 46.472 114.814 46.1576 114.704 45.8203C114.604 45.474 114.477 45.1732 114.322 44.918C114.294 44.8906 114.249 44.8451 114.185 44.7812C114.13 44.7174 114.066 44.6536 113.993 44.5898C113.93 44.5169 113.866 44.4531 113.802 44.3984C113.738 44.3346 113.693 44.2891 113.665 44.2617C113.656 44.2617 113.592 44.2298 113.474 44.166C113.365 44.1022 113.278 44.0612 113.214 44.043C113.123 43.9974 113.014 43.9564 112.886 43.9199C112.768 43.8743 112.663 43.8379 112.572 43.8105C112.499 43.8105 112.371 43.806 112.189 43.7969C112.016 43.7786 111.829 43.765 111.628 43.7559C111.428 43.7376 111.236 43.724 111.054 43.7148C110.881 43.6966 110.762 43.6875 110.699 43.6875H110.521H110.343C110.343 43.7331 110.339 43.8197 110.329 43.9473C110.32 44.0749 110.311 44.2116 110.302 44.3574C110.302 44.5033 110.298 44.64 110.288 44.7676C110.279 44.8952 110.275 44.9863 110.275 45.041V45.123V45.2051L110.576 48.9512V49.4844ZM120.651 51.8223C120.651 51.7038 120.646 51.5169 120.637 51.2617C120.637 50.9974 120.632 50.7057 120.623 50.3867C120.614 50.0586 120.605 49.7168 120.596 49.3613C120.587 49.0059 120.578 48.6686 120.569 48.3496C120.569 48.0215 120.564 47.7298 120.555 47.4746C120.546 47.2194 120.537 47.0326 120.528 46.9141C120.528 46.8594 120.514 46.7227 120.487 46.5039C120.468 46.2852 120.45 46.0527 120.432 45.8066C120.414 45.5514 120.395 45.3145 120.377 45.0957C120.359 44.877 120.35 44.7402 120.35 44.6855C120.313 44.6582 120.291 44.5671 120.281 44.4121C120.272 44.2572 120.268 44.0794 120.268 43.8789C120.277 43.6784 120.286 43.4779 120.295 43.2773C120.313 43.0677 120.327 42.9082 120.336 42.7988C120.336 42.7259 120.336 42.6165 120.336 42.4707C120.336 42.3158 120.336 42.1608 120.336 42.0059C120.345 41.8509 120.35 41.7096 120.35 41.582C120.35 41.4544 120.35 41.3724 120.35 41.3359L120.404 40.8848L120.473 40.8164C120.509 40.8164 120.582 40.821 120.692 40.8301C120.801 40.8301 120.91 40.8301 121.02 40.8301C121.138 40.8301 121.248 40.8301 121.348 40.8301C121.457 40.821 121.535 40.8164 121.58 40.8164C121.617 40.8164 121.694 40.8118 121.813 40.8027C121.931 40.7936 122.009 40.7799 122.045 40.7617H123.194H124.328C124.347 40.7617 124.388 40.7663 124.451 40.7754C124.515 40.7754 124.584 40.7799 124.656 40.7891C124.738 40.7891 124.811 40.7936 124.875 40.8027C124.948 40.8118 124.998 40.8164 125.026 40.8164C125.418 40.862 125.764 40.9941 126.065 41.2129C126.375 41.4316 126.63 41.696 126.83 42.0059C127.031 42.3158 127.181 42.6576 127.281 43.0312C127.391 43.4049 127.446 43.7695 127.446 44.125C127.446 44.3893 127.404 44.6719 127.322 44.9727C127.25 45.2643 127.136 45.5469 126.981 45.8203C126.835 46.0938 126.657 46.3398 126.447 46.5586C126.238 46.7682 126.001 46.9232 125.737 47.0234V47.0508V47.0781C125.755 47.0964 125.773 47.1374 125.791 47.2012C125.819 47.265 125.837 47.306 125.846 47.3242C125.937 47.4518 126.033 47.5977 126.133 47.7617C126.233 47.9258 126.338 48.0716 126.447 48.1992C126.593 48.3815 126.725 48.6094 126.844 48.8828C126.962 49.1562 127.081 49.3978 127.199 49.6074C127.218 49.6257 127.254 49.6803 127.309 49.7715C127.373 49.8626 127.418 49.9219 127.446 49.9492C127.455 49.9674 127.482 49.9993 127.528 50.0449C127.573 50.0905 127.6 50.1178 127.61 50.127C127.61 50.1361 127.619 50.168 127.637 50.2227C127.655 50.2682 127.664 50.2956 127.664 50.3047C127.746 50.487 127.847 50.7012 127.965 50.9473C128.084 51.1934 128.143 51.4212 128.143 51.6309V51.6445L128.02 51.7676C127.947 51.7767 127.824 51.7904 127.651 51.8086C127.477 51.8177 127.295 51.8359 127.104 51.8633C126.912 51.8815 126.73 51.8997 126.557 51.918C126.384 51.9271 126.265 51.9362 126.201 51.9453C126.183 51.9453 126.133 51.9544 126.051 51.9727C125.969 51.9909 125.923 52 125.914 52H125.778C125.686 52 125.618 51.9681 125.572 51.9043C125.536 51.8405 125.495 51.7721 125.449 51.6992C125.422 51.6536 125.367 51.5671 125.285 51.4395C125.212 51.3027 125.167 51.2161 125.149 51.1797L123.863 48.6094C123.763 48.418 123.649 48.2311 123.522 48.0488C123.403 47.8574 123.262 47.6934 123.098 47.5566V47.6387C123.098 47.8301 123.112 48.0215 123.139 48.2129C123.166 48.3952 123.194 48.582 123.221 48.7734C123.23 48.901 123.239 49.0423 123.248 49.1973C123.257 49.3431 123.285 49.4798 123.33 49.6074V51.877C123.33 51.9681 123.285 52.0273 123.194 52.0547C123.112 52.0911 123.039 52.1139 122.975 52.123C122.765 52.1504 122.587 52.1641 122.442 52.1641C122.305 52.1732 122.132 52.1777 121.922 52.1777H121.635C121.617 52.1777 121.58 52.1732 121.526 52.1641C121.48 52.1549 121.425 52.1413 121.362 52.123C121.307 52.1139 121.248 52.1003 121.184 52.082C121.12 52.0729 121.074 52.0638 121.047 52.0547C121.011 52.0456 120.947 52.0273 120.856 52C120.774 51.9727 120.724 51.9544 120.705 51.9453C120.687 51.9362 120.673 51.918 120.664 51.8906C120.655 51.8542 120.651 51.8314 120.651 51.8223ZM123.043 43.168C123.043 43.1771 123.052 43.2044 123.071 43.25C123.089 43.2956 123.098 43.3229 123.098 43.332V43.6875C123.098 43.7695 123.102 43.8743 123.112 44.002C123.121 44.1296 123.125 44.2526 123.125 44.3711C123.134 44.4896 123.139 44.5944 123.139 44.6855C123.148 44.7676 123.153 44.8086 123.153 44.8086L123.221 44.918C123.257 44.9271 123.294 44.9316 123.33 44.9316H123.522C123.868 44.9316 124.164 44.8906 124.41 44.8086C124.656 44.7266 124.903 44.5534 125.149 44.2891C125.194 44.2344 125.217 44.1797 125.217 44.125C125.217 44.0703 125.217 44.0111 125.217 43.9473C125.217 43.929 125.212 43.9108 125.203 43.8926C125.203 43.8743 125.203 43.8561 125.203 43.8379V43.7559C125.194 43.6647 125.126 43.5736 124.998 43.4824C124.871 43.3822 124.725 43.3001 124.561 43.2363C124.397 43.1634 124.233 43.1042 124.069 43.0586C123.904 43.013 123.781 42.9902 123.699 42.9902C123.672 42.9902 123.622 42.9948 123.549 43.0039C123.476 43.0039 123.403 43.0085 123.33 43.0176C123.257 43.0267 123.189 43.0404 123.125 43.0586C123.071 43.0768 123.043 43.0996 123.043 43.127V43.168ZM131.532 51.7676C131.551 50.1178 131.546 48.4772 131.519 46.8457C131.491 45.2051 131.478 43.5508 131.478 41.8828V40.8848L131.532 40.8301H133.118C133.127 40.8301 133.164 40.8301 133.228 40.8301C133.291 40.821 133.36 40.8164 133.433 40.8164C133.515 40.8073 133.583 40.7982 133.638 40.7891C133.702 40.7799 133.743 40.7708 133.761 40.7617H133.898C134.052 40.7617 134.166 40.8346 134.239 40.9805C134.312 41.1172 134.349 41.2493 134.349 41.377V41.418C134.349 41.4271 134.344 41.4499 134.335 41.4863C134.326 41.5228 134.317 41.5638 134.308 41.6094C134.299 41.6549 134.289 41.7005 134.28 41.7461C134.28 41.7826 134.28 41.8053 134.28 41.8145V42.416V42.9902C134.28 43.054 134.285 43.1862 134.294 43.3867C134.303 43.5781 134.312 43.8105 134.321 44.084C134.34 44.3483 134.353 44.6309 134.362 44.9316C134.381 45.2233 134.394 45.5059 134.403 45.7793C134.422 46.0436 134.435 46.276 134.444 46.4766C134.454 46.668 134.458 46.7956 134.458 46.8594C134.458 46.8867 134.458 46.9915 134.458 47.1738C134.467 47.3561 134.472 47.5703 134.472 47.8164C134.472 48.0625 134.472 48.3086 134.472 48.5547C134.472 48.8008 134.472 48.9967 134.472 49.1426C134.472 49.2246 134.472 49.375 134.472 49.5938C134.472 49.8125 134.472 50.0449 134.472 50.291C134.472 50.528 134.467 50.7559 134.458 50.9746C134.458 51.1934 134.458 51.3438 134.458 51.4258C134.413 51.5716 134.34 51.6855 134.239 51.7676C134.148 51.8496 134.039 51.9134 133.911 51.959C133.793 51.9954 133.661 52.0182 133.515 52.0273C133.378 52.0456 133.246 52.0592 133.118 52.0684C133.091 52.0684 133.023 52.0684 132.913 52.0684C132.804 52.0775 132.681 52.082 132.544 52.082C132.416 52.0911 132.289 52.1003 132.161 52.1094C132.043 52.1185 131.952 52.123 131.888 52.123H131.765C131.728 52.123 131.692 52.123 131.655 52.123C131.628 52.123 131.61 52.1048 131.601 52.0684C131.592 52.041 131.578 51.9909 131.56 51.918C131.551 51.8451 131.541 51.7949 131.532 51.7676ZM137.342 52C137.305 51.9909 137.287 51.9681 137.287 51.9316C137.287 51.8952 137.287 51.8633 137.287 51.8359C137.287 51.763 137.319 51.6855 137.383 51.6035C137.447 51.5124 137.492 51.4303 137.519 51.3574C137.529 51.3301 137.547 51.2799 137.574 51.207C137.602 51.125 137.629 51.0384 137.656 50.9473C137.693 50.847 137.725 50.7604 137.752 50.6875C137.779 50.6055 137.797 50.5508 137.807 50.5234C137.816 50.4961 137.829 50.4551 137.848 50.4004C137.875 50.3457 137.902 50.2865 137.93 50.2227C137.957 50.1589 137.98 50.1042 137.998 50.0586C138.025 50.0039 138.039 49.9674 138.039 49.9492C138.048 49.9401 138.066 49.9128 138.094 49.8672C138.121 49.8216 138.148 49.7715 138.176 49.7168C138.203 49.6621 138.226 49.6165 138.244 49.5801C138.271 49.5345 138.285 49.5026 138.285 49.4844C138.294 49.4479 138.331 49.3477 138.394 49.1836C138.458 49.0195 138.527 48.8464 138.6 48.6641C138.672 48.4727 138.741 48.2995 138.805 48.1445C138.868 47.9805 138.909 47.8757 138.928 47.8301C138.946 47.7936 138.982 47.7207 139.037 47.6113C139.101 47.4928 139.142 47.4154 139.16 47.3789L141.375 41.2949C141.384 41.2767 141.398 41.2448 141.416 41.1992C141.443 41.1445 141.466 41.0898 141.484 41.0352C141.512 40.9805 141.534 40.9303 141.553 40.8848C141.58 40.8301 141.598 40.7891 141.607 40.7617L141.676 40.6934H141.867H142.086C142.122 40.6934 142.214 40.6979 142.359 40.707C142.505 40.7161 142.665 40.7253 142.838 40.7344C143.011 40.7344 143.171 40.7389 143.316 40.748C143.462 40.7572 143.558 40.7617 143.603 40.7617C143.667 40.7617 143.727 40.7617 143.781 40.7617C143.836 40.7526 143.895 40.7708 143.959 40.8164C144.032 40.8711 144.096 40.9349 144.15 41.0078C144.205 41.0807 144.255 41.1536 144.301 41.2266C144.328 41.2721 144.365 41.3314 144.41 41.4043C144.456 41.4772 144.497 41.5501 144.533 41.623C144.579 41.696 144.62 41.7643 144.656 41.8281C144.693 41.8828 144.715 41.9147 144.725 41.9238C144.752 41.9876 144.797 42.0879 144.861 42.2246C144.925 42.3522 144.989 42.4889 145.053 42.6348C145.126 42.7806 145.189 42.9128 145.244 43.0312C145.299 43.1497 145.335 43.2272 145.353 43.2637C145.363 43.291 145.381 43.3503 145.408 43.4414C145.436 43.5234 145.467 43.6146 145.504 43.7148C145.54 43.8151 145.572 43.9108 145.6 44.002C145.627 44.084 145.645 44.1387 145.654 44.166C145.827 44.6491 146.037 45.1185 146.283 45.5742C146.529 46.0208 146.748 46.4811 146.939 46.9551C146.958 47.0098 146.999 47.1237 147.062 47.2969C147.126 47.4609 147.199 47.6569 147.281 47.8848C147.372 48.1126 147.464 48.3542 147.555 48.6094C147.646 48.8646 147.732 49.1061 147.814 49.334C147.906 49.5527 147.983 49.7441 148.047 49.9082C148.111 50.0723 148.152 50.1816 148.17 50.2363C148.179 50.2728 148.215 50.3594 148.279 50.4961C148.343 50.6237 148.384 50.7103 148.402 50.7559C148.421 50.8014 148.452 50.8698 148.498 50.9609C148.544 51.043 148.589 51.1341 148.635 51.2344C148.68 51.3346 148.726 51.4303 148.771 51.5215C148.817 51.6035 148.849 51.6628 148.867 51.6992V51.7539C148.867 51.7995 148.849 51.8405 148.812 51.877C148.776 51.9043 148.73 51.9271 148.676 51.9453C148.63 51.9635 148.58 51.9772 148.525 51.9863C148.471 51.9954 148.43 52 148.402 52C148.375 52 148.307 52 148.197 52C148.088 52 147.969 52 147.842 52C147.723 52 147.609 52 147.5 52C147.391 52 147.322 52 147.295 52C147.167 52 147.035 52.0182 146.898 52.0547C146.771 52.1003 146.634 52.123 146.488 52.123C146.415 52.123 146.356 52.1185 146.311 52.1094C146.265 52.1094 146.201 52.0911 146.119 52.0547C146.119 52.0547 146.11 52.0456 146.092 52.0273L146.064 52C145.982 51.8451 145.919 51.722 145.873 51.6309C145.837 51.5306 145.782 51.3984 145.709 51.2344C145.691 51.2161 145.659 51.1569 145.613 51.0566C145.568 50.9564 145.54 50.8971 145.531 50.8789C145.477 50.7057 145.445 50.5553 145.436 50.4277C145.426 50.3001 145.363 50.1589 145.244 50.0039C145.235 49.9948 145.217 49.9857 145.189 49.9766C145.162 49.9583 145.139 49.9492 145.121 49.9492C145.048 49.9492 144.925 49.9447 144.752 49.9355C144.588 49.9264 144.41 49.9219 144.219 49.9219C144.027 49.9128 143.845 49.9036 143.672 49.8945C143.499 49.8854 143.376 49.8809 143.303 49.8809C143.284 49.8809 143.243 49.8809 143.18 49.8809C143.125 49.8717 143.061 49.8626 142.988 49.8535C142.915 49.8444 142.847 49.8398 142.783 49.8398C142.719 49.8307 142.683 49.8262 142.674 49.8262H142.414C142.159 49.8262 141.904 49.8353 141.648 49.8535C141.402 49.8717 141.156 49.9036 140.91 49.9492C140.755 49.9766 140.641 50.0495 140.568 50.168C140.505 50.2773 140.441 50.3958 140.377 50.5234C140.368 50.5508 140.35 50.6009 140.322 50.6738C140.295 50.7467 140.263 50.8242 140.227 50.9062C140.199 50.9792 140.172 51.0475 140.144 51.1113C140.117 51.1751 140.099 51.2161 140.09 51.2344C140.081 51.2526 140.062 51.2982 140.035 51.3711C140.017 51.4349 139.994 51.5078 139.967 51.5898C139.939 51.6628 139.912 51.7357 139.885 51.8086C139.866 51.8724 139.857 51.9134 139.857 51.9316C139.784 52.1139 139.702 52.2096 139.611 52.2188C139.52 52.2279 139.388 52.2324 139.215 52.2324C138.896 52.2324 138.59 52.1914 138.299 52.1094C138.007 52.0365 137.688 52 137.342 52ZM142.906 44.4395C142.897 44.4486 142.883 44.4714 142.865 44.5078C142.856 44.5352 142.852 44.5534 142.852 44.5625C142.852 44.5807 142.842 44.6126 142.824 44.6582C142.806 44.7038 142.783 44.7539 142.756 44.8086C142.738 44.8542 142.719 44.9043 142.701 44.959C142.683 45.0046 142.674 45.0319 142.674 45.041C142.665 45.0501 142.646 45.082 142.619 45.1367C142.601 45.1823 142.578 45.237 142.551 45.3008C142.523 45.3555 142.496 45.4102 142.469 45.4648C142.45 45.5195 142.437 45.5514 142.428 45.5605C142.382 45.6699 142.327 45.8158 142.264 45.998C142.2 46.1803 142.136 46.3626 142.072 46.5449C142.008 46.7181 141.954 46.8685 141.908 46.9961C141.872 47.1237 141.853 47.1875 141.853 47.1875V47.3105H144.082C144.091 47.3105 144.109 47.2969 144.137 47.2695C144.164 47.2331 144.187 47.2057 144.205 47.1875V47.1328C144.205 47.0599 144.182 46.9733 144.137 46.873C144.091 46.7637 144.055 46.6771 144.027 46.6133C143.945 46.4583 143.845 46.2624 143.727 46.0254C143.608 45.7884 143.49 45.5605 143.371 45.3418C143.262 45.1139 143.166 44.918 143.084 44.7539C143.002 44.5898 142.961 44.5078 142.961 44.5078L142.906 44.4395ZM152.325 52.2461C152.316 52.1276 152.307 51.9453 152.298 51.6992C152.289 51.444 152.275 51.1615 152.257 50.8516C152.248 50.5417 152.234 50.2181 152.216 49.8809C152.207 49.5345 152.197 49.2064 152.188 48.8965C152.179 48.5866 152.17 48.3086 152.161 48.0625C152.152 47.8073 152.147 47.6204 152.147 47.502C152.147 47.4746 152.147 47.3607 152.147 47.1602C152.147 46.9596 152.143 46.7318 152.134 46.4766C152.134 46.2214 152.134 45.9661 152.134 45.7109C152.134 45.4557 152.134 45.2552 152.134 45.1094C152.134 45.0182 152.134 44.8587 152.134 44.6309C152.134 44.403 152.134 44.1615 152.134 43.9062C152.143 43.651 152.147 43.4095 152.147 43.1816C152.147 42.9538 152.147 42.7943 152.147 42.7031C152.156 42.6667 152.166 42.5892 152.175 42.4707C152.193 42.3522 152.202 42.2747 152.202 42.2383C152.202 42.1836 152.202 42.0924 152.202 41.9648C152.211 41.8281 152.216 41.6868 152.216 41.541C152.216 41.3861 152.211 41.2448 152.202 41.1172C152.202 40.9805 152.202 40.8848 152.202 40.8301C152.293 40.7936 152.366 40.7754 152.421 40.7754C152.475 40.7663 152.544 40.7617 152.626 40.7617H152.845C152.908 40.7708 153.022 40.7799 153.186 40.7891C153.35 40.7891 153.519 40.7936 153.692 40.8027C153.875 40.8118 154.043 40.821 154.198 40.8301C154.362 40.8301 154.476 40.8301 154.54 40.8301C154.658 40.9303 154.768 41.0579 154.868 41.2129C154.977 41.3587 155.073 41.5182 155.155 41.6914C155.246 41.8555 155.333 42.0241 155.415 42.1973C155.497 42.3613 155.579 42.5072 155.661 42.6348C155.67 42.6621 155.702 42.7214 155.757 42.8125C155.811 42.8945 155.866 42.9857 155.921 43.0859C155.985 43.1771 156.039 43.2682 156.085 43.3594C156.139 43.4414 156.176 43.4915 156.194 43.5098C156.203 43.528 156.222 43.569 156.249 43.6328C156.285 43.6966 156.322 43.7695 156.358 43.8516C156.395 43.9245 156.427 43.9928 156.454 44.0566C156.49 44.1204 156.518 44.1569 156.536 44.166L156.823 44.4531C156.832 44.4714 156.85 44.5124 156.878 44.5762C156.905 44.64 156.928 44.6764 156.946 44.6855C156.955 44.7038 156.978 44.7402 157.014 44.7949C157.051 44.8405 157.092 44.8952 157.138 44.959C157.192 45.0137 157.238 45.0684 157.274 45.123C157.32 45.1686 157.347 45.196 157.356 45.2051C157.375 45.2233 157.393 45.2552 157.411 45.3008C157.438 45.3464 157.457 45.3737 157.466 45.3828C157.475 45.401 157.498 45.4466 157.534 45.5195C157.58 45.5924 157.625 45.6699 157.671 45.752C157.725 45.834 157.771 45.9115 157.807 45.9844C157.844 46.0482 157.871 46.0892 157.889 46.1074C157.899 46.1165 157.926 46.153 157.972 46.2168C158.017 46.2715 158.049 46.3079 158.067 46.3262C158.113 46.3809 158.149 46.4128 158.177 46.4219C158.213 46.431 158.25 46.4583 158.286 46.5039C158.304 46.5221 158.336 46.5723 158.382 46.6543C158.427 46.7363 158.455 46.7865 158.464 46.8047C158.473 46.8138 158.509 46.8503 158.573 46.9141C158.637 46.9779 158.678 47.0143 158.696 47.0234C158.705 47.0417 158.728 47.0736 158.764 47.1191C158.801 47.1647 158.837 47.2148 158.874 47.2695C158.919 47.3151 158.96 47.3652 158.997 47.4199C159.033 47.4655 159.056 47.4928 159.065 47.502C159.074 47.5111 159.088 47.5339 159.106 47.5703C159.134 47.5977 159.152 47.6159 159.161 47.625C159.179 47.5885 159.193 47.5111 159.202 47.3926C159.211 47.2741 159.22 47.1921 159.229 47.1465V46.9824C159.229 46.6361 159.211 46.2943 159.175 45.957C159.147 45.6107 159.111 45.2689 159.065 44.9316V41.0625C159.065 41.0352 159.07 40.9941 159.079 40.9395C159.097 40.8848 159.125 40.8483 159.161 40.8301C159.188 40.8301 159.229 40.8301 159.284 40.8301C159.339 40.8301 159.398 40.8301 159.462 40.8301C159.526 40.821 159.585 40.8164 159.639 40.8164C159.694 40.8164 159.735 40.8164 159.763 40.8164C159.799 40.8164 159.845 40.8164 159.899 40.8164C159.963 40.8164 160.022 40.821 160.077 40.8301C160.141 40.8301 160.195 40.8301 160.241 40.8301C160.296 40.8301 160.328 40.8301 160.337 40.8301C160.373 40.8301 160.432 40.8346 160.514 40.8438C160.606 40.8438 160.701 40.8483 160.802 40.8574C160.911 40.8574 161.007 40.862 161.089 40.8711C161.18 40.8802 161.244 40.8848 161.28 40.8848C161.344 40.9303 161.394 40.985 161.431 41.0488C161.467 41.1126 161.494 41.1855 161.513 41.2676C161.531 41.3405 161.54 41.418 161.54 41.5C161.549 41.5729 161.558 41.6413 161.567 41.7051C161.576 41.8418 161.585 42.0423 161.595 42.3066C161.613 42.571 161.626 42.8444 161.636 43.127C161.654 43.4095 161.667 43.6647 161.677 43.8926C161.686 44.1204 161.69 44.2663 161.69 44.3301C161.69 44.4395 161.69 44.6081 161.69 44.8359C161.699 45.0638 161.704 45.319 161.704 45.6016C161.704 45.8841 161.704 46.1849 161.704 46.5039C161.704 46.8229 161.704 47.1237 161.704 47.4062C161.704 47.6888 161.699 47.944 161.69 48.1719C161.69 48.3997 161.69 48.5684 161.69 48.6777C161.727 48.9329 161.745 49.1608 161.745 49.3613C161.754 49.5618 161.759 49.7943 161.759 50.0586C161.759 50.1042 161.754 50.168 161.745 50.25C161.745 50.3229 161.745 50.3958 161.745 50.4688C161.745 50.5417 161.74 50.61 161.731 50.6738C161.731 50.7285 161.731 50.7604 161.731 50.7695C161.731 50.8151 161.727 50.8971 161.718 51.0156C161.718 51.1341 161.713 51.2617 161.704 51.3984C161.704 51.526 161.699 51.6491 161.69 51.7676C161.69 51.877 161.69 51.9544 161.69 52C161.636 52.0091 161.531 52.0182 161.376 52.0273C161.23 52.0456 161.07 52.0592 160.897 52.0684C160.724 52.0866 160.56 52.1003 160.405 52.1094C160.259 52.1185 160.159 52.123 160.104 52.123H159.722H159.339C159.248 52.0957 159.17 52.041 159.106 51.959C159.042 51.877 158.988 51.7995 158.942 51.7266C158.641 51.2344 158.341 50.7467 158.04 50.2637C157.739 49.7715 157.416 49.3021 157.069 48.8555C157.042 48.8281 156.992 48.7689 156.919 48.6777C156.846 48.5866 156.796 48.5273 156.768 48.5C156.75 48.4818 156.714 48.4408 156.659 48.377C156.604 48.3132 156.545 48.2493 156.481 48.1855C156.417 48.1126 156.354 48.0443 156.29 47.9805C156.235 47.9167 156.203 47.8757 156.194 47.8574C156.176 47.8392 156.144 47.7936 156.098 47.7207C156.053 47.6478 156.003 47.5703 155.948 47.4883C155.903 47.3971 155.852 47.3151 155.798 47.2422C155.752 47.1602 155.725 47.1055 155.716 47.0781C155.707 47.0599 155.67 47.0052 155.606 46.9141C155.542 46.8138 155.501 46.7546 155.483 46.7363C155.465 46.709 155.424 46.6452 155.36 46.5449C155.306 46.4355 155.246 46.3262 155.182 46.2168C155.119 46.0983 155.055 45.9889 154.991 45.8887C154.936 45.7793 154.904 45.7109 154.895 45.6836C154.886 45.6745 154.863 45.6471 154.827 45.6016C154.8 45.5469 154.781 45.515 154.772 45.5059C154.772 45.515 154.763 45.5469 154.745 45.6016C154.727 45.6471 154.718 45.6745 154.718 45.6836V45.7383V45.8066C154.745 46.4355 154.763 47.0599 154.772 47.6797C154.781 48.2995 154.804 48.9238 154.841 49.5527C154.841 49.571 154.841 49.6165 154.841 49.6895C154.85 49.7533 154.859 49.8262 154.868 49.9082C154.877 49.9811 154.882 50.054 154.882 50.127C154.891 50.1908 154.895 50.2318 154.895 50.25V51.7676C154.941 51.8587 154.964 51.959 154.964 52.0684C154.964 52.0866 154.959 52.0957 154.95 52.0957C154.95 52.1048 154.95 52.1185 154.95 52.1367V52.1777C154.95 52.1868 154.932 52.196 154.895 52.2051C154.868 52.2233 154.85 52.237 154.841 52.2461C154.622 52.2917 154.412 52.3099 154.212 52.3008C154.02 52.3008 153.811 52.3008 153.583 52.3008H152.722C152.694 52.3008 152.626 52.2917 152.516 52.2734C152.416 52.2643 152.352 52.2552 152.325 52.2461ZM164.629 52C164.592 51.9909 164.574 51.9681 164.574 51.9316C164.574 51.8952 164.574 51.8633 164.574 51.8359C164.574 51.763 164.606 51.6855 164.67 51.6035C164.733 51.5124 164.779 51.4303 164.806 51.3574C164.815 51.3301 164.834 51.2799 164.861 51.207C164.888 51.125 164.916 51.0384 164.943 50.9473C164.98 50.847 165.011 50.7604 165.039 50.6875C165.066 50.6055 165.084 50.5508 165.093 50.5234C165.103 50.4961 165.116 50.4551 165.134 50.4004C165.162 50.3457 165.189 50.2865 165.217 50.2227C165.244 50.1589 165.267 50.1042 165.285 50.0586C165.312 50.0039 165.326 49.9674 165.326 49.9492C165.335 49.9401 165.353 49.9128 165.381 49.8672C165.408 49.8216 165.435 49.7715 165.463 49.7168C165.49 49.6621 165.513 49.6165 165.531 49.5801C165.558 49.5345 165.572 49.5026 165.572 49.4844C165.581 49.4479 165.618 49.3477 165.681 49.1836C165.745 49.0195 165.814 48.8464 165.886 48.6641C165.959 48.4727 166.028 48.2995 166.092 48.1445C166.155 47.9805 166.196 47.8757 166.215 47.8301C166.233 47.7936 166.269 47.7207 166.324 47.6113C166.388 47.4928 166.429 47.4154 166.447 47.3789L168.662 41.2949C168.671 41.2767 168.685 41.2448 168.703 41.1992C168.73 41.1445 168.753 41.0898 168.771 41.0352C168.799 40.9805 168.821 40.9303 168.84 40.8848C168.867 40.8301 168.885 40.7891 168.894 40.7617L168.963 40.6934H169.154H169.373C169.409 40.6934 169.5 40.6979 169.646 40.707C169.792 40.7161 169.952 40.7253 170.125 40.7344C170.298 40.7344 170.457 40.7389 170.603 40.748C170.749 40.7572 170.845 40.7617 170.89 40.7617C170.954 40.7617 171.013 40.7617 171.068 40.7617C171.123 40.7526 171.182 40.7708 171.246 40.8164C171.319 40.8711 171.383 40.9349 171.437 41.0078C171.492 41.0807 171.542 41.1536 171.588 41.2266C171.615 41.2721 171.651 41.3314 171.697 41.4043C171.743 41.4772 171.784 41.5501 171.82 41.623C171.866 41.696 171.907 41.7643 171.943 41.8281C171.98 41.8828 172.002 41.9147 172.011 41.9238C172.039 41.9876 172.084 42.0879 172.148 42.2246C172.212 42.3522 172.276 42.4889 172.34 42.6348C172.412 42.7806 172.476 42.9128 172.531 43.0312C172.586 43.1497 172.622 43.2272 172.64 43.2637C172.649 43.291 172.668 43.3503 172.695 43.4414C172.722 43.5234 172.754 43.6146 172.791 43.7148C172.827 43.8151 172.859 43.9108 172.886 44.002C172.914 44.084 172.932 44.1387 172.941 44.166C173.114 44.6491 173.324 45.1185 173.57 45.5742C173.816 46.0208 174.035 46.4811 174.226 46.9551C174.245 47.0098 174.286 47.1237 174.349 47.2969C174.413 47.4609 174.486 47.6569 174.568 47.8848C174.659 48.1126 174.75 48.3542 174.842 48.6094C174.933 48.8646 175.019 49.1061 175.101 49.334C175.192 49.5527 175.27 49.7441 175.334 49.9082C175.398 50.0723 175.439 50.1816 175.457 50.2363C175.466 50.2728 175.502 50.3594 175.566 50.4961C175.63 50.6237 175.671 50.7103 175.689 50.7559C175.707 50.8014 175.739 50.8698 175.785 50.9609C175.83 51.043 175.876 51.1341 175.922 51.2344C175.967 51.3346 176.013 51.4303 176.058 51.5215C176.104 51.6035 176.136 51.6628 176.154 51.6992V51.7539C176.154 51.7995 176.136 51.8405 176.099 51.877C176.063 51.9043 176.017 51.9271 175.963 51.9453C175.917 51.9635 175.867 51.9772 175.812 51.9863C175.758 51.9954 175.717 52 175.689 52C175.662 52 175.593 52 175.484 52C175.375 52 175.256 52 175.129 52C175.01 52 174.896 52 174.787 52C174.677 52 174.609 52 174.582 52C174.454 52 174.322 52.0182 174.185 52.0547C174.058 52.1003 173.921 52.123 173.775 52.123C173.702 52.123 173.643 52.1185 173.597 52.1094C173.552 52.1094 173.488 52.0911 173.406 52.0547C173.406 52.0547 173.397 52.0456 173.379 52.0273L173.351 52C173.269 51.8451 173.205 51.722 173.16 51.6309C173.123 51.5306 173.069 51.3984 172.996 51.2344C172.978 51.2161 172.946 51.1569 172.9 51.0566C172.855 50.9564 172.827 50.8971 172.818 50.8789C172.763 50.7057 172.731 50.5553 172.722 50.4277C172.713 50.3001 172.649 50.1589 172.531 50.0039C172.522 49.9948 172.504 49.9857 172.476 49.9766C172.449 49.9583 172.426 49.9492 172.408 49.9492C172.335 49.9492 172.212 49.9447 172.039 49.9355C171.875 49.9264 171.697 49.9219 171.506 49.9219C171.314 49.9128 171.132 49.9036 170.959 49.8945C170.786 49.8854 170.662 49.8809 170.59 49.8809C170.571 49.8809 170.53 49.8809 170.467 49.8809C170.412 49.8717 170.348 49.8626 170.275 49.8535C170.202 49.8444 170.134 49.8398 170.07 49.8398C170.006 49.8307 169.97 49.8262 169.961 49.8262H169.701C169.446 49.8262 169.19 49.8353 168.935 49.8535C168.689 49.8717 168.443 49.9036 168.197 49.9492C168.042 49.9766 167.928 50.0495 167.855 50.168C167.791 50.2773 167.728 50.3958 167.664 50.5234C167.655 50.5508 167.636 50.6009 167.609 50.6738C167.582 50.7467 167.55 50.8242 167.513 50.9062C167.486 50.9792 167.459 51.0475 167.431 51.1113C167.404 51.1751 167.386 51.2161 167.377 51.2344C167.368 51.2526 167.349 51.2982 167.322 51.3711C167.304 51.4349 167.281 51.5078 167.254 51.5898C167.226 51.6628 167.199 51.7357 167.172 51.8086C167.153 51.8724 167.144 51.9134 167.144 51.9316C167.071 52.1139 166.989 52.2096 166.898 52.2188C166.807 52.2279 166.675 52.2324 166.502 52.2324C166.183 52.2324 165.877 52.1914 165.586 52.1094C165.294 52.0365 164.975 52 164.629 52ZM170.193 44.4395C170.184 44.4486 170.17 44.4714 170.152 44.5078C170.143 44.5352 170.138 44.5534 170.138 44.5625C170.138 44.5807 170.129 44.6126 170.111 44.6582C170.093 44.7038 170.07 44.7539 170.043 44.8086C170.024 44.8542 170.006 44.9043 169.988 44.959C169.97 45.0046 169.961 45.0319 169.961 45.041C169.952 45.0501 169.933 45.082 169.906 45.1367C169.888 45.1823 169.865 45.237 169.838 45.3008C169.81 45.3555 169.783 45.4102 169.756 45.4648C169.737 45.5195 169.724 45.5514 169.715 45.5605C169.669 45.6699 169.614 45.8158 169.551 45.998C169.487 46.1803 169.423 46.3626 169.359 46.5449C169.295 46.7181 169.241 46.8685 169.195 46.9961C169.159 47.1237 169.14 47.1875 169.14 47.1875V47.3105H171.369C171.378 47.3105 171.396 47.2969 171.424 47.2695C171.451 47.2331 171.474 47.2057 171.492 47.1875V47.1328C171.492 47.0599 171.469 46.9733 171.424 46.873C171.378 46.7637 171.342 46.6771 171.314 46.6133C171.232 46.4583 171.132 46.2624 171.013 46.0254C170.895 45.7884 170.776 45.5605 170.658 45.3418C170.549 45.1139 170.453 44.918 170.371 44.7539C170.289 44.5898 170.248 44.5078 170.248 44.5078L170.193 44.4395Z" fill="black"/>
</svg>
