<svg width="32" height="24" viewBox="0 0 32 24" fill="none" xmlns="http://www.w3.org/2000/svg">
<path d="M30.3714 3.74389C30.2075 3.03259 29.8681 2.37851 29.3872 1.84668C28.9062 1.31485 28.3003 0.923818 27.6298 0.712456C25.2092 0 15.5134 0 15.5134 0C15.5134 0 5.80431 0 3.38371 0.712456C2.72559 0.934136 2.13349 1.32973 1.66486 1.86087C1.19622 2.39201 0.866963 3.04066 0.709021 3.74389C0.243819 6.46922 0.00665871 9.23169 0.000227338 12C-0.0158289 14.7663 0.198959 17.5288 0.642154 20.2561C0.806063 20.9674 1.14537 21.6215 1.62635 22.1533C2.10732 22.6851 2.71319 23.0762 3.38371 23.2875C5.80431 24 15.5134 24 15.5134 24C15.5134 24 25.2092 24 27.6298 23.2875C28.3003 23.0762 28.9062 22.6851 29.3872 22.1533C29.8681 21.6215 30.2075 20.9674 30.3714 20.2561C30.8146 17.5288 31.0293 14.7663 31.0133 12C31.0289 9.23372 30.8141 6.47127 30.3714 3.74389ZM12.3306 17.071V6.98487L20.4349 12.0419L12.3306 17.071Z" fill="white"/>
</svg>
