<svg width="24" height="25" viewBox="0 0 24 25" fill="none" xmlns="http://www.w3.org/2000/svg">
<path d="M12 0.5C9.62663 0.5 7.30655 1.20379 5.33316 2.52236C3.35977 3.84094 1.8217 5.71509 0.913451 7.9078C0.00519943 10.1005 -0.232441 12.5133 0.230582 14.8411C0.693605 17.1689 1.83649 19.3071 3.51472 20.9853C5.19295 22.6635 7.33115 23.8064 9.65892 24.2694C11.9867 24.7324 14.3995 24.4948 16.5922 23.5866C18.7849 22.6783 20.6591 21.1402 21.9776 19.1668C23.2962 17.1935 24 14.8734 24 12.5C24 9.3174 22.7357 6.26516 20.4853 4.01472C18.2348 1.76428 15.1826 0.5 12 0.5V0.5ZM16.9333 8.99333C15.0936 11.5392 13.5838 14.3079 12.44 17.2333C12.3433 17.537 12.1623 17.807 11.918 18.0116C11.6736 18.2163 11.3762 18.3472 11.0602 18.3892C10.7443 18.4311 10.4229 18.3823 10.1337 18.2485C9.84444 18.1146 9.59922 17.9013 9.42667 17.6333C8.62667 16.58 7.84001 15.5 7.08001 14.42C5.82667 12.6867 8.68001 11.0333 9.94667 12.74L10.4667 13.4733C11.4735 11.313 12.6787 9.25087 14.0667 7.31333C15.3067 5.60667 18.16 7.26 16.9333 8.99333Z" fill="black"/>
</svg>
