<svg width="24" height="25" viewBox="0 0 24 25" fill="none" xmlns="http://www.w3.org/2000/svg">
<path d="M12 0.150879C5.37372 0.150879 0 5.5246 0 12.1509C0 18.7772 5.37372 24.1509 12 24.1509C18.6263 24.1509 24 18.7772 24 12.1509C24 5.5246 18.6263 0.150879 12 0.150879ZM15.863 18.2255C15.1572 18.8949 14.1212 19.3064 12.7554 19.4513V21.2423H10.9236V19.4513C9.66621 19.3164 8.71148 18.9537 8.06018 18.3556C7.40888 17.7576 7.08343 16.8313 7.08343 15.5691V15.0331H10.6658V15.413C10.6658 16.0098 10.7787 16.4214 11.0048 16.6431C11.231 16.8649 11.5296 16.9826 11.9003 16.9826C12.285 16.9826 12.5788 16.8557 12.787 16.6071C12.9952 16.3585 13.0944 16.0467 13.0944 15.6888C13.0944 15.2408 12.9543 14.879 12.6649 14.6168C12.3489 14.3289 11.9864 14.0965 11.5929 13.9294C11.1634 13.7349 10.693 13.5447 10.1918 13.3502C9.69142 13.1621 9.21835 12.908 8.78514 12.5948C8.34524 12.2721 7.97968 11.8587 7.71311 11.3827C7.4281 10.885 7.28492 10.2246 7.28359 9.40157C7.28359 6.91967 8.49785 5.47976 10.9264 5.08186V3.92777H12.7582V5.08106C14.088 5.21236 15.0467 5.61507 15.644 6.28438C16.2413 6.9537 16.5395 7.97608 16.5395 9.34193H13.0764V9.0433C13.0764 8.64539 12.9908 8.29713 12.8142 7.9985C12.6377 7.69987 12.3799 7.55095 12.018 7.55095C11.6201 7.55095 11.3307 7.67745 11.1449 7.93525C10.9643 8.18039 10.8662 8.47658 10.8647 8.7811C10.8647 9.24705 11.014 9.61333 11.3127 9.87554C11.6113 10.1377 11.9864 10.3731 12.4387 10.5633C12.8911 10.7534 13.3751 10.9432 13.8907 11.1197C14.407 11.2997 14.8956 11.5508 15.3426 11.8659C15.807 12.1997 16.1917 12.6322 16.469 13.1324C16.7671 13.6574 16.9163 14.3434 16.9166 15.1904C16.9166 16.5432 16.5654 17.5549 15.863 18.2255Z" fill="black"/>
</svg>
