<svg width="37" height="37" viewBox="0 0 37 37" fill="none" xmlns="http://www.w3.org/2000/svg">
<path fill-rule="evenodd" clip-rule="evenodd" d="M18.5 36C28.165 36 36 28.165 36 18.5C36 8.83502 28.165 1 18.5 1C8.83502 1 1 8.83502 1 18.5C1 28.165 8.83502 36 18.5 36Z" stroke="black" stroke-width="2"/>
<path d="M20.0937 14.0208H21.7021C21.85 14.0208 21.9701 13.9076 21.9701 13.7682V12.2526C21.9701 12.1132 21.85 12 21.7021 12H20.0937C18.4682 12 17.145 13.2463 17.145 14.7786V16.5468H15.2686C15.1206 16.5468 15.0005 16.6599 15.0005 16.7994V18.3149C15.0005 18.4544 15.1206 18.5675 15.2686 18.5675H17.145V23.8721C17.145 24.0115 17.2651 24.1247 17.4131 24.1247H19.0214C19.1694 24.1247 19.2895 24.0115 19.2895 23.8721V18.5675H21.1659C21.2812 18.5675 21.3836 18.4978 21.4206 18.3948L21.9567 16.8792C21.9841 16.8024 21.9701 16.7175 21.9197 16.6513C21.8688 16.5857 21.7884 16.5468 21.7021 16.5468H19.2895V14.7786C19.2895 14.3608 19.6503 14.0208 20.0937 14.0208Z" fill="black"/>
</svg>
