<svg width="37" height="37" viewBox="0 0 37 37" fill="none" xmlns="http://www.w3.org/2000/svg">
<path fill-rule="evenodd" clip-rule="evenodd" d="M18.5 36C28.165 36 36 28.165 36 18.5C36 8.83502 28.165 1 18.5 1C8.83502 1 1 8.83502 1 18.5C1 28.165 8.83502 36 18.5 36Z" stroke="black" stroke-width="1.5"/>
<path d="M20.0942 14.0208H21.7026C21.8505 14.0208 21.9706 13.9076 21.9706 13.7682V12.2526C21.9706 12.1132 21.8505 12 21.7026 12H20.0942C18.4686 12 17.1455 13.2463 17.1455 14.7786V16.5468H15.269C15.1211 16.5468 15.001 16.6599 15.001 16.7994V18.3149C15.001 18.4544 15.1211 18.5675 15.269 18.5675H17.1455V23.8721C17.1455 24.0115 17.2656 24.1247 17.4135 24.1247H19.0219C19.1699 24.1247 19.29 24.0115 19.29 23.8721V18.5675H21.1664C21.2817 18.5675 21.3841 18.4978 21.4211 18.3948L21.9572 16.8792C21.9846 16.8024 21.9706 16.7175 21.9202 16.6513C21.8693 16.5857 21.7889 16.5468 21.7026 16.5468H19.29V14.7786C19.29 14.3608 19.6508 14.0208 20.0942 14.0208Z" fill="black"/>
</svg>
