<svg width="238" height="337" viewBox="0 0 238 337" fill="none" xmlns="http://www.w3.org/2000/svg">
<path d="M214.736 192.354L221.483 199.12L225.572 204.845L228.434 210.674L231.091 218.585L232.625 226.288L233.647 234.095L234.363 243.983L235.487 253.664L236.714 256.579L232.829 257.619L230.478 258.14L227.82 254.705L224.958 242.63L223.016 231.076L219.541 219.313L217.189 213.068L214.225 194.852" fill="#F8F5ED"/>
<path d="M142.958 105.83L148.363 123.65L152.416 140.848L154.391 152.244L155.638 167.162L156.677 180.838L157.301 189.022L156.677 196.896L154.807 203.319L152.936 207.463L144.829 208.085L138.386 206.013L139.009 202.698L138.386 196.585L135.372 194.202V190.266L137.762 180.009L137.034 172.55L132.877 159.807L129.759 149.757L128.72 143.748L128.408 138.879L129.759 131.42L129.344 127.794L127.785 121.888" fill="#F8F5ED"/>
<path d="M12.2722 117.271L9.93444 130.322L8.8164 147.102L7.39344 160.463L5.66556 170.925L2.10816 189.672L0.786842 201.48L0.583557 205.623L1.49832 208.316L3.2262 210.906L4.44588 212.356L8.10492 213.806L8.91804 213.702L12.6787 213.392L18.3706 211.113L21.8263 204.277L23.9608 186.772L22.3345 179.936V170.51L19.387 151.452L20.505 140.162L23.3509 127.836L25.1804 120.586L12.2722 117.271Z" fill="#F8F5ED"/>
<path d="M170.653 168.328H175.569L178.333 164.917L182.429 155.925L188.164 151.274L194.103 150.033L200.349 151.274L205.981 154.374L209.565 157.992L214.276 165.02L213.456 176.39L214.788 178.767L221.956 177.527V170.292L219.805 162.023L216.426 155.511L211.818 150.033L207.62 146.829L200.554 144.142L192.465 143.729L186.116 145.072L182.02 147.243L177.412 151.997L174.545 156.028L172.394 160.473L170.653 164.607" fill="#F8F5ED"/>
<path d="M18.4596 211.805C18.5586 211.505 18.6575 211.205 18.8555 210.905C15.3909 210.705 15.1929 208.105 14.7969 205.705C14.4999 203.704 14.203 201.604 13.906 199.504C12.3222 201.804 13.2131 210.005 15.3909 211.405C16.1828 211.905 17.4697 211.605 18.4596 211.805ZM13.1141 213.805C13.1141 213.605 13.2131 213.305 13.2131 213.105C7.47164 210.005 10.5403 204.204 9.55043 199.504C7.57063 202.604 8.06558 210.805 10.3424 213.005C11.0353 213.605 12.2232 213.605 13.1141 213.805Z" fill="#F8F5ED"/>
<path d="M218.426 172.002C218.426 173.767 218.528 175.429 218.324 177.091C218.324 177.61 217.609 178.129 217.201 178.648C216.69 174.806 216.282 171.483 215.873 168.159C215.669 168.159 215.567 168.159 215.363 168.159V178.856C214.342 178.025 213.831 177.61 213.321 177.091C212.912 177.714 212.504 178.337 211.891 179.271C213.933 180.31 215.873 180.933 217.507 182.179C222.51 185.918 223.837 191.318 223.429 197.342C223.429 198.069 223.327 199.107 223.837 199.627C229.453 206.689 231.801 215.101 233.332 223.616C234.966 232.652 235.272 241.998 236.293 251.241C236.498 253.007 237.212 254.772 237.416 256.538C235.068 254.876 234.558 252.384 234.455 249.787C234.251 243.972 234.66 238.052 233.843 232.34C232.209 221.643 229.759 210.946 223.735 201.807C221.999 199.107 218.936 197.342 215.975 194.642C216.078 203.781 218.426 211.258 220.876 218.839C223.633 227.459 225.675 236.286 227.921 245.114C228.738 248.23 228.84 251.553 229.35 254.876C233.026 253.214 230.474 258.303 233.741 257.68C232.005 258.926 231.29 259.446 230.065 260.484C229.146 257.992 228.125 255.915 227.615 253.63C226.185 246.776 224.552 240.025 223.735 233.067C223.122 228.601 221.591 224.551 220.264 220.293C220.059 219.67 219.753 219.151 219.141 217.801C218.732 224.655 217.405 230.263 219.243 236.598C221.693 245.218 222.51 254.357 223.735 263.392C223.939 265.261 222.816 267.235 222.306 269.208C221.897 270.766 220.876 272.323 220.876 273.777C220.876 282.916 221.285 292.159 221.183 301.298C221.183 304.725 222.101 307.633 224.041 310.229C225.879 312.618 227.819 314.903 229.759 317.188C230.167 317.707 230.678 318.226 230.984 318.745C232.107 320.511 233.23 322.588 231.699 324.25C230.372 325.496 227.921 326.95 226.492 326.43C223.122 325.392 219.957 323.419 216.996 321.549C210.156 317.084 210.258 309.918 210.156 302.856C210.054 297.456 209.339 292.159 208.931 286.759C208.624 283.435 208.318 280.008 207.91 276.685C207.807 276.062 207.807 275.023 207.501 274.92C203.213 273.57 204.54 269.727 204.03 266.819C203.621 264.534 203.826 262.042 203.826 259.653C203.826 257.888 203.111 257.472 201.477 257.992C201.273 262.042 201.069 266.092 200.66 270.142C200.558 271.077 200.15 272.531 199.537 272.739C197.291 273.466 197.495 275.023 197.495 276.893C197.7 286.966 197.7 297.04 197.802 307.01C197.802 307.737 197.802 308.568 198.006 309.295C199.946 314.591 198.925 318.33 194.024 321.238C190.553 323.315 186.775 324.665 182.997 326.119C181.159 326.846 179.117 326.534 177.994 324.665C176.871 322.796 177.688 321.03 179.117 319.784C185.754 314.176 184.12 306.595 184.018 299.429C183.916 291.328 183.61 283.124 183.406 275.023C183.406 274.4 183.406 273.362 182.997 273.258C179.219 271.285 179.628 267.442 179.526 264.327C179.424 258.303 179.73 252.176 180.649 246.256C182.385 234.833 181.568 223.513 179.424 212.193C179.117 210.427 178.198 210.635 176.973 210.843C174.829 211.362 172.685 211.985 170.439 212.297C165.436 213.024 160.944 211.05 156.247 209.908C153.082 209.181 149.713 209.077 146.445 208.766C146.241 208.766 145.935 208.558 145.322 208.246C150.121 206.169 151.346 201.807 152.878 197.653C154.001 201.496 150.938 204.092 149.815 207.519C153.286 207.623 153.797 204.819 154.613 202.638C156.962 195.784 157.268 188.826 156.553 181.556C155.634 172.313 155.226 163.07 154.205 153.828C153.592 148.22 152.571 142.612 151.244 137.107C149.304 128.695 146.956 120.387 144.812 112.079C144.403 110.521 143.791 109.067 143.076 107.094C141.749 108.548 140.524 109.794 139.4 111.04C136.44 114.468 133.377 117.791 130.518 121.218C129.905 121.945 129.497 123.503 129.803 124.334C131.028 127.553 131.641 130.669 130.62 134.303C129.19 139.704 130.007 145.208 131.539 150.504C133.274 156.528 135.316 162.447 137.358 168.367C139.605 175.014 140.115 181.66 137.358 188.307C136.235 191.111 135.725 193.292 138.788 195.888C140.319 197.238 139.911 201.081 140.319 203.781C140.421 204.3 140.217 204.819 140.115 205.442C140.421 205.546 140.626 205.546 140.932 205.65C141.647 202.95 142.361 200.146 143.076 197.446C144.403 200.665 143.28 203.469 141.851 206.689C145.833 204.3 146.752 200.457 148.079 196.511C149.508 201.704 145.322 207.623 140.626 207.727C139.4 207.727 138.277 208.039 137.052 208.142C134.5 208.454 132.866 207.312 133.07 204.715C133.274 202.327 134.398 200.042 135.112 197.757C135.316 197.134 135.623 196.511 135.623 195.784C135.725 193.499 134.908 190.903 135.725 188.93C139.503 179.791 137.358 171.171 133.887 162.655C129.803 152.581 127.148 142.3 129.803 131.188C130.109 130.045 129.395 128.591 129.088 127.345C128.782 126.203 128.374 124.957 128.067 124.126C126.434 123.71 125.004 123.295 123.473 122.983C121.635 129.318 123.167 135.757 124.085 142.3C125.106 149.57 126.025 156.839 126.638 164.109C126.842 165.771 125.719 167.432 125.617 169.094C125.515 176.26 125.821 183.322 125.515 190.488C125.311 198.276 124.698 206.065 124.188 213.75C123.779 219.774 123.371 225.901 122.554 231.925C121.431 240.233 119.899 248.541 118.572 256.849C118.47 257.576 118.062 258.407 117.551 258.719C114.896 260.173 115.101 262.561 114.896 265.054C114.386 275.543 113.978 286.032 113.161 296.521C112.752 300.883 115.305 303.894 116.734 307.425C119.083 313.345 121.737 319.265 123.881 325.184C124.596 327.261 124.698 329.65 124.392 331.831C124.085 334.427 122.248 335.881 119.593 336.4C114.284 337.439 109.383 336.504 105.401 332.869C99.8878 327.78 94.3744 322.588 89.4736 316.98C87.7379 315.007 87.2274 311.683 86.9211 308.879C85.6959 298.286 84.777 287.59 83.8581 276.893C83.4497 272.116 83.1434 267.442 82.735 262.665C82.6329 262.042 82.2245 261.523 82.0203 261.003C81.3056 259.653 80.0804 258.303 79.8762 256.849C78.7531 248.541 77.63 240.233 76.9153 231.925C76.0985 222.163 75.6901 212.297 75.0775 202.431C75.0775 201.704 74.9754 200.977 74.8733 200.042H70.483C70.1767 203.365 69.6662 206.481 69.5641 209.7C69.0536 221.124 68.6452 232.444 68.3389 243.868C68.2368 247.295 68.6452 250.722 68.9515 254.149C69.1557 256.226 68.6452 257.576 66.6032 258.407C65.7864 258.719 64.8675 260.069 64.7654 261.003C64.4591 273.258 64.2549 285.513 64.2549 297.767C64.2549 300.156 65.6843 302.544 65.8885 304.933C66.0927 307.322 65.6843 309.918 65.1738 312.306C63.8465 318.641 60.7835 320.199 53.4323 321.757C44.3454 323.73 35.1565 325.392 25.9675 326.95C23.2108 327.365 20.352 327.573 17.5953 327.157C15.0428 326.742 13.3071 324.769 12.6945 322.172C11.9798 319.161 13.0008 316.668 15.4512 314.903C20.352 311.372 25.2528 307.945 30.1535 304.518C30.2556 304.414 30.3578 304.414 30.4599 304.414C37.1984 300.156 37.1984 299.74 35.8711 291.536C34.7481 284.889 34.2375 278.139 33.3186 271.492C32.8082 267.754 32.2976 264.015 31.4809 260.276C31.2767 259.342 29.9493 258.615 29.1325 257.784C28.4178 257.057 27.1926 256.33 27.0905 255.395C25.8654 248.437 24.436 241.375 23.8234 234.313C23.0066 224.343 22.9045 214.27 22.5982 204.3C22.4961 202.534 23.1087 200.769 20.4541 200.354C19.7394 200.25 18.8205 198.692 18.7184 197.757C18.5142 195.265 18.6163 192.668 18.6163 190.176C18.8205 190.176 19.1268 190.072 19.331 190.072C19.7394 193.188 20.1478 196.407 20.4541 199.523C20.9646 199.523 21.373 199.627 21.8835 199.627C22.2919 198.38 23.0066 197.238 23.1087 195.992C23.6192 191.318 24.5381 186.749 22.8024 182.075C21.8835 179.583 22.5982 176.467 22.5982 173.56C22.5982 171.898 22.5982 170.652 20.5562 169.821C19.4331 169.405 18.4121 167.017 18.5142 165.667C19.0247 156.735 19.5352 147.7 20.6583 138.873C21.4751 132.849 23.2108 126.93 24.6402 121.01C21.1688 119.972 17.6974 118.933 13.7155 117.687C13.205 120.283 12.2861 123.191 11.9798 126.099C11.0609 135.238 10.7546 144.481 9.63146 153.516C8.40626 162.863 6.46637 172.106 5.03697 181.349C3.81177 188.93 2.89287 196.615 1.97397 204.3C1.66767 207.104 2.99497 209.389 5.13906 211.673V197.965C5.24116 197.965 5.34327 197.861 5.54747 197.861C5.75167 198.484 5.95587 199.107 5.95587 199.834C6.16007 201.807 6.36427 203.885 6.26217 205.962C6.16007 209.285 6.46637 212.4 10.5504 213.75C9.83566 214.166 9.52937 214.477 9.32517 214.374C4.11807 213.647 0.850874 209.804 0.646674 204.508C0.238274 196.303 1.87187 188.41 3.81177 180.622C7.28317 166.394 8.61047 151.854 9.42727 137.315C9.83567 130.98 11.163 124.749 11.8777 118.518C11.9798 117.687 11.2651 116.752 10.9588 115.818C10.4483 114.675 9.32517 113.533 9.42727 112.494C10.6525 101.798 12.7966 91.4123 18.5142 82.0656C22.394 75.7306 27.9073 71.6803 34.4417 68.7725C40.2614 66.1761 45.979 63.5798 52.3092 60.672C48.6336 57.141 46.5916 53.1946 46.0811 48.6251C45.5706 44.6787 45.4685 40.7323 45.0601 36.7859C44.958 35.8512 44.2433 35.0204 43.8349 34.0857C43.0181 32.3202 41.6908 30.6586 41.4866 28.8931C41.1803 26.6084 42.4055 24.012 41.895 21.8311C40.9761 18.0925 44.2433 16.4308 45.0601 13.6268C45.2643 12.8998 46.0811 11.8613 46.6937 11.8613C50.063 11.5497 51.3903 8.43418 53.6365 6.66868C58.231 3.03385 63.5402 1.06065 69.2578 0.229831C76.2006 -0.704841 82.5308 1.26836 88.3505 5.1109C88.861 5.42245 89.4736 5.52631 90.0862 5.63016C90.6988 5.73401 91.6177 5.52631 92.0261 5.83787C93.8639 7.60336 96.2122 9.265 97.029 11.5498C98.7647 16.0154 99.6836 20.8965 100.909 25.5698C101.113 26.2968 101.215 27.1276 101.011 27.8546C100.296 30.8663 99.2752 33.878 98.6626 36.9936C98.1521 39.5899 97.9479 42.2901 97.5395 44.9902C97.4374 45.8211 97.1311 46.6519 96.6206 47.275C94.1702 50.806 94.6807 54.7524 98.4584 56.7256C103.666 59.3219 109.179 61.5028 114.59 63.7875C117.143 64.8261 119.797 65.7607 122.554 66.3839C127.863 67.7339 131.028 71.7842 133.377 76.0421C137.563 83.6234 141.136 91.62 144.812 99.4089C145.629 101.071 145.833 102.732 144.505 104.498C143.995 105.225 144.097 106.679 144.403 107.613C146.65 115.714 149.61 123.607 151.346 131.811C153.899 143.235 156.043 154.762 156.349 166.601C156.553 173.456 157.472 180.414 157.881 187.268C158.085 190.072 157.676 192.98 157.472 195.784C157.37 197.238 157.983 198.069 159.412 198.796C164.619 201.081 169.418 201.08 174.727 198.38C179.526 195.992 184.733 194.434 189.736 192.461C190.45 192.149 191.165 191.318 191.369 190.591C191.471 190.072 190.961 188.722 190.45 188.618C184.733 186.853 181.568 182.283 177.79 178.025C178.607 179.998 179.526 181.972 180.343 183.945C180.036 184.153 179.628 184.36 179.322 184.568C178.709 183.633 178.096 182.699 177.484 181.764C177.28 181.868 177.075 181.972 176.973 182.075C177.075 182.802 177.177 183.529 177.28 184.36H172.481C172.481 184.256 172.277 184.776 171.868 185.71C171.562 185.191 171.358 184.983 171.358 184.672C170.847 180.622 169.826 176.467 169.826 172.313C169.826 163.901 173.093 156.735 178.505 150.4C183.406 144.585 189.94 142.923 196.883 143.339C204.03 143.754 210.666 146.246 215.261 152.27C220.264 158.709 223.429 166.082 223.735 174.39C223.735 175.533 223.225 176.779 222.918 178.025C222.714 178.025 222.51 177.921 222.204 177.921C221.897 175.325 221.591 172.833 221.285 170.236C219.549 157.047 212.198 147.908 199.639 145.312C190.45 143.339 181.976 145.623 176.156 155.697C174.012 159.436 171.46 163.07 171.664 167.744C174.829 168.886 176.871 167.536 177.994 164.213C180.343 157.359 184.12 151.751 191.676 150.193C200.66 148.323 208.216 152.374 212.198 160.474C212.912 161.928 214.24 163.07 215.669 164.005C216.792 166.601 217.609 169.302 218.426 172.002ZM118.164 71.2649C118.47 71.4726 118.674 71.6803 118.98 71.888C118.47 72.7188 117.857 73.5497 117.347 74.4843C112.344 82.2733 111.017 90.7892 113.059 99.6166C114.896 107.821 119.491 114.675 124.392 121.322C125.617 122.88 126.536 122.983 127.761 121.633C129.395 119.764 131.13 117.791 132.764 115.921C136.133 112.079 139.707 108.34 142.872 104.29C143.587 103.355 143.893 101.278 143.484 100.24C140.217 92.7624 137.154 85.285 133.274 78.223C130.62 73.342 127.046 69.084 121.329 67.3185C113.773 64.9299 106.422 62.1259 98.9689 59.5296C92.945 67.4224 84.777 72.615 74.4649 73.8612C73.1376 74.0689 72.4229 74.2766 72.8313 75.9383C73.1376 77.2884 72.9334 78.6384 72.9334 80.0924C72.6271 80.0924 72.4229 80.0924 72.1166 80.0924C72.0145 78.8461 72.1166 77.5999 71.7082 76.4575C71.4019 75.6267 70.3809 74.4843 69.7683 74.4843C61.8045 74.692 55.2701 71.5765 49.6546 66.1761C48.4294 64.9299 47.2042 64.8261 45.6727 65.6569C42.4055 67.2147 39.0363 68.6686 35.667 70.1225C27.7032 73.4458 21.6793 78.8461 17.5953 86.7389C13.6134 94.7356 12.184 103.355 10.6525 111.975C10.3462 113.948 11.163 115.298 13.0008 115.921C16.9827 117.375 20.9646 118.829 24.8444 120.179C27.499 115.818 27.9073 111.767 26.7842 107.302C26.0695 104.498 25.457 101.59 25.2528 98.682C25.0486 96.0856 25.457 93.4893 25.5591 90.7892C25.9675 90.7892 26.3758 90.7892 26.7842 90.7892C24.9464 97.1242 27.7032 102.94 28.4179 108.963C28.6221 110.937 28.8262 113.117 28.3157 115.091C26.1716 124.126 23.2108 133.057 21.6793 142.3C20.352 150.4 20.4541 158.709 20.1478 167.017C20.1478 167.952 21.373 169.613 22.2919 169.717C26.5801 170.548 30.8682 171.483 35.2585 171.586C47 172.002 58.7415 172.417 70.483 172.313C80.3867 172.21 90.1883 171.483 99.9899 170.444C107.852 169.509 115.509 167.64 123.269 166.186C124.8 165.875 125.311 164.94 125.106 163.278C124.494 158.813 124.085 154.451 123.473 149.985C122.554 142.3 120.614 134.615 121.431 126.826C121.941 122.568 121.329 118.725 118.47 115.298C117.143 113.741 116.326 111.767 115.407 109.898C109.791 99.3051 109.179 88.4006 114.284 77.4961C115.305 75.0036 116.836 73.2381 118.164 71.2649ZM76.0985 200.25C76.3027 205.235 76.4048 210.531 76.8132 215.724C77.3237 222.786 78.1405 229.848 78.8552 236.91C79.5699 243.764 80.2846 250.618 81.2035 257.472C81.3056 258.303 82.1224 259.549 82.8371 259.757C86.4106 260.9 90.0862 262.353 93.8639 262.769C101.317 263.6 108.362 261.003 115.305 258.615C116.02 258.407 116.938 257.369 117.041 256.642C118.776 245.114 120.512 233.69 121.839 222.163C122.758 214.477 123.064 206.689 123.473 198.9C123.677 195.472 123.473 191.941 123.473 188.307C112.242 186.957 113.263 177.714 112.242 169.613C97.1311 173.248 82.0203 173.975 65.8885 173.975C67.3179 180.622 68.7473 186.749 70.0746 192.98C69.6662 192.668 68.6452 192.253 68.5431 191.734C67.0116 186.022 65.5822 180.206 64.1528 174.183C55.6785 173.975 46.5916 173.663 37.4026 173.456C36.8921 173.456 35.9732 174.91 35.8711 175.741C35.5648 181.764 33.5229 186.541 27.499 188.826C26.478 189.241 25.3549 190.695 25.2528 191.838C24.5381 196.823 23.9255 201.807 23.7213 206.792C23.1087 223.201 25.3549 239.298 28.4179 255.291C28.52 255.915 29.2347 256.642 29.7452 256.745C31.2767 257.161 32.9102 257.369 34.5438 257.576C38.3215 258.095 42.0992 258.407 45.8769 259.03C52.4113 259.965 58.8436 259.134 65.2759 257.369C66.8074 256.953 67.3179 256.122 67.2158 254.253C66.7053 247.191 66.0927 240.025 66.2969 232.963C66.6032 223.097 67.6242 213.335 68.3389 203.469C68.441 201.392 68.9515 199.107 65.7864 198.9C65.4801 198.9 65.1738 198.069 65.1738 197.861H79.0594C79.1615 198.173 79.1615 198.484 79.2636 198.796C78.4468 199.211 77.4258 199.627 76.0985 200.25ZM62.7234 63.3721C63.336 61.5028 63.6423 60.4643 63.9486 59.4257C64.0507 59.5296 64.2549 59.5296 64.357 59.6334C64.4591 60.5681 64.5612 61.6066 64.6633 62.9567C65.1738 61.7105 65.4801 60.8797 65.9906 59.6334C66.6032 61.2951 66.9095 62.3336 67.5221 64.0991C67.7263 62.3336 67.9305 61.3989 68.0326 60.4643L68.5431 60.5681C68.8494 61.3989 69.2578 62.2298 69.8704 63.6837C70.2788 61.9182 70.483 60.9835 70.7893 59.6334C71.2998 60.7758 71.7082 61.6066 72.3208 62.749C72.6271 61.2951 72.9334 60.2566 73.1376 59.3219C73.3418 59.3219 73.4439 59.3219 73.6481 59.3219C73.8523 60.1527 74.0565 60.9835 74.2607 61.8143C74.4649 61.9182 74.6691 61.9182 74.7712 62.022C75.1796 60.9835 75.588 59.945 76.0985 58.6988C76.5069 59.3219 76.9153 59.8411 77.3237 60.3604C82.6329 57.6602 86.5127 53.7138 88.6568 48.1058C88.3505 56.2063 81.714 58.5949 76.9153 62.749C76.7111 62.9567 76.5069 63.3721 76.3027 63.476C74.2607 63.7875 72.2187 63.9952 70.2788 64.5145C69.0536 64.8261 67.9305 65.553 66.2969 66.28C66.1948 66.0723 65.7864 65.3453 65.4801 64.7222C64.6633 65.6569 64.2549 66.0723 63.7444 66.6954C63.336 65.8646 63.1318 65.3453 62.7234 64.5145C62.315 65.3453 62.0087 65.7607 62.0087 65.8646C60.1709 65.1376 58.5373 63.9952 57.0058 64.0991C54.9638 64.2029 53.8407 63.9952 53.3302 61.5028C51.9008 62.3336 50.5735 63.1644 49.2462 63.9952C64.8675 81.2348 90.8009 70.6418 97.6416 58.1795C94.3744 56.8294 93.8639 53.9216 93.5576 50.806C93.1492 46.0288 92.7408 41.3554 92.3324 36.8898C93.4555 36.7859 94.7828 37.0975 95.5996 36.4743C97.4374 35.2281 97.7437 27.9584 96.1101 25.7775C95.8038 26.1929 95.3954 26.5045 95.3954 26.9199C95.0891 29.1008 94.3744 30.8663 92.4345 32.3202C91.1072 33.2549 90.5967 35.2281 89.4736 37.2013C87.1253 37.409 88.0442 34.9166 87.7379 33.4626C86.9211 29.7239 89.2694 25.7775 87.1253 22.1427C86.819 21.6234 86.9211 20.6888 87.2274 20.1695C88.6568 18.0925 87.5337 15.9116 86.9211 14.2499C86.2064 12.1729 86.0022 10.6151 87.5337 8.84959C87.84 8.43418 87.6358 6.77254 87.2274 6.56483C82.8371 4.79934 78.4468 2.61844 73.7502 1.89147C68.0326 0.9568 62.315 3.1377 57.3121 5.83787C53.7386 7.81106 49.2462 10.5112 49.6546 15.0807C49.9609 18.0925 48.7357 20.5849 48.3273 23.0774C47.2042 29.8278 45.2643 36.3705 46.5916 43.2248C47.4084 47.1711 48.021 51.2214 49.1441 55.0639C50.063 58.0757 52.6155 59.6334 54.3512 59.218C55.4743 60.2566 56.4953 61.1912 57.5163 62.022C57.9247 61.3989 58.231 60.7758 58.6394 60.0488C59.0478 61.0874 59.252 61.9182 59.6604 63.0606C60.273 62.022 60.6814 61.2951 61.294 60.1527C61.8045 61.1912 62.1108 61.9182 62.7234 63.3721ZM186.877 193.915C187.183 197.134 187.49 199.627 187.592 202.015C187.796 206.585 186.06 210.739 182.997 211.57C180.649 212.193 180.547 213.439 180.955 215.308C183.303 225.694 183.099 235.975 181.67 246.464C180.751 253.111 180.853 259.965 180.853 266.611C180.853 270.558 182.385 271.804 186.366 271.908C189.327 272.012 192.39 271.804 195.351 272.012C198.006 272.219 198.823 270.766 198.925 268.481C199.027 265.781 199.027 263.184 199.027 260.484C199.027 256.33 199.742 255.707 204.132 256.122C204.54 261.626 205.051 267.131 205.459 272.635C207.093 272.635 208.114 272.531 209.135 272.635C213.423 273.258 216.792 271.596 219.855 268.896C221.489 267.546 222.204 265.884 221.795 263.6C221.285 261.107 221.285 258.511 220.774 256.018C219.447 248.853 218.017 241.791 216.69 234.625C216.282 232.236 216.18 229.848 216.18 227.459C216.18 222.266 216.486 217.074 216.18 211.881C215.975 207.831 214.648 203.885 214.342 199.834C213.933 193.707 212.81 193.707 209.237 193.084C206.276 195.576 203.826 197.757 201.069 200.146C201.477 207.104 201.886 214.789 202.294 222.37C201.886 222.37 201.477 222.474 201.069 222.474C199.537 214.997 200.15 207.312 199.129 199.627C195.045 200.354 192.595 197.965 190.144 195.472C189.532 194.849 188.306 194.642 186.877 193.915ZM113.671 260.9C103.257 264.638 93.4555 266.196 83.4497 261.73C84.6749 274.92 85.798 287.486 87.0232 299.948C87.1253 300.883 87.4316 302.025 88.0442 302.648C89.7799 304.102 91.8219 305.348 93.5576 306.595C99.071 301.921 105.197 300.779 111.221 301.817C112.038 288.524 112.854 275.023 113.671 260.9ZM32.5019 259.03C33.3186 264.223 34.1354 269.104 34.8502 274.089C35.8711 281.462 36.79 288.732 37.6068 296.105C37.811 298.079 38.5257 298.39 40.1593 298.494C42.7118 298.806 45.1622 299.533 47.7147 300.052C48.1231 300.156 48.7357 300.467 49.042 300.26C53.4323 298.494 57.9247 298.806 62.5192 299.74V260.069C52.6155 261.315 42.7118 260.796 32.5019 259.03ZM212.3 169.406C212.606 159.436 204.949 151.231 196.27 151.231C185.55 151.335 178.811 159.643 178.913 172.521C179.015 178.856 188.408 188.203 194.841 187.995C206.072 187.58 212.3 180.414 212.3 169.406ZM48.1231 302.544C43.3244 299.013 40.0572 299.117 36.0753 302.233C33.727 304.102 31.1746 305.66 28.7242 307.425C24.436 310.437 20.1478 313.449 15.9617 316.461C13.9197 317.915 13.5113 320.303 14.3281 322.38C14.9407 323.73 16.6764 325.288 18.1058 325.6C20.6583 326.015 23.415 325.807 26.0696 325.392C35.1564 323.834 44.1412 322.069 53.126 320.303C56.6995 319.576 60.8856 318.849 62.2129 315.11C63.7444 311.06 63.8465 306.491 64.5612 302.025C61.0898 301.506 58.3331 300.779 55.6785 300.779C52.4113 300.779 49.1441 300.883 48.2252 305.348C47.9189 306.906 46.7958 308.464 45.5706 309.71C44.4475 310.956 43.7328 313.033 41.1803 312.618C43.6307 309.087 45.7748 305.868 48.1231 302.544ZM87.7379 305.037C87.9421 307.218 87.9421 309.399 88.4526 311.372C88.9631 313.345 89.5757 315.526 90.8009 316.98C94.4765 321.134 98.4584 324.977 102.44 328.923C106.524 332.973 111.119 335.985 117.245 335.258C121.533 334.842 123.983 332.142 122.656 327.988C120.92 322.276 118.878 316.668 116.53 311.164C112.548 301.921 114.386 303.583 104.789 303.479C104.584 303.479 104.38 303.479 104.278 303.479C101.726 304.31 99.071 304.933 96.7227 306.075C95.0891 306.906 94.2723 308.36 95.9059 310.229C96.5185 310.853 96.7227 311.891 97.1311 312.618C96.8248 312.826 96.6206 313.033 96.3143 313.241C93.8639 310.126 92.2303 305.971 87.7379 305.037ZM184.222 273.881C184.631 284.578 185.039 295.379 185.345 306.179C185.448 308.568 185.345 311.06 184.835 313.449C184.427 315.318 185.243 315.734 186.469 316.045C189.634 316.772 196.168 311.476 196.168 308.152C196.066 297.144 195.862 286.136 195.658 275.231C195.658 274.92 195.555 274.504 195.453 273.881H184.222ZM208.828 275.023C208.931 275.335 209.237 276.062 209.237 276.789C209.747 284.682 210.564 292.471 210.768 300.363C210.87 305.556 212.402 309.71 216.69 312.41C217.915 313.137 219.753 312.93 221.285 313.137C221.183 311.683 221.387 310.126 221.08 308.672C220.774 307.114 219.651 305.764 219.549 304.206C219.243 299.117 219.141 294.028 219.141 288.836C219.038 283.228 219.141 277.724 219.141 272.323C215.669 273.362 212.3 274.193 208.828 275.023ZM154.103 207.831C158.493 208.869 162.986 210.739 167.478 210.739C172.072 210.843 176.565 209.077 181.159 208.142C181.159 208.869 181.261 209.389 181.261 210.012C181.874 209.908 182.691 210.116 182.997 209.7C183.916 208.662 185.039 207.623 185.448 206.377C186.673 202.742 186.366 199.003 185.141 194.849C180.343 197.134 175.748 199.315 171.154 201.392C166.049 203.677 161.352 200.457 156.962 199.419C155.839 202.431 155.022 204.923 154.103 207.831ZM123.779 167.225C121.227 167.744 119.185 168.159 117.041 168.471C115.203 168.782 113.978 169.509 114.284 171.794C114.794 174.806 114.999 178.025 115.713 180.933C116.53 184.256 120.001 186.333 123.779 185.814V167.225ZM99.1731 25.7775C98.6626 23.8043 98.1521 21.935 97.6416 19.9618C97.029 17.3655 96.4164 14.7692 95.8038 12.1729C95.7017 11.7575 95.0891 11.0305 94.7828 11.1343C92.945 11.5497 92.6387 10.3035 92.1282 8.95344C91.5156 7.2918 90.8009 7.18795 89.6778 8.53803C89.0652 9.36885 88.1463 9.88811 87.4316 10.4074C89.6778 14.0422 90.8009 17.3655 88.3505 21.208C90.3925 23.1812 90.903 25.466 89.1673 28.27C88.7589 28.8931 89.4736 30.2432 89.6778 31.2817C89.882 31.3856 90.1883 31.3856 90.3925 31.4894C91.3114 30.1393 92.7408 28.997 92.945 27.543C93.2513 25.466 94.0681 23.9082 95.9059 23.5966C96.8248 23.5966 98.05 24.9467 99.1731 25.7775ZM211.789 310.541C211.381 314.384 213.729 316.564 215.873 318.642C218.936 321.653 222.101 324.873 226.798 324.769C227.921 324.769 229.453 323.73 230.167 322.796C230.576 322.172 230.167 320.511 229.555 319.68C227.717 317.188 225.573 314.799 223.429 312.203C222.612 315.837 219.855 315.526 217.813 314.695C215.771 314.072 214.036 312.203 211.789 310.541ZM191.778 194.642C195.045 199.938 200.967 198.796 204.847 195.68C205.561 195.057 205.868 193.292 205.663 192.149C205.459 190.695 204.642 189.449 204.03 187.995C202.396 188.307 200.66 188.618 198.925 188.93C197.087 189.241 195.249 189.553 193.718 189.864C193.105 191.422 192.492 192.98 191.778 194.642ZM26.3759 186.957C32.3997 185.71 35.0543 180.933 34.0333 172.833C31.4808 172.521 28.8263 172.313 26.3759 172.106V186.957ZM183.303 316.461C182.18 317.915 180.853 319.265 179.934 320.926C179.424 321.757 179.424 322.899 179.117 323.938C180.138 324.146 181.364 324.769 182.18 324.457C186.366 322.588 190.45 320.822 194.33 318.434C196.781 316.876 197.393 313.864 196.474 311.995C192.799 315.422 189.429 320.199 183.303 316.461ZM44.6517 32.7357C45.2643 30.1393 46.0811 27.543 46.5916 24.9467C46.8979 23.1812 46.6937 21.208 46.8979 19.4425C47.1021 17.7809 47.5105 16.1193 47.8168 14.4576C47.4084 14.3538 47.1021 14.3538 46.6937 14.2499C42.4055 19.7541 41.895 25.9852 44.6517 32.7357ZM220.468 196.511C220.774 196.407 221.08 196.303 221.387 196.199C221.897 190.28 219.549 185.191 215.567 183.01C214.036 182.179 213.015 182.283 212.402 183.945C214.138 187.372 215.873 190.799 217.609 194.226C217.915 194.122 218.222 194.019 218.63 193.811C217.711 191.007 216.894 188.099 215.771 184.568C219.038 187.476 220.264 190.384 220.059 194.019C220.059 194.953 220.366 195.784 220.468 196.511ZM137.971 197.03C135.316 198.9 133.683 202.95 134.5 205.442C135.112 207.208 136.235 207.312 137.358 206.065C139.605 203.261 138.686 200.25 137.971 197.03ZM24.5381 173.56C24.2318 173.56 23.9255 173.56 23.5171 173.56C23.8234 176.883 22.8024 180.414 24.5381 184.36V173.56Z" fill="black"/>
<path d="M218.338 172.209C217.966 169.67 217.594 167.237 217.315 164.699C217.222 163.641 217.129 162.583 217.036 160.891C220.198 165.122 221.686 176.969 219.547 178.767C219.082 176.546 218.71 174.325 218.338 172.209C218.338 172.103 218.338 172.209 218.338 172.209Z" fill="black"/>
<path d="M18.4641 212.375C17.3876 212.27 16.2132 212.48 15.4303 211.957C13.3752 210.492 12.4944 202.015 13.9623 199.504C14.2559 201.701 14.5495 203.899 14.8431 205.992C15.1367 208.503 15.3324 211.224 18.8555 211.433C18.7577 211.643 18.6598 212.061 18.4641 212.375Z" fill="black"/>
<path d="M13.134 213.805C12.2394 213.507 11.0466 213.507 10.3508 212.911C8.06455 210.826 7.56755 202.583 9.55556 199.504C10.5496 204.172 7.46814 209.932 13.2334 213.011C13.2334 213.408 13.134 213.607 13.134 213.805Z" fill="black"/>
<path d="M117.635 71.4137C116.311 73.3894 114.783 75.2611 113.866 77.3407C108.672 88.363 109.283 99.1773 114.987 109.784C116.005 111.655 116.718 113.631 118.042 115.191C120.996 118.622 121.505 122.47 120.996 126.733C120.079 134.636 122.117 142.227 123.033 149.921C123.542 154.393 124.052 158.76 124.663 163.231C124.867 164.895 124.357 165.831 122.829 166.143C115.089 167.599 107.348 169.574 99.6069 170.406C89.8289 171.55 79.9492 172.174 70.1712 172.278C58.4581 172.486 46.7449 172.07 35.0318 171.55C30.6521 171.342 26.3742 170.51 22.0964 169.678C21.1797 169.47 19.9574 167.807 19.9574 166.975C20.263 158.76 20.1611 150.337 21.4852 142.227C23.013 133.076 25.9668 124.133 28.1057 114.983C28.5131 113.007 28.4113 110.927 28.2076 108.848C27.4946 102.817 24.7446 96.9937 26.5779 90.6507C26.1705 90.6507 25.7631 90.6507 25.3557 90.6507C25.2538 93.2503 24.8464 95.9538 25.0501 98.5534C25.2538 101.465 25.8649 104.377 26.5779 107.184C27.6983 111.551 27.2909 115.607 24.6427 120.078C20.7723 118.726 16.8 117.27 12.8277 115.815C10.9943 115.191 10.1795 113.839 10.4851 111.863C12.0129 103.233 13.337 94.602 17.4111 86.5953C21.3834 78.6925 27.3927 73.2854 35.4392 69.9579C38.8003 68.5021 42.1615 67.1503 45.4208 65.4866C46.9486 64.7587 48.1709 64.7587 49.3931 66.0065C54.995 71.5177 61.5137 74.6372 69.4582 74.3252C70.0694 74.3252 71.0879 75.469 71.3935 76.3009C71.8009 77.4447 71.699 78.6925 71.8009 79.9403C72.1064 79.9403 72.3101 79.9403 72.6157 79.9403C72.6157 78.5885 72.8194 77.1328 72.5139 75.781C72.2083 74.1172 72.8194 73.8053 74.1435 73.7013C84.5326 72.4535 92.579 67.2543 98.5883 59.3516C106.024 61.9512 113.357 64.7587 120.894 67.1503C126.598 69.022 130.265 73.1814 132.811 78.0686C136.682 85.1395 139.737 92.7303 142.996 100.113C143.506 101.257 143.2 103.233 142.385 104.169C139.126 108.224 135.663 111.967 132.302 115.815C130.672 117.686 128.941 119.662 127.311 121.534C126.089 122.886 125.172 122.886 123.95 121.222C119.061 114.567 114.579 107.6 112.644 99.4893C110.607 90.6507 111.931 82.124 116.922 74.3252C117.431 73.4934 118.042 72.6615 118.552 71.7256C118.144 71.8296 117.839 71.6216 117.635 71.4137Z" fill="#F8F5ED"/>
<path d="M75.8405 200.225C77.1752 199.6 78.0992 199.183 79.0231 198.766C78.9205 198.453 78.9205 198.14 78.8178 197.828H64.8555C64.9581 197.932 65.1635 198.87 65.4715 198.87C68.6541 199.079 68.2434 201.372 68.0381 203.457C67.3194 213.361 66.2928 223.161 65.9848 233.065C65.7795 240.155 66.3954 247.348 66.9088 254.437C67.0114 256.314 66.4981 257.148 64.9581 257.565C58.593 259.233 52.1251 260.171 45.452 259.233C41.6534 258.712 37.8548 258.295 34.0562 257.773C32.4136 257.565 30.771 257.356 29.231 256.939C28.7177 256.835 27.999 256.001 27.8964 255.48C24.8164 239.425 22.5578 223.265 23.1738 206.793C23.3792 201.789 23.9951 196.785 24.7138 191.781C24.9191 190.634 25.9458 189.175 26.9724 188.758C33.0296 186.464 35.0829 181.668 35.3909 175.622C35.3909 174.788 36.4175 173.328 36.9308 173.328C46.0679 173.432 55.3077 173.745 63.8288 174.058C65.2661 180.105 66.7034 185.943 68.2434 191.677C68.4487 192.302 69.3727 192.615 69.7834 192.928C68.3461 186.673 67.0114 180.522 65.5741 173.849C81.6924 173.849 96.9894 173.015 112.184 169.471C113.21 177.707 112.184 186.881 123.477 188.236C123.477 191.781 123.682 195.326 123.477 198.87C123.066 206.689 122.758 214.508 121.834 222.223C120.499 233.795 118.651 245.367 117.009 256.835C116.906 257.565 115.982 258.607 115.264 258.816C108.282 261.214 101.199 263.82 93.7041 262.986C89.9055 262.569 86.3123 261.109 82.6164 259.963C81.8977 259.754 81.1791 258.503 80.9737 257.669C80.0498 250.788 79.3311 243.908 78.6125 237.027C77.8938 229.938 77.0725 222.848 76.5592 215.759C76.1485 210.442 76.0459 205.23 75.8405 200.225Z" fill="#F8F5ED"/>
<path d="M62.6782 63.4542C62.1696 61.9975 61.8645 61.2692 61.3559 60.0206C60.7457 61.1651 60.3388 61.7894 59.7285 62.9339C59.3217 61.7894 59.1183 61.0611 58.7114 59.9166C58.3046 60.6449 57.8977 61.2692 57.5926 61.8935C56.5755 60.957 55.5583 60.1247 54.4395 59.0842C52.8121 59.5004 50.1676 57.9397 49.2522 54.9223C48.1333 51.0726 47.523 47.0147 46.7093 43.0609C45.3871 36.0898 47.3196 29.5348 48.4385 22.8757C48.8453 20.3786 49.9641 17.8815 49.7607 14.8641C49.3539 10.286 53.7275 7.47675 57.3891 5.6039C62.4748 2.89867 68.069 0.713681 73.7649 1.65011C78.3419 2.37844 82.7155 4.66748 87.1909 6.33223C87.496 6.43628 87.8012 8.20508 87.496 8.62127C85.9703 10.3901 86.1738 11.8467 86.8857 14.0317C87.3943 15.8005 88.6149 17.8815 87.1909 19.9624C86.8857 20.3786 86.784 21.4191 87.0892 21.9393C89.1234 25.685 86.8857 29.6388 87.6995 33.2805C88.0046 34.7371 87.0892 37.2343 89.4286 37.0262C90.5474 35.1533 91.056 33.0724 92.3782 32.136C94.3108 30.6793 95.1245 29.0145 95.3279 26.7255C95.3279 26.3093 95.7347 25.9972 96.0399 25.581C97.6673 27.87 97.3621 35.0493 95.5313 36.2978C94.7176 36.8181 93.3953 36.61 92.2765 36.714C92.6834 41.084 93.0902 45.8702 93.4971 50.6564C93.7005 53.7778 94.3108 56.6911 97.5656 58.0437C90.7508 70.6334 65.0176 81.1422 49.3539 63.8704C50.6761 63.038 51.9984 62.3097 53.4224 61.3732C53.8292 63.7663 55.0498 64.0785 57.084 63.9744C58.6097 63.8704 60.2371 65.1189 62.0679 65.7432C62.0679 65.7432 62.3731 65.223 62.7799 64.3906C63.1868 65.223 63.4919 65.7432 63.797 66.5756C64.3056 65.9513 64.7124 65.5351 65.5261 64.5987C65.933 65.327 66.2381 65.9513 66.3398 66.1594C67.8655 65.4311 68.9844 64.5987 70.3066 64.3906C72.2392 63.8704 74.2734 63.7663 76.3077 63.3501C76.5111 63.3501 76.7145 62.8299 76.9179 62.6218C81.6984 58.564 88.4114 56.0668 88.6149 47.9511C86.3772 53.5697 82.6138 57.4194 77.3248 60.2287C76.9179 59.7085 76.6128 59.1882 76.1042 58.564C75.5957 59.8125 75.1888 60.853 74.782 61.8935C74.5786 61.7894 74.3751 61.7894 74.2734 61.6854C74.07 60.853 73.8666 60.0206 73.6631 59.1882C73.4597 59.1882 73.358 59.1882 73.1546 59.1882C72.9511 60.1247 72.7477 61.0611 72.3409 62.6218C71.7306 61.3732 71.4255 60.6449 70.8152 59.5004C70.5101 60.853 70.3066 61.7894 69.8998 63.5582C69.2895 62.1016 68.8827 61.2692 68.5775 60.4368L68.069 60.3328C67.9672 61.2692 67.7638 62.3097 67.5604 63.9744C66.9501 62.2056 66.5433 61.1651 66.0347 59.5004C65.5261 60.749 65.221 61.5813 64.7125 62.8299C64.6107 61.3732 64.509 60.4368 64.4073 59.5004C64.3056 59.3963 64.1022 59.3963 64.0005 59.2923C63.5936 60.5409 63.1868 61.5813 62.6782 63.4542ZM64.0005 28.4943C63.6953 28.3903 63.3902 28.1822 62.9833 28.0781C61.7628 30.6793 60.4405 33.2805 59.22 35.8817C58.7114 37.0262 58.2029 38.1707 57.9994 39.3152C57.8977 39.9395 58.3046 41.1881 58.6097 41.1881C60.9491 41.6043 63.2885 41.8124 65.7296 42.0204C66.645 42.1245 67.5604 41.6043 68.4758 41.6043C71.1203 41.7083 72.9512 39.8355 72.0357 37.5464C70.9169 39.5233 65.7296 41.084 62.9833 40.4597C61.8645 40.1476 60.7457 40.1476 59.22 39.9395C60.7457 36.1938 62.3731 32.344 64.0005 28.4943ZM71.4255 22.2515C71.6289 22.5636 71.934 22.7717 72.1374 23.0838C75.6974 22.5636 79.2573 22.0434 83.2241 21.4191C80.783 19.2341 77.6299 18.6098 74.5786 19.8584C73.358 20.2746 72.4426 21.4191 71.4255 22.2515ZM50.371 23.2919C50.6761 23.5 50.9813 23.9162 51.1847 23.9162C54.0326 23.5 56.8806 22.9798 59.8303 22.4596C60.1354 22.3555 60.644 21.8353 60.644 21.5231C60.644 21.1069 60.3388 20.4827 59.932 20.2746C56.9823 18.5058 52.3035 20.0665 50.371 23.2919ZM58.9148 48.3673C62.6782 52.7373 71.7306 51.6968 74.07 46.2864C68.9844 49.824 64.1022 50.4483 58.9148 48.3673ZM54.5412 27.1417C53.4224 28.5983 52.3035 29.4307 52.4052 29.951C52.6087 30.7833 53.6258 31.5117 54.4395 32.0319C54.6429 32.136 55.9652 30.9914 55.9652 30.4712C56.0669 29.5348 55.3549 28.7024 54.5412 27.1417Z" fill="#F8F5ED"/>
<path d="M186.442 193.799C187.882 194.425 189.117 194.738 189.94 195.469C192.513 197.974 194.983 200.375 198.996 199.644C200.128 207.369 199.408 215.093 200.952 222.608C201.363 222.608 201.775 222.504 202.186 222.504C201.775 214.884 201.363 207.264 200.952 200.166C203.73 197.766 206.2 195.574 209.184 193.068C212.786 193.695 213.918 193.695 214.33 199.853C214.535 203.924 215.873 207.891 216.182 211.961C216.491 217.181 216.079 222.4 216.182 227.619C216.182 230.019 216.285 232.42 216.697 234.821C217.931 242.023 219.475 249.121 220.813 256.324C221.327 258.829 221.327 261.438 221.842 263.943C222.254 266.24 221.533 267.91 219.887 269.267C216.799 271.981 213.301 273.651 209.081 273.025C208.052 272.816 207.023 273.025 205.377 273.025C204.965 267.492 204.45 261.96 204.039 256.428C199.511 256.115 198.893 256.741 198.893 260.812C198.893 263.526 198.893 266.135 198.791 268.849C198.688 271.146 197.864 272.607 195.189 272.398C192.204 272.19 189.117 272.398 186.133 272.294C182.119 272.19 180.576 270.937 180.576 266.971C180.576 260.186 180.473 253.401 181.399 246.72C182.84 236.178 183.046 225.844 180.679 215.406C180.267 213.527 180.37 212.275 182.737 211.648C185.824 210.813 187.574 206.742 187.368 202.045C187.059 199.54 186.75 197.139 186.442 193.799ZM205.377 206.325C204.553 205.594 204.039 204.759 203.627 204.759C203.113 204.863 202.392 205.594 202.392 206.116C202.392 206.638 203.01 207.473 203.524 207.682C203.833 207.786 204.45 207.056 205.377 206.325Z" fill="#F8F5ED"/>
<path d="M113.729 261C112.913 275.145 112.096 288.563 111.279 301.98C105.256 301.044 99.1302 302.084 93.6172 306.765C91.7796 305.516 89.8399 304.268 88.1043 302.812C87.4918 302.292 87.1855 301.044 87.0834 300.108C85.8583 287.523 84.7353 275.041 83.5102 261.832C93.5151 266.305 103.418 264.744 113.729 261Z" fill="#F8F5ED"/>
<path d="M32.2081 258.855C42.4867 260.631 52.4569 261.153 62.4272 259.9V299.786C57.8018 298.846 53.2792 298.533 48.8594 300.308C48.4483 300.413 47.9344 300.099 47.5232 300.099C44.9536 299.577 42.4867 298.846 39.9171 298.533C38.2725 298.324 37.553 298.011 37.3474 296.132C36.5251 288.718 35.6001 281.409 34.5722 273.996C33.9555 268.984 33.0304 263.972 32.2081 258.855Z" fill="#F8F5ED"/>
<path d="M195.919 151.597C185.089 151.597 178.282 159.94 178.385 172.713C178.488 178.996 188.08 188.267 194.475 188.061C205.821 187.649 212.113 180.541 212.113 169.623C212.319 159.631 204.686 151.494 195.919 151.597ZM194.166 171.889C194.991 171.271 196.332 171.271 197.466 171.065C197.57 171.271 197.57 171.58 197.673 171.889C196.435 172.713 195.197 173.434 193.238 174.773C193.547 173.537 193.547 172.301 194.166 171.889ZM183.13 164.266C182.923 163.957 182.717 163.648 182.511 163.339C183.748 162.721 184.883 161.691 186.121 161.485C187.874 161.279 189.937 160.97 190.865 163.751C189.524 163.442 188.184 162.824 186.946 162.927C185.605 163.03 184.367 163.854 183.13 164.266ZM190.453 178.069H200.561C199.426 180.85 193.341 181.159 190.453 178.069ZM200.767 163.751C201.489 162.103 202.933 161.794 204.583 162C206.13 162.206 207.471 162.412 207.781 164.266C205.305 164.06 203.139 163.957 200.767 163.751Z" fill="#F8F5ED"/>
<path d="M48.0045 302.363C45.6575 305.778 43.5146 309.086 41.1676 312.5C43.6167 313.034 44.331 310.793 45.5555 309.513C46.6779 308.232 47.8004 306.632 48.2086 305.031C49.127 300.443 52.4944 300.336 55.6577 300.336C58.4129 300.336 61.066 301.083 64.5355 301.617C63.8212 306.205 63.6171 310.9 62.1885 315.061C60.8619 318.902 56.6782 319.649 53.1067 320.396C44.1269 322.317 35.1471 324.024 26.0653 325.625C23.5142 326.052 20.657 326.265 18.1059 325.838C16.6773 325.625 14.9426 324.024 14.3303 322.53C13.514 320.503 13.9222 318.049 15.963 316.448C20.1468 313.247 24.4326 310.26 28.7184 307.165C31.1674 305.351 33.7185 303.751 36.0655 301.83C39.9431 298.842 43.2085 298.736 48.0045 302.363ZM18.5141 318.476C20.0447 320.93 22.1876 321.25 24.3305 321.143C28.8204 320.823 36.8818 316.448 37.8002 313.461C35.2491 314.848 33.2083 316.342 30.8613 317.195C27.2898 318.476 23.7183 321.463 19.7386 318.156C19.7386 318.049 19.2284 318.262 18.5141 318.476Z" fill="#F8F5ED"/>
<path d="M87.7268 304.816C92.2013 305.758 93.8283 309.842 96.269 313.087C96.574 312.878 96.7774 312.669 97.0825 312.459C96.6757 311.622 96.4724 310.679 95.8622 310.051C94.2351 308.166 94.947 306.7 96.6757 305.863C99.1163 304.711 101.659 304.083 104.201 303.245C104.404 303.14 104.608 303.245 104.709 303.245C114.37 303.35 112.438 301.675 116.404 310.993C118.743 316.543 120.777 322.197 122.506 327.956C123.828 332.144 121.387 334.762 117.116 335.285C111.014 335.913 106.438 332.877 102.371 328.898C98.4045 325.024 94.4385 321.045 90.7776 316.857C89.5573 315.391 88.8454 313.192 88.4387 311.203C87.9302 309.213 87.9302 307.015 87.7268 304.816ZM119.557 327.432C119.455 327.223 119.455 326.909 119.353 326.699C109.387 330.678 105.015 322.825 99.8282 316.962C99.6248 317.276 99.5231 317.485 99.5231 317.59C99.5231 317.904 99.7265 318.323 99.8282 318.637C101.557 322.825 105.014 325.233 108.37 327.851C111.116 329.945 114.167 330.05 117.319 329.212C118.133 329.003 118.845 328.06 119.557 327.432Z" fill="#F8F5ED"/>
<path d="M184.006 273.871H195.232C195.335 274.494 195.438 274.805 195.438 275.22C195.644 286.217 195.85 297.214 195.953 308.108C195.953 311.428 189.362 316.719 186.169 315.993C184.933 315.681 184.109 315.266 184.521 313.399C185.036 311.116 185.139 308.523 185.036 306.137C184.83 295.347 184.315 284.557 184.006 273.871Z" fill="#F8F5ED"/>
<path d="M208.603 274.931C212.095 274.101 215.485 273.271 219.079 272.441C219.079 277.731 219.079 283.331 219.079 288.932C219.182 294.014 219.182 299.199 219.49 304.281C219.593 305.733 220.723 307.185 221.031 308.741C221.339 310.193 221.236 311.748 221.236 313.2C219.696 312.993 217.847 313.2 216.614 312.474C212.301 309.778 210.76 305.526 210.657 300.444C210.452 292.562 209.63 284.783 209.117 276.901C209.014 275.968 208.706 275.242 208.603 274.931Z" fill="#F8F5ED"/>
<path d="M153.787 208.067C154.814 205.188 155.636 202.721 156.664 199.739C161.082 200.767 165.808 203.955 170.945 201.693C175.569 199.636 180.192 197.477 185.021 195.215C186.254 199.225 186.562 202.926 185.329 206.628C184.918 207.862 183.788 208.89 182.864 209.918C182.555 210.227 181.733 210.124 181.117 210.227C181.117 209.713 181.014 209.096 181.014 208.376C176.391 209.301 171.767 210.946 167.246 210.946C162.726 210.946 158.205 209.096 153.787 208.067Z" fill="#F8F5ED"/>
<path d="M123.568 167.326V185.839C119.686 186.354 116.118 184.297 115.279 181.005C114.544 178.023 114.335 174.937 113.81 171.852C113.39 169.589 114.649 168.869 116.643 168.56C118.846 168.252 121.05 167.84 123.568 167.326Z" fill="#F8F5ED"/>
<path d="M98.9711 25.7262C97.8283 24.9067 96.5817 23.575 95.6467 23.6775C93.8806 23.9848 92.9456 25.4189 92.634 27.57C92.4262 29.0041 90.9718 30.1309 90.0368 31.4626C89.829 31.3601 89.5173 31.3601 89.3096 31.2577C89.1018 30.2334 88.3746 28.9017 88.7901 28.2871C90.4523 25.5213 90.0368 23.2677 87.959 21.3214C90.3484 17.5313 89.3096 14.2534 87.024 10.6681C87.7513 10.0535 88.6862 9.54132 89.3096 8.82427C90.4523 7.39016 91.1795 7.59503 91.8029 9.23401C92.2184 10.4632 92.634 11.6925 94.5039 11.3852C94.8156 11.2827 95.4389 11.9998 95.5428 12.4095C96.27 14.9704 96.7895 17.5313 97.4128 20.0922C97.9322 21.9361 98.4517 23.8823 98.9711 25.7262Z" fill="#F8F5ED"/>
<path d="M211.442 310.34C213.633 311.894 215.406 313.76 217.597 314.589C219.684 315.314 222.5 315.729 223.335 312.102C225.526 314.692 227.717 317.076 229.595 319.563C230.221 320.392 230.638 322.05 230.221 322.672C229.49 323.708 227.926 324.641 226.778 324.641C221.979 324.641 218.745 321.532 215.615 318.527C213.528 316.454 211.129 314.174 211.442 310.34Z" fill="#F8F5ED"/>
<path d="M191.737 194.534C192.457 192.916 193.074 191.501 193.691 189.883C195.235 189.579 197.087 189.377 198.939 188.973C200.688 188.669 202.437 188.366 204.083 188.062C204.7 189.377 205.524 190.692 205.729 192.107C205.935 193.22 205.626 194.939 204.906 195.546C200.996 198.579 195.029 199.59 191.737 194.534Z" fill="#F8F5ED"/>
<path d="M25.8832 187.349V172.332C28.5086 172.541 31.2434 172.853 34.0876 173.062C35.1816 181.3 32.3374 186.097 25.8832 187.349Z" fill="#F8F5ED"/>
<path d="M183.227 316.457C189.287 320.292 192.619 315.391 196.255 311.77C197.164 313.687 196.558 316.776 194.134 318.374C190.296 320.824 186.156 322.635 182.116 324.553C181.308 324.872 180.097 324.233 179.087 324.02C179.289 322.955 179.39 321.783 179.895 320.931C180.904 319.333 182.116 317.948 183.227 316.457Z" fill="#F8F5ED"/>
<path d="M44.4863 32.8926C41.7279 26.1414 42.1523 19.9095 46.502 14.3008C46.9264 14.4046 47.2447 14.4046 47.669 14.5085C47.3507 16.1704 46.9264 17.8322 46.7142 19.494C46.502 21.3636 46.8203 23.2332 46.3959 24.9989C45.9716 27.6994 45.1228 30.296 44.4863 32.8926Z" fill="#F8F5ED"/>
<path d="M220.275 196.645C220.172 195.83 219.862 195.116 219.862 194.403C219.965 190.837 218.829 187.984 215.525 185.13C216.661 188.595 217.487 191.346 218.416 194.199C218.106 194.301 217.797 194.403 217.384 194.607C215.628 191.244 213.872 187.882 212.117 184.519C212.736 182.889 213.769 182.685 215.318 183.602C219.346 185.64 221.618 190.735 221.205 196.543C220.895 196.441 220.585 196.543 220.275 196.645Z" fill="#F8F5ED"/>
<path d="M137.518 197.359C138.265 200.378 139.105 203.203 136.958 205.832C135.932 207.098 134.811 206.904 134.345 205.248C133.504 202.911 134.998 199.112 137.518 197.359Z" fill="#F8F5ED"/>
<path d="M24.4777 173.762V184.488C22.1466 180.504 23.5178 177.133 23.1064 173.864C23.5178 173.762 23.9292 173.762 24.4777 173.762Z" fill="#F8F5ED"/>
<path d="M63.8265 28.3156C62.1459 32.2645 60.4653 36.2133 58.7847 40.0555C60.3603 40.269 61.5157 40.269 62.6711 40.5891C65.6121 41.2295 70.864 39.6286 72.0194 37.6008C72.9647 39.9488 71.0741 41.8699 68.3431 41.7631C67.3978 41.7631 66.4524 42.19 65.5071 42.19C63.0912 42.0833 60.5703 41.7631 58.1545 41.3362C57.8394 41.2295 57.4192 40.0555 57.5242 39.4151C57.7343 38.2411 58.2595 37.0672 58.7847 35.8932C60.0451 33.225 61.4106 30.5568 62.6711 27.8887C63.0912 27.9954 63.5114 28.1021 63.8265 28.3156Z" fill="black"/>
<path d="M71.5631 22.1163C72.5325 21.3505 73.4049 20.3933 74.5681 19.9147C77.573 18.7661 80.481 19.2447 82.8074 21.3505C79.027 21.9248 75.6343 22.4034 72.2417 22.882C71.9509 22.5949 71.757 22.4034 71.5631 22.1163Z" fill="black"/>
<path d="M49.7773 22.9747C51.7604 19.7399 56.6659 18.3247 59.5883 20.0432C60.0057 20.2453 60.3189 20.8519 60.3189 21.2562C60.3189 21.5595 59.797 22.0649 59.4839 22.166C56.5615 22.6714 53.6391 23.1769 50.6123 23.5812C50.4036 23.6823 49.9861 23.278 49.7773 22.9747Z" fill="black"/>
<path d="M58.9133 48.3401C63.9648 50.2927 68.7191 49.7348 73.6715 46.4805C71.3934 51.3155 62.5781 52.2453 58.9133 48.3401Z" fill="black"/>
<path d="M205.089 206.752C204.246 207.464 203.684 208.177 203.309 208.075C202.84 207.973 202.278 207.057 202.278 206.548C202.278 206.039 202.934 205.326 203.402 205.225C203.871 205.225 204.339 206.039 205.089 206.752Z" fill="black"/>
<path d="M190.331 178.053H200.872C199.689 180.761 193.343 181.061 190.331 178.053Z" fill="black"/>
<path d="M182.6 162.911C183.85 162.281 184.995 161.23 186.244 161.02C188.014 160.81 190.097 160.495 191.034 163.331C189.68 163.016 188.327 162.386 187.077 162.491C185.828 162.596 184.475 163.331 183.225 163.751C183.017 163.541 182.809 163.226 182.6 162.911Z" fill="black"/>
<path d="M207.9 164.466C205.354 164.223 203.215 163.98 200.872 163.737C201.585 161.793 203.011 161.429 204.641 161.672C206.271 162.036 207.595 162.279 207.9 164.466Z" fill="black"/>
<path d="M193.142 174.478C193.589 173.385 193.589 172.094 194.26 171.697C195.155 171.101 196.608 171.101 197.838 170.902C197.95 171.101 197.95 171.399 198.061 171.598C196.72 172.491 195.378 173.286 193.142 174.478Z" fill="black"/>
<path d="M18.1528 318.324C18.8777 318.106 19.292 317.779 19.4991 317.997C23.5382 321.267 27.163 318.324 30.7878 317.016C33.0663 316.144 35.2411 314.618 37.8303 313.201C36.7946 316.253 28.7165 320.722 24.1596 321.049C21.8811 321.158 19.8098 320.831 18.1528 318.324Z" fill="black"/>
<path d="M119.351 327.459C118.528 328.094 117.807 328.94 116.984 329.152C113.793 329.998 110.705 329.892 107.926 327.777C104.529 325.132 101.03 322.699 99.2799 318.468C99.1769 318.151 99.074 317.727 98.9711 317.41C98.9711 317.304 99.1769 317.093 99.2799 316.775C104.632 322.699 108.955 330.633 119.043 326.613C119.248 327.036 119.351 327.248 119.351 327.459Z" fill="black"/>
<path d="M233.903 254.564L235.308 257.425" stroke="black" stroke-width="0.5" stroke-miterlimit="10"/>
<path d="M231.794 254.564L233.903 257.425" stroke="black" stroke-width="0.5" stroke-miterlimit="10"/>
<path d="M55.3907 29.0642C55.3907 30.0059 54.5681 30.843 53.5397 30.7384C52.6142 30.7384 51.7915 29.9013 51.8943 28.8549C51.8943 27.9132 52.717 27.0761 53.7454 27.1807C54.6709 27.2854 55.4936 28.1225 55.3907 29.0642Z" fill="black"/>
<path d="M79.9964 28.9596C79.9964 29.906 79.1696 30.7472 78.2394 30.7472C77.3093 30.7472 76.4825 29.906 76.4825 28.9596C76.4825 28.0131 77.3093 27.1719 78.2394 27.1719C79.1696 27.1719 79.9964 28.0131 79.9964 28.9596Z" fill="black"/>
<path d="M190.322 167.789C190.322 168.73 189.5 169.568 188.471 169.463C187.546 169.463 186.723 168.626 186.826 167.58C186.826 166.638 187.649 165.801 188.677 165.905C189.602 166.01 190.425 166.847 190.322 167.789Z" fill="black"/>
<path d="M205.792 167.684C205.792 168.631 204.965 169.472 204.035 169.472C203.105 169.472 202.278 168.631 202.278 167.684C202.278 166.738 203.105 165.896 204.035 165.896C204.965 166.002 205.792 166.738 205.792 167.684Z" fill="black"/>
</svg>
