<svg width="184" height="361" viewBox="0 0 184 361" fill="none" xmlns="http://www.w3.org/2000/svg">
<path d="M156.813 180.264C157.506 179.917 158.546 179.34 160.163 178.416C158.315 175.759 156.467 173.102 154.503 170.33C155.658 169.637 156.582 168.944 157.737 168.135C156.813 166.287 157.506 164.901 159.586 164.786C161.781 164.67 164.206 164.67 166.17 165.363C170.676 166.865 174.488 169.06 176.452 174.026C177.953 177.723 180.726 180.957 182.459 184.537C183.152 185.808 183.267 188.003 182.69 189.273C181.188 192.276 178.531 194.356 175.181 195.049C171.831 195.742 169.751 194.24 168.365 191.006C167.672 189.389 166.401 188.003 165.246 186.501C162.243 188.465 159.239 190.428 156.236 192.392C156.12 192.507 155.889 192.623 155.889 192.738C155.196 196.55 151.499 196.204 149.189 197.705C148.034 198.398 146.763 199.207 145.377 199.669C142.258 200.708 139.254 201.632 136.019 202.557C133.247 203.25 132.554 200.824 131.514 199.091C130.705 197.705 130.59 196.319 132.323 195.28C134.171 194.125 136.019 192.854 137.637 191.814C137.406 189.966 137.29 188.234 136.944 186.732C136.713 185.808 136.366 184.884 135.788 184.191C132.785 181.188 129.781 178.3 126.547 175.528C120.771 170.446 116.728 164.324 114.302 157.047C113.377 154.506 111.298 152.311 109.45 150.001C108.41 148.73 107.948 146.651 105.522 147.113C105.06 147.229 104.367 146.305 103.443 145.612C102.634 150.925 100.093 156.007 102.634 161.321C103.558 163.169 104.944 164.786 106.215 166.518C109.334 170.677 112.8 174.719 115.688 179.109C118.691 183.729 120.309 188.927 120.309 194.587C120.309 202.672 120.424 210.873 120.193 218.958C119.731 232.935 117.421 246.796 114.417 260.425C112.453 269.55 110.836 278.675 109.103 287.801C108.41 291.381 107.486 294.846 107.139 298.427C106.793 301.084 105.406 302.354 103.096 302.932C100.786 303.509 100.208 304.78 101.132 306.975C101.479 307.783 101.363 308.823 101.248 309.747C100.901 312.865 99.8615 316.215 100.439 319.103C101.017 321.759 103.327 324.185 105.06 326.495C106.677 328.69 108.872 330.538 110.374 332.733C115.688 340.125 113.031 349.943 102.981 351.214C96.6269 352.022 90.7354 350.29 85.768 346.478C81.3782 343.013 77.566 338.854 73.6383 335.158C74.909 338.161 76.2952 341.511 78.0281 344.745C79.4143 347.402 79.7609 349.943 79.5298 352.831C79.2988 356.758 76.9884 358.606 73.5228 359.761C65.8984 362.302 59.7758 360.454 54.6929 354.217C51.5738 350.405 48.3393 346.709 45.4512 342.782C44.1805 341.049 43.2564 338.739 43.0253 336.544C42.2167 329.96 41.7546 323.377 41.408 316.793C41.2925 315.638 42.2167 314.367 42.4477 313.096C42.6787 311.941 42.4477 310.786 42.4477 309.747C37.1338 308.245 37.2493 308.13 36.5561 303.163C35.4009 295.077 34.0147 286.992 32.6284 279.022C29.856 262.274 24.311 246.218 19.9212 229.932C17.8418 222.193 15.6469 214.454 13.683 206.599C11.7192 198.629 13.221 191.121 16.6866 183.844C16.8021 183.613 16.8021 183.382 16.9176 183.267C13.1054 179.686 9.17774 176.452 5.82765 172.64C-0.0639091 165.941 -1.33464 158.202 1.32234 149.654C2.70859 145.265 3.63275 140.645 4.90348 136.14C4.90348 136.025 5.019 135.909 5.019 135.909C3.05514 129.21 8.02253 124.589 10.1019 119.161C12.1813 113.501 15.4159 108.187 20.0367 104.029C26.0438 98.6004 33.3216 95.8282 40.9459 93.7491C44.7581 92.7096 48.6858 91.901 52.3825 90.7459C56.6567 89.3599 57.5809 87.7428 56.6567 83.3535C54.3463 84.162 52.498 83.5845 50.7652 81.8519C49.9565 81.0434 48.8013 80.6969 47.7616 80.2348C47.5306 80.1193 47.184 80.2348 46.953 80.1193C43.2563 78.0402 39.5597 75.8456 35.863 73.6509C34.7078 72.9579 33.7836 72.1493 32.744 71.3408C32.2819 70.9943 31.5888 70.6478 31.3577 70.1857C29.8559 66.7205 27.199 64.1794 25.8127 60.4832C24.3109 56.5559 23.7333 52.3977 22.6937 48.4705C22.0005 45.9293 22.2316 43.1571 22.5781 40.5005C23.1557 36.3422 24.311 32.184 25.1196 28.0258C25.2351 27.6792 25.1196 27.2172 25.3506 26.9862C28.0076 23.752 28.1231 19.1317 32.0508 16.5906C34.9389 14.627 37.2493 11.7393 39.9062 9.42916C40.4838 8.85163 41.408 8.62062 42.2167 8.2741C43.7184 7.58106 45.1047 6.88802 46.6064 6.07947C46.953 5.84846 47.2996 5.50193 47.7616 5.38643C51.2273 4.34687 54.6929 3.30731 58.1585 2.26775C58.6206 2.15224 59.0827 2.15224 59.4292 1.92122C62.8949 -0.504418 67.0536 -0.157897 70.6347 0.419637C74.678 0.997171 79.0678 0.188624 82.7644 2.96079C83.5731 3.53832 84.9593 3.30731 86.1145 3.65383C89.3491 4.80889 93.1613 5.38643 95.7027 7.46555C98.8218 10.1222 102.865 11.7393 104.713 16.2441C106.331 20.2868 109.45 23.752 111.876 27.4482C112.107 27.9103 112.338 28.3723 112.453 28.8343C113.031 31.6065 112.684 34.6096 114.879 36.9198C115.341 37.3818 114.995 38.6524 115.11 39.4609C115.341 41.1935 115.572 42.8106 115.803 44.5432C115.919 45.4673 116.381 46.5068 116.15 47.3154C114.995 50.6651 114.995 53.8993 115.688 57.249C115.919 58.5195 115.11 59.9056 114.879 61.2917C114.879 61.4072 114.764 61.4072 114.764 61.5227C114.764 68.4531 108.872 71.8028 105.291 76.5386C104.367 77.6937 102.634 78.3867 101.132 79.0798C98.3597 80.2348 95.4717 81.2744 92.5837 82.4295C92.4682 82.545 92.2371 82.6605 92.1216 82.545C87.5008 81.1589 85.4214 85.4326 82.1868 87.0497C81.6092 87.2807 81.6092 88.6668 81.3782 89.4754C92.8147 91.208 103.443 93.8646 113.146 99.7555C120.193 104.145 124.467 110.613 128.28 117.659C129.897 120.662 131.745 123.434 133.362 126.438C133.594 127.015 133.825 128.055 133.478 128.286C131.976 129.556 132.669 130.711 133.016 132.213C133.709 134.985 133.825 137.988 134.402 140.76C134.633 142.031 135.095 143.533 136.019 144.341C140.987 149.077 143.99 155.083 146.07 161.552C147.572 166.172 148.958 170.792 150.575 175.297C150.922 176.221 151.961 176.914 152.885 177.607C153.694 178.416 155.196 179.224 156.813 180.264ZM46.722 203.365C46.8375 203.365 46.953 203.365 47.0685 203.365C47.2996 201.632 47.6461 199.9 47.6461 198.167C47.5306 190.197 44.4115 183.382 39.3286 177.376C37.4803 175.181 35.632 172.871 33.7837 170.561C29.9715 165.941 26.1593 161.321 22.2316 156.7C20.9609 155.199 19.3436 153.928 17.8418 152.542C17.9573 152.311 18.1884 152.08 18.3039 151.849C19.5746 152.542 20.8453 153.235 22.5781 154.159C24.3109 151.503 26.1593 148.846 27.7766 146.074C28.5852 144.803 27.8921 144.457 26.3903 144.226C23.3868 143.764 20.3833 143.302 17.6108 142.146C13.5675 140.529 9.87087 138.335 5.71213 136.14C4.4414 141.338 3.17067 146.651 2.01546 151.849C0.39817 159.472 2.01547 166.056 7.44494 171.947C13.452 178.3 20.2677 183.382 27.3145 188.234C32.6284 191.814 35.9785 196.319 36.2096 203.019C36.2096 204.52 36.9027 206.022 37.1337 207.523C37.4803 207.523 37.8269 207.408 38.1734 207.408L37.2493 194.587C37.4803 194.587 37.7114 194.471 37.8269 194.471C38.4045 196.55 39.0976 198.629 39.4442 200.708C39.6752 202.672 39.7907 204.751 39.4442 206.83C39.3286 207.754 38.0579 208.447 37.2493 209.371C36.5562 208.563 35.7475 207.87 35.4009 206.946C34.9389 205.791 35.0544 204.52 34.8233 203.365C34.2457 200.708 33.6681 198.052 32.975 195.395C32.744 195.395 32.5129 195.511 32.2819 195.511C31.4732 201.748 30.2025 207.754 26.2748 212.837C24.8886 214.569 26.1593 217.803 28.4697 219.074C24.8886 219.998 27.6611 220.691 28.0076 221.615C27.6611 222.77 27.43 224.041 27.6611 225.196C29.7404 234.783 32.2819 244.254 34.1302 253.957C36.2096 264.815 37.8269 275.788 39.4442 286.761C39.7907 289.302 39.4442 291.959 39.4442 294.615C38.4045 290.342 38.1734 286.068 37.4803 281.91C35.863 271.514 34.2457 261.118 32.2819 250.723C30.6646 242.406 28.4697 234.09 26.5058 225.889C26.1593 224.272 25.3506 222.886 24.773 221.384C24.542 221.384 24.1954 221.5 23.9644 221.5C24.542 221.269 25.1196 220.922 25.9282 220.576C25.1196 219.883 24.542 219.421 23.8489 218.843C24.0799 218.843 24.311 218.843 24.542 218.843C24.6575 218.15 24.8886 217.341 24.773 216.764C23.2713 207.87 23.3868 198.976 23.9644 190.082C23.9644 189.273 23.6178 188.118 23.0402 187.656C21.4229 186.27 19.6901 184.999 17.8418 183.613C14.1451 190.544 12.7589 197.821 14.3762 205.098C17.0332 216.648 20.4988 227.968 23.6178 239.403C25.9282 247.835 28.4697 256.267 30.6646 264.699C32.0508 270.012 32.975 275.441 34.0147 280.87C35.4009 288.609 36.7872 296.464 37.8269 304.318C38.1734 306.628 38.6355 307.783 40.9459 308.361C50.9962 310.902 60.7 309.516 70.2882 306.744C72.8296 306.051 74.909 304.318 75.3711 301.661C76.1797 297.388 77.1039 293.114 77.2194 288.84C77.797 272.785 78.1436 256.729 78.2591 240.558C78.3746 230.394 78.0281 220.229 77.797 210.064C77.797 209.371 77.9126 208.678 77.9126 207.87C78.1436 207.87 78.2591 207.87 78.4902 207.87C78.9522 210.873 79.2988 213.761 79.8764 217.341C82.5334 215.262 84.6127 213.53 86.8076 211.797C87.0387 212.028 87.1542 212.259 87.3852 212.49C85.3059 214.223 83.2265 215.84 81.2626 217.688C80.5695 218.381 79.9919 219.536 79.8764 220.46C79.7609 224.156 79.8764 227.852 79.7609 231.549C79.5298 242.753 79.2988 254.073 79.0678 265.277C78.9522 270.475 78.7212 275.672 78.4902 280.87C78.0281 288.263 77.566 295.77 76.9884 303.509C78.4902 303.74 80.3385 303.971 82.3023 304.202C89.1181 305.011 95.5872 303.163 102.172 301.892C103.789 301.546 105.638 300.968 105.984 298.774C106.793 294.038 107.717 289.302 108.641 284.566C111.067 271.861 113.608 259.039 116.034 246.334C116.843 241.713 117.883 237.209 118.114 232.473C118.691 221.5 118.922 210.411 119.384 199.322C119.731 190.313 117.536 182.227 111.876 175.181C108.41 170.908 104.944 166.634 101.479 162.245C90.9664 169.406 79.1833 171.716 66.8226 172.409C66.5915 176.914 66.476 181.303 66.0139 185.462C65.6674 188.234 65.3208 191.237 63.9345 193.547C60.7 199.207 55.2705 201.286 48.9169 200.593C47.5306 206.946 44.4116 210.064 39.4442 209.371C43.8339 205.444 40.3683 200.362 41.2925 195.973H42.4477C42.7943 199.9 43.0253 203.712 43.3719 207.639C44.1805 205.444 44.7581 203.134 44.8736 200.824C44.9892 198.514 44.6426 196.088 44.4116 193.662C44.7581 193.662 45.1047 193.662 45.4512 193.547C46.0288 196.897 46.3754 200.131 46.722 203.365ZM107.717 139.952C114.995 134.754 122.272 129.556 129.435 124.358C121.579 101.373 104.713 94.3267 82.6489 91.0925C80.3385 97.0988 73.5228 101.257 66.9381 100.449C59.4292 99.5245 55.386 95.4817 55.0395 91.0925C49.841 92.4785 44.5271 93.9801 39.2131 95.2507C22.4626 99.409 13.1054 110.844 8.13806 126.553C7.90702 127.477 8.25357 129.21 9.06222 129.787C15.7624 134.523 23.0402 137.988 31.3577 139.259C32.8595 136.256 34.2457 133.252 35.7475 130.365L36.3251 130.596C35.9785 131.866 35.9785 133.368 35.1699 134.408C32.0508 138.566 32.5129 142.724 34.4768 147.113C34.5923 147.46 34.5923 147.806 34.7078 148.153C35.1699 150.116 35.1699 152.889 36.4406 153.697C37.8269 154.621 40.4838 153.928 42.5632 153.697C51.1117 152.542 59.6603 151.271 68.2088 150.116C74.678 149.308 81.1471 148.153 87.6163 149.539C92.0061 150.463 96.5114 151.387 101.132 152.311C101.71 149.308 102.287 146.189 102.981 143.071C102.403 142.84 101.941 142.608 100.786 142.031C106.908 139.605 108.872 134.639 109.219 129.21C109.681 123.665 107.601 118.814 103.674 114.771C106.331 115.464 107.717 117.544 108.757 119.738C112.107 126.553 111.183 133.252 107.717 139.952ZM56.4257 60.4832C56.4257 60.5987 56.6567 59.9056 56.7723 59.2126C58.7361 51.5891 63.2414 46.1603 70.7503 43.5037C77.4505 41.1935 83.4575 42.2331 88.3094 47.6619C94.0854 54.2458 94.663 62.3313 93.6234 70.4167C93.1613 73.9975 91.1974 77.3472 89.6957 81.2744C91.4285 80.6969 93.1613 80.2348 94.8941 79.6573C96.3959 79.0798 98.0131 78.5022 99.3994 77.8092C101.017 76.8851 102.634 75.8456 104.136 74.6905C105.984 73.1889 107.832 71.4563 109.45 69.7237C110.258 68.7997 110.951 67.6446 111.414 66.4895C111.991 64.9879 111.876 63.2553 112.569 61.9847C113.955 59.3281 114.186 56.9025 113.262 54.0148C112.8 52.6287 113.262 50.7806 113.724 49.279C114.533 47.1999 114.879 45.3518 113.608 43.3882C113.031 42.5796 113.262 41.1935 113.146 40.154C113.031 39.2299 113.377 38.0748 112.915 37.2663C111.645 34.8407 110.605 32.415 110.836 29.5273C110.836 28.7188 109.796 28.0258 109.334 27.1017C108.41 25.3691 107.717 23.521 106.677 21.9039C104.598 18.6697 102.518 15.551 100.324 12.4323C100.208 12.2013 99.6304 12.2013 99.3994 11.9703C98.7063 11.5083 97.6666 11.1618 97.2045 10.5842C94.663 6.07947 89.2336 7.46555 85.768 4.69339C84.2662 3.42281 81.8402 3.1918 79.8764 2.49876C79.1833 2.26774 78.4902 1.92123 77.9126 2.03673C75.7177 2.61427 73.8693 2.38325 72.021 1.11268C71.6744 0.881667 70.9813 0.997171 70.5192 0.997171C68.7864 0.997171 67.0536 0.881664 65.4363 0.997171C64.2811 1.11268 63.0104 1.22818 61.8552 1.5747C60.3534 1.92122 58.9672 2.49876 57.5809 3.07629C53.8842 4.57788 50.0721 6.07947 46.3754 7.58106C45.2202 8.04309 44.1805 8.50511 43.1408 9.08265C42.1011 9.66018 40.9459 10.1222 40.0218 10.8152C38.8666 11.6238 37.8269 12.6634 36.7872 13.5874C34.4768 15.6665 32.2819 17.7457 30.087 19.8248C29.7404 20.1713 29.6249 20.9798 29.3939 21.4419C28.9318 22.5969 28.4697 23.6365 28.0076 24.7916C26.7369 28.1413 25.3506 31.491 24.0799 34.9562C23.9644 35.3027 24.1954 35.7647 24.1954 36.2267C24.1954 37.3818 24.1954 38.6524 24.0799 39.8074C23.9644 41.309 23.3868 42.8106 23.5023 44.1967C23.7333 46.5068 25.1196 48.9325 24.8885 51.1271C24.6575 55.1698 27.0835 58.173 27.6611 61.8692C27.7766 62.5623 28.1231 63.1398 28.5852 63.7174C31.0112 66.605 32.3974 70.4167 36.3251 71.9183C36.6717 72.0338 36.9027 72.8424 37.2493 73.1889C37.8269 73.7664 38.52 74.575 39.2131 74.806C41.8701 75.268 44.1805 76.1921 45.9133 78.3867C46.1444 78.7332 46.8375 78.7332 47.2996 78.9642C48.9169 79.7728 50.6497 80.3503 52.0359 81.3899C53.4222 82.545 54.6929 82.8915 56.5412 81.6209C56.1947 79.1953 56.7723 75.6146 55.2705 74.4595C52.1514 72.0338 51.5738 68.9152 50.7652 65.681C50.4186 64.2949 50.8807 62.1003 51.8049 60.9452C52.498 60.1366 54.5774 60.5987 56.4257 60.4832ZM64.2811 84.2776C64.3966 84.0465 64.3966 83.8155 64.5121 83.5845C65.2053 83.8155 65.7829 84.1621 66.476 84.3931C69.7106 85.8947 72.8296 87.0497 76.6418 86.2412C84.2662 84.7396 89.0025 80.2348 91.3129 73.1889C93.2768 67.4136 92.8147 61.5227 90.9664 55.5164C88.887 48.586 82.0713 42.9261 74.5624 44.0812C66.5915 45.2363 57.6964 53.7838 57.8119 62.1003C57.8119 62.7933 57.1188 63.4863 56.7723 64.1794C56.1947 63.7174 55.7326 63.2553 55.155 62.9088C54.4619 62.4468 53.7687 62.2158 52.9601 61.8692C52.729 62.5623 52.1514 63.2553 52.267 63.8329C52.8446 66.2585 53.5377 68.6841 54.3463 70.9943C54.4618 71.4563 55.386 71.5718 55.8481 71.9183C56.4257 72.3804 57.2343 72.9579 57.3499 73.5354C57.812 77.8092 58.1585 81.9674 58.5051 86.2412C58.5051 86.8187 58.274 87.6273 57.9275 88.2048C55.7326 91.5545 57.6964 95.1352 60.2379 96.6368C64.7432 99.2934 69.4795 99.409 74.3314 97.5608C76.7573 96.6368 79.1833 95.5972 79.9919 93.0561C80.5695 91.439 80.1074 89.5909 80.1074 87.6273C73.8693 88.5513 68.4398 88.6668 64.2811 84.2776ZM149.882 182.805C150.113 182.574 150.344 182.458 150.575 182.227C151.615 183.498 153.348 184.768 153.694 186.27C154.041 187.772 153.117 189.735 152.654 192.276C154.734 190.313 156.351 188.927 157.737 187.425C157.968 187.194 157.968 186.27 157.737 185.924C156.005 183.267 155.311 179.686 151.615 178.647C150.575 178.3 149.304 177.492 148.958 176.452C147.803 173.449 146.878 170.215 145.954 167.096C143.413 158.664 140.409 150.463 133.594 144.226C133.016 143.648 132.554 142.839 132.438 142.031C131.976 138.566 131.745 134.985 131.283 130.596C123.543 136.256 116.381 141.453 108.872 146.882C113.146 151.04 115.803 156.007 117.883 161.436C120.424 168.482 126.316 173.102 131.745 177.954C135.095 180.957 139.947 183.267 138.792 189.158C138.676 189.62 139.254 190.197 139.601 190.775C143.413 188.58 146.994 186.386 150.691 184.191C150.46 183.844 150.113 183.267 149.882 182.805ZM42.9098 315.176C43.1408 319.68 43.2563 324.301 43.834 328.805C44.1805 331.578 44.6426 334.465 45.7978 336.775C48.8013 342.897 53.7687 347.749 58.7361 352.253C63.819 356.874 69.8261 357.682 75.2556 354.91C77.797 353.639 79.1833 350.752 78.2591 348.326C77.2194 345.438 76.0642 342.666 74.7935 339.894C72.021 333.888 69.0175 327.997 70.2882 321.066C70.6347 319.218 70.6348 317.255 70.7503 315.869H50.5342V327.188C49.841 326.495 49.61 326.38 49.61 326.264C49.4945 324.878 49.4945 323.492 49.4945 321.991C49.4945 315.753 49.4945 315.753 43.6029 314.829C43.3719 314.945 43.3719 314.945 42.9098 315.176ZM74.3314 309.747C74.3314 316.1 74.2159 321.875 74.4469 327.65C74.5625 329.267 75.2556 331.231 76.4108 332.271C80.685 336.082 85.3059 339.432 89.6957 343.013C94.3165 346.94 99.3994 347.749 105.291 346.131C110.836 344.514 113.031 341.049 111.067 335.736C110.72 334.696 110.027 333.772 109.219 332.964C106.793 330.191 104.251 327.419 101.825 324.647C99.8615 322.453 98.8218 319.911 99.1684 317.024C99.5149 314.136 99.8615 311.248 100.208 308.13C99.0528 308.823 98.0132 309.631 96.9735 309.862C92.9302 310.671 88.7715 311.479 84.6128 311.826C82.1868 312.057 81.0316 312.403 81.2626 315.06C81.4937 317.486 81.2626 319.911 81.2626 322.337C81.0316 322.337 80.685 322.337 80.454 322.337C79.1833 318.872 80.8006 315.176 80.1074 311.595C78.4902 311.133 76.8729 310.555 74.3314 309.747ZM67.4002 171.023C76.0642 170.099 84.6127 169.637 92.5837 165.594C89.5801 164.555 87.3852 162.707 87.6163 159.472C87.8473 156.816 88.887 154.275 89.5801 151.503C83.8041 150.232 77.2194 150.232 70.6347 151.271C63.4725 152.311 56.3102 153.235 49.2634 154.275C44.8736 154.852 40.4839 155.43 36.0941 156.007C35.9785 157.624 35.7475 159.01 35.632 160.166C38.52 159.935 41.2925 159.704 44.065 159.588C50.5341 159.241 57.1188 158.895 63.588 158.664C66.476 158.548 67.2847 159.819 67.2847 162.822C67.4002 165.479 67.4002 168.135 67.4002 171.023ZM181.419 186.848C180.61 184.768 180.033 182.805 178.993 181.072C177.029 177.492 175.412 173.333 172.524 170.561C169.983 168.135 166.055 167.211 162.705 166.056C161.665 165.71 160.279 166.403 159.008 166.634C159.008 166.98 159.008 167.211 158.893 167.558C162.358 170.33 168.019 169.291 170.445 174.026C166.055 171.601 161.55 169.984 156.351 170.561C160.279 173.218 160.972 178.069 164.553 181.188C167.672 183.844 168.943 188.58 171.022 192.392C172.755 191.237 174.372 189.966 176.105 189.042C177.722 188.003 179.686 187.541 181.419 186.848ZM43.3719 169.522C45.1047 169.06 46.722 168.135 47.4151 168.598C48.4548 169.291 48.8013 171.023 49.61 172.525C53.0756 172.987 64.2811 164.786 64.6277 159.819C55.8481 160.166 47.184 160.512 38.1734 160.974C40.2528 164.208 41.8701 167.096 43.3719 169.522ZM50.4186 180.379C50.4186 184.884 50.3031 188.811 50.5342 192.854C50.5342 193.662 52.0359 195.049 52.498 194.933C54.6929 194.356 57.2343 193.894 58.9672 192.507C63.1259 189.273 62.4328 184.422 62.7793 179.571C58.6206 181.303 54.8084 182.805 50.4186 180.379ZM31.7043 141.915C28.7007 146.998 26.1593 151.271 23.5023 155.661C26.0438 158.664 28.7007 161.783 31.5888 165.132C37.3648 157.509 33.6681 150.116 31.7043 141.915ZM70.1727 308.361C61.3931 309.747 53.0756 312.403 44.5271 309.862C43.7184 313.328 44.065 313.905 47.2996 314.136C53.1911 314.483 58.9672 314.945 64.8587 315.06C66.3605 315.06 68.5554 314.714 69.2485 313.674C70.1727 312.403 69.9416 310.209 70.1727 308.361ZM61.1621 176.683C64.0501 177.145 64.5121 178.762 64.1656 180.957C63.9345 182.574 63.819 184.075 63.7035 185.693C63.0104 192.969 58.274 196.897 50.9962 196.088C49.2634 195.857 49.1479 196.666 49.1479 197.705C49.1479 198.283 49.9565 199.207 50.4186 199.322C52.0359 199.438 53.5377 199.207 55.155 198.976C59.1982 198.167 63.819 193.778 64.1656 189.851C64.8587 183.151 65.3208 176.452 65.7829 169.753C65.8984 167.327 65.7829 165.017 65.7829 162.36C63.1259 165.248 60.931 167.673 58.5051 170.215C61.7397 171.254 62.4328 173.449 61.1621 176.683ZM132.669 127.939C131.283 125.398 129.897 125.398 128.28 126.553C125.854 128.401 123.428 130.018 121.002 131.751C116.15 135.332 111.183 138.912 106.446 142.608C105.869 143.071 105.869 144.341 105.522 145.265C106.446 145.265 107.601 145.612 108.294 145.15C116.381 139.605 124.467 133.83 132.669 127.939ZM101.132 161.321C100.901 159.472 100.324 158.086 100.67 156.931C101.479 154.275 99.977 153.697 98.0131 153.235C97.32 153.12 96.6269 152.889 96.0493 152.658C94.201 151.965 92.3526 151.849 90.9664 153.466C89.3491 155.314 88.0784 157.278 89.0025 159.935C90.0422 162.822 90.8509 164.555 94.432 163.862C96.8579 163.284 99.0528 162.129 101.132 161.321ZM30.7801 140.645C21.654 138.912 13.7986 134.754 6.63629 129.441C4.90348 132.213 4.90348 133.483 7.09837 134.985C13.1054 139.259 19.5746 142.262 26.9679 142.955C28.5852 143.186 30.318 142.955 30.7801 140.645ZM76.8729 304.549C76.8729 308.707 77.4505 309.747 80.9161 310.093C86.3456 310.671 91.775 310.324 96.8579 308.13C98.7063 307.321 99.8615 306.282 99.6304 303.74C92.1216 305.358 84.7283 306.628 76.8729 304.549ZM25.2351 211.22C25.4662 211.335 25.8127 211.335 26.0438 211.451C29.3939 206.137 31.0111 200.246 31.2422 194.009C31.2422 193.431 30.7801 192.623 30.318 192.276C28.8163 191.121 27.199 190.197 25.2351 188.811V211.22ZM137.059 200.593C137.752 198.167 137.752 196.088 138.792 194.933C140.525 193.085 142.835 191.699 145.146 190.428C146.878 189.504 148.958 188.927 150.806 188.234C151.384 188.003 152.077 188.003 152.308 187.541C152.539 187.079 152.423 186.039 152.192 185.808C151.73 185.577 150.806 185.577 150.344 185.924C148.958 186.617 147.803 187.541 146.532 188.234C141.795 191.121 136.944 194.009 132.207 196.897C134.171 201.748 135.095 202.21 137.059 200.593ZM75.9487 305.704C75.7177 305.589 75.3711 305.358 75.14 305.242C71.6744 307.321 70.4037 309.747 71.0968 312.75C71.4434 314.367 71.6744 315.984 71.6744 317.717C71.5589 322.799 69.9416 328.112 73.1762 332.848C73.1762 332.617 73.2917 332.271 73.2917 331.924C73.2917 325.109 73.2917 318.294 73.4072 311.364C73.4072 310.324 73.8693 309.169 74.2159 308.245C74.678 307.321 75.3711 306.513 75.9487 305.704ZM157.275 181.765C159.124 184.075 160.394 186.27 158.546 189.042C158.893 189.042 159.008 189.042 159.124 188.927C160.394 188.003 161.781 187.194 163.051 186.27C165.362 184.653 165.246 182.92 162.936 181.188C160.972 179.802 159.239 180.033 157.275 181.765ZM48.9169 191.468V179.109C47.0685 179.455 45.3357 179.802 43.834 180.148C45.4512 183.96 47.184 187.772 48.9169 191.468ZM54.6929 180.148C56.7723 180.264 58.8516 180.957 58.6206 177.723C58.6206 177.145 59.4292 176.452 59.8913 175.874C61.2776 173.795 60.8155 172.64 59.0827 172.063C58.7361 173.333 58.5051 174.604 57.9275 175.643C57.6964 175.99 56.0791 176.105 55.8481 175.759C55.155 174.719 54.6929 173.449 54.1153 172.063C49.841 175.066 55.8481 177.261 54.6929 180.148ZM40.8304 168.251C39.6752 166.056 38.6355 164.093 37.5958 162.245C37.3648 162.36 37.1338 162.476 36.9027 162.476C36.7872 167.211 35.863 172.063 40.3683 175.874C40.8304 175.528 41.2925 175.181 41.8701 174.719C37.8269 172.409 38.0579 169.868 40.8304 168.251ZM45.4512 179.224C46.1444 175.528 46.722 172.64 47.2996 169.753C45.6823 170.33 44.6426 171.023 43.6029 171.023C42.5632 171.023 41.6391 170.33 40.5994 169.984C40.3683 170.215 40.2528 170.446 40.0218 170.677C40.4838 171.37 40.7149 172.525 41.408 172.756C43.3719 173.564 44.296 174.835 44.1805 177.03C44.1805 177.607 44.8736 178.3 45.4512 179.224ZM181.188 189.042C181.073 188.811 180.957 188.58 180.841 188.349C177.953 189.851 175.065 191.352 171.6 193.085C175.181 194.356 178.878 192.507 181.188 189.042ZM149.651 190.082C149.535 190.197 148.38 191.006 148.496 191.468C148.958 192.738 149.651 194.125 150.691 194.933C151.268 195.395 152.654 194.818 153.579 194.702C153.463 194.24 153.579 193.547 153.232 193.2C152.423 192.276 151.268 191.352 149.651 190.082ZM146.416 197.936C145.146 196.319 143.99 194.933 142.258 192.969C142.258 194.587 141.68 195.973 142.258 196.781C143.182 198.167 144.684 198.976 146.416 197.936ZM146.301 191.237C146.07 191.237 145.723 191.237 145.492 191.121C145.492 192.161 144.915 193.662 145.377 194.356C146.185 195.511 147.572 196.088 148.842 197.012C148.958 196.781 149.073 196.666 149.189 196.435C148.265 194.702 147.34 192.969 146.301 191.237ZM33.6681 164.324C31.8198 166.403 31.9353 166.98 35.632 169.868C35.1699 167.904 36.9027 165.363 33.6681 164.324ZM139.832 196.088L139.254 196.204C139.37 197.243 139.139 198.629 139.716 199.322C140.409 200.015 141.795 200.015 143.528 200.593C141.911 198.514 140.871 197.359 139.832 196.088ZM50.8807 176.798C51.1117 176.798 51.3428 176.798 51.5738 176.798C51.3428 175.874 51.1117 174.835 50.8807 173.911C49.4945 173.795 48.3393 173.68 46.722 173.564C48.5703 174.95 49.7255 175.874 50.8807 176.798Z" fill="black"/>
<path d="M46.7223 203.366C46.3757 200.131 46.0292 196.897 45.5671 193.547C45.2205 193.547 44.8739 193.548 44.5274 193.663C44.6429 196.089 45.105 198.399 44.9895 200.824C44.874 203.135 44.2963 205.445 43.4877 207.639C43.1411 203.712 42.9101 199.9 42.5635 195.973H41.4083C40.4842 200.362 43.9498 205.445 39.56 209.372C44.4119 210.065 47.6465 206.831 49.0327 200.593C55.5019 201.286 60.8158 199.207 64.0504 193.547C65.4366 191.237 65.7832 188.234 66.1298 185.462C66.5918 181.188 66.7074 176.915 66.9384 172.41C79.1836 171.832 91.0822 169.407 101.595 162.245C105.06 166.634 108.641 170.793 111.991 175.182C117.652 182.228 119.847 190.429 119.5 199.323C119.038 210.411 118.923 221.385 118.23 232.473C117.999 237.094 116.959 241.714 116.15 246.334C113.724 259.155 111.183 271.861 108.757 284.567C107.833 289.303 106.909 294.038 106.1 298.774C105.753 300.969 103.905 301.546 102.288 301.893C95.703 303.163 89.2339 304.896 82.4182 304.203C80.5698 303.972 78.606 303.625 77.1042 303.51C77.5663 295.656 78.1439 288.263 78.606 280.871C78.9525 275.673 79.0681 270.475 79.1836 265.277C79.4146 254.073 79.6457 242.753 79.8767 231.549C79.9922 227.853 79.7612 224.157 79.9922 220.461C79.9922 219.537 80.6854 218.381 81.3785 217.688C83.3423 215.84 85.4217 214.223 87.5011 212.491C87.2701 212.26 87.1545 212.029 86.9235 211.798C84.7286 213.53 82.6492 215.263 79.9922 217.342C79.5302 213.761 79.0681 210.758 78.606 207.87C78.3749 207.87 78.2594 207.87 78.0284 207.87C78.0284 208.563 77.9129 209.256 77.9129 210.065C78.0284 220.23 78.4905 230.394 78.3749 240.559C78.2594 256.614 77.7973 272.67 77.3353 288.841C77.2197 293.114 76.2956 297.388 75.4869 301.662C75.0248 304.434 72.9455 306.051 70.404 306.744C60.8158 309.632 50.9965 311.018 41.0618 308.361C38.7513 307.784 38.1737 306.629 37.9427 304.318C36.903 296.464 35.5168 288.725 34.1305 280.871C33.2064 275.442 32.1667 270.013 30.7804 264.7C28.5855 256.268 26.0441 247.836 23.7337 239.404C20.6146 227.969 17.0335 216.649 14.492 205.098C12.8747 197.821 14.261 190.66 17.9576 183.614C19.806 185 21.6543 186.155 23.1561 187.657C23.7337 188.234 24.1957 189.274 24.0802 190.082C23.5026 198.976 23.3871 207.87 24.8889 216.764C25.0044 217.457 24.7733 218.15 24.6578 218.843C24.4268 218.843 24.1958 218.843 23.9647 218.843C24.5423 219.306 25.2354 219.883 26.0441 220.576C25.2354 220.923 24.6578 221.269 24.0802 221.5C24.3113 221.5 24.6578 221.385 24.8889 221.385C25.4665 222.886 26.2751 224.388 26.6217 225.889C28.5855 234.206 30.7804 242.407 32.3977 250.723C34.3616 261.003 35.9788 271.515 37.5961 281.91C38.2893 286.068 38.5203 290.342 39.56 294.616C39.56 291.959 39.9066 289.303 39.56 286.761C37.9427 275.788 36.3254 264.815 34.246 253.958C32.3977 244.37 29.9718 234.783 27.7769 225.196C27.5458 224.041 27.7769 222.771 28.1234 221.616C27.7769 220.692 24.8889 219.999 28.5855 219.075C26.2751 217.804 25.0044 214.685 26.3906 212.837C30.4339 207.755 31.5891 201.748 32.3977 195.511C32.6287 195.511 32.8598 195.396 33.0908 195.396C33.6684 198.052 34.3616 200.709 34.9392 203.366C35.1702 204.521 35.1702 205.907 35.5168 206.946C35.8633 207.87 36.7875 208.563 37.3651 209.487C38.1737 208.679 39.4445 207.87 39.56 206.946C39.9066 204.983 39.791 202.904 39.56 200.824C39.2134 198.745 38.5203 196.666 37.9427 194.587C37.7117 194.587 37.4806 194.703 37.3651 194.703L38.2893 207.524C37.9427 207.524 37.5962 207.639 37.2496 207.639C36.903 206.138 36.3254 204.636 36.3254 203.135C36.2099 196.551 32.7443 191.93 27.4303 188.35C20.268 183.498 13.4523 178.301 7.56077 172.063C2.01577 166.288 0.398478 159.589 2.13129 151.965C3.2865 146.652 4.67275 141.338 5.82796 136.141C9.9867 138.22 13.6834 140.414 17.7266 142.147C20.4991 143.302 23.6181 143.764 26.5062 144.226C27.8924 144.457 28.5855 144.804 27.8924 146.074C26.2751 148.846 24.4268 151.503 22.694 154.16C20.9612 153.236 19.6904 152.543 18.4197 151.85C18.3042 152.081 18.1887 152.312 17.9576 152.427C19.4594 153.813 21.0767 155.084 22.3474 156.585C26.2751 161.09 30.0873 165.826 33.8995 170.446C35.7478 172.756 37.5961 175.066 39.4445 177.261C44.5274 183.267 47.6464 190.082 47.762 198.052C47.762 199.785 47.4154 201.517 47.1844 203.25C47.0688 203.481 46.9533 203.366 46.7223 203.366ZM51.6897 286.184C51.2276 289.418 52.2673 292.075 54.2311 292.999C53.307 290.573 52.4983 288.379 51.6897 286.184ZM66.0142 285.26C65.6677 285.26 65.4366 285.26 65.0901 285.26C64.9745 287.686 64.7435 290.111 64.628 292.537C64.9746 292.537 65.3211 292.537 65.5522 292.652C65.7832 290.111 65.8987 287.686 66.0142 285.26ZM44.6429 293.23C44.9895 293.114 45.2205 292.999 45.5671 292.768C44.7584 290.689 44.0653 288.61 43.2567 286.53C43.0256 286.646 42.6791 286.761 42.448 286.877C43.1411 289.072 43.9498 291.151 44.6429 293.23ZM93.1616 280.524C92.815 280.524 92.4685 280.524 92.2374 280.524C92.353 282.603 92.4685 284.682 92.584 286.761C92.815 286.761 93.0461 286.761 93.2771 286.646V280.524H93.1616Z" fill="#F8F5ED"/>
<path d="M107.717 139.951C111.182 133.252 112.107 126.668 108.872 119.737C107.832 117.543 106.446 115.579 103.789 114.771C107.832 118.813 109.796 123.665 109.334 129.209C108.872 134.638 107.024 139.489 100.901 142.03C102.056 142.492 102.518 142.723 103.096 143.07C102.518 146.189 101.825 149.423 101.248 152.31C96.6268 151.386 92.1215 150.462 87.7317 149.538C81.147 148.152 74.7934 149.307 68.3242 150.116C59.7757 151.271 51.2272 152.541 42.6786 153.696C40.5993 153.927 37.9423 154.621 36.556 153.696C35.2853 152.888 35.4008 150 34.8232 148.152C34.7077 147.806 34.7077 147.459 34.5922 147.113C32.5128 142.723 32.0507 138.565 35.2853 134.407C35.9784 133.483 36.0939 131.866 36.4405 130.595L35.8629 130.364C34.4767 133.252 32.9749 136.255 31.4731 139.258C23.2712 137.872 15.8778 134.407 9.17763 129.787C8.4845 129.325 8.02242 127.476 8.25346 126.552C13.2209 110.843 22.578 99.2928 39.3285 95.25C44.6425 93.9795 49.9564 92.4779 55.1549 91.0918C55.5014 95.4811 59.4291 99.5238 67.0535 100.448C73.7537 101.256 80.4539 97.0981 82.7643 91.0918C104.829 94.2105 121.695 101.372 129.55 124.358C122.157 129.44 114.879 134.638 107.717 139.951ZM63.4724 142.954C68.0932 143.994 73.1761 138.219 75.14 133.945C76.9883 130.018 75.8331 121.239 72.0209 118.467C77.2193 129.556 74.6779 137.757 63.4724 142.954Z" fill="#F8F5ED"/>
<path d="M56.4246 60.4827C54.5763 60.5982 52.4969 60.1361 51.9193 60.9447C50.9952 62.0997 50.5331 64.1789 50.8796 65.6805C51.6883 68.7991 52.2659 72.0333 55.3849 74.459C56.7712 75.4985 56.3091 79.1948 56.6557 81.6204C54.8073 82.891 53.6521 82.5445 52.1504 81.3894C50.7641 80.3498 49.0313 79.6568 47.414 78.9637C46.9519 78.7327 46.2588 78.7327 46.0278 78.3862C44.2949 76.1916 41.9845 75.2675 39.3276 74.8055C38.6344 74.69 37.9413 73.7659 37.3637 73.1884C37.0171 72.8419 36.9016 72.1488 36.4395 71.9178C32.5118 70.4162 31.1256 66.489 28.6997 63.7168C28.2376 63.2548 27.891 62.5618 27.7755 61.8687C27.0824 58.1725 24.6564 55.1693 25.003 51.1266C25.1185 48.8165 23.8478 46.5063 23.6168 44.1962C23.5012 42.8101 24.0788 41.3085 24.1944 39.8069C24.3099 38.6519 24.3099 37.3813 24.3099 36.2262C24.3099 35.7642 24.0788 35.3022 24.1944 34.9556C25.4651 31.6059 26.7358 28.1408 28.1221 24.7911C28.5841 23.636 29.0462 22.5964 29.5083 21.4414C29.7393 20.8638 29.7393 20.1708 30.2014 19.8243C32.3963 17.7451 34.5912 15.666 36.9016 13.5869C37.9413 12.6628 38.981 11.6233 40.1362 10.8147C41.0604 10.1217 42.2156 9.54415 43.2553 9.08213C44.295 8.50459 45.4502 8.04256 46.4899 7.58054C50.1865 6.07895 53.9987 4.57736 57.6954 3.07577C59.0816 2.49824 60.5834 2.03621 61.9696 1.57418C63.1248 1.22766 64.28 0.996649 65.5508 0.996649C67.2836 0.881142 68.9009 0.996649 70.6337 0.996649C71.2113 0.996649 71.7889 0.881145 72.1354 1.11216C73.9838 2.38273 75.9476 2.61375 78.027 2.03621C78.6046 1.92071 79.2977 2.26722 79.9909 2.49824C81.9547 3.19128 84.3806 3.42229 85.8824 4.69287C89.348 7.46503 94.7775 6.07895 97.319 10.5837C97.6655 11.2768 98.7052 11.6233 99.5138 11.9698C99.8604 12.2008 100.322 12.2008 100.438 12.4318C102.633 15.5505 104.828 18.6692 106.792 21.9034C107.831 23.5205 108.524 25.3686 109.449 27.1012C109.911 27.9097 110.95 28.7183 110.95 29.5268C110.719 32.4145 111.759 34.7246 113.03 37.2658C113.492 38.0743 113.145 39.2294 113.261 40.1535C113.376 41.3085 113.145 42.5791 113.723 43.3876C114.994 45.4668 114.647 47.1994 113.838 49.2785C113.261 50.7801 112.914 52.6282 113.376 54.0143C114.416 56.9019 114.185 59.3276 112.683 61.9842C111.99 63.2548 112.106 64.9874 111.528 66.489C111.066 67.6441 110.488 68.7991 109.564 69.7232C107.947 71.4558 106.099 73.1884 104.25 74.69C102.748 75.8451 101.131 76.8846 99.5138 77.8087C98.1276 78.6172 96.5103 79.1948 95.0085 79.6568C93.2757 80.2343 91.5429 80.6964 89.8101 81.2739C91.3119 77.3466 93.2757 73.997 93.7378 70.4162C94.7775 62.3308 94.1999 54.2453 88.4239 47.6614C83.572 42.1171 77.4494 41.193 70.8647 43.5032C63.3559 46.1598 58.8506 51.5886 56.8867 59.2121C56.6557 59.9051 56.4246 60.4827 56.4246 60.4827ZM36.093 44.6582C34.0136 46.0443 34.2447 47.7769 35.1688 49.163C37.0172 51.9352 37.7103 48.2389 38.8655 48.1234C39.4431 49.2785 39.7896 50.6646 40.5983 51.0111C41.2914 51.2421 42.4466 50.3181 43.2553 49.9715C43.9484 50.4336 44.6415 51.0111 45.4502 51.2421C45.6812 51.3576 46.1433 50.3181 46.2588 50.3181C44.4105 48.3544 42.5621 47.3149 41.1759 49.856C40.4828 48.701 40.0207 47.7769 39.4431 46.7373C38.4034 47.4304 37.3637 48.0079 35.8619 49.0475C35.7464 47.4304 35.8619 46.2753 36.093 44.6582ZM39.3276 23.7515C40.5983 21.2103 39.0965 20.8638 36.9016 21.0948C37.7103 20.0553 38.2879 19.3622 38.75 18.6692C38.5189 18.4382 38.2879 18.3227 38.1723 18.0917C37.3637 19.0157 36.4395 19.9398 35.9775 21.0948C35.8619 21.4414 37.3637 22.3654 38.1723 23.174C37.2482 24.9066 37.9413 25.8306 39.3276 25.3686C40.3672 26.5237 41.0604 27.2167 41.7535 27.9097C41.9845 26.7547 41.5225 26.0616 41.7535 25.4841C42.4466 23.0585 41.2914 23.0585 39.3276 23.7515ZM40.4828 41.0775C38.4034 43.7342 38.5189 43.9652 41.1759 44.7737C42.6777 45.2358 43.9484 46.1598 45.4502 46.7373C46.1433 46.9684 47.0675 46.5063 47.6451 46.5063C46.6054 45.5823 45.7967 44.8892 44.757 43.9652C44.526 44.0807 43.8329 44.1962 43.1397 44.4272C43.1397 44.0807 43.2553 43.8497 43.2553 43.5032C42.2156 43.3876 41.1759 43.1566 40.2517 43.0411C40.1362 42.5791 40.3672 41.7706 40.4828 41.0775ZM102.517 52.6282C104.366 52.7437 107.254 49.2785 106.792 46.6218C105.636 48.2389 104.597 49.5095 103.557 51.1266C100.091 49.0475 101.593 52.9747 100.785 54.2453C99.9759 54.0143 99.2828 53.8988 98.7052 53.7833C98.5897 54.0143 98.5897 54.2453 98.4742 54.4763C99.3983 54.7073 100.438 55.5159 101.131 55.1693C101.709 54.8228 101.94 53.5522 102.517 52.6282ZM40.9449 20.2863C40.7138 20.7483 40.3673 21.0948 40.1362 21.5569C44.757 20.1708 41.5225 23.5205 43.2553 23.9825C44.295 24.329 45.2191 25.2531 46.2588 25.9461C46.3743 25.7151 46.4898 25.4841 46.7209 25.2531C45.5657 23.405 44.295 21.5569 43.0242 19.5932C43.1398 19.4777 43.8329 19.2467 44.4105 18.9002C44.1794 18.6692 43.9484 18.3227 43.6018 18.0917C42.6777 18.7847 41.7535 19.5932 40.9449 20.2863ZM40.8293 68.5681C41.0604 68.9147 41.638 69.4922 42.4466 70.5317C43.1398 69.6077 43.7174 68.7991 44.4105 67.9906C43.6018 67.9906 42.9087 67.8751 41.869 67.7596C41.638 67.4131 41.1759 66.8355 40.5983 66.1425C39.9052 66.8355 39.4431 67.4131 38.8655 68.1061C38.5189 67.5286 38.1724 66.951 37.8258 66.489C37.5948 66.6045 37.3637 66.72 37.1327 66.951C37.7103 67.8751 38.1724 68.9146 38.8655 69.6077C38.8655 69.7232 40.0207 69.0302 40.8293 68.5681ZM74.0993 9.54415C74.0993 9.65966 74.0993 9.65966 74.0993 9.77517C74.5614 11.2768 75.0235 12.7783 75.4855 14.5109C76.9873 13.2404 75.4855 11.5078 75.7166 10.9302C76.6407 8.96662 75.6011 8.38908 74.0993 7.69604C74.7924 7.34952 75.2545 7.11851 75.6011 6.8875C75.4855 6.65649 75.37 6.30996 75.37 6.07895C74.5614 6.30996 73.7527 6.65649 72.9441 6.8875C73.4062 7.81155 73.7527 8.73561 74.0993 9.54415ZM97.319 25.0221C96.8569 25.8306 95.8172 26.6392 95.8172 27.5632C95.5861 29.9889 94.4309 31.9525 93.1602 33.9161C93.0447 34.0316 93.5068 34.6091 93.8533 35.0712C94.1999 32.53 98.7052 31.837 96.0482 28.7183C98.5897 26.9857 98.7052 26.6392 97.319 25.0221ZM67.168 27.5632C64.6266 29.4113 64.8576 30.3354 67.8612 31.7215C66.4749 34.6091 69.3629 34.3781 70.2871 35.5332C70.5181 35.4177 70.6337 35.3022 70.8647 35.0712C69.594 33.1075 68.2077 31.2594 66.5904 28.8338C66.706 29.0648 66.937 28.3718 67.168 27.5632ZM74.0993 36.1107L74.7924 35.7642C73.7527 33.5696 72.713 31.2594 71.6734 28.8338C71.6734 28.8338 71.9044 28.3718 72.0199 27.9097C71.7889 27.7942 71.5578 27.6787 71.3268 27.5632C70.9802 28.1407 70.0561 28.9493 70.2871 29.4113C70.5181 30.2199 71.3268 30.7974 72.0199 31.7215C69.825 34.2626 73.6372 34.3781 74.0993 36.1107ZM109.333 49.2785C108.755 49.9715 108.062 50.5491 107.6 51.2421C107.138 51.9352 106.792 52.7437 106.676 52.9747C105.29 54.1298 104.25 54.9383 102.748 56.0934C106.33 56.0934 109.564 52.2817 109.333 49.2785ZM96.0482 35.3022C96.3948 35.4177 96.7413 35.4177 96.9724 35.5332C98.0121 32.53 100.322 29.8734 99.5138 26.4081C98.4742 29.4113 97.2034 32.4145 96.0482 35.3022ZM72.5975 16.7056C74.3303 15.435 73.4062 14.5109 72.3665 13.1249C71.5578 11.9698 71.5578 10.2372 71.0957 8.50459C70.5181 9.08213 70.0561 9.65966 69.7095 10.1217C70.7492 12.4318 71.6734 14.5109 72.5975 16.7056ZM45.4502 65.6805C45.4502 65.4494 45.5657 65.1029 45.5657 64.8719C43.7174 64.1789 41.7535 63.4858 39.4431 62.5618C39.7896 63.6013 39.9052 64.9874 40.3673 65.1029C42.1001 65.565 43.8329 65.565 45.4502 65.6805Z" fill="#F8F5ED"/>
<path d="M64.2815 84.2773C68.4402 88.6665 73.7542 88.551 79.9923 87.627C79.9923 89.5906 80.4544 91.5542 79.8768 93.0558C79.0681 95.5969 76.5267 96.752 74.2163 97.5605C69.3644 99.4086 64.7436 99.2931 60.1227 96.6365C57.5813 95.1349 55.6174 91.5542 57.8123 88.2045C58.1589 87.627 58.3899 86.9339 58.3899 86.2409C58.0434 81.9671 57.6968 77.6934 57.2347 73.5351C57.1192 72.9576 56.3106 72.38 55.733 71.918C55.2709 71.5715 54.4622 71.456 54.2312 70.994C53.4226 68.6838 52.7294 66.2582 52.1518 63.8325C52.0363 63.255 52.6139 62.562 52.845 61.8689C53.5381 62.2154 54.3467 62.562 55.0398 62.9085C55.6174 63.255 56.195 63.717 56.6571 64.1791C57.0037 63.486 57.6968 62.793 57.6968 62.0999C57.6968 53.7834 66.4764 45.1204 74.4473 44.0809C82.0717 43.0413 88.7719 48.5856 90.8513 55.516C92.6996 61.5224 93.0462 67.4133 91.1978 73.1886C88.8874 80.2345 84.1511 84.7393 76.5267 86.2409C72.599 86.9339 69.5955 85.8943 66.3609 84.3928C65.7833 84.0462 65.0901 83.8152 64.397 83.5842C64.5125 83.8152 64.397 84.0462 64.2815 84.2773ZM74.7939 78.5019C77.2198 77.9244 79.5302 77.5779 81.7251 77.0003C82.1872 76.8848 82.5338 76.1918 82.8803 75.7297C82.3027 75.6142 81.6096 75.2677 81.032 75.4987C77.3353 76.7693 73.6387 76.8848 69.942 75.2677C69.5954 75.1522 69.0178 75.3832 68.5558 75.4987C68.9023 75.8453 69.0178 76.5383 69.4799 76.6538C71.2127 77.3468 73.0611 77.9244 74.7939 78.5019ZM68.4402 57.5952C68.5558 57.7107 68.5558 57.9417 68.6713 58.0572C69.3644 57.7107 70.0575 57.4797 70.6351 56.9021C70.8662 56.6711 70.7506 55.8626 70.5196 55.516C69.1334 53.899 64.397 54.592 63.5884 56.5556C63.3573 57.0176 63.4729 57.5952 63.7039 57.9417C63.8194 58.1727 64.5125 58.1727 64.9746 58.0572C66.0143 58.0572 67.285 57.8262 68.4402 57.5952ZM87.1546 58.0572C86.346 57.1331 85.6528 55.8626 84.7287 55.6316C82.9958 55.1695 81.032 55.516 79.8768 57.3642C79.6457 57.7107 79.7613 58.5192 80.1078 58.7502C80.3389 58.9813 81.032 58.8658 81.4941 58.7502C82.9958 58.5192 84.6131 58.2882 87.1546 58.0572ZM76.6422 65.2186C74.2163 67.6443 80.2234 68.1063 79.0681 70.6474C78.144 70.7629 77.3353 70.994 76.4112 71.1095C77.2198 73.0731 78.6061 72.9576 79.6458 72.149C81.032 70.994 81.4941 69.2614 80.2234 67.7598C79.1837 66.7202 77.7974 66.0272 76.6422 65.2186ZM63.0108 61.8689C63.1263 62.2154 63.1263 62.562 63.2418 62.9085C63.8194 62.9085 64.7436 63.255 64.8591 63.024C66.4764 61.0604 67.9782 61.4069 69.5955 62.793C69.711 62.9085 70.173 62.6775 70.5196 62.562C70.2886 60.3673 68.5558 59.7898 67.1695 59.9053C65.8988 60.1363 64.397 61.1759 63.0108 61.8689ZM87.6167 63.9481C87.2701 60.8294 85.8839 60.1363 83.8045 60.2518C81.8406 60.3673 80.9165 61.2914 80.801 63.9481C83.1114 60.9449 85.1907 61.6379 87.6167 63.9481Z" fill="#F8F5ED"/>
<path d="M149.881 182.805C150.112 183.267 150.459 183.844 150.69 184.306C146.993 186.501 143.296 188.695 139.6 190.89C139.253 190.312 138.675 189.735 138.791 189.273C139.831 183.382 135.094 181.072 131.744 178.069C126.315 173.217 120.423 168.482 117.882 161.551C115.802 156.007 113.03 151.156 108.871 146.997C116.38 141.453 123.542 136.255 131.282 130.711C131.744 135.1 131.975 138.681 132.437 142.146C132.553 142.955 133.015 143.879 133.593 144.341C140.408 150.463 143.412 158.779 145.953 167.211C146.877 170.33 147.802 173.564 148.957 176.567C149.303 177.491 150.574 178.415 151.614 178.762C155.31 179.917 156.004 183.382 157.736 186.039C157.967 186.385 157.967 187.194 157.736 187.54C156.235 189.042 154.733 190.428 152.653 192.392C153.231 189.735 154.155 187.887 153.693 186.385C153.347 184.884 151.614 183.729 150.574 182.342C150.343 182.342 150.112 182.574 149.881 182.805Z" fill="#F8F5ED"/>
<path d="M42.9102 315.176C43.3722 315.061 43.3722 314.945 43.4878 314.945C49.3793 315.869 49.3793 315.869 49.3793 322.107C49.3793 323.493 49.4948 324.879 49.4948 326.381C49.4948 326.496 49.7259 326.612 50.419 327.305V315.985H70.6351C70.5196 317.371 70.5196 319.335 70.173 321.183C68.9023 328.113 71.9058 334.004 74.6783 340.01C75.9491 342.782 77.1043 345.555 78.144 348.442C79.0681 350.868 77.6819 353.756 75.1404 355.026C69.711 357.914 63.7039 357.105 58.621 352.37C53.6536 347.749 48.8017 343.014 45.6826 336.892C44.5274 334.466 43.9498 331.578 43.7188 328.922C43.3722 324.186 43.2567 319.566 42.9102 315.176Z" fill="#F8F5ED"/>
<path d="M74.331 309.746C76.7569 310.555 78.4897 311.017 80.107 311.594C80.8001 315.175 79.1829 318.871 80.4536 322.336C80.6846 322.336 81.0312 322.336 81.2622 322.336C81.2622 319.911 81.4933 317.485 81.2622 315.059C81.0312 312.403 82.1864 312.056 84.6123 311.825C88.7711 311.479 92.8143 310.67 96.973 309.862C98.1283 309.63 99.0524 308.822 100.208 308.129C99.8611 311.248 99.399 314.135 99.1679 317.023C98.8214 320.026 99.8611 322.452 101.825 324.646C104.366 327.419 106.792 330.191 109.218 332.963C109.911 333.771 110.604 334.811 111.067 335.735C113.03 341.048 110.836 344.514 105.291 346.131C99.5145 347.748 94.4316 346.939 89.8108 343.012C85.421 339.316 80.8002 335.966 76.5259 332.27C75.3707 331.23 74.6775 329.267 74.562 327.65C74.2155 321.874 74.331 316.099 74.331 309.746Z" fill="#F8F5ED"/>
<path d="M67.4007 171.024C67.4007 168.136 67.4007 165.48 67.4007 162.823C67.4007 159.82 66.5921 158.549 63.7041 158.665C57.2349 158.78 50.6502 159.242 44.1811 159.589C41.4086 159.704 38.6361 159.936 35.748 160.167C35.8636 159.011 35.9791 157.625 36.2101 156.008C40.5999 155.431 44.9897 154.853 49.3795 154.276C56.5418 153.352 63.7041 152.428 70.7508 151.272C77.3355 150.233 83.8047 150.233 89.6962 151.504C89.0031 154.276 87.9634 156.817 87.7324 159.473C87.3858 162.708 89.6962 164.556 92.6998 165.595C84.7288 169.638 76.0648 170.1 67.4007 171.024Z" fill="#F8F5ED"/>
<path d="M181.419 186.848C179.802 187.425 177.838 188.003 176.106 188.927C174.373 189.851 172.755 191.121 171.023 192.277C168.943 188.465 167.557 183.845 164.554 181.072C160.972 177.954 160.279 173.102 156.352 170.446C161.55 169.868 166.055 171.485 170.445 173.911C168.019 169.06 162.359 170.215 158.893 167.443C158.893 167.096 158.893 166.865 159.009 166.519C160.279 166.287 161.666 165.594 162.705 165.941C166.171 167.212 170.099 168.136 172.524 170.446C175.412 173.218 177.03 177.261 178.994 180.957C179.918 182.805 180.495 184.884 181.419 186.848Z" fill="#F8F5ED"/>
<path d="M43.3723 169.521C41.986 167.095 40.2532 164.208 38.1738 160.973C47.0689 160.627 55.8485 160.28 64.6281 159.818C64.2815 164.785 53.076 172.986 49.6104 172.524C48.8017 171.022 48.4552 169.29 47.4155 168.597C46.7224 168.019 45.1051 169.059 43.3723 169.521Z" fill="#F8F5ED"/>
<path d="M50.4195 180.379C54.8093 182.804 58.506 181.303 62.7802 179.686C62.4337 184.537 63.1268 189.388 58.968 192.622C57.2352 194.008 54.6938 194.47 52.4989 195.048C52.0368 195.163 50.535 193.662 50.535 192.969C50.304 188.926 50.4195 184.883 50.4195 180.379Z" fill="#F8F5ED"/>
<path d="M70.1734 308.361C69.9424 310.325 70.1734 312.404 69.2493 313.675C68.5561 314.714 66.3612 315.176 64.8595 315.061C58.9679 314.945 53.1919 314.483 47.3003 314.137C43.9502 313.906 43.6037 313.328 44.5278 309.863C53.0764 312.289 61.3939 309.747 70.1734 308.361Z" fill="#F8F5ED"/>
<path d="M61.162 176.682C62.4327 173.448 61.7396 171.138 58.6205 170.099C60.9309 167.557 63.2413 165.016 65.8983 162.244C65.8983 164.901 66.0138 167.326 65.8983 169.637C65.4362 176.336 64.9741 183.035 64.281 189.735C63.8189 193.662 59.3136 198.051 55.2704 198.86C53.7686 199.206 52.1513 199.322 50.534 199.206C50.0719 199.206 49.2633 198.167 49.2633 197.589C49.1478 196.55 49.3788 195.741 51.1116 195.972C58.3894 196.896 63.0103 192.853 63.8189 185.576C63.9345 183.959 64.1655 182.458 64.281 180.841C64.5121 178.762 64.05 177.144 61.162 176.682Z" fill="#F8F5ED"/>
<path d="M132.669 127.939C124.467 133.83 116.381 139.605 108.179 145.265C107.601 145.727 106.33 145.381 105.406 145.381C105.753 144.457 105.753 143.186 106.33 142.724C111.182 139.028 116.034 135.447 120.886 131.866C123.312 130.134 125.738 128.401 128.164 126.669C129.897 125.398 131.167 125.398 132.669 127.939Z" fill="#F8F5ED"/>
<path d="M101.133 161.321C99.0533 162.13 96.7429 163.4 94.4325 163.747C90.8514 164.44 90.0427 162.707 89.003 159.82C88.0788 157.163 89.4651 155.199 90.9669 153.351C92.3531 151.734 94.2014 151.85 96.0498 152.543C96.7429 152.774 97.436 153.005 98.0136 153.12C99.9775 153.582 101.364 154.16 100.671 156.816C100.324 157.971 100.902 159.473 101.133 161.321ZM97.436 157.625C96.5119 156.701 95.8187 155.777 95.5877 155.892C94.7791 156.239 94.2014 156.932 93.6238 157.509C94.0859 157.971 94.6635 158.895 95.1256 158.895C95.7032 159.011 96.3963 158.318 97.436 157.625Z" fill="#F8F5ED"/>
<path d="M30.7797 140.645C30.2021 142.955 28.5848 143.186 26.852 143.071C19.4587 142.262 12.9895 139.259 6.98247 135.101C4.78758 133.599 4.78758 132.329 6.52039 129.557C13.9137 134.754 21.6536 138.913 30.7797 140.645Z" fill="#F8F5ED"/>
<path d="M76.873 304.549C84.6129 306.628 92.1218 305.357 99.6306 303.855C99.8617 306.397 98.7064 307.436 96.8581 308.245C91.6597 310.439 86.3457 310.786 80.9163 310.208C77.5662 309.746 76.9886 308.707 76.873 304.549Z" fill="#F8F5ED"/>
<path d="M25.2344 211.219V188.695C27.1982 190.081 28.8155 191.005 30.3173 192.161C30.7794 192.507 31.357 193.316 31.2414 193.893C31.0104 200.13 29.3931 206.021 26.043 211.335C25.812 211.335 25.5809 211.219 25.2344 211.219Z" fill="#F8F5ED"/>
<path d="M137.059 200.592C134.98 202.209 134.055 201.747 132.207 197.011C136.943 194.124 141.68 191.236 146.532 188.348C147.802 187.54 149.073 186.731 150.344 186.038C150.921 185.807 151.73 185.692 152.192 185.923C152.539 186.038 152.539 187.193 152.308 187.655C152.077 188.002 151.268 188.117 150.806 188.348C148.842 189.041 146.878 189.503 145.145 190.543C142.835 191.814 140.525 193.2 138.792 195.048C137.868 196.087 137.752 198.167 137.059 200.592Z" fill="#F8F5ED"/>
<path d="M157.275 181.766C159.239 180.034 160.857 179.803 162.936 181.304C165.246 183.037 165.362 184.654 163.051 186.387C161.781 187.311 160.394 188.119 159.124 189.043C159.008 189.159 158.777 189.043 158.546 189.159C160.394 186.271 159.124 184.076 157.275 181.766Z" fill="#F8F5ED"/>
<path d="M48.9169 191.469C47.1841 187.772 45.5668 183.961 43.834 180.149C45.3358 179.802 47.0686 179.456 48.9169 179.109V191.469Z" fill="#F8F5ED"/>
<path d="M54.6918 180.148C55.847 177.26 49.84 175.066 53.9987 172.062C54.5763 173.449 54.9229 174.719 55.7315 175.759C55.9626 176.105 57.5798 175.99 57.8109 175.643C58.3885 174.604 58.6195 173.333 58.9661 172.062C60.8144 172.64 61.161 173.795 59.7747 175.874C59.3127 176.567 58.504 177.145 58.504 177.722C58.8506 180.957 56.7712 180.263 54.6918 180.148Z" fill="#F8F5ED"/>
<path d="M40.8317 168.251C37.9437 169.983 37.8282 172.409 41.9869 174.604C41.4093 175.066 40.9472 175.412 40.4852 175.759C35.8643 171.947 36.904 167.096 37.0195 162.36C37.2506 162.244 37.4816 162.129 37.7127 162.129C38.6368 164.093 39.6765 166.056 40.8317 168.251Z" fill="#F8F5ED"/>
<path d="M45.4509 179.224C44.8733 178.184 44.1802 177.607 44.1802 176.914C44.2958 174.719 43.3716 173.448 41.4077 172.64C40.8301 172.409 40.4836 171.254 40.0215 170.561C40.2525 170.33 40.368 170.099 40.5991 169.868C41.6388 170.214 42.5629 170.907 43.6026 170.907C44.6423 170.907 45.5665 170.214 47.2993 169.637C46.7217 172.64 46.1441 175.528 45.4509 179.224Z" fill="#F8F5ED"/>
<path d="M181.188 189.043C178.993 192.508 175.296 194.356 171.6 193.085C175.065 191.353 177.953 189.851 180.841 188.35C180.957 188.581 181.072 188.812 181.188 189.043Z" fill="#F8F5ED"/>
<path d="M149.65 190.082C151.267 191.468 152.422 192.277 153.346 193.201C153.693 193.547 153.577 194.125 153.693 194.702C152.653 194.818 151.267 195.395 150.805 194.933C149.765 194.125 149.072 192.739 148.61 191.468C148.379 191.006 149.65 190.082 149.65 190.082Z" fill="#F8F5ED"/>
<path d="M146.417 197.936C144.684 198.975 143.067 198.167 142.258 196.78C141.796 195.972 142.258 194.586 142.258 192.969C143.991 194.932 145.146 196.318 146.417 197.936Z" fill="#F8F5ED"/>
<path d="M146.301 191.237C147.225 192.969 148.265 194.702 149.189 196.434C149.074 196.665 148.958 196.781 148.843 197.012C147.688 196.203 146.186 195.51 145.377 194.355C144.915 193.662 145.377 192.276 145.493 191.121C145.724 191.237 146.07 191.237 146.301 191.237Z" fill="#F8F5ED"/>
<path d="M33.668 164.324C36.9025 165.364 35.1697 167.789 35.6318 169.869C32.0507 166.981 31.8196 166.519 33.668 164.324Z" fill="#F8F5ED"/>
<path d="M139.832 196.088C140.871 197.358 141.911 198.629 143.528 200.593C141.795 200.015 140.409 200.015 139.716 199.322C139.138 198.629 139.369 197.243 139.254 196.203L139.832 196.088Z" fill="#F8F5ED"/>
<path d="M50.8814 176.799C49.7262 175.875 48.4555 174.951 46.7227 173.564C48.4555 173.68 49.4951 173.795 50.8814 173.911C51.1124 174.835 51.3435 175.875 51.5745 176.799C51.3435 176.799 51.1124 176.799 50.8814 176.799Z" fill="#F8F5ED"/>
<path d="M51.69 286.184C52.4987 288.378 53.3073 290.573 54.2315 292.998C52.2676 292.074 51.1124 289.418 51.69 286.184Z" fill="black"/>
<path d="M66.0129 285.26C65.8974 287.686 65.7819 290.111 65.6664 292.537C65.3198 292.537 64.9732 292.537 64.7422 292.422C64.8577 289.996 65.0888 287.57 65.2043 285.145C65.4353 285.26 65.6664 285.26 66.0129 285.26Z" fill="black"/>
<path d="M44.6441 293.229C43.951 291.15 43.2579 289.07 42.4492 286.876C42.6803 286.76 43.0268 286.645 43.2579 286.529C44.0665 288.608 44.7596 290.688 45.5683 292.767C45.2217 292.998 44.9907 293.113 44.6441 293.229Z" fill="black"/>
<path d="M93.1608 280.523V286.645C92.9297 286.645 92.6987 286.645 92.4676 286.761C92.3521 284.682 92.2366 282.603 92.1211 280.523C92.5832 280.523 92.8142 280.523 93.1608 280.523Z" fill="black"/>
<path d="M63.4727 142.956C74.6782 137.758 77.2196 129.673 71.9057 118.469C75.7179 121.241 76.8731 130.019 75.0247 133.947C73.1764 138.22 67.978 143.88 63.4727 142.956Z" fill="black"/>
<path d="M36.0953 44.6582C35.9798 46.2753 35.8643 47.5459 35.6332 49.0475C37.135 48.0079 38.1747 47.4304 39.2144 46.7373C39.792 47.6614 40.2541 48.7009 40.9472 49.856C42.4489 47.1994 44.2973 48.2389 46.0301 50.318C46.0301 50.4336 45.4525 51.3576 45.2214 51.2421C44.4128 51.0111 43.7197 50.318 43.0266 49.9715C42.2179 50.318 41.0627 51.2421 40.3696 51.0111C39.5609 50.6646 39.3299 49.2785 38.6368 48.1234C37.4816 48.2389 36.7884 51.9351 34.9401 49.163C34.1315 47.7769 34.0159 46.0443 36.0953 44.6582Z" fill="black"/>
<path d="M39.329 23.7516C41.2929 23.0586 42.4481 23.0586 41.755 25.4842C41.6394 26.0618 41.986 26.7548 41.755 27.9099C41.0618 27.2168 40.3687 26.5238 39.329 25.3687C37.8272 25.8307 37.2496 24.9067 38.1738 23.1741C37.2496 22.3655 35.7479 21.4415 35.9789 21.095C36.441 19.9399 37.4807 19.1314 38.1738 18.0918C38.4048 18.3228 38.6359 18.4383 38.7514 18.6693C38.1738 19.3624 37.7117 20.0554 36.9031 21.095C39.098 20.864 40.5997 21.2105 39.329 23.7516Z" fill="black"/>
<path d="M40.485 41.0781C40.3695 41.7712 40.254 42.5797 40.1385 42.9262C41.1782 43.0417 42.1023 43.2728 43.142 43.3883C43.142 43.6193 43.0265 43.9658 43.0265 44.3123C43.7196 44.0813 44.4127 43.9658 44.6438 43.8503C45.6835 44.7743 46.4921 45.4674 47.5318 46.3914C46.9542 46.507 46.03 46.8535 45.3369 46.6225C43.8351 46.1604 42.5644 45.1209 41.0626 44.6588C38.5212 43.9658 38.4056 43.7348 40.485 41.0781Z" fill="black"/>
<path d="M102.518 52.6274C102.056 53.5515 101.709 54.8221 101.016 55.1686C100.439 55.5151 99.2835 54.7066 98.3594 54.4755C98.4749 54.2445 98.4749 54.0135 98.5904 53.7825C99.2835 53.898 99.8611 54.129 100.67 54.2445C101.478 52.974 99.8611 49.0467 103.442 51.1258C104.597 49.6243 105.522 48.2382 106.677 46.6211C107.139 49.2777 104.366 52.7429 102.518 52.6274Z" fill="black"/>
<path d="M40.9457 20.2867C41.7543 19.4782 42.6785 18.7851 43.4871 17.9766C43.7181 18.2076 43.9492 18.5541 44.2957 18.7851C43.7181 19.1316 43.1405 19.3626 42.9095 19.4782C44.2957 21.5573 45.4509 23.4054 46.6061 25.138C46.4906 25.369 46.3751 25.6 46.1441 25.831C45.1044 25.138 44.2957 24.2139 43.1405 23.8674C41.4077 23.2899 44.6423 19.9402 40.0215 21.4418C40.368 21.2108 40.5991 20.7487 40.9457 20.2867Z" fill="black"/>
<path d="M40.8301 68.5682C40.0214 69.0303 38.8662 69.7233 38.6352 69.6078C37.942 68.7992 37.4799 67.8752 36.9023 66.9511C37.1334 66.8356 37.3644 66.7201 37.5955 66.4891C37.942 66.9511 38.2886 67.5287 38.6352 68.1062C39.2128 67.5287 39.7904 66.9511 40.368 66.1426C40.9456 66.8356 41.4077 67.4132 41.6387 67.7597C42.6784 67.8752 43.3715 67.8752 44.1802 67.9907C43.6026 68.7992 43.025 69.6078 42.2163 70.5318C41.6387 69.4923 41.1766 68.9147 40.8301 68.5682Z" fill="black"/>
<path d="M74.1002 9.54528C73.7537 8.62123 73.4071 7.81268 73.0605 6.88863C73.8692 6.65761 74.6778 6.31109 75.4865 6.08008C75.602 6.31109 75.7175 6.65761 75.7175 6.88863C75.2554 7.11964 74.7934 7.35065 74.2158 7.69717C75.7175 8.39021 76.7572 8.96775 75.833 10.9314C75.602 11.5089 77.1038 13.2415 75.602 14.5121C75.1399 12.7795 74.6778 11.2779 74.2158 9.7763C74.1002 9.66079 74.1002 9.66079 74.1002 9.54528Z" fill="black"/>
<path d="M97.3197 25.0234C98.706 26.6405 98.5904 26.9871 95.9335 28.7196C98.5904 31.8383 94.0851 32.4159 93.7386 35.0725C93.392 34.495 92.9299 34.033 93.0454 33.9174C94.3162 31.9538 95.4714 29.9902 95.7024 27.5646C95.8179 26.6405 96.7421 25.832 97.3197 25.0234Z" fill="black"/>
<path d="M67.1699 27.6797C66.9388 28.3727 66.7078 29.0658 66.7078 29.1813C68.3251 31.4914 69.5958 33.455 70.9821 35.4187C70.751 35.5342 70.6355 35.6497 70.4045 35.8807C69.4803 34.6101 66.4768 34.8411 67.9785 32.069C64.8595 30.4519 64.6284 29.4123 67.1699 27.6797Z" fill="black"/>
<path d="M74.1007 36.11C73.6386 34.3774 69.8265 34.2619 72.0213 31.7207C71.3282 30.9122 70.5196 30.2191 70.2885 29.4106C70.173 28.9486 70.9817 28.2555 71.3282 27.5625C71.5593 27.678 71.7903 27.7935 72.0213 27.909C71.9058 28.371 71.6748 28.8331 71.6748 28.8331C72.7145 31.2587 73.7542 33.4533 74.7939 35.7635L74.1007 36.11Z" fill="black"/>
<path d="M109.333 49.2793C109.564 52.398 106.329 56.2097 102.633 56.0942C104.135 54.8236 105.174 54.0151 106.561 52.9755C106.676 52.7445 107.023 51.936 107.485 51.2429C108.062 50.4344 108.755 49.8568 109.333 49.2793Z" fill="black"/>
<path d="M96.0508 35.3022C97.206 32.299 98.4767 29.4114 99.6319 26.4082C100.441 29.9889 98.0146 32.5301 97.0905 35.5332C96.7439 35.5332 96.3973 35.4177 96.0508 35.3022Z" fill="black"/>
<path d="M72.599 16.7049C71.6748 14.5103 70.7506 12.4311 69.7109 10.121C70.0575 9.65897 70.6351 9.08144 71.0972 8.50391C71.5593 10.2365 71.5593 11.9691 72.3679 13.1242C73.4076 14.5103 74.3318 15.4343 72.599 16.7049Z" fill="black"/>
<path d="M45.4501 65.6812C43.7173 65.5657 42.1 65.5657 40.4827 65.1036C40.0207 64.9881 39.9052 63.6021 39.5586 62.5625C41.869 63.4866 43.7173 64.1796 45.6812 64.8726C45.5656 65.1036 45.5657 65.3347 45.4501 65.6812Z" fill="black"/>
<path d="M74.7928 78.5033C73.06 77.9258 71.2117 77.3482 69.4789 76.6552C69.1323 76.5397 68.9012 75.8466 68.5547 75.5001C69.0168 75.3846 69.5944 75.0381 69.9409 75.2691C73.6376 76.8862 77.2187 76.7707 81.0309 75.5001C81.6085 75.2691 82.3017 75.6156 82.8793 75.7311C82.5327 76.1932 82.1861 76.8862 81.7241 77.0017C79.5292 77.5792 77.2187 78.0413 74.7928 78.5033Z" fill="black"/>
<path d="M68.4398 57.5956C67.2845 57.8266 66.0138 58.0576 64.8586 58.2886C64.3965 58.4042 63.7034 58.4042 63.5879 58.1731C63.3568 57.8266 63.3568 57.1336 63.4724 56.7871C64.281 54.8234 69.0174 54.1304 70.4036 55.7475C70.6346 56.094 70.7502 56.9026 70.5191 57.1336C70.057 57.5956 69.2484 57.8266 68.5553 58.2886C68.5553 57.9421 68.5553 57.7111 68.4398 57.5956Z" fill="black"/>
<path d="M87.1552 58.0572C84.6137 58.4037 83.1119 58.6347 81.4946 58.7502C81.0326 58.7502 80.3394 58.9812 80.1084 58.7502C79.8773 58.4037 79.7618 57.7106 79.8774 57.3641C81.0326 55.516 82.8809 55.1695 84.7292 55.6315C85.6534 55.747 86.3465 57.1331 87.1552 58.0572Z" fill="black"/>
<path d="M76.6419 65.2188C77.7971 66.0273 79.1834 66.7203 80.1075 67.7599C81.3783 69.2615 81.0317 70.9941 79.5299 72.1491C78.4902 72.9577 77.104 73.1887 76.2953 71.1096C77.2195 70.9941 78.0281 70.7631 78.9523 70.6476C80.2231 68.1064 74.2159 67.6444 76.6419 65.2188Z" fill="black"/>
<path d="M63.0117 61.8699C64.5135 61.1768 65.8997 60.1373 67.4015 60.0218C68.7878 59.9062 70.5206 60.4838 70.7516 62.6784C70.4051 62.7939 69.943 63.025 69.8274 62.9094C68.2102 61.4078 66.5929 61.0613 65.0911 63.1405C64.8601 63.3715 64.0514 63.025 63.4738 63.025C63.1272 62.5629 63.1272 62.2164 63.0117 61.8699Z" fill="black"/>
<path d="M87.6165 63.948C85.1906 61.6378 83.1112 60.9448 80.8008 63.948C80.8008 61.2913 81.8405 60.2517 83.8043 60.2517C85.8837 60.1362 87.27 60.7138 87.6165 63.948Z" fill="black"/>
<path d="M97.4352 157.624C96.3956 158.317 95.7024 159.01 95.1248 158.895C94.5472 158.895 94.0851 157.971 93.623 157.509C94.3162 156.931 94.8938 156.238 95.5869 155.892C95.818 155.776 96.5111 156.816 97.4352 157.624Z" fill="black"/>
</svg>
