<svg width="32" height="32" viewBox="0 0 32 32" fill="none" xmlns="http://www.w3.org/2000/svg">
<circle cx="16" cy="16" r="15" fill="black" stroke="black" stroke-width="2"/>
<path d="M9.43463 9.68104C10.5008 10.2539 11.6415 11.0759 12.825 12.1241C14.2739 13.4075 15.4161 14.6979 15.9595 15.3417C16.9928 13.6677 20.4472 7.65617 19.0419 4.24531C18.5557 3.06599 17.5474 2.33133 15.9606 2C10.6222 2.01489 5.97688 5.03286 3.62891 9.45015C4.24712 9.01194 4.93956 8.76172 5.70244 8.70327C6.81265 8.61816 8.06842 8.94727 9.43463 9.68104Z" fill="#BEBE3B"/>
<path d="M19.7568 3.95129C20.1808 4.98106 20.2564 6.27682 19.9804 7.80281C19.765 8.99391 19.3359 10.333 18.7044 11.7821C17.9313 13.5568 17.0573 15.0421 16.6133 15.7576C17.7075 16.0241 20.4001 16.6061 23.029 16.6063C24.9916 16.6063 26.9183 16.2821 28.1187 15.2601C29.0914 14.4323 29.4785 13.2448 29.3014 11.6301C27.705 6.78171 23.5263 3.09507 18.4004 2.20575C19.0113 2.65908 19.4648 3.24174 19.7568 3.95129Z" fill="#F9A66B"/>
<path d="M17.5954 24.9707C17.0694 23.8804 16.6296 22.5449 16.2885 21.0014C15.8709 19.1114 15.7052 17.3961 15.6438 16.5558C13.8238 17.303 7.49567 20.1358 6.6279 23.7213C6.32902 24.9553 6.70812 26.1366 7.78545 27.3315C10.0939 29.0093 12.9325 29.9997 15.9978 29.9997C18.2069 29.9997 20.2984 29.4853 22.1586 28.5697C21.4 28.5611 20.692 28.3566 20.0402 27.9553C19.092 27.3717 18.2691 26.3675 17.5954 24.9707Z" fill="#EF604B"/>
<path d="M29.8609 14.0206C29.6182 14.741 29.2047 15.3526 28.62 15.8497C27.772 16.5712 26.5627 17.0432 25.0258 17.2525C24.4056 17.337 23.7299 17.379 23.0045 17.379C22.3274 17.379 21.607 17.3423 20.847 17.2688C18.9203 17.0819 17.2377 16.7097 16.4199 16.5081C16.5679 18.4701 17.3066 25.364 20.4486 27.2971C21.5297 27.9624 22.7705 27.9671 24.2403 27.3118C27.7294 24.7634 30.0002 20.6418 30.0002 15.9997C30.0002 15.3281 29.9525 14.6672 29.8609 14.0206Z" fill="#E1AC47"/>
<path d="M5.87863 23.5387C6.14085 22.4565 6.84173 21.3638 7.96195 20.2916C8.83616 19.4545 9.97037 18.6236 11.333 17.8223C13.0015 16.8408 14.5817 16.153 15.3617 15.8354C14.0886 14.335 9.4386 9.19149 5.76108 9.47482C4.48753 9.5726 3.47621 10.3064 2.67022 11.717C2.23489 13.0672 2 14.5063 2 15.9997C2 19.7776 3.50421 23.2107 5.94508 25.7318C5.72219 25.0118 5.6993 24.2791 5.87863 23.5387Z" fill="#9BC2D4"/>
</svg>
