<svg width="36" height="38" viewBox="0 0 36 38" fill="none" xmlns="http://www.w3.org/2000/svg">
<path fill-rule="evenodd" clip-rule="evenodd" d="M17.6607 36.228C26.8622 36.228 34.3215 28.393 34.3215 18.728C34.3215 9.06304 26.8622 1.22803 17.6607 1.22803C8.45927 1.22803 1 9.06304 1 18.728C1 28.393 8.45927 36.228 17.6607 36.228Z" stroke="white" stroke-width="2"/>
<path d="M13.6024 11.8917L13.6016 11.892C13.2035 12.0455 12.8747 12.2494 12.5373 12.5868C12.202 12.9222 11.9993 13.2536 11.8417 13.6533C11.6915 14.0413 11.5818 14.4949 11.5507 15.1925L11.5507 15.1925C11.5178 15.9254 11.5095 16.1554 11.5095 18.0515C11.5095 19.9475 11.5178 20.1777 11.5507 20.9133L13.6024 11.8917ZM13.6024 11.8917C13.9908 11.7412 14.4447 11.6314 15.1401 11.6002L13.6024 11.8917ZM23.9194 22.3616C23.7677 22.7506 23.5806 23.0428 23.2855 23.3378C22.9921 23.6312 22.6995 23.8229 22.3054 23.9732L23.9194 22.3616ZM23.9194 22.3616C24.0366 22.0634 24.1618 21.6401 24.1948 20.9027L23.9194 22.3616ZM18.002 11.8193C19.8729 11.8193 20.1009 11.8277 20.8502 11.8615L18.002 11.8193ZM18.002 11.8193C16.1363 11.8193 15.9033 11.8248 15.1527 11.8615M18.002 11.8193L15.1527 11.8615M12.0846 13.747C11.9674 14.0452 11.8421 14.4685 11.8091 15.2059L12.0846 13.747ZM12.0846 13.747C12.2363 13.3581 12.4234 13.0658 12.7185 12.7708C13.0118 12.4774 13.3045 12.2857 13.6986 12.1354L12.0846 13.747ZM15.1527 11.8615C14.4129 11.8947 13.9914 12.0235 13.6988 12.1353L15.1527 11.8615ZM18.002 11.5591C16.106 11.5591 15.8758 11.5674 15.1402 11.6002L18.002 11.5591ZM18.002 11.5591C19.897 11.5591 20.1287 11.5674 20.8676 11.5975C21.5646 11.6287 22.018 11.7383 22.4058 11.8884C22.8055 12.0461 23.1369 12.2487 23.4722 12.5841C23.8096 12.9214 24.0135 13.2502 24.167 13.6482M18.002 11.5591L24.167 13.6482M11.8425 22.4548C11.996 22.8528 12.1999 23.1816 12.5373 23.519C12.8726 23.8543 13.204 24.057 13.6037 24.2146C13.9917 24.3648 14.4453 24.4745 15.1429 24.5056C15.8786 24.5384 16.1059 24.5468 18.0048 24.5468C19.9035 24.5468 20.1309 24.5384 20.8665 24.5056L11.8425 22.4548ZM11.8425 22.4548C11.6916 22.0629 11.5818 21.6086 11.5507 20.9134L11.8425 22.4548ZM24.167 13.6482C24.3179 14.0402 24.4277 14.4944 24.4588 15.1897L24.167 13.6482ZM22.3092 12.1369C22.011 12.0197 21.5877 11.8945 20.8504 11.8615L23.6953 20.8802C23.7286 20.1418 23.737 19.9225 23.737 18.0543C23.737 16.1861 23.7286 15.9668 23.6953 15.2285L24.1948 15.2061C24.1948 15.2061 24.1948 15.206 24.1948 15.2059C24.1617 14.4656 24.0328 14.0439 23.921 13.7512C23.7707 13.357 23.579 13.0642 23.2855 12.7708C22.9904 12.4757 22.6982 12.2886 22.3092 12.1369ZM18.002 24.2893C19.8729 24.2893 20.1009 24.281 20.8502 24.2472L12.0831 22.3577C12.2334 22.7518 12.4251 23.0445 12.7185 23.3378C13.0135 23.6329 13.3057 23.82 13.6946 23.9717C13.9929 24.0889 14.4163 24.2142 15.1538 24.2472C15.9031 24.281 16.1311 24.2893 18.002 24.2893ZM11.8091 20.9027C11.8423 21.643 11.9712 22.0647 12.083 22.3574L11.8091 20.9027ZM11.767 18.0543C11.767 19.9252 11.7753 20.1532 11.8091 20.9025V15.2061C11.7753 15.9554 11.767 16.1834 11.767 18.0543ZM23.4722 23.519C23.1349 23.8564 22.8061 24.0603 22.4081 24.2138L24.4589 15.1898C24.4917 15.9254 24.5 16.1528 24.5 18.0515C24.5 19.9504 24.4917 20.1777 24.4588 20.9134C24.4277 21.6109 24.3181 22.0645 24.1679 22.4524C24.0103 22.8522 23.8076 23.1837 23.4722 23.519ZM22.4079 24.2138C22.016 24.3647 21.5618 24.4745 20.8666 24.5056L22.4079 24.2138Z" fill="white" stroke="white"/>
<path d="M14.9102 18.0544C14.9102 16.346 16.2961 14.9624 18.0022 14.9624C19.7108 14.9624 21.0942 16.3458 21.0942 18.0544C21.0942 19.763 19.7108 21.1464 18.0022 21.1464C16.2935 21.1464 14.9102 19.763 14.9102 18.0544ZM15.1704 18.0516C15.1704 19.6158 16.438 20.8834 18.0022 20.8834C19.5663 20.8834 20.8339 19.6158 20.8339 18.0516C20.8339 16.4875 19.5663 15.2199 18.0022 15.2199C16.438 15.2199 15.1704 16.4875 15.1704 18.0516Z" fill="white" stroke="white"/>
<path d="M22.0739 14.3178C22.0739 14.5047 21.9224 14.6561 21.7355 14.6561C21.5487 14.6561 21.3972 14.5047 21.3972 14.3178C21.3972 14.131 21.5487 13.9795 21.7355 13.9795C21.9224 13.9795 22.0739 14.131 22.0739 14.3178Z" fill="white" stroke="white"/>
</svg>
