<svg width="50" height="51" viewBox="0 0 50 51" fill="none" xmlns="http://www.w3.org/2000/svg">
<path d="M21.7586 59.3224L19.1535 59.1135C19.1535 61.2353 19.1833 63.285 19.1237 65.3347C19.1237 65.6949 18.7516 66.0551 18.5357 66.4153C18.3757 66.7035 18.0966 66.9881 18.0891 67.2835C17.9142 72.9499 17.7989 78.6235 17.6128 84.2899C17.4676 88.7819 17.2592 93.274 17.0359 97.7624C16.9836 98.1961 16.7967 98.6043 16.5 98.9332C14.9332 100.734 12.8789 101.912 10.6497 102.78C9.77882 103.123 8.78888 103.141 8.14132 102.28C7.49376 101.419 7.98873 100.59 8.45765 99.8157C8.56274 99.638 8.71929 99.494 8.90797 99.4015C12.0788 97.9606 12.1011 95.212 12.049 92.3986C11.9597 87.6976 11.9225 82.9931 11.8629 78.2885C11.8145 74.6862 11.7661 71.0839 11.6917 67.4816C11.6917 67.1898 11.5652 66.7287 11.3605 66.6387C10.0207 66.0407 10.244 64.9204 10.244 63.8469C10.2068 62.406 10.1398 60.9327 10.0133 59.4773C9.83836 57.4853 9.59646 55.5148 9.38433 53.4831C8.77981 53.9846 8.1407 54.4455 7.47143 54.8628C6.91319 55.1618 6.38845 55.0393 6.03118 54.3729C5.73717 53.8218 5.21615 53.3895 4.84771 52.8707C4.38251 52.2151 4.40484 51.7901 5.33896 51.4298C6.20981 51.0984 6.95413 50.4464 8.01106 49.7692C7.23697 49.409 6.82388 49.2324 6.45544 49.0055C4.9668 48.0977 3.42234 47.2944 2.09746 46.2173C-0.0610682 44.463 -0.589536 41.2282 0.679527 38.5156C1.10751 37.5971 1.70297 36.7577 2.21655 35.8788C2.33564 35.677 2.5887 35.378 2.51427 35.27C1.79973 34.092 2.74129 33.649 3.50794 33.1915C6.16516 31.6065 8.83353 30.0323 11.5391 28.5085C12.0862 28.2023 12.8156 28.1951 13.56 28.0294C13.854 27.3666 13.653 26.9235 12.8156 26.5452C11.9109 26.1455 11.076 25.612 10.3408 24.9638C8.39439 23.2059 6.41822 21.4588 5.35757 18.984C3.98058 15.7708 4.47183 12.6512 5.77811 9.57127C6.32094 8.30607 6.9334 7.06991 7.61285 5.86812C7.94877 5.28008 8.38834 4.75341 8.91169 4.31194C9.69694 3.65992 10.2291 3.86165 10.5864 4.69378C11.7885 3.52664 12.9757 2.25863 14.308 1.13472C14.896 0.637605 15.7706 0.244954 16.3177 1.30763C16.8598 1.05862 17.4151 0.837376 17.9812 0.644809C19.615 0.17291 20.5863 0.878957 20.6087 2.5288C20.6087 3.22404 20.4933 3.96972 21.4907 4.13903C22.235 2.92145 22.6444 2.92145 23.478 4.13903C23.655 4.33216 23.8521 4.50719 24.066 4.66136C24.36 4.93513 24.8103 5.17288 24.9108 5.50789C25.5621 7.50716 26.3362 9.49923 26.7009 11.5561C27.4452 15.7708 26.4143 19.546 23.1952 22.6476C22.7337 23.0943 22.4806 23.7283 22.0787 24.247C21.6246 24.8197 21.085 25.3277 20.631 25.8932C20.4538 26.1723 20.309 26.4695 20.1993 26.7794C20.4784 26.9019 20.765 27.1396 21.0404 27.1216C22.5346 27.0792 24.0254 26.9589 25.5063 26.7614C26.0682 26.6749 26.5334 26.0986 27.0879 25.8284C27.8658 25.4465 28.6919 25.1584 29.4772 24.7873C29.771 24.6483 30.0262 24.4433 30.2215 24.1893C32.5959 20.9473 35.0261 17.7737 37.2925 14.4632C38.5132 12.6873 39.4213 10.7132 40.5117 8.84721C41.431 7.27301 41.0141 5.60516 40.9472 3.96972C40.9062 2.92866 40.7797 1.83356 42.3539 1.40489C42.4656 1.94884 42.5623 2.43154 42.6591 2.92145C43.4406 1.92002 44.2147 0.918583 44.9293 0C46.0457 0.691639 47.0692 1.15994 47.8507 1.86598C48.1708 2.15417 48.007 2.94667 48.0703 3.56986L49.09 4.22908C48.8243 4.65231 48.5296 5.05787 48.208 5.44305C46.4104 7.33786 44.438 9.07416 43.3699 11.5381C41.0774 16.765 38.4053 21.801 34.747 26.3075C34.1552 27.028 33.6305 27.7988 33.0648 28.5553C32.9494 28.7174 32.7373 28.9732 32.7931 29.074C33.5151 30.4105 32.3466 30.9869 31.6432 31.6893C30.2997 33.0222 30.0578 34.5351 30.5267 36.2786C30.8728 37.561 31.0924 38.8795 31.3938 40.1763C31.6246 41.1561 30.8356 41.592 30.2104 41.7721C28.3831 42.298 28.2267 43.4868 28.4314 45.0142C28.8036 47.7807 29.1758 50.5509 29.3991 53.3318C29.6782 56.999 29.7973 60.6769 29.9759 64.3476C29.9759 64.5422 29.9759 64.8411 29.8456 64.9132C28.5133 65.7273 29.0492 67.0313 29.0381 68.0976C28.9822 73.1768 29.0381 78.2597 29.0641 83.3425C29.0641 86.617 29.3246 89.9058 29.0864 93.1623C28.9339 95.23 29.9164 96.2711 31.4199 97.2941C32.132 97.7815 32.76 98.3748 33.2807 99.052C33.5947 99.4151 33.7668 99.8736 33.7668 100.347C33.7668 100.821 33.5947 101.279 33.2807 101.642C32.5996 102.514 31.6729 102.557 30.8095 102.092C28.6994 100.958 26.6339 99.7401 24.5759 98.5189C24.4807 98.4233 24.4061 98.3104 24.3563 98.1868C24.3064 98.0631 24.2824 97.9312 24.2856 97.7985C24.1442 94.6032 23.9841 91.4044 23.9134 88.2092C23.7906 82.9498 23.7422 77.6905 23.6306 72.4312C23.5934 70.7309 23.5524 69.0198 23.3403 67.3375C23.2138 66.3037 22.6592 65.3275 22.4694 64.2972C22.1643 62.6726 22.008 61.0263 21.781 59.326L21.7586 59.3224ZM12.1867 28.8435C8.75777 30.2488 5.55841 32.1297 2.68919 34.427C3.69402 35.8175 4.71001 37.0531 5.52132 38.3896C6.0349 39.2469 6.49266 39.3694 7.25558 38.8146C7.28908 38.3607 7.32629 37.9068 7.35979 37.453C7.49005 37.5565 7.59643 37.6854 7.67207 37.8312C7.74771 37.977 7.79093 38.1365 7.79893 38.2995C7.9664 40.4789 8.13015 42.6583 8.26785 44.8376C8.39811 46.9378 8.55442 47.0855 10.7464 46.9414C10.9962 46.9303 11.2449 46.9026 11.4908 46.8585C17.3783 45.6734 23.2063 44.2901 28.744 41.9522C30.8467 41.0625 30.8914 40.9832 30.389 38.7966C30.296 38.4004 30.2773 37.9897 30.1806 37.5971C29.4809 34.8665 29.4698 32.2981 31.9632 30.2988C32.0854 30.1915 32.1941 30.0706 32.287 29.9386C31.3119 28.4977 30.4262 27.082 29.4177 25.7455C29.28 25.5582 28.5096 25.533 28.3012 25.7167C26.7381 27.0748 24.922 27.5431 22.8714 27.4206C22.3232 27.4393 21.7778 27.5044 21.2413 27.6151C22.2983 28.4869 22.3578 29.056 21.5167 29.971C19.7192 31.9415 15.8934 32.6115 13.5376 31.3363C12.5998 30.8284 11.714 30.2556 12.1867 28.8327V28.8435ZM12.6333 66.1524C13.9656 66.0947 15.0523 65.9795 16.1316 66.0155C18.8669 66.1056 18.3645 65.947 18.5246 63.7533C18.6437 62.035 18.5469 60.3023 18.5469 58.4903L22.2908 58.6524C22.4694 59.9709 22.663 61.2857 22.8304 62.6149C22.9167 63.5379 23.0697 64.4539 23.2882 65.3563C23.385 65.6805 24.0065 66.1452 24.2893 66.0767C26.0459 65.7165 27.7764 65.2158 29.5479 64.7547C29.0678 58.7497 28.6175 53.0689 28.1523 47.2512C22.5168 47.0304 16.8763 47.5453 11.3828 48.7822C11.8034 54.6179 12.2127 60.2915 12.6333 66.156V66.1524ZM7.12905 17.1109C7.15138 16.9524 7.09555 17.1361 7.10299 17.3162C7.16254 19.3767 8.8112 20.8068 9.38433 22.6692C9.81603 24.0705 10.9809 24.8594 12.1644 25.6447C15.1751 27.6439 20.8617 26.7614 22.168 22.9394C22.5029 21.9703 22.7858 20.9905 23.0872 20.0143C23.1431 19.8342 23.117 19.5316 23.2212 19.4812C24.9443 18.7031 24.2893 17.2658 24.2074 16.1599C23.7534 15.9941 23.2994 15.76 23.251 15.4646C23.0426 14.1642 22.2499 13.3032 21.2562 12.4927C20.2625 11.6822 19.2726 10.8537 18.1636 9.9387C17.6612 10.0252 16.8871 10.1909 16.1018 10.2989C12.2202 10.7852 8.95263 11.9524 8.47626 16.4228C8.45393 16.6426 7.76544 16.783 7.12905 17.1109ZM12.5663 66.7972C12.5663 70.4535 12.5663 74.0018 12.5663 77.5392C12.5663 81.0118 12.5216 84.4808 12.5663 87.9498C12.5663 90.2445 12.7673 92.5355 12.7375 94.8266C12.6598 95.6918 12.432 96.5382 12.0639 97.3302C11.7117 98.1212 11.3179 98.8943 10.8841 99.6464C11.8316 99.6872 12.7806 99.6812 13.7274 99.6284C15.0077 99.4843 16.8945 97.1969 16.3028 96.7214L15.3166 96.9987V95.0247L16.4554 95.6407C16.7494 85.9649 17.0396 76.4153 17.3337 66.7972H12.5663ZM28.331 66.0335L23.9358 66.9377C23.9156 67.1195 23.9056 67.3023 23.906 67.4852C24.0573 71.5462 24.2124 75.606 24.3712 79.6646C24.5498 84.2731 24.7235 88.8816 24.8922 93.4901C24.9183 94.2106 24.9257 94.931 25.8598 94.7833C25.9901 95.3777 26.1017 95.864 26.2096 96.3647L25.9715 96.5557L24.9778 95.3633C24.5238 96.9519 25.0894 98.1695 26.7269 98.6486C27.6201 98.908 28.6473 98.7927 29.6112 98.7458C30.0354 98.7242 30.4485 98.4505 30.8654 98.292C30.6309 97.9317 30.4746 97.4706 30.1471 97.2113C29.0083 96.3647 28.2342 95.4678 28.4166 93.9008C28.5877 92.395 28.4352 90.8532 28.4166 89.3259C28.3831 87.5572 28.2826 85.7884 28.3012 84.0233C28.3347 81.4513 28.4687 78.8793 28.517 76.3072C28.517 75.5435 28.3533 74.7835 28.3458 74.0198C28.3235 71.3829 28.3458 68.746 28.3458 66.0155L28.331 66.0335ZM32.1828 28.4472C33.757 26.5272 35.335 24.9855 36.4366 23.1735C38.7254 19.4091 41.1407 15.6952 42.6516 11.5273C43.0659 10.4374 43.6467 9.41374 44.3747 8.49059C45.2642 7.34146 46.3509 6.32922 47.2478 5.38182L45.1674 3.45099L44.0844 3.72476C44.1552 2.96468 44.2073 2.39552 44.2631 1.81195C43.1466 2.17218 43.8909 5.01078 41.5352 3.56626C41.4753 4.05446 41.4753 4.5478 41.5352 5.036C42.0301 6.90198 41.3751 8.49779 40.5341 10.1368C37.9848 15.1044 34.6353 19.564 31.3082 24.0417C30.9361 24.5424 30.2327 25.0431 30.2513 25.5258C30.2736 26.1274 30.8691 26.7182 31.2487 27.2909C31.498 27.6511 31.8069 28.0114 32.1679 28.4472H32.1828ZM9.68206 12.1649C11.4945 10.5547 13.1841 10.0576 15.3128 9.83064C17.7021 9.57127 19.8346 8.96249 20.8319 6.58858C21.0701 6.01942 21.1855 4.96395 20.858 4.69378C20.002 3.97332 20.1583 3.1448 20.0653 2.30546C19.9462 1.22478 19.3024 0.70965 18.2715 1.05187C16.8573 1.52377 15.4729 2.16858 15.097 3.75718C14.7211 5.34579 13.4706 6.27878 12.3318 7.33786C10.9921 8.56624 10.177 10.09 9.68206 12.1505V12.1649ZM7.9999 16.059C8.4651 14.2146 8.71445 12.3666 9.41783 10.6988C10.0133 9.29029 10.8692 7.74491 12.0825 6.87676C14.107 5.43585 14.5834 3.35373 15.5622 1.27161C15.2756 1.34725 15.1416 1.34365 15.0746 1.40849C13.9396 2.48918 12.7486 3.50862 11.6992 4.65055C10.7204 5.73124 10.311 5.73124 9.723 4.49205C5.59575 7.99707 2.61103 17.5071 8.707 22.5035C8.13387 21.3832 7.63518 20.5727 7.30024 19.7045C6.93867 18.8331 6.6887 17.9222 6.55592 16.992C6.45916 16.1382 6.86853 15.5511 7.99245 16.0698L7.9999 16.059ZM23.251 21.113L23.6864 21.2643C25.9715 18.1303 27.0358 14.6757 26.1054 10.8717C25.6626 9.04174 24.8178 7.30543 24.1293 5.45026L23.3589 5.36741L22.4285 3.65992C22.0673 5.95311 20.8811 8.04918 19.0791 9.57848C19.3656 10.0324 19.5368 10.7276 19.9276 10.8717C22.3876 11.7831 23.1058 14.3083 24.9443 15.7708C25.0276 15.8589 25.0877 15.9652 25.1192 16.0806C25.4728 17.1 24.8066 19.283 24.0027 20.0143C23.7122 20.3519 23.4625 20.7205 23.2584 21.113H23.251ZM7.5868 45.7742C4.93331 44.8449 3.97314 43.9731 4.23737 41.646C4.32297 40.9039 4.60953 40.1835 4.72862 39.445C4.79189 39.0848 4.89237 38.6093 4.72862 38.3463C4.2076 37.5502 3.56004 36.8334 2.94226 36.0589C2.70779 36.3399 2.54032 36.52 2.3989 36.7181C0.251545 39.654 -0.0908419 43.8254 2.82316 46.1777C4.05873 47.1719 5.61808 47.8167 7.08439 48.512C8.55069 49.2072 8.65862 49.5062 7.71334 50.7634C7.56031 50.9447 7.38819 51.1101 7.19976 51.2569C7.50121 52.1935 7.76544 53.004 8.01478 53.7785C9.1722 52.7771 9.28385 52.4565 9.13126 50.9291C9.0866 50.4176 9.25035 49.8881 9.18337 49.3837C9.10149 48.7822 8.98984 47.7627 8.69212 47.6871C7.55331 47.4097 7.57564 46.6748 7.57564 45.7851L7.5868 45.7742ZM13.2064 30.3421C15.5622 32.0675 19.161 31.6317 20.7873 29.5063C20.27 28.4941 19.8085 27.5935 19.4103 26.8082L14.5462 27.5287L13.2064 30.3384V30.3421ZM9.65601 48.0365L9.85697 48.3967C15.751 46.9407 21.8263 46.2884 27.9067 46.4587C27.7355 45.324 27.5904 44.3441 27.4378 43.3499C25.3314 43.9839 23.318 44.6936 21.2525 45.1943C17.7021 46.048 14.1145 46.7613 10.5492 47.5574C10.2305 47.6773 9.93001 47.8385 9.65601 48.0365ZM5.31291 39.8485C4.07734 42.525 5.04123 44.726 7.49376 44.8052V39.6396L5.31291 39.8485ZM11.3382 65.929L11.7848 65.7921C11.3865 60.2446 10.9883 54.6935 10.5641 48.7497C10.2403 49.2108 9.90163 49.4702 9.88302 49.7656C9.89725 50.3688 9.95195 50.9704 10.0468 51.5667C10.2105 53.6921 10.3817 55.821 10.5083 57.9536C10.6422 60.1438 10.6981 62.3339 10.8506 64.5241C10.9512 65.0105 11.115 65.4826 11.3382 65.929ZM32.3577 100.817C31.1743 99.3402 29.9052 99.0448 28.5505 99.931C29.7935 100.425 30.7835 101.372 32.3577 100.817ZM12.5402 100.536C11.1186 99.9094 10.2663 100.536 9.76021 101.819L12.5402 100.536Z" fill="black"/>
<path d="M12.7266 21.3924C14.3164 20.1175 16.0388 20.2249 17.7721 20.6822C17.9856 20.7411 18.2469 21.5136 18.1659 21.5795C17.3268 22.2135 16.4804 23.1073 15.5235 23.2528C14.3348 23.4329 13.3375 22.5841 12.7266 21.3924ZM13.5362 21.5344C14.9494 23.0553 16.4289 22.9202 17.5182 21.2538C16.1749 21.0044 14.8942 20.8069 13.5362 21.5344Z" fill="black"/>
<path d="M12.7273 14.5187L9.7727 15.1299C9.48568 14.2261 10.0698 13.8506 10.6067 13.5537C11.4002 13.1171 12.0215 13.5537 12.7273 14.5187Z" fill="black"/>
<path d="M21.817 16.1283C20.3572 15.8523 19.0629 15.5728 18.3415 16.8756C18.0105 15.9331 18.1759 15.5291 18.9737 15.3035C19.9752 15.0342 20.9937 14.9299 21.817 16.1283Z" fill="black"/>
<path d="M18.1807 14.3348C18.5676 14.0113 18.9374 13.4561 19.3448 13.4194C20.0296 13.3606 20.8754 13.2576 21.2109 14.2318L18.3621 14.548L18.1807 14.3348Z" fill="black"/>
<path d="M9.69702 16.8757C10.2448 16.4649 10.8975 16.1752 11.8648 16.3416C12.3116 16.4176 12.6806 16.6292 13.3333 16.8757H9.69702Z" fill="black"/>
<path d="M16.1083 17.3789L15.6018 18.216L16.3434 18.7408C16.3434 18.9186 16.3434 19.0097 16.363 19.1051C16.0831 19.1051 15.6801 19.3263 15.5374 19.1051C15.4119 18.9191 15.3127 18.6946 15.2462 18.446C15.1797 18.1973 15.1473 17.9299 15.1512 17.6608C15.1792 17.3485 15.6437 17.136 15.9152 16.8757L16.1083 17.3702" fill="black"/>
</svg>
