<svg width="57" height="53" viewBox="0 0 57 53" fill="none" xmlns="http://www.w3.org/2000/svg">
<path d="M5.47205 64.4768C5.39518 63.3764 5.26572 62.2761 5.24954 61.1757C5.16054 56.0699 6.26092 51.11 7.4139 46.2126C8.51024 41.557 10.088 37.043 11.4594 32.4582C11.5473 32.269 11.6589 32.0925 11.7912 31.9331L11.9934 32.0414C11.8883 32.6333 11.7871 33.2293 11.6819 33.8212L12.0137 33.9545C12.4951 32.9251 13.2759 31.9331 13.4013 30.8577C13.6481 28.7279 13.5995 26.5564 12.6974 24.5015C11.8883 22.6093 11.9166 22.5884 10.3267 23.793C10.0177 23.9938 9.72174 24.2152 9.44071 24.4557C7.0951 26.8438 5.47803 29.8861 4.78835 33.2085C3.80933 37.5098 2.96382 41.8487 2.08189 46.1751C1.0786 51.0892 0.32209 56.0366 0.560776 61.084C0.641801 61.9397 0.776939 62.789 0.965329 63.6265L1.1231 63.5973C1.06242 62.5053 1.00578 61.4091 0.9451 60.3171L1.23233 60.2921L1.68139 63.093L1.97671 63.0638V60.6089H2.31249C2.25977 61.1972 2.26791 61.7896 2.33676 62.3761C2.53095 63.3014 2.33676 64.4601 3.47356 64.9436L3.63942 65.1103C3.48974 65.2562 3.32792 65.5271 3.19441 65.5271C2.59567 65.4688 2.00503 65.3312 1.17165 65.1728C0.826816 64.4304 0.555735 63.654 0.362543 62.8554C-0.156297 59.5013 -0.117994 56.0806 0.475817 52.7397C1.38606 47.2046 2.40958 41.6903 3.49378 36.1886C4.14916 32.8792 5.0594 29.6448 6.90821 26.7689C8.52642 24.2431 10.8688 22.6009 13.4701 21.1338C10.3833 19.6375 8.28773 17.4118 7.84677 13.9398C7.62831 12.2226 7.24399 10.3262 7.72136 8.76735C8.93502 4.81192 13.1505 0.577238 18.1386 1.15242C18.5738 1.25003 19.027 1.21823 19.4453 1.06073C21.3872 -0.0604653 23.4908 -0.0479618 25.5986 0.0312301C27.6368 0.0797435 29.6397 0.590415 31.4646 1.52692C33.2896 2.46342 34.8918 3.80275 36.1574 5.44962C39.3938 9.48841 40.0128 14.0815 38.1235 19.029C37.942 19.4658 37.9134 19.9539 38.0426 20.4101C38.1717 20.8662 38.4505 21.262 38.8315 21.5298C40.1641 22.5293 41.3437 23.7291 42.3309 25.0892C44.2323 27.9568 44.7824 31.3662 45.0454 34.734C45.4431 39.656 46.2375 44.5355 47.4201 49.3219C47.7235 50.5723 47.8773 51.8936 49.1031 52.6563C50.5182 53.5905 51.5461 55.0327 51.9875 56.7035C52.1015 57.1409 52.2701 57.5612 52.4892 57.9539C53.3567 59.3796 53.801 61.0355 53.7676 62.7179C53.7676 64.3559 53.6017 65.9981 53.6341 67.6361C53.6907 70.5537 53.9051 73.4713 53.9415 76.4139C53.9779 79.2356 53.8849 82.0657 53.8283 84.8875C53.7271 90.2433 53.6098 95.5992 53.5046 100.955C53.4844 102.005 53.5046 103.039 53.5046 104.073C56.0533 104.415 57.1739 105.982 56.6601 108.395C56.5752 108.778 56.1099 109.078 55.8187 109.416C55.4945 109.116 55.2078 108.776 54.965 108.403C54.7755 107.941 54.6305 107.461 54.5322 106.969C54.3137 107.861 54.4027 108.858 53.3752 108.928C52.9221 108.958 52.4204 108.228 51.7569 107.711C51.798 108.311 51.7885 108.914 51.7286 109.512C51.6639 109.895 51.3241 110.525 51.1299 110.525C50.6404 110.525 49.8636 110.329 49.7301 109.991C49.455 109.299 49.4995 108.462 49.455 107.678C49.4679 107.375 49.5085 107.073 49.5764 106.778L49.1718 106.636C48.8118 107.378 48.4801 108.141 48.0715 108.858C47.9016 109.149 47.5496 109.516 47.2866 109.512C47.1133 109.475 46.9504 109.398 46.8102 109.287C46.67 109.176 46.5562 109.033 46.4775 108.87C46.3031 108.462 46.2523 108.008 46.3319 107.57C46.8416 105.227 47.9056 104.277 50.4502 103.852V102.568C50.4138 98.6043 50.2925 94.6489 50.3612 90.681C50.434 86.5713 50.7941 82.47 50.8346 78.3604C50.8872 73.1837 50.7617 68.0029 50.6646 62.8263C50.6067 61.9595 50.4478 61.1031 50.1913 60.2754C50.1185 59.9878 49.7868 59.7794 49.7261 59.7128C49.0383 60.3921 48.2292 61.5092 47.9703 61.38C46.9751 60.9173 46.1579 60.0504 45.1385 59.2209C44.1918 59.5002 44.1878 60.6297 44.0138 61.605C43.8843 62.3386 43.5607 63.0055 42.8487 62.7679C42.5774 62.6337 42.3416 62.4341 42.1613 62.1859C41.981 61.9377 41.8615 61.6484 41.813 61.3424C41.813 60.4297 42.1731 59.5127 42.3834 58.5957C42.4441 58.3498 42.6019 58.0789 42.5534 57.858C42.076 55.8407 41.5622 53.8275 41.0686 51.8144C40.3647 48.9176 39.6689 46.0251 38.9609 43.1033C38.0507 43.1575 37.901 43.7785 37.8889 44.5204C37.8363 47.5005 37.7756 50.4765 37.723 53.4566C37.6461 57.6246 37.5976 61.7676 37.4924 65.9231C37.4277 68.6239 37.1566 71.3415 37.2011 74.0215C37.2861 79.5691 37.5126 85.1125 37.7109 90.656C37.7604 91.017 37.6721 91.3837 37.4647 91.6791C37.2572 91.9744 36.9467 92.1754 36.5983 92.2398C35.4696 92.5857 34.3288 92.915 33.2163 93.3151C32.8886 93.436 32.4072 93.7319 32.3869 94.0112C32.0228 97.0622 31.7518 100.121 31.412 103.181C31.2178 104.911 32.035 106.232 32.8562 107.603C33.7786 109.137 34.9154 110.646 35.3726 112.334C36.2019 115.406 35.587 116.052 32.4274 116.002C32.0211 115.986 31.6267 115.856 31.2866 115.626C29.8504 114.639 28.3333 113.73 27.0671 112.538C25.8008 111.346 24.3606 110.004 24.2069 107.986C24.0896 106.515 24.13 105.031 24.1219 103.556C24.1219 101.243 24.1219 98.9336 24.1219 96.5954L19.0893 96.8829C19.0205 97.754 18.9437 98.5501 18.9032 99.3504C18.7657 102.08 18.6645 104.81 18.4986 107.536C18.4582 108.199 18.4177 108.987 18.0617 109.474C16.039 112.284 13.8867 115.014 10.7798 116.706C9.86144 117.21 8.23919 117.044 7.54336 116.377C7.15459 115.987 6.89728 115.479 6.80918 114.928C6.72108 114.377 6.80683 113.811 7.05385 113.313C7.74563 111.942 8.67206 110.7 9.39216 109.341C9.92213 108.337 10.6058 107.257 10.6463 106.178C10.7515 102.989 10.5735 99.7839 10.5087 96.5912C10.5087 95.8785 10.3267 95.4658 9.45689 95.3408C7.10239 95.0324 7.02958 94.8948 7.0053 92.6107C6.89203 85.967 6.81516 79.3273 6.65334 72.6877C6.57243 69.4242 6.3297 66.1648 6.16788 62.9596C5.90896 63.4806 5.67028 63.9558 5.43564 64.4351L5.47205 64.4768ZM47.2421 106.465C46.9428 106.969 46.3764 107.874 47.6184 108.295C47.7609 107.913 47.9484 107.55 48.1766 107.215C48.597 106.761 49.0529 106.342 49.54 105.965C50.0133 105.582 50.5231 105.244 51.0166 104.89C50.9114 105.306 50.8143 105.723 50.7011 106.107C50.4053 107.015 50.1674 107.942 49.989 108.883C49.9486 109.174 50.4705 109.549 50.7375 109.883C50.9719 109.575 51.1651 109.235 51.3119 108.874C51.4818 108.232 51.3443 107.403 51.6963 106.944C52.121 106.386 52.9423 105.782 53.5491 105.832C54.3582 105.894 55.3656 106.294 55.3777 107.557C55.3777 107.732 55.5881 107.911 55.7135 108.103C56.4862 107.157 55.8186 105.106 54.6495 104.89C54.0427 104.777 53.3792 105.048 52.736 105.061C52.159 105.039 51.5837 104.985 51.0126 104.898C49.362 104.031 48.2333 104.802 47.2421 106.457V106.465ZM37.0798 26.5397C37.0783 27.0323 36.9864 27.5202 36.8087 27.9776C36.3354 29.4781 35.7731 30.9494 35.3685 32.4666C35.2026 33.0918 35.4292 33.817 35.3402 34.4797C35.2107 35.48 34.9639 36.4595 34.7617 37.4765C37.4762 39.7522 37.0838 44.112 34.5958 46.6002C34.4138 46.7795 34.2358 46.967 34.0416 47.1337C33.7462 47.3797 33.4307 47.6089 33.1273 47.8465C32.8967 47.4297 32.4395 47.0129 32.4759 46.6461C32.6661 44.6371 31.8732 42.8616 31.4201 40.9943C31.2623 40.3441 31.5738 39.5855 31.5455 38.8853C31.5096 38.2089 31.3983 37.539 31.2137 36.8888C30.9993 36.0552 30.5543 35.2841 30.4613 34.4547C30.1862 31.9539 30.6352 29.4823 31.0681 27.0232C31.0855 26.7706 31.0855 26.5171 31.0681 26.2646C30.375 26.9988 29.6444 27.6944 28.8795 28.3486C26.4522 30.2075 23.7862 30.3367 20.9705 29.4573C19.8341 29.1408 18.7767 28.5771 17.8695 27.8042C16.9624 27.0313 16.2264 26.0672 15.7113 24.9767C15.3431 24.2139 14.8091 23.5346 14.3843 22.7968C13.7532 21.6965 13.4822 21.634 12.4951 22.38C12.9886 23.9389 13.6197 25.4393 13.9353 27.0065C14.534 30.0033 14.1214 32.7625 11.6415 34.8632C11.3537 35.1982 11.1557 35.6047 11.067 36.0427C10.088 39.1145 8.93097 42.1447 8.23514 45.2832C7.35275 49.1951 6.6775 53.1536 6.21238 57.1411C5.98987 58.9875 6.45106 60.9173 6.61693 62.8096C6.83943 65.7272 7.15094 68.6448 7.24803 71.5624C7.40581 76.2847 7.40985 81.0154 7.49885 85.7336C7.5474 88.3177 7.65663 90.8977 7.70113 93.4819C7.70113 94.1196 7.87509 94.4322 8.55069 94.5322C11.2814 94.949 14.0202 95.3241 16.7267 95.8868C21.7836 96.933 26.351 95.2282 30.9386 93.461C32.6175 92.815 34.349 92.2981 36.0724 91.7938C36.7966 91.5729 37.2133 91.2728 37.1769 90.3975C37.0798 87.8384 37.0717 85.2751 36.9908 82.7118C36.9098 80.1484 36.655 77.4851 36.7116 74.8759C36.8249 69.7826 37.1526 64.6935 37.2942 59.6002C37.363 57.0994 37.1607 54.5986 37.1688 52.0978C37.1688 49.3344 37.2739 46.5669 37.3832 43.8035C37.3952 43.602 37.4478 43.4053 37.5377 43.2259C37.6275 43.0466 37.7526 42.8884 37.905 42.7615C39.8671 41.5528 40.0411 39.6147 39.7013 37.6724C39.4059 36.0052 38.7222 34.3755 38.168 32.7458C37.5419 30.901 37.3954 28.9194 37.7432 26.9982C38.0143 25.406 38.342 23.818 38.6251 22.2258C38.6454 22.1216 38.4997 21.9841 38.3217 21.6631C37.6704 23.3803 36.9786 24.8516 37.1081 26.5689L37.0798 26.5397ZM24.1745 21.2922L30.2185 19.8459C29.0049 20.9962 27.7467 21.3505 26.3996 21.5381C26.1787 21.5548 25.957 21.5548 25.7361 21.5381C24.1867 21.5047 22.6696 21.5589 21.2172 22.2675C18.8708 23.4179 16.6377 22.8718 14.4167 21.6506C16.0106 23.7763 16.6539 26.5939 19.154 28.0068C21.6542 29.4198 24.4658 29.9699 26.9983 28.707C29.2314 27.5984 31.2582 25.9603 31.6183 22.8343C31.8732 20.6211 32.9088 18.5038 33.6411 16.3489C33.7972 15.9889 33.9826 15.6431 34.1953 15.3153L33.188 14.6942L34.2762 14.4066C34.0598 14.0017 33.9017 13.5664 33.8069 13.1146C33.8069 12.9687 34.5189 12.5519 34.616 12.6353C34.8963 12.9304 35.1273 13.2712 35.2997 13.6439C35.8297 13.0687 36.0562 11.2681 35.5425 10.4929C35.1055 9.83019 34.5473 9.60095 33.8636 10.1678C33.7847 10.238 33.7008 10.3021 33.6127 10.3595C33.0786 10.056 32.5162 9.80886 31.9338 9.62179C29.017 9.04244 26.0476 8.67149 23.1712 7.92541C22.1499 7.69286 21.1854 7.24798 20.3367 6.61802C19.4881 5.98806 18.7731 5.18627 18.2357 4.26175C15.4969 7.29605 12.3171 9.31752 8.27964 9.68014C7.60404 14.7901 9.1818 18.3496 13.4296 20.4794C14.4331 20.9919 15.4652 21.4428 16.5204 21.8298C19.1136 22.7718 21.4033 21.934 23.5556 20.4419C23.6769 20.3585 23.8023 20.2877 24.1098 20.0918C24.1341 20.5086 24.1462 20.7337 24.1745 21.263V21.2922ZM18.3085 3.11972C19.1783 5.66636 21.3507 6.87091 23.6446 7.47527C26.9307 8.32247 30.2714 8.92698 33.6411 9.28418C34.8304 9.42173 35.8176 9.28418 36.2302 10.6763C36.4718 11.3877 36.4959 12.1583 36.2991 12.8842C36.1023 13.6101 35.6942 14.2564 35.1298 14.7359C33.4024 16.0613 32.743 19.5583 33.8514 21.4631C33.9566 21.6465 34.0416 21.8424 34.1346 22.0299L33.8636 22.2592L32.7996 20.9462C31.9258 22.1966 31.9177 22.3717 32.573 26.6689L31.8368 26.1771C31.0277 27.9193 31.2097 29.6198 32.3505 31.2829L31.9136 31.3746L31.1773 30.1783C30.4046 31.9414 31.0034 33.3085 31.8165 34.7631L31.0074 34.288C31.0964 36.1344 31.8974 37.2598 33.0302 37.1597C34.4057 37.0347 34.9518 35.9093 34.8466 33.3293L33.4914 34.0171L35.8095 30.4743L34.8507 30.245C35.854 28.8279 37.1485 27.5817 36.1493 25.6602L34.972 26.2354C35.7811 25.1267 36.5903 24.2556 37.0595 23.2178C37.4641 22.3508 37.4641 21.288 37.5774 20.3002C37.5774 20.1376 37.2578 19.9334 36.9382 19.5916C36.9058 19.7458 36.8896 19.5625 36.9746 19.4749C38.4148 17.9828 38.3662 16.0947 38.4876 14.1732C38.6086 12.7062 38.4456 11.229 38.0081 9.82734C37.5706 8.4257 36.8672 7.12752 35.9389 6.00814C33.4469 2.94049 30.2752 0.939853 26.2903 0.656429C24.9674 0.560566 23.6284 0.618917 22.3014 0.656429C21.8556 0.627704 21.41 0.716649 21.0069 0.914846C19.8822 1.63174 18.705 1.65258 17.4347 1.59423C14.1376 1.43168 11.7993 3.31144 9.84526 5.76222C9.11302 6.67501 8.6316 7.78787 8.00859 8.80903L8.30392 9.11746C10.2933 8.92269 12.218 8.28559 13.9453 7.25012C15.6725 6.21464 17.1612 4.80543 18.3085 3.11972V3.11972ZM45.4055 57.5537C46.0487 58.5541 46.6474 59.5877 47.2907 60.588C47.3918 60.7464 47.6224 60.8173 47.7923 60.9256L48.0795 60.7339L45.984 56.841L46.2874 56.6201C47.501 57.4537 47.8651 58.975 48.6783 60.2129C49.3337 58.4665 47.3756 57.6329 47.3837 56.1866L47.7519 55.9574L50.0214 59.1876L50.341 58.9834C49.7746 57.8719 49.2096 56.7521 48.6459 55.624C50.1023 56.27 50.515 57.6371 51.0732 59.0417C52.0199 58.1039 51.5304 57.0161 51.2108 56.295C50.7164 55.1281 49.9575 54.1005 48.9979 53.2982C47.6022 52.2187 47.2017 50.7974 46.8578 49.2177C46.251 46.446 45.543 43.6993 44.9685 40.9234C44.8048 39.835 44.7142 38.7362 44.6975 37.6349C44.4588 34.1046 44.0907 30.6035 42.8891 27.2524C42.1992 25.2912 40.9337 23.5999 39.2684 22.4134C39.1632 22.5509 39.0418 22.6426 39.0054 22.7635C38.1001 25.509 37.9145 28.4522 38.4674 31.2954C38.8396 33.0418 39.7255 34.6631 40.2434 36.3845C40.8167 38.2074 40.6938 40.1869 39.8995 41.9196C39.665 42.6248 39.6466 43.3873 39.8469 44.1036C40.5023 46.9712 41.279 49.8096 41.9587 52.6688C42.254 53.9192 42.4118 55.1988 42.6545 56.4576C42.7384 56.7447 42.8467 57.0236 42.9781 57.2912C44.0583 55.9699 44.4426 56.0199 45.4055 57.5246V57.5537ZM11.2855 103.402C11.4311 105.927 10.978 108.182 9.43666 110.179C9.17795 110.45 9.00576 110.796 8.94311 111.171C8.94311 111.804 8.99165 112.546 9.31934 113.021C9.49735 113.276 10.444 113.284 10.8 113.021C12.1171 112.131 13.3533 111.12 14.4936 110C15.6342 108.817 16.6587 107.522 17.552 106.132C17.9565 105.49 18.0739 104.569 18.1345 103.76C18.2842 101.714 18.3571 99.663 18.3854 97.6123C18.3542 97.4223 18.2786 97.243 18.1651 97.0897C18.0517 96.9365 17.9037 96.8141 17.734 96.7329C15.6546 96.3161 13.555 95.9993 11.4594 95.6617C11.33 95.6409 11.1843 95.7368 11.241 95.7201C11.241 98.3584 11.1236 100.905 11.2733 103.435L11.2855 103.402ZM24.6236 96.4703C24.6236 99.4671 24.6236 102.476 24.6236 105.486C24.6001 105.752 24.6642 106.02 24.8056 106.244C26.5654 108.157 27.9733 110.458 30.3399 111.713C31.8529 112.517 32.9331 112.3 33.2648 111.037C33.3756 110.387 33.3112 109.719 33.0787 109.104C32.8492 108.504 32.5357 107.942 32.1483 107.436C30.9022 105.619 30.6474 103.614 30.9629 101.464C31.145 100.234 31.2542 98.9878 31.3917 97.7499C31.5293 96.512 31.6668 95.2741 31.8287 93.8361L24.6114 96.4495L24.6236 96.4703ZM50.7172 59.8336C50.9343 60.4455 51.0783 61.0823 51.1461 61.7301C51.2512 65.0645 51.2998 68.428 51.32 71.7749C51.3483 76.3597 51.3726 80.9445 51.32 85.5293C51.2917 87.4549 50.9155 89.3764 50.9155 91.2978C50.8872 94.2154 51.0287 97.133 51.0894 100.051C51.1137 101.251 51.0894 102.451 51.1703 103.648C51.1946 103.964 51.5951 104.252 51.8217 104.552C52.1777 104.269 52.8169 104.002 52.8371 103.693C52.9382 102.06 52.8573 100.413 52.8897 98.7669C52.9342 96.5412 53.0394 94.3155 53.0839 92.0981C53.1203 90.2642 53.0839 88.4302 53.1243 86.5963C53.181 82.5242 53.3064 78.4479 53.3064 74.3758C53.3064 70.1828 53.2255 65.9856 53.0879 61.7968C53.0556 60.7548 52.6834 59.7128 52.4568 58.7166L50.7253 59.8253L50.7172 59.8336ZM29.2436 111.663C27.9247 110.696 26.881 109.329 25.7361 108.116C25.4983 107.789 25.2344 107.484 24.9472 107.203C24.5103 109.287 25.7846 110.516 26.9376 111.613C28.3624 112.91 29.9009 114.068 31.5333 115.072C32.1774 115.399 32.8994 115.528 33.6127 115.443C34.8264 115.372 35.4615 113.976 34.9559 112.592C34.7374 111.996 34.438 111.429 34.1023 110.692C33.2284 113.392 31.3796 113.246 29.2476 111.683L29.2436 111.663ZM7.67281 115.718C8.42933 116.664 9.58635 116.823 10.8769 116.047C13.1343 114.693 14.8617 112.738 16.484 110.667C17.2688 109.658 18.1993 108.733 17.8635 107.153C17.7057 107.307 17.5803 107.42 17.4589 107.536C15.6344 109.387 13.818 111.25 11.9773 113.08C11.663 113.348 11.3018 113.552 10.9133 113.68C9.57421 114.201 8.84197 113.843 8.17446 112.388C7.17117 113.538 6.9608 114.847 7.66877 115.722L7.67281 115.718ZM34.0982 38.0142C34.4744 39.1229 34.7859 40.0315 35.0853 40.9318C35.2637 41.3901 35.3357 41.885 35.2956 42.377C35.2556 42.8691 35.1046 43.3447 34.8547 43.766C35.1743 41.8696 34.5918 40.2149 33.6977 38.631L32.2737 38.7394C31.7882 39.7272 31.8691 40.7234 32.1806 41.7945C32.6459 43.4617 32.9897 45.1956 33.3943 46.9212C36.4568 44.3287 37.0069 39.6772 34.1103 38.0017L34.0982 38.0142ZM44.2565 57.5912C43.794 57.755 43.4112 58.0971 43.1885 58.5457C42.8838 59.3318 42.6811 60.1558 42.5857 60.9965C42.5493 61.2549 42.8932 61.5675 43.0671 61.8551C43.2589 61.6451 43.4185 61.4061 43.5405 61.1465C43.8115 60.1296 43.945 59.0626 45.3367 58.4957C44.8553 58.0789 44.4588 57.5246 44.2565 57.5912ZM53.4601 106.357L52.121 107.153L53.63 107.916L53.7999 107.545L53.4642 106.382" fill="black"/>
<path d="M17.3118 42.5454C18.1924 44.0839 21.3745 44.4363 22.8515 43.278C20.9542 43.8048 19.205 43.3129 17.3118 42.5454Z" fill="black"/>
<path d="M15.4479 17.9361C15.3653 17.8729 15.3042 17.7981 15.2689 17.717C15.2337 17.6359 15.2253 17.5506 15.2442 17.4671C15.318 17.3949 15.4146 17.3347 15.5269 17.2909C15.6392 17.2471 15.7645 17.2208 15.8936 17.2139C16.5854 17.1822 17.29 17.2139 17.9861 17.2139C19.0812 17.1707 20.1762 17.093 21.4666 17.0182C20.6516 18.3936 16.6024 18.8972 15.4479 17.9505V17.9361ZM20.4776 17.4297L16.0294 17.7174C17.6041 18.2929 19.06 18.0052 20.4776 17.4297Z" fill="black"/>
<path d="M16.6691 10.6364C16.5331 12.0194 16.3971 13.4066 16.2441 14.9913L15.2583 13.9362C15.1265 14.9535 15.543 15.1679 16.4311 15.4453C17.6252 15.8152 18.6153 15.4201 19.6777 15.3066C19.9043 15.2603 20.1187 15.168 20.3074 15.0356C20.4961 14.9032 20.655 14.7335 20.7741 14.5373L18.5431 14.7559C18.4751 14.7854 18.0204 15.1763 17.7315 15.0712C17.5339 14.9739 17.3614 14.8332 17.2273 14.6598C17.0933 14.4864 17.0012 14.2848 16.958 14.0707C16.9138 13.3595 16.9394 12.6458 17.0345 11.9395C17.0643 11.5191 17.1068 11.0988 17.1408 10.6784L16.6691 10.6364" fill="black"/>
<path d="M25.6212 9.83328C25.2205 9.11299 24.4538 9.17301 23.7596 9.28784C23.5568 9.33951 23.3709 9.42326 23.2142 9.53352C23.0576 9.64377 22.9339 9.77799 22.8513 9.92723L25.6143 9.83328" fill="black"/>
<path d="M26.3016 10.6364C25.206 11.0349 23.5228 10.206 22.8513 11.3454C23.2617 11.2902 23.6777 11.2485 24.0971 11.2207C24.466 11.1961 24.8401 11.2127 25.1972 11.2696C26.0321 11.4359 26.3855 11.2696 26.3016 10.6364Z" fill="black"/>
<path d="M15.2343 9.92723C14.3295 9.00654 12.3269 9.00089 11.772 9.80296L15.2343 9.92723Z" fill="black"/>
<path d="M10.395 10.8741L11.4449 12.0545C12.2183 10.9242 13.0238 11.4289 13.8493 11.7042C13.2562 9.89807 11.513 11.5582 10.6434 10.6364L10.387 10.8741" fill="black"/>
<path d="M34.6232 45.3217C34.3154 43.9249 34.0077 42.5268 33.6999 41.1273L33.2383 41.1915L34.1616 45.3819L34.6232 45.3217Z" fill="black"/>
</svg>
