<svg width="24" height="24" viewBox="0 0 24 24" fill="none" xmlns="http://www.w3.org/2000/svg">
<rect width="24" height="24" rx="12" fill="#BEBE3B"/>
<path d="M10.75 16.5215C10.75 16.3848 10.75 16.1751 10.75 15.8926C10.7591 15.6009 10.7637 15.2773 10.7637 14.9219C10.7637 14.5573 10.7637 14.179 10.7637 13.7871C10.7637 13.3861 10.7637 13.0078 10.7637 12.6523C10.7637 12.2878 10.7591 11.9642 10.75 11.6816C10.75 11.39 10.75 11.1758 10.75 11.0391C10.75 10.957 10.7454 10.7839 10.7363 10.5195C10.7363 10.2461 10.7363 9.9362 10.7363 9.58984C10.7363 9.23438 10.7318 8.85612 10.7227 8.45508C10.7135 8.05404 10.709 7.68034 10.709 7.33398C10.709 6.97852 10.7044 6.66862 10.6953 6.4043C10.6953 6.13997 10.6953 5.9668 10.6953 5.88477V5.85742V5.81641C10.7044 5.80729 10.7227 5.78906 10.75 5.76172C10.7773 5.72526 10.8001 5.70703 10.8184 5.70703C11.1921 5.72526 11.5612 5.7207 11.9258 5.69336C12.2995 5.6569 12.6732 5.63867 13.0469 5.63867C13.2474 5.63867 13.3841 5.70703 13.457 5.84375C13.5299 5.97135 13.5664 6.1263 13.5664 6.30859C13.5664 6.42708 13.5527 6.54102 13.5254 6.65039C13.5072 6.75065 13.498 6.86003 13.498 6.97852V6.99219C13.5072 7.01042 13.5208 7.05143 13.5391 7.11523C13.5573 7.17904 13.5664 7.22005 13.5664 7.23828C13.5664 7.2474 13.5527 7.27474 13.5254 7.32031C13.5072 7.36589 13.498 7.39779 13.498 7.41602V7.55273C13.498 7.65299 13.5026 7.73958 13.5117 7.8125C13.5208 7.88542 13.5391 7.98568 13.5664 8.11328C13.5755 8.23177 13.5846 8.42318 13.5938 8.6875C13.6029 8.94271 13.612 9.23438 13.6211 9.5625C13.6393 9.88151 13.653 10.2188 13.6621 10.5742C13.6803 10.9297 13.694 11.2715 13.7031 11.5996C13.7122 11.9186 13.7214 12.2057 13.7305 12.4609C13.7396 12.7161 13.7441 12.903 13.7441 13.0215V13.9512C13.7441 14.416 13.7396 14.8763 13.7305 15.332C13.7214 15.7878 13.6849 16.2435 13.6211 16.6992C13.5755 16.7812 13.4935 16.8405 13.375 16.877C13.2656 16.9043 13.1745 16.9271 13.1016 16.9453C13.0742 16.9453 13.0241 16.9499 12.9512 16.959C12.8783 16.9681 12.8053 16.9772 12.7324 16.9863C12.6595 16.9863 12.5911 16.9909 12.5273 17C12.4635 17 12.418 17 12.3906 17H11.625H10.873C10.8457 16.9271 10.8229 16.8496 10.8047 16.7676C10.7865 16.6855 10.7682 16.6035 10.75 16.5215Z" fill="black"/>
</svg>
