<svg width="34" height="12" viewBox="0 0 34 12" fill="none" xmlns="http://www.w3.org/2000/svg">
<g clip-path="url(#clip0_688:12977)">
<path d="M23.7336 6.93062C23.7729 7.03781 23.8432 7.12959 23.9346 7.19328C24.0261 7.25696 24.1342 7.28941 24.2441 7.28613H33.3732C33.5228 7.28067 33.6643 7.21404 33.7673 7.10059C33.8703 6.98715 33.9265 6.83598 33.9237 6.67966V5.35172C33.9264 5.27344 33.9143 5.19537 33.8881 5.12199C33.8618 5.04861 33.822 4.98135 33.7709 4.92405C33.7197 4.86676 33.6583 4.82055 33.5901 4.78808C33.5218 4.7556 33.4481 4.7375 33.3732 4.7348H24.154C24.0171 4.76191 23.8938 4.8387 23.8059 4.95159C23.718 5.06448 23.6711 5.20621 23.6735 5.35172V6.66921C23.6704 6.76043 23.6912 6.85081 23.7336 6.93062Z" fill="white"/>
<path d="M32.4823 9.4715L33.2731 7.91351H27.5774C27.208 8.78424 26.5605 9.49389 25.7456 9.92112L27.1971 11.0609C27.5204 11.3152 27.9134 11.4544 28.3182 11.4582H30.3202C30.6772 11.4516 31.0261 11.3453 31.3306 11.1504C31.6351 10.9555 31.8841 10.6791 32.0519 10.3498L32.4823 9.4715Z" fill="white"/>
<path d="M27.5674 4.12835H33.2431L31.9918 1.69204C31.824 1.36275 31.575 1.08634 31.2705 0.891451C30.966 0.696564 30.6171 0.590301 30.2601 0.583679H28.2581C27.8539 0.591004 27.462 0.729904 27.137 0.981015L25.6956 2.11029C26.141 2.3547 26.5383 2.6846 26.8667 3.08273C26.9256 3.14011 26.9792 3.20312 27.0269 3.27094C27.2203 3.53145 27.3879 3.81171 27.5274 4.10744L27.5674 4.12835Z" fill="white"/>
<path d="M24.2742 2.28812L3.65365 0.510559C3.18217 0.468427 2.70757 0.534578 2.26316 0.704373C1.81875 0.874168 1.41529 1.14349 1.08109 1.49344C0.577974 2.00053 0.229697 2.65174 0.0800929 3.36512C0.0193946 3.64649 -0.0108214 3.9341 -0.00999319 4.22253V7.77767C-0.0103546 8.28634 0.0868978 8.78993 0.27602 9.25868C0.465143 9.72742 0.742296 10.1518 1.0911 10.5068C1.42613 10.8524 1.82824 11.1191 2.27029 11.2886C2.71235 11.4582 3.18408 11.5267 3.65365 11.4896L24.2742 9.71208C24.541 9.69018 24.8037 9.63038 25.055 9.53432C25.8447 9.24501 26.5066 8.66515 26.9168 7.90315H26.116L26.036 7.99725C25.895 8.15913 25.7333 8.29989 25.5555 8.4155C25.1552 8.69291 24.6845 8.8386 24.2041 8.83375C23.8159 8.83215 23.4333 8.73696 23.086 8.55559C22.7388 8.37423 22.4363 8.11159 22.2021 7.78813C21.8193 7.27857 21.6145 6.64778 21.6216 6.0001C21.627 5.60145 21.7051 5.20754 21.8518 4.83946C22.1032 4.20473 22.5752 3.69294 23.1731 3.40694H23.2432C23.7344 3.19432 24.2776 3.15065 24.7942 3.28226C25.3107 3.41386 25.7737 3.7139 26.116 4.13888H26.9168C26.7906 3.92072 26.6466 3.71433 26.4864 3.52196C26.1119 3.04082 25.6161 2.67864 25.055 2.47634C24.8014 2.38648 24.5398 2.32343 24.2742 2.28812ZM4.14415 2.11037C5.82582 2.11037 7.14714 3.85657 7.14714 6.03147C7.14739 6.82654 6.95084 7.60817 6.57657 8.30048V8.4155H6.55655C6.31806 8.86423 5.97232 9.24073 5.55304 9.50828C5.13375 9.77584 4.65523 9.92531 4.16416 9.94212C3.67227 9.92306 3.19323 9.77276 2.77269 9.50553C2.35216 9.2383 2.00413 8.86304 1.76177 8.4155C1.34233 7.69804 1.12386 6.87211 1.13114 6.03147C1.12113 3.84611 2.45246 2.09991 4.14415 2.11037Z" fill="white"/>
</g>
<defs>
<clipPath id="clip0_688:12977">
<rect width="33.9138" height="11" fill="white" transform="translate(0 0.5)"/>
</clipPath>
</defs>
</svg>
