<svg width="63" height="48" viewBox="0 0 63 48" fill="none" xmlns="http://www.w3.org/2000/svg">
<path d="M62.0704 56.0882C62.8594 57.9955 62.6832 58.5314 60.9558 59.8251C60.8379 59.933 60.7434 60.0624 60.6776 60.2058C60.6119 60.3492 60.5762 60.5037 60.5728 60.6605C60.634 64.9555 60.7834 69.2468 60.7987 73.5419C60.7987 76.4693 60.6226 79.4004 60.5689 82.3315C60.5345 84.1797 60.7068 86.0093 60.5689 87.8315C60.3889 90.0826 59.9752 92.3114 59.6344 94.7509C60.726 95.4901 61.2239 96.6249 60.7834 98.2364C60.6111 98.8685 60.9979 99.7408 61.358 100.384C61.8214 101.201 62.3959 101.947 61.672 102.831C60.9481 103.714 59.8718 103.777 58.7994 103.504C58.4107 103.405 58.0391 103.251 57.6963 103.049C56.1412 102.132 54.5746 101.722 52.717 102.31C52.0505 102.524 51.1849 102.125 50.2388 101.981C50.7061 102.55 51.1159 103.023 51.4951 103.518C52.311 104.579 52.131 105.533 50.8134 105.869C49.8591 106.101 48.8522 106.023 47.9484 105.647C46.1788 104.823 44.5778 103.677 42.8618 102.731C42.3994 102.49 41.8689 102.4 41.3489 102.472C39.6406 102.764 37.9592 103.182 36.2547 103.504C35.8951 103.533 35.5336 103.477 35.2014 103.341C32.5202 102.458 30.2796 100.816 28.2764 98.9942C27.541 98.3251 27.5103 96.8356 27.3456 95.6971C26.4034 89.7831 26.1965 83.8063 26.1123 77.8221C26.0778 75.6894 26.1774 75.475 24.4921 75.3567C25.9016 77.97 25.6144 80.7754 25.6603 83.4885C25.7484 88.7408 24.9517 93.8379 21.6462 98.2734C18.199 102.879 12.6644 103.844 7.60083 100.861C3.74763 98.5987 1.8555 95.1353 0.909436 91.0953C-0.448086 85.2075 -0.283662 79.0878 1.38821 73.2757C2.29215 70.0378 3.68635 67.018 6.43644 64.7744C6.89607 64.4048 7.35953 63.8947 7.90342 63.7579C9.10228 63.4511 9.09079 62.7969 8.89927 61.8322C8.68861 60.764 8.73457 59.6477 8.58136 58.5647C8.48178 57.8513 8.01832 57.138 8.08727 56.4616C8.23664 55.0681 7.14886 54.1144 6.9382 52.9243C6.78171 51.7292 6.89806 50.5156 7.27909 49.3685C7.9952 47.0434 8.86648 44.7654 9.88747 42.5489C10.5961 41.0408 11.7183 39.7176 12.6108 38.3832C10.7378 36.2912 11.0787 34.0439 11.5728 31.73C11.9558 30.0704 12.7218 28.3221 12.4537 26.7401C11.9022 23.4135 12.4537 20.3086 13.2198 17.1299C13.7986 14.5058 14.194 11.8471 14.4033 9.17187C14.7863 5.08013 17.3181 2.58517 20.9951 1.20647C25.7331 -0.541848 30.4174 -0.541847 34.9218 2.21555C37.1012 3.55359 38.2273 5.44606 38.8324 7.72294C39.5729 10.4877 40.2598 13.2648 40.8931 16.0543C41.5596 18.9558 41.4217 21.8648 40.9122 24.7885C40.7207 25.8974 40.6135 26.9545 41.9924 27.7898C44.0722 29.0502 44.8689 31.3197 45.7 33.4303C46.5312 35.5408 47.098 37.6588 47.8603 39.7509C48.2931 40.9373 48.9097 42.0573 49.3923 43.229C49.6528 43.8685 49.7754 44.556 50.0665 45.5281C52.1424 46.4115 54.6053 47.3762 56.9877 48.4851C58.6845 49.2759 60.3192 50.1851 61.8789 51.2055C63.0854 52.0039 63.0969 54.9978 62.0512 56.103C62.078 55.5671 62.0819 55.0274 62.147 54.4952C62.3078 53.1202 62.2274 51.8745 60.7221 51.1501C59.2169 50.4256 57.8418 49.6716 56.3748 48.9656C54.2874 47.975 52.1616 47.0251 50.0626 46.0862C49.7179 45.931 49.2162 45.7499 48.9366 45.8792C47.6573 46.4817 46.4354 47.1877 44.9953 47.9602C45.9911 48.6995 46.6499 49.3796 47.4543 49.7714C48.8714 50.4663 50.3729 50.9911 51.8399 51.5825C53.8775 52.3994 55.9382 53.1719 57.9682 54.0405C58.9602 54.4693 59.3164 56.0919 58.7342 57.0825C58.6653 57.0493 58.5696 57.0308 58.5351 56.9753C58.466 56.8813 58.4225 56.772 58.4087 56.6575C58.3857 54.9313 57.2098 54.1625 55.7275 53.6413C55.1645 53.438 54.5785 53.2939 54.0193 53.0647C51.3381 51.9558 48.6569 50.9542 46.0601 49.7381C44.6697 49.0765 43.7849 49.1097 42.9231 50.3886L46.8376 52.1702C50.798 53.9838 54.7559 55.7999 58.7113 57.6185C59.8259 58.1323 61.3618 57.3302 61.5993 56.0771L61.561 56.1141L62.078 56.0845L62.0704 56.0882ZM41.257 27.6752C37.4842 35.7294 25.3156 37.6551 20.095 28.2334C15.0353 31.9851 14.0433 38.18 10.485 42.7522C10.0177 43.3547 9.90279 44.2085 9.6002 45.0032C11.4157 45.565 13.2083 45.7425 14.4416 47.0694C12.9095 46.6517 11.4042 46.149 9.90662 45.6316C9.20952 45.3913 9.21335 45.3765 9.20952 46.0529C10.5807 46.5519 11.8907 46.9992 13.1853 47.513C13.9743 47.8308 15.2 47.5832 15.4834 46.8994C15.8664 45.9199 14.8591 45.8423 14.3727 45.5318C13.7315 45.1962 13.0564 44.9249 12.358 44.7223C11.8064 44.5116 11.251 44.3083 10.6956 44.105C10.7301 43.9941 10.7684 43.8869 10.8067 43.7761C11.184 43.8083 11.5572 43.8751 11.9213 43.9757C12.9708 44.3712 13.9935 44.8295 15.0429 45.2213C15.2957 45.3137 15.7209 45.3544 15.8741 45.2213C16.1039 45.018 16.372 44.5042 16.2571 44.3527C15.6558 43.4878 16.2112 42.8927 16.6401 42.2273C17.2492 41.2589 17.7892 40.2388 18.425 39.3036C19.1298 38.2945 19.938 37.352 20.8189 36.232C20.8687 36.9084 20.884 37.3409 20.9338 37.7882C21.1981 40.0281 21.4854 42.268 21.7305 44.5116C21.9756 46.7552 22.148 48.9175 22.4085 51.1168C22.4486 51.2767 22.5251 51.426 22.6324 51.5539C22.7397 51.6818 22.8752 51.785 23.029 51.856C24.9441 52.5288 26.4072 53.5896 26.8247 55.6373C27.02 56.5909 27.5639 56.9901 28.5943 56.9162C29.6246 56.8423 30.7315 57.0714 31.735 56.8644C34.0613 56.4183 36.3533 55.8193 38.595 55.0718C39.4108 54.7872 40.4411 53.8151 40.5101 53.0647C40.8663 49.8527 40.9122 46.6037 41.054 43.3695C41.1076 42.2015 41.0272 41.0298 41.1497 39.8728C41.4025 37.4814 41.6553 35.1121 40.2113 32.9424C40.1768 32.8869 40.2573 32.7576 40.3339 32.4693C41.7357 34.0771 41.9541 35.8181 41.9732 37.6662C42.0211 38.5762 42.1937 39.476 42.4865 40.3423C42.7852 41.3476 43.6355 42.3937 43.49 43.2992C43.1721 44.9884 44.911 45.9642 44.3901 47.6386C45.8992 46.8144 47.1708 46.1601 48.4118 45.4209C49.2047 44.9662 49.5609 44.3933 48.8676 43.5284C48.4596 43.0491 48.1385 42.5068 47.9177 41.9242C47.2819 40.1574 46.7955 38.3389 46.1213 36.5869C45.2978 34.4357 44.4322 32.2881 43.3981 30.2256C42.9423 29.309 42.0345 28.6067 41.234 27.6937L41.257 27.6752ZM32.6773 21.6541C31.7657 23.7794 30.3791 25.4279 27.9546 25.8456C27.0583 26.0008 26.5796 26.2152 26.7519 27.0986C24.5764 26.6477 22.7685 27.7233 20.5738 28.1003C21.9335 29.723 22.914 31.3641 24.6223 32.4397C27.269 34.0956 30.1034 34.2878 33.0909 33.6262C34.5902 33.3346 35.9986 32.7106 37.2051 31.8035C38.4116 30.8965 39.3831 29.7312 40.0428 28.3997C40.1922 28.1114 40.127 27.4572 39.9087 27.2908C39.2392 26.7935 38.4954 26.3972 37.7025 26.1154C35.9062 25.4982 34.8222 24.2193 34.7992 21.9719C34.7762 19.8799 35.1822 17.7915 35.3201 15.6883C35.3967 14.5795 35.8525 14.0435 36.9824 14.232C37.3174 13.8272 37.5265 13.339 37.5854 12.8241C37.6444 12.3092 37.5509 11.7887 37.3157 11.3231C37.0834 10.914 36.8196 10.5224 36.5266 10.1514L35.661 11.0496C35.3508 11.0089 34.9639 10.8389 34.7188 10.9535C33.3054 11.6077 31.7542 12.0328 31.4976 13.9992C31.3175 15.3926 30.0306 16.1393 28.6402 16.2502C27.3954 16.3537 26.4455 15.7031 25.9016 14.5388C25.7867 14.2949 25.3347 14.1951 24.9402 13.977C24.856 14.3836 24.81 14.5721 24.7755 14.7606C24.4155 16.7529 23.2817 17.7176 21.2287 17.7176C20.4246 17.6908 19.6568 17.3879 19.0635 16.8634C18.4701 16.339 18.0903 15.6274 17.9922 14.8567C17.8084 13.5704 18.0535 12.2989 19.2485 11.5301C19.7738 11.1502 20.4171 10.9536 21.0732 10.9724C21.7293 10.9912 22.3594 11.2243 22.8604 11.6336C23.6265 12.2139 24.3389 12.9051 25.262 13.7108C25.4245 13.3362 25.5452 12.9459 25.622 12.5465C25.7637 10.7391 27.3035 9.39734 29.0692 9.8335C30.1378 10.0996 31.0954 10.7982 32.2943 11.4007L34.1749 10.4434C32.5432 9.10164 31.1107 7.85601 29.5786 6.70648C28.0465 5.55695 26.4034 4.48874 24.9096 3.4464C24.0325 4.25218 23.0902 5.17993 22.0752 6.03376C20.8534 7.04653 19.4668 7.88188 18.3408 8.99075C17.3794 9.9296 16.7627 11.0052 16.9695 12.5946C17.3219 15.2485 18.3369 17.6473 19.5205 19.9612C20.6312 22.1272 22.2591 23.9938 24.6415 25.0657C25.5352 25.4793 26.5374 25.6233 27.5172 25.4789C28.497 25.3345 29.4089 24.9084 30.134 24.2562C31.0188 23.4394 31.8193 22.5338 32.6581 21.6689L32.6773 21.6541ZM24.9249 81.5701C24.7564 80.4612 24.6683 78.4801 24.1167 76.6393C23.4483 74.6147 22.6026 72.6486 21.5888 70.7623C20.3057 68.2415 18.6817 65.9905 15.943 64.6598C13.7866 63.6138 11.6915 62.9965 9.26314 63.8392C6.83478 64.682 5.25673 66.3638 4.10767 68.2747C1.80954 72.104 0.840493 76.4065 0.660473 80.7902C0.468962 85.5953 0.760057 90.345 2.93179 94.9024C4.73965 98.6985 10.0062 102.18 14.0394 101.722C16.1422 101.485 18.0765 100.809 19.5626 99.4562C21.5313 97.6672 22.6957 95.3053 23.5575 92.8363C24.7411 89.4394 24.7526 85.9021 24.9287 81.5516L24.9249 81.5701ZM27.0162 57.6148C27.2843 58.5906 27.4452 59.3224 27.6942 60.0247C27.9431 60.727 28.4334 61.3517 28.5253 62.0503C28.7982 63.6562 28.8983 65.285 28.8241 66.9108C28.6785 68.6 29.4867 69.4169 30.8924 70.012C31.1797 70.1339 31.4363 70.3224 31.7121 70.4703L36.7488 73.1242C38.5681 70.6292 41.1038 69.1618 43.9419 67.9199C43.5489 67.5332 43.1292 67.1726 42.6856 66.8406C40.5254 65.436 38.3345 64.0758 36.1743 62.6565C35.7882 62.3216 35.4483 61.9402 35.1631 61.5217L35.4465 61.2962L37.2659 62.5493C37.6489 62.0466 37.9745 61.5624 38.3613 61.1262C38.5707 60.9589 38.8059 60.8242 39.0584 60.727C39.0804 61.0037 39.0493 61.2819 38.9665 61.5476C38.686 61.9715 38.3777 62.3777 38.0434 62.7636C39.8819 64.013 41.7128 65.2105 43.49 66.4599C44.3939 67.103 45.2059 67.809 45.1676 69.1064C45.1676 69.5352 45.6809 70.0415 46.0754 70.3964C46.7342 70.9952 47.4811 71.5052 48.2203 72.0634C50.0741 69.6497 52.7591 68.1749 55.6356 66.678C55.237 66.2974 54.8135 65.9418 54.3678 65.6134C51.7135 63.9575 49.0055 62.3497 46.3856 60.6716C43.8922 59.0822 41.0578 57.7589 40.6748 54.5469C39.6559 55.1309 38.6946 55.9995 37.5838 56.2546C34.9448 56.8571 32.2406 57.1934 29.5403 57.5815C28.6914 57.6428 27.8392 57.649 26.9894 57.6L27.0162 57.6148ZM39.947 26.2965C40.0581 25.4723 40.1654 24.7035 40.2611 23.931C40.6671 20.7559 40.7399 17.6473 39.6598 14.5092C39.0354 12.7055 38.8133 10.7723 38.3843 8.89835C37.7408 6.0929 36.5803 3.67556 33.6923 2.28208C31.3643 1.13236 28.7721 0.57151 26.1582 0.652037C20.3899 0.818368 14.8859 3.9343 14.6676 11.1494C14.6025 13.526 14.1122 15.9138 13.599 18.2498C13.1049 20.4898 12.4767 22.6631 12.9938 24.9992C13.4333 27.1008 13.2064 29.2815 12.3426 31.2569C11.7601 32.7229 11.6519 34.3248 12.0324 35.8513C12.1435 36.3799 12.3082 36.8937 12.4461 37.4185H12.7831L13.3921 36.3097C14.1582 34.9088 14.8208 33.4266 15.7554 32.1329C16.8048 30.684 17.8735 29.0355 19.3634 28.1558C21.179 27.0838 23.4426 26.7216 25.3194 26.1154C19.1911 23.942 17.7854 18.4014 16.3299 12.809C16.1422 13.3597 15.9775 13.8365 15.7286 14.561C14.3841 9.56367 19.3788 3.59424 21.9067 3.97865C20.7959 4.83618 19.6086 5.53847 18.7314 6.49579C17.8543 7.45312 17.3219 8.59526 16.5023 9.86307C17.839 8.69506 18.8617 7.64532 20.0337 6.79888C21.8378 5.49042 23.8639 4.41851 24.5879 2.30056C26.3995 3.60533 28.0351 5.05796 29.9234 6.07072C31.8116 7.08349 32.865 9.24949 35.324 9.85937C33.8893 7.3097 31.8658 5.11288 29.4101 3.439C29.8331 3.40438 30.257 3.49599 30.6243 3.70143C32.4896 4.74747 33.8646 6.28141 35.0137 8.04821C35.2703 8.44001 35.5385 9.07577 35.8755 9.12382C37.894 9.41952 37.9055 10.9719 38.1507 12.3432C38.3958 13.7145 37.8711 14.901 35.91 14.8789C35.7568 17.2518 35.527 19.6322 35.4848 22.0163C35.4657 23.2693 35.8679 24.4965 37.2008 25.1322C38.0779 25.5573 38.9895 25.9121 39.9623 26.3298L39.947 26.2965ZM43.8232 95.2573C43.9305 94.2408 44.0913 93.2022 44.1449 92.1598C44.3441 88.301 44.5216 84.4409 44.6773 80.5795C44.7846 77.8887 44.9033 75.1941 44.8804 72.4995C44.8804 71.2206 44.5471 69.9454 44.3097 68.2673C42.4137 69.4501 40.7514 70.2744 39.361 71.4128C37.9706 72.5513 36.7258 73.7526 36.9212 76.0257C37.4038 81.6108 37.4612 87.2327 37.7102 92.8399C37.7561 93.8083 37.8672 94.7842 39.3074 94.688C39.5962 94.6746 39.8791 94.7701 40.0964 94.9542C41.2455 96.137 42.5171 95.9928 43.8232 95.2536V95.2573ZM55.0266 93.8823C55.0955 85.1776 56.8421 76.6134 56.0416 67.8312C55.694 67.8262 55.3485 67.8839 55.0228 68.0012C53.3528 69.0288 51.6713 70.0452 50.0818 71.1837C48.7872 72.1151 48.339 73.2684 48.6225 75.0093C49.5302 80.5721 49.3272 86.2089 49.2966 91.8272C49.2966 92.6219 49.2966 93.4166 49.2966 94.2113C49.3694 94.1041 49.4421 94.0006 49.5111 93.8934C51.3726 95.6786 52.9928 93.8934 55.0266 93.8934V93.8823ZM29.8046 95.468C32.1717 94.8322 34.2055 94.215 36.2815 93.7714C37.0744 93.6014 37.2276 93.3574 37.1854 92.6329C36.902 87.8278 36.6684 83.056 36.4194 78.2657C36.4063 78.1588 36.3819 78.0535 36.3466 77.9515C34.489 77.9515 32.6964 78.0956 30.946 77.9108C29.0118 77.7112 28.8432 77.7741 28.9313 79.6111C29.1113 83.4293 29.2033 87.2475 29.3871 91.0694C29.4561 92.5479 29.6706 94.0264 29.8123 95.4753L29.8046 95.468ZM23.5231 61.1151L14.6599 59.9545L14.6025 60.2428L23.5575 62.2462C24.3236 60.2465 24.5419 58.3097 23.1285 56.2398C24.427 56.9532 25.3271 59.0637 24.8062 60.143C24.2853 61.2223 24.4232 62.2388 24.5151 63.2774C24.6951 65.0516 25.013 66.8147 25.2811 68.5815C25.442 69.6165 25.6373 70.6477 25.8174 71.6827L26.3038 71.6198C27.02 66.1827 25.7216 60.9007 24.7717 55.4118C26.0587 56.6722 26.0089 58.2062 26.1199 59.6847C27.3648 56.9827 26.005 53.8705 23.9444 53.0314C20.8629 51.7094 17.6072 50.804 14.2692 50.3406C12.921 50.1742 11.5881 50.0153 10.2169 49.8527C10.2169 49.7307 10.2169 49.6087 10.2169 49.4831C11.048 49.4831 11.8868 49.5274 12.7142 49.4572C12.8671 49.4224 13.0097 49.3544 13.1312 49.2583C13.2527 49.1622 13.3498 49.0406 13.4151 48.9027C13.4223 48.7685 13.3941 48.6347 13.3332 48.5138C13.2722 48.3929 13.1805 48.2889 13.0666 48.2115C12.0796 47.6845 11.045 47.2453 9.97556 46.8994C9.20952 46.685 8.32091 46.637 8.19451 47.8937C8.02174 48.9622 7.78904 50.0209 7.49741 51.065C7.01481 53.305 7.31739 54.1181 9.61553 54.5543C12.4805 55.0976 15.4336 55.2307 18.3484 55.5153C19.8116 55.6595 21.336 55.5153 22.3931 56.8718C23.4081 58.1803 23.4771 59.644 23.4809 61.1151H23.5231ZM43.3636 54.887C43.0112 57.0714 43.7466 58.3688 45.5238 59.3594C48.5574 61.056 51.5258 62.8745 54.4329 64.7633C55.6279 65.5395 56.8383 66.4192 56.7923 68.1564C56.7694 68.9216 56.528 70.0378 57.9989 70.3446V61.9874L43.3636 54.887ZM44.8382 94.226C45.9222 93.7566 46.9295 93.3722 47.8756 92.8769C48.0625 92.7752 48.2247 92.6362 48.3515 92.4692C48.4783 92.3022 48.5668 92.1111 48.611 91.9085C48.6799 89.8571 48.6761 87.7983 48.6455 85.7432C48.5957 82.7196 48.5037 79.6924 48.4271 76.5506C47.8794 76.6652 47.5768 76.7428 47.2781 76.7872C45.363 77.0755 45.363 77.0718 45.271 78.8866C45.1331 81.8769 44.9493 84.8635 44.8574 87.8537C44.7923 89.9421 44.8574 92.0378 44.8574 94.226H44.8382ZM24.9402 71.4424C24.5572 68.5556 24.2201 65.7835 23.8831 63.1702L9.25165 59.474C9.40869 60.7196 9.54275 61.7952 9.6883 62.9263C10.891 62.9263 12.086 62.7193 13.1738 62.9632C15.1305 63.3502 16.9609 64.1893 18.5079 65.4085C20.0549 66.6278 21.2724 68.191 22.0561 69.9639C22.6306 71.18 23.5882 71.52 24.9402 71.4609V71.4424ZM44.505 99.9478L45.5162 98.6282L45.4357 98.3178L43.5628 98.8278C43.5283 98.765 43.4938 98.6985 43.4632 98.6356L44.8267 97.4048C44.3211 96.9169 43.9305 96.3218 43.3751 96.0963C43.1376 96.0002 42.5631 96.6766 42 97.1165C41.8995 97.0372 41.7947 96.9631 41.686 96.8947C40.828 96.3366 39.9853 95.7378 39.0814 95.2573C38.9014 95.1649 38.1736 95.5788 38.189 95.686C38.3307 96.5768 38.3154 97.6746 38.8592 98.2956C41.0668 100.845 43.7544 102.968 46.7801 104.553C47.7321 105.031 48.7557 105.361 49.8137 105.533C50.0841 105.55 50.3549 105.503 50.6016 105.395C50.8483 105.286 51.0632 105.12 51.227 104.912C51.3956 104.579 51.1083 103.84 50.7827 103.492C49.7141 102.354 48.5382 101.312 47.4313 100.262L46.0486 101.164C45.9681 101.079 45.8915 100.994 45.8111 100.913L46.7495 99.7149C45.8149 98.5284 45.4319 100.277 44.505 99.9478ZM41.7013 101.914C38.8439 99.7963 36.7182 97.6598 37.3118 93.9636C34.7801 94.9246 32.2215 94.7028 30.1417 96.3144C30.4711 96.5583 30.6013 96.6508 30.7239 96.7469C32.1908 97.8964 33.7153 99.0089 32.7615 101.201C32.7486 101.31 32.7651 101.421 32.8093 101.523C32.8536 101.624 32.9242 101.713 33.0143 101.781C34.0332 102.191 35.0865 102.89 36.1092 102.846C37.8596 102.794 39.5908 102.28 41.6668 101.896L41.7013 101.914ZM53.2072 96.5288C52.2886 95.9806 51.3399 95.4809 50.3652 95.0318C50.1201 94.9357 49.3847 95.2758 49.3579 95.479C49.2085 96.5879 49.2391 97.6598 50.5069 98.266C50.9321 98.473 51.273 98.8426 51.6905 99.0681C54.1035 100.358 56.5051 101.655 58.9679 102.883C59.7339 103.252 60.8485 103.23 61.1856 102.391C61.3924 101.877 60.9788 100.861 60.5 100.41C59.1517 99.1272 57.6235 98.0184 56.1757 96.8503L54.4176 97.7929L54.2223 97.475L55.6165 96.3883C55.2602 95.8043 55.0343 94.9505 54.5134 94.7139C53.9924 94.4774 53.1996 94.895 52.4642 95.0355C52.74 95.5862 52.9047 95.9115 53.2302 96.514L53.2072 96.5288ZM26.5681 59.9582C26.7213 61.5513 26.9128 62.8893 26.9511 64.231C27.0507 66.6373 27.1196 69.0362 27.0966 71.4572C27.0966 72.2334 26.6179 72.7583 25.6182 72.4478C24.8751 72.2149 24.0861 72.0966 23.0596 71.8712C23.8256 73.0022 23.6533 74.5214 25.1624 74.806C26.3536 75.0315 26.5987 75.7744 26.6332 76.6541C26.817 81.0896 26.9511 85.5251 27.1005 89.9347L28.7628 89.3359C28.6517 87.6282 28.51 85.8947 28.4411 84.1612C28.3376 81.5516 28.2802 78.9421 28.2227 76.3325C28.1193 71.9562 28.058 67.5761 27.9125 63.1961C27.8742 62.0872 27.6712 60.934 26.5489 59.9619L26.5681 59.9582ZM21.6079 51.1907C21.3283 48.2633 21.0564 45.3913 20.7691 42.3974L16.6287 43.1847C16.6899 43.4619 16.7053 43.6097 16.7512 43.7465C17.0232 44.5818 16.192 47.1249 15.5409 47.7052C14.951 48.2337 14.4493 48.8547 13.8479 49.4978L21.6079 51.1907ZM8.63499 55.1901C8.14472 55.7223 8.33623 56.3728 9.05248 56.7905C10.1364 57.4263 11.2395 58.184 12.4384 58.4538C15.8166 59.2152 19.2524 59.7475 22.6651 60.3722L23.029 59.9212C22.7187 59.2337 22.577 58.1175 22.0676 57.9253C20.0105 57.1616 17.8916 56.5632 15.7324 56.1363C13.4343 55.689 11.0863 55.5042 8.63499 55.1901ZM57.9414 73.516C56.8728 74.2552 56.6008 75.0204 56.7349 76.0479C56.7998 76.8624 56.7767 77.6812 56.6659 78.4911C56.2829 82.8897 55.8769 87.2882 55.5169 91.6867C55.5001 92.1667 55.5193 92.6472 55.5743 93.1246H57.9567L57.9414 73.516ZM58.604 67.6796C58.5772 68.0493 58.5427 68.3154 58.5427 68.5852C58.5427 74.4327 58.581 80.2838 58.5427 86.1313C58.5427 87.0479 58.6462 87.7132 59.9331 87.6874V67.6796H58.604ZM36.45 75.1756C36.0479 74.4585 35.9062 73.7858 35.4887 73.5271C33.3744 72.226 31.1912 71.0321 28.9466 69.7532C28.9466 71.3389 28.9083 72.7398 28.9773 74.1333C29.024 74.3101 29.1107 74.4748 29.2312 74.6154C29.3518 74.756 29.5031 74.869 29.6744 74.9464C31.8002 75.8816 33.9681 75.4048 36.45 75.1756ZM24.2125 14.3466C24.2125 13.0344 22.5655 11.5818 21.0334 11.5486C19.5013 11.5153 18.4633 12.6574 18.4787 14.4279C18.4787 16.0395 19.6277 17.1779 21.2441 17.1853C21.6379 17.2088 22.0325 17.1516 22.4018 17.0176C22.7712 16.8836 23.107 16.6757 23.3873 16.4077C23.6676 16.1397 23.886 15.8175 24.0282 15.4623C24.1704 15.1071 24.2332 14.7269 24.2125 14.3466ZM41.9426 40.4975L41.5596 40.5862C41.5596 42.0906 41.5902 43.5949 41.5596 45.0993C41.4868 47.8308 41.2991 50.5624 41.3144 53.2939C41.3144 54.5913 41.3144 56.0143 42.7852 57.1195C42.701 56.5059 42.6282 56.103 42.5975 55.6964C42.5631 55.2307 42.5975 54.7576 42.5477 54.2919C42.4903 53.6376 42.5286 52.9427 42.2988 52.3476C41.7281 50.8691 42.1226 49.6605 43.5896 48.9175C43.9343 48.7401 44.3097 48.6107 44.5548 48.5109C43.9611 47.1396 43.4057 45.8349 42.835 44.5264C42.797 44.4147 42.797 44.2943 42.835 44.1826C43.2908 42.7559 42.4328 41.6729 41.9234 40.4864L41.9426 40.4975ZM54.0461 101.308C52.9659 100.639 51.9701 99.9995 50.9512 99.4008C49.2659 98.4176 48.0135 97.2385 48.4386 95.0946C48.4949 94.4576 48.4949 93.8171 48.4386 93.18C47.6228 93.5274 46.987 93.7603 46.3856 94.0597C44.8535 94.8248 44.7042 95.1316 45.7307 96.4216C46.7572 97.7116 48.0633 98.887 49.2162 100.136C50.5069 101.537 51.9586 102.321 54.0307 101.308H54.0461ZM42.3754 50.8322C42.5899 51.3127 42.6435 51.7673 42.8963 51.9226C43.6623 52.3994 44.5318 52.7579 45.3515 53.1756C48.7987 54.9239 52.2459 56.7018 55.739 58.4206C56.6305 58.8732 57.5742 59.2231 58.5504 59.4629C60.1323 59.8325 61.7333 58.8198 61.6797 57.2895C60.0595 59.1376 58.4853 58.2062 56.9111 57.4854C54.7317 56.4874 52.5561 55.471 50.3767 54.473C47.799 53.2939 45.2174 52.1259 42.3754 50.8322ZM28.4717 10.4101C27.3226 10.3473 26.1736 11.6373 26.0318 13.0677C25.9131 14.1766 27.3533 15.7475 28.2151 15.7734C29.5825 15.814 31.2141 14.4353 31.329 13.0344C31.4708 11.3305 30.5975 10.5284 28.4717 10.4101ZM58.3474 60.3389L45.8149 54.011C45.3553 55.0903 45.9643 55.5375 46.7993 55.9034C48.0786 56.4652 49.3617 57.0123 50.6295 57.6407C53.1038 58.8604 55.5552 60.1208 58.0601 61.3849C58.1789 60.9673 58.2785 60.6457 58.3627 60.3389H58.3474ZM29.096 75.4196C28.8624 77.057 29.0424 77.2862 30.5285 77.2936C32.0146 77.3009 33.5659 77.3157 35.0826 77.2936C36.3351 77.2751 36.4385 77.1087 36.0709 75.8853C33.7727 76.0775 31.4325 76.4767 29.096 75.4159V75.4196ZM56.4629 93.35C55.9037 96.2774 58.65 96.5694 59.891 98.1551C60.4004 96.9649 60.4732 96.0557 59.4811 95.3571C58.5504 94.6991 57.589 94.0893 56.4629 93.3389V93.35ZM20.8036 41.6914C20.6389 40.4347 20.478 39.2519 20.321 38.0654L19.9763 38.0247L17.0883 42.5415L20.8036 41.6914ZM58.9181 60.4276V67.0402C59.2743 66.9145 59.6842 66.8517 59.6842 66.763C59.8297 64.5822 59.9369 62.394 60.0672 60.1097L58.9449 60.4276H58.9181ZM27.5371 92.9545C27.8742 94.9061 28.1921 96.7579 28.5483 98.8168C29.6437 97.3383 29.6437 97.3383 28.8088 92.7069L27.5371 92.9545ZM31.7695 101.19C32.6926 99.6003 32.3785 98.8537 30.2374 97.2939C29.9502 97.8705 29.6591 98.4397 29.3718 99.0164L31.7733 101.19H31.7695ZM47.7837 73.9226L48.0824 73.5049C47.3164 72.6153 46.5503 71.7258 45.7843 70.8362L45.4013 71.0506C45.4511 72.1077 45.497 73.1612 45.5545 74.3772L47.799 73.9263L47.7837 73.9226ZM47.9369 76.0368V74.4881L45.6885 75.0315C45.6272 76.3695 45.6272 76.3695 47.9215 76.0184L47.9369 76.0368ZM58.6691 94.104H59.0292C59.9101 92.304 59.7952 90.9512 58.6691 90.7553V94.104ZM27.5907 92.3446L28.3568 92.3779L28.6785 90.6148L27.3916 90.6665L27.5754 92.3446H27.5907ZM48.9289 100.706L44.3326 95.6454C45.4051 97.9814 47.2742 99.2566 48.9289 100.706ZM43.0572 52.854C42.8197 54.3325 44.0722 54.4212 44.888 54.9609C44.9953 53.6709 44.2828 53.1128 43.0572 52.854ZM59.8757 89.0328L58.9143 88.0903C58.7074 88.3786 58.3397 88.6669 58.3321 88.9589C58.3244 89.2509 58.7151 89.5355 58.899 89.8238L59.8757 89.0328Z" fill="black"/>
<path d="M15.2276 44.4713L11.4209 42.7674C12.2445 42.3024 14.4074 43.209 15.2276 44.4713Z" fill="black"/>
<path d="M46.9494 44.796C46.3082 45.2978 45.7365 45.9546 44.4116 45.5783L46.7833 44.4713L46.9494 44.7923" fill="black"/>
<path d="M24.9219 20.3945C26.7784 20.6932 28.2338 20.0467 29.448 18.885L29.8193 19.013C29.6225 19.5118 29.5482 20.0894 29.2067 20.4897C28.4641 21.3725 27.391 22.0222 26.136 21.9205C25.6348 21.8811 25.2041 21.1198 24.7437 20.6833C24.8105 20.5882 24.8736 20.4897 24.9367 20.3945H24.9219ZM25.8798 21.0509C26.6224 21.8811 27.6658 21.5792 28.672 20.2272L25.8798 21.0509Z" fill="black"/>
<path d="M18.3989 10.3563C18.4307 10.2355 18.3989 9.89673 18.5937 9.73174C19.7388 8.84789 21.7745 8.96574 22.8401 9.98511L18.3989 10.3563Z" fill="black"/>
<path d="M30.4531 8.77177L26.012 9.13795C26.4671 8.76188 26.7705 8.34952 27.1839 8.20437C28.7009 7.68645 29.6794 7.87449 30.4531 8.77177Z" fill="black"/>
<path d="M16.3475 18.3445C16.6547 20.5064 16.4838 22.7272 15.852 24.7851C15.3819 26.4048 14.899 28.0245 15.3183 29.7929C15.3596 29.972 15.15 30.2349 15.0547 30.4598C14.9085 30.2578 14.6576 30.0787 14.6354 29.8462C14.5056 28.1001 14.6731 26.3406 15.1277 24.6746C15.5375 22.9635 15.6201 21.138 15.8552 19.362C15.9028 18.9809 15.9949 18.6379 16.0648 18.2759L16.3475 18.3445Z" fill="black"/>
<path d="M38.0675 15.9311C38.0675 18.0575 38.0675 20.1839 38.0675 22.3142C38.0101 22.8009 37.9057 23.2836 37.7552 23.7587C37.4681 23.2912 37.0199 22.8391 36.9292 22.3487C36.7857 21.509 36.7603 20.66 36.8536 19.8161C36.9695 18.7395 37.2213 17.6705 37.453 16.6054C37.5563 16.3388 37.6982 16.0818 37.8761 15.8391L38.0625 15.9311" fill="black"/>
<path d="M32.9915 3.65515C34.8824 4.38692 36.8991 7.13104 36.7943 8.52871L32.9915 3.65515Z" fill="black"/>
<path d="M17.1309 27.4023C17.3878 25.6322 17.6448 23.8621 17.9095 21.931C19.0776 23.9464 17.8161 25.6437 17.6292 27.4138L17.1309 27.4023Z" fill="black"/>
<path d="M19.6677 14.6207C19.6677 13.3193 20.1801 12.8001 21.3135 12.7931C22.0153 12.7931 22.654 12.9299 22.84 14.1682C21.5065 13.1965 20.5485 13.6209 19.6818 14.6207" fill="black"/>
<path d="M27.2815 13.4023C27.3906 12.1976 28.0091 11.6034 28.8385 11.5747C29.3806 11.5747 29.9299 11.9845 30.4538 12.5213C29.906 12.3073 29.3148 12.2766 28.7519 12.433C28.1889 12.5893 27.6782 12.926 27.2815 13.4023Z" fill="black"/>
<path d="M25.3781 17.0575C25.2098 17.0575 25.0485 17.1217 24.9295 17.2359C24.8105 17.3502 24.7437 17.5051 24.7437 17.6667C24.7437 17.8283 24.8105 17.9832 24.9295 18.0975C25.0485 18.2117 25.2098 18.2759 25.3781 18.2759" fill="black"/>
</svg>
