<svg width="57" height="53" viewBox="0 0 57 53" fill="none" xmlns="http://www.w3.org/2000/svg">
<path d="M52.5146 40.2517C52.4143 39.7345 52.308 39.2172 52.2107 38.6793C52.1743 38.4595 52.1651 38.2371 52.1287 37.8905C53.007 38.7776 53.4173 41.2655 52.8246 41.6328C52.7122 41.1621 52.6028 40.6991 52.4934 40.2362L52.5086 40.2517H52.5146Z" fill="black"/>
<path d="M49.2057 47.9618C49.0561 48.0728 48.9563 48.1978 48.893 48.1799C48.846 48.1574 48.8052 48.1228 48.7747 48.0794C48.7441 48.036 48.7248 47.9853 48.7185 47.932C48.7315 47.8807 48.757 47.8337 48.7926 47.7955C48.8282 47.7572 48.8727 47.7292 48.9218 47.7139C48.987 47.7139 49.0695 47.8368 49.2057 47.9618Z" fill="black"/>
<path d="M56.707 56.8688C56.4743 54.7839 56.3967 52.6689 56.0117 50.6115C55.6382 48.6887 55.0809 46.766 53.7134 45.1838C53.6309 45.0228 53.5981 44.8428 53.6186 44.6646C53.7134 43.2912 53.4175 42.0909 52.2109 41.2476C51.7787 41.0016 51.3295 40.7841 50.8664 40.5966C51.0043 40.3906 51.1134 40.2422 51.2054 40.1104C51.3433 40.212 51.4524 40.3027 51.6995 40.5087V38.0668H51.823C51.9178 38.8221 52.0241 39.561 52.1505 40.4345C52.2568 40.3164 52.412 40.212 52.4378 40.0939C52.4666 39.7094 52.4378 39.3413 52.4378 38.9403V38.9265L51.8345 37.0779C51.4843 36.89 51.195 36.6135 50.9985 36.2786C50.039 34.43 48.2147 33.5318 46.0629 33.941C44.2529 34.2816 43.325 35.5534 42.7677 37.1054C42.5033 37.8608 41.9948 38.1711 41.2508 37.9047C41.1904 36.8554 41.8081 36.0259 42.3195 35.1991C43.7559 32.9055 45.767 32.4028 47.982 32.8451C51.0129 33.4384 52.7768 35.493 53.1963 38.4815C53.2738 39.0748 53.3342 39.6517 53.4117 40.2285C53.4577 40.2285 53.5209 40.2285 53.5669 40.256C53.6668 39.9904 53.7296 39.7133 53.7536 39.4319C53.6589 37.5976 52.9419 35.8427 51.711 34.4327C50.5819 33.0593 49.0018 32.4935 47.2695 32.4056C45.6003 32.3314 44.0375 32.6802 42.8452 34.018C41.561 35.4545 40.7566 37.0669 40.771 38.9622C40.771 39.8961 41.0037 40.8108 41.1272 41.7448C41.1636 41.8257 41.2048 41.9046 41.2508 41.981C41.3599 41.7887 41.4059 41.6843 41.4059 41.6843H42.5551C42.5235 41.5085 42.5062 41.33 42.4919 41.1679C42.5309 41.1401 42.5722 41.1153 42.6154 41.0938C42.7562 41.2998 42.9027 41.5085 43.0492 41.7145C43.1268 41.6706 43.2187 41.6267 43.2963 41.58C43.0952 41.1377 42.8941 40.6927 42.693 40.234C43.6065 41.2119 44.365 42.2309 45.7411 42.632C45.8126 42.6865 45.8695 42.7566 45.907 42.8364C45.9444 42.9162 45.9614 43.0034 45.9566 43.0907C45.9234 43.1845 45.8706 43.2708 45.8015 43.3444C45.7323 43.4181 45.6483 43.4776 45.5544 43.5192C44.3477 43.9779 43.0952 44.3185 41.9345 44.8652C41.3755 45.1594 40.7507 45.3209 40.1128 45.3362C39.4749 45.3515 38.8424 45.2201 38.2687 44.9531C37.9125 44.8047 37.7717 44.6289 37.8033 44.2883C37.8672 43.6493 37.8931 43.0074 37.8809 42.3655C37.7889 40.8108 37.5734 39.2589 37.5102 37.6959C37.4327 35.0178 36.9069 32.4138 36.3036 29.8263C35.8698 27.9777 35.1889 26.173 34.6316 24.3327C34.5478 24.1058 34.5592 23.8568 34.6632 23.6377C34.7954 23.4749 34.8734 23.2779 34.8872 23.0723C34.901 22.8666 34.85 22.6617 34.7408 22.4841C33.8444 20.7069 32.9912 18.9132 31.9857 17.1882C31.4111 16.2103 30.6555 15.3094 29.4 14.9907C28.7461 14.8378 28.1047 14.6395 27.481 14.3974C26.1652 13.8947 24.8494 13.4058 23.5824 12.7988C22.6545 12.3703 22.5453 11.4693 23.1343 10.67C23.243 10.5131 23.3163 10.3363 23.3497 10.1508C23.4417 9.54652 23.4733 8.93947 23.5968 8.33242C23.7519 7.63748 23.999 6.95901 24.1714 6.27506C24.2078 6.10338 24.1979 5.92567 24.1426 5.75865C23.8554 4.69289 23.6313 3.59965 23.2118 2.57783C22.9964 2.07517 22.4247 1.70434 21.9908 1.30605C21.9133 1.21816 21.7036 1.27584 21.5427 1.24563C21.3918 1.24424 21.2433 1.20945 21.1089 1.14399C19.7698 0.250401 18.1336 -0.140702 16.5122 0.0452639C15.1421 0.198489 13.8418 0.706624 12.7516 1.51481C12.2086 1.9131 11.8897 2.59431 11.0796 2.68221C10.9244 2.69869 10.7406 2.92119 10.6774 3.08325C10.4763 3.71776 9.70345 4.10232 9.91892 4.94559C10.0453 5.45101 9.76665 6.02784 9.82699 6.54424C9.87295 6.94253 10.1832 7.32983 10.3843 7.72812C10.5209 7.90737 10.6258 8.1069 10.6946 8.31869C10.8009 9.2224 10.8325 10.1234 10.9417 11.0106C11.0742 12.0705 11.6075 13.0475 12.4413 13.7574C10.9244 14.3919 9.53395 14.999 8.13197 15.5758C6.55475 16.2433 5.2246 17.1744 4.29665 18.5973C2.91479 20.7014 2.40916 23.0691 2.12187 25.4918C2.10463 25.7308 2.36894 25.9945 2.49247 26.2472C2.57004 26.4395 2.73954 26.662 2.71081 26.8542C2.52408 28.2744 2.19944 29.6945 2.13623 31.1146C1.91789 34.4108 1.61049 37.7069 0.77448 40.9207C0.326308 42.6814 -0.0873908 44.4724 0.0160336 46.321C0.0131426 46.8766 0.227027 47.4134 0.615903 47.8263C1.00478 48.2393 1.54071 48.4988 2.119 48.5541C2.16496 48.5706 2.2138 48.5102 2.40629 48.4058C1.43237 48.0954 1.35481 47.4005 1.36917 46.6314C1.373 46.1729 1.35286 45.7145 1.30884 45.2579C1.28061 45.1133 1.24417 44.9703 1.19967 44.8294C1.16807 44.8294 1.13934 44.8294 1.10774 44.8294V47.9526C0.59636 47.4334 0.271723 46.917 0.349291 46.2798C0.550394 44.5493 0.783098 42.8188 1.07613 41.0883C1.41801 38.987 1.89778 36.9021 2.17358 34.7871C2.46087 32.7297 2.54706 30.6449 2.74816 28.5738C2.85165 27.9363 2.99071 27.3045 3.16473 26.6812C4.12428 26.9559 4.96029 27.1976 5.79631 27.4338C5.47167 28.766 5.03786 30.112 4.85112 31.4717C4.56383 33.4851 4.44892 35.5122 4.34262 37.5394C4.31102 37.8635 4.55809 38.3827 4.8224 38.4843C5.26482 38.6766 5.28206 38.9512 5.28206 39.3248C5.28206 39.9758 5.09532 40.6982 5.31366 41.2476C5.7446 42.3271 5.49753 43.3489 5.38836 44.3982C5.32531 44.6849 5.2219 44.9621 5.08096 45.2222C4.97216 45.2191 4.8637 45.209 4.75632 45.192C4.66151 44.4833 4.56958 43.7719 4.46903 43.0632C4.4059 43.0657 4.34326 43.0749 4.28229 43.0907C4.2612 43.6631 4.27175 44.2361 4.31389 44.8075C4.32826 45.03 4.56096 45.3568 4.73046 45.3843C5.37974 45.4722 5.24184 45.887 5.2562 46.288C5.33377 48.5514 5.36537 50.8285 5.54349 53.0919C5.68139 54.6905 6.03763 56.2727 6.33067 57.8549C6.36227 58.0609 6.6553 58.2092 6.82768 58.3878C7.00005 58.5663 7.33618 58.7421 7.38502 58.9646C7.58612 59.7886 7.70966 60.6511 7.83319 61.4944C8.04866 63.0024 8.1722 64.5159 8.4365 66.0349C8.76114 67.8698 8.74677 67.9879 7.13508 68.9355C7.12071 68.9493 7.08911 68.9493 7.07475 68.9658C5.88249 69.7486 4.70748 70.5177 3.53246 71.317C3.2485 71.479 3.02892 71.7267 2.90827 72.0211C2.78761 72.3155 2.77273 72.6398 2.86595 72.9432C2.91941 73.2223 3.06045 73.4793 3.27034 73.68C3.48022 73.8806 3.749 74.0155 4.04097 74.0666C4.70975 74.1497 5.38788 74.1349 6.052 74.0227C8.267 73.6683 10.4791 73.2975 12.6597 72.8553C14.438 72.5009 15.1821 72.1438 15.4923 70.71C15.6177 70.1693 15.6689 69.6153 15.6446 69.0619C15.6159 68.5125 15.274 67.9824 15.2596 67.433C15.2596 64.667 15.32 61.8872 15.3975 59.1047C15.4158 58.9822 15.4648 58.8657 15.5403 58.7653C15.6159 58.6648 15.7157 58.5834 15.8313 58.5278C16.0348 58.4656 16.2058 58.3314 16.3093 58.1528C16.4129 57.9741 16.4413 57.7644 16.3887 57.5665C16.2912 56.7962 16.2394 56.0213 16.2336 55.2454C16.3111 52.6716 16.4031 50.0814 16.5208 47.5076C16.5524 46.7824 16.6616 46.0737 16.7392 45.3101H17.7907C17.7907 45.5189 17.8366 45.681 17.8366 45.843C17.9918 48.0762 18.0837 50.3093 18.2848 52.5288C18.4543 54.4076 18.7186 56.2864 18.9973 58.1653C19.0432 58.4921 19.3392 58.786 19.523 59.0964C19.6053 59.2128 19.6629 59.3434 19.6925 59.481C19.8017 60.5467 19.8793 61.6263 19.9798 62.692C20.2096 65.1175 20.428 67.5292 20.721 69.9409C20.7842 70.5617 20.9221 71.3143 21.3416 71.7593C22.5538 73.0207 23.8339 74.2209 25.1769 75.3549C25.6378 75.7403 26.1898 76.0129 26.7853 76.1493C27.3808 76.2857 28.0021 76.2817 28.5956 76.1377C29.2305 76.0196 29.6644 75.6955 29.7448 75.1187C29.8224 74.608 29.7802 74.0873 29.6213 73.5942C29.0955 72.2345 28.4721 70.916 27.8975 69.5701C27.5585 68.7707 26.9552 68.0923 27.0357 67.1144C27.254 64.7494 27.3459 62.3679 27.4551 59.9864C27.4867 59.4233 27.4551 58.8877 28.0871 58.5498C28.2225 58.4469 28.3119 58.2986 28.3371 58.135C28.6761 56.2562 29.0323 54.3774 29.2966 52.4848C29.4977 51.1114 29.5839 49.7627 29.696 48.3866C29.8224 46.6259 29.9603 44.8679 30.0235 43.1072C30.0838 41.4948 30.0235 39.8824 30.0235 38.27C30.0378 37.8992 30.3108 37.5147 30.2705 37.1438C30.101 35.4957 29.8683 33.8614 29.6356 32.2188C29.4345 30.741 29.061 29.2742 29.4977 27.8404C29.8683 27.9447 30.2246 28.0189 30.6124 28.115C30.6727 28.3238 30.7676 28.5738 30.8422 28.8402C30.9169 29.1066 31.075 29.4472 31.0146 29.7137C30.3625 32.2133 30.9974 34.5371 31.9885 36.8279C32.8245 38.7507 33.3503 40.69 32.4367 42.7611C32.2356 43.2033 32.4223 43.7829 32.4051 44.2993C32.3788 44.451 32.3374 44.6 32.2816 44.7443C32.0652 45.25 31.8997 45.7743 31.7874 46.31C31.7415 46.8868 32.1437 47.1533 32.747 47.0791C33.0324 47.0351 33.3201 47.0058 33.6088 46.9912C34.7379 46.9472 35.7606 45.6013 35.4188 44.4476C35.0941 45.3349 34.8787 46.2221 33.9191 46.755C34.2438 46.0298 34.5224 45.3953 34.2064 44.6701C34.0369 45.2909 33.8502 45.9117 33.6807 46.5325L33.4939 46.4885C33.5248 46.3671 33.5402 46.2426 33.5399 46.1177C33.448 45.5134 33.5571 44.6399 33.1693 44.3433C32.4252 43.7664 32.5344 43.2638 32.8274 42.6265C33.4939 41.1185 33.3704 39.6242 32.8274 38.1162C32.3476 36.784 31.8535 35.4381 31.4369 34.0784C31.0635 32.878 30.8624 31.6365 31.2042 30.4086C31.4025 29.6584 31.3317 28.8662 31.0031 28.159C30.9743 28.0363 30.9746 27.9089 31.0039 27.7863C31.0332 27.6637 31.0909 27.5489 31.1726 27.4503C31.8535 26.651 32.6091 25.8983 33.3072 25.143C33.5715 24.8463 33.8645 24.5661 34.1892 24.2393C34.3615 24.6843 34.5167 25.0249 34.6086 25.3655C35.1487 27.258 35.6917 29.1369 36.1715 31.0459C36.5032 32.2923 36.7584 33.5561 36.9357 34.831C37.1684 36.9159 37.2603 39.0172 37.493 41.102C37.7205 42.7026 37.5623 44.3318 37.0305 45.865C36.8437 46.3539 36.7432 46.9637 35.8813 46.9637C36.1686 46.1946 36.8868 45.5903 36.6398 44.7306C36.2519 45.6755 35.9589 46.6533 34.8155 47.1258C34.8979 47.174 34.9856 47.2136 35.0769 47.2439C35.8661 47.2916 36.6518 47.3833 37.4298 47.5186C38.5589 47.7713 39.6563 48.2135 40.8486 48.0515C41.3743 47.9773 41.9 47.829 42.4114 47.7273C42.6987 47.6669 42.9228 47.623 42.986 48.0212C43.4974 50.5813 43.6985 53.1248 43.2733 55.7288C43.0703 57.0813 42.9819 58.4473 43.009 59.8134C43.009 60.522 42.9314 61.3955 43.8306 61.824C43.9226 61.868 43.9226 62.0987 43.9226 62.2388C43.9829 64.0737 44.0461 65.9223 44.0777 67.7544C44.1093 69.4025 44.4943 71.1138 42.8854 72.3718C42.5464 72.6465 42.3453 73.0366 42.624 73.4706C42.7498 73.6553 42.9414 73.7902 43.1632 73.8503C43.3851 73.9103 43.6221 73.8916 43.8306 73.7974C44.7388 73.4917 45.623 73.1245 46.4766 72.6987C47.6516 72.0477 47.8843 71.1907 47.4189 70.0068C47.373 69.8375 47.3574 69.6619 47.3729 69.4877C47.3413 67.2243 47.3585 64.9472 47.3097 62.67C47.2953 62.2251 47.2494 61.8845 47.7895 61.7224C47.9446 61.662 48.0538 61.3378 48.0768 61.1153C48.1716 60.1979 48.2175 59.2805 48.2635 58.3685C48.6514 58.2367 48.8381 58.3411 48.8209 58.7393C48.7898 59.2771 48.8051 59.8164 48.8668 60.3517C48.9904 61.0165 48.6801 61.89 49.7287 62.2003C49.7919 62.2168 49.8206 62.4531 49.8379 62.6014C49.9154 63.3705 50.0074 64.1231 50.0677 64.8922C50.1769 66.1063 50.332 67.3039 50.378 68.518C50.4268 70.1304 50.378 71.7565 52.0327 72.7619C52.7478 73.2185 53.5199 73.5877 54.3311 73.8606C54.6729 73.965 55.2763 73.6546 55.5865 73.3579C55.9715 72.9899 55.6957 72.5147 55.4314 72.1301C55.3395 71.9983 55.2303 71.8939 55.1441 71.7758C54.6787 71.2429 54.1989 70.7402 53.7507 70.1936C53.286 69.6177 53.0407 68.9074 53.0555 68.1802C53.0842 66.1091 52.9923 64.0242 52.9779 61.9531C52.9779 61.5988 53.2078 61.2582 53.3169 60.9038C53.4577 60.4753 53.7364 60.0166 53.6732 59.6018C53.3859 57.561 53.179 55.4816 52.5901 53.5369C52.1419 52.1168 52.4666 50.8285 52.5585 49.2903C52.6587 49.4773 52.747 49.6699 52.8228 49.8671C53.1474 50.8148 53.5353 51.7322 53.6588 52.7513C53.8743 54.3197 54.2334 55.8579 54.6011 57.3962C54.7627 57.9258 54.9594 58.4451 55.1901 58.9509C55.4975 58.7284 55.6698 58.6102 56.072 58.3136C55.282 58.4619 55.9025 57.3083 55.0206 57.6791C54.9536 56.9406 54.8395 56.2067 54.6787 55.4816C54.1673 53.4847 53.6588 51.4877 52.9923 49.5347C52.4177 47.8345 51.8431 46.1342 51.8173 44.0768C52.5269 44.6839 53.2537 45.0986 53.6732 45.7029C55.1441 47.7905 55.7474 50.2022 56.1324 52.6277C56.3335 53.9297 56.21 55.2591 56.2732 56.5913C56.3019 57.1682 56.4427 57.745 57 58.0993C56.9425 57.6543 56.7558 57.2698 56.707 56.8688ZM33.0802 44.5905C33.267 45.3321 33.4997 46.0106 32.9423 46.6314C32.655 46.928 32.385 46.906 32.2471 46.4995C32.0489 45.9227 32.4338 44.9943 33.0831 44.5905H33.0802ZM21.4795 1.94332C21.7438 1.63293 21.9276 1.66863 22.0684 2.03396C22.1776 2.32787 22.2523 2.60805 22.6861 2.52015C22.7637 2.50642 22.9188 2.65475 22.9332 2.75638C23.1055 3.33321 23.2434 3.92652 23.3842 4.51709C23.5077 4.96207 23.6313 5.40431 23.7548 5.83556C23.4675 5.65702 23.1975 5.33015 22.982 5.37684C22.5625 5.45101 22.3471 5.77513 22.2839 6.26407C22.2379 6.57446 21.8817 6.85464 21.6662 7.15129C21.6057 7.13326 21.5428 7.12309 21.4795 7.12108C21.4335 6.88485 21.2784 6.58819 21.3732 6.42613C21.5642 6.18718 21.6501 5.88634 21.6126 5.58771C21.575 5.28909 21.4169 5.0163 21.1721 4.82748C21.7466 3.95674 21.4795 3.20136 20.9394 2.3883C21.134 2.25701 21.3149 2.10798 21.4795 1.94332ZM10.6199 7.40125C9.97063 5.87951 10.0769 4.47314 11.0997 3.20136L11.387 3.24531C11.3094 3.62987 11.2002 4.00069 11.1543 4.38524C11.1083 4.7698 11.1543 5.22852 11.0911 5.64329C10.9656 6.2366 10.8083 6.82336 10.6199 7.40125ZM12.7516 13.8673C12.8435 14.4166 13.1366 14.4743 13.6135 14.4441C13.9869 14.4139 14.3863 14.6803 14.8373 14.8424C14.8373 14.8424 14.8977 14.7243 15.0068 14.5485C15.0988 14.738 15.162 14.8589 15.2539 15.0512C15.3774 14.9166 15.4866 14.7984 15.6705 14.6062C15.7653 14.7545 15.8428 14.9028 15.8716 14.9605C16.1799 14.7999 16.5007 14.6621 16.8311 14.5485C17.2965 14.4441 17.7907 14.4002 18.2676 14.326C18.3308 14.3095 18.3767 14.2079 18.4371 14.1639C19.5862 13.2465 21.1922 12.6834 21.2697 10.8677C20.7442 12.0804 19.7694 13.0653 18.5319 13.6338C18.4371 13.5157 18.3451 13.3948 18.2446 13.263C18.121 13.5377 18.0291 13.7794 17.9199 14.0183C17.8804 13.9998 17.839 13.9851 17.7964 13.9744C17.7361 13.7794 17.6872 13.5898 17.6413 13.425H17.5177C17.4574 13.6475 17.4114 13.8535 17.3166 14.1941C17.1787 13.9195 17.1012 13.7492 16.9604 13.4827C16.9001 13.7794 16.8369 14.0019 16.7593 14.3864C16.607 14.0623 16.5122 13.8673 16.4347 13.6915C16.3901 13.6779 16.3434 13.6723 16.2968 13.675C16.2652 13.8975 16.2336 14.1062 16.1732 14.499C16.0181 14.1145 15.9262 13.8618 15.7854 13.4937C15.6762 13.7684 15.5986 13.9524 15.4751 14.2463C15.4464 13.9222 15.4148 13.697 15.3975 13.4772C15.3688 13.4772 15.3228 13.4772 15.2912 13.4498C15.2137 13.686 15.1217 13.9359 15.0039 14.3507L14.6621 13.5679C14.5242 13.8041 14.4294 13.9662 14.2915 14.2189C14.1967 13.9662 14.1363 13.7876 14.0444 13.5377C13.9352 13.7162 13.8577 13.848 13.7801 13.9964L13.0073 13.3454C12.6051 13.4333 11.9702 13.0707 11.7691 12.4142C11.5155 11.532 11.3084 10.6381 11.1485 9.73605C10.8239 8.18135 11.2893 6.68708 11.568 5.16534C11.6599 4.61598 11.9386 4.06661 11.8782 3.36068C11.7834 2.33886 12.8378 1.71259 13.7169 1.27309C14.9407 0.668793 16.2881 0.174365 17.6786 0.372136C18.7933 0.534199 19.8448 1.03687 20.9135 1.4379C21.0054 1.46537 21.0686 1.85267 20.9911 1.94057C20.6176 2.33886 20.6808 2.67947 20.8359 3.15192C20.9738 3.55295 21.2525 4.02541 20.8963 4.49786C20.857 4.56527 20.8341 4.64023 20.8291 4.71724C20.8241 4.79424 20.8373 4.87133 20.8675 4.94285C21.376 5.78612 20.8187 6.67334 21.0054 7.51662C21.083 7.84349 20.8675 8.40384 21.4392 8.35989C21.7007 7.93139 21.8415 7.47267 22.1517 7.26116C22.3575 7.11792 22.5288 6.93424 22.6541 6.72247C22.7795 6.51069 22.856 6.27572 22.8786 6.03334C22.8786 5.94269 22.9849 5.86853 23.0481 5.78063C23.4187 6.2833 23.3583 7.90941 22.9245 8.20607C22.7234 8.32418 22.3988 8.2665 22.1345 8.28023C22.2264 9.28557 22.3528 10.3513 22.4218 11.4308C22.485 12.1423 22.6229 12.8043 23.3986 13.1037C21.7581 15.9439 15.5239 18.3226 11.7633 14.4194C12.0736 14.2299 12.3839 14.0595 12.7516 13.8673ZM5.52913 39.2809H5.7762V41.7365C5.37399 40.8328 5.6067 40.05 5.52913 39.2809ZM8.267 62.0245C8.11186 60.9011 7.91076 59.7914 7.70966 58.624C10.0931 59.0401 12.5274 59.1197 14.935 58.8602V67.8396C13.8376 67.6171 12.7545 67.5649 11.703 67.9577C11.6082 67.9879 11.4846 67.9275 11.3784 67.8973C10.775 67.7791 10.1689 67.6226 9.56842 67.5594C9.16335 67.5127 8.99384 67.4385 8.93351 67.01C8.74678 65.3207 8.51407 63.6726 8.267 62.0245ZM15.4492 68.3422C15.2625 69.3476 15.2338 70.3831 14.8747 71.3006C14.55 72.1438 13.5273 72.3224 12.6769 72.4844C10.5107 72.8992 8.34457 73.3085 6.16404 73.6518C5.5316 73.7706 4.88261 73.7855 4.24494 73.6958C4.05081 73.6424 3.87063 73.5505 3.71618 73.426C3.56173 73.3015 3.43648 73.1473 3.3486 72.9734C3.23715 72.7433 3.21467 72.4829 3.28516 72.2384C3.35565 71.994 3.51454 71.7814 3.73357 71.6384C4.75632 70.9435 5.7762 70.265 6.81331 69.5811C7.38789 69.1965 8.00557 68.8284 8.57727 68.4137C9.51959 67.7187 10.324 67.6885 11.4703 68.4713L9.81549 70.7072C10.4188 70.8254 10.5883 70.3227 10.867 70.0563C11.1678 69.7917 11.3874 69.4535 11.5019 69.0784C11.7174 68.073 12.5218 68.0291 13.2974 68.0428C13.9467 68.0373 14.6104 68.2159 15.4464 68.3422H15.4492ZM27.9492 70.4436C28.5208 71.6869 29.0167 72.9608 29.4345 74.2589C29.7448 75.1901 29.1731 75.7971 28.136 75.907C26.6507 76.0553 25.5504 75.3741 24.5621 74.4567C23.6198 73.5832 22.643 72.6959 21.761 71.7648C21.4711 71.388 21.2746 70.9531 21.1864 70.493C21.09 70.0192 21.0333 69.5388 21.0169 69.0564C22.0828 69.2652 22.485 70.1963 23.0739 70.9215C23.1403 70.877 23.2028 70.8274 23.2607 70.7732C23.19 70.579 23.0934 70.3944 22.9734 70.2238C22.5884 69.809 22.7723 69.4684 23.1745 69.2926C23.7636 69.0618 24.3683 68.8691 24.9844 68.7158C25.0299 68.7024 25.0776 68.6968 25.1252 68.6993C27.4379 68.7185 26.9868 68.3422 27.9464 70.4353L27.9492 70.4436ZM26.6823 68.3285C25.9323 68.1955 25.1607 68.2252 24.4243 68.4154C23.6879 68.6056 23.0055 68.9513 22.4275 69.4272C21.9674 69.1502 21.5233 68.8495 21.0974 68.5263C20.9411 68.3645 20.8531 68.1531 20.8503 67.933C20.563 65.0928 20.2757 62.269 19.9654 59.264C22.3816 60.2693 24.7632 59.915 27.254 59.0717C27.05 62.2553 26.8633 65.2878 26.6794 68.3203L26.6823 68.3285ZM29.604 44.9943C29.5092 46.755 29.4317 48.5129 29.2162 50.2599C28.8915 52.8776 28.4721 55.4789 28.067 58.0691C28.0338 58.1669 27.9796 58.257 27.9079 58.3336C27.8361 58.4103 27.7485 58.4717 27.6505 58.5141C25.9641 59.0635 24.2777 59.6376 22.4792 59.4618C21.58 59.3711 20.7153 59.047 19.8477 58.7806C19.6609 58.7366 19.4914 58.4537 19.4598 58.2779C19.2444 56.7232 19.0748 55.1712 18.9053 53.6083C18.7358 52.0453 18.5319 50.4137 18.394 48.8151C18.302 47.6477 18.2848 46.4638 18.2245 45.3239C18.5491 45.192 18.7818 45.0876 18.9973 44.9997C18.98 44.9256 18.98 44.8651 18.9657 44.791H15.5843C15.6159 44.8212 15.6791 45.0135 15.7394 45.0135C16.5151 45.0574 16.4059 45.5766 16.36 46.049C16.1876 48.2685 15.9405 50.4879 15.8802 52.7211C15.8614 54.3311 15.9285 55.941 16.0813 57.5445C16.1129 57.9565 15.9721 58.1653 15.6159 58.2532C14.1037 58.6667 12.5204 58.7872 10.9589 58.6075C10.0482 58.4894 9.13462 58.4015 8.22104 58.2971C7.83427 58.2553 7.45051 58.1911 7.07188 58.1048C6.99519 58.0739 6.92645 58.0275 6.8704 57.9686C6.81435 57.9098 6.77232 57.8401 6.74724 57.7642C6.00603 54.1412 5.46305 50.4879 5.61819 46.7769C5.67979 45.6426 5.8035 44.5121 5.98879 43.3901C6.02271 43.2459 6.08878 43.1104 6.18249 42.9928C6.2762 42.8753 6.39534 42.7784 6.53177 42.7089C7.98546 42.1925 8.4796 41.113 8.5428 39.7506C8.56004 39.5583 8.78987 39.2342 8.9134 39.2479C11.1112 39.2781 13.3089 39.3385 15.3516 39.3962C15.7049 40.7696 16.0324 42.0744 16.4031 43.3764C16.4347 43.5082 16.6645 43.5824 16.7737 43.6511C16.4347 42.2447 16.11 40.8548 15.7538 39.3468C19.6207 39.3468 23.2894 39.1682 26.9092 38.3552C27.1707 40.2038 26.9092 42.2749 29.6155 42.5853C29.6184 43.4066 29.65 44.2059 29.604 44.9943ZM6.22437 42.3161V38.9512C6.79895 38.9952 7.44823 39.0556 8.0659 39.1133C8.31297 40.9372 7.67806 42.0332 6.22437 42.3134V42.3161ZM29.696 42.0799C28.7824 42.198 27.932 41.7255 27.7453 40.9811C27.5758 40.3027 27.5298 39.5913 27.4206 38.8963C27.3287 38.3799 27.6217 38.2151 28.0728 38.1409C28.5238 38.0668 29.0783 37.9651 29.696 37.847V42.0799ZM34.2754 23.569C33.5025 24.47 32.6522 25.3298 31.8305 26.2005C31.4283 26.629 31.0261 27.0603 30.6239 27.5025C30.3366 27.8129 30.0982 27.7991 29.8195 27.4283C28.6272 25.9341 27.547 24.3684 27.096 22.517C26.8413 21.5545 26.8007 20.5515 26.9769 19.573C27.153 18.5945 27.542 17.6623 28.1187 16.8366C28.2423 16.6443 28.3802 16.452 28.5209 16.2598C28.4577 16.2021 28.3802 16.1581 28.3198 16.1114C27.9819 16.5385 27.6765 16.9883 27.4063 17.4574C26.168 19.9432 26.3088 22.4016 27.6677 24.7969C27.8681 25.2309 28.1176 25.6426 28.4118 26.0247C29.1243 26.7938 29.2478 27.6728 29.1386 28.6259C28.9231 30.4169 29.4029 32.1336 29.6184 33.8779C29.7419 34.8832 29.8511 35.8913 30.0062 36.8829C30.0522 37.251 29.9287 37.4597 29.5581 37.5339C27.6849 37.858 25.8233 38.303 23.9415 38.4953C21.5886 38.7452 19.207 38.8936 16.8225 38.9238C14.0071 38.9677 11.1772 38.8798 8.34457 38.7754C7.29305 38.7064 6.24829 38.5632 5.21885 38.3469C5.08728 38.2917 4.97187 38.2065 4.88272 38.0988C4.79357 37.991 4.7334 37.864 4.70748 37.7289C4.78505 35.8638 4.75345 33.9713 5.07808 32.1501C5.43432 30.0653 6.14393 28.0519 6.6553 25.9972C6.74153 25.5376 6.74153 25.067 6.6553 24.6073C6.47144 23.2339 5.82216 21.9292 6.25597 20.4871H5.96868C5.90319 21.0773 5.87632 21.6709 5.88824 22.2643C5.95984 22.9235 6.08471 23.5765 6.26172 24.2173C6.41389 24.7059 6.45339 25.2202 6.37751 25.7247C6.30162 26.2293 6.11215 26.7121 5.82216 27.1399C4.90858 26.8268 3.93467 26.5026 2.97512 26.1785C2.87476 26.1561 2.78015 26.1146 2.69693 26.0565C2.61371 25.9984 2.5436 25.9248 2.49078 25.8402C2.43795 25.7556 2.4035 25.6617 2.38948 25.5641C2.37545 25.4665 2.38215 25.3672 2.40916 25.2721C2.7654 23.3191 3.10727 21.3661 4.06682 19.5477C4.98474 17.8279 6.53169 16.4906 8.41352 15.79C9.21793 15.4659 10.0223 15.139 10.8124 14.7847C10.9598 14.689 11.1388 14.6481 11.3156 14.6699C11.4923 14.6916 11.6547 14.7745 11.7719 14.9028C13.1337 16.1444 14.7109 16.8558 16.63 16.7954C16.7851 16.7816 17.0322 17.0701 17.0925 17.2404C17.1721 17.508 17.2032 17.7867 17.1845 18.0644C17.2528 18.0622 17.3212 18.0668 17.3885 18.0781C17.4144 17.768 17.4087 17.4561 17.3712 17.147C17.2937 16.7624 17.4488 16.702 17.7734 16.6745C18.9429 16.5514 20.0728 16.1972 21.0916 15.6345C22.1104 15.0718 22.9958 14.3129 23.6916 13.4058C25.4872 14.0129 27.2655 14.6336 29.0783 15.1803C30.4544 15.595 31.322 16.5537 31.9512 17.6524C32.8791 19.262 33.6376 20.9651 34.4133 22.6351C34.4642 22.7908 34.4783 22.9554 34.4545 23.117C34.4306 23.2785 34.3694 23.4329 34.2754 23.569ZM42.9716 39.0556C42.9257 36.1412 44.5488 34.2487 47.1316 34.235C49.2202 34.235 51.0473 36.0836 50.9841 38.3552C51.0014 40.8273 49.4989 42.4507 46.7926 42.5551C45.2613 42.61 42.986 40.495 42.9716 39.0584V39.0556ZM49.1915 44.2746C48.2779 44.9997 46.8242 45.2497 46.0485 44.0521C46.2209 43.6813 46.3588 43.3434 46.5283 42.9534L47.7809 42.7446C48.2003 42.6869 48.6025 42.5963 49.0047 42.5386C49.1756 42.8316 49.306 43.1446 49.3926 43.4698C49.4205 43.6086 49.4171 43.7515 49.3824 43.8889C49.3477 44.0263 49.2826 44.155 49.1915 44.2663V44.2746ZM40.2022 47.7136C39.1191 47.6971 38.036 47.2824 36.9673 47.0324C37.2143 46.3677 37.4154 45.8183 37.6481 45.1398C38.7169 45.3761 39.8315 46.1012 41.0669 45.5986C42.1816 45.1234 43.279 44.6207 44.4253 44.118C44.7356 45.0492 44.8103 45.8925 44.5029 46.722C44.3691 47.0088 44.1732 47.2653 43.9283 47.4746C43.8507 47.5488 43.641 47.5213 43.5089 47.5351C43.5089 47.4169 43.5089 47.2824 43.5089 47.1203C42.397 47.329 41.2996 47.7136 40.2022 47.7136ZM46.6834 72.0477C45.7361 72.5583 44.7543 73.008 43.7444 73.3936C43.5577 73.4815 43.2647 73.3332 43.0004 73.2893C43.034 73.0597 43.1017 72.8358 43.2015 72.6245C43.4524 72.2729 43.7269 71.937 44.0231 71.6192C45.4912 72.4597 46.2956 71.3802 47.1833 70.5974C47.2992 70.8558 47.3123 71.1459 47.2202 71.4129C47.1282 71.68 46.9373 71.9057 46.6834 72.0477ZM44.2242 61.9888H46.9161C46.9305 62.1207 46.9621 62.1948 46.9621 62.2827C47.0081 64.7686 47.0713 67.2545 47.1029 69.7404C47.1029 70.493 45.5228 71.6906 44.7816 71.5148C44.4713 71.4544 44.2845 71.3528 44.3793 70.938C44.49 70.3954 44.5314 69.842 44.5029 69.2899C44.4253 66.8535 44.3161 64.3978 44.2242 61.9888ZM53.7048 70.6853C54.2305 71.2786 54.7419 71.8087 55.1728 72.3883C55.3136 72.5641 55.4228 72.9377 55.3136 73.0833C55.2178 73.2052 55.0971 73.3073 54.9589 73.3833C54.8206 73.4593 54.6676 73.5077 54.5092 73.5255C53.3801 73.542 52.6217 72.8168 51.8776 72.1356C51.3662 71.6631 50.8118 71.1605 50.8893 70.3007C51.4151 70.6551 51.8316 71.0698 52.3574 71.2484C52.8831 71.4269 53.4922 71.4983 53.6933 70.6853H53.7048ZM53.1474 69.8612C53.1943 70.1943 53.2096 70.5308 53.1934 70.8666C52.8228 70.8226 52.3746 70.883 52.0787 70.7045C51.0416 70.0837 50.6882 69.1361 50.6423 67.9577C50.5934 66.1668 50.4096 64.3868 50.286 62.6179C50.2631 62.4865 50.2265 62.3577 50.1769 62.2333C51.0129 62.0383 51.8173 61.846 52.682 61.6565C52.682 62.8541 52.682 64.1286 52.682 65.3839C52.6993 66.5376 52.7136 67.705 52.7912 68.8586C52.7941 69.2212 53.0584 69.5316 53.1359 69.8722L53.1474 69.8612ZM51.9724 47.9526C52.0471 49.1227 51.9552 50.2901 51.9724 51.474C51.9664 52.0138 52.0077 52.5532 52.096 53.0864C52.4034 54.6988 52.7596 56.2974 53.0842 57.9098C53.1934 58.4866 53.2078 59.0635 53.3169 59.6403C53.3707 59.8595 53.3551 60.0891 53.2723 60.2998C53.1894 60.5106 53.043 60.6931 52.8515 60.8242C52.1103 61.4285 51.2915 61.8295 50.2659 61.6675C49.9721 61.6521 49.6777 61.6521 49.3839 61.6675C49.2776 60.4094 49.1685 59.1651 49.0593 57.9235C47.9935 57.8494 47.8211 57.9977 47.8211 58.9289C47.8211 59.5359 47.8211 60.1265 47.8211 60.7335C47.7895 61.2527 47.5884 61.5768 46.9592 61.5576C46.2324 61.5136 45.5055 61.5576 44.793 61.5439C43.8335 61.5136 43.4629 61.2335 43.4629 60.3298C43.4173 58.8039 43.4797 57.2768 43.6496 55.759C43.9886 53.394 44.0518 51.0565 43.4945 48.7189C43.3853 48.2904 43.4169 48.024 43.9743 47.8757C44.7155 47.6971 45.1234 46.7769 45.089 45.7304C45.0574 45.1673 44.9798 44.6317 44.9022 43.8955C45.2585 44.0438 45.5515 44.0878 45.7382 44.2663C46.3415 44.8157 46.9305 45.3651 47.9044 45.1975C48.1658 46.9445 47.9963 48.6887 48.3842 50.3753L48.6715 50.3451C48.5623 48.631 48.4704 46.8978 48.3612 45.3156C49.0277 44.7827 49.631 44.2966 50.3263 43.7197C51.1881 43.8516 51.4582 43.8516 51.5501 45.2415C51.5875 46.1589 51.8977 47.0461 51.9609 47.9636L51.9724 47.9526ZM52.9779 44.4778C52.9243 44.3044 52.8925 44.1256 52.8831 43.945C52.9147 43.1209 52.6217 42.4644 51.846 41.7997C52.096 42.599 52.3114 43.25 52.5269 43.8845L52.2971 43.9752C51.8776 43.2033 51.461 42.4342 51.0272 41.6514C51.168 41.2668 51.4151 41.2366 51.7857 41.4289C52.7452 41.9041 53.3026 43.077 53.179 44.4037C53.1067 44.4238 53.0372 44.4524 52.9722 44.4888L52.9779 44.4778Z" fill="black"/>
<path d="M4.32518 48.1818C4.14643 48.1552 3.92796 48.2031 3.79489 48.086C3.43342 47.7691 3.27652 45.9104 3.54663 45.3751L3.69161 46.7865C3.7512 47.343 3.78496 47.9209 4.38476 47.9715L4.32518 48.1818Z" fill="black"/>
<path d="M3.38264 48.6496C3.10289 48.5882 2.75062 48.5855 2.55722 48.4493C1.86649 47.9605 1.7318 46.0829 2.31892 45.3751C2.62629 46.4435 1.69035 47.7789 3.41027 48.4867C3.41027 48.5401 3.393 48.5962 3.38264 48.6496Z" fill="black"/>
<path d="M15.2893 6.65777L13.9616 9.34101C14.3077 9.36355 14.6522 9.40178 14.9939 9.45556C15.7633 9.61306 17.1657 9.24078 17.4773 8.77974C17.7143 9.30665 17.2338 9.7591 16.5034 9.73047C16.2567 9.73047 16.0035 9.83642 15.7568 9.8221C15.1041 9.78841 14.454 9.72437 13.809 9.63024C13.7246 9.63024 13.6142 9.32669 13.6467 9.18637C13.7187 8.90601 13.8277 8.63402 13.9713 8.37596C14.2959 7.76314 14.6628 7.15891 15.0069 6.54895L15.2731 6.64631L15.2893 6.65777Z" fill="black"/>
<path d="M17.0518 5.0503C17.2791 4.9347 17.5383 4.8358 17.8216 4.75658C18.1788 4.68195 18.5714 4.65985 18.9531 4.69291C19.3347 4.72597 19.6893 4.81279 19.9748 4.94309L17.2258 5.14576L17.0518 5.04296V5.0503Z" fill="black"/>
<path d="M12.182 5.47939C12.6365 4.78283 13.7655 4.46293 14.4401 4.83443C14.4893 4.86683 14.5303 4.90844 14.5605 4.95649C14.5907 5.00453 14.6093 5.05791 14.6151 5.11305C14.6029 5.15822 14.5788 5.19996 14.5448 5.2346C14.5109 5.26924 14.4681 5.29571 14.4203 5.3117C13.7429 5.42522 13.0598 5.52325 12.3768 5.61355C12.3203 5.61355 12.2441 5.52841 12.1792 5.48455L12.182 5.47939Z" fill="black"/>
<path d="M14.1279 11.1648C15.2942 11.5848 16.3934 11.4637 17.5382 10.759C17.0181 11.8125 14.9698 12.0166 14.1279 11.1648Z" fill="black"/>
<path d="M45.7949 40.2294H48.2308C47.9582 41.399 46.4909 41.5522 45.7949 40.2294Z" fill="black"/>
<path d="M43.8548 37.1372C44.1352 36.9271 44.4156 36.5941 44.696 36.5346C45.1054 36.4514 45.5905 36.3721 45.7952 37.2759C45.4986 37.128 45.1892 37.0373 44.8755 37.0064C44.5674 37.0885 44.2685 37.2285 43.9866 37.4226L43.8464 37.1372H43.8548Z" fill="black"/>
<path d="M49.6925 37.4227L48.231 37.3089C48.3895 36.9768 48.6719 36.9293 49.0237 36.9649C49.3754 37.0005 49.6256 37.0527 49.6925 37.4227Z" fill="black"/>
<path d="M46.282 39.7617C46.3612 39.454 46.3665 39.1462 46.4985 39.0324C46.7237 38.9145 46.9651 38.8447 47.2115 38.8262L47.2563 39.0262L46.282 39.7617Z" fill="black"/>
<path d="M13.1534 6.79271C13.1514 6.83891 13.1351 6.8835 13.1067 6.92084C13.0783 6.95817 13.039 6.98658 12.9938 7.00248C12.9486 7.01838 12.8995 7.02104 12.8527 7.01015C12.8059 6.99925 12.7635 6.97527 12.7309 6.94125C12.6983 6.90723 12.6769 6.86469 12.6694 6.819C12.662 6.77331 12.6688 6.72653 12.689 6.68457C12.7093 6.64261 12.742 6.60735 12.7831 6.58324C12.8242 6.55914 12.8718 6.54727 12.9199 6.54914C12.952 6.55017 12.9835 6.55732 13.0127 6.57017C13.0418 6.58302 13.068 6.60131 13.0898 6.62398C13.1115 6.64664 13.1283 6.67324 13.1392 6.7022C13.1502 6.73117 13.155 6.76194 13.1534 6.79271Z" fill="black"/>
<path d="M19.0001 6.78284C19.0001 6.8291 18.9858 6.87432 18.9591 6.91279C18.9323 6.95125 18.8943 6.98123 18.8497 6.99893C18.8052 7.01663 18.7563 7.02126 18.709 7.01224C18.6618 7.00321 18.6184 6.98094 18.5843 6.94823C18.5502 6.91552 18.527 6.87384 18.5176 6.82847C18.5082 6.7831 18.513 6.73607 18.5315 6.69334C18.5499 6.6506 18.5811 6.61407 18.6212 6.58837C18.6613 6.56267 18.7084 6.54895 18.7565 6.54895C18.8211 6.54895 18.8831 6.57359 18.9288 6.61746C18.9745 6.66132 19.0001 6.72081 19.0001 6.78284Z" fill="black"/>
<path d="M45.7948 38.1339C45.7926 38.1645 45.7778 38.1947 45.7513 38.2226C45.7247 38.2505 45.6869 38.2755 45.6401 38.2964C45.5932 38.3172 45.5382 38.3334 45.4783 38.344C45.4183 38.3546 45.3546 38.3594 45.2908 38.3581C45.1944 38.3564 45.1011 38.3411 45.0229 38.314C44.9447 38.2869 44.885 38.2493 44.8513 38.2059C44.8177 38.1625 44.8117 38.1153 44.834 38.0702C44.8564 38.0252 44.9061 37.9843 44.9768 37.9528C45.0476 37.9214 45.1362 37.9007 45.2315 37.8934C45.3268 37.8861 45.4244 37.8926 45.512 37.912C45.5996 37.9314 45.6732 37.9628 45.7236 38.0023C45.7739 38.0418 45.7987 38.0876 45.7948 38.1339Z" fill="black"/>
<path d="M49.2057 38.1244C49.2057 38.1707 49.1914 38.2159 49.1646 38.2543C49.1379 38.2928 49.0998 38.3228 49.0553 38.3405C49.0108 38.3582 48.9618 38.3628 48.9146 38.3538C48.8673 38.3448 48.8239 38.3225 48.7899 38.2898C48.7558 38.2571 48.7326 38.2154 48.7232 38.17C48.7138 38.1247 48.7186 38.0776 48.737 38.0349C48.7555 37.9922 48.7867 37.9556 48.8268 37.9299C48.8668 37.9042 48.9139 37.8905 48.9621 37.8905C49.0267 37.8905 49.0887 37.9151 49.1343 37.959C49.18 38.0029 49.2057 38.0624 49.2057 38.1244Z" fill="black"/>
</svg>
