<svg width="24" height="24" viewBox="0 0 24 24" fill="none" xmlns="http://www.w3.org/2000/svg">
<rect width="24" height="24" rx="12" fill="#BEBE3B"/>
<path d="M8.19531 16.002C8.19531 15.9655 8.19531 15.9108 8.19531 15.8379C8.20443 15.765 8.21354 15.6921 8.22266 15.6191C8.23177 15.5462 8.23633 15.4824 8.23633 15.4277C8.24544 15.3639 8.25 15.3229 8.25 15.3047C8.25911 15.1862 8.2819 15.0951 8.31836 15.0312C8.35482 14.9674 8.40039 14.9173 8.45508 14.8809C8.50977 14.8353 8.57357 14.7943 8.64648 14.7578C8.7194 14.7214 8.80143 14.6712 8.89258 14.6074C8.91081 14.5892 8.95638 14.5527 9.0293 14.498C9.10221 14.4342 9.15234 14.3932 9.17969 14.375C9.81771 13.819 10.3874 13.2402 10.8887 12.6387C11.3991 12.028 11.9232 11.3945 12.4609 10.7383C12.6797 10.4557 12.8711 10.1549 13.0352 9.83594C13.2083 9.50781 13.2949 9.16602 13.2949 8.81055C13.2949 8.67383 13.2767 8.53711 13.2402 8.40039C13.2129 8.25456 13.1628 8.12695 13.0898 8.01758C13.026 7.9082 12.9395 7.81706 12.8301 7.74414C12.7207 7.67122 12.5885 7.63477 12.4336 7.63477C12.2786 7.63477 12.1283 7.67122 11.9824 7.74414C11.8457 7.80794 11.7135 7.89453 11.5859 8.00391C11.4674 8.11328 11.3535 8.23633 11.2441 8.37305C11.1439 8.50065 11.0618 8.62826 10.998 8.75586C10.9889 8.77409 10.9707 8.81055 10.9434 8.86523C10.916 8.91992 10.8841 8.98372 10.8477 9.05664C10.8112 9.12044 10.7793 9.17969 10.752 9.23438C10.7246 9.28906 10.7064 9.32096 10.6973 9.33008C10.6426 9.42122 10.5469 9.48958 10.4102 9.53516C10.2826 9.58073 10.1413 9.61263 9.98633 9.63086C9.83138 9.63997 9.67643 9.64453 9.52148 9.64453C9.37565 9.63542 9.25716 9.63086 9.16602 9.63086C8.98372 9.63086 8.81966 9.63086 8.67383 9.63086C8.53711 9.62174 8.3776 9.59896 8.19531 9.5625C8.1224 9.54427 8.08138 9.50781 8.07227 9.45312C8.07227 9.38932 8.07227 9.33464 8.07227 9.28906C8.07227 9.10677 8.08594 8.91992 8.11328 8.72852C8.14974 8.53711 8.19531 8.36393 8.25 8.20898C8.25 8.20898 8.25911 8.1862 8.27734 8.14062C8.30469 8.08594 8.33203 8.03125 8.35938 7.97656C8.39583 7.91276 8.42773 7.84896 8.45508 7.78516C8.49154 7.72135 8.52344 7.67122 8.55078 7.63477C8.78776 7.19727 9.10677 6.82812 9.50781 6.52734C9.90885 6.22656 10.3281 5.97135 10.7656 5.76172C10.8477 5.72526 10.9297 5.69336 11.0117 5.66602C11.1029 5.62956 11.1986 5.60221 11.2988 5.58398H11.9961C12.3424 5.58398 12.6842 5.60677 13.0215 5.65234C13.3678 5.69792 13.696 5.78451 14.0059 5.91211C14.3158 6.03971 14.5938 6.21289 14.8398 6.43164C15.0859 6.65039 15.2865 6.9375 15.4414 7.29297C15.4505 7.30208 15.4642 7.33398 15.4824 7.38867C15.5098 7.43424 15.5326 7.48893 15.5508 7.55273C15.5781 7.61654 15.6009 7.68034 15.6191 7.74414C15.6465 7.79883 15.6693 7.83984 15.6875 7.86719C15.7513 8.03125 15.7878 8.19531 15.7969 8.35938C15.806 8.51432 15.8105 8.68294 15.8105 8.86523C15.8105 9.16602 15.7695 9.4668 15.6875 9.76758C15.6055 10.0592 15.4961 10.3464 15.3594 10.6289C15.2227 10.9115 15.0677 11.1849 14.8945 11.4492C14.7305 11.7135 14.5618 11.9642 14.3887 12.2012C14.097 12.6113 13.8145 13.0169 13.541 13.418C13.2676 13.819 12.9668 14.2155 12.6387 14.6074C12.6751 14.6165 12.7526 14.6257 12.8711 14.6348C12.9987 14.6439 13.0807 14.6484 13.1172 14.6484C13.1536 14.6576 13.2493 14.6621 13.4043 14.6621C13.5684 14.6621 13.7415 14.6621 13.9238 14.6621C14.1061 14.6621 14.2747 14.6621 14.4297 14.6621C14.5938 14.653 14.6986 14.6484 14.7441 14.6484C14.7624 14.6484 14.7988 14.653 14.8535 14.6621C14.9082 14.6621 14.9674 14.6667 15.0312 14.6758C15.0951 14.6849 15.1543 14.694 15.209 14.7031C15.2637 14.7122 15.3047 14.7214 15.332 14.7305C15.5143 14.7487 15.6419 14.8262 15.7148 14.9629C15.7969 15.0905 15.847 15.2454 15.8652 15.4277C15.8743 15.6009 15.8835 15.806 15.8926 16.043C15.9108 16.2708 15.9199 16.4896 15.9199 16.6992C15.9199 16.7995 15.9062 16.8815 15.8789 16.9453C15.8607 17 15.8151 17.0592 15.7422 17.123C15.6419 17.123 15.4642 17.1276 15.209 17.1367C14.9538 17.1458 14.6803 17.1504 14.3887 17.1504C14.1061 17.1595 13.8372 17.1641 13.582 17.1641C13.3268 17.1732 13.1491 17.1777 13.0488 17.1777C12.8301 17.1777 12.5612 17.1777 12.2422 17.1777C11.9323 17.1777 11.6087 17.1732 11.2715 17.1641C10.9342 17.1641 10.6016 17.1595 10.2734 17.1504C9.94531 17.1504 9.64909 17.1458 9.38477 17.1367C9.12044 17.1367 8.90169 17.1322 8.72852 17.123C8.56445 17.123 8.48242 17.123 8.48242 17.123L8.37305 17.0547C8.37305 17.0547 8.36393 17.0182 8.3457 16.9453C8.32747 16.8724 8.30924 16.7904 8.29102 16.6992C8.27279 16.599 8.25456 16.4987 8.23633 16.3984C8.2181 16.2891 8.20443 16.1979 8.19531 16.125V16.0703V16.002Z" fill="black"/>
</svg>
