<svg width="36" height="37" viewBox="0 0 36 37" fill="none" xmlns="http://www.w3.org/2000/svg">
<path fill-rule="evenodd" clip-rule="evenodd" d="M17.865 36.228C27.0664 36.228 34.5257 28.393 34.5257 18.728C34.5257 9.06304 27.0664 1.22803 17.865 1.22803C8.66349 1.22803 1.20422 9.06304 1.20422 18.728C1.20422 28.393 8.66349 36.228 17.865 36.228Z" stroke="white" stroke-width="1.5"/>
<path d="M26.0722 23.0497L26.0723 23.0494C26.2342 22.4369 26.3214 21.4531 26.3657 20.5869C26.3874 20.1613 26.3983 19.7763 26.4038 19.4977C26.4065 19.3585 26.4079 19.2461 26.4085 19.1689L26.4091 19.0804L26.4092 19.0578L26.4092 19.0523L26.4092 19.051V19.0508V19.0505L26.4092 19.0493L26.4092 19.0438L26.4091 19.0212L26.4085 18.9327C26.4079 18.8554 26.4065 18.7431 26.4038 18.6039C26.3983 18.3253 26.3874 17.9403 26.3657 17.5146C26.3214 16.6485 26.2342 15.6647 26.0723 15.0521L26.0722 15.0519C25.9988 14.7736 25.8542 14.5201 25.6533 14.3164C25.4527 14.1131 25.203 13.9666 24.9293 13.8913C24.651 13.816 24.1185 13.7511 23.434 13.7005C22.763 13.6509 21.9867 13.6176 21.2469 13.5953C20.5079 13.5731 19.8095 13.5619 19.2955 13.5563C19.0387 13.5536 18.8281 13.5522 18.6819 13.5515L18.5132 13.5509L18.4693 13.5508L18.4582 13.5508L18.4555 13.5508H18.4548H18.4547L18.4547 13.0508L18.4546 13.5508H18.4545H18.4538L18.4511 13.5508L18.44 13.5508L18.3961 13.5509L18.2274 13.5515C18.0812 13.5522 17.8707 13.5536 17.6138 13.5563C17.0998 13.5619 16.4014 13.5731 15.6624 13.5953C14.9226 13.6176 14.1463 13.6509 13.4754 13.7005C12.7909 13.7511 12.2584 13.816 11.9801 13.8912C11.7063 13.9666 11.4566 14.1131 11.256 14.3164C11.0551 14.5201 10.9105 14.7736 10.8371 15.0519L10.8371 15.0521C10.6751 15.6647 10.5879 16.6485 10.5437 17.5146C10.5219 17.9403 10.511 18.3253 10.5056 18.6039C10.5028 18.7431 10.5015 18.8554 10.5008 18.9327L10.5002 19.0212L10.5001 19.0438L10.5001 19.0493L10.5001 19.0505L10.5001 19.0508V19.0508V19.0508V19.0508L10.5001 19.051L10.5001 19.0523L10.5001 19.0578L10.5002 19.0804L10.5008 19.1689C10.5015 19.2461 10.5028 19.3585 10.5056 19.4977C10.511 19.7763 10.5219 20.1613 10.5437 20.5869C10.5879 21.4531 10.6751 22.4369 10.8371 23.0494L10.8371 23.0497C10.9105 23.3279 11.0551 23.5815 11.256 23.7851C11.4566 23.9885 11.7064 24.135 11.9802 24.2103C12.2585 24.2856 12.791 24.3505 13.4754 24.4011C14.1463 24.4507 14.9226 24.484 15.6624 24.5062C16.4014 24.5285 17.0998 24.5396 17.6138 24.5452C17.8707 24.548 18.0812 24.5494 18.2274 24.5501L18.3961 24.5507L18.44 24.5508L18.4511 24.5508L18.4538 24.5508L18.4545 24.5508H18.4546L18.4547 25.0508L18.4547 24.5508H18.4548L18.4555 24.5508L18.4582 24.5508L18.4693 24.5508L18.5132 24.5507L18.6819 24.5501C18.8281 24.5494 19.0387 24.548 19.2955 24.5452C19.8095 24.5396 20.5079 24.5285 21.2469 24.5062C21.9867 24.484 22.763 24.4507 23.434 24.4011C24.1184 24.3505 24.6508 24.2856 24.9292 24.2103C25.203 24.135 25.4527 23.9885 25.6533 23.7851C25.8542 23.5815 25.9988 23.3279 26.0722 23.0497ZM16.2253 16.5182V15.6554L16.9739 16.0844L21.3934 18.617L22.1504 19.0508L21.3934 19.4846L16.9739 22.0172L16.2253 22.4462V21.5834V16.5182Z" fill="white" stroke="white"/>
</svg>
