<svg width="37" height="37" viewBox="0 0 37 37" fill="none" xmlns="http://www.w3.org/2000/svg">
<path fill-rule="evenodd" clip-rule="evenodd" d="M18.5 36C28.165 36 36 28.165 36 18.5C36 8.83502 28.165 1 18.5 1C8.83502 1 1 8.83502 1 18.5C1 28.165 8.83502 36 18.5 36Z" stroke="black" stroke-width="2"/>
<path d="M27.146 22.8152V22.8149C27.3155 22.2048 27.407 21.2233 27.4535 20.3571C27.4763 19.9318 27.4878 19.5471 27.4935 19.2687C27.4963 19.1296 27.4978 19.0173 27.4985 18.9401L27.4991 18.8517L27.4992 18.8292V18.8238V18.8225V18.8223V18.8222V18.822V18.8208V18.8153L27.4991 18.7928L27.4985 18.7044C27.4978 18.6272 27.4963 18.5149 27.4935 18.3759C27.4878 18.0974 27.4763 17.7127 27.4535 17.2874C27.407 16.4213 27.3155 15.4397 27.146 14.8296V14.8293C27.0699 14.5547 26.9193 14.3017 26.7067 14.0966C26.4942 13.8915 26.2274 13.7417 25.932 13.6643C25.6349 13.5878 25.0712 13.5227 24.3525 13.4721C23.6467 13.4224 22.8305 13.3891 22.0531 13.3668C21.2765 13.3446 20.5426 13.3334 20.0025 13.3278C19.7326 13.325 19.5113 13.3237 19.3577 13.323L19.1803 13.3224L19.1342 13.3223H19.1225H19.1196H19.1189H19.1188L19.1187 12.8223V13.3223H19.1186H19.1179H19.115H19.1033L19.0571 13.3224L18.8798 13.323C18.7262 13.3237 18.5049 13.325 18.235 13.3278C17.6949 13.3334 16.961 13.3446 16.1844 13.3668C15.407 13.3891 14.5908 13.4224 13.885 13.4721C13.1663 13.5227 12.6027 13.5878 12.3055 13.6643C12.0101 13.7417 11.7433 13.8915 11.5308 14.0966C11.3182 14.3017 11.1676 14.5547 11.0915 14.8293L11.0914 14.8296C10.922 15.4397 10.8305 16.4213 10.784 17.2874C10.7612 17.7127 10.7497 18.0974 10.744 18.3759C10.7412 18.5149 10.7397 18.6272 10.739 18.7044L10.7384 18.7928L10.7383 18.8153V18.8208V18.822V18.8222V18.8223V18.8225V18.8238V18.8292L10.7384 18.8517L10.739 18.9401C10.7397 19.0173 10.7412 19.1296 10.744 19.2687C10.7497 19.5471 10.7612 19.9318 10.784 20.3571C10.8305 21.2233 10.922 22.2048 11.0914 22.8149L11.0915 22.8152C11.1676 23.0898 11.3182 23.3428 11.5308 23.548C11.7433 23.753 12.0101 23.9029 12.3056 23.9802C12.6027 24.0567 13.1663 24.1219 13.885 24.1724C14.5908 24.2221 15.407 24.2554 16.1844 24.2777C16.961 24.3 17.6949 24.3111 18.235 24.3167C18.5049 24.3195 18.7262 24.3209 18.8798 24.3216L19.0571 24.3222L19.1033 24.3223H19.115H19.1179H19.1186H19.1187V24.8223L19.1188 24.3223H19.1189H19.1196H19.1225H19.1342L19.1803 24.3222L19.3577 24.3216C19.5113 24.3209 19.7326 24.3195 20.0025 24.3167C20.5426 24.3111 21.2765 24.3 22.0531 24.2777C22.8305 24.2554 23.6467 24.2221 24.3525 24.1724C25.0712 24.1219 25.6348 24.0567 25.932 23.9802C26.2274 23.9029 26.4942 23.753 26.7067 23.548C26.9193 23.3428 27.0699 23.0898 27.146 22.8152ZM16.8023 16.2897V15.4473L17.5418 15.8508L22.1838 18.3833L22.9883 18.8223L22.1838 19.2612L17.5418 21.7938L16.8023 22.1972V21.3548V16.2897Z" fill="black" stroke="black"/>
</svg>
